<?xml version="1.0" encoding="UTF-8" standalone="no"?>
<svg
   xmlns:dc="http://purl.org/dc/elements/1.1/"
   xmlns:cc="http://creativecommons.org/ns#"
   xmlns:rdf="http://www.w3.org/1999/02/22-rdf-syntax-ns#"
   xmlns:svg="http://www.w3.org/2000/svg"
   xmlns="http://www.w3.org/2000/svg"
   xmlns:xlink="http://www.w3.org/1999/xlink"
   xmlns:sodipodi="http://sodipodi.sourceforge.net/DTD/sodipodi-0.dtd"
   xmlns:inkscape="http://www.inkscape.org/namespaces/inkscape"
   id="ae37f038-3a9e-4b82-ad68-fc94ba16af2a"
   data-name="Layer 1"
   width="1096"
   height="574.74"
   viewBox="0 0 1096 574.74"
   version="1.1"
   sodipodi:docname="contact.svg"
   inkscape:version="1.0.1 (3bc2e813f5, 2020-09-07)">
  <metadata
     id="metadata454">
    <rdf:RDF>
      <cc:Work
         rdf:about="">
        <dc:format>image/svg+xml</dc:format>
        <dc:type
           rdf:resource="http://purl.org/dc/dcmitype/StillImage" />
      </cc:Work>
    </rdf:RDF>
  </metadata>
  <sodipodi:namedview
     pagecolor="#ffffff"
     bordercolor="#666666"
     borderopacity="1"
     objecttolerance="10"
     gridtolerance="10"
     guidetolerance="10"
     inkscape:pageopacity="0"
     inkscape:pageshadow="2"
     inkscape:window-width="1920"
     inkscape:window-height="1009"
     id="namedview452"
     showgrid="false"
     inkscape:zoom="0.95072993"
     inkscape:cx="548"
     inkscape:cy="287.37"
     inkscape:window-x="-8"
     inkscape:window-y="-8"
     inkscape:window-maximized="1"
     inkscape:current-layer="ae37f038-3a9e-4b82-ad68-fc94ba16af2a"
     inkscape:document-rotation="0" />
  <defs
     id="defs115">
    <rect
       x="-72.575816"
       y="-41.021113"
       width="1252.7217"
       height="518.54894"
       id="rect186" />
    <rect
       x="1153.8503"
       y="492.25336"
       width="1214.856"
       height="509.08253"
       id="rect180" />
    <rect
       x="332.3762"
       y="52.591171"
       width="389.17466"
       height="68.368522"
       id="rect460" />
    <linearGradient
       id="eb6c86d6-45fa-49e0-9a60-1b0612516196"
       x1="819.07"
       y1="732.58"
       x2="819.07"
       y2="560.46"
       gradientUnits="userSpaceOnUse">
      <stop
         offset="0"
         stop-color="gray"
         stop-opacity="0.25"
         id="stop2" />
      <stop
         offset="0.54"
         stop-color="gray"
         stop-opacity="0.12"
         id="stop4" />
      <stop
         offset="1"
         stop-color="gray"
         stop-opacity="0.1"
         id="stop6" />
    </linearGradient>
    <pattern
       id="ad310e25-2b04-44c8-bb7b-982389166780"
       data-name="New Pattern 3"
       width="36.88"
       height="49.48"
       patternUnits="userSpaceOnUse"
       viewBox="0 0 36.88 49.48">
      <rect
         width="36.88"
         height="49.48"
         fill="none"
         id="rect9" />
      <path
         d="M4.33,13.19c4.5,0,4.51-7,0-7s-4.52,7,0,7Z"
         id="path11" />
      <path
         d="M4.51,17.16c4.51,0,4.52-7,0-7s-4.51,7,0,7Z"
         id="path13" />
      <path
         d="M4.51,20.94c4.51,0,4.52-7,0-7s-4.51,7,0,7Z"
         id="path15" />
      <path
         d="M3.38,24.72c4.51,0,4.51-7,0-7s-4.51,7,0,7Z"
         id="path17" />
      <path
         d="M1.09,28.29l.2.38a3.52,3.52,0,0,0,4.78,1.25,3.58,3.58,0,0,0,1.26-4.79l-.19-.37A3.52,3.52,0,0,0,2.35,23.5a3.59,3.59,0,0,0-1.26,4.79Z"
         id="path19" />
      <path
         d="M1.49,30.1l.18.57a3.73,3.73,0,0,0,1.61,2.09,3.59,3.59,0,0,0,2.7.35A3.54,3.54,0,0,0,8.42,28.8l-.18-.56a3.68,3.68,0,0,0-1.61-2.1,3.61,3.61,0,0,0-2.69-.35A3.56,3.56,0,0,0,1.49,30.1Z"
         id="path21" />
      <path
         d="M1.58,33.88v.38a3.54,3.54,0,0,0,3.5,3.5,3.56,3.56,0,0,0,3.5-3.5v-.38a3.54,3.54,0,0,0-3.5-3.5,3.57,3.57,0,0,0-3.5,3.5Z"
         id="path23" />
      <path
         d="M4.89,42.3c4.51,0,4.51-7,0-7s-4.51,7,0,7Z"
         id="path25" />
      <path
         d="M1.77,42v.19a3.54,3.54,0,0,0,3.5,3.5,3.56,3.56,0,0,0,3.5-3.5V42a3.54,3.54,0,0,0-3.5-3.5A3.56,3.56,0,0,0,1.77,42Z"
         id="path27" />
      <path
         d="M6,49.29c4.5,0,4.51-7,0-7s-4.52,7,0,7Z"
         id="path29" />
      <path
         d="M10,14.14c4.5,0,4.51-7,0-7s-4.52,7,0,7Z"
         id="path31" />
      <path
         d="M6.59,20.94c4.51,0,4.52-7,0-7s-4.51,7,0,7Z"
         id="path33" />
      <path
         d="M8.48,27c4.51,0,4.51-7,0-7s-4.51,7,0,7Z"
         id="path35" />
      <path
         d="M8.48,29.26c4.51,0,4.51-7,0-7s-4.51,7,0,7Z"
         id="path37" />
      <path
         d="M14.91,33.79c4.5,0,4.51-7,0-7s-4.51,7,0,7Z"
         id="path39" />
      <path
         d="M9.81,38.52c4.5,0,4.51-7,0-7s-4.52,7,0,7Z"
         id="path41" />
      <path
         d="M10.56,45.13c4.51,0,4.51-7,0-7s-4.51,7,0,7Z"
         id="path43" />
      <path
         d="M10.56,49.48c4.51,0,4.51-7,0-7s-4.51,7,0,7Z"
         id="path45" />
      <path
         d="M12.83,18.12c2.57,0,2.58-4,0-4s-2.58,4,0,4Z"
         id="path47" />
      <path
         d="M13,20.39c2.57,0,2.58-4,0-4s-2.58,4,0,4Z"
         id="path49" />
      <path
         d="M13.1,21v.19a2,2,0,0,0,4,0V21a2,2,0,0,0-4,0Z"
         id="path51" />
      <path
         d="M15.1,25.87c2.57,0,2.58-4,0-4s-2.58,4,0,4Z"
         id="path53" />
      <path
         d="M16.61,11.07a1,1,0,0,0,0-2,1,1,0,0,0,0,2Z"
         id="path55" />
      <path
         d="M21.71,16.55a1,1,0,0,0,0-2,1,1,0,0,0,0,2Z"
         id="path57" />
      <path
         d="M16.85,8.94V8.56a1,1,0,0,0-2,0v.38a1,1,0,0,0,2,0Z"
         id="path59" />
      <path
         d="M16.48,4.78V4.59a1,1,0,0,0-2,0v.19a1,1,0,0,0,2,0Z"
         id="path61" />
      <path
         d="M15.48,2a1,1,0,0,0,0-2,1,1,0,0,0,0,2Z"
         id="path63" />
      <path
         d="M10.56,2a1,1,0,0,0,0-2,1,1,0,0,0,0,2Z"
         id="path65" />
      <path
         d="M10.37,4.65a1,1,0,0,0,0-2,1,1,0,0,0,0,2Z"
         id="path67" />
      <path
         d="M7.35,6.16a1,1,0,0,0,0-2,1,1,0,0,0,0,2Z"
         id="path69" />
      <path
         d="M11.88,7.1h.38a1,1,0,0,0,0-2h-.38a1,1,0,0,0,0,2Z"
         id="path71" />
      <path
         d="M13.28,11l.57,1.32a1,1,0,0,0,1.37.36,1,1,0,0,0,.36-1.37L15,10a1,1,0,0,0-1.37-.36A1,1,0,0,0,13.28,11Z"
         id="path73" />
      <path
         d="M18.44,19.33v.19a1,1,0,0,0,2,0v-.19a1,1,0,0,0-2,0Z"
         id="path75" />
      <path
         d="M20.68,24.93l.19.38c.57,1.15,2.3.14,1.72-1l-.19-.38c-.57-1.15-2.3-.14-1.72,1Z"
         id="path77" />
      <path
         d="M22.13,29.38a2.48,2.48,0,0,0-.84,1.86,1,1,0,0,0,2,0,.56.56,0,0,1,.25-.44,1,1,0,0,0,0-1.42,1,1,0,0,0-1.41,0Z"
         id="path79" />
      <path
         d="M20.32,33.41l-.54,1.71c-.38,1.23,1.55,1.76,1.93.53l.54-1.71c.38-1.23-1.55-1.76-1.93-.53Z"
         id="path81" />
      <path
         d="M19.44,37h-.19a1,1,0,0,0,0,2h.19a1,1,0,0,0,0-2Z"
         id="path83" />
      <path
         d="M17.64,41.5l-.19.38c-.58,1.15,1.15,2.16,1.72,1l.19-.38c.58-1.15-1.15-2.16-1.72-1Z"
         id="path85" />
      <path
         d="M15.8,47.87v.56a1,1,0,0,0,2,0v-.56a1,1,0,0,0-2,0Z"
         id="path87" />
      <path
         d="M14.34,49.43a1,1,0,0,0,0-2,1,1,0,0,0,0,2Z"
         id="path89" />
      <path
         d="M14.34,41.31a1,1,0,0,0,0-2,1,1,0,0,0,0,2Z"
         id="path91" />
      <path
         d="M17.13,36.47a2,2,0,0,0,1-1.64,1,1,0,0,0-2,0c0-.13.19-.2,0-.08-1.15.58-.14,2.3,1,1.72Z"
         id="path93" />
      <path
         d="M17.37,31.29a1,1,0,0,0,0-2,1,1,0,0,0,0,2Z"
         id="path95" />
      <path
         d="M18.12,28.46a1,1,0,0,0,0-2,1,1,0,0,0,0,2Z"
         id="path97" />
      <path
         d="M19,24.94l.19-.38c.58-1.15-1.15-2.16-1.72-1l-.19.38c-.58,1.15,1.15,2.16,1.72,1Z"
         id="path99" />
      <path
         d="M17.93,16a1,1,0,0,0,0-2,1,1,0,0,0,0,2Z"
         id="path101" />
      <path
         d="M24.64,16.05l.57.94a1,1,0,0,0,1.72-1L26.37,15a1,1,0,0,0-1.73,1Z"
         id="path103" />
      <path
         d="M34.88,29.72v.19a1,1,0,0,0,2,0v-.19a1,1,0,0,0-2,0Z"
         id="path105" />
      <path
         d="M24,39.23a1,1,0,0,0,0-2,1,1,0,0,0,0,2Z"
         id="path107" />
      <path
         d="M22.85,29a1,1,0,0,0,0-2,1,1,0,0,0,0,2Z"
         id="path109" />
      <path
         d="M18.24,21.9l.57-.56c.93-.89-.48-2.3-1.41-1.41l-.58.56c-.93.89.49,2.3,1.42,1.41Z"
         id="path111" />
    </pattern>
    <linearGradient
       id="a964f849-fa65-4178-8cc4-fb8fb10b3617"
       x1="462.91"
       y1="660.68"
       x2="462.91"
       y2="559.69"
       xlink:href="#eb6c86d6-45fa-49e0-9a60-1b0612516196"
       gradientTransform="matrix(0.69157566,0,0,0.69157566,110.45482,-128.57397)" />
  </defs>
  <title
     id="title117">contact us</title>
  <g
     opacity="0.1"
     id="g131"
     transform="translate(1.0518234,34.710173)">
    <ellipse
       cx="479.42001"
       cy="362.12"
       rx="11.38"
       ry="14.9"
       fill="#3f3d56"
       id="ellipse119" />
    <path
       d="m 540.43,461 a 18,18 0 0 0 2.38,-9.11 c 0,-8.23 -5.1,-14.9 -11.39,-14.9 -6.29,0 -11.42,6.69 -11.42,14.92 a 18,18 0 0 0 2.38,9.11 18.61,18.61 0 0 0 0,18.21 18.61,18.61 0 0 0 0,18.21 17.94,17.94 0 0 0 -2.38,9.11 c 0,8.22 5.1,14.9 11.38,14.9 6.28,0 11.39,-6.68 11.39,-14.9 a 17.94,17.94 0 0 0 -2.38,-9.11 18.61,18.61 0 0 0 0,-18.21 18.61,18.61 0 0 0 0,-18.21 z"
       transform="translate(-52,-162.63)"
       fill="#3f3d56"
       id="path121" />
    <ellipse
       cx="479.42001"
       cy="271.07001"
       rx="11.38"
       ry="14.9"
       fill="#3f3d56"
       id="ellipse123" />
    <ellipse
       cx="479.42001"
       cy="252.86"
       rx="11.38"
       ry="14.9"
       fill="#3f3d56"
       id="ellipse125" />
    <path
       d="m 488.82,290.86 a 53.08,53.08 0 0 1 -4.24,-6.24 l 29.9,-4.91 -32.34,0.24 a 54.62,54.62 0 0 1 -1,-43.2 l 43.39,22.51 -40,-29.42 a 54.53,54.53 0 1 1 90,61 54.54,54.54 0 0 1 6.22,9.94 L 541.92,321 583.31,307.11 a 54.53,54.53 0 0 1 -8.79,51.2 54.52,54.52 0 1 1 -85.7,0 54.52,54.52 0 0 1 0,-67.42 z"
       transform="translate(-52,-162.63)"
       fill="#6c63ff"
       id="path127" />
    <path
       d="m 586.19,324.57 a 54.27,54.27 0 0 1 -11.67,33.71 54.52,54.52 0 1 1 -85.7,0 c -7.31,-9.28 97.37,-39.83 97.37,-33.71 z"
       transform="translate(-52,-162.63)"
       opacity="0.1"
       id="path129" />
  </g>
  <g
     opacity="0.1"
     id="g145"
     transform="translate(1.0518234,80.710173)">
    <ellipse
       cx="612.28003"
       cy="330.26001"
       rx="8.5100002"
       ry="11.13"
       fill="#3f3d56"
       id="ellipse133" />
    <path
       d="m 671,445.26 a 13.43,13.43 0 0 0 1.77,-6.8 c 0,-6.15 -3.81,-11.14 -8.5,-11.14 -4.69,0 -8.51,5 -8.51,11.14 a 13.33,13.33 0 0 0 1.78,6.8 13.9,13.9 0 0 0 0,13.61 13.9,13.9 0 0 0 0,13.61 13.33,13.33 0 0 0 -1.78,6.8 c 0,6.15 3.81,11.14 8.51,11.14 4.7,0 8.5,-5 8.5,-11.14 a 13.43,13.43 0 0 0 -1.77,-6.8 14,14 0 0 0 0,-13.61 14,14 0 0 0 0,-13.61 z"
       transform="translate(-52,-162.63)"
       fill="#3f3d56"
       id="path135" />
    <ellipse
       cx="612.28003"
       cy="262.22"
       rx="8.5100002"
       ry="11.13"
       fill="#3f3d56"
       id="ellipse137" />
    <ellipse
       cx="612.28003"
       cy="248.61"
       rx="8.5100002"
       ry="11.13"
       fill="#3f3d56"
       id="ellipse139" />
    <path
       d="m 632.44,318.11 a 39,39 0 0 1 -3.17,-4.66 l 22.35,-3.67 -24.17,0.18 a 40.84,40.84 0 0 1 -0.78,-32.29 l 32.43,16.83 -29.91,-22 a 40.75,40.75 0 1 1 67.29,45.6 41.2,41.2 0 0 1 4.65,7.43 l -29,15.07 30.93,-10.38 a 40.76,40.76 0 0 1 -6.57,38.26 40.74,40.74 0 1 1 -64,0 40.74,40.74 0 0 1 0,-50.38 z"
       transform="translate(-52,-162.63)"
       fill="#6c63ff"
       id="path141" />
    <path
       d="m 705.2,343.3 a 40.57,40.57 0 0 1 -8.72,25.19 40.74,40.74 0 1 1 -64,0 C 627,361.56 705.2,338.73 705.2,343.3 Z"
       transform="translate(-52,-162.63)"
       opacity="0.1"
       id="path143" />
  </g>
  <g
     opacity="0.1"
     id="g159"
     transform="translate(1.0518234,34.710173)">
    <ellipse
       cx="1038.58"
       cy="322.12"
       rx="11.38"
       ry="14.9"
       fill="#3f3d56"
       id="ellipse147" />
    <path
       d="m 1081.57,421 a 18,18 0 0 1 -2.38,-9.11 c 0,-8.23 5.1,-14.9 11.39,-14.9 6.29,0 11.38,6.67 11.38,14.9 a 18,18 0 0 1 -2.38,9.11 18.61,18.61 0 0 1 0,18.21 18.61,18.61 0 0 1 0,18.21 17.94,17.94 0 0 1 2.38,9.11 c 0,8.22 -5.1,14.9 -11.38,14.9 -6.28,0 -11.39,-6.68 -11.39,-14.9 a 17.94,17.94 0 0 1 2.38,-9.11 18.61,18.61 0 0 1 0,-18.21 18.61,18.61 0 0 1 0,-18.21 z"
       transform="translate(-52,-162.63)"
       fill="#3f3d56"
       id="path149" />
    <ellipse
       cx="1038.58"
       cy="231.07001"
       rx="11.38"
       ry="14.9"
       fill="#3f3d56"
       id="ellipse151" />
    <ellipse
       cx="1038.58"
       cy="212.86"
       rx="11.38"
       ry="14.9"
       fill="#3f3d56"
       id="ellipse153" />
    <path
       d="m 1133.18,250.86 a 53.08,53.08 0 0 0 4.24,-6.24 l -29.9,-4.91 32.34,0.24 a 54.62,54.62 0 0 0 1,-43.2 l -43.39,22.51 40,-29.42 a 54.53,54.53 0 1 0 -90,61 54.54,54.54 0 0 0 -6.22,9.94 l 38.83,20.22 -41.39,-13.89 a 54.53,54.53 0 0 0 8.79,51.2 54.52,54.52 0 1 0 85.7,0 54.52,54.52 0 0 0 0,-67.42 z"
       transform="translate(-52,-162.63)"
       fill="#6c63ff"
       id="path155" />
    <path
       d="m 1035.81,284.57 a 54.27,54.27 0 0 0 11.67,33.71 54.52,54.52 0 1 0 85.7,0 c 7.31,-9.28 -97.37,-39.83 -97.37,-33.71 z"
       transform="translate(-52,-162.63)"
       opacity="0.1"
       id="path157" />
  </g>
  <g
     opacity="0.1"
     id="g173"
     transform="translate(1.0518234,34.710173)">
    <ellipse
       cx="928.71997"
       cy="324.26001"
       rx="8.5100002"
       ry="11.13"
       fill="#3f3d56"
       id="ellipse161" />
    <path
       d="m 974,439.26 a 13.43,13.43 0 0 1 -1.77,-6.8 c 0,-6.15 3.81,-11.14 8.5,-11.14 4.69,0 8.51,5 8.51,11.14 a 13.33,13.33 0 0 1 -1.78,6.8 13.9,13.9 0 0 1 0,13.61 13.9,13.9 0 0 1 0,13.61 13.33,13.33 0 0 1 1.78,6.8 c 0,6.15 -3.81,11.14 -8.51,11.14 -4.7,0 -8.5,-5 -8.5,-11.14 a 13.43,13.43 0 0 1 1.77,-6.8 14,14 0 0 1 0,-13.61 14,14 0 0 1 0,-13.61 z"
       transform="translate(-52,-162.63)"
       fill="#3f3d56"
       id="path163" />
    <ellipse
       cx="928.71997"
       cy="256.22"
       rx="8.5100002"
       ry="11.13"
       fill="#3f3d56"
       id="ellipse165" />
    <ellipse
       cx="928.71997"
       cy="242.61"
       rx="8.5100002"
       ry="11.13"
       fill="#3f3d56"
       id="ellipse167" />
    <path
       d="m 1012.56,312.11 a 39,39 0 0 0 3.17,-4.66 l -22.35,-3.67 24.17,0.18 a 40.84,40.84 0 0 0 0.78,-32.29 l -32.43,16.83 29.91,-22 a 40.75,40.75 0 1 0 -67.29,45.6 41.2,41.2 0 0 0 -4.65,7.43 l 29,15.07 L 942,324.23 a 40.76,40.76 0 0 0 6.57,38.26 40.74,40.74 0 1 0 64,0 40.74,40.74 0 0 0 0,-50.38 z"
       transform="translate(-52,-162.63)"
       fill="#6c63ff"
       id="path169" />
    <path
       d="m 939.8,337.3 a 40.57,40.57 0 0 0 8.72,25.19 40.74,40.74 0 1 0 64,0 C 1018,355.56 939.8,332.73 939.8,337.3 Z"
       transform="translate(-52,-162.63)"
       opacity="0.1"
       id="path171" />
  </g>
  <g
     opacity="0.1"
     id="g187"
     transform="translate(1.0518234,34.710173)">
    <ellipse
       cx="61.59"
       cy="322.12"
       rx="11.38"
       ry="14.9"
       fill="#3f3d56"
       id="ellipse175" />
    <path
       d="m 122.59,421 a 18,18 0 0 0 2.38,-9.11 c 0,-8.23 -5.1,-14.9 -11.38,-14.9 -6.28,0 -11.38,6.67 -11.38,14.9 a 18,18 0 0 0 2.37,9.11 18.67,18.67 0 0 0 0,18.21 18.67,18.67 0 0 0 0,18.21 17.93,17.93 0 0 0 -2.37,9.11 c 0,8.22 5.09,14.9 11.38,14.9 6.29,0 11.41,-6.66 11.41,-14.88 a 17.94,17.94 0 0 0 -2.38,-9.11 18.61,18.61 0 0 0 0,-18.21 18.61,18.61 0 0 0 0,-18.21 z"
       transform="translate(-52,-162.63)"
       fill="#3f3d56"
       id="path177" />
    <ellipse
       cx="61.59"
       cy="231.07001"
       rx="11.38"
       ry="14.9"
       fill="#3f3d56"
       id="ellipse179" />
    <ellipse
       cx="61.59"
       cy="212.86"
       rx="11.38"
       ry="14.9"
       fill="#3f3d56"
       id="ellipse181" />
    <path
       d="m 71,250.86 a 54.33,54.33 0 0 1 -4.24,-6.24 L 96.67,239.71 64.3,240 a 54.62,54.62 0 0 1 -1,-43.2 l 43.4,22.51 -40,-29.42 a 54.52,54.52 0 1 1 90,61 54.54,54.54 0 0 1 6.22,9.94 l -38.84,20.17 41.4,-13.89 a 54.59,54.59 0 0 1 -8.8,51.2 54.52,54.52 0 1 1 -85.7,0 54.52,54.52 0 0 1 0,-67.42 z"
       transform="translate(-52,-162.63)"
       fill="#6c63ff"
       id="path183" />
    <path
       d="m 168.35,284.57 a 54.27,54.27 0 0 1 -11.67,33.71 54.52,54.52 0 1 1 -85.7,0 c -7.31,-9.28 97.37,-39.83 97.37,-33.71 z"
       transform="translate(-52,-162.63)"
       opacity="0.1"
       id="path185" />
  </g>
  <g
     opacity="0.1"
     id="g201"
     transform="translate(1.0518234,34.710173)">
    <ellipse
       cx="171.44"
       cy="324.26001"
       rx="8.5100002"
       ry="11.13"
       fill="#3f3d56"
       id="ellipse189" />
    <path
       d="m 230.17,439.26 a 13.43,13.43 0 0 0 1.77,-6.8 c 0,-6.15 -3.8,-11.14 -8.5,-11.14 -4.7,0 -8.51,5 -8.51,11.14 a 13.43,13.43 0 0 0 1.78,6.8 13.9,13.9 0 0 0 0,13.61 13.9,13.9 0 0 0 0,13.61 13.43,13.43 0 0 0 -1.78,6.8 c 0,6.15 3.81,11.14 8.51,11.14 4.7,0 8.5,-5 8.5,-11.14 a 13.43,13.43 0 0 0 -1.77,-6.8 14,14 0 0 0 0,-13.61 14,14 0 0 0 0,-13.61 z"
       transform="translate(-52,-162.63)"
       fill="#3f3d56"
       id="path191" />
    <ellipse
       cx="171.44"
       cy="256.22"
       rx="8.5100002"
       ry="11.13"
       fill="#3f3d56"
       id="ellipse193" />
    <ellipse
       cx="171.44"
       cy="242.61"
       rx="8.5100002"
       ry="11.13"
       fill="#3f3d56"
       id="ellipse195" />
    <path
       d="m 191.6,312.11 a 40.21,40.21 0 0 1 -3.17,-4.66 l 22.35,-3.67 -24.17,0.18 a 40.84,40.84 0 0 1 -0.78,-32.29 l 32.43,16.83 -29.91,-22 a 40.75,40.75 0 1 1 67.29,45.6 40.12,40.12 0 0 1 4.65,7.43 l -29,15.07 30.93,-10.38 a 40.76,40.76 0 0 1 -6.57,38.26 40.74,40.74 0 1 1 -64,0 40.74,40.74 0 0 1 0,-50.38 z"
       transform="translate(-52,-162.63)"
       fill="#6c63ff"
       id="path197" />
    <path
       d="m 264.36,337.3 a 40.57,40.57 0 0 1 -8.72,25.19 40.74,40.74 0 1 1 -64,0 c -5.5,-6.93 72.72,-29.76 72.72,-25.19 z"
       transform="translate(-52,-162.63)"
       opacity="0.1"
       id="path199" />
  </g>
  <ellipse
     cx="526.45203"
     cy="359.64386"
     rx="378.98346"
     ry="6.1273599"
     fill="#6c63ff"
     opacity="0.1"
     id="ellipse203"
     style="stroke-width:0.691576" />
  <ellipse
     cx="526.45203"
     cy="409.95599"
     rx="378.98346"
     ry="6.1273599"
     fill="#6c63ff"
     opacity="0.1"
     id="ellipse205"
     style="stroke-width:0.691576" />
  <ellipse
     cx="526.45203"
     cy="254.64191"
     rx="378.98346"
     ry="6.1273599"
     fill="#6c63ff"
     opacity="0.1"
     id="ellipse207"
     style="stroke-width:0.691576" />
  <ellipse
     cx="526.45203"
     cy="307.13943"
     rx="378.98346"
     ry="6.1273599"
     fill="#6c63ff"
     opacity="0.1"
     id="ellipse209"
     style="stroke-width:0.691576" />
  <path
     d="m 809.84182,145.08017 a 18.3,18.3 0 0 0 -10.6,1.16 15.65,15.65 0 0 1 -12.74,0 17.88,17.88 0 0 0 -15,0.29 9.24,9.24 0 0 1 -4.31,1.08 c -6.08,0 -11.13,-6.12 -12.18,-14.19 a 11.88,11.88 0 0 0 3,-3.27 c 3.56,-5.74 9.07,-9.43 15.27,-9.43 6.2,0 11.64,3.64 15.2,9.32 a 11.68,11.68 0 0 0 10.09,5.54 h 0.16 c 4.89,-0.05 9.08,3.83 11.11,9.5 z"
     fill="#6c63ff"
     opacity="0.1"
     id="path211" />
  <path
     d="m 828.35182,119.73017 -9.82,6.22 6,-10.84 a 9.7,9.7 0 0 0 -5.94,-2.11 h -0.16 a 11.35,11.35 0 0 1 -2,-0.15 l -3.38,2.11 1.43,-2.6 a 11.79,11.79 0 0 1 -5.83,-4.42 l -6,3.78 3.76,-6.84 c -3.48,-4.18 -8.18,-6.739997 -13.34,-6.739997 -6.2,0 -11.71,3.679997 -15.28,9.419997 a 11.41,11.41 0 0 1 -10.09,5.44 h -0.33 c -6.84,0 -12.38,7.75 -12.38,17.31 0,9.56 5.54,17.32 12.38,17.32 a 9.39,9.39 0 0 0 4.31,-1.08 17.86,17.86 0 0 1 15,-0.3 15.55,15.55 0 0 0 12.74,0 17.92,17.92 0 0 1 14.86,0.29 9.3,9.3 0 0 0 4.26,1.06 c 6.84,0 12.38,-7.76 12.38,-17.32 a 21.93,21.93 0 0 0 -2.57,-10.55 z"
     fill="#6c63ff"
     opacity="0.1"
     id="path213" />
  <path
     d="m 392.31182,185.67017 a 12.84,12.84 0 0 0 -7.43,0.81 10.92,10.92 0 0 1 -8.91,0 12.48,12.48 0 0 0 -10.49,0.21 6.62,6.62 0 0 1 -3,0.75 c -4.25,0 -7.79,-4.28 -8.53,-9.93 a 8.32,8.32 0 0 0 2.13,-2.29 c 2.49,-4 6.35,-6.6 10.69,-6.6 4.34,0 8.15,2.55 10.64,6.52 a 8.19,8.19 0 0 0 7.07,3.88 h 0.11 c 3.36,-0.02 6.29,2.7 7.72,6.65 z"
     fill="#6c63ff"
     opacity="0.1"
     id="path215" />
  <path
     d="m 405.26182,167.94017 -6.87,4.36 4.17,-7.59 a 6.75,6.75 0 0 0 -4.15,-1.48 h -0.12 a 7.49,7.49 0 0 1 -1.42,-0.11 l -2.33,1.48 1,-1.82 a 8.3,8.3 0 0 1 -4.08,-3.09 l -4.17,2.64 2.64,-4.78 a 12.21,12.21 0 0 0 -9.34,-4.73 c -4.34,0 -8.2,2.58 -10.69,6.6 a 8,8 0 0 1 -7.07,3.81 h -0.23 c -4.79,0 -8.67,5.42 -8.67,12.12 0,6.7 3.88,12.12 8.67,12.12 a 6.5,6.5 0 0 0 3,-0.76 12.5,12.5 0 0 1 10.48,-0.2 11.1,11.1 0 0 0 4.49,1 11,11 0 0 0 4.43,-0.94 12.54,12.54 0 0 1 10.4,0.2 6.48,6.48 0 0 0 3,0.74 c 4.78,0 8.66,-5.43 8.66,-12.12 a 15.33,15.33 0 0 0 -1.8,-7.45 z"
     fill="#6c63ff"
     opacity="0.1"
     id="path217" />
  <path
     d="m 333.91045,191.42138 a 8.8659999,8.8659999 0 0 1 5.13149,0.56018 7.5658377,7.5658377 0 0 0 6.16886,0 8.6585272,8.6585272 0 0 1 7.25463,0.13831 4.4744945,4.4744945 0 0 0 2.07472,0.5256 c 2.9392,0 5.38738,-2.96686 5.89223,-6.87426 a 5.6363416,5.6363416 0 0 1 -1.46614,-1.58371 c -1.72894,-2.76631 -4.39842,-4.55749 -7.39295,-4.55749 -2.99452,0 -5.63634,1.75661 -7.36528,4.50908 a 5.6640046,5.6640046 0 0 1 -4.88252,2.68331 h -0.0761 c -2.33061,0.0138 -4.36385,1.888 -5.33897,4.59898 z"
     fill="#6c63ff"
     opacity="0.1"
     id="path219"
     style="stroke-width:0.691576" />
  <path
     d="m 324.94763,179.18049 4.75804,3.01527 -2.89078,-5.24214 a 4.6957987,4.6957987 0 0 1 2.87695,-1.03045 h 0.0761 a 5.8922246,5.8922246 0 0 0 0.98896,-0.0692 l 1.61137,1.01662 -0.69158,-1.25175 a 5.7331622,5.7331622 0 0 0 2.81472,-2.13697 l 2.88387,1.82576 -1.7981,-3.31265 a 8.437223,8.437223 0 0 1 6.45932,-3.26424 c 2.99452,0 5.67092,1.78427 7.39294,4.5644 a 5.5326053,5.5326053 0 0 0 4.88252,2.6349 h 0.16598 c 3.30573,0 5.98905,3.75526 5.98905,8.3819 0,4.62664 -2.68332,8.3819 -5.98905,8.3819 a 4.488326,4.488326 0 0 1 -2.07473,-0.51868 8.6308642,8.6308642 0 0 0 -7.25462,-0.14523 7.5105116,7.5105116 0 0 1 -3.09826,0.69157 7.6073322,7.6073322 0 0 1 -3.0706,-0.65008 8.6585272,8.6585272 0 0 0 -7.18547,0.13832 4.4814103,4.4814103 0 0 1 -2.07473,0.51176 c -3.31264,0 -5.99596,-3.74834 -5.99596,-8.3819 a 10.677928,10.677928 0 0 1 1.22409,-5.15915 z"
     fill="#6c63ff"
     opacity="0.1"
     id="path221"
     style="stroke-width:0.691576" />
  <path
     d="m 606.8892,403.65903 c 1.80501,-3.34722 -0.24206,-7.44135 -2.59341,-10.42204 -2.35136,-2.98069 -5.22832,-6.08587 -5.16607,-9.88262 0.0899,-5.45653 5.88531,-8.68619 10.51195,-11.57698 a 51.384071,51.384071 0 0 0 9.44,-7.60733 13.921418,13.921418 0 0 0 2.89771,-3.88665 c 0.96129,-2.13006 0.93362,-4.5644 0.87138,-6.91576 q -0.29738,-11.68071 -1.15493,-23.34759"
     fill="none"
     stroke="#3f3d56"
     stroke-miterlimit="10"
     stroke-width="2.7663"
     id="path223" />
  <path
     d="m 630.49959,329.63277 a 8.5132963,8.5132963 0 0 0 -4.25319,-6.97799 l -1.90875,3.76908 0.0622,-4.5644 a 8.5132963,8.5132963 0 1 0 6.0997,7.77331 z"
     fill="#6c63ff"
     id="path225"
     style="stroke-width:0.691576" />
  <path
     d="m 615.31259,387.25486 a 8.5132963,8.5132963 0 0 1 -16.07222,-3.45788 8.2989079,8.2989079 0 0 1 0.55326,-3.45788 8.5202121,8.5202121 0 0 1 15.90624,0.0899 l -5.31822,4.32926 5.85073,-1.38315 a 8.464886,8.464886 0 0 1 -0.91979,3.87974 z"
     fill="#6c63ff"
     id="path227"
     style="stroke-width:0.691576" />
  <path
     d="m 611.10781,370.7262 a 8.5132963,8.5132963 0 0 1 -2.69715,-16.70155 l -0.0484,3.50629 1.9295,-3.8175 v 0 a 8.5156703,8.5156703 0 1 1 0.79531,17.01276 z"
     fill="#6c63ff"
     id="path229"
     style="stroke-width:0.691576" />
  <path
     d="m 631.779,356.97076 a 8.5132963,8.5132963 0 1 1 3.76217,-15.90624 l -1.50071,4.14945 3.06368,-3.0291 a 8.5132963,8.5132963 0 0 1 -5.3528,14.77897 z"
     fill="#6c63ff"
     id="path231"
     style="stroke-width:0.691576" />
  <path
     d="m 629.35157,331.90114 c -1.96407,0.21439 -3.87282,0.82298 -5.85073,0.94746 -1.9779,0.12448 -4.14945,-0.3527 -5.38046,-1.88108 a 27.303407,27.303407 0 0 1 -1.57679,-2.76631 6.0582028,6.0582028 0 0 0 -2.14388,-2.0194 8.5132963,8.5132963 0 1 0 15.90624,5.65709 c -0.31121,0.007 -0.63625,0.0277 -0.95438,0.0622 z"
     opacity="0.1"
     id="path233"
     style="stroke-width:0.691576" />
  <path
     d="m 631.779,356.97076 a 8.5132963,8.5132963 0 0 1 -8.09835,-12.14407 6.3002542,6.3002542 0 0 1 1.70819,1.71511 28.852536,28.852536 0 0 0 1.68745,2.81471 c 1.32782,1.55605 3.59619,2.07473 5.65017,1.97099 2.05398,-0.10373 4.0388,-0.69157 6.08587,-0.86447 0.28354,0 0.56709,-0.0415 0.85755,-0.0484 a 8.5132963,8.5132963 0 0 1 -7.89088,6.55614 z"
     opacity="0.1"
     id="path235"
     style="stroke-width:0.691576" />
  <path
     d="m 611.10781,370.7262 a 8.5132963,8.5132963 0 0 1 -8.16751,-11.98501 6.9157566,6.9157566 0 0 1 1.80501,1.72894 28.513664,28.513664 0 0 0 1.84651,2.87004 c 1.43156,1.59754 3.85207,2.16463 6.02362,2.07473 2.17155,-0.0899 4.14946,-0.56018 6.22418,-0.69158 a 8.5271279,8.5271279 0 0 1 -7.73181,6.00288 z"
     opacity="0.1"
     id="path237"
     style="stroke-width:0.691576" />
  <path
     d="m 615.31259,387.25486 a 8.5132963,8.5132963 0 0 1 -16.07222,-3.45788 8.2989079,8.2989079 0 0 1 0.55326,-3.45788 8.4994648,8.4994648 0 0 1 1.86725,1.6667 c 0.80915,0.98204 1.34166,2.07473 2.2822,3.02218 1.73586,1.7082 4.55057,2.4136 7.04716,2.47585 a 35.754461,35.754461 0 0 0 4.32235,-0.24897 z"
     opacity="0.1"
     id="path239"
     style="stroke-width:0.691576" />
  <path
     d="m 185.02804,307.86559 c 1.80502,-3.34723 -0.24205,-7.44136 -2.59341,-10.42205 -2.35135,-2.98069 -5.22831,-6.0997 -5.16607,-9.88262 0.0899,-5.45653 5.88531,-8.68619 10.51195,-11.57697 a 51.384071,51.384071 0 0 0 9.44001,-7.60733 13.921418,13.921418 0 0 0 2.8977,-3.88666 c 0.96129,-2.13005 0.93363,-4.5644 0.87139,-6.91576 q -0.30429,-11.68071 -1.15493,-23.34759"
     fill="none"
     stroke="#3f3d56"
     stroke-miterlimit="10"
     stroke-width="2.7663"
     id="path241" />
  <path
     d="m 208.63844,233.83933 a 8.5132963,8.5132963 0 0 0 -4.25319,-6.978 l -1.90875,3.76909 0.0622,-4.5644 a 8.5132963,8.5132963 0 1 0 6.09969,7.77331 z"
     fill="#6c63ff"
     id="path243"
     style="stroke-width:0.691576" />
  <path
     d="m 193.45143,291.46141 a 8.5132963,8.5132963 0 0 1 -16.07221,-3.45788 8.2989079,8.2989079 0 0 1 0.55326,-3.45788 8.5202121,8.5202121 0 0 1 15.90624,0.0899 l -5.31822,4.32926 5.85073,-1.38315 a 8.464886,8.464886 0 0 1 -0.9198,3.87974 z"
     fill="#6c63ff"
     id="path245"
     style="stroke-width:0.691576" />
  <path
     d="m 189.24665,274.93275 a 8.5132963,8.5132963 0 0 1 -2.69714,-16.70155 l -0.0484,3.50629 1.9295,-3.8175 v 0 a 8.5156703,8.5156703 0 1 1 0.79531,17.01276 z"
     fill="#6c63ff"
     id="path247"
     style="stroke-width:0.691576" />
  <path
     d="m 209.91785,261.17731 a 8.5132963,8.5132963 0 1 1 3.76217,-15.90624 l -1.50072,4.14946 3.06368,-3.02911 a 8.5132963,8.5132963 0 0 1 -5.35279,14.77898 z"
     fill="#6c63ff"
     id="path249"
     style="stroke-width:0.691576" />
  <path
     d="m 207.49042,236.10769 c -1.96407,0.21439 -3.87282,0.82298 -5.85073,0.94746 -1.97791,0.12449 -4.14945,-0.3527 -5.38046,-1.88108 a 27.303407,27.303407 0 0 1 -1.57679,-2.7663 6.0582028,6.0582028 0 0 0 -2.14388,-2.01941 8.5132963,8.5132963 0 1 0 15.90624,5.65709 c -0.31121,0.007 -0.63625,0.0277 -0.95438,0.0622 z"
     opacity="0.1"
     id="path251"
     style="stroke-width:0.691576" />
  <path
     d="m 209.91785,261.17731 a 8.5132963,8.5132963 0 0 1 -8.09835,-12.14407 6.3002542,6.3002542 0 0 1 1.70819,1.71511 28.852536,28.852536 0 0 0 1.68745,2.81471 c 1.32782,1.55605 3.59619,2.07473 5.65017,1.971 2.05398,-0.10374 4.0388,-0.69158 6.08587,-0.86447 0.28354,0 0.56709,-0.0415 0.85755,-0.0484 a 8.5132963,8.5132963 0 0 1 -7.89088,6.55613 z"
     opacity="0.1"
     id="path253"
     style="stroke-width:0.691576" />
  <path
     d="m 189.24665,274.93275 a 8.5132963,8.5132963 0 0 1 -8.1675,-11.985 6.9157566,6.9157566 0 0 1 1.80501,1.72894 28.513664,28.513664 0 0 0 1.84651,2.87003 c 1.43156,1.59754 3.85207,2.16464 6.02362,2.07473 2.17155,-0.0899 4.14945,-0.56017 6.22418,-0.69157 a 8.5271279,8.5271279 0 0 1 -7.73182,6.00287 z"
     opacity="0.1"
     id="path255"
     style="stroke-width:0.691576" />
  <path
     d="m 193.45143,291.46141 a 8.5132963,8.5132963 0 0 1 -16.07221,-3.45788 8.2989079,8.2989079 0 0 1 0.55326,-3.45788 8.4994648,8.4994648 0 0 1 1.86725,1.6667 c 0.80915,0.98204 1.34166,2.07473 2.2822,3.02219 1.73586,1.70819 4.55057,2.4136 7.04716,2.47584 a 35.754461,35.754461 0 0 0 4.32234,-0.24897 z"
     opacity="0.1"
     id="path257"
     style="stroke-width:0.691576" />
  <path
     d="m 465.95299,296.9005 c -1.80501,-3.34031 0.24205,-7.43444 2.60033,-10.41513 2.35827,-2.98069 5.22139,-6.08587 5.15915,-9.88262 -0.083,-5.46344 -5.87839,-8.68619 -10.51195,-11.57697 a 51.176599,51.176599 0 0 1 -9.43309,-7.60734 13.679367,13.679367 0 0 1 -2.90462,-3.87974 c -0.95437,-2.13696 -0.92671,-4.56439 -0.87138,-6.91575 q 0.3112,-11.68071 1.15493,-23.3476"
     fill="none"
     stroke="#3f3d56"
     stroke-miterlimit="10"
     stroke-width="2.7663"
     id="path259" />
  <path
     d="m 442.34951,222.88116 a 8.5063806,8.5063806 0 0 1 4.24628,-6.978 l 1.90875,3.76908 -0.0553,-4.56439 a 8.7276848,8.7276848 0 0 1 2.80088,-0.33888 8.5132963,8.5132963 0 1 1 -8.90058,8.11219 z"
     fill="#6c63ff"
     id="path261"
     style="stroke-width:0.691576" />
  <path
     d="m 457.5296,280.50324 a 8.5132963,8.5132963 0 1 0 -0.40803,-6.85352 l 5.31822,4.32927 -5.85073,-1.38315 a 8.464886,8.464886 0 0 0 0.94054,3.9074 z"
     fill="#6c63ff"
     id="path263"
     style="stroke-width:0.691576" />
  <path
     d="m 461.73438,263.97458 a 8.5132963,8.5132963 0 0 0 2.70406,-16.70155 l 0.0415,3.50629 -1.9295,-3.8175 v 0 a 8.5132963,8.5132963 0 0 0 -8.92133,8.08452 8.40956,8.40956 0 0 0 0.36654,2.90462 8.5063806,8.5063806 0 0 0 7.73873,6.02362 z"
     fill="#6c63ff"
     id="path265"
     style="stroke-width:0.691576" />
  <path
     d="m 441.0701,250.20531 a 8.5132963,8.5132963 0 1 0 -3.76909,-15.90624 l 1.50764,4.14945 -3.09826,-2.96686 a 8.4441388,8.4441388 0 0 0 -2.7663,5.8784 8.2366661,8.2366661 0 0 0 0.21438,2.34444 8.5063806,8.5063806 0 0 0 7.91163,6.50081 z"
     fill="#6c63ff"
     id="path267"
     style="stroke-width:0.691576" />
  <path
     d="m 443.49753,225.14952 c 1.96408,0.21439 3.87282,0.82298 5.84381,0.94746 1.971,0.12449 4.14946,-0.3527 5.38738,-1.88108 a 27.248081,27.248081 0 0 0 1.56988,-2.76631 6.07895,6.07895 0 0 1 2.1508,-2.0194 8.5132963,8.5132963 0 1 1 -15.90624,5.65018 c 0.3112,0.007 0.62933,0.0346 0.95437,0.0691 z"
     opacity="0.1"
     id="path269"
     style="stroke-width:0.691576" />
  <path
     d="m 441.0701,250.20531 a 8.5202121,8.5202121 0 0 0 8.09835,-12.14407 6.3279173,6.3279173 0 0 0 -1.71511,1.71511 28.852536,28.852536 0 0 1 -1.68744,2.81471 c -1.32091,1.55605 -3.58928,2.07473 -5.64326,1.97099 -2.05398,-0.10373 -4.0388,-0.69157 -6.08586,-0.86447 -0.28355,0 -0.57401,-0.0415 -0.85756,-0.0484 a 8.5063806,8.5063806 0 0 0 7.89088,6.55614 z"
     opacity="0.1"
     id="path271"
     style="stroke-width:0.691576" />
  <path
     d="m 461.73438,263.97458 a 8.5063806,8.5063806 0 0 0 8.16751,-11.985 6.7981887,6.7981887 0 0 0 -1.7981,1.72893 28.513664,28.513664 0 0 1 -1.8465,2.87004 c -1.43848,1.59754 -3.85208,2.16463 -6.03054,2.07473 -2.17847,-0.0899 -4.14946,-0.56018 -6.22419,-0.69158 a 8.5063806,8.5063806 0 0 0 7.73182,6.00288 z"
     opacity="0.1"
     id="path273"
     style="stroke-width:0.691576" />
  <path
     d="m 457.5296,280.50324 a 8.5132963,8.5132963 0 0 0 15.52587,-6.91576 8.1744243,8.1744243 0 0 0 -1.86725,1.6667 c -0.80914,0.98204 -1.38315,2.07473 -2.2822,3.02219 -1.74277,1.70819 -4.55057,2.41359 -7.05407,2.47584 a 37.303591,37.303591 0 0 1 -4.32235,-0.24897 z"
     opacity="0.1"
     id="path275"
     style="stroke-width:0.691576" />
  <circle
     cx="686.71082"
     cy="229.32664"
     r="69.129906"
     fill="#3f3d56"
     id="circle277"
     style="stroke-width:0.691576" />
  <path
     d="m 716.38637,247.15546 c -2.40668,-2.40668 -8.19517,-6.03745 -11.06521,-7.39294 -3.31265,-1.59063 -4.52982,-1.56296 -6.87426,0.1314 -1.95025,1.38315 -3.21583,2.71789 -5.45654,2.22687 -2.2407,-0.49102 -6.68062,-3.83824 -10.9753,-8.1191 -4.29469,-4.28085 -7.62808,-8.6931 -8.10527,-10.96839 -0.47719,-2.27528 0.83681,-3.5132 2.23379,-5.46345 1.68745,-2.34444 1.73586,-3.56161 0.1314,-6.87426 -1.38315,-2.87004 -4.97243,-8.64469 -7.39986,-11.06521 -2.42743,-2.42051 -2.95303,-1.888 -4.28085,-1.38315 a 24.758409,24.758409 0 0 0 -3.92124,2.07473 c -2.40668,1.61137 -3.75525,2.95303 -4.70271,4.97243 -0.94746,2.0194 -2.0194,5.76774 3.49246,15.5812 a 86.924144,86.924144 0 0 0 15.28382,20.38073 v 0 0 a 87.055544,87.055544 0 0 0 20.44989,15.31149 c 9.80654,5.5326 13.5618,4.433 15.5812,3.49245 2.0194,-0.94054 3.36106,-2.27528 4.96551,-4.70271 a 24.433368,24.433368 0 0 0 2.07473,-3.92124 c 0.45644,-1.32782 0.99587,-1.86725 -1.43156,-4.28085 z"
     fill="#6c63ff"
     id="path279"
     style="stroke-width:0.691576" />
  <path
     d="m 686.71086,160.20365 a 69.157566,69.157566 0 1 0 69.12298,69.12299 69.157566,69.157566 0 0 0 -69.12298,-69.12299 z m 0,129.06185 a 59.938862,59.938862 0 1 1 59.93886,-59.93886 59.938862,59.938862 0 0 1 -59.93886,59.93886 z"
     opacity="0.1"
     id="path281"
     style="stroke-width:0.691576" />
  <circle
     cx="527.8905"
     cy="334.32858"
     r="69.129906"
     fill="#3f3d56"
     id="circle283"
     style="stroke-width:0.691576" />
  <path
     d="m 567.20658,313.44299 -20.69886,21.05848 a 0.37345086,0.37345086 0 0 0 0,0.53943 l 14.52309,15.44288 a 2.5035039,2.5035039 0 0 1 -1.76351,4.26702 2.5173354,2.5173354 0 0 1 -1.77044,-0.73307 l -14.44701,-15.38756 a 0.39419812,0.39419812 0 0 0 -0.55326,0 l -3.52012,3.5547 a 15.470547,15.470547 0 0 1 -11.06521,4.65431 15.80942,15.80942 0 0 1 -11.25886,-4.78571 l -3.3818,-3.45788 a 0.39419812,0.39419812 0 0 0 -0.55326,0 l -14.41244,15.35298 a 2.4965881,2.4965881 0 0 1 -3.53395,0 2.4896724,2.4896724 0 0 1 0,-3.53395 l 14.46776,-15.4083 a 0.41494539,0.41494539 0 0 0 0,-0.53943 l -20.69886,-21.05848 a 0.38036661,0.38036661 0 0 0 -0.65008,0.26971 v 42.13771 a 6.1688549,6.1688549 0 0 0 6.14811,6.14811 h 67.68451 a 6.1688549,6.1688549 0 0 0 6.14811,-6.14811 V 313.7127 a 0.38036661,0.38036661 0 0 0 -0.66392,-0.26971 z"
     fill="#6c63ff"
     id="path285"
     style="stroke-width:0.691576" />
  <path
     d="m 527.89051,341.83908 a 10.470455,10.470455 0 0 0 7.552,-3.11209 l 30.14579,-30.68521 a 6.0167082,6.0167082 0 0 0 -3.80367,-1.38315 h -67.73292 a 5.9752137,5.9752137 0 0 0 -3.80367,1.38315 l 30.1527,30.68521 a 10.428961,10.428961 0 0 0 7.48977,3.11209 z"
     fill="#6c63ff"
     id="path287"
     style="stroke-width:0.691576" />
  <path
     d="m 527.01912,265.20559 a 69.157566,69.157566 0 1 0 69.12299,69.12298 69.157566,69.157566 0 0 0 -69.12299,-69.12298 z m 0,129.06185 a 59.938862,59.938862 0 1 1 59.93886,-59.93887 59.938862,59.938862 0 0 1 -59.93886,59.93887 z"
     opacity="0.1"
     id="path289"
     style="stroke-width:0.691576" />
  <circle
     cx="363.82803"
     cy="282.70245"
     r="69.129906"
     fill="#3f3d56"
     id="circle291"
     style="stroke-width:0.691576" />
  <path
     d="m 363.82801,249.62439 -27.55929,63.58346 2.57267,2.57266 24.99354,-11.02371 24.99354,11.02371 2.57267,-2.57266 z"
     fill="#6c63ff"
     id="path293"
     style="stroke-width:0.691576" />
  <path
     d="M 363.82801,213.5518 A 69.157566,69.157566 0 1 0 432.951,282.70937 69.157566,69.157566 0 0 0 363.82801,213.5518 Z m 0,129.06185 a 59.938862,59.938862 0 1 1 59.93887,-59.90428 59.938862,59.938862 0 0 1 -59.93887,59.93194 z"
     opacity="0.1"
     id="path295"
     style="stroke-width:0.691576" />
  <path
     d="m 725.89553,351.17536 c 1.80502,-3.34031 -0.24205,-7.44136 -2.60032,-10.42205 -2.35827,-2.98069 -5.2214,-6.07895 -5.15915,-9.88262 0.083,-5.45653 5.87839,-8.67927 10.51195,-11.57697 a 51.107441,51.107441 0 0 0 9.43309,-7.60733 13.783103,13.783103 0 0 0 2.90462,-3.87974 c 0.95437,-2.13697 0.92671,-4.5644 0.87138,-6.91576 q -0.30429,-11.68763 -1.15493,-23.34759"
     fill="none"
     stroke="#3f3d56"
     stroke-miterlimit="10"
     stroke-width="2.7663"
     id="path361" />
  <path
     d="m 749.49901,277.12835 a 8.4994648,8.4994648 0 0 0 -4.24627,-6.97108 l -1.90875,3.76908 0.0553,-4.56439 a 8.3542339,8.3542339 0 0 0 -2.80088,-0.33888 8.5132963,8.5132963 0 1 0 8.90058,8.10527 z"
     fill="#6c63ff"
     id="path363"
     style="stroke-width:0.691576" />
  <path
     d="m 734.31893,334.75735 a 8.5132963,8.5132963 0 1 1 0.40803,-6.86043 l -5.31822,4.32926 5.85073,-1.38315 a 8.464886,8.464886 0 0 1 -0.94054,3.91432 z"
     fill="#6c63ff"
     id="path365"
     style="stroke-width:0.691576" />
  <path
     d="m 730.11415,318.22178 a 8.5132963,8.5132963 0 0 1 -2.70407,-16.70156 l -0.0415,3.50629 1.9295,-3.81058 v 0 a 8.5202121,8.5202121 0 0 1 8.90058,8.11218 8.5063806,8.5063806 0 0 1 -8.10527,8.90058 z"
     fill="#6c63ff"
     id="path367"
     style="stroke-width:0.691576" />
  <path
     d="m 750.77843,304.47325 a 8.5132963,8.5132963 0 1 1 3.76908,-15.90624 l -1.50763,4.14946 3.09826,-2.97378 a 8.464886,8.464886 0 0 1 2.7663,5.87839 8.2159188,8.2159188 0 0 1 -0.21439,2.34444 8.5132963,8.5132963 0 0 1 -7.91162,6.50773 z"
     fill="#6c63ff"
     id="path369"
     style="stroke-width:0.691576" />
  <path
     d="m 748.35791,279.39672 c -1.96407,0.2213 -3.87974,0.82989 -5.85073,0.95437 -1.97099,0.12449 -4.14945,-0.3527 -5.38737,-1.888 a 26.41819,26.41819 0 0 1 -1.56988,-2.7663 6.1204446,6.1204446 0 0 0 -2.14388,-2.0194 8.5132963,8.5132963 0 1 0 15.90624,5.65017 c -0.31813,0.0138 -0.63625,0.0346 -0.95438,0.0692 z"
     opacity="0.1"
     id="path371"
     style="stroke-width:0.691576" />
  <path
     d="m 750.77843,304.47325 a 8.5202121,8.5202121 0 0 1 -8.09835,-12.14407 6.3002542,6.3002542 0 0 1 1.7151,1.7082 27.296491,27.296491 0 0 0 1.68745,2.81471 c 1.32091,1.56296 3.58928,2.07472 5.64326,1.9779 2.05397,-0.0968 4.0388,-0.69157 6.08586,-0.86447 0.28355,0 0.57401,-0.0484 0.85755,-0.0553 a 8.5132963,8.5132963 0 0 1 -7.89087,6.56305 z"
     opacity="0.1"
     id="path373"
     style="stroke-width:0.691576" />
  <path
     d="m 730.11415,318.22178 a 8.5063806,8.5063806 0 0 1 -8.16751,-11.99884 7.0194929,7.0194929 0 0 1 1.79809,1.72894 c 0.69158,0.93362 1.07195,2.01248 1.84651,2.87004 1.43848,1.60445 3.85208,2.16463 6.03054,2.11622 2.17846,-0.0484 4.14945,-0.56709 6.22418,-0.72616 a 8.5132963,8.5132963 0 0 1 -7.73181,6.0098 z"
     opacity="0.1"
     id="path375"
     style="stroke-width:0.691576" />
  <path
     d="m 734.31893,334.75735 a 8.5202121,8.5202121 0 0 1 -15.52588,-6.91576 8.3404024,8.3404024 0 0 1 1.86726,1.6667 c 0.81606,0.98895 1.34857,2.07473 2.2822,3.0291 1.74277,1.70819 4.55056,2.40669 7.05407,2.47584 a 37.303591,37.303591 0 0 0 4.32235,-0.25588 z"
     opacity="0.1"
     id="path377"
     style="stroke-width:0.691576" />
  <path
     d="m 835.85606,410.29486 c 1.80502,-3.34031 -0.24205,-7.44136 -2.60032,-10.42205 -2.35827,-2.98069 -5.2214,-6.07895 -5.15916,-9.88262 0.083,-5.45653 5.8784,-8.67927 10.51195,-11.57697 a 51.107441,51.107441 0 0 0 9.4331,-7.60733 13.783103,13.783103 0 0 0 2.90461,-3.87974 c 0.95438,-2.13697 0.92672,-4.5644 0.87139,-6.91576 q -0.29738,-11.68763 -1.15493,-23.34759"
     fill="none"
     stroke="#3f3d56"
     stroke-miterlimit="10"
     stroke-width="2.7663"
     id="path379" />
  <path
     d="m 859.45954,336.24785 a 8.4994648,8.4994648 0 0 0 -4.24627,-6.97108 l -1.90875,3.76908 0.0553,-4.56439 a 8.3542339,8.3542339 0 0 0 -2.7663,-0.33888 8.5132963,8.5132963 0 1 0 8.90058,8.10527 z"
     fill="#6c63ff"
     id="path381"
     style="stroke-width:0.691576" />
  <path
     d="m 844.27946,393.87685 a 8.5132963,8.5132963 0 1 1 0.40802,-6.86043 l -5.31821,4.32926 5.85073,-1.38315 a 8.464886,8.464886 0 0 1 -0.94054,3.91432 z"
     fill="#6c63ff"
     id="path383"
     style="stroke-width:0.691576" />
  <path
     d="m 840.07468,377.34128 a 8.5132963,8.5132963 0 0 1 -2.70407,-16.70156 l -0.0415,3.50629 1.9295,-3.81058 v 0 a 8.5202121,8.5202121 0 0 1 8.90057,8.11218 8.5063806,8.5063806 0 0 1 -8.10526,8.90058 z"
     fill="#6c63ff"
     id="path385"
     style="stroke-width:0.691576" />
  <path
     d="m 860.73896,363.59275 a 8.5132963,8.5132963 0 1 1 3.76908,-15.90624 l -1.50763,4.14946 3.09826,-2.97378 a 8.464886,8.464886 0 0 1 2.7663,5.87839 8.2159188,8.2159188 0 0 1 -0.21439,2.34444 8.5132963,8.5132963 0 0 1 -7.91162,6.50773 z"
     fill="#6c63ff"
     id="path387"
     style="stroke-width:0.691576" />
  <path
     d="m 858.31844,338.51622 c -1.96407,0.2213 -3.87974,0.82989 -5.85073,0.95437 -1.97099,0.12449 -4.14945,-0.3527 -5.38737,-1.888 a 26.41819,26.41819 0 0 1 -1.56988,-2.7663 6.1204446,6.1204446 0 0 0 -2.14388,-2.0194 8.5132963,8.5132963 0 1 0 15.90624,5.65017 c -0.31813,0.0138 -0.63625,0.0346 -0.95438,0.0692 z"
     opacity="0.1"
     id="path389"
     style="stroke-width:0.691576" />
  <path
     d="m 860.73896,363.59275 a 8.5202121,8.5202121 0 0 1 -8.09835,-12.14407 6.3002542,6.3002542 0 0 1 1.7151,1.7082 27.296491,27.296491 0 0 0 1.68745,2.81471 c 1.32091,1.56296 3.58927,2.07472 5.64325,1.9779 2.05398,-0.0968 4.03881,-0.69157 6.08587,-0.86447 0.28355,0 0.57401,-0.0484 0.85755,-0.0553 a 8.5132963,8.5132963 0 0 1 -7.89087,6.56305 z"
     opacity="0.1"
     id="path391"
     style="stroke-width:0.691576" />
  <path
     d="m 840.07468,377.34128 a 8.5063806,8.5063806 0 0 1 -8.16751,-11.99884 7.0194929,7.0194929 0 0 1 1.79809,1.72894 c 0.69158,0.93362 1.07195,2.01248 1.84651,2.87004 1.43848,1.60445 3.85208,2.16463 6.03054,2.11622 2.17846,-0.0484 4.14945,-0.56709 6.22418,-0.72616 a 8.5132963,8.5132963 0 0 1 -7.73181,6.0098 z"
     opacity="0.1"
     id="path393"
     style="stroke-width:0.691576" />
  <path
     d="m 844.27946,393.87685 a 8.5202121,8.5202121 0 0 1 -15.52588,-6.91576 8.3404024,8.3404024 0 0 1 1.86726,1.6667 c 0.81606,0.98895 1.38315,2.07473 2.2822,3.0291 1.74277,1.70819 4.55056,2.40669 7.05407,2.47584 a 37.303591,37.303591 0 0 0 4.32235,-0.25588 z"
     opacity="0.1"
     id="path395"
     style="stroke-width:0.691576" />
  <text
     xml:space="preserve"
     id="text458"
     style="font-style:normal;font-weight:normal;font-size:48px;line-height:1.25;font-family:sans-serif;white-space:pre;shape-inside:url(#rect460);fill:#000000;fill-opacity:1;stroke:none;"
     transform="translate(74.679462,46.280231)"><tspan
       x="332.37695"
       y="96.383652"><tspan
         style="font-style:normal;font-variant:normal;font-weight:bold;font-stretch:normal;font-size:48px;font-family:Lora;-inkscape-font-specification:'Lora Bold'">Contact Us</tspan></tspan></text>
  <text
     xml:space="preserve"
     id="text178"
     style="fill:black;fill-opacity:1;line-height:1.25;stroke:none;font-family:sans-serif;font-style:normal;font-weight:normal;font-size:40px;white-space:pre;shape-inside:url(#rect180);" />
  <text
     xml:space="preserve"
     id="text184"
     style="fill:black;fill-opacity:1;line-height:1.25;stroke:none;font-family:sans-serif;font-style:normal;font-weight:normal;font-size:40px;white-space:pre;shape-inside:url(#rect186);" />
</svg>
