<?xml version="1.0" encoding="UTF-8" standalone="no"?>
<svg
   xmlns:dc="http://purl.org/dc/elements/1.1/"
   xmlns:cc="http://creativecommons.org/ns#"
   xmlns:rdf="http://www.w3.org/1999/02/22-rdf-syntax-ns#"
   xmlns:svg="http://www.w3.org/2000/svg"
   xmlns="http://www.w3.org/2000/svg"
   xmlns:sodipodi="http://sodipodi.sourceforge.net/DTD/sodipodi-0.dtd"
   xmlns:inkscape="http://www.inkscape.org/namespaces/inkscape"
   id="bb535a4d-a035-40f6-99ac-869b240e0289"
   data-name="Layer 1"
   width="995"
   height="697.68102"
   viewBox="0 0 995 697.68102"
   version="1.1"
   sodipodi:docname="maas.svg"
   inkscape:version="1.0.1 (3bc2e813f5, 2020-09-07)">
  <metadata
     id="metadata187">
    <rdf:RDF>
      <cc:Work
         rdf:about="">
        <dc:format>image/svg+xml</dc:format>
        <dc:type
           rdf:resource="http://purl.org/dc/dcmitype/StillImage" />
        <dc:title />
      </cc:Work>
    </rdf:RDF>
  </metadata>
  <defs
     id="defs185">
    <rect
       x="18.142994"
       y="41.060461"
       width="359.04031"
       height="393.41651"
       id="rect191" />
  </defs>
  <sodipodi:namedview
     pagecolor="#ffffff"
     bordercolor="#666666"
     borderopacity="1"
     objecttolerance="10"
     gridtolerance="10"
     guidetolerance="10"
     inkscape:pageopacity="0"
     inkscape:pageshadow="2"
     inkscape:window-width="1920"
     inkscape:window-height="1009"
     id="namedview183"
     showgrid="false"
     inkscape:zoom="1.0472362"
     inkscape:cx="497.5"
     inkscape:cy="348.84052"
     inkscape:window-x="-8"
     inkscape:window-y="-8"
     inkscape:window-maximized="1"
     inkscape:current-layer="bb535a4d-a035-40f6-99ac-869b240e0289"
     inkscape:document-rotation="0" />
  <path
     d="M 853.49723,248.30711 H 541.56966 a 8.0404429,8.0404429 0 0 1 -8.03136,-8.03136 V 47.934995 a 5.8905645,5.8905645 0 0 1 5.88379,-5.884008 h 316.12088 a 5.9924314,5.9924314 0 0 1 5.98562,5.985733 v 192.23903 a 8.0404477,8.0404477 0 0 1 -8.03136,8.03136 z"
     fill="#f2f2f2"
     id="path2"
     style="stroke-width:0.486749" />
  <path
     d="M 842.11836,236.93333 H 551.41001 c -4.26149,0 -7.72839,-3.24658 -7.72839,-7.23707 V 62.20347 c 0,-2.959469 2.56904,-5.367309 5.7269,-5.367309 h 294.61642 c 3.21022,0 5.82187,2.44753 5.82187,5.455727 V 229.69626 c 10e-6,3.99049 -3.46702,7.23707 -7.72845,7.23707 z"
     fill="#ffffff"
     id="path4"
     style="stroke-width:0.486749" />
  <path
     d="M 861.41676,47.475581 H 533.42559 v -4.088882 a 8.0672676,8.0672676 0 0 1 8.06059,-8.055605 h 311.86998 a 8.0672287,8.0672287 0 0 1 8.0606,8.055605 z"
     fill="#cccccc"
     id="path6"
     style="stroke-width:0.486749" />
  <circle
     cx="548.07446"
     cy="41.415459"
     r="2.0849509"
     fill="#ffffff"
     id="circle8"
     style="stroke-width:0.486749" />
  <circle
     cx="555.9884"
     cy="41.415459"
     r="2.0849509"
     fill="#ffffff"
     id="circle10"
     style="stroke-width:0.486749" />
  <circle
     cx="563.9024"
     cy="41.415459"
     r="2.0849509"
     fill="#ffffff"
     id="circle12"
     style="stroke-width:0.486749" />
  <path
     d="M 810.12019,208.84211 H 584.83396 A 8.5277956,8.5277956 0 0 1 576.31585,200.324 V 91.704084 a 6.3779075,6.3779075 0 0 1 6.37052,-6.370755 h 229.47957 a 6.4798084,6.4798084 0 0 1 6.47236,6.472481 V 200.324 a 8.5277569,8.5277569 0 0 1 -8.51811,8.51811 z M 582.68637,86.306828 a 5.4032167,5.4032167 0 0 0 -5.39702,5.397256 V 200.324 a 7.5531048,7.5531048 0 0 0 7.54461,7.54461 H 810.12019 A 7.5531437,7.5531437 0 0 0 817.6648,200.324 V 91.80581 a 5.5051323,5.5051323 0 0 0 -5.49886,-5.498982 z"
     fill="#cccccc"
     id="path14"
     style="stroke-width:0.486749" />
  <path
     d="m 592.62196,200.324 h 209.71025 a 7.7879855,7.7879855 0 0 0 7.78799,-7.78799 v -90.80199 a 7.7879855,7.7879855 0 0 0 -7.78799,-7.787986 H 592.62196 a 7.7879855,7.7879855 0 0 0 -7.78799,7.787986 v 90.80199 a 7.7879855,7.7879855 0 0 0 7.78799,7.78799 z"
     fill="#f2f2f2"
     id="path16"
     style="stroke-width:0.486749" />
  <circle
     cx="616.43335"
     cy="115.98307"
     r="4.3807421"
     fill="#cccccc"
     id="circle18"
     style="stroke-width:0.486749" />
  <circle
     cx="616.43335"
     cy="132.53255"
     r="4.3807421"
     fill="#cccccc"
     id="circle20"
     style="stroke-width:0.486749" />
  <circle
     cx="616.43335"
     cy="149.08202"
     r="4.3807421"
     fill="#cccccc"
     id="circle22"
     style="stroke-width:0.486749" />
  <circle
     cx="616.43335"
     cy="165.63148"
     r="4.3807421"
     fill="#cccccc"
     id="circle24"
     style="stroke-width:0.486749" />
  <path
     d="M 782.4148,116.46982 H 638.33707 a 0.48675,0.48675 0 0 1 0,-0.9735 H 782.4148 a 0.48675,0.48675 0 0 1 0,0.9735 z"
     fill="#cccccc"
     id="path26"
     style="stroke-width:0.486749" />
  <path
     d="M 782.4148,133.01929 H 638.33707 a 0.48674916,0.48674916 0 0 1 0,-0.97349 H 782.4148 a 0.48674916,0.48674916 0 0 1 0,0.97349 z"
     fill="#cccccc"
     id="path28"
     style="stroke-width:0.486749" />
  <path
     d="M 782.4148,149.56877 H 638.33707 a 0.48675,0.48675 0 0 1 0,-0.9735 H 782.4148 a 0.48675,0.48675 0 0 1 0,0.9735 z"
     fill="#cccccc"
     id="path30"
     style="stroke-width:0.486749" />
  <path
     d="M 782.4148,166.11823 H 638.33707 a 0.48675,0.48675 0 0 1 0,-0.9735 H 782.4148 a 0.48675,0.48675 0 0 1 0,0.9735 z"
     fill="#cccccc"
     id="path32"
     style="stroke-width:0.486749" />
  <path
     d="M 665.59502,182.6677 H 651.4793 a 2.4365784,2.4365784 0 0 1 -2.43375,-2.43375 v -13.14222 a 2.4365735,2.4365735 0 0 1 2.43375,-2.43375 h 14.11572 a 2.4365686,2.4365686 0 0 1 2.43375,2.43375 v 13.14222 a 2.4365735,2.4365735 0 0 1 -2.43375,2.43375 z"
     fill="#dc5c01"
     id="path34"
     style="stroke-width:0.486749" />
  <path
     d="m 697.23371,182.6677 h -14.11572 a 2.4365345,2.4365345 0 0 1 -2.43374,-2.43375 v -29.69169 a 2.4365345,2.4365345 0 0 1 2.43374,-2.43374 h 14.11572 a 2.4365345,2.4365345 0 0 1 2.43374,2.43374 v 29.69169 a 2.4365345,2.4365345 0 0 1 -2.43374,2.43375 z"
     fill="#dc5c01"
     id="path36"
     style="stroke-width:0.486749" />
  <path
     d="m 729.35915,182.6677 h -14.11572 a 2.4365345,2.4365345 0 0 1 -2.43375,-2.43375 v -46.24116 a 2.4365345,2.4365345 0 0 1 2.43375,-2.43374 h 14.11572 a 2.4365345,2.4365345 0 0 1 2.43375,2.43374 v 46.24116 a 2.4365345,2.4365345 0 0 1 -2.43375,2.43375 z"
     fill="#dc5c01"
     id="path38"
     style="stroke-width:0.486749" />
  <path
     d="m 762.45809,182.6677 h -14.11572 a 2.4365345,2.4365345 0 0 1 -2.43375,-2.43375 v -62.30388 a 2.4365345,2.4365345 0 0 1 2.43375,-2.43375 h 14.11572 a 2.4365345,2.4365345 0 0 1 2.43374,2.43375 v 62.30388 a 2.4365345,2.4365345 0 0 1 -2.43374,2.43375 z"
     fill="#dc5c01"
     id="path40"
     style="stroke-width:0.486749" />
  <path
     d="M 782.4148,182.6677 H 638.33707 a 0.48675,0.48675 0 0 1 0,-0.9735 H 782.4148 a 0.48675,0.48675 0 0 1 0,0.9735 z"
     fill="#3f3d56"
     id="path42"
     style="stroke-width:0.486749" />
  <path
     d="m 845.71543,273.46958 a 4.8946418,4.8946418 0 0 1 7.45722,-0.84859 l 15.4568,-7.97716 -0.96126,8.98753 -14.53067,6.19736 a 4.9211648,4.9211648 0 0 1 -7.42209,-6.35914 z"
     fill="#ffb8b8"
     id="path44"
     style="stroke-width:0.486749" />
  <path
     d="m 859.01487,276.82149 a 2.193087,2.193087 0 0 1 -0.74163,-1.07647 l -1.22939,-3.97155 a 2.1975115,2.1975115 0 0 1 0.7724,-2.39541 l 12.52779,-9.46258 13.56817,-25.17091 a 7.056168,7.056168 0 1 1 11.14655,8.65519 l -7.71912,16.29171 a 22.572269,22.572269 0 0 1 -11.4206,11.04748 l -14.6817,6.36799 a 2.1928047,2.1928047 0 0 1 -1.78587,-0.0191 2.1683212,2.1683212 0 0 1 -0.4366,-0.26633 z"
     fill="#3f3d56"
     id="path46"
     style="stroke-width:0.486749" />
  <circle
     cx="895.39984"
     cy="212.28444"
     r="11.955059"
     fill="#ffb8b8"
     id="circle48"
     style="stroke-width:0.486749" />
  <polygon
     points="888.812,685.737 876.553,685.736 870.722,638.448 888.817,638.449 "
     fill="#ffb8b8"
     id="polygon50"
     transform="matrix(0.4867491,0,0,0.4867491,457.9218,35.331094)" />
  <path
     d="M 880.32037,367.40724 H 891.829 v 7.24617 h -18.75479 v 0 a 7.2461657,7.2461657 0 0 1 7.24616,-7.24617 z"
     fill="#2f2e41"
     id="path52"
     style="stroke-width:0.486749" />
  <polygon
     points="928.812,685.739 916.553,685.738 910.722,638.449 928.817,638.451 "
     fill="#ffb8b8"
     id="polygon54"
     transform="matrix(0.4867491,0,0,0.4867491,457.9218,35.331094)" />
  <path
     d="m 899.79033,367.40813 h 11.50863 v 7.24617 h -18.75479 v 0 a 7.2461657,7.2461657 0 0 1 7.24616,-7.24617 z"
     fill="#2f2e41"
     id="path56"
     style="stroke-width:0.486749" />
  <path
     d="m 910.45632,363.27319 -6.9931,-3.2e-4 a 2.1941335,2.1941335 0 0 1 -2.11471,-1.62054 l -10.06578,-37.3342 a 0.24340375,0.24340375 0 0 0 -0.47796,0.0779 l 2.03332,35.40729 a 2.1899815,2.1899815 0 0 1 -2.36884,2.30816 l -7.85984,-0.65541 a 2.1963774,2.1963774 0 0 1 -1.99373,-1.9295 l -7.16036,-74.34841 2.77022,1.6624 25.95784,-4.40713 10.44433,78.35996 a 2.1907214,2.1907214 0 0 1 -2.17135,2.47975 z"
     fill="#2f2e41"
     id="path58"
     style="stroke-width:0.486749" />
  <path
     d="m 882.13672,293.02552 a 16.033072,16.033072 0 0 1 -8.12466,-2.28675 2.1807236,2.1807236 0 0 1 -1.03983,-2.23369 c 0.91291,-5.59092 5.68712,-34.27087 10.03093,-49.90606 1.76915,-6.36806 5.681,-9.79794 11.62694,-10.1941 8.69723,-0.57047 16.42773,6.23389 17.23267,15.1865 1.42008,15.79422 -4.34826,38.23432 -6.89423,47.14923 a 2.1884824,2.1884824 0 0 1 -3.44984,1.1226 l -5.18947,-4.03684 a 1.7196019,1.7196019 0 0 0 -2.19822,0.0916 c -4.37404,3.90141 -8.52907,5.10763 -11.99429,5.10747 z"
     fill="#3f3d56"
     id="path60"
     style="stroke-width:0.486749" />
  <polygon
     points="906.787,443.738 915.786,481.739 902.784,513.738 911.786,482.739 "
     opacity="0.2"
     id="polygon62"
     transform="matrix(0.4867491,0,0,0.4867491,457.9218,35.331094)" />
  <path
     d="m 902.22156,222.11555 a 8.0500756,8.0500756 0 0 0 3.10936,-0.56242 c 0.43521,-0.1677 0.88699,-0.30553 1.3214,-0.47334 3.83647,-1.48202 6.36385,-5.56766 6.45455,-9.67944 0.0907,-4.11178 -2.03846,-8.10274 -5.20024,-10.73296 -3.16179,-2.63022 -7.25719,-3.9807 -11.35807,-4.29313 -4.41735,-0.33655 -9.39148,0.78345 -11.86002,4.4621 -0.65708,0.9792 -1.11665,2.16724 -0.72738,3.34958 a 2.143424,2.143424 0 0 0 0.60392,0.92775 c 1.10229,0.98079 2.2013,0.24341 3.32505,0.17832 1.54458,-0.0895 2.93182,1.16081 3.43037,2.62545 0.49854,1.46464 0.27899,3.07706 -0.12368,4.5709 a 11.418647,11.418647 0 0 0 -0.57571,2.77934 2.7942075,2.7942075 0 0 0 1.15765,2.46043 c 0.96514,0.58345 2.23268,0.24586 3.19843,-0.33656 0.96576,-0.58243 1.80026,-1.39225 2.84345,-1.82083 1.04318,-0.42857 2.44468,-0.33342 3.05181,0.61699 a 3.3754541,3.3754541 0 0 1 0.38577,1.114 c 0.54422,2.47994 0.41911,2.33388 0.96332,4.81382 z"
     fill="#2f2e41"
     id="path64"
     style="stroke-width:0.486749" />
  <path
     d="m 883.69159,352.41489 -74.86002,-26.07068 a 5.1382841,5.1382841 0 0 1 -3.15896,-6.53495 l 19.45326,-55.85858 a 3.7643861,3.7643861 0 0 1 4.78755,-2.31439 l 77.39072,26.95201 a 3.8294839,3.8294839 0 0 1 2.35428,4.87041 l -19.43187,55.79722 a 5.1382841,5.1382841 0 0 1 -6.53496,3.15896 z"
     fill="#e6e6e6"
     id="path66"
     style="stroke-width:0.486749" />
  <path
     d="m 815.21964,323.13411 65.45987,22.79698 a 4.9769462,4.9769462 0 0 0 6.33692,-3.06323 l 15.70837,-45.10541 a 4.9769462,4.9769462 0 0 0 -3.06324,-6.33692 L 834.2017,268.62854 a 4.9769511,4.9769511 0 0 0 -6.33693,3.06324 l -15.70837,45.10541 a 4.9769414,4.9769414 0 0 0 3.06324,6.33692 z"
     fill="#ffffff"
     id="path68"
     style="stroke-width:0.486749" />
  <path
     d="m 831.65749,291.44355 -3.24188,-1.12902 a 0.70295331,0.70295331 0 0 1 -0.43217,-0.89404 l 1.12901,-3.24188 a 0.70295331,0.70295331 0 0 1 0.89404,-0.43218 l 3.24188,1.12902 a 0.70295331,0.70295331 0 0 1 0.43218,0.89404 l -1.12902,3.24188 a 0.70294844,0.70294844 0 0 1 -0.89404,0.43218 z"
     fill="#dc5c01"
     id="path70"
     style="stroke-width:0.486749" />
  <path
     d="m 828.73231,299.84297 -3.24188,-1.12902 a 0.70295331,0.70295331 0 0 1 -0.43218,-0.89405 l 1.12902,-3.24187 a 0.70295331,0.70295331 0 0 1 0.89405,-0.43218 l 3.24188,1.12901 a 0.70295331,0.70295331 0 0 1 0.43218,0.89404 l -1.12902,3.24189 a 0.70295818,0.70295818 0 0 1 -0.89405,0.43218 z"
     fill="#3f3d56"
     id="path72"
     style="stroke-width:0.486749" />
  <path
     d="m 825.80715,308.24239 -3.24189,-1.12901 a 0.70295331,0.70295331 0 0 1 -0.43218,-0.89405 l 1.12902,-3.24189 a 0.70295331,0.70295331 0 0 1 0.89405,-0.43217 l 3.24187,1.12901 a 0.70295331,0.70295331 0 0 1 0.43218,0.89405 l -1.12902,3.24188 a 0.70295818,0.70295818 0 0 1 -0.89403,0.43218 z"
     fill="#cccccc"
     id="path74"
     style="stroke-width:0.486749" />
  <path
     d="m 853.44158,297.21252 -15.61997,-5.43979 a 0.70217696,0.70217696 0 1 1 0.46187,-1.32623 l 15.61997,5.4398 a 0.70217451,0.70217451 0 1 1 -0.46187,1.32622 z"
     fill="#cccccc"
     id="path76"
     style="stroke-width:0.486749" />
  <path
     d="m 850.51641,305.61194 -15.61997,-5.4398 a 0.70217519,0.70217519 0 0 1 0.46186,-1.32622 l 15.61998,5.4398 a 0.70217451,0.70217451 0 1 1 -0.46187,1.32622 z"
     fill="#cccccc"
     id="path78"
     style="stroke-width:0.486749" />
  <path
     d="m 847.59122,314.01136 -15.61998,-5.4398 a 0.70217519,0.70217519 0 0 1 0.46188,-1.32622 l 15.61997,5.4398 a 0.70217608,0.70217608 0 0 1 -0.46187,1.32622 z"
     fill="#cccccc"
     id="path80"
     style="stroke-width:0.486749" />
  <path
     d="m 889.15898,318.56218 c 0.11374,-0.27297 0.22096,-0.55037 0.31949,-0.83332 a 14.718616,14.718616 0 0 0 -9.05907,-18.74053 l -5.1341,14.74221 z"
     fill="#dc5c01"
     id="path82"
     style="stroke-width:0.486749" />
  <path
     d="m 873.79222,314.62744 5.13411,-14.74221 a 14.718597,14.718597 0 1 0 8.73957,19.57384 z"
     fill="#3f3d56"
     id="path84"
     style="stroke-width:0.486749" />
  <path
     d="m 892.17257,293.47985 a 4.8946321,4.8946321 0 0 1 5.34416,-5.26974 l 7.23958,-15.8157 4.79001,7.6652 -7.60919,13.84371 a 4.9211648,4.9211648 0 0 1 -9.76456,-0.42348 z"
     fill="#ffb8b8"
     id="path86"
     style="stroke-width:0.486749" />
  <path
     d="m 904.70602,287.90998 a 2.1930821,2.1930821 0 0 1 -1.24787,-0.38937 l -3.41831,-2.3664 a 2.1975115,2.1975115 0 0 1 -0.87048,-2.36153 l 4.01815,-15.17698 -4.85716,-28.17937 a 7.056168,7.056168 0 1 1 14.11216,-0.0682 l 3.98005,17.58304 a 22.572255,22.572255 0 0 1 -2.16886,15.74081 l -7.62273,14.07114 a 2.1928047,2.1928047 0 0 1 -1.41704,1.08704 2.1682725,2.1682725 0 0 1 -0.50791,0.0599 z"
     fill="#3f3d56"
     id="path88"
     style="stroke-width:0.486749" />
  <path
     d="m 941.7504,374.92669 h -92.48233 a 0.48675,0.48675 0 0 1 0,-0.9735 h 92.48233 a 0.48675,0.48675 0 0 1 0,0.9735 z"
     fill="#cccccc"
     id="path90"
     style="stroke-width:0.486749" />
  <polygon
     points="490.541,685.239 502.801,685.238 508.633,637.951 490.539,637.951 "
     fill="#a0616a"
     id="polygon92"
     transform="matrix(0.4867491,0,0,0.4867491,457.9218,35.331094)" />
  <path
     d="m 695.17012,366.92231 11.75197,-4.8e-4 h 4.8e-4 a 7.489146,7.489146 0 0 1 7.48936,7.48923 v 0.24337 l -19.24144,7.2e-4 z"
     fill="#2f2e41"
     id="path94"
     style="stroke-width:0.486749" />
  <polygon
     points="441.541,685.239 453.801,685.238 459.633,637.951 441.539,637.951 "
     fill="#a0616a"
     id="polygon96"
     transform="matrix(0.4867491,0,0,0.4867491,457.9218,35.331094)" />
  <path
     d="m 671.31942,366.92231 11.75196,-4.8e-4 h 4.9e-4 a 7.489146,7.489146 0 0 1 7.48936,7.48923 v 0.24337 l -19.24145,7.2e-4 z"
     fill="#2f2e41"
     id="path98"
     style="stroke-width:0.486749" />
  <circle
     cx="697.88336"
     cy="197.5631"
     r="11.955059"
     fill="#a0616a"
     id="circle100"
     style="stroke-width:0.486749" />
  <path
     d="m 705.92271,363.90274 h -11.0739 a 2.1905023,2.1905023 0 0 1 -2.19014,-2.21699 l 0.64349,-52.58411 a 0.73015285,0.73015285 0 0 0 -1.4549,-0.0974 l -6.4449,52.97294 a 2.1923423,2.1923423 0 0 1 -2.1743,1.9256 h -11.18028 a 2.1901908,2.1901908 0 0 1 -2.18372,-2.36101 l 7.38276,-94.46593 0.20071,-0.0219 35.35205,-3.81793 -4.68888,98.58048 a 2.1878641,2.1878641 0 0 1 -2.18799,2.08627 z"
     fill="#2f2e41"
     id="path102"
     style="stroke-width:0.486749" />
  <path
     d="m 677.67711,272.87496 a 2.1885456,2.1885456 0 0 1 -2.18252,-2.12145 c -0.19299,-5.97313 -0.52371,-26.64095 3.3206,-41.81431 a 19.919535,19.919535 0 0 1 18.39558,-15.01079 v 0 a 20.044055,20.044055 0 0 1 19.74185,12.66689 c 6.46179,16.40496 12.56683,36.62596 4.95556,39.79744 -9.97587,4.15638 -36.27422,6.00926 -44.09667,6.47794 q -0.0676,0.004 -0.1344,0.004 z"
     fill="#3f3d56"
     id="path104"
     style="stroke-width:0.486749" />
  <path
     d="m 723.36889,185.48002 a 5.1230343,5.1230343 0 0 0 0.60646,0.53207 l -1.25495,24.10683 -5.22001,2.6725 3.00362,8.40506 9.70078,-3.83308 a 3.8939928,3.8939928 0 0 0 2.4463,-3.98187 l -2.54139,-27.34531 a 5.1094539,5.1094539 0 1 0 -6.74081,-0.5562 z"
     fill="#a0616a"
     id="path106"
     style="stroke-width:0.486749" />
  <path
     d="m 722.81945,211.01627 3.67211,10.43536 a 2.190371,2.190371 0 0 1 -1.64962,2.87745 l -10.82794,2.09683 a 6.083103,6.083103 0 0 1 -4.00478,-11.48813 l 9.72217,-5.1318 a 2.190371,2.190371 0 0 1 3.08806,1.2103 z"
     fill="#3f3d56"
     id="path108"
     style="stroke-width:0.486749" />
  <path
     d="m 671.58529,185.48002 a 5.1237839,5.1237839 0 0 1 -0.60647,0.53207 l 1.25497,24.10683 5.21999,2.6725 -3.00359,8.40506 -9.70077,-3.83308 a 3.8939928,3.8939928 0 0 1 -2.44631,-3.98187 l 2.5414,-27.34531 a 5.1094539,5.1094539 0 1 1 6.7408,-0.5562 z"
     fill="#a0616a"
     id="path110"
     style="stroke-width:0.486749" />
  <path
     d="m 673.40176,209.70398 a 2.1880345,2.1880345 0 0 1 1.82103,0.10199 l 9.72217,5.13179 a 6.083103,6.083103 0 0 1 -4.00478,11.48814 l -10.82795,-2.09683 a 2.190371,2.190371 0 0 1 -1.64962,-2.87745 l 3.67212,-10.43536 a 2.1879372,2.1879372 0 0 1 1.26703,-1.31228 z"
     fill="#3f3d56"
     id="path112"
     style="stroke-width:0.486749" />
  <path
     d="m 702.52656,199.60092 a 7.8577269,7.8577269 0 0 1 4.4005,-7.38285 c 3.63402,-1.87596 5.91692,-5.87757 4.91657,-9.53156 -1.28047,-4.67712 -7.64616,-7.71046 -12.80401,-6.1013 a 23.639296,23.639296 0 0 0 -4.02096,1.86879 l -3.36981,1.80633 a 34.914513,34.914513 0 0 0 -4.15392,2.45216 13.782471,13.782471 0 0 0 -5.4858,12.91346 c 0.66362,4.75489 3.77751,9.11556 8.03995,12.10106 a 13.598081,13.598081 0 0 0 5.50942,2.44888 c 2.04313,0.33686 4.31762,-0.0459 5.81149,-1.31656 2.33458,-1.98563 2.09339,-5.31078 1.33832,-8.08799 a 5.8848745,5.8848745 0 0 1 -0.18175,-1.17042 z"
     fill="#2f2e41"
     id="path114"
     style="stroke-width:0.486749" />
  <path
     d="m 743.15677,374.92669 h -92.48233 a 0.48675,0.48675 0 0 1 0,-0.9735 h 92.48233 a 0.48675,0.48675 0 0 1 0,0.9735 z"
     fill="#cccccc"
     id="path116"
     style="stroke-width:0.486749" />
  <path
     d="m 592.2206,286.13027 -76.31115,31.3064 a 5.3465738,5.3465738 0 0 1 -6.96789,-2.91393 l -23.36002,-56.94136 a 3.9169819,3.9169819 0 0 1 2.13467,-5.10483 l 78.89089,-32.36473 a 3.9847228,3.9847228 0 0 1 5.19306,2.17175 l 23.33434,56.87879 a 5.3465786,5.3465786 0 0 1 -2.9139,6.96791 z"
     fill="#e6e6e6"
     id="path118"
     style="stroke-width:0.486749" />
  <path
     d="m 518.67364,310.53019 66.72877,-27.37526 a 5.1787037,5.1787037 0 0 0 2.82562,-6.75675 l -18.86305,-45.97975 a 5.178694,5.178694 0 0 0 -6.75675,-2.82561 l -66.72877,27.37525 a 5.1786891,5.1786891 0 0 0 -2.82561,6.75675 l 18.86305,45.97975 a 5.178694,5.178694 0 0 0 6.75674,2.82562 z"
     fill="#ffffff"
     id="path120"
     style="stroke-width:0.486749" />
  <rect
     x="433.14426"
     y="440.73978"
     width="1.0603975"
     height="0.17673373"
     transform="rotate(-22.30577)"
     fill="#e6e6e6"
     id="rect122"
     style="stroke-width:0.486749" />
  <path
     d="m 566.10038,244.33685 -1.9819,0.81307 -0.0671,-0.16351 1.98191,-0.81307 z m -3.96384,1.62616 -1.9819,0.81307 -0.0671,-0.16352 1.9819,-0.81306 z m -3.96386,1.62616 -1.9819,0.81307 -0.0671,-0.16351 1.9819,-0.81307 z m -3.96384,1.62615 -1.9819,0.81307 -0.0671,-0.16351 1.98191,-0.81307 z m -3.96384,1.62616 -1.9819,0.81307 -0.0671,-0.16351 1.9819,-0.81307 z m -3.96385,1.62616 -1.9819,0.81307 -0.0671,-0.16351 1.9819,-0.81307 z m -3.96385,1.62616 -1.9819,0.81307 -0.0671,-0.16351 1.98191,-0.81307 z m -3.96384,1.62615 -1.9819,0.81307 -0.0671,-0.1635 1.9819,-0.81307 z m -3.96386,1.62616 -1.9819,0.81307 -0.0671,-0.1635 1.9819,-0.81307 z m -3.96384,1.62616 -1.9819,0.81307 -0.0671,-0.16351 1.98191,-0.81307 z m -3.96385,1.62616 -1.98191,0.81307 -0.0671,-0.16351 1.98191,-0.81306 z m -3.96385,1.62615 -1.9819,0.81308 -0.0671,-0.16351 1.9819,-0.81307 z m -3.96385,1.62617 -1.9819,0.81307 -0.0671,-0.16351 1.9819,-0.81307 z m -3.96384,1.62616 -1.98194,0.81308 -0.0671,-0.1635 1.98194,-0.8131 z m -3.96385,1.62616 -1.9819,0.81307 -0.0671,-0.16352 1.98191,-0.81307 z m -3.96385,1.62615 -1.98194,0.81309 -0.0671,-0.16351 1.98195,-0.81309 z"
     fill="#e6e6e6"
     id="path124"
     style="stroke-width:0.486749" />
  <rect
     x="361.39053"
     y="440.73978"
     width="1.0603975"
     height="0.17673373"
     transform="rotate(-22.30577)"
     fill="#e6e6e6"
     id="rect126"
     style="stroke-width:0.486749" />
  <rect
     x="398.32779"
     y="457.17599"
     width="1.0603975"
     height="0.17673373"
     transform="rotate(-22.30577)"
     fill="#e6e6e6"
     id="rect128"
     style="stroke-width:0.486749" />
  <path
     d="m 540.15691,272.74565 -1.95249,0.801 -0.0671,-0.16351 1.95248,-0.801 z m -3.90497,1.602 -1.95247,0.80099 -0.0671,-0.1635 1.95248,-0.801 z m -3.90496,1.602 -1.95248,0.801 -0.0671,-0.16351 1.95249,-0.801 z m -3.90498,1.60202 -1.95248,0.80099 -0.0671,-0.1635 1.95248,-0.801 z m -3.90495,1.60202 -1.95252,0.80102 -0.0671,-0.16351 1.95253,-0.80101 z m -3.90501,1.60202 -1.95248,0.801 -0.0671,-0.16351 1.95249,-0.80099 z m -3.90496,1.602 -1.95249,0.80101 -0.0671,-0.16351 1.95248,-0.801 z m -3.90497,1.60201 -1.95248,0.801 -0.0671,-0.16351 1.95249,-0.801 z"
     fill="#e6e6e6"
     id="path130"
     style="stroke-width:0.486749" />
  <rect
     x="361.39053"
     y="457.17596"
     width="1.0603975"
     height="0.17673373"
     transform="rotate(-22.30577)"
     fill="#e6e6e6"
     id="rect132"
     style="stroke-width:0.486749" />
  <rect
     x="377.64999"
     y="464.95224"
     width="1.0603975"
     height="0.17673373"
     transform="rotate(-22.30577)"
     fill="#e6e6e6"
     id="rect134"
     style="stroke-width:0.486749" />
  <path
     d="m 523.92159,287.81137 -2.00881,0.82411 -0.0671,-0.16351 2.00882,-0.8241 z m -4.01766,1.64824 -2.00881,0.82411 -0.0671,-0.16352 2.00881,-0.82411 z m -4.01762,1.64821 -2.00882,0.82411 -0.0671,-0.1635 2.00882,-0.82411 z"
     fill="#e6e6e6"
     id="path136"
     style="stroke-width:0.486749" />
  <rect
     x="361.39053"
     y="464.95224"
     width="1.0603975"
     height="0.17673373"
     transform="rotate(-22.30577)"
     fill="#e6e6e6"
     id="rect138"
     style="stroke-width:0.486749" />
  <rect
     x="377.64999"
     y="478.22263"
     width="1.0603975"
     height="0.17673373"
     transform="rotate(-22.30577)"
     fill="#e6e6e6"
     id="rect140"
     style="stroke-width:0.486749" />
  <path
     d="m 528.95837,300.08877 -2.00881,0.82411 -0.0671,-0.1635 2.00881,-0.82411 z m -4.01766,1.64824 -2.00881,0.82411 -0.0671,-0.16351 2.00881,-0.82411 z m -4.01763,1.64822 -2.00881,0.8241 -0.0671,-0.1635 2.00881,-0.82412 z"
     fill="#e6e6e6"
     id="path142"
     style="stroke-width:0.486749" />
  <rect
     x="361.39053"
     y="478.22263"
     width="1.0603975"
     height="0.17673373"
     transform="rotate(-22.30577)"
     fill="#e6e6e6"
     id="rect144"
     style="stroke-width:0.486749" />
  <path
     d="m 521.50701,303.29225 56.54811,-23.19872 a 5.5882982,5.5882982 0 0 0 3.04568,-7.28297 l -11.4253,-27.84978 -0.11047,0.0491 -13.87687,33.18023 -10.29213,-4.30281 a 1.3347147,1.3347147 0 0 0 -1.18549,0.074 1.4221641,1.4221641 0 0 0 -0.58994,0.69743 l -7.27267,17.38746 -7.52505,-3.14554 a 1.3398402,1.3398402 0 0 0 -1.75361,0.71941 c -0.0481,0.11813 -4.68804,11.50217 -5.56226,13.67223 z"
     fill="#dc5c01"
     id="path146"
     style="stroke-width:0.486749" />
  <path
     d="m 521.33295,303.5545 -0.16304,-0.0682 5.81888,-13.91441 a 1.5037724,1.5037724 0 0 1 1.96546,-0.80632 l 7.37644,3.08476 7.23123,-17.29171 a 1.5037675,1.5037675 0 0 1 1.96545,-0.80632 l 10.14349,4.24192 13.94821,-33.35369 0.16303,0.0682 -14.01638,33.51674 -10.30652,-4.3101 a 1.3254178,1.3254178 0 0 0 -1.73424,0.71147 l -7.29942,17.45474 -7.53947,-3.15293 a 1.327102,1.327102 0 0 0 -1.73425,0.71146 z"
     fill="#3f3d56"
     id="path148"
     style="stroke-width:0.486749" />
  <circle
     cx="526.87793"
     cy="286.50305"
     r="1.2371312"
     fill="#3f3d56"
     id="circle150"
     style="stroke-width:0.486749" />
  <circle
     cx="543.05695"
     cy="271.46042"
     r="1.2371312"
     fill="#3f3d56"
     id="circle152"
     style="stroke-width:0.486749" />
  <circle
     cx="568.24945"
     cy="242.99583"
     r="1.2371312"
     fill="#3f3d56"
     id="circle154"
     style="stroke-width:0.486749" />
  <path
     d="m 499.00395,285.09928 a 4.9136981,4.9136981 0 0 0 1.75712,-7.32682 l 3.67428,-35.92417 h -7.94049 l -2.92003,35.07811 a 4.9403281,4.9403281 0 0 0 5.42912,8.17288 z"
     fill="#ffb8b8"
     id="path156"
     style="stroke-width:0.486749" />
  <circle
     cx="506.29477"
     cy="210.78836"
     r="11.234198"
     fill="#ffb8b8"
     id="circle158"
     style="stroke-width:0.486749" />
  <path
     d="m 508.4097,262.7694 a 2.0545679,2.0545679 0 0 1 -1.98013,-1.50888 c -0.90006,-3.27014 -3.24178,-8.79913 -6.95994,-16.43422 a 13.613024,13.613024 0 0 1 7.73046,-18.79469 v 0 a 13.606867,13.606867 0 0 1 17.48492,8.66803 c 2.88197,9.03542 2.74282,18.71404 2.54919,22.45544 a 2.0633294,2.0633294 0 0 1 -1.61642,1.90509 l -16.76666,3.66143 a 2.0481039,2.0481039 0 0 1 -0.44142,0.0478 z"
     fill="#ff6584"
     id="path160"
     style="stroke-width:0.486749" />
  <polygon
     points="137.082,686.425 148.602,686.425 154.083,641.988 137.08,641.989 "
     fill="#ffb8b8"
     id="polygon162"
     transform="matrix(0.4867491,0,0,0.4867491,457.9218,35.331094)" />
  <path
     d="m 541.06873,374.65436 -17.62393,8.1e-4 -3.1e-4,-6.80925 10.81469,-5e-4 a 6.8092451,6.8092451 0 0 1 6.80955,6.80894 z"
     fill="#2f2e41"
     id="path164"
     style="stroke-width:0.486749" />
  <polygon
     points="21.882,671.495 31.978,677.045 58.19,640.747 43.291,632.555 "
     fill="#ffb8b8"
     id="polygon166"
     transform="matrix(0.4867491,0,0,0.4867491,457.9218,35.331094)" />
  <path
     d="m 480.45532,374.65516 -15.44382,-8.49065 3.28048,-5.96693 9.4769,5.21017 a 6.8092402,6.8092402 0 0 1 2.68644,9.2474 v 0 z"
     fill="#2f2e41"
     id="path168"
     style="stroke-width:0.486749" />
  <path
     d="m 524.38427,357.44257 a 2.0580579,2.0580579 0 0 1 -2.03919,-1.79341 l -7.01298,-54.04102 a 1.1435099,1.1435099 0 0 0 -2.13537,-0.40513 l -29.22719,53.02661 a 2.0695257,2.0695257 0 0 1 -2.53524,0.93042 l -6.37066,-2.42725 a 2.0581212,2.0581212 0 0 1 -1.17365,-2.69928 l 20.24642,-49.73637 a 1.585483,1.585483 0 0 0 0.10341,-0.39397 c 2.74227,-21.22485 9.71951,-32.0184 11.79254,-34.82086 a 1.5939281,1.5939281 0 0 0 0.22683,-1.45126 l -0.28498,-0.85495 a 2.0572353,2.0572353 0 0 1 0.3961,-2.00199 c 7.46992,-8.50835 20.4897,-3.86556 20.62037,-3.81777 l 0.0652,0.0242 0.0409,0.0558 c 14.59903,20.0215 9.20125,85.05082 7.97101,97.88346 a 2.0526501,2.0526501 0 0 1 -1.89091,1.85238 l -8.63275,0.66466 c -0.0537,0.004 -0.10694,0.006 -0.15987,0.006 z"
     fill="#2f2e41"
     id="path170"
     style="stroke-width:0.486749" />
  <path
     d="m 549.96907,223.83807 a 4.8150632,4.8150632 0 0 0 -0.10945,0.75019 l -19.64871,11.33527 -4.7759,-2.7494 -5.09139,6.66535 7.98177,5.68892 a 3.6591898,3.6591898 0 0 0 4.39021,-0.10696 l 20.2612,-15.98419 a 4.8013661,4.8013661 0 1 0 -3.00774,-5.59918 z"
     fill="#ffb8b8"
     id="path172"
     style="stroke-width:0.486749" />
  <path
     d="m 529.55403,236.46039 -6.35041,8.23044 a 2.0583061,2.0583061 0 0 1 -3.11211,0.17045 l -7.1891,-7.4653 a 5.7163084,5.7163084 0 0 1 7.0104,-9.03095 l 9.0167,5.04181 a 2.058311,2.058311 0 0 1 0.62452,3.05356 z"
     fill="#ff6584"
     id="path174"
     style="stroke-width:0.486749" />
  <path
     d="m 504.94071,250.7597 -10.23012,-1.84721 a 2.0583061,2.0583061 0 0 1 -1.58436,-2.68405 l 3.3164,-9.81915 a 5.7163084,5.7163084 0 0 1 11.24464,2.06446 l -0.32357,10.32549 a 2.0583159,2.0583159 0 0 1 -2.423,1.96046 z"
     fill="#ff6584"
     id="path176"
     style="stroke-width:0.486749" />
  <path
     d="m 508.07284,208.20436 c 2.88742,1.97619 6.67868,4.0076 9.62775,1.90312 a 5.3665645,5.3665645 0 0 0 1.76127,-6.18626 c -1.41212,-4.03818 -5.29186,-5.81598 -9.00186,-7.1787 -4.823,-1.77153 -10.07455,-3.18086 -15.05352,-1.91217 -4.97897,1.26868 -9.37925,6.08931 -8.48045,11.14815 0.72279,4.06822 4.56026,7.4533 4.01548,11.54914 -0.54827,4.12216 -5.18406,6.29194 -9.27673,7.02866 -4.09267,0.73672 -8.67247,0.97344 -11.61371,3.91315 -3.75209,3.75011 -2.81513,10.45305 0.71543,14.41243 3.53057,3.95939 8.85838,5.75414 14.02103,6.97424 6.8402,1.61655 14.23839,2.46611 20.73487,-0.21672 6.49648,-2.68282 11.55192,-9.90467 9.67,-16.67666 -0.79492,-2.86049 -2.66751,-5.27797 -4.47727,-7.63149 -1.80977,-2.35351 -3.64232,-4.81458 -4.33266,-7.70209 -0.57529,-2.40625 -0.14949,-5.20003 1.44621,-7.00499 a 2.0294955,2.0294955 0 0 0 0.27188,-2.37227 z"
     fill="#2f2e41"
     id="path178"
     style="stroke-width:0.486749" />
  <path
     d="m 550.89088,374.92669 h -92.48234 a 0.48675,0.48675 0 0 1 0,-0.9735 h 92.48234 a 0.48675,0.48675 0 0 1 0,0.9735 z"
     fill="#cccccc"
     id="path180"
     style="stroke-width:0.486749" />
  <text
     xml:space="preserve"
     id="text189"
     style="font-style:normal;font-weight:normal;font-size:48px;line-height:1.25;font-family:sans-serif;white-space:pre;shape-inside:url(#rect191);fill:#333333;fill-opacity:1;stroke:none;"
     transform="translate(70.662188,77.346444)"><tspan
       x="18.142578"
       y="84.852402"><tspan
         style="font-style:normal;font-variant:normal;font-weight:bold;font-stretch:normal;font-size:48px;font-family:Lora;-inkscape-font-specification:'Lora Bold';fill:#333333">Marketing 
</tspan></tspan><tspan
       x="18.142578"
       y="144.91926"><tspan
         style="font-style:normal;font-variant:normal;font-weight:bold;font-stretch:normal;font-size:48px;font-family:Lora;-inkscape-font-specification:'Lora Bold';fill:#333333">as a 
</tspan></tspan><tspan
       x="18.142578"
       y="204.98611"><tspan
         style="font-style:normal;font-variant:normal;font-weight:bold;font-stretch:normal;font-size:48px;font-family:Lora;-inkscape-font-specification:'Lora Bold';fill:#333333">Service</tspan></tspan></text>
</svg>
