<?xml version="1.0" encoding="UTF-8" standalone="no"?>
<svg
   xmlns:dc="http://purl.org/dc/elements/1.1/"
   xmlns:cc="http://creativecommons.org/ns#"
   xmlns:rdf="http://www.w3.org/1999/02/22-rdf-syntax-ns#"
   xmlns:svg="http://www.w3.org/2000/svg"
   xmlns="http://www.w3.org/2000/svg"
   xmlns:sodipodi="http://sodipodi.sourceforge.net/DTD/sodipodi-0.dtd"
   xmlns:inkscape="http://www.inkscape.org/namespaces/inkscape"
   id="ab33c339-a290-46df-b273-a8a31c058d9b"
   data-name="Layer 1"
   width="1104"
   height="560.27146"
   viewBox="0 0 1104 560.27146"
   version="1.1"
   sodipodi:docname="undraw_zoom_in_1txs (1).svg"
   inkscape:version="1.0.1 (3bc2e813f5, 2020-09-07)">
  <metadata
     id="metadata67">
    <rdf:RDF>
      <cc:Work
         rdf:about="">
        <dc:format>image/svg+xml</dc:format>
        <dc:type
           rdf:resource="http://purl.org/dc/dcmitype/StillImage" />
      </cc:Work>
    </rdf:RDF>
  </metadata>
  <defs
     id="defs65">
    <rect
       x="268.05374"
       y="337.9808"
       width="549.94629"
       height="102.3302"
       id="rect71" />
    <rect
       x="268.05374"
       y="337.9808"
       width="549.94629"
       height="102.3302"
       id="rect73" />
    <rect
       x="275.47025"
       y="310.43378"
       width="560.47601"
       height="190.71017"
       id="rect44" />
    <rect
       x="275.47025"
       y="310.43378"
       width="560.47601"
       height="190.71017"
       id="rect76" />
  </defs>
  <sodipodi:namedview
     pagecolor="#ffffff"
     bordercolor="#666666"
     borderopacity="1"
     objecttolerance="10"
     gridtolerance="10"
     guidetolerance="10"
     inkscape:pageopacity="0"
     inkscape:pageshadow="2"
     inkscape:window-width="1920"
     inkscape:window-height="1009"
     id="namedview63"
     showgrid="false"
     inkscape:zoom="0.94384058"
     inkscape:cx="552"
     inkscape:cy="280.13574"
     inkscape:window-x="-8"
     inkscape:window-y="-8"
     inkscape:window-maximized="1"
     inkscape:current-layer="ab33c339-a290-46df-b273-a8a31c058d9b" />
  <title
     id="title2">zoom_in</title>
  <rect
     width="1104"
     height="560"
     fill="#dc5c01"
     id="rect4"
     sodipodi:insensitive="true"
     x="0"
     y="0" />
  <rect
     x="1021.14746"
     y="484.74411"
     width="2"
     height="74.41113"
     fill="#3f3d56"
     id="rect6" />
  <circle
     cx="1022.14769"
     cy="484.74374"
     r="10.52282"
     fill="#3f3d56"
     id="circle8" />
  <path
     d="M1070.14769,700.46928s-1.50326-32.33193-32.32009-28.57378"
     transform="translate(-48 -169.86427)"
     fill="#3f3d56"
     id="path10" />
  <path
     d="M107.40863,693.73447c6.07317,22.45005,26.87512,36.35394,26.87512,36.35394s10.95541-22.49485,4.88225-44.94491-26.87512-36.35394-26.87512-36.35394S101.33547,671.28441,107.40863,693.73447Z"
     transform="translate(-48 -169.86427)"
     fill="#fff"
     id="path12" />
  <path
     d="M116.33272,688.90971c16.66484,16.22255,18.70033,41.1604,18.70033,41.1604s-24.98356-1.36412-41.64841-17.58667S74.68431,671.323,74.68431,671.323,99.66787,672.68715,116.33272,688.90971Z"
     transform="translate(-48 -169.86427)"
     fill="#3f3d56"
     id="path14" />
  <polygon
     points="442.23 0 0 303.64 0 234.46 341.53 0 442.23 0"
     opacity="0.1"
     id="polygon16" />
  <polygon
     points="274.97 0 0 188.77 0 119.63 174.26 0 274.97 0"
     opacity="0.1"
     id="polygon18" />
  <polygon
     points="93.46 0 0 64.16 0 0 93.46 0"
     opacity="0.1"
     id="polygon20" />
  <ellipse
     cx="548.40997"
     cy="201.42421"
     rx="86.54245"
     ry="13.063011"
     opacity="0.1"
     id="ellipse22"
     style="stroke-width:0.544292" />
  <ellipse
     cx="548.40997"
     cy="190.53838"
     rx="86.54245"
     ry="13.063011"
     opacity="0.1"
     id="ellipse24"
     style="stroke-width:0.544292" />
  <ellipse
     cx="548.40997"
     cy="179.65254"
     rx="86.54245"
     ry="13.063011"
     opacity="0.1"
     id="ellipse26"
     style="stroke-width:0.544292" />
  <ellipse
     cx="548.40997"
     cy="168.76669"
     rx="86.54245"
     ry="13.063011"
     opacity="0.1"
     id="ellipse28"
     style="stroke-width:0.544292" />
  <ellipse
     cx="548.40997"
     cy="157.88086"
     rx="86.54245"
     ry="13.063011"
     opacity="0.1"
     id="ellipse30"
     style="stroke-width:0.544292" />
  <ellipse
     cx="548.40997"
     cy="146.995"
     rx="86.54245"
     ry="13.063011"
     opacity="0.1"
     id="ellipse32"
     style="stroke-width:0.544292" />
  <path
     d="m 578.72382,107.01171 c -6.89979,25.50573 -30.5331,41.30208 -30.5331,41.30208 0,0 -12.44655,-25.55662 -5.54676,-51.062362 6.89977,-25.50574 30.53309,-41.302079 30.53309,-41.302079 0,0 12.44653,25.556617 5.54677,51.062361 z"
     fill="#ffffff"
     id="path34"
     style="stroke-width:0.544292" />
  <path
     d="m 515.95504,107.01171 c 6.89977,25.50573 30.53308,41.3021 30.53308,41.3021 0,0 12.44655,-25.55662 5.54676,-51.062366 -6.89977,-25.505733 -30.53308,-41.302072 -30.53308,-41.302072 0,0 -12.44654,25.556594 -5.54676,51.062338 z"
     fill="#ffffff"
     id="path36"
     style="stroke-width:0.544292" />
  <path
     d="m 526.09378,101.53026 c 18.93309,18.43061 21.24564,46.76276 21.24564,46.76276 0,0 -28.38409,-1.54979 -47.31718,-19.98043 -18.9331,-18.43064 -21.24564,-46.762742 -21.24564,-46.762742 0,0 28.38408,1.54979 47.31718,19.980412 z"
     fill="#3f3d56"
     id="path38"
     style="stroke-width:0.544292" />
  <path
     d="m 568.58506,101.53026 c -18.9331,18.43061 -21.24564,46.76276 -21.24564,46.76276 0,0 28.38408,-1.54979 47.31718,-19.98043 18.9331,-18.43064 21.24564,-46.762742 21.24564,-46.762742 0,0 -28.38408,1.54979 -47.31718,19.980412 z"
     fill="#3f3d56"
     id="path40"
     style="stroke-width:0.544292" />
  <rect
     x="261.46985"
     y="289.86188"
     width="561.82764"
     height="2"
     fill="#3f3d56"
     id="rect42" />
  <path
     d="M688.17236,730.13573a12,12,0,1,1,12-12A12.01375,12.01375,0,0,1,688.17236,730.13573Zm0-22a10,10,0,1,0,10,10A10.01114,10.01114,0,0,0,688.17236,708.13573Z"
     transform="translate(-48 -169.86427)"
     fill="#f0f0f0"
     id="path44" />
  <path
     d="m 261.9405,256.11026 h -19.74115 v -19.74115 h 19.74115 z m -18.2226,-1.51859 h 16.704 v -16.704 h -16.704 z"
     fill="#3f3d56"
     id="path46" />
  <path
     d="m 898.59397,465.17691 -13.4651,-14.43621 14.43623,-13.46509 13.46509,14.43621 z m -11.31887,-14.36151 11.39354,12.21526 12.21525,-11.39354 -11.39354,-12.21526 z"
     fill="#f0f0f0"
     id="path48" />
  <path
     d="M1152,283.86427v286a143,143,0,1,1,0-286Z"
     transform="translate(-48 -169.86427)"
     opacity="0.1"
     id="path50" />
  <circle
     cx="972"
     cy="152"
     r="110"
     opacity="0.1"
     id="circle52" />
  <circle
     cx="875"
     cy="88"
     r="56"
     opacity="0.1"
     id="circle54" />
  <path
     d="M923.3101,286.93662a29.116,29.116,0,1,1,29.116-29.116A29.14864,29.14864,0,0,1,923.3101,286.93662Z"
     transform="translate(-48 -169.86427)"
     fill="#3f3d56"
     id="path56" />
  <circle
     cx="547.49017"
     cy="46.474915"
     r="5.4857082"
     fill="#f0f0f0"
     id="circle58"
     style="stroke-width:0.544292" />
  <path
     d="m 547.49021,62.322517 a 15.84761,15.84761 0 1 1 15.84761,-15.847609 15.865376,15.865376 0 0 1 -15.84761,15.847609 z m 0,-30.476157 A 14.628559,14.628559 0 1 0 562.11877,46.474915 14.645313,14.645313 0 0 0 547.49021,31.84636 Z"
     fill="#2f2e41"
     id="path60"
     style="stroke-width:0.544292" />
  <text
     xml:space="preserve"
     id="text69"
     style="font-style:normal;font-weight:normal;font-size:26.6667px;line-height:1.25;font-family:sans-serif;white-space:pre;shape-inside:url(#rect71);fill:#000000;fill-opacity:1;stroke:none;"
     transform="matrix(2,0,0,2,-176.82184,-465.94252)"><tspan
       x="268.05469"
       y="362.30931"><tspan
         style="font-style:normal;font-variant:normal;font-weight:normal;font-stretch:normal;font-size:26.6667px;font-family:lora;-inkscape-font-specification:lora;fill:#ffffff">Who are we?</tspan></tspan></text>
  <text
     xml:space="preserve"
     id="text42"
     style="font-style:normal;font-weight:normal;font-size:16px;line-height:1.25;font-family:sans-serif;white-space:pre;shape-inside:url(#rect44);fill:#000000;fill-opacity:1;stroke:none;"
     x="0"
     y="0"
     transform="translate(-11.4125,1.9456833)"><tspan
       x="275.4707"
       y="325.13909"><tspan
         dx="0 2.7467985 0 0 2.7467995 0 0 0 2.7467957 0 2.7468033 0 0 0 0 0 0 0 0 0 0 2.7467957 0 0 0 0 0 2.7467957 0 2.7467957 0 0 0 0 0 0 0 0 0 0 2.7467957 0 0 0 0 0 0 0 0 0 0 0 2.7467957 0 0 0 0 0 0 0 2.7467957"
         style="font-style:normal;font-variant:normal;font-weight:normal;font-stretch:normal;font-size:16px;font-family:Montserrat;-inkscape-font-specification:Montserrat;text-align:justify;text-anchor:start;fill:#ffffff"> We are a Marketing, Sales &amp; Technology solutioning company that </tspan></tspan><tspan
       x="275.4707"
       y="345.24731"><tspan
         dx="0 0 0 0 0 0 0.76223373 0 0 0 0 0 0 0 0 0 0.76223755 0 0 0 0 0 0 0 0.76222229 0 0 0 0 0 0.76223755 0 0 0 0 0 0 0 0 0.76220703 0 0 0 0 0 0 0 0 0.76223755 0 0 0 0 0.76223755 0 0 0 0 0.76223755 0 0.76223755"
         style="font-style:normal;font-variant:normal;font-weight:normal;font-stretch:normal;font-size:16px;font-family:Montserrat;-inkscape-font-specification:Montserrat;text-align:justify;text-anchor:start;fill:#ffffff">helps companies achieve their business outcome, with over a decade </tspan></tspan><tspan
       x="275.4707"
       y="365.35552"><tspan
         dx="0 0 0 0 0 0 0 0 0 0 0 3.7937164 0 0 0 0 0 0 0 3.7937164 0 0 0 0 0 0 3.7937164 0 0 0 0 0 0 0 3.7937012 0 0 3.7937317 0 0 0 0 0 0 0 0 3.7937012 0 0 0 0 0 0 0 3.7937317"
         style="font-style:normal;font-variant:normal;font-weight:normal;font-stretch:normal;font-size:16px;font-family:Montserrat;-inkscape-font-specification:Montserrat;text-align:justify;text-anchor:start;fill:#ffffff">experience working across domains of digital, social, technological, </tspan></tspan><tspan
       x="275.4707"
       y="385.46374"><tspan
         dx="0 0 0 0 1.3232956 0 0 0 0 0 1.3232956 0 0 0 0 0 0 0 0 0 0 1.323288 0 0 1.3233032 0 0 0 0 0 0 0 0 0 1.3233032 0 0 1.3232727 0 0 0 0 0 0 0 0 0 0 0 1.3233032 0 0 0 0 1.3233032 0 0 1.3233032 0 0 0 1.3232727 0 0 0 0 0 1.3232727"
         style="font-style:normal;font-variant:normal;font-weight:normal;font-stretch:normal;font-size:16px;font-family:Montserrat;-inkscape-font-specification:Montserrat;text-align:justify;text-anchor:start;fill:#ffffff">and sales strategies we expertise in solutioning most of the needs of </tspan></tspan><tspan
       x="275.4707"
       y="405.57195"><tspan
         style="font-style:normal;font-variant:normal;font-weight:normal;font-stretch:normal;font-size:16px;font-family:Montserrat;-inkscape-font-specification:Montserrat;text-align:justify;text-anchor:start;fill:#ffffff">any business today.</tspan></tspan></text>
</svg>
