<?xml version="1.0" encoding="UTF-8" standalone="no"?>
<svg
   xmlns:dc="http://purl.org/dc/elements/1.1/"
   xmlns:cc="http://creativecommons.org/ns#"
   xmlns:rdf="http://www.w3.org/1999/02/22-rdf-syntax-ns#"
   xmlns:svg="http://www.w3.org/2000/svg"
   xmlns="http://www.w3.org/2000/svg"
   xmlns:sodipodi="http://sodipodi.sourceforge.net/DTD/sodipodi-0.dtd"
   xmlns:inkscape="http://www.inkscape.org/namespaces/inkscape"
   id="f885adbf-893a-4cbc-9f2f-51541a368feb"
   data-name="Layer 1"
   width="1090.76"
   height="795.07"
   viewBox="0 0 1090.76 795.07"
   version="1.1"
   sodipodi:docname="saasm.svg"
   inkscape:version="1.0.1 (3bc2e813f5, 2020-09-07)">
  <metadata
     id="metadata292">
    <rdf:RDF>
      <cc:Work
         rdf:about="">
        <dc:format>image/svg+xml</dc:format>
        <dc:type
           rdf:resource="http://purl.org/dc/dcmitype/StillImage" />
      </cc:Work>
    </rdf:RDF>
  </metadata>
  <sodipodi:namedview
     pagecolor="#ffffff"
     bordercolor="#666666"
     borderopacity="1"
     objecttolerance="10"
     gridtolerance="10"
     guidetolerance="10"
     inkscape:pageopacity="0"
     inkscape:pageshadow="2"
     inkscape:window-width="1920"
     inkscape:window-height="1009"
     id="namedview290"
     showgrid="false"
     inkscape:zoom="0.95529722"
     inkscape:cx="545.38"
     inkscape:cy="297.10118"
     inkscape:window-x="-8"
     inkscape:window-y="-8"
     inkscape:window-maximized="1"
     inkscape:current-layer="f885adbf-893a-4cbc-9f2f-51541a368feb"
     inkscape:document-rotation="0" />
  <defs
     id="defs9">
    <rect
       x="47.105759"
       y="74.322419"
       width="353.81659"
       height="329.74031"
       id="rect296" />
    <linearGradient
       id="b2e9a30e-d699-40a8-8c6a-b63a5f54a941"
       x1="946.56"
       y1="846.78"
       x2="946.56"
       y2="635.52"
       gradientUnits="userSpaceOnUse"
       gradientTransform="matrix(0.38015226,0,0,0.38015226,15.855296,40.236739)">
      <stop
         offset="0"
         stop-color="gray"
         stop-opacity="0.25"
         id="stop2" />
      <stop
         offset="0.54"
         stop-color="gray"
         stop-opacity="0.12"
         id="stop4" />
      <stop
         offset="1"
         stop-color="gray"
         stop-opacity="0.1"
         id="stop6" />
    </linearGradient>
  </defs>
  <title
     id="title11">revenue</title>
  <path
     d="m 108.05363,342.4844 c 0,0 5.05984,-3.33774 10.07405,-0.96178 0,0 -1.54342,2.97279 -7.89198,2.69148 z"
     fill="#dc5c01"
     id="path67"
     style="stroke-width:0.380152" />
  <path
     d="m 107.43398,342.66308 c 0,0 -1.5396,5.87715 2.31893,9.84974 0,0 2.32274,-2.41777 0.019,-8.33673 z"
     fill="#dc5c01"
     id="path69"
     style="stroke-width:0.380152" />
  <path
     d="m 101.12346,337.03682 c 0,0 0.38015,-4.9876 11.63266,-3.33393 0,0 0.0532,3.21608 -3.90037,4.7405 -3.95358,1.5244 -5.7593,0.23949 -7.73229,-1.40657 z"
     fill="#dc5c01"
     id="path71"
     style="stroke-width:0.380152" />
  <path
     d="m 100.43158,337.00261 c 0,0 -4.759506,1.52061 -0.517002,12.08504 0,0 3.140052,-0.69948 3.695072,-4.90016 0.55503,-4.20069 -1.11385,-5.65667 -3.17807,-7.18488 z"
     fill="#dc5c01"
     id="path73"
     style="stroke-width:0.380152" />
  <path
     d="m 94.056428,329.91278 c 0,0 -0.642458,-8.20369 10.860952,-7.35976 0,0 0.81733,7.42437 -8.827144,9.33274 z"
     fill="#dc5c01"
     id="path75"
     style="stroke-width:0.380152" />
  <path
     d="m 86.457181,320.66747 c 0,0 1.573825,-9.29472 13.073438,-6.52342 0,0 0.04563,8.03642 -11.199287,8.74351 z"
     fill="#dc5c01"
     id="path77"
     style="stroke-width:0.380152" />
  <path
     d="m 80.899358,311.09523 c 0,0 2.66106,-9.07804 14.035214,-6.34474 0,0 -2.710476,8.14285 -13.278715,8.01741 z"
     fill="#dc5c01"
     id="path79"
     style="stroke-width:0.380152" />
  <path
     d="m 75.62284,301.74348 c 0,0 2.58123,-9.39736 13.579042,-6.57663 0,0 -3.672275,8.92978 -12.856752,8.17707 z"
     fill="#dc5c01"
     id="path81"
     style="stroke-width:0.380152" />
  <path
     d="m 72.220476,292.85932 c 0,0 1.9844,-11.492 12.240901,-8.94878 0,0 -2.980387,10.45418 -11.484394,10.62146 z"
     fill="#dc5c01"
     id="path83"
     style="stroke-width:0.380152" />
  <path
     d="m 69.030997,282.12763 c 0,0 2.383557,-11.58324 12.750313,-8.2151 0,0 -4.071431,10.94839 -12.028024,9.81554 z"
     fill="#dc5c01"
     id="path85"
     style="stroke-width:0.380152" />
  <path
     d="m 67.058007,272.12962 c 0,0 3.778715,-11.58704 11.803726,-11.27152 0,0 -3.866147,12.23711 -11.134659,13.59426 z"
     fill="#dc5c01"
     id="path87"
     style="stroke-width:0.380152" />
  <path
     d="m 65.803507,262.39392 c 0,0 4.113251,-13.94778 10.644261,-12.86816 0,0 -2.84734,10.64427 -10.41237,15.04263 z"
     fill="#dc5c01"
     id="path89"
     style="stroke-width:0.380152" />
  <path
     d="m 65.088819,250.75365 c 0,0 3.858546,-11.62124 10.305931,-12.07743 0,0 -2.626852,11.43498 -10.161472,15.10345 z"
     fill="#dc5c01"
     id="path91"
     style="stroke-width:0.380152" />
  <path
     d="m 64.309513,239.91551 c 0,0 4.812726,-11.63645 9.070427,-11.89876 0,0 -2.087037,11.45779 -8.644663,13.80713 z"
     fill="#dc5c01"
     id="path93"
     style="stroke-width:0.380152" />
  <path
     d="m 63.773493,229.82248 c 0,0 2.957587,-12.63627 7.222891,-13.68548 0,0 -0.581625,10.33253 -6.785716,14.62825 z"
     fill="#dc5c01"
     id="path95"
     style="stroke-width:0.380152" />
  <path
     d="m 62.176853,216.62739 c 0,0 3.109647,-10.07024 6.553832,-11.60604 0,0 -0.680477,11.87215 -5.755512,14.06562 z"
     fill="#dc5c01"
     id="path97"
     style="stroke-width:0.380152" />
  <path
     d="m 60.842521,207.9371 -0.627254,-17.7569 c 0,0 6.432181,13.40417 1.102448,20.88937 z"
     fill="#dc5c01"
     id="path99"
     style="stroke-width:0.380152" />
  <path
     d="m 55.870124,190.29044 c 0,0 -4.637852,-12.967 -5.751695,-13.68548 0,0 9.097036,8.41277 8.207481,19.2357 z"
     fill="#dc5c01"
     id="path101"
     style="stroke-width:0.380152" />
  <path
     d="m 93.744698,329.87095 c 0,0 -8.158067,-1.06823 -7.914772,10.4618 0,0 7.374959,1.20127 9.781322,-8.33295 z"
     fill="#dc5c01"
     id="path103"
     style="stroke-width:0.380152" />
  <path
     d="m 86.069428,320.35954 c 0,0 -9.42778,-0.0342 -8.659869,11.78472 0,0 7.910971,1.41417 10.522618,-9.54182 z"
     fill="#dc5c01"
     id="path105"
     style="stroke-width:0.380152" />
  <path
     d="m 80.808115,311.85933 c 0,0 -8.557223,-3.9954 -14.035215,6.34475 0,0 7.907162,3.34153 14.791722,-4.67208 z"
     fill="#dc5c01"
     id="path107"
     style="stroke-width:0.380152" />
  <path
     d="m 75.432768,301.83091 c 0,0 -8.762514,-4.2729 -13.909776,5.85055 0,0 9.123658,3.14006 14.632066,-4.2501 z"
     fill="#dc5c01"
     id="path109"
     style="stroke-width:0.380152" />
  <path
     d="m 72.330723,293.11022 c 0,0 -8.431778,-8.05923 -15.164278,0.0913 0,0 8.618049,6.62985 15.552031,1.70308 z"
     fill="#dc5c01"
     id="path111"
     style="stroke-width:0.380152" />
  <path
     d="m 69.509992,281.85392 c 0,0 -8.485001,-8.2417 -15.164271,0.38015 0,0 9.526609,6.7591 15.46459,1.34954 z"
     fill="#dc5c01"
     id="path113"
     style="stroke-width:0.380152" />
  <path
     d="m 67.936158,271.81029 c 0,0 -6.534818,-10.26412 -14.232896,-7.9832 0,0 6.781915,10.89517 14.160668,10.40857 z"
     fill="#dc5c01"
     id="path115"
     style="stroke-width:0.380152" />
  <path
     d="m 65.997386,262.3293 c 0,0 -6.595643,-12.95939 -12.818732,-10.7089 0,0 4.7481,9.96 12.985998,12.88717 z"
     fill="#dc5c01"
     id="path117"
     style="stroke-width:0.380152" />
  <path
     d="m 65.541206,250.08079 c 0,0 -6.770511,-10.2033 -13.115258,-8.9564 0,0 5.535016,10.34395 13.772921,11.90638 z"
     fill="#dc5c01"
     id="path119"
     style="stroke-width:0.380152" />
  <path
     d="m 65.0242,239.68743 c 0,0 -5.246108,-11.44639 -9.50381,-11.54523 0,0 2.520405,11.36655 9.161663,13.4688 z"
     fill="#dc5c01"
     id="path121"
     style="stroke-width:0.380152" />
  <path
     d="m 63.986379,229.57157 c 0,0 -5.835336,-11.59083 -10.21849,-11.61365 0,0 2.987996,9.91057 10.020816,12.63626 z"
     fill="#dc5c01"
     id="path123"
     style="stroke-width:0.380152" />
  <path
     d="m 63.108228,217.32687 c 0,0 -4.364149,-9.59505 -7.983193,-10.68228 0,0 2.182067,11.69348 7.496596,13.22551 z"
     fill="#dc5c01"
     id="path125"
     style="stroke-width:0.380152" />
  <path
     d="m 60.333118,207.60257 -9.758509,-14.85254 c 0,0 2.497599,14.65107 11.172671,17.68468 z"
     fill="#dc5c01"
     id="path127"
     style="stroke-width:0.380152" />
  <path
     d="m 53.631034,191.48792 c 0,0 -11.332342,-7.82353 -11.742909,-9.07424 0,0 5.782121,10.9598 16.468194,12.89097 z"
     fill="#dc5c01"
     id="path129"
     style="stroke-width:0.380152" />
  <path
     d="m 52.954357,187.96771 c 0,0 -13.012613,-12.50702 -16.346542,-12.4956 0,0 10.731694,0.49039 16.64687,11.83032 z"
     fill="#dc5c01"
     id="path131"
     style="stroke-width:0.380152" />
  <path
     d="m 62.994186,219.18201 -0.475194,0.0608 C 60.074618,200.10213 56.508782,188.7926 52.479171,187.39364 l 0.159662,-0.45238 c 4.272914,1.4826 7.838742,12.63246 10.355353,32.24071 z"
     fill="#444053"
     id="path133"
     style="stroke-width:0.380152" />
  <path
     d="m 66.575218,264.94474 -0.714686,0.0608 c -0.152068,-1.78671 -0.26611,-3.61524 -0.345941,-5.43617 -0.68047,-15.84476 -1.741098,-30.38937 -3.132454,-41.29595 l 0.414368,-0.50941 c 1.395157,10.92179 2.752304,25.91119 3.421371,41.77115 0.09503,1.81331 0.197673,3.63045 0.357342,5.40955 z"
     fill="#444053"
     id="path135"
     style="stroke-width:0.380152" />
  <path
     d="m 121.41599,351.58146 c -0.12545,-0.0571 -12.7313,-5.68329 -25.819954,-19.11407 A 103.98686,103.98686 0 0 1 76.72148,305.72748 C 70.673258,293.41815 66.985779,278.28429 65.750284,263.5762 l 0.760308,0.34974 c 2.778912,33.01241 17.806327,55.58206 29.758319,67.85718 12.959399,13.30533 25.424579,18.88216 25.550039,18.93538 z"
     fill="#444053"
     id="path137"
     style="stroke-width:0.380152" />
  <path
     d="m 417.01483,110.84242 v 229.9313 c 0,6.84274 -6.59567,12.39677 -14.74233,12.39677 H 90.308124 c -8.142863,0 -14.7385,-5.56163 -14.7385,-12.39677 v -229.9313 c 0,-6.84275 6.595637,-13.833736 14.7385,-13.833736 l 311.949166,0.7603 c 8.14286,-0.0037 14.75754,6.223086 14.75754,13.073436 z"
     fill="#e8eaf2"
     id="path139"
     style="stroke-width:0.380152" />
  <path
     d="m 417.01483,110.91084 v 10.64427 H 75.569624 V 110.91084 A 13.902169,13.902169 0 0 1 89.471784,97.008684 H 403.09742 a 13.905971,13.905971 0 0 1 13.91741,13.902156 z"
     fill="#65617d"
     id="path141"
     style="stroke-width:0.380152" />
  <circle
     cx="92.110039"
     cy="109.27998"
     r="4.9115672"
     fill="#fa5959"
     opacity="0.8"
     id="circle143"
     style="stroke-width:0.380152" />
  <circle
     cx="106.40756"
     cy="109.27998"
     r="4.9115672"
     fill="#fed253"
     opacity="0.8"
     id="circle145"
     style="stroke-width:0.380152" />
  <circle
     cx="120.70129"
     cy="109.27998"
     r="4.9115672"
     fill="#8ccf4d"
     opacity="0.8"
     id="circle147"
     style="stroke-width:0.380152" />
  <path
     d="m 409.43076,348.39958 -8.29872,-12.02423 c 0,0 -0.15586,-2.97659 -0.69948,-3.67226 -0.54362,-0.69568 -0.11405,-2.24671 -0.11405,-2.24671 0,0 0.58164,-0.85153 0.076,-0.92757 -0.5056,-0.076 -0.076,-1.97299 -0.076,-1.97299 l -0.0418,-3.0184 c 0,0 0.46759,-2.90057 0.0798,-3.59625 a 1.1404568,1.1404568 0 0 1 0.038,-1.23549 c 0,0 0.46378,-1.66507 0,-2.09083 -0.46379,-0.42579 -0.34974,-3.01842 -0.2319,-5.06744 0.11785,-2.04902 -0.81353,-3.20848 -0.81353,-3.5202 0,-0.31174 -3.06402,-3.32634 -3.06402,-3.59625 0,-0.26991 -1.93877,-1.39516 -3.10205,-1.70309 -1.16327,-0.30792 -1.74489,-0.53981 -1.70687,-0.69567 0.038,-0.15586 -1.82094,-0.7603 -1.82094,-0.7603 0,0 -1.63084,-0.11405 -2.2505,-0.92757 -0.61965,-0.81353 -2.51661,-1.04542 -2.56982,-1.05303 -0.0533,-0.007 -0.0266,-0.11024 -0.038,-0.16347 l -0.0342,-0.17486 c 0.14445,-0.24331 0.28131,-0.498 0.40295,-0.76031 l 0.11024,-0.2357 a 3.3073248,3.3073248 0 0 0 1.90077,-0.59302 2.6116462,2.6116462 0 0 0 0.92758,-1.85516 4.0562248,4.0562248 0 0 0 -0.45239,-2.06042 c -0.34213,-0.69948 -0.84014,-1.41797 -0.66906,-2.17447 0.076,-0.32693 0.26991,-0.61204 0.38015,-0.93137 a 2.4709898,2.4709898 0 0 0 -0.27752,-1.83234 c -0.29651,-0.56262 -0.70328,-1.05682 -1.03021,-1.60044 a 6.2801154,6.2801154 0 0 1 -0.82113,-2.28092 3.5316146,3.5316146 0 0 0 -0.30032,-1.23169 2.3455396,2.3455396 0 0 0 -0.68047,-0.68807 6.785718,6.785718 0 0 0 -4.18167,-1.2621 c -1.05684,0.0342 -2.10985,0.31932 -3.15907,0.19006 a 11.111851,11.111851 0 0 1 -1.83994,-0.48279 c -1.30011,-0.38015 -2.80172,-0.54361 -3.93457,0.20149 -1.13285,0.7451 -1.58144,2.20868 -2.34935,3.35294 -0.68046,1.01501 -1.67267,1.86275 -2.18967,2.93478 0,-0.019 0,-0.0418 0,-0.0608 a 3.6380573,3.6380573 0 0 0 -0.28891,0.7831 5.59204,5.59204 0 0 0 0.17107,2.56223 1.8019219,1.8019219 0 0 0 0.62724,1.14046 c 0.38015,0.2433 0.90856,0.18626 1.35714,0.26611 0,0.0723 -0.038,0.14445 -0.0532,0.22048 a 8.8499452,8.8499452 0 0 0 6.14706,10.32875 c 0,0.0798 0,0.15966 0,0.23568 a 5.3221319,5.3221319 0 0 1 -0.0418,0.66527 v 0 c 0,0 -3.89655,-0.80212 -4.94197,-0.2585 -1.04543,0.54361 -3.10205,0.96558 -3.42137,1.27731 -0.31933,0.31172 -1.08723,0.076 -1.78672,1.90075 -0.69948,1.82474 -0.7603,3.67608 -1.66506,4.52762 -0.90477,0.85155 -1.35714,1.42938 -1.39516,2.04902 -0.0381,0.61965 0.11405,0.76031 -0.2357,0.96559 -0.34974,0.20527 -0.85154,1.0074 -0.69568,1.31532 a 1.1062431,1.1062431 0 0 1 -0.42577,1.16327 1.2811131,1.2811131 0 0 0 -0.54362,1.14046 c 0,0 -0.23189,0.85154 -0.7603,1.04542 -0.52841,0.19388 -0.89336,1.46738 -0.89336,1.46738 l -1.7563,2.02242 -3.486,-3.85475 a 1.4749907,1.4749907 0 0 0 -2.07563,-0.10643 l -1.71069,1.52059 a 3.3909583,3.3909583 0 0 0 -1.71068,1.01883 4.4857969,4.4857969 0 0 0 -0.88956,1.31912 l -0.93517,0.84393 a 2.3797533,2.3797533 0 0 0 -0.2395,2.63066 l 2.2315,2.46718 v 0.0227 a 3.9421792,3.9421792 0 0 0 -2.11365,0.91617 c -3.33393,2.93858 -3.37575,5.64906 -2.87015,6.88455 0.5056,1.2355 4.72909,5.99881 4.72909,5.99881 0,0 2.45579,3.18948 5.99881,4.88876 v 0 l -0.0266,0.0266 c -0.0684,0.076 -0.14066,0.15585 -0.20909,0.24329 l -0.0571,0.0723 a 0.92377003,0.92377003 0 0 1 -0.0532,0.076 l -0.0608,0.0913 -0.0494,0.076 -0.0684,0.11406 -0.0417,0.0723 -0.0798,0.15207 c 0,0 -0.019,0.0303 -0.0266,0.0494 -0.007,0.019 -0.0647,0.13686 -0.095,0.20908 a 0.68427408,0.68427408 0 0 0 -0.0303,0.0798 c -0.0227,0.0494 -0.0418,0.10264 -0.0608,0.15206 l -0.0342,0.10263 c 0,0.0495 -0.0342,0.0989 -0.0494,0.14826 l -0.0342,0.11025 -0.0456,0.17108 c 0,0.0342 -0.019,0.0684 -0.0303,0.10263 -0.0114,0.0342 -0.0418,0.18247 -0.0608,0.27752 a 0.95038065,0.95038065 0 0 1 -0.019,0.11024 l -0.0342,0.20147 c 0,0.0456 0,0.0913 -0.019,0.14066 l -0.0227,0.19009 c 0,0.0494 0,0.0989 0,0.14826 0,0.0494 0,0.14445 0,0.22048 v 0.13686 c 0,0.12165 0,0.2433 0,0.38015 -0.0798,4.52761 0.18628,5.18527 0.18628,5.18527 a 2.509005,2.509005 0 0 0 2.05662,1.54342 2.6876766,2.6876766 0 0 0 0.66527,-0.0342 c 2.01481,-0.34973 6.7439,-1.16326 8.41277,-0.85154 1.00361,0.18628 2.85875,-0.0913 4.18167,-0.33833 l 0.34974,-0.0684 0.2433,0.76031 0.76031,-0.20909 0.65386,0.38015 c 0.17107,0.10263 0.31173,0.18248 0.41056,0.23571 0.76031,2.59643 3.86995,1.71068 3.86995,1.71068 l 0.7375,0.42576 7.48139,0.19389 a 15.179481,15.179481 0 0 0 2.66107,1.2697 2.4481806,2.4481806 0 0 0 0.38015,0.0837 17.513615,17.513615 0 0 0 2.08704,0.0381 c 0.57403,0 1.01501,-0.0381 1.01501,-0.0381 0,0 -0.076,-2.03382 -0.18248,-4.30713 a 60.965017,60.965017 0 0 0 6.93018,-0.56642 c 3.99539,-0.70329 5.66427,-4.33755 6.27631,-6.28012 a 18.072439,18.072439 0 0 1 0.38015,2.41016 17.954592,17.954592 0 0 0 0.61965,2.09084 7.0594279,7.0594279 0 0 0 0.85535,1.54722 c 2.94618,-1.0074 1.16326,-2.51661 0.54362,-3.17427 -0.61965,-0.65767 0.42576,-1.19748 0.42576,-1.19748 0,0 0.81353,-0.54362 0.7375,-1.04542 -0.076,-0.50179 -0.11784,-1.04542 2.52041,-1.0036 2.63826,0.0418 2.45578,-2.16687 2.45578,-2.16687 z m -40.9462,-24.7099 c 0.0342,0.22429 0.40297,2.60404 0.7337,3.23129 a 4.1284538,4.1284538 0 0 1 0.0874,1.27731 c -1.56243,-0.12545 -3.18949,-0.19387 -3.18949,-0.19387 a 0.38015227,0.38015227 0 0 1 0.0837,0.20147 l -0.24329,-0.0571 -0.35734,-0.0874 2.87774,-4.37555 z m -5.70228,9.07422 2.70668,0.42579 0.22429,0.038 a 9.5798373,9.5798373 0 0 0 -0.14065,1.27732 c 0,0.038 0.0647,0.0874 0.14826,0.14446 a 3.4213705,3.4213705 0 0 0 -0.0494,0.63865 c 0.0418,0.21289 1.30773,0.67667 2.7561,1.06062 -0.019,0.0798 -0.038,0.15208 -0.0608,0.2205 v 0 c -1.28111,-0.67287 -3.29592,-0.9884 -3.52782,-1.4864 -0.23189,-0.498 -7.09744,-2.88915 -7.09744,-2.88915 0,0 -0.2509,-0.13306 -0.68427,-0.34214 l 1.80952,0.34214 0.4942,-0.0494 a 26.850156,26.850156 0 0 0 3.42137,0.62726 z"
     fill="url(#b2e9a30e-d699-40a8-8c6a-b63a5f54a941)"
     id="path149"
     style="fill:url(#b2e9a30e-d699-40a8-8c6a-b63a5f54a941);stroke-width:0.380152" />
  <path
     d="m 400.60362,350.07984 c 0,0 -1.07583,6.49681 -6.53482,7.45479 -5.45897,0.95799 -23.67208,0.76031 -23.67208,0.76031 0,0 -10.41237,-1.52062 -14.17968,-10.30213 -3.76731,-8.78152 -6.18508,-12.29412 -2.95758,-12.44998 3.22749,-0.15587 20.63466,5.88095 21.63447,5.95698 0.99979,0.076 26.67148,-13.36235 25.70969,8.58003 z"
     fill="#65617d"
     id="path151"
     style="stroke-width:0.380152" />
  <path
     d="m 400.60362,350.07984 c 0,0 -1.07583,6.49681 -6.53482,7.45479 -5.45897,0.95799 -23.67208,0.76031 -23.67208,0.76031 0,0 -10.41237,-1.52062 -14.17968,-10.30213 -3.76731,-8.78152 -6.18508,-12.29412 -2.95758,-12.44998 3.22749,-0.15587 20.63466,5.88095 21.63447,5.95698 0.99979,0.076 26.67148,-13.36235 25.70969,8.58003 z"
     opacity="0.05"
     id="path153"
     style="stroke-width:0.380152" />
  <path
     d="m 351.75405,357.30654 a 2.4899974,2.4899974 0 0 0 2.03762,1.52061 2.6268522,2.6268522 0 0 0 0.65767,-0.0342 c 1.99959,-0.34594 6.68688,-1.14045 8.34054,-0.84394 0.99219,0.18248 2.83213,-0.0913 4.13986,-0.33833 0.87054,-0.16347 1.5206,-0.31552 1.5206,-0.31552 0,0 -1.53961,-5.11305 -1.72969,-5.26512 -0.19007,-0.15205 -6.91877,-4.18167 -6.91877,-4.18167 l -5.32214,-0.38015 v 0 a 2.8207299,2.8207299 0 0 0 -1.80572,1.06062 c -0.56262,0.68048 -1.04541,1.79812 -1.07582,3.62665 -0.10645,4.49721 0.15585,5.15107 0.15585,5.15107 z"
     fill="#3f3d56"
     id="path155"
     style="stroke-width:0.380152" />
  <path
     d="m 351.75405,357.30654 a 2.4899974,2.4899974 0 0 0 2.03762,1.52061 21.436786,21.436786 0 0 1 -1.44458,-2.10984 l 0.0266,-3.7255 a 6.5690315,6.5690315 0 0 1 2.09083,-5.53502 v 0 c 0,0 -2.80552,0.19008 -2.88155,4.68728 -0.076,4.49721 0.17106,5.16247 0.17106,5.16247 z"
     opacity="0.05"
     id="path157"
     style="stroke-width:0.380152" />
  <path
     d="m 374.85591,349.15987 4.94198,-3.88135 7.80072,-7.68668 c 0,0 -0.84013,-0.0418 -2.11364,-0.095 -0.31553,0.20148 -1.20128,0.83633 -1.23549,1.60424 -0.038,0.93896 -2.10605,0.0647 -3.18188,0.60444 -1.07583,0.53981 -6.34094,7.27611 -7.26471,7.22289 -0.92377,-0.0532 -1.65366,-0.46759 -2.03762,0.18628 l -0.0266,0.0417 z"
     opacity="0.1"
     id="path159"
     style="stroke-width:0.380152" />
  <path
     d="m 352.64361,348.54023 0.53981,0.24709 c 3.76352,1.61186 8.41278,4.99521 8.74352,5.61106 0.21288,0.38015 2.90816,2.0072 4.98759,3.23509 0.87055,-0.16346 1.5206,-0.31552 1.5206,-0.31552 0,0 -1.53961,-5.11305 -1.72968,-5.26512 -0.19008,-0.15205 -6.91878,-4.18166 -6.91878,-4.18166 l -5.32213,-0.38016 v 0 a 2.8207299,2.8207299 0 0 0 -1.82093,1.04922 z"
     opacity="0.1"
     id="path161"
     style="stroke-width:0.380152" />
  <path
     d="m 342.18942,337.51581 c 0.5018,1.2279 4.69108,5.95699 4.69108,5.95699 0,0 2.66107,3.45558 6.41697,5.07123 3.75591,1.61565 8.41657,4.99521 8.76252,5.61105 0.22048,0.38015 3.22369,2.20108 5.32213,3.44418 l 0.47518,0.27751 1.04923,0.60825 0.55502,0.31932 2.56603,-2.07184 c 1.26591,-1.0264 2.52422,-2.06041 2.54322,-2.11744 0.038,-0.11404 0.53981,-1.42177 0.42196,-1.4978 -0.0571,-0.0418 -0.32313,-0.57023 -0.80972,-1.18988 a 5.3943608,5.3943608 0 0 0 -1.95778,-1.61564 5.5768339,5.5768339 0 0 1 -2.53563,-2.66107 c 0,0 -0.16726,-0.12165 -0.42195,-0.2813 a 5.090239,5.090239 0 0 0 -1.7297,-0.76032 c -0.84394,-0.10643 -2.41777,-1.83613 -2.41777,-1.83613 a 4.7328959,4.7328959 0 0 1 -1.5016,-1.57383 c -0.40297,-0.84393 -6.36375,-4.94198 -6.91497,-5.32213 l 14.44578,9.27952 3.4556,2.22009 4.94197,-3.88136 7.80453,-7.68288 c 0,0 -1.04922,-0.0533 -2.57744,-0.11785 -3.80152,-0.16346 -10.52261,-0.42196 -11.37416,-0.22809 a 6.5348174,6.5348174 0 0 1 -2.11364,0.13685 c 0,0 -1.90076,0.0874 -3.18948,-0.58543 -1.28872,-0.67287 -3.26551,-0.98079 -3.49739,-1.47879 -0.2319,-0.498 -7.03282,-2.87776 -7.03282,-2.87776 0,0 -9.26052,-4.91916 -12.56784,-1.99959 -3.30732,2.91957 -3.30732,5.62245 -2.80933,6.85414 z"
     fill="#65617d"
     id="path163"
     style="stroke-width:0.380152" />
  <path
     d="m 372.05799,309.30851 1.18988,3.95739 1.5206,8.91457 5.64907,0.38015 1.63465,-2.71049 1.63086,-2.70668 c 0,0 1.01881,-3.60384 1.7487,-7.08604 0.64626,-3.08683 1.06822,-6.08243 0.38015,-6.40176 -0.62346,-0.28891 -1.03401,-1.32673 -1.30013,-2.44438 -0.0342,-0.13685 -0.0647,-0.27751 -0.0913,-0.41817 a 21.566038,21.566038 0 0 1 -0.38016,-2.86634 c 0,0 -11.83795,-0.61204 -10.18428,4.26911 a 7.7208924,7.7208924 0 0 1 0.44478,2.59263 6.1356579,6.1356579 0 0 1 -0.038,0.66146 5.5350172,5.5350172 0 0 1 -2.20489,3.85855 z"
     fill="#ee8e9e"
     id="path165"
     style="stroke-width:0.380152" />
  <path
     d="m 369.59081,308.65465 0.42196,6.72489 0.96178,5.7251 1.07584,2.66107 0.96178,14.51041 c 0,0 9.26431,1.07204 11.51862,-0.019 a 1.003602,1.003602 0 0 0 0.40676,-0.31933 c 2.70668,-4.12084 1.83233,-16.0082 1.83233,-16.0082 l 1.03782,-7.68289 -0.69188,-3.99159 -1.67267,-0.17487 -1.28872,-0.14066 c 0,0 -0.28891,0.35734 -0.70708,0.91237 -1.14046,1.52059 -3.2351,4.46298 -3.09444,5.70227 0.19009,1.69169 -0.23189,3.42138 -0.88575,3.69128 -0.65386,0.26992 -1.18988,0.72989 -1.30772,0.26611 a 2.094639,2.094639 0 0 1 -0.11406,-1.2279 c 0.11406,-0.65385 -0.49798,-2.66107 -0.49798,-2.66107 0,0 -1.03783,-2.34172 -0.9618,-3.34152 0.076,-0.9998 -0.11405,-2.15167 -0.42197,-2.42157 -0.30792,-0.26991 -0.72989,-0.53982 -0.38014,-1.76771 0.34973,-1.22789 -1.52062,-3.62286 -1.52062,-3.62286 z"
     fill="#e3e8f4"
     id="path167"
     style="stroke-width:0.380152" />
  <path
     d="m 381.8317,325.44978 0.38015,11.492 2.2201,1.22789 a 0.96558682,0.96558682 0 0 0 0.40676,-0.31552 c 2.72189,-4.11325 1.82853,-16.01581 1.82853,-16.01581 l 1.03782,-7.68668 -0.69189,-3.9878 -1.66885,-0.17868 c 0.64624,-3.08304 1.06822,-6.08243 0.38014,-6.40176 -0.62345,-0.28892 -1.03401,-1.32672 -1.30012,-2.44058 v 0 l -1.19747,8.12765 c 0,0 0.0989,0.73371 0.13305,1.4902 a 4.1816751,4.1816751 0 0 1 -0.095,1.42937 c -0.26992,0.69188 -0.076,1.92358 -0.076,1.92358 -0.69568,1.22029 -1.04163,3.48219 -1.20888,5.66426 -0.2357,2.91198 -0.14827,5.67188 -0.14827,5.67188 z"
     opacity="0.1"
     id="path169"
     style="stroke-width:0.380152" />
  <path
     d="m 384.44716,300.95657 c 0,0 1.93877,0.24329 2.55081,1.04922 0.61205,0.80593 2.23149,0.92377 2.23149,0.92377 0,0 1.84375,0.61204 1.80573,0.7603 -0.038,0.14826 0.53601,0.38015 1.69167,0.69188 1.15568,0.31173 3.07164,1.42177 3.07164,1.69168 0,0.2699 3.04121,3.26551 3.04121,3.57343 0,0.30793 0.92378,1.45978 0.80593,3.4974 -0.11785,2.03761 -0.22809,4.61124 0.2319,5.03321 0.45998,0.42198 0,2.07564 0,2.07564 a 1.1404568,1.1404568 0 0 0 -0.038,1.22789 c 0.38014,0.69188 -0.076,3.57343 -0.076,3.57343 l 0.0381,2.9994 c 0,0 -0.42198,1.90076 0.076,1.95779 0.498,0.0571 -0.076,0.92377 -0.076,0.92377 0,0 -0.42198,1.52061 0.11403,2.22769 0.53602,0.70708 0.69188,3.65327 0.69188,3.65327 l 8.22269,11.95198 c 0,0 0.11785,2.18968 -2.4976,2.15166 -2.61544,-0.0381 -2.57363,0.498 -2.4976,0.9998 0.076,0.5018 -0.7299,1.03402 -0.7299,1.03402 0,0 -1.03781,0.53981 -0.42196,1.19367 0.61585,0.65387 2.38356,2.15167 -0.53982,3.15146 a 7.0632295,7.0632295 0 0 1 -0.84393,-1.5206 17.331142,17.331142 0 0 1 -0.61585,-2.07184 c 0,0 -0.26991,-2.92337 -0.80592,-3.30731 -0.53602,-0.38396 -0.44858,-2.23911 -0.44858,-2.23911 0,0 0.7603,-1.49779 -0.30792,-2.11364 -1.06822,-0.61584 -16.68108,-9.26051 -16.68108,-9.26051 l -0.38016,-11.492 c 0,0 -0.26611,-8.49261 1.34573,-11.33614 0,0 -0.19006,-1.2317 0.076,-1.92357 0.26611,-0.69188 -0.0381,-2.91958 -0.0381,-2.91958 z"
     fill="#3f3d56"
     id="path171"
     style="stroke-width:0.380152" />
  <path
     d="m 374.37692,305.58303 c 0,0 -3.86234,-0.79453 -4.90016,-0.2585 -1.03782,0.536 -3.07544,0.96178 -3.38336,1.26969 -0.30793,0.30792 -1.07583,0.076 -1.7677,1.90077 -0.69189,1.82473 -0.76031,3.65327 -1.65367,4.4972 -0.89336,0.84395 -1.34193,1.42177 -1.37995,2.03762 -0.0381,0.61584 0.11405,0.76031 -0.2319,0.96178 -0.34594,0.20148 -0.84773,0.996 -0.69188,1.30393 0.15587,0.30792 7.9832,7.07083 7.9832,7.07083 0,0 0.38015,2.57743 0.7299,3.22749 0.34973,0.65006 -0.38015,9.64827 -1.14047,10.26412 -0.7603,0.61584 5.18909,0.55501 5.18909,0.55501 0,0 0.2699,-5.89995 0.50181,-6.20409 0.23189,-0.30411 -0.15588,-6.61084 -0.15588,-6.61084 0,0 -0.038,-5.37916 0.46,-6.80473 0.49799,-1.42557 0.44477,-6.14706 0.44477,-6.14706 0,0 0.44098,-2.83594 0.97699,-3.4974 0.53601,-0.66146 -0.98079,-3.56582 -0.98079,-3.56582 z"
     opacity="0.1"
     id="path173"
     style="stroke-width:0.380152" />
  <path
     d="m 374.26287,305.45377 c 0,0 -3.86615,-0.79832 -4.90396,-0.2585 -1.03781,0.53981 -3.07163,0.96178 -3.37955,1.2697 -0.30793,0.30793 -1.07584,0.076 -1.76772,1.88176 -0.69188,1.80573 -0.7603,3.64946 -1.65366,4.49719 -0.89335,0.84774 -1.34573,1.42178 -1.38375,2.03383 -0.038,0.61203 0.11785,0.76029 -0.22809,0.96178 -0.34595,0.20149 -0.84774,0.9998 -0.69188,1.30773 0.15586,0.30792 8.00221,7.06322 8.00221,7.06322 0,0 0.38015,2.57364 0.7299,3.22751 0.34973,0.65385 -0.38017,9.64445 -1.14047,10.26409 -0.7603,0.61966 5.16627,0.57404 5.16627,0.57404 0,0 0.26991,-5.89996 0.498,-6.20789 0.22809,-0.30792 -0.15206,-6.61085 -0.15206,-6.61085 0,0 -0.038,-5.37915 0.45998,-6.80092 0.498,-1.42177 0.44478,-6.14707 0.44478,-6.14707 0,0 0.44097,-2.83592 0.97699,-3.4974 0.53601,-0.66146 -0.97699,-3.55822 -0.97699,-3.55822 z"
     fill="#3f3d56"
     id="path175"
     style="stroke-width:0.380152" />
  <path
     d="m 373.85611,302.19967 a 7.7208924,7.7208924 0 0 1 0.44478,2.59264 8.8119302,8.8119302 0 0 0 10.11585,-3.99541 21.566038,21.566038 0 0 1 -0.38016,-2.86634 c 0,0 -11.83413,-0.61205 -10.18047,4.26911 z"
     opacity="0.1"
     id="path177"
     style="stroke-width:0.380152" />
  <path
     d="m 368.01697,296.12483 a 8.7891204,8.7891204 0 1 0 0.19008,-1.82853 8.7967241,8.7967241 0 0 0 -0.19008,1.82853 z"
     fill="#ee8e9e"
     id="path179"
     style="stroke-width:0.380152" />
  <path
     d="m 362.36791,316.49339 -2.09464,0.65387 a 1.0948385,1.0948385 0 0 1 -0.42578,1.14045 1.2887163,1.2887163 0 0 0 -0.536,1.14046 c 0,0 -0.23189,0.84774 -0.76031,1.0378 -0.52841,0.19009 -0.88575,1.46361 -0.88575,1.46361 l -1.76771,2.03379 c 0,0 -0.65387,0.53983 -0.53601,0.80974 0.11784,0.26991 -0.69188,0.34594 -0.69188,0.34594 l 0.42197,6.84274 3.64945,0.69187 2.28092,-0.23189 1.84373,-0.69187 1.61186,-0.95799 0.73369,-1.90076 3.22749,-4.91918 z"
     fill="#3f3d56"
     id="path181"
     style="stroke-width:0.380152" />
  <path
     d="m 355.17923,325.67787 c 0,0 -4.68728,-6.76291 -8.18468,-3.11344 -3.4974,3.64946 1.42177,9.56842 2.57363,9.37836 1.15186,-0.19009 6.64886,-0.50942 6.64886,-0.50942 z"
     fill="#ee8e9e"
     id="path183"
     style="stroke-width:0.380152" />
  <rect
     x="449.01691"
     y="120.99612"
     width="24.538832"
     height="19.053232"
     rx="0.58543444"
     transform="rotate(27.04)"
     fill="#3f3d56"
     id="rect185"
     style="stroke-width:0.380152" />
  <rect
     x="450.99146"
     y="122.71573"
     width="20.627062"
     height="15.544426"
     transform="rotate(27.04)"
     fill="#dc5c01"
     id="rect187"
     style="stroke-width:0.380152" />
  <circle
     cx="341.68384"
     cy="320.87274"
     r="0.33833551"
     fill="#e6e8ec"
     id="circle189"
     style="stroke-width:0.380152" />
  <circle
     cx="361.56961"
     cy="331.06082"
     r="0.55882382"
     fill="#e6e8ec"
     id="circle191"
     style="stroke-width:0.380152" />
  <path
     d="m 352.14562,327.09964 c -0.0381,5.07503 10.45038,6.14706 10.45038,6.14706 l 2.66107,0.42577 1.20128,0.19007 0.5018,-4.94198 c 0,0 -0.55122,-0.0798 -1.23929,-0.23948 -1.01502,-0.2395 -2.33034,-0.64626 -2.60405,-1.22029 -0.44478,-0.9694 -10.93318,-5.43238 -10.97119,-0.36115 z"
     fill="#ee8e9e"
     id="path193"
     style="stroke-width:0.380152" />
  <path
     d="m 368.20705,294.2963 a 1.0264111,1.0264111 0 0 1 0.64246,0.28891 c 0.30031,0.31553 0.31552,0.87056 0.69948,1.06443 a 0.76030453,0.76030453 0 0 0 0.45998,0.0533 c 1.02261,-0.14446 1.61185,-1.29632 2.59264,-1.61565 a 2.6610659,2.6610659 0 0 1 1.72208,0.14827 1.2735101,1.2735101 0 0 1 0.56643,0.38014 c 0.33074,0.42578 0.0989,1.05303 0.25091,1.56623 0.21288,0.71469 1.06443,0.996 1.80192,1.09103 0.73749,0.095 1.57002,0.14447 2.06041,0.69949 a 1.8779522,1.8779522 0 0 1 0.38017,1.4902 1.1594645,1.1594645 0 0 0 0,0.54741 c 0.20527,0.57783 1.20127,0.49039 1.46358,0.038 0.19007,-0.33073 0.12925,-0.60824 0.57783,-0.69948 a 1.9235705,1.9235705 0 0 1 0.94278,0.16347 6.8731533,6.8731533 0 0 0 2.43297,0.38015 8.8005252,8.8005252 0 1 0 -16.57464,-5.57304 z"
     opacity="0.1"
     id="path195"
     style="stroke-width:0.380152" />
  <path
     d="m 379.36452,299.76669 a 1.1746705,1.1746705 0 0 1 0,-0.55123 1.8741507,1.8741507 0 0 0 -0.38016,-1.48639 c -0.49039,-0.55883 -1.32293,-0.61203 -2.06042,-0.70328 -0.7375,-0.0913 -1.58904,-0.38015 -1.80192,-1.09103 -0.15206,-0.51321 0.0798,-1.14046 -0.2509,-1.56242 a 1.2126858,1.2126858 0 0 0 -0.56643,-0.38015 2.5964401,2.5964401 0 0 0 -1.72209,-0.14827 c -0.9808,0.31553 -1.57003,1.47119 -2.59264,1.61564 a 0.82493043,0.82493043 0 0 1 -0.45999,-0.0532 c -0.38015,-0.19388 -0.40296,-0.76032 -0.69947,-1.06824 -0.46378,-0.49419 -1.34954,-0.17486 -1.92358,-0.53981 a 1.7791127,1.7791127 0 0 1 -0.61964,-1.14046 5.5768339,5.5768339 0 0 1 -0.17107,-2.54701 c 0.33453,-1.42938 1.61185,-2.41018 2.42916,-3.63047 0.76032,-1.14045 1.18609,-2.57743 2.33034,-3.33013 1.14427,-0.7527 2.60785,-0.58163 3.89657,-0.20147 a 11.404568,11.404568 0 0 0 1.82473,0.47898 c 1.04161,0.12926 2.08324,-0.15586 3.12865,-0.19007 a 6.7286952,6.7286952 0 0 1 4.13225,1.25451 2.3075243,2.3075243 0 0 1 0.67288,0.68426 3.4897979,3.4897979 0 0 1 0.30032,1.22029 6.2497035,6.2497035 0 0 0 0.80973,2.2505 c 0.32311,0.53983 0.72987,1.03022 1.02261,1.58904 a 2.4595852,2.4595852 0 0 1 0.2737,1.82094 c -0.0989,0.31552 -0.29272,0.60063 -0.38016,0.92377 -0.17106,0.7603 0.32314,1.46738 0.66147,2.15925 a 4.1094461,4.1094461 0 0 1 0.44858,2.04903 2.5812339,2.5812339 0 0 1 -0.92377,1.84373 3.2959202,3.2959202 0 0 1 -1.94638,0.58925 6.8883596,6.8883596 0 0 1 -2.48239,-0.38017 1.9615857,1.9615857 0 0 0 -0.93898,-0.16345 c -0.44858,0.095 -0.38015,0.38014 -0.58163,0.69948 -0.22809,0.48279 -1.2241,0.56262 -1.42937,-0.0114 z"
     fill="#3f3d56"
     id="path197"
     style="stroke-width:0.380152" />
  <path
     d="m 374.62402,349.38797 4.94198,-3.88135 7.80452,-7.68289 c 0,0 -1.04922,-0.0532 -2.57743,-0.11784 a 1.7030822,1.7030822 0 0 0 -0.54361,1.04922 c -0.038,0.93898 -2.10605,0.0647 -3.18188,0.60445 -1.07583,0.53981 -6.34094,7.27611 -7.26471,7.22288 -0.92377,-0.0532 -1.65366,-0.46758 -2.03762,0.18628 l -0.0266,0.0418 a 1.1024417,1.1024417 0 0 1 -0.58543,0.34974 z"
     opacity="0.1"
     id="path199"
     style="stroke-width:0.380152" />
  <path
     d="m 364.63362,349.12186 2.48239,7.94899 0.38015,1.25069 1.18607,-0.32693 2.61546,-0.71848 11.64786,-3.19708 a 10.123455,10.123455 0 0 0 4.18168,-1.14046 12.70469,12.70469 0 0 1 7.2229,-1.57764 c 1.52059,0.14447 3.25029,-0.5208 4.67206,-3.14385 0,0 3.22749,-9.53042 -4.91917,-12.25991 -8.14666,-2.7295 -8.53822,1.45218 -8.53822,1.45218 l -0.11024,0.0684 c -0.31554,0.20147 -1.20129,0.83634 -1.2355,1.60424 -0.038,0.93897 -2.10604,0.0647 -3.18188,0.60444 -1.07582,0.53981 -6.34094,7.27611 -7.2647,7.22289 -0.92377,-0.0532 -1.65367,-0.46758 -2.03763,0.18628 l -0.0266,0.0418 c -0.28511,0.38015 -1.14046,0.4828 -1.70689,0.50181 -0.30793,0 -0.53221,0 -0.53221,0 l -0.0723,0.0227 -0.59304,0.17487 z"
     fill="#65617d"
     id="path201"
     style="stroke-width:0.380152" />
  <path
     d="m 365.27608,333.67247 1.20128,0.19007 0.5018,-4.94198 c 0,0 -0.55123,-0.0798 -1.2393,-0.23948 0.18246,0.67667 -0.22809,3.34913 -0.46378,4.99139 z"
     opacity="0.1"
     id="path203"
     style="stroke-width:0.380152" />
  <path
     d="m 396.70327,310.525 c 0,0 3.57343,-1.03781 2.68766,9.12366 -0.88575,10.16147 -7.4928,16.56323 -7.4928,16.56323 0,0 -7.60304,3.34154 -11.02441,2.80552 -3.42137,-0.53601 -5.91897,-0.65385 -5.91897,-0.65385 a 8.6750752,8.6750752 0 0 0 -3.45939,-0.92377 c -1.90076,-0.076 -5.95699,-1.26591 -6.03301,-1.65367 -0.076,-0.38776 0.9998,-6.03301 0.53601,-6.46259 0,0 5.38296,0.22048 5.91898,0.61205 0.536,0.39155 1.30772,0.11025 1.90075,0 0.59304,-0.11025 2.34174,-1.64986 5.83914,-0.30413 0,0 1.19368,0.11405 1.65366,-0.19007 a 1.6536624,1.6536624 0 0 1 1.20129,-0.0798 3.3491415,3.3491415 0 0 0 0.83633,-0.42196 c 0.11406,-0.15206 1.03783,0 1.03783,0 a 0.40676293,0.40676293 0 0 0 0.57402,-0.26991 2.5394172,2.5394172 0 0 1 0.53982,-0.84394 c 0,0 1.03781,-5.84294 2.9956,-8.03262 a 1.2430979,1.2430979 0 0 0 0.42196,-1.11384 c -0.17106,-0.63866 3.17047,-9.40116 7.78553,-8.15426 z"
     opacity="0.1"
     id="path205"
     style="stroke-width:0.380152" />
  <path
     d="m 396.60822,309.73048 c 0,0 3.57344,-1.03781 2.68768,9.12366 -0.88576,10.16146 -7.4928,16.56323 -7.4928,16.56323 0,0 -7.60304,3.34154 -11.02443,2.80552 -3.42136,-0.53602 -5.91896,-0.65386 -5.91896,-0.65386 a 8.6522655,8.6522655 0 0 0 -3.45938,-0.92377 c -1.90076,-0.076 -5.95699,-1.2659 -6.03302,-1.65366 -0.076,-0.38775 0.9998,-6.03302 0.53982,-6.46259 0,0 5.37915,0.22049 5.91516,0.61205 0.53602,0.39155 1.30773,0.11024 1.90077,0 0.59303,-0.11025 2.34173,-1.64987 5.83913,-0.30412 0,0 1.19369,0.11404 1.65367,-0.19388 a 1.665067,1.665067 0 0 1 1.20127,-0.076 3.3491415,3.3491415 0 0 0 0.83633,-0.42197 c 0.11405,-0.15207 1.03783,0 1.03783,0 a 0.40676293,0.40676293 0 0 0 0.57403,-0.26991 2.5394172,2.5394172 0 0 1 0.53982,-0.84395 c 0,0 1.03781,-5.84292 2.9956,-8.0326 a 1.250701,1.250701 0 0 0 0.42576,-1.11385 c -0.17487,-0.62345 3.17048,-9.38596 7.78172,-8.15427 z"
     fill="#3f3d56"
     id="path207"
     style="stroke-width:0.380152" />
  <path
     d="m 368.84951,347.85595 5.07883,6.14327 0.0304,-0.0342 c 0.038,-0.11785 0.53601,-1.42557 0.42196,-1.5016 -0.11404,-0.076 -0.99979,-1.99961 -2.76751,-2.80552 a 5.2156893,5.2156893 0 0 1 -2.17067,-1.9768 z"
     opacity="0.1"
     id="path209"
     style="stroke-width:0.380152" />
  <path
     d="m 368.92174,358.48502 0.55502,0.31932 2.56603,-2.07184 c 1.2659,-1.0264 2.52421,-2.06041 2.54321,-2.11744 0.038,-0.11404 0.53982,-1.42177 0.42198,-1.4978 -0.0571,-0.0418 -0.32314,-0.57023 -0.80973,-1.18988 -3.42137,-0.96177 -1.2469,1.42558 -0.95799,1.52061 0,0 -4.18167,-0.96178 -4.41736,3.60005 a 5.4133685,5.4133685 0 0 0 0.0989,1.43698 z"
     opacity="0.1"
     id="path211"
     style="stroke-width:0.380152" />
  <path
     d="m 373.16423,360.41998 0.72989,0.42198 7.41677,0.19007 a 15.027419,15.027419 0 0 0 2.62686,1.26591 2.2809136,2.2809136 0 0 0 0.38015,0.0798 16.437784,16.437784 0 0 0 2.06803,0.038 c 0.56642,0 1.0074,-0.038 1.0074,-0.038 0,0 -0.35354,-9.35175 -0.61585,-10.33634 -0.12924,-0.47139 -0.7603,-0.38015 -1.36094,-0.13305 a 9.0742344,9.0742344 0 0 0 -1.33053,0.67286 c 0,0 -3.15146,0.30414 -3.64947,0.57783 -0.49799,0.27372 -1.92357,-0.15585 -2.80551,0 -0.88197,0.15587 -2.45959,-1.04161 -2.45959,-1.04161 -4.30333,-1.42177 -1.90076,1.2317 -1.57763,1.34574 0,0 -4.18168,-0.96178 -4.41738,3.60004 -0.23569,4.56183 3.9878,3.35674 3.9878,3.35674 z"
     fill="#3f3d56"
     id="path213"
     style="stroke-width:0.380152" />
  <path
     d="m 383.88452,356.80474 c 0.0836,1.93878 1.59285,4.34134 2.4938,5.61104 0.56643,0 1.00741,-0.038 1.00741,-0.038 0,0 -0.35354,-9.35175 -0.61585,-10.33634 -0.12926,-0.47138 -0.7603,-0.38015 -1.36095,-0.13305 -0.74509,1.39516 -1.56622,3.33774 -1.52441,4.89636 z"
     fill="#565387"
     id="path215"
     style="stroke-width:0.380152" />
  <path
     d="m 383.88452,356.80474 c 0.0836,1.93878 1.59285,4.34134 2.4938,5.61104 0.56643,0 1.00741,-0.038 1.00741,-0.038 0,0 -0.35354,-9.35175 -0.61585,-10.33634 -0.12926,-0.47138 -0.7603,-0.38015 -1.36095,-0.13305 -0.74509,1.39516 -1.56622,3.33774 -1.52441,4.89636 z"
     opacity="0.1"
     id="path217"
     style="stroke-width:0.380152" />
  <path
     d="m 382.61862,357.06325 c 0.50941,1.87035 0.5056,3.96499 1.31913,5.23469 a 2.2809136,2.2809136 0 0 0 0.38015,0.0798 16.437784,16.437784 0 0 0 2.06803,0.038 c 0.56642,0 1.0074,-0.038 1.0074,-0.038 0,0 -0.35354,-9.35175 -0.61585,-10.33634 -0.12924,-0.47139 -0.7603,-0.38015 -1.36094,-0.13305 a 9.0742344,9.0742344 0 0 0 -1.33053,0.67286 c 0,0 -2.12125,2.08704 -1.46739,4.482 z"
     opacity="0.05"
     id="path219"
     style="stroke-width:0.380152" />
  <path
     d="m 357.03057,338.10125 c 0,0 3.68367,1.19748 6.80473,5.44758 z"
     opacity="0.1"
     id="path221"
     style="stroke-width:0.380152" />
  <g
     opacity="0.1"
     id="g227"
     transform="matrix(0.38015227,0,0,0.38015227,36.619219,60.179529)">
    <path
       d="m 976.22,662.24 -0.06,0.22 a 6.71,6.71 0 0 1 -0.34,0.84 6.78,6.78 0 0 1 0.4,-1.06 z"
       transform="translate(-54.62,-52.46)"
       id="path223" />
    <path
       d="m 921.39,657.34 a 9.38,9.38 0 0 1 0.75,-2 c 0,0.17 -0.1,0.34 -0.14,0.52 a 14.45,14.45 0 0 0 0.45,6.71 4.64,4.64 0 0 0 1.63,3 c 1.5,1 3.83,0.13 5.06,1.43 0.78,0.82 0.82,2.29 1.84,2.8 a 2.08,2.08 0 0 0 1.21,0.14 c 2.68,-0.38 4.24,-3.42 6.82,-4.25 a 6.8,6.8 0 0 1 4.52,0.39 3.44,3.44 0 0 1 1.5,1 c 0.86,1.12 0.26,2.76 0.66,4.12 0.55,1.87 2.79,2.62 4.73,2.86 1.94,0.24 4.13,0.39 5.43,1.85 a 5,5 0 0 1 1,3.91 3,3 0 0 0 0,1.45 c 0.53,1.52 3.15,1.29 3.84,0.09 0.5,-0.87 0.35,-1.59 1.53,-1.83 a 4.91,4.91 0 0 1 2.47,0.43 18.37,18.37 0 0 0 6.53,1 8.78,8.78 0 0 0 5.13,-1.56 5.81,5.81 0 0 0 1.57,-1.91 6.43,6.43 0 0 1 -2.18,3.43 8.69,8.69 0 0 1 -5.12,1.55 18.12,18.12 0 0 1 -6.53,-1 5.18,5.18 0 0 0 -2.48,-0.43 c -1.18,0.25 -1,1 -1.53,1.84 -0.68,1.2 -3.3,1.42 -3.84,-0.09 a 3.23,3.23 0 0 1 0,-1.45 4.89,4.89 0 0 0 -1,-3.91 c -1.29,-1.47 -3.48,-1.61 -5.42,-1.85 -1.94,-0.24 -4.18,-1 -4.74,-2.87 -0.4,-1.35 0.21,-3 -0.66,-4.11 a 3.24,3.24 0 0 0 -1.49,-1 6.83,6.83 0 0 0 -4.53,-0.39 c -2.58,0.83 -4.14,3.87 -6.82,4.25 a 2.17,2.17 0 0 1 -1.21,-0.14 c -1,-0.51 -1.06,-2 -1.84,-2.81 -1.23,-1.3 -3.55,-0.46 -5.06,-1.42 a 4.64,4.64 0 0 1 -1.63,-3 14.53,14.53 0 0 1 -0.45,-6.75 z"
       transform="translate(-54.62,-52.46)"
       id="path225" />
  </g>
  <path
     d="m 387.56441,320.88414 c -0.70709,0.95039 -1.52062,1.82854 -2.13266,2.83594 a 5.3829563,5.3829563 0 0 0 -0.93517,3.35295 c 0.64624,-0.66147 0.94277,-1.57383 1.34953,-2.40257 0.68808,-1.40656 1.71449,-2.59643 2.58504,-3.88895 0.16346,-0.24709 1.22409,-1.67267 0.68807,-1.7373 -0.44477,-0.0571 -1.31533,1.51681 -1.55481,1.83993 z"
     opacity="0.1"
     id="path229"
     style="stroke-width:0.380152" />
  <path
     d="m 145.58988,197.13318 h -31.45001 a 1.0492203,1.0492203 0 1 0 0,2.09464 h 31.45001 a 1.0492203,1.0492203 0 1 0 0,-2.09464 z m 0,3.59245 h -31.45001 a 1.0492203,1.0492203 0 0 0 0,2.09843 h 31.45001 a 1.0492203,1.0492203 0 0 0 0,-2.09843 z m -1.57765,-24.24612 h -28.29092 a 2.6344552,2.6344552 0 0 0 -2.63067,2.62685 v 13.30532 a 2.6344552,2.6344552 0 0 0 2.63067,2.62686 h 28.29092 a 2.6344552,2.6344552 0 0 0 2.62687,-2.62686 v -13.30532 a 2.6344552,2.6344552 0 0 0 -2.62687,-2.62685 z m -24.78212,16.17548 h -2.69528 a 1.049225,1.049225 0 0 1 0,-2.09845 h 2.69528 a 1.049225,1.049225 0 0 1 0,2.09845 z m 0,-11.68208 h -2.69528 a 1.049225,1.049225 0 0 1 0,-2.09845 h 2.69528 a 1.049225,1.049225 0 0 1 0,2.09845 z m 10.64427,10.78112 a 5.9911998,5.9911998 0 1 1 5.9912,-5.9912 5.9988029,5.9988029 0 0 1 -5.9988,5.9912 z m 13.33195,0.90096 h -2.69528 a 1.049225,1.049225 0 0 1 0,-2.09845 h 2.69528 a 1.049225,1.049225 0 0 1 0,2.09845 z m 0,-11.68208 h -2.69528 a 1.049225,1.049225 0 0 1 0,-2.09845 h 2.69528 a 1.049225,1.049225 0 0 1 0,2.09845 z"
     fill="#ffffff"
     id="path231"
     style="stroke-width:0.380152" />
  <circle
     cx="129.86682"
     cy="185.9073"
     r="3.9687898"
     fill="#ffffff"
     id="circle233"
     style="stroke-width:0.380152" />
  <rect
     x="189.9879"
     y="150.00191"
     width="142.81941"
     height="79.29216"
     fill="#dc5c01"
     opacity="0.2"
     id="rect235"
     style="stroke-width:0.380152" />
  <rect
     x="189.9879"
     y="247.03197"
     width="142.81941"
     height="79.29216"
     fill="#dc5c01"
     opacity="0.2"
     id="rect237"
     style="stroke-width:0.380152" />
  <rect
     x="218.07353"
     y="205.21523"
     width="4.3223314"
     height="14.483801"
     fill="#ffffff"
     id="rect239"
     style="stroke-width:0.380152" />
  <rect
     x="226.30386"
     y="187.28345"
     width="4.3223314"
     height="32.415585"
     fill="#ffffff"
     id="rect241"
     style="stroke-width:0.380152" />
  <rect
     x="234.53793"
     y="171.12698"
     width="4.3223314"
     height="48.572056"
     fill="#dfe3ef"
     id="rect243"
     style="stroke-width:0.380152" />
  <rect
     x="242.772"
     y="159.60075"
     width="4.3223314"
     height="60.098278"
     fill="#ffffff"
     id="rect245"
     style="stroke-width:0.380152" />
  <rect
     x="234.53793"
     y="159.60075"
     width="4.3223314"
     height="60.098278"
     fill="#dc5c01"
     id="rect247"
     style="stroke-width:0.380152" />
  <rect
     x="251.00233"
     y="186.6638"
     width="4.3223314"
     height="33.035233"
     fill="#dc5c01"
     id="rect249"
     style="stroke-width:0.380152" />
  <rect
     x="259.23639"
     y="178.1256"
     width="4.3223314"
     height="41.573452"
     fill="#dc5c01"
     opacity="0.2"
     id="rect251"
     style="stroke-width:0.380152" />
  <rect
     x="267.46674"
     y="165.1586"
     width="4.3223314"
     height="54.540447"
     fill="#dc5c01"
     id="rect253"
     style="stroke-width:0.380152" />
  <rect
     x="275.70081"
     y="195.4111"
     width="4.3223314"
     height="24.28793"
     fill="#dc5c01"
     opacity="0.2"
     id="rect255"
     style="stroke-width:0.380152" />
  <rect
     x="283.93491"
     y="184.19661"
     width="4.3223314"
     height="35.502422"
     fill="#dc5c01"
     id="rect257"
     style="stroke-width:0.380152" />
  <rect
     x="292.16519"
     y="171.12698"
     width="4.3223314"
     height="48.572056"
     fill="#dc5c01"
     opacity="0.2"
     id="rect259"
     style="stroke-width:0.380152" />
  <rect
     x="300.39932"
     y="171.12698"
     width="4.3223314"
     height="48.572056"
     fill="#dc5c01"
     id="rect261"
     style="stroke-width:0.380152" />
  <path
     d="m 146.62769,277.0906 a 2.4025624,2.4025624 0 0 0 -2.39496,-2.39495 h -28.74332 a 2.4063639,2.4063639 0 0 0 -2.39877,2.39495 v 3.59625 h 33.53705 z m -33.54845,19.17109 a 2.4063639,2.4063639 0 0 0 2.39877,2.39876 h 28.75472 a 2.4025624,2.4025624 0 0 0 2.39496,-2.39876 V 284.2945 h -33.53705 z m 10.64427,-3.59244 h 12.28272 a 1.0492203,1.0492203 0 1 1 0,2.09464 h -12.28272 a 1.0492203,1.0492203 0 0 1 0,-2.09464 z m -5.39055,0 h 0.89715 a 1.0492203,1.0492203 0 1 1 0,2.09464 h -0.89715 a 1.0492203,1.0492203 0 1 1 0,-2.09464 z"
     fill="#ffffff"
     id="path263"
     style="stroke-width:0.380152" />
  <rect
     x="218.07353"
     y="302.24146"
     width="4.3223314"
     height="14.483801"
     fill="#ffffff"
     id="rect265"
     style="stroke-width:0.380152" />
  <rect
     x="226.30386"
     y="284.30966"
     width="4.3223314"
     height="32.415585"
     fill="#ffffff"
     id="rect267"
     style="stroke-width:0.380152" />
  <rect
     x="234.53793"
     y="268.1532"
     width="4.3223314"
     height="48.572056"
     fill="#dfe3ef"
     id="rect269"
     style="stroke-width:0.380152" />
  <rect
     x="242.772"
     y="256.62701"
     width="4.3223314"
     height="60.098278"
     fill="#ffffff"
     id="rect271"
     style="stroke-width:0.380152" />
  <rect
     x="234.53793"
     y="256.62701"
     width="4.3223314"
     height="60.098278"
     fill="#dc5c01"
     id="rect273"
     style="stroke-width:0.380152" />
  <rect
     x="251.00233"
     y="283.69"
     width="4.3223314"
     height="33.035233"
     fill="#dc5c01"
     id="rect275"
     style="stroke-width:0.380152" />
  <rect
     x="259.23639"
     y="275.15182"
     width="4.3223314"
     height="41.573452"
     fill="#ffffff"
     id="rect277"
     style="stroke-width:0.380152" />
  <rect
     x="267.46674"
     y="262.18481"
     width="4.3223314"
     height="54.540447"
     fill="#ffffff"
     id="rect279"
     style="stroke-width:0.380152" />
  <rect
     x="275.70081"
     y="292.43735"
     width="4.3223314"
     height="24.28793"
     fill="#dc5c01"
     opacity="0.2"
     id="rect281"
     style="stroke-width:0.380152" />
  <rect
     x="283.93491"
     y="281.22284"
     width="4.3223314"
     height="35.502422"
     fill="#dc5c01"
     opacity="0.2"
     id="rect283"
     style="stroke-width:0.380152" />
  <rect
     x="292.16519"
     y="268.1532"
     width="4.3223314"
     height="48.572056"
     fill="#dc5c01"
     opacity="0.2"
     id="rect285"
     style="stroke-width:0.380152" />
  <rect
     x="300.39932"
     y="268.1532"
     width="4.3223314"
     height="48.572056"
     fill="#dc5c01"
     opacity="0.2"
     id="rect287"
     style="stroke-width:0.380152" />
  <text
     xml:space="preserve"
     id="text294"
     style="font-style:normal;font-weight:normal;font-size:48px;line-height:1.25;font-family:sans-serif;white-space:pre;shape-inside:url(#rect296);fill:#333333;fill-opacity:1;stroke:none;"
     transform="translate(107.81985,375.79926)"><tspan
       x="47.105469"
       y="118.11412"><tspan
         style="font-style:normal;font-variant:normal;font-weight:bold;font-stretch:normal;font-family:Lora;-inkscape-font-specification:'Lora Bold';fill:#333333">Sales 
</tspan></tspan><tspan
       x="47.105469"
       y="178.18098"><tspan
         style="font-style:normal;font-variant:normal;font-weight:bold;font-stretch:normal;font-family:Lora;-inkscape-font-specification:'Lora Bold';fill:#333333">as a
</tspan></tspan><tspan
       x="47.105469"
       y="238.24785"><tspan
         style="font-style:normal;font-variant:normal;font-weight:bold;font-stretch:normal;font-family:Lora;-inkscape-font-specification:'Lora Bold';fill:#333333">Service</tspan></tspan></text>
</svg>
