<?xml version="1.0" encoding="UTF-8" standalone="no"?>
<svg
   xmlns:dc="http://purl.org/dc/elements/1.1/"
   xmlns:cc="http://creativecommons.org/ns#"
   xmlns:rdf="http://www.w3.org/1999/02/22-rdf-syntax-ns#"
   xmlns:svg="http://www.w3.org/2000/svg"
   xmlns="http://www.w3.org/2000/svg"
   xmlns:sodipodi="http://sodipodi.sourceforge.net/DTD/sodipodi-0.dtd"
   xmlns:inkscape="http://www.inkscape.org/namespaces/inkscape"
   id="f885adbf-893a-4cbc-9f2f-51541a368feb"
   data-name="Layer 1"
   width="1090.76"
   height="795.07"
   viewBox="0 0 1090.76 795.07"
   version="1.1"
   sodipodi:docname="saas.svg"
   inkscape:version="1.0.1 (3bc2e813f5, 2020-09-07)">
  <metadata
     id="metadata292">
    <rdf:RDF>
      <cc:Work
         rdf:about="">
        <dc:format>image/svg+xml</dc:format>
        <dc:type
           rdf:resource="http://purl.org/dc/dcmitype/StillImage" />
      </cc:Work>
    </rdf:RDF>
  </metadata>
  <sodipodi:namedview
     pagecolor="#ffffff"
     bordercolor="#666666"
     borderopacity="1"
     objecttolerance="10"
     gridtolerance="10"
     guidetolerance="10"
     inkscape:pageopacity="0"
     inkscape:pageshadow="2"
     inkscape:window-width="1920"
     inkscape:window-height="1009"
     id="namedview290"
     showgrid="false"
     inkscape:zoom="0.95529722"
     inkscape:cx="545.38"
     inkscape:cy="297.10118"
     inkscape:window-x="-8"
     inkscape:window-y="-8"
     inkscape:window-maximized="1"
     inkscape:current-layer="f885adbf-893a-4cbc-9f2f-51541a368feb"
     inkscape:document-rotation="0" />
  <defs
     id="defs9">
    <rect
       x="47.105759"
       y="74.322419"
       width="353.81659"
       height="329.74031"
       id="rect296" />
    <linearGradient
       id="b2e9a30e-d699-40a8-8c6a-b63a5f54a941"
       x1="946.56"
       y1="846.78"
       x2="946.56"
       y2="635.52"
       gradientUnits="userSpaceOnUse"
       gradientTransform="matrix(0.51405226,0,0,0.51405226,432.49752,-21.631669)">
      <stop
         offset="0"
         stop-color="gray"
         stop-opacity="0.25"
         id="stop2" />
      <stop
         offset="0.54"
         stop-color="gray"
         stop-opacity="0.12"
         id="stop4" />
      <stop
         offset="1"
         stop-color="gray"
         stop-opacity="0.1"
         id="stop6" />
    </linearGradient>
  </defs>
  <title
     id="title11">revenue</title>
  <path
     d="m 557.17062,387.07586 c 0,0 6.84204,-4.51338 13.62239,-1.30055 0,0 -2.08705,4.01989 -10.67173,3.63949 z"
     fill="#dc5c01"
     id="path67"
     style="stroke-width:0.514052" />
  <path
     d="m 556.33271,387.31747 c 0,0 -2.0819,7.94725 3.13573,13.31909 0,0 3.14086,-3.26937 0.0257,-11.27316 z"
     fill="#dc5c01"
     id="path69"
     style="stroke-width:0.514052" />
  <path
     d="m 547.79945,379.70949 c 0,0 0.51405,-6.74436 15.73,-4.50823 0,0 0.072,4.34887 -5.27418,6.41023 -5.34614,2.06135 -7.78789,0.32385 -10.45582,-1.902 z"
     fill="#dc5c01"
     id="path71"
     style="stroke-width:0.514052" />
  <path
     d="m 546.86388,379.66323 c 0,0 -6.43594,2.05621 -0.69911,16.34172 0,0 4.24607,-0.94585 4.99658,-6.62613 0.75052,-5.68028 -1.50618,-7.6491 -4.29747,-9.71559 z"
     fill="#dc5c01"
     id="path73"
     style="stroke-width:0.514052" />
  <path
     d="m 538.24322,370.07616 c 0,0 -0.86875,-11.09325 14.68648,-9.95206 0,0 1.1052,10.03945 -11.93631,12.61999 z"
     fill="#dc5c01"
     id="path75"
     style="stroke-width:0.514052" />
  <path
     d="m 527.96731,357.57441 c 0,0 2.12817,-12.56858 17.67826,-8.82115 0,0 0.0617,10.86707 -15.14398,11.82321 z"
     fill="#dc5c01"
     id="path77"
     style="stroke-width:0.514052" />
  <path
     d="m 520.45187,344.63057 c 0,0 3.59836,-12.27557 18.9788,-8.57953 0,0 -3.66518,11.01099 -17.95584,10.84136 z"
     fill="#dc5c01"
     id="path79"
     style="stroke-width:0.514052" />
  <path
     d="m 513.31682,331.98488 c 0,0 3.49041,-12.70737 18.36195,-8.8931 0,0 -4.96575,12.07509 -17.38525,11.05726 z"
     fill="#dc5c01"
     id="path81"
     style="stroke-width:0.514052" />
  <path
     d="m 508.71605,319.97148 c 0,0 2.68336,-15.5398 16.55248,-12.10079 0,0 -4.03016,14.13643 -15.52951,14.36262 z"
     fill="#dc5c01"
     id="path83"
     style="stroke-width:0.514052" />
  <path
     d="m 504.40315,305.45978 c 0,0 3.22311,-15.66317 17.24132,-11.10867 0,0 -5.5055,14.80471 -16.26462,13.27284 z"
     fill="#dc5c01"
     id="path85"
     style="stroke-width:0.514052" />
  <path
     d="m 501.73522,291.94021 c 0,0 5.10968,-15.66831 15.96132,-15.24165 0,0 -5.22791,16.54735 -15.05659,18.38251 z"
     fill="#dc5c01"
     id="path87"
     style="stroke-width:0.514052" />
  <path
     d="m 500.03885,278.77533 c 0,0 5.56205,-18.86057 14.39346,-17.40067 0,0 -3.85025,14.39347 -14.07989,20.34105 z"
     fill="#dc5c01"
     id="path89"
     style="stroke-width:0.514052" />
  <path
     d="m 499.07243,263.03505 c 0,0 5.21763,-15.71457 13.93596,-16.33144 0,0 -3.5521,15.46269 -13.74062,20.4233 z"
     fill="#dc5c01"
     id="path91"
     style="stroke-width:0.514052" />
  <path
     d="m 498.01863,248.37942 c 0,0 6.5079,-15.73514 12.26528,-16.08983 0,0 -2.82215,15.49353 -11.68955,18.67037 z"
     fill="#dc5c01"
     id="path93"
     style="stroke-width:0.514052" />
  <path
     d="m 497.29381,234.73134 c 0,0 3.99933,-17.0871 9.76699,-18.50589 0,0 -0.78649,13.97194 -9.17583,19.78073 z"
     fill="#dc5c01"
     id="path95"
     style="stroke-width:0.514052" />
  <path
     d="m 495.13479,216.88858 c 0,0 4.20495,-13.61725 8.86227,-15.69401 0,0 -0.92016,16.05385 -7.78276,19.01993 z"
     fill="#dc5c01"
     id="path97"
     style="stroke-width:0.514052" />
  <path
     d="m 493.33047,205.13734 -0.84819,-24.01137 c 0,0 8.69777,18.12548 1.49076,28.24717 z"
     fill="#dc5c01"
     id="path99"
     style="stroke-width:0.514052" />
  <path
     d="m 486.60666,181.27504 c 0,0 -6.27143,-17.53432 -7.7776,-18.50588 0,0 12.30126,11.37597 11.09838,26.01104 z"
     fill="#dc5c01"
     id="path101"
     style="stroke-width:0.514052" />
  <path
     d="m 537.82169,370.01961 c 0,0 -11.03156,-1.44449 -10.70257,14.14672 0,0 9.97262,1.6244 13.22657,-11.26803 z"
     fill="#dc5c01"
     id="path103"
     style="stroke-width:0.514052" />
  <path
     d="m 527.44298,357.15802 c 0,0 -12.7485,-0.0463 -11.71011,15.93562 0,0 10.69743,1.91228 14.22897,-12.90271 z"
     fill="#dc5c01"
     id="path105"
     style="stroke-width:0.514052" />
  <path
     d="m 520.32849,345.66381 c 0,0 -11.57131,-5.40269 -18.9788,8.57954 0,0 10.69228,4.51851 20.00177,-6.31771 z"
     fill="#dc5c01"
     id="path107"
     style="stroke-width:0.514052" />
  <path
     d="m 513.0598,332.10311 c 0,0 -11.84891,-5.77794 -18.80918,7.91127 0,0 12.33726,4.24607 19.78588,-5.7471 z"
     fill="#dc5c01"
     id="path109"
     style="stroke-width:0.514052" />
  <path
     d="m 508.86513,320.31075 c 0,0 -11.40168,-10.89791 -20.50555,0.12338 0,0 11.65356,8.96506 21.02988,2.30295 z"
     fill="#dc5c01"
     id="path111"
     style="stroke-width:0.514052" />
  <path
     d="m 505.05086,305.08967 c 0,0 -11.47365,-11.14465 -20.50554,0.51405 0,0 12.88214,9.13985 20.91164,1.82489 z"
     fill="#dc5c01"
     id="path113"
     style="stroke-width:0.514052" />
  <path
     d="m 502.92268,291.50841 c 0,0 -8.83656,-13.87942 -19.24611,-10.7951 0,0 9.17069,14.73274 19.14844,14.07475 z"
     fill="#dc5c01"
     id="path115"
     style="stroke-width:0.514052" />
  <path
     d="m 500.30102,278.68794 c 0,0 -8.91881,-17.52404 -17.33384,-14.48085 0,0 6.42051,13.46817 17.56002,17.42638 z"
     fill="#dc5c01"
     id="path117"
     style="stroke-width:0.514052" />
  <path
     d="m 499.68416,262.12518 c 0,0 -9.15527,-13.79717 -17.73481,-12.11108 0,0 7.4846,13.98737 18.62412,16.10012 z"
     fill="#dc5c01"
     id="path119"
     style="stroke-width:0.514052" />
  <path
     d="m 498.98505,248.07099 c 0,0 -7.09393,-15.47812 -12.85131,-15.61177 0,0 3.40816,15.37017 12.38865,18.21288 z"
     fill="#dc5c01"
     id="path121"
     style="stroke-width:0.514052" />
  <path
     d="m 497.58168,234.39206 c 0,0 -7.8907,-15.67345 -13.81772,-15.7043 0,0 4.04045,13.40135 13.55042,17.0871 z"
     fill="#dc5c01"
     id="path123"
     style="stroke-width:0.514052" />
  <path
     d="m 496.39422,217.83444 c 0,0 -5.90132,-12.97469 -10.79509,-14.44487 0,0 2.95065,15.81224 10.1371,17.88388 z"
     fill="#dc5c01"
     id="path125"
     style="stroke-width:0.514052" />
  <path
     d="m 492.64164,204.68498 -13.19572,-20.08402 c 0,0 3.37732,19.81157 15.10799,23.91371 z"
     fill="#dc5c01"
     id="path127"
     style="stroke-width:0.514052" />
  <path
     d="m 483.5789,182.89431 c 0,0 -15.3239,-10.5792 -15.87908,-12.27044 0,0 7.81874,14.82014 22.26874,17.43151 z"
     fill="#dc5c01"
     id="path129"
     style="stroke-width:0.514052" />
  <path
     d="m 482.66388,178.13418 c 0,0 -17.59601,-16.91232 -22.10424,-16.8969 0,0 14.51169,0.66313 22.51035,15.9973 z"
     fill="#dc5c01"
     id="path131"
     style="stroke-width:0.514052" />
  <path
     d="m 496.24001,220.34301 -0.64257,0.0822 c -3.30535,-25.88253 -8.12717,-41.17559 -13.57612,-43.0673 l 0.2159,-0.61172 c 5.77795,2.00481 10.59976,17.08196 14.00279,43.59677 z"
     fill="#444053"
     id="path133"
     style="stroke-width:0.514052" />
  <path
     d="m 501.08238,282.22462 -0.96642,0.0822 c -0.20563,-2.41604 -0.35984,-4.88863 -0.46779,-7.35094 -0.92015,-21.42571 -2.35436,-41.09334 -4.23579,-55.84151 l 0.56032,-0.68883 c 1.88657,14.76873 3.72174,35.03781 4.62647,56.48407 0.12851,2.45203 0.2673,4.9092 0.48321,7.31496 z"
     fill="#444053"
     id="path135"
     style="stroke-width:0.514052" />
  <path
     d="m 575.23956,399.37714 c -0.16964,-0.0771 -17.21561,-7.68509 -34.91444,-25.84655 a 140.61386,140.61386 0 0 1 -25.52269,-36.15844 c -8.17857,-16.64501 -13.16488,-37.10944 -14.83555,-56.99812 l 1.02811,0.47294 c 3.75772,44.64029 24.0782,75.15958 40.24001,91.75832 17.52405,17.99183 34.37981,25.53298 34.54945,25.60494 z"
     fill="#444053"
     id="path137"
     style="stroke-width:0.514052" />
  <path
     d="M 974.95636,73.843256 V 384.76263 c 0,9.25294 -8.91884,16.76324 -19.93498,16.76324 H 533.17466 c -11.011,0 -19.9298,-7.52058 -19.9298,-16.76324 V 73.843256 c 0,-9.252941 8.9188,-18.706356 19.9298,-18.706356 l 421.82615,1.028098 c 11.011,-0.0049 19.95555,8.415036 19.95555,17.678258 z"
     fill="#e8eaf2"
     id="path139"
     style="stroke-width:0.514052" />
  <path
     d="M 974.95636,73.935787 V 88.329252 H 513.24486 V 73.935787 A 18.798891,18.798891 0 0 1 532.04374,55.1369 h 424.09312 a 18.804032,18.804032 0 0 1 18.8195,18.798887 z"
     fill="#65617d"
     id="path141"
     style="stroke-width:0.514052" />
  <circle
     cx="535.61127"
     cy="71.730507"
     r="6.6415548"
     fill="#fa5959"
     opacity="0.8"
     id="circle143"
     style="stroke-width:0.514052" />
  <circle
     cx="554.94476"
     cy="71.730507"
     r="6.6415548"
     fill="#fed253"
     opacity="0.8"
     id="circle145"
     style="stroke-width:0.514052" />
  <circle
     cx="574.27313"
     cy="71.730507"
     r="6.6415548"
     fill="#8ccf4d"
     opacity="0.8"
     id="circle147"
     style="stroke-width:0.514052" />
  <path
     d="m 964.70098,395.07452 -11.22176,-16.25948 c 0,0 -0.21076,-4.02503 -0.94586,-4.96574 -0.73509,-0.94072 -0.15421,-3.03805 -0.15421,-3.03805 0,0 0.7865,-1.15148 0.10281,-1.25429 -0.68369,-0.10281 -0.10281,-2.66793 -0.10281,-2.66793 l -0.0565,-4.08157 c 0,0 0.63228,-3.92222 0.10795,-4.86294 a 1.5421568,1.5421568 0 0 1 0.0514,-1.67067 c 0,0 0.62714,-2.25155 0,-2.82728 -0.62715,-0.57575 -0.47293,-4.08158 -0.31358,-6.85232 0.15936,-2.77075 -1.10007,-4.3386 -1.10007,-4.76012 0,-0.42153 -4.14326,-4.49796 -4.14326,-4.86294 0,-0.36498 -2.62166,-1.88657 -4.19467,-2.30296 -1.573,-0.41638 -2.3595,-0.72995 -2.30809,-0.94071 0.0514,-0.21076 -2.46231,-1.0281 -2.46231,-1.0281 0,0 -2.20528,-0.15422 -3.04319,-1.25429 -0.8379,-1.10008 -3.40302,-1.41364 -3.47499,-1.42393 -0.072,-0.0103 -0.036,-0.14907 -0.0514,-0.22104 l -0.0463,-0.23647 c 0.19534,-0.32899 0.3804,-0.6734 0.54489,-1.02809 l 0.14907,-0.31872 a 4.4722547,4.4722547 0 0 0 2.57027,-0.80192 3.5315391,3.5315391 0 0 0 1.25429,-2.50858 5.4849377,5.4849377 0 0 0 -0.61173,-2.78616 c -0.46264,-0.94586 -1.13605,-1.91742 -0.90473,-2.94038 0.10281,-0.44209 0.36498,-0.82762 0.51405,-1.25943 a 3.3413397,3.3413397 0 0 0 -0.37526,-2.47773 c -0.40095,-0.7608 -0.95099,-1.42906 -1.39308,-2.16416 a 8.4921431,8.4921431 0 0 1 -1.11035,-3.08432 4.7755455,4.7755455 0 0 0 -0.4061,-1.66553 3.1717025,3.1717025 0 0 0 -0.92015,-0.93042 9.1758327,9.1758327 0 0 0 -5.65458,-1.70666 c -1.42907,0.0463 -2.85299,0.4318 -4.27177,0.25702 a 15.025747,15.025747 0 0 1 -2.48801,-0.65284 c -1.75806,-0.51405 -3.78857,-0.7351 -5.32045,0.27245 -1.53187,1.00754 -2.13845,2.98664 -3.17684,4.53393 -0.92015,1.37253 -2.26183,2.51886 -2.96094,3.96849 0,-0.0257 0,-0.0565 0,-0.0822 a 4.9194802,4.9194802 0 0 0 -0.39068,1.05894 7.5617088,7.5617088 0 0 0 0.23133,3.46471 2.4366078,2.4366078 0 0 0 0.84818,1.54216 c 0.51405,0.32899 1.22858,0.25188 1.83516,0.35984 0,0.0977 -0.0514,0.19534 -0.072,0.29815 a 11.967137,11.967137 0 0 0 8.31223,13.9668 c 0,0.10795 0,0.2159 0,0.31871 a 7.1967317,7.1967317 0 0 1 -0.0565,0.89959 v 0 c 0,0 -5.26904,-1.08465 -6.68268,-0.34955 -1.41365,0.73509 -4.19467,1.30568 -4.62647,1.72721 -0.4318,0.42152 -1.47019,0.10281 -2.41605,2.57026 -0.94586,2.46745 -1.0281,4.97089 -2.25154,6.12236 -1.22345,1.15148 -1.83517,1.93284 -1.88658,2.77074 -0.0514,0.83791 0.15422,1.02811 -0.31871,1.3057 -0.47293,0.27758 -1.15148,1.36224 -0.94072,1.77862 a 1.4958921,1.4958921 0 0 1 -0.57574,1.573 1.7323561,1.7323561 0 0 0 -0.73509,1.54216 c 0,0 -0.31358,1.15147 -1.02811,1.41364 -0.71453,0.26217 -1.20802,1.98424 -1.20802,1.98424 l -2.37492,2.73476 -4.71386,-5.21249 a 1.9945227,1.9945227 0 0 0 -2.80672,-0.14393 l -2.31324,2.0562 a 4.5853462,4.5853462 0 0 0 -2.31323,1.37767 6.0658168,6.0658168 0 0 0 -1.20288,1.78376 l -1.26457,1.14119 a 3.2179672,3.2179672 0 0 0 -0.32386,3.55724 l 3.01749,3.3362 v 0.0308 a 5.330722,5.330722 0 0 0 -2.85813,1.23887 c -4.50824,3.97363 -4.56478,7.63881 -3.88109,9.30948 0.68368,1.67067 6.3948,8.11175 6.3948,8.11175 0,0 3.32078,4.3129 8.11175,6.61071 v 0 l -0.036,0.036 c -0.0925,0.1028 -0.1902,0.21075 -0.28273,0.32898 l -0.0771,0.0977 a 1.249147,1.249147 0 0 1 -0.072,0.10282 l -0.0822,0.12337 -0.0668,0.10281 -0.0925,0.15422 -0.0565,0.0977 -0.10795,0.20562 c 0,0 -0.0257,0.0411 -0.036,0.0668 -0.0103,0.0257 -0.0874,0.18506 -0.12851,0.28273 a 0.92529405,0.92529405 0 0 0 -0.0411,0.10795 c -0.0308,0.0668 -0.0565,0.13879 -0.0822,0.20561 l -0.0463,0.1388 c 0,0.0668 -0.0463,0.13365 -0.0668,0.20048 l -0.0463,0.14908 -0.0617,0.23132 c 0,0.0463 -0.0257,0.0925 -0.0411,0.13879 -0.0154,0.0463 -0.0565,0.24675 -0.0822,0.37526 a 1.2851306,1.2851306 0 0 1 -0.0257,0.14908 l -0.0463,0.27244 c 0,0.0617 0,0.12338 -0.0257,0.1902 l -0.0308,0.25703 c 0,0.0668 0,0.13366 0,0.20048 0,0.0668 0,0.19534 0,0.29815 v 0.18506 c 0,0.1645 0,0.329 0,0.51405 -0.10794,6.12236 0.25189,7.01167 0.25189,7.01167 a 3.3927449,3.3927449 0 0 0 2.78102,2.08706 3.6343495,3.6343495 0 0 0 0.8996,-0.0463 c 2.72447,-0.47293 9.11928,-1.573 11.37597,-1.15148 1.3571,0.25189 3.86568,-0.12337 5.65457,-0.4575 l 0.47293,-0.0925 0.32899,1.0281 1.02811,-0.28273 0.88417,0.51405 c 0.23133,0.1388 0.42153,0.24675 0.55517,0.31872 1.02811,3.51098 5.23306,2.31323 5.23306,2.31323 l 0.99726,0.57574 10.11655,0.26217 a 20.526107,20.526107 0 0 0 3.59837,1.71693 3.3104966,3.3104966 0 0 0 0.51405,0.1131 23.682388,23.682388 0 0 0 2.82215,0.0514 c 0.77622,0 1.37251,-0.0514 1.37251,-0.0514 0,0 -0.10281,-2.75019 -0.24674,-5.82422 a 82.438558,82.438558 0 0 0 9.37117,-0.76593 c 5.40269,-0.951 7.65938,-5.86534 8.48701,-8.49215 a 24.438045,24.438045 0 0 1 0.51404,3.25909 24.278689,24.278689 0 0 0 0.83791,2.82729 9.5459507,9.5459507 0 0 0 1.15662,2.09219 c 3.9839,-1.36223 1.573,-3.40302 0.73509,-4.29234 -0.8379,-0.88931 0.57574,-1.61926 0.57574,-1.61926 0,0 1.10007,-0.73509 0.99726,-1.41364 -0.10281,-0.67855 -0.15935,-1.41365 3.40817,-1.3571 3.56753,0.0565 3.32078,-2.9301 3.32078,-2.9301 z m -55.36857,-33.4134 c 0.0463,0.30329 0.5449,3.52126 0.99212,4.36945 a 5.5826076,5.5826076 0 0 1 0.11823,1.72721 c -2.11275,-0.16964 -4.3129,-0.26217 -4.3129,-0.26217 a 0.51405226,0.51405226 0 0 1 0.11309,0.27245 l -0.32899,-0.0771 -0.48321,-0.11823 3.89137,-5.91674 z m -7.71078,12.27042 3.66004,0.57575 0.3033,0.0514 a 12.954117,12.954117 0 0 0 -0.1902,1.72722 c 0,0.0514 0.0874,0.11823 0.20048,0.19534 a 4.6264704,4.6264704 0 0 0 -0.0668,0.86361 c 0.0565,0.28787 1.76834,0.91501 3.72687,1.4342 -0.0257,0.10796 -0.0514,0.20563 -0.0822,0.29816 v 0 c -1.73235,-0.90988 -4.45683,-1.33654 -4.77041,-2.00995 -0.31357,-0.67341 -9.59735,-3.90679 -9.59735,-3.90679 0,0 -0.33928,-0.17992 -0.9253,-0.46265 l 2.44689,0.46265 0.66827,-0.0668 a 36.307512,36.307512 0 0 0 4.62647,0.84819 z"
     fill="url(#b2e9a30e-d699-40a8-8c6a-b63a5f54a941)"
     id="path149"
     style="fill:url(#b2e9a30e-d699-40a8-8c6a-b63a5f54a941);stroke-width:0.514052" />
  <path
     d="m 952.76468,397.34663 c 0,0 -1.45477,8.78515 -8.83655,10.08056 -7.38179,1.29542 -32.01004,1.02811 -32.01004,1.02811 0,0 -14.07989,-2.05622 -19.17415,-13.93082 -5.09426,-11.87461 -8.36363,-16.62445 -3.99932,-16.83521 4.3643,-0.21076 27.90275,7.95239 29.25471,8.0552 1.35195,0.10281 36.06591,-18.06894 34.76535,11.60216 z"
     fill="#65617d"
     id="path151"
     style="stroke-width:0.514052" />
  <path
     d="m 952.76468,397.34663 c 0,0 -1.45477,8.78515 -8.83655,10.08056 -7.38179,1.29542 -32.01004,1.02811 -32.01004,1.02811 0,0 -14.07989,-2.05622 -19.17415,-13.93082 -5.09426,-11.87461 -8.36363,-16.62445 -3.99932,-16.83521 4.3643,-0.21076 27.90275,7.95239 29.25471,8.0552 1.35195,0.10281 36.06591,-18.06894 34.76535,11.60216 z"
     opacity="0.05"
     id="path153"
     style="stroke-width:0.514052" />
  <path
     d="m 886.70896,407.11876 a 3.3670423,3.3670423 0 0 0 2.75533,2.05621 3.5521011,3.5521011 0 0 0 0.88931,-0.0463 c 2.70391,-0.46778 9.04218,-1.54215 11.27831,-1.1412 1.34167,0.24675 3.82968,-0.12336 5.59803,-0.4575 1.17717,-0.22104 2.0562,-0.42666 2.0562,-0.42666 0,0 -2.08191,-6.914 -2.33894,-7.11963 -0.25702,-0.20562 -9.35575,-5.65457 -9.35575,-5.65457 l -7.19673,-0.51406 v 0 a 3.8142678,3.8142678 0 0 0 -2.44175,1.43421 c -0.76079,0.92016 -1.41364,2.43147 -1.45476,4.90406 -0.14394,6.08124 0.21075,6.96541 0.21075,6.96541 z"
     fill="#3f3d56"
     id="path155"
     style="stroke-width:0.514052" />
  <path
     d="m 886.70896,407.11876 a 3.3670423,3.3670423 0 0 0 2.75533,2.05621 28.987407,28.987407 0 0 1 -1.9534,-2.85299 l 0.036,-5.03771 a 8.8828233,8.8828233 0 0 1 2.82729,-7.48461 v 0 c 0,0 -3.79371,0.25703 -3.89652,6.33827 -0.10281,6.08124 0.23132,6.98083 0.23132,6.98083 z"
     opacity="0.05"
     id="path157"
     style="stroke-width:0.514052" />
  <path
     d="m 917.94792,396.10262 6.68268,-5.24847 10.54835,-10.39414 c 0,0 -1.13605,-0.0565 -2.85812,-0.12851 -0.42667,0.27244 -1.62441,1.13091 -1.67067,2.1693 -0.0514,1.2697 -2.84786,0.0874 -4.30262,0.81734 -1.45477,0.72995 -8.5744,9.83896 -9.82354,9.76699 -1.24915,-0.072 -2.23613,-0.63228 -2.75532,0.25189 l -0.036,0.0565 z"
     opacity="0.1"
     id="path159"
     style="stroke-width:0.514052" />
  <path
     d="m 887.91185,395.26472 0.72995,0.33413 c 5.08912,2.17958 11.37598,6.75464 11.82321,7.58741 0.28787,0.51406 3.93249,2.7142 6.74436,4.37459 1.17718,-0.22105 2.05621,-0.42666 2.05621,-0.42666 0,0 -2.08191,-6.91401 -2.33894,-7.11963 -0.25702,-0.20562 -9.35575,-5.65457 -9.35575,-5.65457 l -7.19673,-0.51406 v 0 a 3.8142678,3.8142678 0 0 0 -2.46231,1.41879 z"
     opacity="0.1"
     id="path161"
     style="stroke-width:0.514052" />
  <path
     d="m 873.77541,380.3572 c 0.67855,1.66039 6.34341,8.0552 6.34341,8.0552 0,0 3.59836,4.67273 8.6772,6.85746 5.07884,2.18472 11.38111,6.75465 11.84891,7.58741 0.29814,0.51405 4.35916,2.97636 7.19673,4.65731 l 0.64256,0.37526 1.41879,0.82249 0.75051,0.4318 3.46986,-2.80159 c 1.71179,-1.38794 3.41331,-2.78616 3.43901,-2.86327 0.0514,-0.15422 0.72995,-1.92256 0.57059,-2.02537 -0.0771,-0.0565 -0.43694,-0.77108 -1.09493,-1.60898 a 7.2944017,7.2944017 0 0 0 -2.64737,-2.18472 7.5411467,7.5411467 0 0 1 -3.42873,-3.59837 c 0,0 -0.22618,-0.1645 -0.57059,-0.38039 a 6.8831598,6.8831598 0 0 0 -2.33894,-1.02811 c -1.1412,-0.14393 -3.26937,-2.48287 -3.26937,-2.48287 a 6.3999507,6.3999507 0 0 1 -2.03051,-2.12818 c -0.5449,-1.14119 -8.60523,-6.68268 -9.35061,-7.19673 l 19.53398,12.54802 4.67274,3.00206 6.68268,-5.24847 10.55349,-10.389 c 0,0 -1.41878,-0.072 -3.48527,-0.15936 -5.14053,-0.22103 -14.22897,-0.57059 -15.38045,-0.30842 a 8.8365582,8.8365582 0 0 1 -2.85813,0.18505 c 0,0 -2.57026,0.11823 -4.3129,-0.79164 -1.74263,-0.90987 -4.41571,-1.32625 -4.72927,-1.99966 -0.31358,-0.67341 -9.50997,-3.89138 -9.50997,-3.89138 0,0 -12.52232,-6.65184 -16.99457,-2.70391 -4.47225,3.94792 -4.47225,7.60283 -3.79885,9.26836 z"
     fill="#65617d"
     id="path163"
     style="stroke-width:0.514052" />
  <path
     d="m 914.1645,342.21452 1.60899,5.35129 2.0562,12.05452 7.63882,0.51406 2.21042,-3.6652 2.20529,-3.66005 c 0,0 1.37766,-4.87322 2.36464,-9.58193 0.87389,-4.17411 1.44448,-8.22484 0.51405,-8.65665 -0.84305,-0.39067 -1.39822,-1.79404 -1.75806,-3.30535 -0.0463,-0.18506 -0.0874,-0.37526 -0.12337,-0.56546 a 29.162185,29.162185 0 0 1 -0.51405,-3.87595 c 0,0 -16.00759,-0.82762 -13.77146,5.77281 a 10.440401,10.440401 0 0 1 0.60144,3.50583 8.2968037,8.2968037 0 0 1 -0.0514,0.89445 7.484601,7.484601 0 0 1 -2.9815,5.21763 z"
     fill="#ee8e9e"
     id="path165"
     style="stroke-width:0.514052" />
  <path
     d="m 910.8283,341.33035 0.5706,9.09358 1.30055,7.74163 1.45477,3.59837 1.30055,19.62137 c 0,0 12.52745,1.44964 15.57578,-0.0257 a 1.357098,1.357098 0 0 0 0.55004,-0.4318 c 3.66005,-5.57232 2.47773,-21.64674 2.47773,-21.64674 l 1.40336,-10.389 -0.93557,-5.39754 -2.26183,-0.23647 -1.74264,-0.1902 c 0,0 -0.39068,0.48321 -0.95614,1.23373 -1.54215,2.0562 -4.37458,6.03496 -4.18438,7.71077 0.25703,2.28754 -0.31357,4.62648 -1.19774,4.99145 -0.88417,0.36498 -1.60898,0.98698 -1.76834,0.35984 a 2.832428,2.832428 0 0 1 -0.15422,-1.66039 c 0.15422,-0.88417 -0.6734,-3.59837 -0.6734,-3.59837 0,0 -1.40337,-3.16656 -1.30056,-4.51851 0.10281,-1.35196 -0.15422,-2.90954 -0.5706,-3.27451 -0.41638,-0.36498 -0.98698,-0.72996 -0.51404,-2.39035 0.47292,-1.66039 -2.05622,-4.89892 -2.05622,-4.89892 z"
     fill="#e3e8f4"
     id="path167"
     style="stroke-width:0.514052" />
  <path
     d="m 927.38078,364.04118 0.51405,15.5398 3.00207,1.66039 a 1.3056928,1.3056928 0 0 0 0.55004,-0.42666 c 3.68061,-5.56205 2.47259,-21.65702 2.47259,-21.65702 l 1.40336,-10.39414 -0.93558,-5.39241 -2.25668,-0.24161 c 0.87388,-4.16896 1.44448,-8.22483 0.51404,-8.65664 -0.84304,-0.39067 -1.39822,-1.79403 -1.75805,-3.30021 v 0 l -1.61926,10.99043 c 0,0 0.13365,0.99213 0.17991,2.01509 a 5.6545749,5.6545749 0 0 1 -0.12851,1.93283 c -0.36498,0.93558 -0.10281,2.60111 -0.10281,2.60111 -0.94071,1.65011 -1.40851,4.70872 -1.63468,7.65938 -0.31872,3.93765 -0.20049,7.66966 -0.20049,7.66966 z"
     opacity="0.1"
     id="path169"
     style="stroke-width:0.514052" />
  <path
     d="m 930.91747,330.9208 c 0,0 2.62166,0.32898 3.44928,1.41878 0.82762,1.08979 3.01749,1.24914 3.01749,1.24914 0,0 2.49316,0.82763 2.44175,1.02811 -0.0514,0.20048 0.72481,0.51405 2.28753,0.93557 1.56272,0.42153 4.15354,1.92256 4.15354,2.28753 0,0.36498 4.11242,4.41572 4.11242,4.8321 0,0.41638 1.24915,1.97396 1.08979,4.72928 -0.15936,2.75532 -0.30843,6.23545 0.31358,6.80605 0.622,0.5706 0,2.80672 0,2.80672 a 1.5421568,1.5421568 0 0 0 -0.0514,1.66039 c 0.51405,0.93558 -0.10281,4.8321 -0.10281,4.8321 l 0.0514,4.05587 c 0,0 -0.57061,2.57026 0.10281,2.64737 0.6734,0.0771 -0.10281,1.24914 -0.10281,1.24914 0,0 -0.57061,2.05622 0.15421,3.01235 0.72482,0.95614 0.93557,4.94005 0.93557,4.94005 l 11.11895,16.16179 c 0,0 0.15936,2.96095 -3.37732,2.90954 -3.53668,-0.0514 -3.48013,0.67341 -3.37732,1.35196 0.10281,0.67855 -0.98699,1.39823 -0.98699,1.39823 0,0 -1.40336,0.72995 -0.57059,1.61412 0.83276,0.88417 3.22311,2.90953 -0.72995,4.26149 a 9.5510913,9.5510913 0 0 1 -1.1412,-2.05621 23.435643,23.435643 0 0 1 -0.83277,-2.80159 c 0,0 -0.36497,-3.95306 -1.08978,-4.47225 -0.72482,-0.51919 -0.60659,-3.02777 -0.60659,-3.02777 0,0 1.02811,-2.02536 -0.41638,-2.85813 -1.44448,-0.83276 -22.55661,-12.52231 -22.55661,-12.52231 l -0.51406,-15.5398 c 0,0 -0.35983,-11.48393 1.81975,-15.32904 0,0 -0.25702,-1.66553 0.10281,-2.6011 0.35984,-0.93558 -0.0514,-3.94793 -0.0514,-3.94793 z"
     fill="#3f3d56"
     id="path171"
     style="stroke-width:0.514052" />
  <path
     d="m 917.30022,337.17681 c 0,0 -5.22277,-1.07437 -6.62613,-0.34955 -1.40337,0.72481 -4.15869,1.30055 -4.57507,1.71693 -0.41638,0.41638 -1.45477,0.10281 -2.39034,2.57026 -0.93558,2.46745 -1.02811,4.94005 -2.23613,6.08124 -1.20803,1.1412 -1.8146,1.92255 -1.86601,2.75532 -0.0514,0.83276 0.15422,1.02811 -0.31358,1.30055 -0.46778,0.27245 -1.14633,1.34682 -0.93557,1.7632 0.21076,0.41638 10.7951,9.56137 10.7951,9.56137 0,0 0.51405,3.48528 0.98698,4.36431 0.47293,0.87903 -0.51405,13.04664 -1.54216,13.87941 -1.0281,0.83276 7.01682,0.75051 7.01682,0.75051 0,0 0.36497,-7.97808 0.67855,-8.38933 0.31357,-0.41124 -0.21077,-8.93937 -0.21077,-8.93937 0,0 -0.0514,-7.27383 0.62201,-9.20153 0.67341,-1.9277 0.60144,-8.31223 0.60144,-8.31223 0,0 0.5963,-3.83483 1.32111,-4.72928 0.72481,-0.89445 -1.32625,-4.82181 -1.32625,-4.82181 z"
     opacity="0.1"
     id="path173"
     style="stroke-width:0.514052" />
  <path
     d="m 917.146,337.00203 c 0,0 -5.22791,-1.07951 -6.63127,-0.34955 -1.40336,0.72995 -4.15354,1.30055 -4.56993,1.71693 -0.41638,0.41638 -1.45477,0.10281 -2.39034,2.54456 -0.93558,2.44175 -1.02811,4.9349 -2.23613,6.08123 -1.20802,1.14634 -1.81974,1.92256 -1.87115,2.75019 -0.0514,0.82762 0.15936,1.0281 -0.30842,1.30055 -0.4678,0.27245 -1.14634,1.35196 -0.93558,1.76834 0.21075,0.41638 10.8208,9.55109 10.8208,9.55109 0,0 0.51405,3.48014 0.98698,4.36431 0.47293,0.88417 -0.51406,13.0415 -1.54216,13.8794 -1.0281,0.83791 6.98597,0.77622 6.98597,0.77622 0,0 0.36498,-7.97809 0.67341,-8.39447 0.30843,-0.41638 -0.20563,-8.93937 -0.20563,-8.93937 0,0 -0.0514,-7.27384 0.62201,-9.19639 0.67341,-1.92256 0.60144,-8.31223 0.60144,-8.31223 0,0 0.5963,-3.83482 1.32111,-4.72928 0.72482,-0.89445 -1.32111,-4.81153 -1.32111,-4.81153 z"
     fill="#3f3d56"
     id="path175"
     style="stroke-width:0.514052" />
  <path
     d="m 916.59597,332.60175 a 10.440401,10.440401 0 0 1 0.60144,3.50583 11.915732,11.915732 0 0 0 13.67893,-5.40269 29.162185,29.162185 0 0 1 -0.51406,-3.87595 c 0,0 -16.00244,-0.82762 -13.76631,5.77281 z"
     opacity="0.1"
     id="path177"
     style="stroke-width:0.514052" />
  <path
     d="m 908.70012,324.38719 a 11.884888,11.884888 0 1 0 0.25703,-2.4726 11.89517,11.89517 0 0 0 -0.25703,2.4726 z"
     fill="#ee8e9e"
     id="path179"
     style="stroke-width:0.514052" />
  <path
     d="m 901.06131,351.93011 -2.83243,0.88417 a 1.4804705,1.4804705 0 0 1 -0.57574,1.54216 1.7426372,1.7426372 0 0 0 -0.72481,1.54215 c 0,0 -0.31357,1.14634 -1.02811,1.40336 -0.71453,0.25703 -1.19774,1.97911 -1.19774,1.97911 l -2.39034,2.75017 c 0,0 -0.88417,0.72996 -0.72481,1.09494 0.15935,0.36498 -0.93558,0.46779 -0.93558,0.46779 l 0.5706,9.25294 4.9349,0.93557 3.08431,-0.31357 2.49315,-0.93557 2.17959,-1.29542 0.99212,-2.57025 4.3643,-6.65185 z"
     fill="#3f3d56"
     id="path181"
     style="stroke-width:0.514052" />
  <path
     d="m 891.34058,364.34961 c 0,0 -6.33827,-9.14498 -11.06755,-4.21008 -4.72928,4.9349 1.92256,12.93869 3.48014,12.68167 1.55758,-0.25703 8.99077,-0.68884 8.99077,-0.68884 z"
     fill="#ee8e9e"
     id="path183"
     style="stroke-width:0.514052" />
  <rect
     x="938.72833"
     y="-90.98642"
     width="33.182076"
     height="25.764299"
     rx="0.79164046"
     transform="rotate(27.04)"
     fill="#3f3d56"
     id="rect185"
     style="stroke-width:0.514052" />
  <rect
     x="941.39838"
     y="-88.661133"
     width="27.892475"
     height="21.019596"
     transform="rotate(27.04)"
     fill="#dc5c01"
     id="rect187"
     style="stroke-width:0.514052" />
  <circle
     cx="873.09174"
     cy="357.85199"
     r="0.45750651"
     fill="#e6e8ec"
     id="circle189"
     style="stroke-width:0.514052" />
  <circle
     cx="899.98181"
     cy="371.62857"
     r="0.75565684"
     fill="#e6e8ec"
     id="circle191"
     style="stroke-width:0.514052" />
  <path
     d="m 887.23844,366.27216 c -0.0514,6.8626 14.1313,8.31223 14.1313,8.31223 l 3.59837,0.57574 1.6244,0.25702 0.67855,-6.68268 c 0,0 -0.74537,-0.10794 -1.67581,-0.32384 -1.37253,-0.32386 -3.15114,-0.87389 -3.52126,-1.65011 -0.60144,-1.31084 -14.78414,-7.34581 -14.83555,-0.48836 z"
     fill="#ee8e9e"
     id="path193"
     style="stroke-width:0.514052" />
  <path
     d="m 908.95715,321.91459 a 1.3879411,1.3879411 0 0 1 0.86875,0.39069 c 0.4061,0.42666 0.42666,1.17718 0.94586,1.43934 a 1.0281045,1.0281045 0 0 0 0.622,0.072 c 1.3828,-0.19534 2.17958,-1.75292 3.50584,-2.18472 a 3.5983659,3.5983659 0 0 1 2.32865,0.20049 1.7220751,1.7220751 0 0 1 0.76594,0.51404 c 0.44722,0.57574 0.13365,1.42393 0.33928,2.1179 0.28786,0.96642 1.43934,1.34682 2.4366,1.47533 0.99726,0.12851 2.12304,0.19534 2.78616,0.94585 a 2.5394182,2.5394182 0 0 1 0.51406,2.01509 1.5678594,1.5678594 0 0 0 0,0.74023 c 0.27758,0.78136 1.6244,0.66313 1.97909,0.0514 0.25703,-0.44722 0.17478,-0.82248 0.78136,-0.94586 a 2.6011045,2.6011045 0 0 1 1.27486,0.22105 9.2940651,9.2940651 0 0 0 3.28993,0.51405 11.90031,11.90031 0 1 0 -22.41268,-7.53601 z"
     opacity="0.1"
     id="path195"
     style="stroke-width:0.514052" />
  <path
     d="m 924.04459,329.31181 a 1.5884215,1.5884215 0 0 1 0,-0.74538 2.5342777,2.5342777 0 0 0 -0.51406,-2.00994 c -0.66313,-0.75566 -1.7889,-0.82762 -2.78616,-0.951 -0.99726,-0.12337 -2.14874,-0.51405 -2.43661,-1.47533 -0.20562,-0.69396 0.10795,-1.54215 -0.33927,-2.11275 a 1.6398267,1.6398267 0 0 0 -0.76594,-0.51405 3.510977,3.510977 0 0 0 -2.32866,-0.20049 c -1.32626,0.42667 -2.12304,1.98939 -3.50583,2.18473 a 1.1154934,1.1154934 0 0 1 -0.62201,-0.072 c -0.51405,-0.26217 -0.5449,-1.02811 -0.94585,-1.44449 -0.62714,-0.66827 -1.82489,-0.23646 -2.60111,-0.72995 a 2.4057646,2.4057646 0 0 1 -0.8379,-1.54216 7.5411467,7.5411467 0 0 1 -0.23133,-3.44415 c 0.45237,-1.93284 2.17959,-3.25909 3.28479,-4.9092 1.02811,-1.54216 1.60385,-3.48528 3.15114,-4.5031 1.54731,-1.01782 3.5264,-0.7865 5.26904,-0.27244 a 15.421568,15.421568 0 0 0 2.46745,0.6477 c 1.40851,0.17478 2.81701,-0.21076 4.23065,-0.25703 a 9.0987249,9.0987249 0 0 1 5.58775,1.69638 3.1202973,3.1202973 0 0 1 0.90987,0.92529 4.7189998,4.7189998 0 0 1 0.40611,1.65011 8.4510193,8.4510193 0 0 0 1.09493,3.04319 c 0.43694,0.72996 0.98697,1.39308 1.3828,2.14874 a 3.3259181,3.3259181 0 0 1 0.37012,2.46231 c -0.13366,0.42666 -0.39583,0.8122 -0.51406,1.24915 -0.23132,1.0281 0.43695,1.98423 0.89445,2.91981 a 5.5569049,5.5569049 0 0 1 0.60658,2.77075 3.4904149,3.4904149 0 0 1 -1.24914,2.49315 4.4568331,4.4568331 0 0 1 -2.63195,0.79678 9.3146274,9.3146274 0 0 1 -3.35676,-0.51406 2.6525097,2.6525097 0 0 0 -1.26971,-0.22103 c -0.60658,0.12851 -0.51405,0.51404 -0.7865,0.94585 -0.30843,0.65285 -1.65525,0.7608 -1.93283,-0.0154 z"
     fill="#3f3d56"
     id="path197"
     style="stroke-width:0.514052" />
  <path
     d="m 917.63435,396.41105 6.68268,-5.24847 10.5535,-10.389 c 0,0 -1.41879,-0.072 -3.48528,-0.15936 a 2.3029542,2.3029542 0 0 0 -0.73509,1.41879 c -0.0514,1.26971 -2.84786,0.0874 -4.30262,0.81735 -1.45477,0.72995 -8.5744,9.83896 -9.82354,9.76699 -1.24915,-0.072 -2.23613,-0.63228 -2.75532,0.25189 l -0.036,0.0565 a 1.4907516,1.4907516 0 0 1 -0.79164,0.47292 z"
     opacity="0.1"
     id="path199"
     style="stroke-width:0.514052" />
  <path
     d="m 904.12506,396.05122 3.35676,10.74883 0.51405,1.69123 1.60384,-0.44209 3.53669,-0.97155 15.75056,-4.32318 a 13.689212,13.689212 0 0 0 5.65457,-1.54216 17.179627,17.179627 0 0 1 9.767,-2.13332 c 2.0562,0.19534 4.39514,-0.70425 6.3177,-4.25121 0,0 4.3643,-12.88729 -6.65184,-16.57818 -11.01614,-3.6909 -11.54561,1.96368 -11.54561,1.96368 l -0.14908,0.0925 c -0.42667,0.27244 -1.6244,1.13091 -1.67067,2.1693 -0.0514,1.2697 -2.84785,0.0874 -4.30262,0.81734 -1.45476,0.72995 -8.57439,9.83896 -9.82353,9.76699 -1.24915,-0.072 -2.23614,-0.63228 -2.75533,0.25189 l -0.036,0.0565 c -0.38553,0.51405 -1.54215,0.65285 -2.30809,0.67855 -0.41639,0 -0.71967,0 -0.71967,0 l -0.0977,0.0308 -0.80192,0.23647 z"
     fill="#65617d"
     id="path201"
     style="stroke-width:0.514052" />
  <path
     d="m 904.99381,375.16013 1.62441,0.25702 0.67854,-6.68268 c 0,0 -0.74537,-0.10794 -1.67581,-0.32384 0.24674,0.91501 -0.30843,4.52879 -0.62714,6.7495 z"
     opacity="0.1"
     id="path203"
     style="stroke-width:0.514052" />
  <path
     d="m 947.49051,343.85949 c 0,0 4.83209,-1.40336 3.63434,12.33725 -1.19773,13.74062 -10.13197,22.39726 -10.13197,22.39726 0,0 -10.28104,4.51852 -14.90751,3.79371 -4.62647,-0.72482 -8.00379,-0.88417 -8.00379,-0.88417 a 11.730673,11.730673 0 0 0 -4.67788,-1.24915 c -2.57026,-0.10281 -8.0552,-1.71179 -8.15801,-2.23613 -0.10281,-0.52433 1.35196,-8.15801 0.72481,-8.73888 0,0 7.27899,0.29814 8.0038,0.82762 0.72481,0.52947 1.76834,0.14908 2.57026,0 0.80192,-0.14908 3.16656,-2.23099 7.89584,-0.41125 0,0 1.61413,0.15422 2.23613,-0.25702 a 2.2361274,2.2361274 0 0 1 1.62441,-0.10795 4.5288004,4.5288004 0 0 0 1.13091,-0.5706 c 0.15422,-0.20562 1.40337,0 1.40337,0 a 0.55003592,0.55003592 0 0 0 0.77622,-0.36498 3.4338691,3.4338691 0 0 1 0.72995,-1.14119 c 0,0 1.40336,-7.90098 4.05073,-10.86193 a 1.6809509,1.6809509 0 0 0 0.57059,-1.50617 c -0.23131,-0.86361 4.2872,-12.71251 10.5278,-11.02642 z"
     opacity="0.1"
     id="path205"
     style="stroke-width:0.514052" />
  <path
     d="m 947.362,342.78512 c 0,0 4.83209,-1.40336 3.63435,12.33726 -1.19775,13.74061 -10.13197,22.39725 -10.13197,22.39725 0,0 -10.28105,4.51852 -14.90753,3.7937 -4.62646,-0.72481 -8.00379,-0.88417 -8.00379,-0.88417 a 11.699829,11.699829 0 0 0 -4.67787,-1.24914 c -2.57026,-0.10281 -8.0552,-1.71179 -8.15801,-2.23612 -0.10281,-0.52434 1.35196,-8.15802 0.72996,-8.7389 0,0 7.27383,0.29816 7.99865,0.82763 0.72481,0.52947 1.76834,0.14907 2.57026,0 0.80192,-0.14908 3.16656,-2.23099 7.89584,-0.41124 0,0 1.61413,0.15421 2.23613,-0.26217 a 2.2515489,2.2515489 0 0 1 1.6244,-0.10281 4.5288004,4.5288004 0 0 0 1.13091,-0.5706 c 0.15422,-0.20562 1.40337,0 1.40337,0 a 0.55003592,0.55003592 0 0 0 0.77622,-0.36498 3.4338691,3.4338691 0 0 1 0.72995,-1.1412 c 0,0 1.40336,-7.90097 4.05074,-10.86192 a 1.691232,1.691232 0 0 0 0.57573,-1.50617 c -0.23646,-0.84305 4.2872,-12.69195 10.52266,-11.02642 z"
     fill="#3f3d56"
     id="path207"
     style="stroke-width:0.514052" />
  <path
     d="m 909.8259,394.33942 6.86774,8.30709 0.0411,-0.0463 c 0.0514,-0.15936 0.72482,-1.9277 0.5706,-2.03051 -0.15422,-0.10281 -1.35196,-2.70391 -3.7423,-3.7937 a 7.0527971,7.0527971 0 0 1 -2.93524,-2.67308 z"
     opacity="0.1"
     id="path209"
     style="stroke-width:0.514052" />
  <path
     d="m 909.92357,408.71233 0.75052,0.4318 3.46985,-2.80159 c 1.71179,-1.38794 3.41331,-2.78616 3.439,-2.86327 0.0514,-0.15422 0.72996,-1.92256 0.57061,-2.02537 -0.0771,-0.0565 -0.43695,-0.77108 -1.09494,-1.60898 -4.62646,-1.30055 -1.68609,1.9277 -1.29541,2.05621 0,0 -5.65458,-1.30055 -5.97328,4.86808 a 7.3201043,7.3201043 0 0 0 0.13365,1.94312 z"
     opacity="0.1"
     id="path211"
     style="stroke-width:0.514052" />
  <path
     d="m 915.66039,411.32884 0.98698,0.57061 10.02916,0.25703 a 20.320486,20.320486 0 0 0 3.5521,1.71178 3.0843136,3.0843136 0 0 0 0.51406,0.10796 22.22762,22.22762 0 0 0 2.79644,0.0514 c 0.76593,0 1.36224,-0.0514 1.36224,-0.0514 0,0 -0.47807,-12.64569 -0.83277,-13.97708 -0.17477,-0.63743 -1.0281,-0.51405 -1.8403,-0.17992 a 12.270427,12.270427 0 0 0 -1.79919,0.90987 c 0,0 -4.26149,0.41125 -4.9349,0.78136 -0.67341,0.37012 -2.6011,-0.21076 -3.7937,0 -1.19261,0.21076 -3.32592,-1.4085 -3.32592,-1.4085 -5.81908,-1.92256 -2.57026,1.66553 -2.13332,1.81974 0,0 -5.65457,-1.30055 -5.97329,4.86808 -0.31871,6.16863 5.39241,4.53907 5.39241,4.53907 z"
     fill="#3f3d56"
     id="path213"
     style="stroke-width:0.514052" />
  <path
     d="m 930.15666,406.44021 c 0.11309,2.62167 2.15389,5.87048 3.37218,7.58741 0.76594,0 1.36225,-0.0514 1.36225,-0.0514 0,0 -0.47807,-12.64569 -0.83277,-13.97708 -0.17478,-0.63743 -1.0281,-0.51405 -1.84031,-0.17992 -1.00754,1.88657 -2.11789,4.51338 -2.06135,6.62099 z"
     fill="#565387"
     id="path215"
     style="stroke-width:0.514052" />
  <path
     d="m 930.15666,406.44021 c 0.11309,2.62167 2.15389,5.87048 3.37218,7.58741 0.76594,0 1.36225,-0.0514 1.36225,-0.0514 0,0 -0.47807,-12.64569 -0.83277,-13.97708 -0.17478,-0.63743 -1.0281,-0.51405 -1.84031,-0.17992 -1.00754,1.88657 -2.11789,4.51338 -2.06135,6.62099 z"
     opacity="0.1"
     id="path217"
     style="stroke-width:0.514052" />
  <path
     d="m 928.44487,406.78977 c 0.68883,2.52914 0.68369,5.36157 1.78376,7.07849 a 3.0843136,3.0843136 0 0 0 0.51406,0.10796 22.22762,22.22762 0 0 0 2.79644,0.0514 c 0.76593,0 1.36224,-0.0514 1.36224,-0.0514 0,0 -0.47807,-12.64569 -0.83277,-13.97708 -0.17477,-0.63743 -1.0281,-0.51405 -1.8403,-0.17992 a 12.270427,12.270427 0 0 0 -1.79919,0.90987 c 0,0 -2.86841,2.82215 -1.98424,6.06068 z"
     opacity="0.05"
     id="path219"
     style="stroke-width:0.514052" />
  <path
     d="m 893.84401,381.14884 c 0,0 4.98117,1.61927 9.20154,7.36637 z"
     opacity="0.1"
     id="path221"
     style="stroke-width:0.514052" />
  <g
     opacity="0.1"
     id="g227"
     transform="matrix(0.51405226,0,0,0.51405226,460.57506,5.3355129)">
    <path
       d="m 976.22,662.24 -0.06,0.22 a 6.71,6.71 0 0 1 -0.34,0.84 6.78,6.78 0 0 1 0.4,-1.06 z"
       transform="translate(-54.62,-52.46)"
       id="path223" />
    <path
       d="m 921.39,657.34 a 9.38,9.38 0 0 1 0.75,-2 c 0,0.17 -0.1,0.34 -0.14,0.52 a 14.45,14.45 0 0 0 0.45,6.71 4.64,4.64 0 0 0 1.63,3 c 1.5,1 3.83,0.13 5.06,1.43 0.78,0.82 0.82,2.29 1.84,2.8 a 2.08,2.08 0 0 0 1.21,0.14 c 2.68,-0.38 4.24,-3.42 6.82,-4.25 a 6.8,6.8 0 0 1 4.52,0.39 3.44,3.44 0 0 1 1.5,1 c 0.86,1.12 0.26,2.76 0.66,4.12 0.55,1.87 2.79,2.62 4.73,2.86 1.94,0.24 4.13,0.39 5.43,1.85 a 5,5 0 0 1 1,3.91 3,3 0 0 0 0,1.45 c 0.53,1.52 3.15,1.29 3.84,0.09 0.5,-0.87 0.35,-1.59 1.53,-1.83 a 4.91,4.91 0 0 1 2.47,0.43 18.37,18.37 0 0 0 6.53,1 8.78,8.78 0 0 0 5.13,-1.56 5.81,5.81 0 0 0 1.57,-1.91 6.43,6.43 0 0 1 -2.18,3.43 8.69,8.69 0 0 1 -5.12,1.55 18.12,18.12 0 0 1 -6.53,-1 5.18,5.18 0 0 0 -2.48,-0.43 c -1.18,0.25 -1,1 -1.53,1.84 -0.68,1.2 -3.3,1.42 -3.84,-0.09 a 3.23,3.23 0 0 1 0,-1.45 4.89,4.89 0 0 0 -1,-3.91 c -1.29,-1.47 -3.48,-1.61 -5.42,-1.85 -1.94,-0.24 -4.18,-1 -4.74,-2.87 -0.4,-1.35 0.21,-3 -0.66,-4.11 a 3.24,3.24 0 0 0 -1.49,-1 6.83,6.83 0 0 0 -4.53,-0.39 c -2.58,0.83 -4.14,3.87 -6.82,4.25 a 2.17,2.17 0 0 1 -1.21,-0.14 c -1,-0.51 -1.06,-2 -1.84,-2.81 -1.23,-1.3 -3.55,-0.46 -5.06,-1.42 a 4.64,4.64 0 0 1 -1.63,-3 14.53,14.53 0 0 1 -0.45,-6.75 z"
       transform="translate(-54.62,-52.46)"
       id="path225" />
  </g>
  <path
     d="m 935.13269,357.86741 c -0.95613,1.28513 -2.05621,2.47259 -2.88383,3.83483 a 7.2789801,7.2789801 0 0 0 -1.26457,4.53394 c 0.87388,-0.89445 1.27485,-2.12817 1.82488,-3.24881 0.93044,-1.90199 2.31838,-3.51097 3.49556,-5.25875 0.22104,-0.33413 1.65525,-2.26183 0.93044,-2.34922 -0.60144,-0.0771 -1.77863,2.05107 -2.10248,2.48801 z"
     opacity="0.1"
     id="path229"
     style="stroke-width:0.514052" />
  <path
     d="M 607.92815,190.52798 H 565.4006 a 1.4187842,1.4187842 0 1 0 0,2.83243 h 42.52755 a 1.4187842,1.4187842 0 1 0 0,-2.83243 z m 0,4.8578 H 565.4006 a 1.4187842,1.4187842 0 0 0 0,2.83756 h 42.52755 a 1.4187842,1.4187842 0 0 0 0,-2.83756 z m -2.13333,-32.78626 h -38.25576 a 3.5623822,3.5623822 0 0 0 -3.55725,3.5521 v 17.99183 a 3.5623822,3.5623822 0 0 0 3.55725,3.5521 h 38.25576 a 3.5623822,3.5623822 0 0 0 3.55211,-3.5521 v -17.99183 a 3.5623822,3.5623822 0 0 0 -3.55211,-3.5521 z m -33.51106,21.87293 h -3.64463 a 1.41879,1.41879 0 0 1 0,-2.83758 h 3.64463 a 1.41879,1.41879 0 0 1 0,2.83758 z m 0,-15.79683 h -3.64463 a 1.4187858,1.4187858 0 0 1 0,-2.83757 h 3.64463 a 1.4187858,1.4187858 0 0 1 0,2.83757 z m 14.39346,14.57852 a 8.1014637,8.1014637 0 1 1 8.10146,-8.10146 8.1117447,8.1117447 0 0 1 -8.11174,8.10146 z m 18.02782,1.21831 h -3.64463 a 1.41879,1.41879 0 0 1 0,-2.83758 h 3.64463 a 1.41879,1.41879 0 0 1 0,2.83758 z m 0,-15.79683 h -3.64463 a 1.4187858,1.4187858 0 0 1 0,-2.83757 h 3.64463 a 1.4187858,1.4187858 0 0 1 0,2.83757 z"
     fill="#ffffff"
     id="path231"
     style="stroke-width:0.514052" />
  <circle
     cx="586.66699"
     cy="175.34804"
     r="5.3667054"
     fill="#ffffff"
     id="circle233"
     style="stroke-width:0.514052" />
  <rect
     x="667.96436"
     y="126.79578"
     width="193.1243"
     height="107.22102"
     fill="#dc5c01"
     opacity="0.2"
     id="rect235"
     style="stroke-width:0.514052" />
  <rect
     x="667.96436"
     y="258.00247"
     width="193.1243"
     height="107.22102"
     fill="#dc5c01"
     opacity="0.2"
     id="rect237"
     style="stroke-width:0.514052" />
  <rect
     x="705.9425"
     y="201.45674"
     width="5.8447742"
     height="19.58539"
     fill="#ffffff"
     id="rect239"
     style="stroke-width:0.514052" />
  <rect
     x="717.07178"
     y="177.20889"
     width="5.8447742"
     height="43.833237"
     fill="#ffffff"
     id="rect241"
     style="stroke-width:0.514052" />
  <rect
     x="728.20612"
     y="155.36168"
     width="5.8447742"
     height="65.680458"
     fill="#dfe3ef"
     id="rect243"
     style="stroke-width:0.514052" />
  <rect
     x="739.34045"
     y="139.7756"
     width="5.8447742"
     height="81.266525"
     fill="#ffffff"
     id="rect245"
     style="stroke-width:0.514052" />
  <rect
     x="728.20612"
     y="139.7756"
     width="5.8447742"
     height="81.266525"
     fill="#dc5c01"
     id="rect247"
     style="stroke-width:0.514052" />
  <rect
     x="750.46973"
     y="176.37099"
     width="5.8447742"
     height="44.671143"
     fill="#dc5c01"
     id="rect249"
     style="stroke-width:0.514052" />
  <rect
     x="761.60406"
     y="164.82538"
     width="5.8447742"
     height="56.216755"
     fill="#dc5c01"
     opacity="0.2"
     id="rect251"
     style="stroke-width:0.514052" />
  <rect
     x="772.73334"
     y="147.29106"
     width="5.8447742"
     height="73.751076"
     fill="#dc5c01"
     id="rect253"
     style="stroke-width:0.514052" />
  <rect
     x="783.86768"
     y="188.19933"
     width="5.8447742"
     height="32.8428"
     fill="#dc5c01"
     opacity="0.2"
     id="rect255"
     style="stroke-width:0.514052" />
  <rect
     x="795.00208"
     y="173.03477"
     width="5.8447742"
     height="48.007343"
     fill="#dc5c01"
     id="rect257"
     style="stroke-width:0.514052" />
  <rect
     x="806.13129"
     y="155.36168"
     width="5.8447742"
     height="65.680458"
     fill="#dc5c01"
     opacity="0.2"
     id="rect259"
     style="stroke-width:0.514052" />
  <rect
     x="817.26569"
     y="155.36168"
     width="5.8447742"
     height="65.680458"
     fill="#dc5c01"
     id="rect261"
     style="stroke-width:0.514052" />
  <path
     d="m 609.33151,298.64859 a 3.2488103,3.2488103 0 0 0 -3.23853,-3.23853 h -38.8675 a 3.2539508,3.2539508 0 0 0 -3.24367,3.23853 v 4.86293 h 45.3497 z m -45.36512,25.92366 a 3.2539508,3.2539508 0 0 0 3.24367,3.24366 h 38.88292 a 3.2488103,3.2488103 0 0 0 3.23853,-3.24366 v -16.18236 h -45.3497 z m 14.39347,-4.8578 h 16.60902 a 1.4187842,1.4187842 0 1 1 0,2.83243 h -16.60902 a 1.4187842,1.4187842 0 0 1 0,-2.83243 z m -7.28926,0 h 1.21316 a 1.4187842,1.4187842 0 1 1 0,2.83243 h -1.21316 a 1.4187842,1.4187842 0 1 1 0,-2.83243 z"
     fill="#ffffff"
     id="path263"
     style="stroke-width:0.514052" />
  <rect
     x="705.9425"
     y="332.65826"
     width="5.8447742"
     height="19.58539"
     fill="#ffffff"
     id="rect265"
     style="stroke-width:0.514052" />
  <rect
     x="717.07178"
     y="308.41043"
     width="5.8447742"
     height="43.833237"
     fill="#ffffff"
     id="rect267"
     style="stroke-width:0.514052" />
  <rect
     x="728.20612"
     y="286.5632"
     width="5.8447742"
     height="65.680458"
     fill="#dfe3ef"
     id="rect269"
     style="stroke-width:0.514052" />
  <rect
     x="739.34045"
     y="270.97714"
     width="5.8447742"
     height="81.266525"
     fill="#ffffff"
     id="rect271"
     style="stroke-width:0.514052" />
  <rect
     x="728.20612"
     y="270.97714"
     width="5.8447742"
     height="81.266525"
     fill="#dc5c01"
     id="rect273"
     style="stroke-width:0.514052" />
  <rect
     x="750.46973"
     y="307.57251"
     width="5.8447742"
     height="44.671143"
     fill="#dc5c01"
     id="rect275"
     style="stroke-width:0.514052" />
  <rect
     x="761.60406"
     y="296.02692"
     width="5.8447742"
     height="56.216755"
     fill="#ffffff"
     id="rect277"
     style="stroke-width:0.514052" />
  <rect
     x="772.73334"
     y="278.49258"
     width="5.8447742"
     height="73.751076"
     fill="#ffffff"
     id="rect279"
     style="stroke-width:0.514052" />
  <rect
     x="783.86768"
     y="319.40088"
     width="5.8447742"
     height="32.8428"
     fill="#dc5c01"
     opacity="0.2"
     id="rect281"
     style="stroke-width:0.514052" />
  <rect
     x="795.00208"
     y="304.23633"
     width="5.8447742"
     height="48.007343"
     fill="#dc5c01"
     opacity="0.2"
     id="rect283"
     style="stroke-width:0.514052" />
  <rect
     x="806.13129"
     y="286.5632"
     width="5.8447742"
     height="65.680458"
     fill="#dc5c01"
     opacity="0.2"
     id="rect285"
     style="stroke-width:0.514052" />
  <rect
     x="817.26569"
     y="286.5632"
     width="5.8447742"
     height="65.680458"
     fill="#dc5c01"
     opacity="0.2"
     id="rect287"
     style="stroke-width:0.514052" />
  <text
     xml:space="preserve"
     id="text294"
     style="font-style:normal;font-weight:normal;font-size:48px;line-height:1.25;font-family:sans-serif;white-space:pre;shape-inside:url(#rect296);fill:#333333;fill-opacity:1;stroke:none;"
     transform="translate(123.52177,76.416009)"><tspan
       x="47.105469"
       y="118.11412"><tspan
         style="font-style:normal;font-variant:normal;font-weight:bold;font-stretch:normal;font-family:Lora;-inkscape-font-specification:'Lora Bold';fill:#333333">Sales 
</tspan></tspan><tspan
       x="47.105469"
       y="178.18098"><tspan
         style="font-style:normal;font-variant:normal;font-weight:bold;font-stretch:normal;font-family:Lora;-inkscape-font-specification:'Lora Bold';fill:#333333">as a
</tspan></tspan><tspan
       x="47.105469"
       y="238.24785"><tspan
         style="font-style:normal;font-variant:normal;font-weight:bold;font-stretch:normal;font-family:Lora;-inkscape-font-specification:'Lora Bold';fill:#333333">Service</tspan></tspan></text>
</svg>
