<?xml version="1.0" encoding="UTF-8" standalone="no"?>
<svg
   xmlns:dc="http://purl.org/dc/elements/1.1/"
   xmlns:cc="http://creativecommons.org/ns#"
   xmlns:rdf="http://www.w3.org/1999/02/22-rdf-syntax-ns#"
   xmlns:svg="http://www.w3.org/2000/svg"
   xmlns="http://www.w3.org/2000/svg"
   xmlns:sodipodi="http://sodipodi.sourceforge.net/DTD/sodipodi-0.dtd"
   xmlns:inkscape="http://www.inkscape.org/namespaces/inkscape"
   id="fab53ecb-c04a-44eb-8d92-23f87bdb6c81"
   data-name="Layer 1"
   width="942.54724"
   height="631.43903"
   viewBox="0 0 942.54724 631.43903"
   version="1.1"
   sodipodi:docname="taas.svg"
   inkscape:version="1.0.1 (3bc2e813f5, 2020-09-07)">
  <metadata
     id="metadata115">
    <rdf:RDF>
      <cc:Work
         rdf:about="">
        <dc:format>image/svg+xml</dc:format>
        <dc:type
           rdf:resource="http://purl.org/dc/dcmitype/StillImage" />
      </cc:Work>
    </rdf:RDF>
  </metadata>
  <defs
     id="defs113">
    <rect
       x="39.800459"
       y="35.27768"
       width="312.07178"
       height="262.32121"
       id="rect119" />
  </defs>
  <sodipodi:namedview
     pagecolor="#ffffff"
     bordercolor="#666666"
     borderopacity="1"
     objecttolerance="10"
     gridtolerance="10"
     guidetolerance="10"
     inkscape:pageopacity="0"
     inkscape:pageshadow="2"
     inkscape:window-width="1920"
     inkscape:window-height="1009"
     id="namedview111"
     showgrid="false"
     inkscape:zoom="1.1055149"
     inkscape:cx="471.27362"
     inkscape:cy="162.91475"
     inkscape:window-x="-8"
     inkscape:window-y="-8"
     inkscape:window-maximized="1"
     inkscape:current-layer="fab53ecb-c04a-44eb-8d92-23f87bdb6c81"
     inkscape:document-rotation="0" />
  <path
     d="m 844.4183,158.43221 1.38706,-11.11794 a 15.013539,15.013539 0 0 1 29.79609,3.71732 l -1.38706,11.11794 a 2.0190226,2.0190226 0 0 1 -2.25091,1.75156 l -25.79362,-3.21798 a 2.0190178,2.0190178 0 0 1 -1.75156,-2.2509 z"
     fill="#2f2e41"
     id="path2"
     style="stroke-width:0.495749" />
  <circle
     cx="856.77368"
     cy="150.7417"
     r="11.007396"
     fill="#ffb8b8"
     id="circle4"
     style="stroke-width:0.495749" />
  <path
     d="m 842.16988,147.76399 a 11.889809,11.889809 0 0 1 13.2553,-10.31473 l 2.2237,0.27742 a 11.88972,11.88972 0 0 1 10.31462,13.25528 l -0.0277,0.22237 -4.69918,-0.58627 -1.04284,-4.68795 -0.88042,4.44801 -2.42858,-0.30299 -0.52615,-2.3653 -0.44428,2.24424 -15.77217,-1.96772 z"
     fill="#2f2e41"
     id="path6"
     style="stroke-width:0.495749" />
  <path
     d="m 802.93691,190.00714 a 5.0704429,5.0704429 0 0 0 7.57716,1.74244 l 9.99773,5.85665 5.0409,-5.20755 -14.2349,-8.07241 a 5.0979273,5.0979273 0 0 0 -8.38089,5.68087 z"
     fill="#ffb8b8"
     id="path8"
     style="stroke-width:0.495749" />
  <path
     d="m 835.70414,200.53087 c -7.37451,0 -20.35149,-3.30128 -21.07006,-3.48573 l -0.22693,-0.0581 2.04242,-10.34078 19.82101,3.91493 10.76802,-15.16344 12.36262,-1.2568 -0.34507,0.45411 c -0.16073,0.21156 -16.09683,21.18989 -18.57691,24.70903 -0.62585,0.88789 -2.41351,1.22678 -4.7751,1.22678 z"
     fill="#3f3d56"
     id="path10"
     style="stroke-width:0.495749" />
  <path
     d="m 837.68121,239.34212 -0.29508,-0.14087 c -0.0629,-0.03 -6.3283,-3.07762 -9.57355,-9.0271 -3.22975,-5.9214 11.88963,-31.04 12.94733,-32.78287 l 0.0153,-7.97701 5.439,-14.68462 6.93637,-3.92049 -5.95543,13.89574 z"
     fill="#3f3d56"
     id="path12"
     style="stroke-width:0.495749" />
  <polygon
     points="709.885,615.59 703.523,564.011 723.259,564.012 723.257,615.591 "
     fill="#ffb8b8"
     id="polygon14"
     transform="matrix(0.49574915,0,0,0.49574915,472.17817,19.90023)" />
  <path
     d="m 832.42276,331.50477 -21.37564,-7.9e-4 v -0.27036 a 8.3204504,8.3204504 0 0 1 8.32,-8.31985 h 5.3e-4 l 13.05551,5.3e-4 z"
     fill="#2f2e41"
     id="path16"
     style="stroke-width:0.495749" />
  <polygon
     points="854.184,608.035 832.077,561.002 850.832,554.857 866.891,603.872 "
     fill="#ffb8b8"
     id="polygon18"
     transform="matrix(0.49574915,0,0,0.49574915,472.17817,19.90023)" />
  <path
     d="m 905.54634,324.84938 -20.31314,6.65539 -0.0842,-0.25692 a 8.3204455,8.3204455 0 0 1 5.31563,-10.497 l 4.9e-4,-1.6e-4 12.40658,-4.06485 z"
     fill="#2f2e41"
     id="path20"
     style="stroke-width:0.495749" />
  <path
     d="m 889.1032,315.08862 -18.8982,-31.5499 -15.95335,-33.70743 -14.35603,29.77495 -5.70293,38.56339 -20.00001,0.27789 0.0788,-0.31275 30.60633,-121.61249 23.97047,3.5811 -1.09111,15.82233 0.64982,0.92421 c 5.41487,7.69234 11.0136,15.64562 7.80248,24.21909 l 9.1031,27.02946 20.15034,45.00715 z"
     fill="#2f2e41"
     id="path22"
     style="stroke-width:0.495749" />
  <path
     d="m 845.97303,222.87929 c -3.47339,0 -7.43624,-3.966 -5.38037,-10.73704 l -0.13313,-0.0964 4.938,-21.81683 c -4.30936,-6.16297 1.37227,-11.24924 1.90467,-11.7036 l 2.71209,-4.88172 11.96625,-7.58898 6.05454,50.3057 -0.0896,0.0857 c -4.37278,4.18386 -19.05886,6.43313 -21.97248,6.43313 z"
     fill="#dc5c01"
     id="path24"
     style="stroke-width:0.495749" />
  <path
     d="m 870.47945,234.23069 a 5.8901642,5.8901642 0 0 1 -1.41354,-0.1496 c -0.46537,-0.11667 -1.2188,-0.70924 -2.38301,-4.49999 -4.62841,-15.06951 -10.09302,-60.41216 -6.12292,-64.84921 l 0.0909,-0.10167 6.51857,1.08639 c 0.54185,-0.3999 3.38528,-2.38483 6.00914,-2.03964 a 3.9823529,3.9823529 0 0 1 2.72493,1.61069 l 0.0449,0.0588 2.07669,29.54379 7.60786,34.76732 -0.1824,0.0828 c -0.44263,0.20139 -9.94249,4.49031 -14.97113,4.49031 z"
     fill="#3f3d56"
     id="path26"
     style="stroke-width:0.495749" />
  <path
     d="m 866.09557,222.68343 a 5.0704628,5.0704628 0 0 0 4.79012,-6.12407 l 9.54246,-6.5724 -2.57969,-6.77307 -13.34544,9.47079 a 5.0979273,5.0979273 0 0 0 1.59255,9.99877 z"
     fill="#ffb8b8"
     id="path28"
     style="stroke-width:0.495749" />
  <path
     d="m 877.27939,215.25326 -8.49986,-6.23317 11.94796,-16.29243 -9.16892,-16.18036 4.10216,-11.72998 0.26506,0.50517 c 0.12344,0.23528 12.36807,23.5614 14.50405,27.2996 2.22228,3.88853 -12.37886,21.69435 -13.00143,22.45008 z"
     fill="#3f3d56"
     id="path30"
     style="stroke-width:0.495749" />
  <path
     d="m 686.08389,288.58364 -7.23412,-3.04603 -4.96258,-36.26474 h -66.08563 l -5.37907,36.11659 -6.47206,3.23598 a 1.5369017,1.5369017 0 0 0 0.68739,2.91153 h 88.84986 a 1.5368224,1.5368224 0 0 0 0.59621,-2.95333 z"
     fill="#e6e6e6"
     id="path32"
     style="stroke-width:0.495749" />
  <path
     d="M 803.52262,254.09774 H 478.8916 a 6.4315719,6.4315719 0 0 1 -6.41712,-6.43151 v -45.77722 h 337.46527 v 45.77724 a 6.4316363,6.4316363 0 0 1 -6.41713,6.43149 z"
     fill="#cccccc"
     id="path34"
     style="stroke-width:0.495749" />
  <path
     d="M 810.27909,223.52441 H 472.17817 V 27.653295 a 7.7620386,7.7620386 0 0 1 7.75333,-7.753065 h 322.59415 a 7.7621229,7.7621229 0 0 1 7.75344,7.753065 z"
     fill="#3f3d56"
     id="path36"
     style="stroke-width:0.495749" />
  <path
     d="M 790.08566,209.30807 H 492.3716 a 5.9838112,5.9838112 0 0 1 -5.97724,-5.97709 V 40.093679 a 5.9841285,5.9841285 0 0 1 5.97724,-5.97745 h 297.71406 a 5.9841285,5.9841285 0 0 1 5.97725,5.97745 V 203.33098 a 5.9838112,5.9838112 0 0 1 -5.97725,5.97709 z"
     fill="#ffffff"
     id="path38"
     style="stroke-width:0.495749" />
  <path
     d="M 724.7227,291.91528 H 557.43304 a 0.77674472,0.77674472 0 0 1 -0.76301,-0.562 0.75805498,0.75805498 0 0 1 0.73235,-0.9513 h 167.25833 a 0.80080839,0.80080839 0 0 1 0.80122,0.59176 0.75759889,0.75759889 0 0 1 -0.73923,0.92154 z"
     fill="#cccccc"
     id="path40"
     style="stroke-width:0.495749" />
  <rect
     x="715.02576"
     y="60.50676"
     width="71.881615"
     height="54.915771"
     fill="#f2f2f2"
     id="rect42"
     style="stroke-width:0.495749" />
  <rect
     x="718.59747"
     y="63.235493"
     width="64.738098"
     height="49.458298"
     fill="#ffffff"
     id="rect44"
     style="stroke-width:0.495749" />
  <path
     d="m 752.10342,99.921229 q 0.0128,1.37e-4 0.0257,-5.4e-4 a 17.260374,17.260374 0 0 0 0.38619,-34.449075 0.3937438,0.3937438 0 0 0 -0.298,0.103294 0.38961917,0.38961917 0 0 0 -0.12731,0.285318 l -0.37736,33.662364 a 0.39514677,0.39514677 0 0 0 0.39078,0.398639 z"
     fill="#3f3d56"
     id="path46"
     style="stroke-width:0.495749" />
  <path
     d="m 738.5668,71.037959 a 0.50826185,0.50826185 0 0 1 0.35676,0.152369 l 11.58855,11.85132 a 0.50277887,0.50277887 0 0 1 0.14423,0.359472 l -0.18057,16.107604 a 0.50099913,0.50099913 0 0 1 -0.16369,0.366779 0.50863863,0.50863863 0 0 1 -0.38235,0.132767 17.373261,17.373261 0 0 1 -11.74901,-28.798375 0.5088171,0.5088171 0 0 1 0.36731,-0.171817 q 0.009,-2.23e-4 0.0188,-1.19e-4 z"
     fill="#e6e6e6"
     id="path48"
     style="stroke-width:0.495749" />
  <path
     d="m 750.35072,65.334014 a 0.51027956,0.51027956 0 0 1 0.34677,0.141709 0.5013759,0.5013759 0 0 1 0.15564,0.370751 l -0.16292,14.533273 a 0.50604586,0.50604586 0 0 1 -0.86777,0.34813 L 739.71,70.386133 a 0.50710676,0.50710676 0 0 1 0.0272,-0.734516 17.409748,17.409748 0 0 1 10.58208,-4.316984 c 0.0104,-5.25e-4 0.021,-7.19e-4 0.0314,-6.19e-4 z"
     fill="#dc5c01"
     id="path50"
     style="stroke-width:0.495749" />
  <path
     d="m 745.14119,106.90168 a 3.1001326,3.1001326 0 1 1 -3.06518,-3.13469 3.1036574,3.1036574 0 0 1 3.06518,3.13469 z"
     fill="#dc5c01"
     id="path52"
     style="stroke-width:0.495749" />
  <path
     d="m 753.99816,107.00097 a 3.1001326,3.1001326 0 1 1 -3.06518,-3.13469 3.1036673,3.1036673 0 0 1 3.06518,3.13469 z"
     fill="#3f3d56"
     id="path54"
     style="stroke-width:0.495749" />
  <path
     d="m 762.85512,107.10029 a 3.1001326,3.1001326 0 1 1 -3.06518,-3.1347 3.1036574,3.1036574 0 0 1 3.06518,3.1347 z"
     fill="#e6e6e6"
     id="path56"
     style="stroke-width:0.495749" />
  <rect
     x="714.2691"
     y="124.06523"
     width="71.881615"
     height="54.915771"
     fill="#f2f2f2"
     id="rect58"
     style="stroke-width:0.495749" />
  <rect
     x="717.84082"
     y="126.79398"
     width="64.738098"
     height="49.458298"
     fill="#ffffff"
     id="rect60"
     style="stroke-width:0.495749" />
  <circle
     cx="728.82489"
     cy="140.36137"
     r="2.6879668"
     fill="#3f3d56"
     id="circle62"
     style="stroke-width:0.495749" />
  <path
     d="m 772.01342,138.26967 a 1.8229341,1.8229341 0 1 1 0,3.64586 h -28.27039 a 1.8229341,1.8229341 0 1 1 0,-3.64586 h 28.27039 m 0,-0.44648 h -28.27039 a 2.26941,2.26941 0 1 0 0,4.53882 h 28.27039 a 2.26941,2.26941 0 1 0 0,-4.53882 z"
     fill="#3f3d56"
     id="path64"
     style="stroke-width:0.495749" />
  <path
     d="m 760.85843,142.362 h -21.28167 a 2.269405,2.269405 0 1 1 0,-4.53881 h 21.28167 a 2.269405,2.269405 0 0 1 0,4.53881 z"
     fill="#dc5c01"
     id="path66"
     style="stroke-width:0.495749" />
  <circle
     cx="728.82489"
     cy="151.52312"
     r="2.6879668"
     fill="#3f3d56"
     id="circle68"
     style="stroke-width:0.495749" />
  <path
     d="m 772.01342,149.43141 a 1.8229341,1.8229341 0 1 1 0,3.64586 h -28.27039 a 1.8229316,1.8229316 0 1 1 0,-3.64586 h 28.27039 m 0,-0.44647 h -28.27039 a 2.269405,2.269405 0 1 0 0,4.53881 h 28.27039 a 2.269405,2.269405 0 1 0 0,-4.53881 z"
     fill="#3f3d56"
     id="path70"
     style="stroke-width:0.495749" />
  <path
     d="m 768.89488,153.52372 h -29.31811 a 2.2694018,2.2694018 0 1 1 0,-4.5388 h 29.31811 a 2.2694018,2.2694018 0 0 1 0,4.5388 z"
     fill="#dc5c01"
     id="path72"
     style="stroke-width:0.495749" />
  <circle
     cx="728.82489"
     cy="162.68486"
     r="2.6879668"
     fill="#3f3d56"
     id="circle74"
     style="stroke-width:0.495749" />
  <path
     d="m 772.01342,160.59315 a 1.8229341,1.8229341 0 1 1 0,3.64586 h -28.27039 a 1.8229316,1.8229316 0 1 1 0,-3.64586 h 28.27039 m 0,-0.44647 h -28.27039 a 2.269405,2.269405 0 1 0 0,4.53881 h 28.27039 a 2.269405,2.269405 0 1 0 0,-4.53881 z"
     fill="#3f3d56"
     id="path76"
     style="stroke-width:0.495749" />
  <path
     d="m 751.48256,164.68548 h -11.9058 a 2.2694008,2.2694008 0 1 1 0,-4.5388 h 11.9058 a 2.2694008,2.2694008 0 0 1 0,4.5388 z"
     fill="#dc5c01"
     id="path78"
     style="stroke-width:0.495749" />
  <rect
     x="497.55478"
     y="70.222641"
     width="200.82468"
     height="102.92265"
     fill="#f2f2f2"
     id="rect80"
     style="stroke-width:0.495749" />
  <rect
     x="504.24896"
     y="75.336815"
     width="187.43636"
     height="92.694305"
     fill="#ffffff"
     id="rect82"
     style="stroke-width:0.495749" />
  <path
     d="M 668.43925,153.8897 H 531.80173 a 0.42763322,0.42763322 0 0 1 -0.42761,-0.42761 V 87.971733 a 0.427615,0.427615 0 1 1 0.85523,0 v 65.062747 h 136.2099 a 0.42761338,0.42761338 0 0 1 0,0.85522 z"
     fill="#3f3d56"
     id="path84"
     style="stroke-width:0.495749" />
  <path
     d="m 560.99522,149.18596 h -12.42771 a 1.2707836,1.2707836 0 0 1 -1.26936,-1.26926 v -17.13167 a 1.2707885,1.2707885 0 0 1 1.26936,-1.26927 h 12.42771 a 1.2707885,1.2707885 0 0 1 1.26938,1.26927 v 17.13167 a 1.2707836,1.2707836 0 0 1 -1.26938,1.26926 z"
     fill="#dc5c01"
     id="path86"
     style="stroke-width:0.495749" />
  <path
     d="M 583.65871,149.18596 H 571.231 a 1.2707836,1.2707836 0 0 1 -1.26937,-1.26926 v -33.38096 a 1.2707836,1.2707836 0 0 1 1.26937,-1.26928 h 12.42771 a 1.2707836,1.2707836 0 0 1 1.26937,1.26928 v 33.38096 a 1.2707836,1.2707836 0 0 1 -1.26937,1.26926 z"
     fill="#dc5c01"
     id="path88"
     style="stroke-width:0.495749" />
  <path
     d="m 606.3222,149.18596 h -12.42771 a 1.2707885,1.2707885 0 0 1 -1.26937,-1.26926 v -17.13167 a 1.2707885,1.2707885 0 0 1 1.26937,-1.26927 h 12.42771 a 1.2707885,1.2707885 0 0 1 1.26938,1.26927 v 17.13167 a 1.2707885,1.2707885 0 0 1 -1.26938,1.26926 z"
     fill="#dc5c01"
     id="path90"
     style="stroke-width:0.495749" />
  <path
     d="m 628.9857,149.18596 h -12.42772 a 1.2430117,1.2430117 0 0 1 -1.26938,-1.21177 v -39.91017 a 1.2430117,1.2430117 0 0 1 1.26938,-1.21176 h 12.42771 a 1.2430117,1.2430117 0 0 1 1.26938,1.21176 v 39.91016 a 1.2430117,1.2430117 0 0 1 -1.26937,1.21178 z"
     fill="#dc5c01"
     id="path92"
     style="stroke-width:0.495749" />
  <path
     d="m 651.64919,149.18596 h -12.42772 a 1.2707836,1.2707836 0 0 1 -1.26936,-1.26926 V 96.575986 a 1.2707836,1.2707836 0 0 1 1.26936,-1.269263 h 12.42772 a 1.2707836,1.2707836 0 0 1 1.26937,1.269263 V 147.9167 a 1.2707836,1.2707836 0 0 1 -1.26937,1.26926 z"
     fill="#dc5c01"
     id="path94"
     style="stroke-width:0.495749" />
  <circle
     cx="554.78137"
     cy="121.81872"
     r="2.5656803"
     fill="#3f3d56"
     id="circle96"
     style="stroke-width:0.495749" />
  <circle
     cx="577.44489"
     cy="105.14182"
     r="2.5656803"
     fill="#3f3d56"
     id="circle98"
     style="stroke-width:0.495749" />
  <circle
     cx="600.10834"
     cy="121.81872"
     r="2.5656803"
     fill="#3f3d56"
     id="circle100"
     style="stroke-width:0.495749" />
  <circle
     cx="622.77185"
     cy="97.017166"
     r="2.5656803"
     fill="#3f3d56"
     id="circle102"
     style="stroke-width:0.495749" />
  <circle
     cx="645.4353"
     cy="87.60968"
     r="2.5656803"
     fill="#3f3d56"
     id="circle104"
     style="stroke-width:0.495749" />
  <polygon
     points="257.945,204.425 303.266,154.83 303.447,154.756 349.163,136.337 349.808,137.937 304.274,156.283 258.163,206.744 212.339,172.421 167.14,206.275 166.106,204.895 212.339,170.265 "
     fill="#3f3d56"
     id="polygon106"
     transform="matrix(0.49574915,0,0,0.49574915,472.17817,19.90023)" />
  <path
     d="M 938.94941,332.9356 H 750.06899 a 0.49575,0.49575 0 0 1 0,-0.9915 h 188.88042 a 0.49575,0.49575 0 0 1 0,0.9915 z"
     fill="#cccccc"
     id="path108"
     style="stroke-width:0.495749" />
  <text
     xml:space="preserve"
     id="text117"
     style="font-style:normal;font-weight:normal;font-size:48px;line-height:1.25;font-family:sans-serif;white-space:pre;shape-inside:url(#rect119);fill:#333333;fill-opacity:1;stroke:none;"
     transform="translate(91.360145,37.086792)"><tspan
       x="39.800781"
       y="79.069199"><tspan
         style="font-style:normal;font-variant:normal;font-weight:bold;font-stretch:normal;font-size:48px;font-family:lora;-inkscape-font-specification:'lora Bold';fill:#333333">Technology
</tspan></tspan><tspan
       x="39.800781"
       y="139.13606"><tspan
         style="font-style:normal;font-variant:normal;font-weight:bold;font-stretch:normal;font-size:48px;font-family:lora;-inkscape-font-specification:'lora Bold';fill:#333333">as a
</tspan></tspan><tspan
       x="39.800781"
       y="199.20291"><tspan
         style="font-style:normal;font-variant:normal;font-weight:bold;font-stretch:normal;font-size:48px;font-family:lora;-inkscape-font-specification:'lora Bold';fill:#333333">Services</tspan></tspan></text>
</svg>
