<svg id="euB48ocU6IE1" xmlns="http://www.w3.org/2000/svg" xmlns:xlink="http://www.w3.org/1999/xlink" viewBox="0 0 996 674.00456" shape-rendering="geometricPrecision" text-rendering="geometricPrecision"><style><![CDATA[#euB48ocU6IE4_ts {animation: euB48ocU6IE4_ts__ts 3000ms linear infinite normal forwards}@keyframes euB48ocU6IE4_ts__ts { 0% {transform: translate(746.079773px,188.622452px) scale(0.999727,1);animation-timing-function: cubic-bezier(0.42,0,0.58,1)} 50% {transform: translate(746.079773px,188.622452px) scale(1.381575,1.412623);animation-timing-function: cubic-bezier(0.42,0,0.58,1)} 100% {transform: translate(746.079773px,188.622452px) scale(1,1)}} #euB48ocU6IE14_tr {animation: euB48ocU6IE14_tr__tr 3000ms linear infinite normal forwards}@keyframes euB48ocU6IE14_tr__tr { 0% {transform: translate(739.888179px,186.061371px) rotate(0deg)} 100% {transform: translate(739.888179px,186.061371px) rotate(360.409321deg)}}]]></style><ellipse id="euB48ocU6IE2" rx="87.1801" ry="86.5575" transform="matrix(1 0 0 1 640.62 333.118014)" fill="rgb(242,242,242)" stroke="none" stroke-width="0.625291"/><path id="euB48ocU6IE3" d="M746.07948,371.51017C658.200538,371.51046,582.559156,309.876889,565.414611,224.30211C548.270065,138.727332,594.397355,53.045135,675.586855,19.655363C756.776355,-13.734409,850.415637,14.467768,899.238621,87.014559C948.061605,159.56135,938.470397,256.247443,876.3306,317.94345C841.86155,352.353825,794.959611,371.642589,746.07948,371.51017ZM746.07948,7.130676C645.28501,7.130676,563.28246,88.547261,563.28246,188.62221C563.28246,288.69716,645.28501,370.11408,746.07948,370.11408C846.87395,370.11408,928.8765,288.69716,928.8765,188.62219C928.8765,88.547221,846.87393,7.130676,746.07948,7.130676Z" fill="rgb(47,46,65)" stroke="none" stroke-width="0.625291"/><g id="euB48ocU6IE4_ts" transform="translate(746.079773,188.622452) scale(0.999727,1)"><g id="euB48ocU6IE4" transform="translate(-746.079773,-188.622452)"><polygon id="euB48ocU6IE5" points="305.334,120.05 306.913,121.037 454.975,213.781 459.908,386.443 459.875,386.46 315.201,467.019 156.779,387.808 154.049,386.443 162.271,222.003" transform="matrix(0.627535 0 0 0.623054 553.44 5.73459)" fill="rgb(108,99,255)" stroke="none" stroke-width="1"/><polygon id="euB48ocU6IE6" points="156.779,387.808 297.112,289.424 459.875,386.46 315.201,467.019" transform="matrix(0.627535 0 0 0.623054 553.44 5.73459)" opacity="0.3" fill="rgb(0,0,0)" stroke="none" stroke-width="1"/><polygon id="euB48ocU6IE7" points="306.913,121.037 454.975,213.781 459.908,386.443 297.112,289.424" transform="matrix(0.627535 0 0 0.623054 553.44 5.73459)" opacity="0.1" fill="rgb(0,0,0)" stroke="none" stroke-width="1"/><polygon id="euB48ocU6IE8" points="160.165,272.745 159.361,271.607 304.021,169.5 456.834,265.309 456.094,266.49 304.066,171.173" transform="matrix(0.627535 0 0 0.623054 553.44 5.73459)" fill="rgb(242,242,242)" stroke="none" stroke-width="1"/><polygon id="euB48ocU6IE9" points="300.571,231.382 157.361,328.61 156.579,327.458 300.505,229.743 300.882,229.957 456.963,318.417 456.275,319.629" transform="matrix(0.627535 0 0 0.623054 553.44 5.73459)" fill="rgb(242,242,242)" stroke="none" stroke-width="1"/><polygon id="euB48ocU6IE10" points="212.276,415.965 211.542,414.781 356.595,324.9 356.595,152.594 357.988,152.594 357.988,325.676" transform="matrix(0.627535 0 0 0.623054 553.44 5.73459)" fill="rgb(242,242,242)" stroke="none" stroke-width="1"/><polygon id="euB48ocU6IE11" points="269.209,444.428 268.469,443.248 408.138,355.645 408.138,184.879 409.531,184.879 409.531,356.416" transform="matrix(0.627535 0 0 0.623054 553.44 5.73459)" fill="rgb(242,242,242)" stroke="none" stroke-width="1"/><polygon id="euB48ocU6IE12" points="408.289,414.764 407.612,415.982 245.176,325.73 245.199,325.296 253.75,156.281 255.141,156.352 246.612,324.933" transform="matrix(0.627535 0 0 0.623054 553.44 5.73459)" fill="rgb(242,242,242)" stroke="none" stroke-width="1"/><polygon id="euB48ocU6IE13" points="357.154,443.221 356.507,444.455 195.895,360.288 195.92,359.841 205.388,190.742 206.779,190.82 197.337,359.471" transform="matrix(0.627535 0 0 0.623054 553.44 5.73459)" fill="rgb(242,242,242)" stroke="none" stroke-width="1"/></g></g><g id="euB48ocU6IE14_tr" transform="translate(739.888179,186.061371) rotate(0)"><ellipse id="euB48ocU6IE14" rx="35.1533" ry="34.9022" transform="scale(0.992386,1) translate(119.384827,-140.538069)" fill="rgb(63,61,86)" stroke="none" stroke-width="0.625291"/></g><rect id="euB48ocU6IE15" width="963.51" height="2.24072" rx="0" ry="0" transform="matrix(1 0 0 1 32.4904 662.133)" fill="rgb(47,46,65)" stroke="none" stroke-width="1"/></svg>