<?xml version="1.0" encoding="UTF-8" standalone="no"?>
<svg
   xmlns:dc="http://purl.org/dc/elements/1.1/"
   xmlns:cc="http://creativecommons.org/ns#"
   xmlns:rdf="http://www.w3.org/1999/02/22-rdf-syntax-ns#"
   xmlns:svg="http://www.w3.org/2000/svg"
   xmlns="http://www.w3.org/2000/svg"
   xmlns:sodipodi="http://sodipodi.sourceforge.net/DTD/sodipodi-0.dtd"
   xmlns:inkscape="http://www.inkscape.org/namespaces/inkscape"
   id="euB48ocU6IE1"
   viewBox="0 0 996 674.00456"
   shape-rendering="geometricPrecision"
   text-rendering="geometricPrecision"
   version="1.1"
   sodipodi:docname="1mob.svg"
   inkscape:version="1.0.1 (3bc2e813f5, 2020-09-07)">
  <metadata
     id="metadata25">
    <rdf:RDF>
      <cc:Work
         rdf:about="">
        <dc:format>image/svg+xml</dc:format>
        <dc:type
           rdf:resource="http://purl.org/dc/dcmitype/StillImage" />
      </cc:Work>
    </rdf:RDF>
  </metadata>
  <defs
     id="defs23" />
  <sodipodi:namedview
     pagecolor="#ffffff"
     bordercolor="#666666"
     borderopacity="1"
     objecttolerance="10"
     gridtolerance="10"
     guidetolerance="10"
     inkscape:pageopacity="0"
     inkscape:pageshadow="2"
     inkscape:window-width="1920"
     inkscape:window-height="1009"
     id="namedview21"
     showgrid="false"
     inkscape:zoom="1.0461847"
     inkscape:cx="498"
     inkscape:cy="337.00229"
     inkscape:window-x="-8"
     inkscape:window-y="-8"
     inkscape:window-maximized="1"
     inkscape:current-layer="euB48ocU6IE1" />
  <style
     id="style2"><![CDATA[#euB48ocU6IE4_ts {animation: euB48ocU6IE4_ts__ts 3000ms linear infinite normal forwards}@keyframes euB48ocU6IE4_ts__ts { 0% {transform: translate(746.079773px,188.622452px) scale(0.999727,1);animation-timing-function: cubic-bezier(0.42,0,0.58,1)} 50% {transform: translate(746.079773px,188.622452px) scale(1.381575,1.412623);animation-timing-function: cubic-bezier(0.42,0,0.58,1)} 100% {transform: translate(746.079773px,188.622452px) scale(1,1)}} #euB48ocU6IE14_tr {animation: euB48ocU6IE14_tr__tr 3000ms linear infinite normal forwards}@keyframes euB48ocU6IE14_tr__tr { 0% {transform: translate(739.888179px,186.061371px) rotate(0deg)} 100% {transform: translate(739.888179px,186.061371px) rotate(360.409321deg)}}]]></style>
  <ellipse
     id="euB48ocU6IE2"
     rx="69.047539"
     ry="68.554436"
     fill="#f2f2f2"
     stroke="none"
     stroke-width="0.495237"
     cx="156.03064"
     cy="300.38815" />
  <path
     id="euB48ocU6IE3"
     d="M 239.55563,330.79514 C 169.95459,330.79537 110.04584,281.98095 96.467184,214.20484 82.888523,146.42873 119.42181,78.567546 183.72474,52.122502 c 64.30292,-26.445045 138.4662,-4.108629 177.13451,53.349178 38.6683,57.45781 31.07196,134.03419 -18.14339,182.89806 -27.29984,27.25337 -64.44667,42.53028 -103.16023,42.4254 z m 0,-288.59232 c -79.83026,0 -144.777131,64.48277 -144.777131,143.74317 0,79.26039 64.946871,143.74343 144.777131,143.74343 79.83026,0 144.77712,-64.48304 144.77712,-143.74345 0,-79.26041 -64.94688,-143.74315 -144.77712,-143.74315 z"
     fill="#2f2e41"
     stroke="none"
     stroke-width="0.495237" />
  <g
     id="euB48ocU6IE4_ts"
     transform="matrix(0.79179411,0,0,0.79201033,239.55586,185.94618)">
    <g
       id="euB48ocU6IE4"
       transform="translate(-746.07977,-188.62245)">
      <polygon
         id="euB48ocU6IE5"
         points="459.908,386.443 459.875,386.46 315.201,467.019 156.779,387.808 154.049,386.443 162.271,222.003 305.334,120.05 306.913,121.037 454.975,213.781 "
         transform="matrix(0.627535,0,0,0.623054,553.44,5.73459)"
         fill="#6c63ff"
         stroke="none"
         stroke-width="1" />
      <polygon
         id="euB48ocU6IE6"
         points="315.201,467.019 156.779,387.808 297.112,289.424 459.875,386.46 "
         transform="matrix(0.627535,0,0,0.623054,553.44,5.73459)"
         opacity="0.3"
         fill="#000000"
         stroke="none"
         stroke-width="1" />
      <polygon
         id="euB48ocU6IE7"
         points="297.112,289.424 306.913,121.037 454.975,213.781 459.908,386.443 "
         transform="matrix(0.627535,0,0,0.623054,553.44,5.73459)"
         opacity="0.1"
         fill="#000000"
         stroke="none"
         stroke-width="1" />
      <polygon
         id="euB48ocU6IE8"
         points="456.834,265.309 456.094,266.49 304.066,171.173 160.165,272.745 159.361,271.607 304.021,169.5 "
         transform="matrix(0.627535,0,0,0.623054,553.44,5.73459)"
         fill="#f2f2f2"
         stroke="none"
         stroke-width="1" />
      <polygon
         id="euB48ocU6IE9"
         points="300.505,229.743 300.882,229.957 456.963,318.417 456.275,319.629 300.571,231.382 157.361,328.61 156.579,327.458 "
         transform="matrix(0.627535,0,0,0.623054,553.44,5.73459)"
         fill="#f2f2f2"
         stroke="none"
         stroke-width="1" />
      <polygon
         id="euB48ocU6IE10"
         points="356.595,152.594 357.988,152.594 357.988,325.676 212.276,415.965 211.542,414.781 356.595,324.9 "
         transform="matrix(0.627535,0,0,0.623054,553.44,5.73459)"
         fill="#f2f2f2"
         stroke="none"
         stroke-width="1" />
      <polygon
         id="euB48ocU6IE11"
         points="408.138,184.879 409.531,184.879 409.531,356.416 269.209,444.428 268.469,443.248 408.138,355.645 "
         transform="matrix(0.627535,0,0,0.623054,553.44,5.73459)"
         fill="#f2f2f2"
         stroke="none"
         stroke-width="1" />
      <polygon
         id="euB48ocU6IE12"
         points="245.199,325.296 253.75,156.281 255.141,156.352 246.612,324.933 408.289,414.764 407.612,415.982 245.176,325.73 "
         transform="matrix(0.627535,0,0,0.623054,553.44,5.73459)"
         fill="#f2f2f2"
         stroke="none"
         stroke-width="1" />
      <polygon
         id="euB48ocU6IE13"
         points="195.92,359.841 205.388,190.742 206.779,190.82 197.337,359.471 357.154,443.221 356.507,444.455 195.895,360.288 "
         transform="matrix(0.627535,0,0,0.623054,553.44,5.73459)"
         fill="#f2f2f2"
         stroke="none"
         stroke-width="1" />
    </g>
  </g>
  <g
     id="euB48ocU6IE14_tr"
     transform="matrix(0.79201033,0,0,0.79201033,234.65205,183.91778)">
    <ellipse
       id="euB48ocU6IE14"
       rx="35.153301"
       ry="34.902199"
       transform="matrix(0.992386,0,0,1,118.47583,-140.53807)"
       fill="#3f3d56"
       stroke="none"
       stroke-width="0.625291"
       cx="0"
       cy="0" />
  </g>
  <rect
     id="euB48ocU6IE15"
     width="963.51"
     height="2.24072"
     rx="0"
     ry="0"
     transform="matrix(1 0 0 1 32.4904 662.133)"
     fill="rgb(47,46,65)"
     stroke="none"
     stroke-width="1" />
</svg>
