<?xml version="1.0" encoding="UTF-8" standalone="no"?>
<svg
   xmlns:dc="http://purl.org/dc/elements/1.1/"
   xmlns:cc="http://creativecommons.org/ns#"
   xmlns:rdf="http://www.w3.org/1999/02/22-rdf-syntax-ns#"
   xmlns:svg="http://www.w3.org/2000/svg"
   xmlns="http://www.w3.org/2000/svg"
   xmlns:sodipodi="http://sodipodi.sourceforge.net/DTD/sodipodi-0.dtd"
   xmlns:inkscape="http://www.inkscape.org/namespaces/inkscape"
   id="f0a8f4ba-cc2b-4400-9e08-d246a0bad060"
   data-name="Layer 1"
   width="1098.75"
   height="632.37039"
   viewBox="0 0 1098.75 632.37039"
   version="1.1"
   sodipodi:docname="baas3.svg"
   inkscape:version="1.0.1 (3bc2e813f5, 2020-09-07)">
  <metadata
     id="metadata97">
    <rdf:RDF>
      <cc:Work
         rdf:about="">
        <dc:format>image/svg+xml</dc:format>
        <dc:type
           rdf:resource="http://purl.org/dc/dcmitype/StillImage" />
      </cc:Work>
    </rdf:RDF>
  </metadata>
  <defs
     id="defs95" />
  <sodipodi:namedview
     pagecolor="#ffffff"
     bordercolor="#666666"
     borderopacity="1"
     objecttolerance="10"
     gridtolerance="10"
     guidetolerance="10"
     inkscape:pageopacity="0"
     inkscape:pageshadow="2"
     inkscape:window-width="1920"
     inkscape:window-height="1009"
     id="namedview93"
     showgrid="false"
     inkscape:zoom="0.9483504"
     inkscape:cx="549.375"
     inkscape:cy="316.18518"
     inkscape:window-x="-8"
     inkscape:window-y="-8"
     inkscape:window-maximized="1"
     inkscape:current-layer="f0a8f4ba-cc2b-4400-9e08-d246a0bad060" />
  <title
     id="title2">heatmap</title>
  <ellipse
     cx="553.59283"
     cy="539.37549"
     rx="422.83948"
     ry="24.31918"
     fill="#f2f2f2"
     id="ellipse4"
     style="stroke-width:0.769674" />
  <rect
     x="265.42123"
     width="635.22528"
     height="20.209291"
     fill="#f2f2f2"
     id="rect6"
     y="76.975769"
     style="stroke-width:0.769674" />
  <circle
     cx="282.41965"
     cy="86.782555"
     r="5.2302871"
     fill="#dc5c01"
     id="circle8"
     style="stroke-width:0.769674" />
  <circle
     cx="299.41806"
     cy="86.782555"
     r="5.2302871"
     fill="#dc5c01"
     id="circle10"
     style="stroke-width:0.769674" />
  <circle
     cx="316.41647"
     cy="86.782555"
     r="5.2302871"
     fill="#dc5c01"
     id="circle12"
     style="stroke-width:0.769674" />
  <polygon
     points="1000.285,592.903 1000.285,281.779 990.449,282.525 175.552,415.277 174.967,415.779 174.967,592.903 "
     fill="#3f3d56"
     id="polygon14"
     transform="matrix(0.7696737,0,0,0.7696737,130.75336,76.975768)" />
  <rect
     x="311.26407"
     y="212.16179"
     width="177.38695"
     height="7.1527014"
     fill="#3f3d56"
     id="rect16"
     style="stroke-width:0.769674" />
  <rect
     x="311.26407"
     y="227.89774"
     width="177.38695"
     height="7.1527014"
     fill="#3f3d56"
     id="rect18"
     style="stroke-width:0.769674" />
  <rect
     x="311.26407"
     y="243.63367"
     width="60.082676"
     height="7.1527014"
     fill="#3f3d56"
     id="rect20"
     style="stroke-width:0.769674" />
  <rect
     x="673.01068"
     y="410.73761"
     width="177.38695"
     height="7.1527014"
     fill="#ffffff"
     id="rect22"
     style="stroke-width:0.769674" />
  <rect
     x="673.01068"
     y="426.47354"
     width="177.38695"
     height="7.1527014"
     fill="#ffffff"
     id="rect24"
     style="stroke-width:0.769674" />
  <rect
     x="673.01068"
     y="442.20947"
     width="60.082676"
     height="7.1527014"
     fill="#ffffff"
     id="rect26"
     style="stroke-width:0.769674" />
  <circle
     cx="562.79852"
     cy="519.74536"
     r="6.9777079"
     fill="#f2f2f2"
     id="circle28"
     style="stroke-width:0.769674" />
  <circle
     cx="583.03381"
     cy="520.44312"
     r="6.9777079"
     fill="#f2f2f2"
     id="circle30"
     style="stroke-width:0.769674" />
  <circle
     cx="603.26923"
     cy="521.14093"
     r="6.9777079"
     fill="#f2f2f2"
     id="circle32"
     style="stroke-width:0.769674" />
  <circle
     cx="583.09784"
     cy="520.44312"
     r="5.5821662"
     fill="#3f3d56"
     id="circle34"
     style="stroke-width:0.769674" />
  <rect
     x="369.75928"
     y="294.03427"
     width="60.082676"
     height="13.707935"
     fill="#3f3d56"
     id="rect36"
     style="stroke-width:0.769674" />
  <rect
     x="726.88788"
     y="479.52563"
     width="60.082676"
     height="13.707935"
     fill="#ffffff"
     id="rect38"
     style="stroke-width:0.769674" />
  <circle
     cx="400.13916"
     cy="300.96133"
     r="41.562382"
     fill="#dc5c01"
     opacity="0.3"
     id="circle40"
     style="stroke-width:0.769674" />
  <circle
     cx="400.13916"
     cy="300.96133"
     r="27.708254"
     fill="#dc5c01"
     opacity="0.3"
     id="circle42"
     style="stroke-width:0.769674" />
  <circle
     cx="400.13916"
     cy="300.96133"
     r="19.241842"
     fill="#dc5c01"
     id="circle44"
     style="stroke-width:0.769674" />
  <circle
     cx="749.85962"
     cy="197.95709"
     r="41.562382"
     fill="#dc5c01"
     opacity="0.3"
     id="circle46"
     style="stroke-width:0.769674" />
  <circle
     cx="749.85962"
     cy="197.95709"
     r="27.708254"
     fill="#dc5c01"
     opacity="0.3"
     id="circle48"
     style="stroke-width:0.769674" />
  <circle
     cx="749.85962"
     cy="197.95709"
     r="19.241842"
     fill="#dc5c01"
     id="circle50"
     style="stroke-width:0.769674" />
  <circle
     cx="757.26776"
     cy="486.4527"
     r="41.562382"
     fill="#dc5c01"
     opacity="0.3"
     id="circle52"
     style="stroke-width:0.769674" />
  <circle
     cx="757.26776"
     cy="486.4527"
     r="27.708254"
     fill="#dc5c01"
     opacity="0.3"
     id="circle54"
     style="stroke-width:0.769674" />
  <circle
     cx="757.26776"
     cy="486.4527"
     r="19.241842"
     fill="#dc5c01"
     id="circle56"
     style="stroke-width:0.769674" />
  <rect
     x="-223.17757"
     y="-153.27878"
     width="17.119328"
     height="22.010567"
     transform="rotate(-177.77929)"
     fill="#dc5c01"
     id="rect58"
     style="stroke-width:0.769674" />
  <path
     d="m 277.98417,216.18213 c 0,0 23.68975,-11.31863 23.3107,-1.54351 -0.37906,9.77513 -23.87929,16.2062 -23.87929,16.2062 z"
     fill="#ffb9b9"
     id="path60"
     style="stroke-width:0.769674" />
  <path
     d="m 264.98702,298.89165 c 0,0 11.17649,27.35541 15.30594,47.09523 4.12944,19.73982 10.41836,46.90568 2.32889,66.17163 -8.08947,19.26596 -31.08859,75.88932 -31.3255,81.99878 -0.23692,6.10945 1.96995,12.31368 -2.91761,12.12414 -4.88756,-0.18953 -31.48487,-8.56329 -32.56462,-12.27635 -1.07974,-3.71305 9.07446,-13.10908 9.07446,-13.10908 l 25.07391,-78.57001 -26.16082,-51.18738 -18.86969,76.36317 -3.69585,95.30749 c 0,0 -18.13883,-5.5983 -20.77214,-0.8055 0,0 -8.12679,-11.3287 -9.15915,-16.26365 -1.03236,-4.93495 3.838,-98.97315 3.838,-98.97315 0,0 -16.64986,-107.11002 -3.20906,-106.58881 13.44081,0.52122 66.08694,-31.70169 93.05324,-1.28651 z"
     fill="#2f2e41"
     id="path62"
     style="stroke-width:0.769674" />
  <path
     d="m 248.56826,501.39385 c 0,0 12.39838,27.40281 13.5729,28.67209 1.17451,1.26927 9.25391,13.81986 3.14446,13.58294 -6.10945,-0.23691 -20.53523,-6.91496 -31.15319,-17.11653 -10.61796,-10.20157 -24.61729,-27.87664 -23.34802,-29.05114 1.26928,-1.17451 9.96466,-4.5085 9.96466,-4.5085 z"
     fill="#2f2e41"
     id="path64"
     style="stroke-width:0.769674" />
  <path
     d="m 199.02927,516.60502 c 0,0 0.74806,12.26629 3.00231,17.24862 2.25425,4.98233 1.96996,12.31367 -4.13949,12.07676 -6.10946,-0.23692 -21.89928,-3.29667 -21.89928,-3.29667 0,0 -0.93759,-7.37873 0.33168,-8.55324 1.26927,-1.1745 6.67805,-14.42578 4.37642,-18.18621 -2.30164,-3.76043 18.32836,0.71074 18.32836,0.71074 z"
     fill="#2f2e41"
     id="path66"
     style="stroke-width:0.769674" />
  <path
     d="m 189.99082,118.54284 c 0,0 -13.02442,20.29832 -18.10151,24.99635 -5.07709,4.69804 9.20653,15.04174 9.20653,15.04174 l 25.56495,3.43881 c 0,0 -0.32162,-23.26331 0.99504,-25.6597 1.31665,-2.3964 -17.66501,-17.8172 -17.66501,-17.8172 z"
     fill="#ffb9b9"
     id="path68"
     style="stroke-width:0.769674" />
  <path
     d="m 212.21171,145.10282 c 0,0 -5.26662,9.5856 -10.15419,9.39607 -4.88757,-0.18954 -30.16821,-10.9597 -31.24798,-14.67276 -1.07978,-3.71306 -8.37377,26.59731 -8.37377,26.59731 l 61.85988,108.86316 15.08914,-10.42842 -7.31123,-63.91739 -6.00464,-34.49723 z"
     fill="#dc5c01"
     id="path70"
     style="stroke-width:0.769674" />
  <path
     d="m 168.52787,242.53083 c 2.46757,5.16194 4.00873,10.54489 3.79503,16.05563 -0.01,0.24439 -0.0189,0.48874 -0.0406,0.73263 -0.58539,11.30904 -4.75151,24.38823 -6.24616,33.89983 -1.08453,6.82304 -0.7759,11.80335 3.217,12.9739 9.68037,2.82284 -1.41142,4.84018 36.04074,17.30606 37.45216,12.46589 43.98808,1.70578 44.08284,-0.73801 0.0948,-2.44378 -5.30394,-21.00905 -4.03467,-22.18353 1.26927,-1.17448 17.75977,15.37346 22.7421,13.11918 4.98233,-2.25428 0.56859,-14.66269 0.56859,-14.66269 0,0 -11.22388,-26.1335 -10.98696,-32.24299 0.23691,-6.10948 -17.00165,-34.92368 -17.00165,-34.92368 L 228.93914,155.5413 c 0,0 -4.5085,-9.96466 -10.57057,-11.42346 -6.06208,-1.4588 -11.09177,2.01732 -11.09177,2.01732 l 10.14417,22.4205 10.70267,39.57431 -1.79048,14.61533 c 0,0 -12.44577,-26.18091 -20.61995,-36.28772 -8.17418,-10.1068 -25.60226,-34.03347 -25.60226,-34.03347 0,0 -4.06885,-13.72896 -0.99727,-17.83173 3.07205,-4.11492 -12.81253,-4.7309 -19.58535,12.13867 -3.58962,8.94084 -9.41758,22.27377 -13.06845,34.68765 -3.25328,10.99749 -4.79002,21.2784 -1.56697,27.15494 4.92608,8.97739 17.31768,20.77739 23.63501,33.95719 z"
     fill="#575a89"
     id="path72"
     style="stroke-width:0.769674" />
  <path
     d="m 144.89283,208.57364 c 4.92614,8.97739 17.31771,20.77739 23.63504,33.95719 1.65001,-5.94457 3.66295,-12.09524 3.66295,-12.09524 0,0 7.72046,-41.30738 -15.11639,-51.98278 a 15.283888,15.283888 0 0 0 -10.61462,2.96589 c -3.25329,10.99749 -4.79003,21.27842 -1.56698,27.15494 z"
     opacity="0.1"
     id="path74"
     style="stroke-width:0.769674" />
  <path
     d="m 235.54967,205.9705 19.36073,5.64569 26.88162,1.04241 2.76544,23.35806 -44.17767,3.18184 c 0,0 -11.03431,-31.02113 -4.83012,-33.228 z"
     fill="#575a89"
     id="path76"
     style="stroke-width:0.769674" />
  <path
     d="m 203.97934,284.50765 c 0,0 25.90078,4.29719 19.9892,12.09142 -5.91158,7.79423 -28.85656,-0.40007 -28.85656,-0.40007 z"
     fill="#ffb9b9"
     id="path78"
     style="stroke-width:0.769674" />
  <path
     d="m 172.28225,259.31909 c -0.58539,11.30904 -4.75151,24.38823 -6.24617,33.89983 8.25103,7.80917 16.09725,14.6971 19.05421,14.81176 6.10945,0.23692 15.93196,-0.60591 19.55025,0.75813 3.61829,1.36404 5.74046,-21.80451 5.74046,-21.80451 0,0 -2.15949,-7.42611 -11.79248,-11.47084 -6.50205,-2.73634 -18.9655,-10.15817 -26.30627,-16.19437 z"
     opacity="0.1"
     id="path80"
     style="stroke-width:0.769674" />
  <path
     d="m 157.35871,171.12147 c 0,0 -20.67738,-3.24929 -19.56032,31.05842 1.11707,34.30771 -2.1796,56.20696 6.13673,62.64811 8.31632,6.44116 35.33001,35.63443 41.43946,35.87134 6.10946,0.23691 15.93197,-0.60592 19.55026,0.75813 3.61829,1.36405 5.74045,-21.8045 5.74045,-21.8045 0,0 -2.1595,-7.42612 -11.79246,-11.47087 -9.63297,-4.04474 -32.3277,-18.3858 -32.13818,-23.27339 0.18953,-4.88759 5.74046,-21.80451 5.74046,-21.80451 0,0 7.72047,-41.30733 -15.1164,-51.98273 z"
     fill="#575a89"
     id="path82"
     style="stroke-width:0.769674" />
  <circle
     cx="208.22441"
     cy="121.69737"
     r="26.901806"
     fill="#ffb9b9"
     id="circle84"
     style="stroke-width:0.769674" />
  <path
     d="m 226.33808,83.139253 a 5.1945663,5.1945663 0 0 0 2.26193,1.1351 1.6141289,1.6141289 0 0 0 1.87053,-1.295708 c 0.6155,1.276435 1.30993,2.636849 2.56657,3.29181 1.25664,0.654962 3.19978,0.105761 3.38091,-1.299702 a 5.9311056,5.9311056 0 0 0 1.36513,2.881597 c 0.77968,0.743382 2.19357,0.931005 2.87426,0.09607 -0.55032,3.007462 -0.21065,6.100326 -0.38348,9.152837 -0.17282,3.052513 -0.9868,6.288613 -3.29302,8.295843 -3.36338,2.92733 -8.42107,2.20487 -12.84531,1.65026 a 3.8989746,3.8989746 0 0 0 -2.013,0.11012 c -1.65658,0.70579 -1.58143,3.01181 -1.60376,4.81233 a 13.371349,13.371349 0 0 1 -11.70844,12.69768 6.7027881,6.7027881 0 0 1 -4.98167,-1.2158 c -1.25615,-1.06474 -1.8978,-2.80012 -3.33719,-3.59995 -2.3414,-1.30106 -5.18108,0.59639 -6.89295,2.65659 -1.71187,2.0602 -3.39903,4.59444 -6.05096,4.97157 -3.50733,0.49875 -6.17868,-3.07562 -7.48928,-6.36687 a 37.115975,37.115975 0 0 1 0.73763,-28.839505 c 7.3234,-15.963856 32.34031,-18.488855 45.5421,-9.134272 z"
     fill="#2f2e41"
     id="path86"
     style="stroke-width:0.769674" />
  <path
     d="m 872.12024,510.89435 c 9.47449,16.15729 28.58297,22.55416 28.58297,22.55416 0,0 3.74728,-19.79927 -5.72721,-35.95657 -9.47448,-16.1573 -28.58296,-22.55417 -28.58296,-22.55417 0,0 -3.74729,19.79928 5.7272,35.95658 z"
     fill="#f2f2f2"
     id="path88"
     style="stroke-width:0.769674" />
  <path
     d="m 878.03226,505.25509 c 16.38508,9.07485 23.24928,28.02047 23.24928,28.02047 0,0 -19.70128,4.23238 -36.08637,-4.84248 -16.38509,-9.07485 -23.24928,-28.02046 -23.24928,-28.02046 0,0 19.70128,-4.23238 36.08637,4.84247 z"
     fill="#dc5c01"
     id="path90"
     style="stroke-width:0.769674" />
</svg>
