<?xml version="1.0" encoding="UTF-8" standalone="no"?>
<svg
   xmlns:dc="http://purl.org/dc/elements/1.1/"
   xmlns:cc="http://creativecommons.org/ns#"
   xmlns:rdf="http://www.w3.org/1999/02/22-rdf-syntax-ns#"
   xmlns:svg="http://www.w3.org/2000/svg"
   xmlns="http://www.w3.org/2000/svg"
   xmlns:sodipodi="http://sodipodi.sourceforge.net/DTD/sodipodi-0.dtd"
   xmlns:inkscape="http://www.inkscape.org/namespaces/inkscape"
   id="bdb04d07-607e-4453-aab0-0c653d7063a3"
   data-name="Layer 1"
   width="883.92913"
   height="713.74554"
   viewBox="0 0 883.92913 713.74554"
   version="1.1"
   sodipodi:docname="baas4.svg"
   inkscape:version="1.0.1 (3bc2e813f5, 2020-09-07)">
  <metadata
     id="metadata163">
    <rdf:RDF>
      <cc:Work
         rdf:about="">
        <dc:format>image/svg+xml</dc:format>
        <dc:type
           rdf:resource="http://purl.org/dc/dcmitype/StillImage" />
      </cc:Work>
    </rdf:RDF>
  </metadata>
  <defs
     id="defs161" />
  <sodipodi:namedview
     pagecolor="#ffffff"
     bordercolor="#666666"
     borderopacity="1"
     objecttolerance="10"
     gridtolerance="10"
     guidetolerance="10"
     inkscape:pageopacity="0"
     inkscape:pageshadow="2"
     inkscape:window-width="1920"
     inkscape:window-height="1009"
     id="namedview159"
     showgrid="false"
     inkscape:zoom="0.58941376"
     inkscape:cx="868.52453"
     inkscape:cy="494.10561"
     inkscape:window-x="-8"
     inkscape:window-y="-8"
     inkscape:window-maximized="1"
     inkscape:current-layer="bdb04d07-607e-4453-aab0-0c653d7063a3" />
  <title
     id="title2">real_time_collaboration</title>
  <path
     d="m 503.4745,382.92288 c -11.02452,6.61173 -30.66638,14.89626 -50.73826,6.38234 l -12.9749,-5.50368 26.0008,-29.1466 a 124.17656,124.17656 0 1 1 37.71236,28.26792 z M 453.65689,271.03587 a 103.19263,103.19263 0 0 0 32.85516,75.92354 l 7.17195,6.73967 -16.36135,18.34048 c 8.52237,-1.72917 15.94512,-6.33951 19.70892,-9.01722 l 5.16438,-3.67474 5.55439,3.05194 a 104.25773,104.25773 0 0 0 50.07996,12.80976 c 57.44128,0 104.1734,-46.73182 104.1734,-104.1734 0,-57.4413 -46.73212,-104.17341 -104.1734,-104.17341 -57.44129,0 -104.17341,46.73211 -104.17341,104.17341 z"
     fill="#3f3d56"
     id="path4"
     style="stroke-width:0.591222" />
  <path
     d="m 443.55699,271.0359 c 0,-63.11143 51.16193,-114.27332 114.27332,-114.27332 63.1114,0 114.27332,51.16189 114.27332,114.27332 0,63.11144 -51.16193,114.27332 -114.27333,114.27332 a 113.75319,113.75319 0 0 1 -54.94358,-14.05721 c -7.89926,5.62033 -27.16961,16.83063 -46.20656,8.75553 l 22.91543,-25.68764 a 113.94936,113.94936 0 0 1 -36.0386,-83.284 z"
     fill="#dc5c01"
     id="path6"
     style="stroke-width:0.591222" />
  <path
     d="m 652.63655,271.28354 c 0,-59.70712 -45.79384,-108.71016 -104.17341,-113.82398 3.32863,-0.29157 6.69564,-0.44933 10.09993,-0.44933 63.11142,0 114.27331,51.16188 114.27331,114.27333 0,63.11142 -51.16191,114.2733 -114.27331,114.2733 -3.39915,0 -6.76032,-0.15982 -10.08393,-0.45074 58.37189,-5.12134 104.15741,-54.12096 104.15741,-113.82258 z"
     opacity="0.1"
     style="isolation:isolate;stroke-width:0.591222"
     id="path8" />
  <path
     d="m 294.49984,541.67283 a 124.50561,124.50561 0 1 1 92.06814,-40.75416 l 26.0008,29.14659 -12.97489,5.50369 c -20.07189,8.51391 -39.71375,0.22939 -50.73827,-6.38233 a 124.66272,124.66272 0 0 1 -54.35578,12.48621 z m 0,-228.54664 c -57.44129,0 -104.17341,46.73211 -104.17341,104.1734 0,57.44157 46.73212,104.1734 104.17341,104.1734 a 104.2577,104.2577 0 0 0 50.07996,-12.80975 l 5.5544,-3.05196 5.16436,3.67474 c 3.76381,2.67773 11.18656,7.28806 19.70893,9.01723 l -16.36135,-18.34048 7.17195,-6.73966 a 103.19264,103.19264 0 0 0 32.85516,-75.92352 c -3e-5,-57.44129 -46.73214,-104.1734 -104.17341,-104.1734 z"
     fill="#3f3d56"
     id="path10"
     style="stroke-width:0.591222" />
  <path
     d="m 408.77307,417.29947 c 0,-63.11143 -51.16193,-114.27332 -114.27333,-114.27332 -63.1114,0 -114.27332,51.16189 -114.27332,114.27332 0,63.11144 51.16193,114.27332 114.27332,114.27332 a 113.75321,113.75321 0 0 0 54.94359,-14.05721 c 7.89925,5.62034 27.16961,16.83064 46.20654,8.75553 l -22.91542,-25.68766 a 113.94936,113.94936 0 0 0 36.03862,-83.28398 z"
     fill="#dc5c01"
     id="path12"
     style="stroke-width:0.591222" />
  <path
     d="m 200.42626,416.72231 c 0,-59.70711 45.79385,-108.71016 104.17341,-113.82397 -3.32862,-0.29158 -6.69563,-0.44934 -10.09993,-0.44934 -63.11142,0 -114.27331,51.1619 -114.27331,114.27332 0,63.11144 51.16189,114.27333 114.27331,114.27333 3.39915,0 6.76032,-0.15982 10.08393,-0.45076 -58.3719,-5.12133 -104.15741,-54.12096 -104.15741,-113.82258 z"
     opacity="0.1"
     style="isolation:isolate;stroke-width:0.591222"
     id="path14" />
  <path
     d="m 584.65701,234.73135 c -7.47672,-12.63334 -22.2688,-13.22209 -22.2688,-13.22209 0,0 -14.41406,-1.84326 -23.66058,17.39747 -8.6185,17.93395 -20.51311,35.24953 -1.91493,39.44775 l 3.35937,-10.45588 2.08044,11.2343 a 72.768799,72.768799 0 0 0 7.95746,0.13598 c 19.91716,-0.64305 38.88523,0.18814 38.27449,-6.95898 -0.81189,-9.50107 3.36665,-25.42275 -3.82745,-37.57855 z"
     fill="#2f2e41"
     id="path16"
     style="stroke-width:0.591222" />
  <path
     d="m 535.75078,345.36755 a 29.492075,29.492075 0 0 1 -0.95376,4.10572 c -0.46785,1.3156 -1.19019,2.53228 -1.61797,3.86147 -1.36359,4.23684 0.52675,8.9608 3.54592,12.23109 a 19.958837,19.958837 0 0 0 9.73105,5.77832 39.701747,39.701747 0 0 0 8.36257,0.87879 c 7.77243,0.26356 15.74484,0.49937 23.10969,-1.99849 a 40.152069,40.152069 0 0 0 6.71407,-3.05015 5.0268541,5.0268541 0 0 0 1.74214,-1.37175 4.7941728,4.7941728 0 0 0 0.62868,-2.8141 c -0.0166,-3.29494 -0.68451,-6.57309 -0.5259,-9.86425 0.0878,-1.82297 0.42901,-3.64453 0.26107,-5.46188 a 10.076003,10.076003 0 0 0 -7.70059,-8.67949 c -2.08924,-0.44865 -4.25621,-0.20418 -6.38328,3.5e-4 a 162.75411,162.75411 0 0 1 -16.61269,0.74281 c -5.6672,-0.0362 -11.29943,-0.90127 -16.93843,-0.99161 -1.66761,-0.0267 -1.63392,0.48738 -2.16483,2.10133 a 39.314118,39.314118 0 0 0 -1.19774,4.53184 z"
     fill="#2f2e41"
     id="path18"
     style="stroke-width:0.591222" />
  <path
     d="m 551.83386,264.00737 c -0.27234,1.42603 -0.56671,2.90418 -1.42367,4.07605 -0.98594,1.34829 -2.5935,2.11867 -3.65418,3.40899 -1.59651,1.94223 -1.68815,4.67523 -1.69474,7.1894 -0.006,2.31611 0.041,4.78648 1.33257,6.70901 a 11.724739,11.724739 0 0 0 3.36025,2.96257 c 4.84372,3.26423 10.07785,6.58707 15.91781,6.69471 2.4197,0.0446 5.01418,-0.58028 6.60631,-2.40293 a 9.9192579,9.9192579 0 0 0 1.5995,-2.85364 37.894298,37.894298 0 0 0 2.68238,-11.53593 13.545424,13.545424 0 0 0 -0.51065,-5.54162 c -0.70946,-1.97804 -2.14396,-3.60557 -3.09204,-5.48097 a 12.201836,12.201836 0 0 1 -1.1744,-7.22044 0.7793549,0.7793549 0 0 0 -0.0412,-0.52326 0.76220353,0.76220353 0 0 0 -0.62814,-0.25453 l -11.57967,-0.83362 a 25.200588,25.200588 0 0 1 -3.21506,-0.36781 c -0.62424,-0.12692 -2.27299,-1.01349 -2.8682,-0.77774 -1.10186,0.4364 -1.39102,5.56923 -1.61686,6.75176 z"
     fill="#a0616a"
     id="path20"
     style="stroke-width:0.591222" />
  <path
     d="m 551.83386,264.36883 c -0.27234,1.42604 -0.56671,2.90417 -1.42367,4.07607 -0.98594,1.34827 -2.5935,2.11866 -3.65418,3.40897 -1.59651,1.94223 -1.68815,4.67525 -1.69474,7.18941 -0.006,2.3161 0.041,4.78648 1.33257,6.70902 a 11.724714,11.724714 0 0 0 3.36023,2.96257 c 4.84371,3.26423 10.07785,6.58707 15.91781,6.69472 2.41971,0.0446 5.01418,-0.58029 6.60631,-2.40295 a 9.9191756,9.9191756 0 0 0 1.59951,-2.85363 37.894303,37.894303 0 0 0 2.68237,-11.53593 13.545413,13.545413 0 0 0 -0.51065,-5.54162 c -0.70946,-1.97804 -2.14395,-3.60557 -3.09203,-5.48098 a 12.201825,12.201825 0 0 1 -1.17439,-7.22044 0.77934306,0.77934306 0 0 0 -0.0412,-0.52325 0.76218581,0.76218581 0 0 0 -0.62814,-0.25454 l -11.57967,-0.83362 a 25.199524,25.199524 0 0 1 -3.21506,-0.3678 c -0.62424,-0.12693 -2.27299,-1.01349 -2.8682,-0.77774 -1.10186,0.43642 -1.39102,5.56921 -1.61686,6.75174 z"
     opacity="0.1"
     id="path22"
     style="stroke-width:0.591222" />
  <circle
     cx="562.90778"
     cy="248.57133"
     r="16.988779"
     fill="#a0616a"
     id="circle24"
     style="stroke-width:0.591222" />
  <path
     d="m 554.21662,286.6221 a 10.419273,10.419273 0 0 0 2.984,2.3844 9.3763688,9.3763688 0 0 0 3.72786,0.7098 c 3.06239,0.0861 6.38225,-0.47499 8.51257,-2.67664 2.74612,-2.83805 2.65568,-7.41554 4.80817,-10.72649 a 2.3893354,2.3893354 0 0 1 0.69362,-0.75858 2.2483822,2.2483822 0 0 1 1.17973,-0.27124 c 2.71853,-0.0255 5.08664,1.73774 7.22385,3.41805 a 9.5155367,9.5155367 0 0 1 2.54266,2.59013 8.7789329,8.7789329 0 0 1 0.85743,2.62582 c 1.06058,5.1773 1.40406,10.47091 1.74495,15.74472 0.18829,2.91295 0.37666,5.82871 0.36267,8.74772 -0.0462,9.61688 -2.28137,19.07293 -4.5042,28.4295 -0.28641,1.20559 -0.67837,2.55316 -1.77474,3.13063 a 4.376226,4.376226 0 0 1 -1.5486,0.37796 c -6.36661,0.74772 -12.74639,1.49633 -19.156,1.59505 q -3.752,0.0578 -7.50073,-0.18165 a 4.0405656,4.0405656 0 0 1 -1.26354,-0.22027 3.5631005,3.5631005 0 0 1 -1.37749,-1.16979 c -3.46703,-4.36892 -3.67169,-10.40903 -3.64953,-15.98641 q 0.0813,-20.45438 1.46162,-40.87607 c 0.0759,-1.12372 0.0926,-2.48844 -0.71715,-3.37246 a 42.218946,42.218946 0 0 0 5.39285,6.48582 z"
     fill="#ffffff"
     id="path26"
     style="stroke-width:0.591222" />
  <path
     d="m 550.61807,267.00598 c -0.5738,1.03865 -4.80408,3.6178 -5.62076,4.47866 -4.56305,4.80969 -12.89121,4.62922 -17.06444,9.7808 -1.46827,1.81248 -2.23111,4.08985 -2.79216,6.35395 -0.7935,3.20219 -1.21719,6.69445 0.11207,9.71384 1.27904,2.90531 3.97159,4.91389 5.79965,7.50911 2.0072,2.84949 2.90966,6.30936 3.77452,9.68581 0.63859,2.49304 1.28245,5.04785 1.03376,7.60934 -0.28277,2.91236 -1.69209,5.57904 -2.52418,8.38429 -0.83212,2.80524 -0.97572,6.14635 0.94822,8.35091 1.41345,1.61964 3.6305,2.26174 5.74963,2.62294 a 66.055538,66.055538 0 0 0 8.19496,0.71342 c 2.42245,0.10701 5.09268,0.12784 6.95493,-1.42513 1.46942,-1.22535 2.10807,-3.21382 2.19073,-5.1253 0.0826,-1.91148 -0.31505,-3.80607 -0.56417,-5.70307 -0.25823,-1.96652 -0.35747,-3.95018 -0.44051,-5.93185 q -0.55885,-13.33724 -0.15254,-26.69165 a 22.714812,22.714812 0 0 0 -0.27018,-5.53874 c -0.51952,-2.38157 -1.80666,-4.50996 -2.88065,-6.69819 a 25.347465,25.347465 0 0 1 -2.81037,-13.39008 c 0.32528,-4.76497 2.40326,-8.39514 0.36149,-4.69906 z"
     fill="#ffffff"
     id="path28"
     style="stroke-width:0.591222" />
  <path
     d="m 574.47465,267.36743 c 0.87397,0.89825 3.84372,1.19437 4.95549,1.77286 a 17.363223,17.363223 0 0 0 3.25758,1.12789 42.291354,42.291354 0 0 1 11.44386,5.25232 6.9451215,6.9451215 0 0 1 1.91374,1.65302 7.5770375,7.5770375 0 0 1 1.05859,2.98942 c 0.54439,2.69656 1.09148,5.42565 0.96914,8.17387 -0.12985,2.91723 -1.00856,5.74255 -1.88031,8.52952 l -3.25726,10.41351 c -2.43132,7.77294 -4.87807,15.62243 -5.56222,23.73796 a 55.837871,55.837871 0 0 0 0.50116,13.48229 1.5983808,1.5983808 0 0 1 -0.16431,1.30583 1.286115,1.286115 0 0 1 -0.79764,0.36701 c -1.57209,0.24582 -3.09351,-0.55574 -4.51787,-1.26505 a 50.030249,50.030249 0 0 0 -13.79169,-4.51274 32.062891,32.062891 0 0 0 4.28365,-8.8305 53.444391,53.444391 0 0 0 1.29425,-6.07303 l 1.51523,-8.76373 a 86.115003,86.115003 0 0 0 1.29981,-9.69125 12.132232,12.132232 0 0 0 -0.21091,-3.65068 17.71065,17.71065 0 0 0 -1.38391,-3.29228 c -2.49719,-5.19443 -3.66888,-11.1222 -2.68634,-16.80135 0.43,-2.48536 1.26561,-4.97404 0.91717,-7.47214 -0.33501,-2.40181 0.0131,-4.26845 -0.60309,-6.6454 -2.53022,-9.75954 -0.19836,-3.49725 1.44588,-1.80735 z"
     fill="#ffffff"
     id="path30"
     style="stroke-width:0.591222" />
  <path
     d="m 527.88966,289.47825 c -1.13845,2.36243 -3.04174,4.375 -3.68954,6.91616 a 15.109799,15.109799 0 0 0 -0.32169,3.61479 17.170816,17.170816 0 0 0 0.53624,5.43544 c 0.36156,1.12061 0.94976,2.15406 1.37351,3.25266 a 11.793817,11.793817 0 0 1 0.77256,4.81883 c -0.11432,2.27562 -0.88742,4.48456 -0.94782,6.76224 -0.095,3.58185 1.56169,6.94907 3.17825,10.14679 a 7.4592542,7.4592542 0 0 1 10.84237,-3.54965 2.2235035,2.2235035 0 0 0 0.48867,-1.62081 q 0.17924,-6.23325 0.34578,-12.46683 c 0.175,-6.42712 0.34169,-12.9401 -1.13679,-19.1973 -0.66754,-2.82514 -1.70622,-5.63936 -3.61033,-7.83061 -1.00263,-1.15381 -4.40628,-4.19295 -6.05211,-2.90041 -0.74015,0.58127 -0.56716,2.16355 -0.68444,2.96479 a 12.578309,12.578309 0 0 1 -1.09466,3.65391 z"
     fill="#ffffff"
     id="path32"
     style="stroke-width:0.591222" />
  <path
     d="m 598.40585,282.67028 a 17.387316,17.387316 0 0 1 0.58138,5.22936 q 0.0328,5.38846 -0.14282,10.7755 a 20.088185,20.088185 0 0 1 -0.69998,5.45544 c -0.36764,1.15608 -0.93499,2.24021 -1.31468,3.39242 -1.1379,3.45307 -0.51618,7.19825 -0.41858,10.83266 a 12.308476,12.308476 0 0 1 -0.29808,3.50421 c -0.60051,2.25304 -2.21432,4.07358 -3.34069,6.1152 -1.06975,1.93896 -1.71521,4.11232 -2.99284,5.92109 -1.27762,1.80875 -3.4893,3.24198 -5.63304,2.68671 -1.62428,-0.42071 -2.77843,-1.85844 -3.57675,-3.33424 a 16.354013,16.354013 0 0 1 -1.6909,-10.60829 c 0.80146,-4.41115 3.39256,-8.32441 4.327,-12.70931 1.28323,-6.02143 -0.66704,-12.23508 -0.60901,-18.39146 a 8.8900291,8.8900291 0 0 1 0.38755,-2.85087 c 0.49012,-1.40623 1.54286,-2.52925 2.51537,-3.65703 a 46.172028,46.172028 0 0 0 3.38065,-4.43671 c 0.69622,-1.03832 1.64182,-3.7089 2.87616,-3.93095 2.75583,-0.49577 5.96553,3.87715 6.64926,6.00627 z"
     fill="#ffffff"
     id="path34"
     style="stroke-width:0.591222" />
  <path
     d="m 513.58992,342.68958 a 16.76859,16.76859 0 0 0 -4.66458,-0.49587 11.642038,11.642038 0 0 0 -10.80853,13.72424 19.554227,19.554227 0 0 0 1.84836,5.05081 c 1.23705,2.51047 2.72073,5.01517 5.01084,6.62395 a 19.516684,19.516684 0 0 0 4.4222,2.10499 l 12.06157,4.5438 c 1.77439,0.66845 3.54905,1.33699 5.341,1.9568 a 104.46966,104.46966 0 0 0 27.89673,5.54593 30.206785,30.206785 0 0 0 8.66165,-0.4389 2.819686,2.819686 0 0 0 1.7739,-0.95837 3.0380007,3.0380007 0 0 0 0.39633,-1.30911 l 0.74221,-5.1959 a 4.3522284,4.3522284 0 0 0 -0.0631,-2.19036 c -0.34,-0.87323 -1.19224,-1.42256 -2.00483,-1.88929 -7.92962,-4.55438 -17.1884,-7.067 -23.8629,-13.31781 -1.57129,-1.47155 -2.8862,-3.80409 -4.79529,-4.80368 -2.16487,-1.13353 -4.71439,-1.78047 -6.95213,-2.82498 -4.89189,-2.28346 -9.70157,-4.90752 -15.00344,-6.12625 z"
     fill="#2f2e41"
     id="path36"
     style="stroke-width:0.591222" />
  <path
     d="m 525.63162,349.69441 c 4.26326,1.33588 22.26273,10.59092 25.34789,13.82227 -0.41354,0.14899 -14.44445,-7.71414 -14.86546,-7.84049 a 84.774914,84.774914 0 0 1 -11.30961,-3.98553 c -0.73112,-0.33817 -4.74982,-1.92752 -4.56782,-2.85001 0.20536,-1.04098 4.63818,0.6166 5.395,0.85376 z"
     opacity="0.1"
     id="path38"
     style="stroke-width:0.591222" />
  <path
     d="m 578.81842,384.43896 a 1.0014593,1.0014593 0 0 0 0.67584,-0.19891 1.0438559,1.0438559 0 0 0 0.21124,-0.7777 l -0.0198,-7.07866 c -2.03554,-0.96984 -4.31246,-1.28071 -6.54736,-1.57945 l -10.42773,-1.39384 c 0.23957,0.032 -1.63044,4.4913 -1.34371,5.08662 0.50537,1.04928 4.36747,1.97922 5.45745,2.47464 3.78914,1.72228 7.72655,3.6157 11.99414,3.4673 z"
     fill="#a0616a"
     id="path40"
     style="stroke-width:0.591222" />
  <path
     d="m 546.10157,376.35919 c -1.96884,0.31359 -4.16634,0.59079 -5.4414,2.12342 -1.61694,1.94357 -0.92859,4.84092 -0.15726,7.24864 a 2.3501788,2.3501788 0 0 0 2.74173,1.96109 c 1.79555,0.1137 3.70641,0.20278 5.27525,-0.67796 a 23.120456,23.120456 0 0 0 2.04923,-1.5232 13.138516,13.138516 0 0 1 3.76765,-1.72253 38.099103,38.099103 0 0 1 7.56292,-1.55858 11.762103,11.762103 0 0 0 2.97934,-0.5252 3.3012128,3.3012128 0 0 0 2.09817,-2.03709 c 0.36341,-1.28639 -0.38425,-2.59791 -1.10129,-3.72607 a 14.864772,14.864772 0 0 0 -3.17138,-3.91966 c -1.943,-1.5093 -2.90416,-0.35067 -4.86137,0.61517 a 41.245847,41.245847 0 0 1 -11.74159,3.74197 z"
     fill="#a0616a"
     id="path42"
     style="stroke-width:0.591222" />
  <path
     d="m 540.95638,378.13262 -12.50147,-3.69499 a 16.547272,16.547272 0 0 0 -4.65223,-0.90152 5.5849737,5.5849737 0 0 0 -4.27243,1.7278 c -0.96939,1.13775 -1.24689,2.69273 -1.48853,4.16779 l -0.51697,3.15535 a 15.847868,15.847868 0 0 0 -0.28944,4.84548 5.3574774,5.3574774 0 0 0 2.48354,3.99193 c 1.72995,0.94384 3.85024,0.48285 5.78096,0.088 a 62.938147,62.938147 0 0 1 11.84699,-1.27041 c 1.49638,-0.0179 3.06586,8.2e-4 4.38809,-0.69992 a 5.4785419,5.4785419 0 0 0 2.67374,-4.36586 c 0.24601,-2.69539 -0.65239,-6.21613 -3.45225,-7.04369 z"
     fill="#2f2e41"
     id="path44"
     style="stroke-width:0.591222" />
  <path
     d="m 583.73256,374.91269 c 1.62063,-0.28403 3.05091,-1.20511 4.60385,-1.74877 2.1858,-0.76525 4.55451,-0.76525 6.87039,-0.75677 a 4.4106588,4.4106588 0 0 1 2.46317,0.49331 c 1.02009,0.67912 1.28155,2.03821 1.45499,3.25137 l 1.04652,7.31949 a 11.486091,11.486091 0 0 1 0.0855,4.14669 c -0.30703,1.35641 -1.23158,2.66405 -2.57757,3.01397 -1.63474,0.42498 -3.23731,-0.61927 -4.78083,-1.30527 -3.85785,-1.71454 -8.34238,-1.27634 -12.3649,-2.55783 a 2.7713064,2.7713064 0 0 1 -1.85053,-1.32331 3.0109405,3.0109405 0 0 1 -0.14397,-1.26487 c 0.0689,-2.35269 -0.42733,-5.56535 0.28101,-7.81386 0.637,-2.0222 3.10333,-1.45415 4.91237,-1.45415 z"
     fill="#2f2e41"
     id="path46"
     style="stroke-width:0.591222" />
  <path
     d="m 610.18837,339.7435 a 21.709191,21.709191 0 0 1 7.64746,-0.5225 c 2.04445,0.22526 4.15089,0.79412 5.64358,2.20921 1.81683,1.72235 2.40057,4.38601 2.44926,6.889 a 21.522743,21.522743 0 0 1 -4.678,13.74537 12.472268,12.472268 0 0 1 -2.67452,2.57464 17.604407,17.604407 0 0 1 -3.47972,1.67688 l -27.01136,10.65407 c -7.10609,2.80286 -14.23727,5.61383 -21.64931,7.46162 a 1.6872474,1.6872474 0 0 1 -2.27037,-0.82313 55.961638,55.961638 0 0 1 -5.92015,-10.82946 0.72973954,0.72973954 0 0 1 0.32253,-1.1506 l 19.10533,-10.97735 a 19.317633,19.317633 0 0 0 3.88865,-2.67933 9.6541189,9.6541189 0 0 0 1.99645,-2.77946 c 0.39602,-0.82717 0.43296,-2.77916 0.93881,-3.39056 0.49526,-0.59862 2.18951,-0.64639 2.972,-0.88184 a 26.967414,26.967414 0 0 0 3.23548,-1.22307 c 4.27373,-1.91192 8.07942,-4.68985 12.17637,-6.92853 a 31.242316,31.242316 0 0 1 7.30751,-3.02496 z"
     fill="#2f2e41"
     id="path48"
     style="stroke-width:0.591222" />
  <path
     d="m 599.35733,347.94134 c -3.28236,2.46529 -7.53244,4.73144 -10.78561,7.26169 -1.11027,0.86354 -19.61879,11.26922 -19.88048,12.65122 3.03503,0.5114 22.36841,-13.01379 25.13454,-14.3634 2.76613,-1.3496 5.21821,-3.25281 7.648,-5.14198 0.61921,-0.48144 3.24345,-1.92873 1.46587,-2.46662 -1.00136,-0.303 -2.84302,1.56625 -3.58232,2.05909 z"
     opacity="0.1"
     id="path50"
     style="stroke-width:0.591222" />
  <path
     d="m 576.77215,267.6062 h -28.81303 a 4.4137686,4.4137686 0 0 0 -4.41376,4.41377 v 1.61627 h -0.31308 v 3.61464 h 0.31308 v 2.53024 h -0.31308 v 2.16879 h 0.31308 v 26.67082 a 4.4137686,4.4137686 0 0 0 4.41376,4.41377 h 28.81306 a 4.4137686,4.4137686 0 0 0 4.41375,-4.41377 v -36.60079 a 4.4137686,4.4137686 0 0 0 -4.41378,-4.41374 z"
     fill="#d0cde1"
     id="path52"
     style="stroke-width:0.591222" />
  <polygon
     points="713.347,146.901 688.629,133.953 654.494,139.25 647.432,170.442 665.012,169.765 669.923,158.306 669.923,169.577 678.035,169.265 682.743,151.02 685.686,170.442 714.524,169.853 "
     fill="#2f2e41"
     id="polygon54"
     transform="matrix(0.5912221,0,0,0.5912221,159.60509,146.66266)" />
  <path
     d="m 531.713,337.3549 a 7.5937513,7.5937513 0 0 0 2.72783,2.71376 5.3346798,5.3346798 0 0 0 4.68924,-0.12567 8.2539808,8.2539808 0 0 0 3.38406,-3.3929 c 1.58824,-2.8046 1.91717,-6.16058 1.71897,-9.37757 -0.19818,-3.21697 -0.88506,-6.38468 -1.18909,-9.5934 -0.22099,-2.33252 -0.23897,-4.67893 -0.25676,-7.02184 a 2.3350613,2.3350613 0 0 1 0.29508,-1.42006 2.7881206,2.7881206 0 0 1 1.56664,-0.78234 c 3.20542,-0.95237 5.33308,-3.95683 6.85847,-6.93256 1.01854,-1.98699 1.90425,-4.15901 1.70784,-6.38318 -0.19642,-2.22418 -1.79514,-4.46483 -4.01641,-4.69173 -1.83127,-0.18706 -3.52218,0.97608 -4.84316,2.25809 a 20.767859,20.767859 0 0 0 -6.0808,12.15248 c -0.28998,2.26148 -0.20693,4.58452 -0.82202,6.77998 -1.31337,4.68772 -5.42266,7.56179 -7.47048,11.77991 -2.25645,4.6479 -1.01104,9.92458 1.73059,14.03703 z"
     fill="#a0616a"
     id="path56"
     style="stroke-width:0.591222" />
  <path
     d="m 592.18342,319.44585 a 8.8590847,8.8590847 0 0 1 -4.9681,4.77372 6.8614459,6.8614459 0 0 1 -4.31888,0.26451 4.7891414,4.7891414 0 0 1 -3.16383,-2.82991 7.6235193,7.6235193 0 0 1 -0.35639,-2.12565 c -0.20551,-3.1612 -0.1261,-6.41872 1.02216,-9.37118 0.44289,-1.13875 1.04004,-2.21873 1.38957,-3.38953 a 16.99896,16.99896 0 0 0 0.52323,-4.13663 l 0.37747,-8.62534 a 5.6132341,5.6132341 0 0 0 -0.12812,-1.87023 c -0.37651,-1.24803 -1.54294,-2.0591 -2.61317,-2.80337 -2.5847,-1.79746 -5.13891,-3.89491 -6.39136,-6.78333 a 4.7574816,4.7574816 0 0 1 -0.44164,-2.80976 c 0.35314,-1.71278 2.08162,-2.82158 3.79004,-3.19514 a 8.477711,8.477711 0 0 1 10.16365,6.83164 c 0.16902,0.97338 0.1667,1.96767 0.26563,2.95066 0.20985,2.08515 0.8718,4.09513 1.2859,6.14949 1.02005,5.06036 0.49149,10.2913 1.50019,15.35079 0.84344,4.23028 4.02369,6.9906 2.06365,11.61926 z"
     fill="#a0616a"
     id="path58"
     style="stroke-width:0.591222" />
  <circle
     cx="562.75128"
     cy="283.39575"
     r="3.6146314"
     fill="#dc5c01"
     id="circle60"
     style="stroke-width:0.591222" />
  <circle
     cx="170.26895"
     cy="402.64365"
     r="10.662715"
     fill="#2f2e41"
     id="circle62"
     style="stroke-width:0.591222" />
  <polygon
     points="95.344,502.725 83.822,487.069 83.411,486.51 74.327,477.68 56.086,483.346 57.838,504.467 "
     fill="#fbbebe"
     id="polygon64"
     transform="matrix(0.5912221,0,0,0.5912221,159.60509,146.66266)" />
  <circle
     cx="197.1734"
     cy="416.95197"
     r="17.238688"
     fill="#fbbebe"
     id="circle66"
     style="stroke-width:0.591222" />
  <path
     d="m 304.19214,456.42412 c 0,0 21.17803,36.39486 26.21819,41.85867 a 91.485239,91.485239 0 0 0 7.64754,7.62188 c 0,0 -2.36989,7.85936 -6.14359,7.57888 a 17.761441,17.761441 0 0 1 -6.2251,-1.53414 c 0,0 -1.68433,-4.36619 -4.62228,-6.28096 -2.93796,-1.91477 -26.94099,-25.52884 -26.37996,-33.07625 0.56101,-7.5474 9.5052,-16.16808 9.5052,-16.16808 z"
     fill="#2f2e41"
     id="path68"
     style="stroke-width:0.591222" />
  <path
     d="m 228.77067,508.36114 c 0,0 22.58058,17.52632 53.26833,1.05787 l 2.64462,-1.94623 c 0,0 -4.46304,10.04014 -4.87713,12.76217 -0.48015,3.1562 -12.09975,21.64471 -13.99591,22.53053 -1.89616,0.88581 -2.31405,1.70295 -2.31405,1.70295 l 8.0468,8.85688 2.97519,-2.18951 c 0,0 11.60099,-16.43637 14.99404,-19.44301 3.39307,-3.00664 19.55924,-34.01401 19.55924,-34.01401 0,0 6.18082,-11.68314 -9.24457,-12.56191 -15.4254,-0.87876 -22.52348,3.32563 -22.52348,3.32563 l -27.37619,4.34882 z"
     fill="#2f2e41"
     id="path70"
     style="stroke-width:0.591222" />
  <path
     d="m 338.31976,504.18311 11.42123,7.90238 c 0,0 14.57102,4.56516 5.5954,7.60325 -8.97562,3.03809 -32.6282,4.137 -33.16481,-0.0546 -0.53663,-4.19158 0.93295,-10.78902 2.11292,-10.42826 1.17998,0.36078 9.36997,2.48737 14.03526,-5.02279 z"
     fill="#2f2e41"
     id="path72"
     style="stroke-width:0.591222" />
  <path
     d="m 275.52919,548.42088 2.11393,11.60852 c 0,0 6.01095,11.49593 -1.20621,7.92899 -7.21716,-3.56694 -22.08641,-17.11587 -19.89072,-19.95629 2.19569,-2.84043 7.04187,-5.92098 7.53403,-4.99537 0.49214,0.92559 4.13465,7.12319 11.44897,5.41415 z"
     fill="#2f2e41"
     id="path74"
     style="stroke-width:0.591222" />
  <path
     d="m 253.75131,496.60227 c 0,0 -15.34965,17.92107 -24.66869,13.56773 -9.31904,-4.35334 -47.44503,-54.77554 -43.09169,-64.09458 4.35334,-9.31904 5.81301,-7.33558 5.81301,-7.33558 l 19.68565,1.82043 -5.66408,-9.08154 c 0,0 2.64462,-1.94623 5.16469,0.78568 2.52008,2.73191 12.63763,9.55526 16.16228,19.19205 3.52464,9.63678 13.87263,9.156 13.87263,9.156 z"
     fill="#ffffff"
     id="path76"
     style="stroke-width:0.591222" />
  <polygon
     points="178.764,505.981 217.091,459.674 264.085,529.388 219.08,577.161 "
     fill="#3f3d56"
     id="polygon78"
     transform="matrix(0.5912221,0,0,0.5912221,159.60509,146.66266)" />
  <polygon
     points="183.206,506.16 216.986,463.631 260.688,528.871 220.04,570.852 "
     fill="#ffffff"
     id="polygon80"
     transform="matrix(0.5912221,0,0,0.5912221,159.60509,146.66266)" />
  <polygon
     points="154.14,596.499 157.003,593.538 216.875,575.336 219.08,577.161 217.666,579.925 154.735,598.655 "
     fill="#b3b3b3"
     id="polygon82"
     transform="matrix(0.5912221,0,0,0.5912221,159.60509,146.66266)" />
  <polygon
     points="114.747,522.062 178.764,505.981 219.639,576.75 154.472,597.125 "
     fill="#d0cde1"
     id="polygon84"
     transform="matrix(0.5912221,0,0,0.5912221,159.60509,146.66266)" />
  <polygon
     points="180.907,514.748 184.114,513.25 214.733,566.569 211.937,568.626 "
     fill="#3f3d56"
     id="polygon86"
     transform="matrix(0.5912221,0,0,0.5912221,159.60509,146.66266)" />
  <polygon
     points="149.457,522.377 176.729,516.099 208.318,569.565 180.751,577.785 "
     fill="#3f3d56"
     id="polygon88"
     transform="matrix(0.5912221,0,0,0.5912221,159.60509,146.66266)" />
  <path
     d="m 236.85214,459.09694 3.37444,-0.9545 c 0,0 18.81845,-2.12786 19.09318,3.78527 0.27474,5.91314 -21.61903,3.16967 -21.61903,3.16967 l -2.91934,-3.96692 z"
     fill="#fbbebe"
     id="path90"
     style="stroke-width:0.591222" />
  <path
     d="m 253.35784,485.68041 4.69675,-1.92761 c 0,0 14.17755,-6.35669 10.1105,-10.49819 -4.06706,-4.14153 -16.61035,3.05092 -16.61035,3.05092 l -2.40131,2.27679 z"
     fill="#fbbebe"
     id="path92"
     style="stroke-width:0.591222" />
  <path
     d="m 249.17203,476.53017 c 0,0 7.64754,7.62188 5.90736,9.41212 -1.74018,1.79025 -30.27567,25.33817 -37.34936,17.80359 -7.07366,-7.53457 -41.53766,-45.36342 -28.12718,-48.60756 13.41048,-3.24413 16.95374,4.34051 16.95374,4.34051 l 17.70346,30.28849 z"
     fill="#ffffff"
     id="path94"
     style="stroke-width:0.591222" />
  <polygon
     points="133.664,541.326 111.192,538.901 112.763,518.781 134.011,525.986 "
     fill="#ffffff"
     id="polygon96"
     transform="matrix(0.5912221,0,0,0.5912221,159.60509,146.66266)" />
  <polygon
     points="82.865,539.06 108.113,572.197 131.914,565.887 109.021,579.287 "
     opacity="0.2"
     id="polygon98"
     transform="matrix(0.5912221,0,0,0.5912221,159.60509,146.66266)" />
  <circle
     cx="189.60683"
     cy="411.95486"
     r="20.522249"
     fill="#2f2e41"
     id="circle100"
     style="stroke-width:0.591222" />
  <polygon
     points="224.298,484.108 249.553,520.688 238.3,532.417 213.995,496.862 "
     fill="#dc5c01"
     id="polygon102"
     transform="matrix(0.5912221,0,0,0.5912221,159.60509,146.66266)" />
  <polygon
     points="202.438,490.714 239.267,544.634 237.615,546.712 200.613,492.919 "
     fill="#e6e6e6"
     id="polygon104"
     transform="matrix(0.5912221,0,0,0.5912221,159.60509,146.66266)" />
  <polygon
     points="197.67,495.947 234.499,549.868 232.847,551.945 195.845,498.152 "
     fill="#e6e6e6"
     id="polygon106"
     transform="matrix(0.5912221,0,0,0.5912221,159.60509,146.66266)" />
  <polygon
     points="193.608,499.798 230.437,553.719 228.785,555.796 191.783,502.003 "
     fill="#e6e6e6"
     id="polygon108"
     transform="matrix(0.5912221,0,0,0.5912221,159.60509,146.66266)" />
  <path
     d="m 198.69484,398.25392 h 6.34854 a 12.119887,12.119887 0 0 1 12.11988,12.11988 v 0 h -18.46842 z"
     fill="#2f2e41"
     id="path110"
     style="stroke-width:0.591222" />
  <path
     d="m 286.14513,390.54102 -1.1509,-0.0857 c -0.0446,0.59842 -0.0766,1.20042 -0.11455,1.80081 l -5.16596,-0.17295 5.41888,10.15444 6.08592,-9.76929 -5.18491,-0.17358 c 0.0371,-0.58458 0.068,-1.17078 0.11152,-1.75375 z"
     fill="#3f3d56"
     id="path112"
     style="stroke-width:0.591222" />
  <path
     d="m 316.44516,307.76963 0.91757,0.70059 c 1.37633,-1.80272 2.81383,-3.60231 4.27276,-5.34895 l -0.886,-0.74002 c -1.46965,1.75956 -2.91786,3.57241 -4.30433,5.38838 z"
     fill="#3f3d56"
     id="path114"
     style="stroke-width:0.591222" />
  <path
     d="m 325.28709,297.1881 0.85218,0.77835 c 1.53133,-1.67703 3.12128,-3.3425 4.72504,-4.95077 l -0.81724,-0.81496 c -1.61587,1.6198 -3.21738,3.29796 -4.75998,4.98738 z"
     fill="#3f3d56"
     id="path116"
     style="stroke-width:0.591222" />
  <path
     d="m 335.02094,287.42778 0.7806,0.8505 c 1.67478,-1.53783 3.40393,-3.05676 5.13929,-4.51481 l -0.74228,-0.88375 c -1.74832,1.46875 -3.49044,2.99925 -5.17761,4.54806 z"
     fill="#3f3d56"
     id="path118"
     style="stroke-width:0.591222" />
  <path
     d="m 308.56671,319.09341 0.97561,0.6166 c 1.21319,-1.91939 2.48723,-3.83933 3.78635,-5.70685 l -0.94743,-0.65941 c -1.309,1.8816 -2.59234,3.81591 -3.81453,5.74966 z"
     fill="#3f3d56"
     id="path120"
     style="stroke-width:0.591222" />
  <path
     d="m 345.57006,278.56413 0.70282,0.91531 c 1.80356,-1.3848 3.65896,-2.74535 5.51465,-4.04392 l -0.66168,-0.94574 c -1.86978,1.30843 -3.739,2.67912 -5.55579,4.07435 z"
     fill="#3f3d56"
     id="path122"
     style="stroke-width:0.591222" />
  <path
     d="m 301.71743,331.07411 1.02635,0.52754 c 1.03987,-2.02223 2.13948,-4.04843 3.26812,-6.02192 l -1.00213,-0.57318 c -1.1371,1.98842 -2.24487,4.02982 -3.29234,6.06756 z"
     fill="#3f3d56"
     id="path124"
     style="stroke-width:0.591222" />
  <path
     d="m 290.58384,363.56431 -1.11763,-0.28771 c -0.57038,2.21472 -1.09849,4.4731 -1.56967,6.71289 l 1.12949,0.23785 c 0.46779,-2.22289 0.99195,-4.46494 1.55781,-6.66303 z"
     fill="#3f3d56"
     id="path126"
     style="stroke-width:0.591222" />
  <path
     d="m 356.85411,270.66568 0.61941,0.97392 c 1.91319,-1.2174 3.88019,-2.40859 5.8466,-3.5406 l -0.57601,-1.00041 c -1.98107,1.14075 -3.96272,2.34067 -5.89,3.56709 z"
     fill="#3f3d56"
     id="path128"
     style="stroke-width:0.591222" />
  <path
     d="m 287.76608,376.95292 -1.13906,-0.18713 c -0.37058,2.25332 -0.69607,4.54945 -0.96744,6.82478 l 1.14638,0.13639 c 0.26912,-2.25783 0.59236,-4.53708 0.96012,-6.77404 z"
     fill="#3f3d56"
     id="path130"
     style="stroke-width:0.591222" />
  <path
     d="m 295.95591,343.62179 1.06917,0.43454 c 0.85585,-2.10652 1.77144,-4.22342 2.72112,-6.29159 l -1.04888,-0.48188 c -0.95699,2.08394 -1.87937,4.21665 -2.74141,6.33893 z"
     fill="#3f3d56"
     id="path132"
     style="stroke-width:0.591222" />
  <path
     d="m 291.33261,356.64064 1.10411,0.33705 c 0.66563,-2.17807 1.38902,-4.36941 2.15019,-6.5131 l -1.08778,-0.38607 c -0.7668,2.15947 -1.49582,4.36742 -2.16652,6.56212 z"
     fill="#3f3d56"
     id="path134"
     style="stroke-width:0.591222" />
  <path
     d="m 434.93541,247.65906 c 2.2629,-0.0783 4.56695,-0.10961 6.84619,-0.0882 l 0.0101,-1.15428 c -2.29502,-0.0215 -4.61709,0.01 -6.89577,0.0888 z"
     fill="#3f3d56"
     id="path136"
     style="stroke-width:0.591222" />
  <path
     d="m 368.78493,263.79695 0.53091,1.02464 c 2.01574,-1.04437 4.07913,-2.05633 6.13349,-3.00799 l -0.48527,-1.04719 c -2.06957,0.9587 -4.14845,1.97828 -6.17913,3.03054 z"
     fill="#3f3d56"
     id="path138"
     style="stroke-width:0.591222" />
  <path
     d="m 462.24859,249.09826 c 2.25162,0.31872 4.5241,0.69184 6.75431,1.10919 l 0.21192,-1.13456 c -2.24656,-0.42045 -4.53594,-0.79666 -6.80504,-1.11764 z"
     fill="#3f3d56"
     id="path140"
     style="stroke-width:0.591222" />
  <path
     d="m 475.70198,251.61534 c 2.21049,0.51627 4.44126,1.09002 6.6292,1.7052 l 0.31224,-1.11145 c -2.20428,-0.61968 -4.4514,-1.19738 -6.67879,-1.71759 z"
     fill="#3f3d56"
     id="path142"
     style="stroke-width:0.591222" />
  <path
     d="m 488.8764,255.31939 c 2.15525,0.711 4.32571,1.48088 6.45053,2.28854 l 0.41031,-1.07875 c -2.14116,-0.81386 -4.32741,-1.58966 -6.499,-2.30601 z"
     fill="#3f3d56"
     id="path144"
     style="stroke-width:0.591222" />
  <path
     d="m 448.62441,247.78052 c 2.27304,0.11921 4.56976,0.29054 6.82702,0.50866 l 0.1116,-1.14864 c -2.27419,-0.22008 -4.58836,-0.39257 -6.87776,-0.51258 z"
     fill="#3f3d56"
     id="path146"
     style="stroke-width:0.591222" />
  <path
     d="m 421.15455,247.58524 0.14091,1.14582 c 2.24936,-0.27673 4.53989,-0.50754 6.8073,-0.68563 l -0.0902,-1.1509 c -2.28488,0.17951 -4.59229,0.412 -6.85802,0.69071 z"
     fill="#3f3d56"
     id="path148"
     style="stroke-width:0.591222" />
  <path
     d="m 394.2269,253.36 0.34154,1.10242 c 2.16906,-0.67154 4.38265,-1.30335 6.5796,-1.87795 l -0.29195,-1.11652 c -2.2133,0.57855 -4.44379,1.21515 -6.62919,1.89205 z"
     fill="#3f3d56"
     id="path150"
     style="stroke-width:0.591222" />
  <path
     d="m 381.26918,258.01402 0.43821,1.06804 c 2.09861,-0.8612 4.24231,-1.68547 6.37164,-2.45058 l -0.39003,-1.08609 c -2.14568,0.77047 -4.30542,1.60123 -6.41982,2.46863 z"
     fill="#3f3d56"
     id="path152"
     style="stroke-width:0.591222" />
  <path
     d="m 407.56279,249.87293 0.24181,1.12892 c 2.21754,-0.47541 4.47846,-0.90798 6.7205,-1.28532 l -0.19162,-1.13849 c -2.2587,0.38043 -4.53682,0.8161 -6.77069,1.29489 z"
     fill="#3f3d56"
     id="path154"
     style="stroke-width:0.591222" />
  <path
     d="m 512.54965,264.7447 -6.45035,-9.53257 -2.26812,4.66863 c -0.54896,-0.24513 -1.09495,-0.49558 -1.64338,-0.73304 l -0.45879,1.05959 c 0.53553,0.23176 1.06505,0.47475 1.59748,0.71226 l -2.25737,4.64655 z"
     fill="#3f3d56"
     id="path156"
     style="stroke-width:0.591222" />
</svg>
