<?xml version="1.0" encoding="UTF-8" standalone="no"?>
<svg
   xmlns:dc="http://purl.org/dc/elements/1.1/"
   xmlns:cc="http://creativecommons.org/ns#"
   xmlns:rdf="http://www.w3.org/1999/02/22-rdf-syntax-ns#"
   xmlns:svg="http://www.w3.org/2000/svg"
   xmlns="http://www.w3.org/2000/svg"
   xmlns:sodipodi="http://sodipodi.sourceforge.net/DTD/sodipodi-0.dtd"
   xmlns:inkscape="http://www.inkscape.org/namespaces/inkscape"
   id="aff82094-dd84-4d6a-a3ba-e579cac0668b"
   data-name="Layer 1"
   width="624.44971"
   height="614.16373"
   viewBox="0 0 624.44971 614.16373"
   version="1.1"
   sodipodi:docname="baas2.svg"
   inkscape:version="1.0.1 (3bc2e813f5, 2020-09-07)">
  <metadata
     id="metadata79">
    <rdf:RDF>
      <cc:Work
         rdf:about="">
        <dc:format>image/svg+xml</dc:format>
        <dc:type
           rdf:resource="http://purl.org/dc/dcmitype/StillImage" />
      </cc:Work>
    </rdf:RDF>
  </metadata>
  <defs
     id="defs77" />
  <sodipodi:namedview
     pagecolor="#ffffff"
     bordercolor="#666666"
     borderopacity="1"
     objecttolerance="10"
     gridtolerance="10"
     guidetolerance="10"
     inkscape:pageopacity="0"
     inkscape:pageshadow="2"
     inkscape:window-width="1920"
     inkscape:window-height="1009"
     id="namedview75"
     showgrid="false"
     inkscape:zoom="0.68548493"
     inkscape:cx="262.11723"
     inkscape:cy="351.81454"
     inkscape:window-x="-8"
     inkscape:window-y="-8"
     inkscape:window-maximized="1"
     inkscape:current-layer="aff82094-dd84-4d6a-a3ba-e579cac0668b" />
  <path
     d="m 304.62602,210.21163 h -2.3939 q -1.1441,-0.70644 -2.29888,-1.39612 c -0.47664,-0.29717 -0.95879,-0.58313 -1.44115,-0.87469 q -11.95112,-7.20769 -24.04787,-13.82105 -12.08583,-6.61896 -24.28937,-12.62117 a 1.0032909,1.0032909 0 0 1 -0.58311,-1.14382 0.2890479,0.2890479 0 0 1 0.0395,-0.0841 c 0.11202,-0.21305 0.36441,-0.30277 0.7345,-0.12335 0.99793,0.4934 2.00159,0.98682 2.9995,1.49145 q 12.23736,6.10589 24.3734,12.82863 12.12769,6.71988 24.12097,14.03972 c 0.1681,0.10094 0.33647,0.20746 0.50457,0.30838 0.76247,0.4654 1.51947,0.93078 2.28192,1.39613 z"
     fill="#ffffff"
     id="path4"
     style="stroke-width:0.560691" />
  <path
     d="m 335.4923,210.21163 h -1.48032 c -0.33648,-0.46536 -0.66719,-0.93075 -1.00365,-1.39612 q -11.8583,-16.43388 -23.71165,-32.86777 -19.41122,-26.90479 -38.81094,-53.80959 a 0.95344544,0.95344544 0 0 1 -0.16838,-0.32521 c -0.11191,-0.39809 0.1796,-0.63358 0.55522,-0.59434 a 1.1245293,1.1245293 0 0 1 0.7849,0.49342 q 10.88299,15.08822 21.7605,30.16522 19.31019,26.77024 38.61492,53.53486 c 0.81862,1.1326 1.63718,2.27081 2.45576,3.40341 0.33644,0.46538 0.67291,0.93076 1.00364,1.39612 z"
     fill="#ffffff"
     id="path6"
     style="stroke-width:0.560691" />
  <path
     d="m 362.51078,233.45696 c -0.054,2.18729 -0.18672,4.34017 -0.36384,6.47338 q -0.0514,0.61196 -0.10322,1.22391 h -1.36153 c 0.0394,-0.40795 0.0787,-0.81594 0.11306,-1.22391 0.27049,-3.08186 0.4572,-6.19813 0.46704,-9.39796 a 131.06789,131.06789 0 0 0 -2.72786,-26.40472 164.49618,164.49618 0 0 0 -8.14474,-27.40252 188.4958,188.4958 0 0 0 -13.22677,-27.08303 0.72536312,0.72536312 0 0 1 -0.12288,-0.48169 c 0.054,-0.38831 0.57001,-0.50627 0.95834,-0.13763 a 1.1270669,1.1270669 0 0 1 0.19655,0.24576 q 0.95114,1.61467 1.86795,3.23915 a 188.36566,188.36566 0 0 1 12.66659,27.18134 163.71789,163.71789 0 0 1 7.60376,27.44676 129.30749,129.30749 0 0 1 2.17755,26.32116 z"
     fill="#ffffff"
     id="path8"
     style="stroke-width:0.491525" />
  <path
     d="m 476.52299,208.81551 h -340.34 a 4.8935342,4.8935342 0 0 0 -4.88907,4.88923 v 230.62379 a 4.8935285,4.8935285 0 0 0 4.88907,4.88925 h 340.34 a 4.8849948,4.8849948 0 0 0 3.71761,-1.71572 1.1471197,1.1471197 0 0 0 0.10655,-0.13457 4.5790028,4.5790028 0 0 0 0.70086,-1.18309 4.7699296,4.7699296 0 0 0 0.36987,-1.85588 V 213.70476 a 4.8945827,4.8945827 0 0 0 -4.89486,-4.88925 z m 3.49886,235.51304 a 3.4624857,3.4624857 0 0 1 -0.57767,1.91757 3.6141529,3.6141529 0 0 1 -1.32315,1.18866 3.4674871,3.4674871 0 0 1 -1.59804,0.38688 h -340.34 a 3.4973608,3.4973608 0 0 1 -3.4931,-3.49311 V 213.70476 a 3.4973608,3.4973608 0 0 1 3.4931,-3.49313 h 340.34 a 3.4984093,3.4984093 0 0 1 3.49886,3.49313 z"
     fill="#3f3d56"
     id="path10"
     style="stroke-width:0.560691" />
  <rect
     x="131.99066"
     y="228.41125"
     width="348.72614"
     height="1.3976985"
     fill="#3f3d56"
     id="rect12"
     style="stroke-width:0.560691" />
  <circle
     cx="143.87111"
     cy="219.29828"
     r="4.1931009"
     fill="#3f3d56"
     id="circle14"
     style="stroke-width:0.560691" />
  <circle
     cx="155.92627"
     cy="219.29828"
     r="4.1931009"
     fill="#3f3d56"
     id="circle16"
     style="stroke-width:0.560691" />
  <circle
     cx="167.98145"
     cy="219.29828"
     r="4.1931009"
     fill="#3f3d56"
     id="circle18"
     style="stroke-width:0.560691" />
  <path
     d="m 286.59276,347.23344 c -4.19363,-2.72974 -6.27945,-9.07398 -5.25194,-14.87595 1.02752,-5.80196 4.89726,-10.79934 9.53608,-12.95449 a 14.94212,14.94212 0 0 1 14.14494,1.00549 c 4.25397,2.60122 10.27034,4.02601 12.29051,9.23035 1.55243,3.99943 -0.41663,12.12075 -2.50601,16.00533 -1.80589,3.35755 -5.23757,4.89339 -8.46158,5.56068 a 25.421835,25.421835 0 0 1 -20.56002,-4.74388 z"
     fill="#2f2e41"
     id="path20"
     style="stroke-width:0.560691" />
  <polygon
     points="265.156,500.904 247.526,500.904 248.716,498.904 251.796,493.714 258.976,481.594 267.106,484.844 273.076,487.234 267.096,497.544 266.306,498.904 "
     fill="#ffb8b8"
     id="polygon22"
     transform="matrix(0.56069194,0,0,0.56069194,131.29392,104.86115)" />
  <path
     d="m 269.33966,385.71382 -1.80542,-1.12139 -0.22427,-0.14017 11.33158,-20.65028 a 7.6988106,7.6988106 0 0 1 4.62571,-3.71179 7.6111967,7.6111967 0 0 1 3.80149,-0.14016 7.4873118,7.4873118 0 0 1 2.09699,0.78496 7.3388351,7.3388351 0 0 1 0.77936,0.49341 7.4844243,7.4844243 0 0 1 2.29884,2.5904 7.7470805,7.7470805 0 0 1 -0.2355,7.82165 l -4.36779,6.98062 -3.7342,5.97136 -0.70087,1.12139 z"
     fill="#2f2e41"
     id="path24"
     style="stroke-width:0.560691" />
  <circle
     cx="298.45306"
     cy="340.79141"
     r="13.771172"
     fill="#ffb8b8"
     id="circle26"
     style="stroke-width:0.560691" />
  <path
     d="m 312.27754,385.71382 h -30.9558 l 0.14017,-0.3981 q -0.11785,-0.36163 -0.21874,-0.72329 c -0.0728,-0.2523 -0.1347,-0.51023 -0.19055,-0.76253 a 16.929268,16.929268 0 0 1 0.005,-7.12079 c 1.71028,-8.39917 8.53385,-15.22278 8.53385,-15.22278 0.11775,-0.0898 0.23545,-0.17383 0.35317,-0.25793 a 15.578573,15.578573 0 0 1 3.28011,-1.83907 c 5.06865,-2.1026 10.38402,-1.25595 13.95543,-0.16819 a 27.849259,27.849259 0 0 1 3.63901,1.38489 c 0.41477,0.19626 0.63926,0.3196 0.63926,0.3196 l 0.35317,10.77088 0.426,12.89592 z"
     fill="#dc5c01"
     id="path28"
     style="stroke-width:0.560691" />
  <path
     d="m 326.59763,384.59243 -2.36623,-12.03244 -2.38841,-12.13335 a 2.5338398,2.5338398 0 0 0 -2.04675,-2.00167 l -5.00133,-0.86347 -4.65364,-0.80178 a 2.5002823,2.5002823 0 0 0 -2.41661,0.92514 2.4725562,2.4725562 0 0 0 -0.544,1.53629 2.5347369,2.5347369 0 0 0 0.20753,1.00363 c 2.42784,5.663 2.47274,14.62847 1.85592,24.36768 -0.0279,0.37006 -0.0504,0.74573 -0.0785,1.12139 h 17.65633 z"
     fill="#2f2e41"
     id="path30"
     style="stroke-width:0.560691" />
  <path
     d="m 293.22524,359.38933 a 2.5381739,2.5381739 0 0 0 -4.00889,-1.39051 l -2.1475,1.9512 -8.79174,8.00668 a 2.4364644,2.4364644 0 0 0 -0.62804,0.8915 c -0.99244,2.37174 -2.92666,7.05351 -5.17519,12.83424 q -0.54659,1.41294 -1.12686,2.90998 c -0.1347,0.37007 -0.28035,0.74573 -0.42627,1.1214 h 14.48848 c 0.11773,-0.37567 0.23545,-0.75133 0.35317,-1.1214 0.64472,-2.03531 1.27276,-4.03137 1.87837,-5.97136 1.77159,-5.63495 3.36961,-10.75408 4.60328,-14.80227 q 0.51291,-1.68207 0.9363,-3.10623 a 2.5389981,2.5389981 0 0 0 0.0449,-1.32323 z"
     fill="#2f2e41"
     id="path32"
     style="stroke-width:0.560691" />
  <polygon
     points="355.566,500.344 354.956,498.904 345.546,476.574 344.106,477.444 332.546,484.434 338.476,498.904 339.296,500.904 348.726,500.904 354.126,500.904 355.796,500.904 "
     fill="#ffb8b8"
     id="polygon34"
     transform="matrix(0.56069194,0,0,0.56069194,131.29392,104.86115)" />
  <path
     d="m 324.50051,362.14236 a 7.7493624,7.7493624 0 0 0 -9.7056,-4.58087 6.9579347,6.9579347 0 0 0 -0.71208,0.28035 7.6515723,7.6515723 0 0 0 -3.26312,2.7642 7.4038642,7.4038642 0 0 0 -0.80189,1.55313 7.7051072,7.7051072 0 0 0 0.17384,5.92651 l 1.62048,3.61085 5.79745,12.89592 0.50459,1.12139 h 11.73537 l 0.80736,-0.314 2.09712,-0.80739 0.29156,-0.11212 z"
     fill="#2f2e41"
     id="path36"
     style="stroke-width:0.560691" />
  <path
     d="m 309.26893,324.97505 a 2.2782539,2.2782539 0 0 0 2.59156,-0.98346 3.2804346,3.2804346 0 0 0 0.18966,-2.88384 6.019342,6.019342 0 0 0 -1.79158,-2.36304 6.9559834,6.9559834 0 0 0 -3.14966,-1.63071 4.183474,4.183474 0 0 0 -3.39369,0.74608 3.0147115,3.0147115 0 0 0 -1.02378,3.20852 c 0.35653,1.03413 1.32238,1.72693 2.28692,2.2429 a 15.191616,15.191616 0 0 0 6.18897,1.75943 z"
     fill="#2f2e41"
     id="path38"
     style="stroke-width:0.560691" />
  <path
     d="m 311.94788,340.3801 c -2.21399,0.30524 -1.92972,-0.82168 -2.81644,-2.87317 -0.88674,-2.0515 -2.07366,-4.48686 -4.29891,-4.69465 -1.82363,-0.17029 -3.32612,1.28758 -4.80349,2.37015 -2.63319,1.92954 -6.18188,2.87397 -9.23423,1.71642 -3.05236,-1.15756 -5.17341,-4.79535 -4.01528,-7.84748 a 6.6960802,6.6960802 0 0 1 3.87244,-3.66088 13.472557,13.472557 0 0 1 5.3953,-0.74947 27.83673,27.83673 0 0 1 11.69822,2.99455 c 2.50754,1.2741 4.94861,3.09685 5.89985,5.74377 0.95126,2.64693 1.57724,6.36651 -1.14275,7.08255 z"
     fill="#2f2e41"
     id="path40"
     style="stroke-width:0.560691" />
  <path
     d="m 308.13723,317.69476 c -1.09443,-1.90483 -0.19105,-4.51852 1.59955,-5.79131 1.79058,-1.2728 4.19253,-1.39761 6.32925,-0.88713 a 12.428179,12.428179 0 0 1 8.91514,8.64095 c 0.90668,3.33122 0.36762,6.90914 1.1355,10.27506 a 13.483878,13.483878 0 0 0 16.94545,9.9385 c 2.29994,-0.67542 4.63725,-2.31746 4.86345,-4.70381 a 13.186554,13.186554 0 0 1 -7.80911,13.20368 c -2.96332,1.23613 -6.26878,1.31674 -9.47855,1.23435 -2.09177,-0.0537 -4.23115,-0.17962 -6.16079,-0.98886 a 11.026888,11.026888 0 0 1 -5.79387,-6.28191 17.453745,17.453745 0 0 1 -0.77122,-8.65439 c 0.31576,-2.25861 0.94393,-4.47242 1.1197,-6.74624 0.17579,-2.27382 -0.15758,-4.70169 -1.55938,-6.50061 -1.40179,-1.79891 -4.07952,-2.71777 -6.07252,-1.60919 -0.80096,0.44554 -1.44715,1.17337 -2.31745,1.46088 -0.87029,0.28751 -2.1037,-0.21776 -2.02451,-1.13087 z"
     fill="#2f2e41"
     id="path42"
     style="stroke-width:0.560691" />
  <path
     d="m 402.11144,385.71382 0.10655,-1.12139 3.16236,-32.9014 a 20.138372,20.138372 0 0 1 3.32501,-2.11381 c 6.50956,-3.28005 12.78942,-1.71011 16.18697,-0.35322 a 17.713059,17.713059 0 0 1 2.60169,1.27275 l 1.85044,34.09568 0.0616,1.12139 z"
     fill="#dc5c01"
     id="path44"
     style="stroke-width:0.560691" />
  <circle
     cx="416.92096"
     cy="329.16336"
     r="13.771172"
     fill="#ffb8b8"
     id="circle46"
     style="stroke-width:0.560691" />
  <path
     d="m 428.09455,337.56028 a 7.4961596,7.4961596 0 0 0 -5.68839,-12.65149 c -1.90426,0.0636 -3.6986,0.84298 -5.51607,1.41487 a 18.241882,18.241882 0 0 1 -8.57012,0.77175 11.443571,11.443571 0 0 1 -7.2982,-4.30932 c -1.70382,-2.34173 -2.23512,-5.58976 -1.03144,-8.22376 1.38958,-3.04087 4.63555,-4.71645 7.68914,-6.07786 a 14.052409,14.052409 0 0 1 3.90376,-1.28261 5.0062726,5.0062726 0 0 1 3.88355,0.97896 c 0.85809,0.73803 1.36101,1.84738 2.29477,2.48697 1.05112,0.71998 2.41654,0.70109 3.68425,0.82799 a 14.131971,14.131971 0 0 1 6.84471,25.53392 z"
     fill="#2f2e41"
     id="path48"
     style="stroke-width:0.560691" />
  <path
     d="m 410.75728,355.27388 -2.05196,-5.69664 -0.12812,-0.3551 a 1.1797351,1.1797351 0 0 0 -1.76421,-0.58124 l -2.32982,1.55311 c 0,0 -14.9424,0 -16.14233,8.96547 -0.0167,0.14017 -0.0392,0.29716 -0.0559,0.46538 a 0.08668297,0.08668297 0 0 1 -0.005,0.0225 c -0.15138,0.58871 -2.97154,11.48856 -5.3939,24.94519 -0.0671,0.37004 -0.13443,0.74571 -0.20178,1.12136 h 32.46975 v -10e-5 c 1.05649,-13.51769 0.46541,-26.08603 -4.39602,-30.43986 z"
     fill="#2f2e41"
     id="path50"
     style="stroke-width:0.560691" />
  <path
     d="m 449.48991,384.59243 c -1.7716,-13.80424 -4.30593,-24.96761 -4.30593,-24.96761 -0.0224,-0.1682 -0.0449,-0.32519 -0.0618,-0.46536 -1.19424,-8.96548 -16.13661,-8.96548 -16.13661,-8.96548 l -2.32847,-1.55233 a 1.1799481,1.1799481 0 0 0 -1.76476,0.58232 l -2.18087,6.04986 c -4.86145,4.35381 -5.45253,16.92202 -4.39602,30.43957 l 2.6e-4,3.8e-4 h 31.31444 c -0.0449,-0.37562 -0.0952,-0.75131 -0.14019,-1.12135 z"
     fill="#2f2e41"
     id="path52"
     style="stroke-width:0.560691" />
  <path
     d="m 186.4805,353.16005 -3.33047,31.43239 -0.11775,1.12139 h -9.0102 c 0.10655,-0.36446 0.213,-0.74013 0.32525,-1.12139 2.5568,-8.76921 6.03865,-21.56982 5.66276,-24.96201 -0.58861,-5.29292 3.53253,-7.05909 3.53253,-7.05909 l 0.25793,0.0505 z"
     fill="#dc5c01"
     id="path54"
     style="stroke-width:0.560691" />
  <circle
     cx="201.01183"
     cy="329.68686"
     r="13.771172"
     fill="#a0616a"
     id="circle56"
     style="stroke-width:0.560691" />
  <path
     d="m 218.83803,379.04158 a 22.577001,22.577001 0 0 0 -1.69877,4.01455 c -0.1626,0.49341 -0.31951,1.00925 -0.46542,1.53629 -0.10654,0.36445 -0.20178,0.74011 -0.29705,1.12139 h -36.32182 c 0.0506,-0.37005 0.0952,-0.74573 0.14592,-1.12139 1.85593,-14.6621 3.35841,-29.54286 3.5996,-31.97066 0.0224,-0.22988 0.0337,-0.34762 0.0337,-0.34762 21.76595,-11.47177 37.6504,3.53236 37.6504,3.53236 0,0 0.0225,0.10655 0.0562,0.31398 0.34773,2.09702 2.11932,14.34252 -2.70267,22.9211 z"
     fill="#dc5c01"
     id="path58"
     style="stroke-width:0.560691" />
  <path
     d="m 217.13923,383.05615 -2.42209,-5.19202 0.58862,-20.58859 6.23497,-1.15507 0.21874,-0.0392 a 16.50944,16.50944 0 0 1 7.07573,8.25339 c 1.21117,3.02774 3.51553,12.13338 5.46127,20.25781 0.0898,0.37564 0.17932,0.75131 0.26913,1.12136 h -16.18726 l -0.52154,-1.12136 z"
     fill="#dc5c01"
     id="path60"
     style="stroke-width:0.560691" />
  <path
     d="m 239.29231,293.19966 h -79.62945 a 6.4502,6.4502 0 0 0 -6.44249,6.44234 v 79.62945 a 6.4502,6.4502 0 0 0 6.44249,6.44237 h 79.62945 a 6.4464209,6.4464209 0 0 0 6.44221,-6.44237 V 299.642 a 6.4464266,6.4464266 0 0 0 -6.44221,-6.44234 z m 5.32084,86.07179 a 5.3253791,5.3253791 0 0 1 -5.32084,5.32098 h -79.62945 a 5.3291414,5.3291414 0 0 1 -5.32112,-5.32098 V 299.642 a 5.3291414,5.3291414 0 0 1 5.32112,-5.32097 h 79.62945 a 5.3253791,5.3253791 0 0 1 5.32084,5.32097 z m -61.46311,5.32098 -0.11775,1.12139 h 33.34447 c 0.0952,-0.38128 0.19054,-0.75693 0.29704,-1.12139 z"
     fill="#3f3d56"
     id="path62"
     style="stroke-width:0.560691" />
  <path
     d="m 346.16574,293.19966 h -79.62948 a 6.4502,6.4502 0 0 0 -6.44248,6.44234 v 79.62945 a 6.4502,6.4502 0 0 0 6.44248,6.44237 h 79.62948 a 6.4464266,6.4464266 0 0 0 6.44219,-6.44237 V 299.642 a 6.4464322,6.4464322 0 0 0 -6.44219,-6.44234 z m 5.32083,86.07179 a 5.3253846,5.3253846 0 0 1 -5.32083,5.32098 h -79.62948 a 5.3291357,5.3291357 0 0 1 -5.32108,-5.32098 V 299.642 a 5.3291357,5.3291357 0 0 1 5.32108,-5.32097 h 79.62948 a 5.3253846,5.3253846 0 0 1 5.32083,5.32097 z m -70.24338,5.32098 q 0.10105,0.36166 0.21875,0.72329 l -0.14016,0.3981 h 27.84376 c 0.0282,-0.37567 0.0506,-0.75132 0.0784,-1.12139 z"
     fill="#3f3d56"
     id="path64"
     style="stroke-width:0.560691" />
  <path
     d="m 453.04491,293.19966 h -79.62947 a 6.4464883,6.4464883 0 0 0 -6.4425,6.44234 v 79.62945 a 6.4464883,6.4464883 0 0 0 6.4425,6.44237 h 79.62947 a 6.4501159,6.4501159 0 0 0 6.44219,-6.44237 V 299.642 a 6.4501159,6.4501159 0 0 0 -6.44219,-6.44234 z m 5.32081,86.07179 a 5.3289002,5.3289002 0 0 1 -5.32081,5.32098 h -79.62947 a 5.325452,5.325452 0 0 1 -5.32111,-5.32098 V 299.642 a 5.325452,5.325452 0 0 1 5.32111,-5.32097 h 79.62947 a 5.3289002,5.3289002 0 0 1 5.32081,5.32097 z m -43.12838,5.32098 c -0.0279,0.37007 -0.0562,0.74572 -0.084,1.12139 h 24.16011 c 0.045,-0.37006 0.0952,-0.74571 0.14017,-1.12139 z"
     fill="#3f3d56"
     id="path66"
     style="stroke-width:0.560691" />
  <path
     d="M 398.86789,418.23396 H 213.83956 a 4.4855433,4.4855433 0 1 1 0,-8.97108 h 185.02833 a 4.4855433,4.4855433 0 1 1 0,8.97108 z"
     fill="#cccccc"
     id="path68"
     style="stroke-width:0.560691" />
  <path
     d="m 347.0039,269.65058 h -81.30034 a 4.4855355,4.4855355 0 0 1 0,-8.97106 h 81.30034 a 4.4855355,4.4855355 0 0 1 0,8.97106 z"
     fill="#dc5c01"
     id="path70"
     style="stroke-width:0.560691" />
  <path
     d="m 207.59885,341.6849 a 2.7208193,2.7208193 0 0 0 3.55808,0.22798 c 3.24559,-2.4059 6.09492,-5.40059 7.78117,-9.05335 1.93217,-4.18556 2.14773,-9.3217 -0.18188,-13.29977 -1.96935,-3.36287 -5.44681,-5.53293 -8.91267,-7.31479 a 15.851239,15.851239 0 0 0 -4.30265,-1.65834 6.1320522,6.1320522 0 0 0 -4.45839,0.71938 3.8506641,3.8506641 0 0 0 -1.73847,3.97577 14.492205,14.492205 0 0 0 -6.18548,-4.15224 7.999431,7.999431 0 0 0 -4.72399,-0.34247 c -2.19937,0.62383 -3.80502,2.57794 -4.68322,4.68864 a 9.3772481,9.3772481 0 0 0 -0.70785,5.1162 6.2497639,6.2497639 0 0 0 2.73092,4.28071 c 1.81839,1.12506 4.13822,1.04393 6.22653,0.5843 2.08831,-0.45965 4.1098,-1.25907 6.23852,-1.46126 2.12872,-0.20217 4.4992,0.32863 5.79471,2.02978 0.91231,1.19802 1.14661,2.76333 1.35138,4.25517 l 1.06519,7.75946 a 9.4648387,9.4648387 0 0 0 0.84658,3.24221 1.8688927,1.8688927 0 0 0 0.30152,0.40262 z"
     fill="#2f2e41"
     id="path72"
     style="stroke-width:0.560691" />
</svg>
