<?xml version="1.0" encoding="UTF-8" standalone="no"?>
<svg
   xmlns:dc="http://purl.org/dc/elements/1.1/"
   xmlns:cc="http://creativecommons.org/ns#"
   xmlns:rdf="http://www.w3.org/1999/02/22-rdf-syntax-ns#"
   xmlns:svg="http://www.w3.org/2000/svg"
   xmlns="http://www.w3.org/2000/svg"
   xmlns:sodipodi="http://sodipodi.sourceforge.net/DTD/sodipodi-0.dtd"
   xmlns:inkscape="http://www.inkscape.org/namespaces/inkscape"
   width="16.0px"
   height="16.0px"
   viewBox="0 0 16.0 16.0"
   version="1.1"
   id="SVGRoot"
   sodipodi:docname="logo5.svg"
   inkscape:version="1.0.1 (3bc2e813f5, 2020-09-07)">
  <defs
     id="defs61" />
  <sodipodi:namedview
     id="base"
     pagecolor="#ffffff"
     bordercolor="#666666"
     borderopacity="1.0"
     inkscape:pageopacity="0.0"
     inkscape:pageshadow="2"
     inkscape:zoom="0.175"
     inkscape:cx="238.57967"
     inkscape:cy="780.66192"
     inkscape:document-units="px"
     inkscape:current-layer="layer1"
     inkscape:document-rotation="0"
     showgrid="true"
     inkscape:window-width="1267"
     inkscape:window-height="1032"
     inkscape:window-x="104"
     inkscape:window-y="0"
     inkscape:window-maximized="0">
    <inkscape:grid
       type="xygrid"
       id="grid70" />
  </sodipodi:namedview>
  <metadata
     id="metadata64">
    <rdf:RDF>
      <cc:Work
         rdf:about="">
        <dc:format>image/svg+xml</dc:format>
        <dc:type
           rdf:resource="http://purl.org/dc/dcmitype/StillImage" />
        <dc:title></dc:title>
      </cc:Work>
    </rdf:RDF>
  </metadata>
  <g
     inkscape:label="Layer 1"
     inkscape:groupmode="layer"
     id="layer1">
    <circle
       fill="#0093a8"
       cx="199.39301"
       cy="295.67099"
       r="90.154999"
       id="circle2" />
    <path
       fill="#b11f24"
       d="m 481.074,295.301 c 0,49.796 -40.365,90.162 -90.156,90.162 -49.795,0 -90.159,-40.366 -90.159,-90.162 0,-49.79 40.363,-90.158 90.159,-90.158 49.79,0.005 90.156,40.372 90.156,90.158 z"
       id="path4" />
    <circle
       fill="#429444"
       cx="582.45996"
       cy="293.83298"
       r="90.157997"
       id="circle6" />
    <path
       fill="#f5a11e"
       d="m 863.094,293.695 c 0,49.794 -40.366,90.162 -90.162,90.162 -49.788,0 -90.162,-40.368 -90.162,-90.162 0,-49.79 40.374,-90.156 90.162,-90.156 49.796,0.004 90.162,40.37 90.162,90.156 z"
       id="path8" />
    <path
       fill="#ffffff"
       d="m 174.591,268.291 c 4.662,-0.745 10.735,-1.164 17.146,-1.164 10.654,0 17.562,1.922 22.972,5.998 5.827,4.328 9.489,11.243 9.489,21.144 0,10.735 -3.914,18.143 -9.324,22.714 -5.91,4.917 -14.897,7.247 -25.883,7.247 -6.576,0 -11.237,-0.41 -14.397,-0.838 z m 12.733,45.775 c 1.083,0.248 2.833,0.248 4.411,0.248 11.484,0.084 18.976,-6.238 18.976,-19.639 0.085,-11.653 -6.742,-17.813 -17.644,-17.813 -2.831,0 -4.659,0.248 -5.743,0.496 z"
       id="path10" />
    <path
       fill="#ffffff"
       d="m 397.283,267.256 v 56.099 H 384.55 v -56.099 z"
       id="path12" />
    <path
       fill="#ffffff"
       d="m 574.013,307.488 -3.994,14.402 H 556.87 l 17.143,-56.099 h 16.645 l 17.398,56.099 h -13.653 l -4.33,-14.402 z m 14.23,-9.49 -3.496,-11.899 c -0.997,-3.327 -1.994,-7.492 -2.829,-10.815 h -0.166 c -0.835,3.331 -1.667,7.57 -2.579,10.815 l -3.327,11.899 z"
       id="path14" />
    <path
       fill="#ffffff"
       d="m 755.413,265.649 h 12.735 v 45.441 h 22.303 v 10.658 h -35.038 z"
       id="path16" />
    <g
       enable-background="new    "
       id="g24"
       transform="translate(80,160)">
      <path
         fill="#020202"
         d="m 851.15,166.456 c 0,1.179 -0.052,2.164 -0.152,2.956 -0.102,0.793 -0.255,1.433 -0.457,1.92 -0.204,0.488 -0.457,0.845 -0.762,1.067 -0.306,0.224 -0.641,0.335 -1.006,0.335 h -39.62 c -1.341,0 -2.469,-0.396 -3.383,-1.188 -0.914,-0.793 -1.371,-2.082 -1.371,-3.871 V 98.919 c 0,-1.788 0.457,-3.078 1.371,-3.871 0.914,-0.793 2.042,-1.188 3.383,-1.188 h 39.376 c 0.366,0 0.69,0.102 0.976,0.305 0.283,0.204 0.527,0.559 0.731,1.067 0.202,0.508 0.354,1.158 0.457,1.95 0.101,0.792 0.152,1.798 0.152,3.017 0,1.138 -0.052,2.103 -0.152,2.896 -0.103,0.792 -0.255,1.433 -0.457,1.92 -0.204,0.488 -0.448,0.844 -0.731,1.067 -0.285,0.224 -0.609,0.335 -0.976,0.335 h -28.16 v 19.261 h 23.832 c 0.366,0 0.701,0.113 1.006,0.335 0.305,0.224 0.559,0.569 0.763,1.036 0.202,0.468 0.354,1.097 0.457,1.89 0.101,0.792 0.152,1.758 0.152,2.895 0,1.179 -0.052,2.155 -0.152,2.926 -0.103,0.773 -0.255,1.393 -0.457,1.859 -0.204,0.468 -0.458,0.804 -0.763,1.006 -0.305,0.204 -0.64,0.305 -1.006,0.305 h -23.832 v 22.248 h 28.404 c 0.365,0 0.7,0.112 1.006,0.336 0.305,0.224 0.558,0.579 0.762,1.066 0.202,0.487 0.355,1.128 0.457,1.92 0.101,0.792 0.152,1.778 0.152,2.956 z"
         id="path18" />
      <path
         fill="#020202"
         d="m 923.807,170.662 c 0,0.447 -0.082,0.822 -0.243,1.128 -0.163,0.305 -0.549,0.559 -1.158,0.762 -0.61,0.202 -1.504,0.345 -2.683,0.427 -1.179,0.081 -2.783,0.121 -4.815,0.121 -1.706,0 -3.068,-0.04 -4.083,-0.121 -1.017,-0.082 -1.819,-0.234 -2.408,-0.457 -0.59,-0.224 -1.006,-0.508 -1.249,-0.854 -0.244,-0.345 -0.448,-0.762 -0.61,-1.25 l -7.07,-17.615 c -0.854,-1.99 -1.687,-3.758 -2.499,-5.303 -0.813,-1.544 -1.717,-2.835 -2.712,-3.871 -0.997,-1.036 -2.145,-1.817 -3.444,-2.347 -1.301,-0.527 -2.804,-0.792 -4.511,-0.792 h -4.998 v 30.05 c 0,0.406 -0.132,0.772 -0.396,1.098 -0.264,0.326 -0.7,0.589 -1.311,0.792 -0.609,0.204 -1.423,0.365 -2.438,0.487 -1.017,0.122 -2.316,0.183 -3.901,0.183 -1.545,0 -2.834,-0.061 -3.87,-0.183 -1.036,-0.122 -1.859,-0.283 -2.469,-0.487 -0.609,-0.203 -1.036,-0.467 -1.28,-0.792 -0.243,-0.325 -0.365,-0.691 -0.365,-1.098 V 98.92 c 0,-1.788 0.457,-3.078 1.371,-3.871 0.914,-0.793 2.042,-1.188 3.383,-1.188 h 20.42 c 2.072,0 3.778,0.041 5.12,0.122 1.341,0.082 2.56,0.183 3.657,0.305 3.169,0.447 6.023,1.219 8.563,2.316 2.539,1.097 4.693,2.53 6.461,4.297 1.768,1.767 3.118,3.861 4.054,6.278 0.934,2.418 1.401,5.191 1.401,8.32 0,2.642 -0.335,5.05 -1.006,7.223 -0.67,2.174 -1.655,4.114 -2.956,5.821 -1.301,1.707 -2.905,3.19 -4.815,4.449 -1.91,1.26 -4.083,2.277 -6.521,3.047 1.178,0.57 2.285,1.261 3.322,2.073 1.036,0.813 2.011,1.798 2.926,2.956 0.914,1.158 1.776,2.479 2.59,3.962 0.813,1.483 1.605,3.16 2.377,5.028 l 6.645,15.543 c 0.609,1.545 1.015,2.673 1.219,3.383 0.2,0.713 0.302,1.271 0.302,1.678 z m -20.663,-53.517 c 0,-2.6 -0.59,-4.794 -1.768,-6.583 -1.179,-1.788 -3.108,-3.048 -5.79,-3.779 -0.813,-0.203 -1.737,-0.366 -2.773,-0.487 -1.036,-0.122 -2.469,-0.183 -4.298,-0.183 h -7.192 v 22.37 h 8.168 c 2.275,0 4.267,-0.274 5.974,-0.823 1.706,-0.548 3.128,-1.32 4.267,-2.316 1.137,-0.995 1.99,-2.184 2.56,-3.566 0.567,-1.382 0.852,-2.927 0.852,-4.633 z"
         id="path20" />
      <path
         fill="#020202"
         d="m 989.575,117.815 c 0,4.43 -0.691,8.351 -2.072,11.764 -1.382,3.413 -3.394,6.289 -6.034,8.625 -2.642,2.337 -5.882,4.114 -9.722,5.334 -3.841,1.219 -8.361,1.828 -13.563,1.828 h -6.583 v 25.174 c 0,0.406 -0.132,0.772 -0.396,1.098 -0.264,0.326 -0.7,0.589 -1.311,0.792 -0.609,0.204 -1.423,0.365 -2.438,0.487 -1.017,0.122 -2.316,0.183 -3.901,0.183 -1.545,0 -2.834,-0.061 -3.87,-0.183 -1.036,-0.122 -1.859,-0.283 -2.469,-0.487 -0.609,-0.203 -1.036,-0.467 -1.28,-0.792 -0.243,-0.325 -0.365,-0.691 -0.365,-1.098 V 99.59 c 0,-1.91 0.497,-3.342 1.493,-4.297 0.995,-0.954 2.306,-1.432 3.932,-1.432 h 18.591 c 1.868,0 3.646,0.071 5.333,0.213 1.686,0.143 3.708,0.448 6.064,0.914 2.356,0.468 4.744,1.332 7.162,2.591 2.418,1.26 4.48,2.855 6.188,4.785 1.706,1.931 3.007,4.186 3.9,6.766 0.894,2.58 1.341,5.475 1.341,8.685 z m -16.762,1.158 c 0,-2.763 -0.487,-5.038 -1.463,-6.827 -0.976,-1.788 -2.175,-3.109 -3.597,-3.962 -1.423,-0.853 -2.916,-1.391 -4.479,-1.615 -1.564,-0.223 -3.181,-0.335 -4.846,-0.335 h -6.827 v 26.758 h 7.192 c 2.561,0 4.703,-0.345 6.431,-1.036 1.727,-0.69 3.14,-1.655 4.236,-2.895 1.098,-1.239 1.93,-2.722 2.499,-4.45 0.569,-1.726 0.854,-3.606 0.854,-5.638 z"
         id="path22" />
    </g>
  </g>
</svg>
