<?xml version="1.0" encoding="UTF-8" standalone="no"?>
<svg
   xmlns:dc="http://purl.org/dc/elements/1.1/"
   xmlns:cc="http://creativecommons.org/ns#"
   xmlns:rdf="http://www.w3.org/1999/02/22-rdf-syntax-ns#"
   xmlns:svg="http://www.w3.org/2000/svg"
   xmlns="http://www.w3.org/2000/svg"
   xmlns:sodipodi="http://sodipodi.sourceforge.net/DTD/sodipodi-0.dtd"
   xmlns:inkscape="http://www.inkscape.org/namespaces/inkscape"
   id="a51d4639-2054-454d-a26d-938e218c2a6d"
   data-name="Layer 1"
   width="890"
   height="729.78732"
   viewBox="0 0 890 729.78732"
   version="1.1"
   sodipodi:docname="maas2.svg"
   inkscape:version="1.0.1 (3bc2e813f5, 2020-09-07)">
  <metadata
     id="metadata66">
    <rdf:RDF>
      <cc:Work
         rdf:about="">
        <dc:format>image/svg+xml</dc:format>
        <dc:type
           rdf:resource="http://purl.org/dc/dcmitype/StillImage" />
      </cc:Work>
    </rdf:RDF>
  </metadata>
  <defs
     id="defs64" />
  <sodipodi:namedview
     pagecolor="#ffffff"
     bordercolor="#666666"
     borderopacity="1"
     objecttolerance="10"
     gridtolerance="10"
     guidetolerance="10"
     inkscape:pageopacity="0"
     inkscape:pageshadow="2"
     inkscape:window-width="1920"
     inkscape:window-height="1009"
     id="namedview62"
     showgrid="false"
     inkscape:zoom="0.28844021"
     inkscape:cx="1953.6399"
     inkscape:cy="701.04222"
     inkscape:window-x="-8"
     inkscape:window-y="-8"
     inkscape:window-maximized="1"
     inkscape:current-layer="a51d4639-2054-454d-a26d-938e218c2a6d" />
  <path
     d="m 327.61572,511.51439 0.95701,20.17181 3e-5,7.9e-4 a 12.870195,12.870195 0 0 1 -12.24552,13.46443 l -0.41774,0.0198 -1.56678,-33.02708 z"
     fill="#2f2e41"
     id="path2"
     style="stroke-width:0.528654" />
  <path
     d="m 614.40739,477.42553 c -9.60734,18.74877 -21.79324,36.8811 -37.21156,53.29238 -0.34242,0.37062 -0.68824,0.73165 -1.03718,1.09923 L 539.6282,514.52327 c 0.22348,-0.3713 0.46851,-0.78802 0.73197,-1.24371 15.69217,-26.84877 110.41731,-190.62824 107.42411,-227.72227 0.34867,3.05935 11.57654,104.23424 -33.37689,191.86824 z"
     fill="#e6e6e6"
     id="path4"
     style="stroke-width:0.528654" />
  <path
     d="m 584.24341,534.05433 c -0.51132,0.29066 -1.03563,0.57518 -1.56334,0.85012 L 555.27575,521.931 c 0.38313,-0.27184 0.82946,-0.59325 1.34248,-0.95469 8.39571,-6.02801 33.36088,-24.11366 57.78913,-43.55078 26.25192,-20.88759 51.88856,-43.33068 55.69581,-54.04345 -0.77336,2.45655 -24.80151,77.12913 -85.85976,110.67225 z"
     fill="#e6e6e6"
     id="path6"
     style="stroke-width:0.528654" />
  <circle
     cx="257.06802"
     cy="502.07324"
     r="42.292343"
     fill="#dc5c01"
     id="circle8"
     style="stroke-width:0.528654" />
  <path
     d="m 274.00895,484.32563 h -33.88183 a 5.6533549,5.6533549 0 0 0 -5.64697,5.64695 v 24.20127 a 5.6533285,5.6533285 0 0 0 5.64697,5.64698 h 33.88186 a 5.6533285,5.6533285 0 0 0 5.647,-5.64698 v -24.20127 a 5.6533391,5.6533391 0 0 0 -5.64703,-5.64695 z m 0,3.22684 a 2.4101349,2.4101349 0 0 1 0.59935,0.0782 l -17.53635,13.98888 -17.43383,-14.01734 a 2.4214164,2.4214164 0 0 1 0.48897,-0.0497 z m 0,29.04152 h -33.88183 a 2.4229231,2.4229231 0 0 1 -2.42013,-2.42014 V 490.1899 l 18.35012,14.75415 a 1.6134529,1.6134529 0 0 0 2.01707,0.004 l 18.35495,-14.64201 v 23.86794 a 2.4229178,2.4229178 0 0 1 -2.42018,2.42018 z"
     fill="#ffffff"
     id="path10"
     style="stroke-width:0.528654" />
  <path
     d="m 420.28405,441.01395 9.46295,0.0779 a 6.5836966,6.5836966 0 0 0 6.55446,-7.62851 v 0 a 6.5837389,6.5837389 0 0 0 -9.41372,-4.8591 l -8.92395,4.40351 -30.52264,6.80675 -13.07638,-13.36927 -7.51122,12.37104 17.64543,13.63286 z"
     fill="#ffb8b8"
     id="path12"
     style="stroke-width:0.528654" />
  <path
     d="m 418.51043,538.78257 -11.14905,2.14404 c -7.61544,-24.0054 -15.8665,-46.73876 -15.86597,-64.32145 -10.7772,11.99464 -24.14181,18.85673 -39.87931,21.01168 l 1.71524,-26.5862 12.86427,-6.86096 19.68867,-9.08709 a 14.950824,14.950824 0 0 1 5.4794,-1.35541 v 0 a 14.950698,14.950698 0 0 1 15.54871,12.56796 z"
     fill="#2f2e41"
     id="path14"
     style="stroke-width:0.528654" />
  <path
     d="m 365.12358,494.40077 -4.44364,3.37718 a 13.761326,13.761326 0 0 1 -13.56635,1.76856 v 0 c -12.72757,-9.54014 -21.76972,-6.72566 -29.96492,7.67404 -9.82985,-11.09397 -12.25503,-27.11713 -3.48224,-43.69407 l 48.66989,1.07202 9.86263,-3.00165 z"
     fill="#2f2e41"
     id="path16"
     style="stroke-width:0.528654" />
  <path
     d="m 348.91479,544.08326 v 0 a 12.427024,12.427024 0 0 1 -14.70705,-6.19636 c -4.37388,-3.85252 -8.06437,-9.36825 -11.26524,-16.07565 a 124.42014,124.42014 0 0 1 -5.90358,-15.16351 c -2.21489,-6.84081 1.48861,-14.31426 8.38166,-16.36085 q 0.30746,-0.0913 0.62242,-0.17212 c 9.20191,-2.36248 18.65157,2.94494 21.79702,11.90948 l 9.14633,26.06704 a 12.42704,12.42704 0 0 1 -7.61176,15.84059 q -0.22839,0.0802 -0.4598,0.15138 z"
     fill="#2f2e41"
     id="path18"
     style="stroke-width:0.528654" />
  <path
     d="m 321.38499,518.84291 c 0,0 10.72024,12.00668 12.86427,18.86764"
     opacity="0.2"
     style="isolation:isolate;stroke-width:0.528654"
     id="path20" />
  <path
     d="m 279.80771,462.17885 -3.58788,8.75678 a 6.5838182,6.5838182 0 0 0 4.64748,8.91945 v 0 a 6.5837971,6.5837971 0 0 0 8.00862,-6.93475 l -0.77306,-9.92125 5.01994,-30.86688 17.27039,-7.17361 -8.69511,-11.56961 -19.21262,11.3178 z"
     fill="#ffb8b8"
     id="path22"
     style="stroke-width:0.528654" />
  <path
     d="m 365.55239,463.52645 c -12.32074,20.69537 -36.88251,28.7091 -57.91952,12.5035 3.70058,-12.15905 15.64838,-45.76381 7.92981,-47.05024 -16.38828,6.87251 -16.41207,-9.26355 -19.47746,-17.33927 l 37.30644,-13.72191 20.15407,5.57452 4.13133,1.46596 a 13.966999,13.966999 0 0 1 9.29494,12.97152 c -8.46597,12.23072 -14.73323,25.2779 -1.41961,45.59592 z"
     fill="#dc5c01"
     id="path24"
     style="stroke-width:0.528654" />
  <path
     d="m 370.2693,446.80288 -14.79394,-12.22106 4.93132,-28.51584 20.15407,21.44047 z"
     fill="#dc5c01"
     id="path26"
     style="stroke-width:0.528654" />
  <path
     id="bc7f4772-a479-43ba-84b6-0038831d0625"
     data-name="b82a9922-ead1-40af-af3b-f133b244cde7"
     d="m 615.74664,250.90657 h -2.11461 V 192.99514 A 33.516682,33.516682 0 0 0 580.11535,159.47846 H 457.42156 a 33.516682,33.516682 0 0 0 -33.51669,33.51668 v 317.70748 a 33.516682,33.516682 0 0 0 33.51669,33.51669 h 122.69323 a 33.516682,33.516682 0 0 0 33.51668,-33.51669 V 292.12891 h 2.11461 z"
     fill="#3f3d56"
     style="stroke-width:0.528654" />
  <path
     id="e7549b14-e146-4c1f-8b4f-7638ef62aaf0"
     data-name="b2a7827b-2d2c-407d-93be-35e4c67116bc"
     d="m 581.46762,168.19755 h -16.01558 a 11.892079,11.892079 0 0 1 -11.01081,16.38511 H 484.15189 A 11.892079,11.892079 0 0 1 473.1416,168.19913 h -14.96091 a 25.030723,25.030723 0 0 0 -25.03073,25.03072 v 317.23963 a 25.030723,25.030723 0 0 0 25.03073,25.03073 h 123.28219 a 25.030723,25.030723 0 0 0 25.03073,-25.03073 v -6e-5 0 -317.24116 a 25.030723,25.030723 0 0 0 -25.03073,-25.03073 h 0.005 z"
     fill="#ffffff"
     style="stroke-width:0.528654" />
  <circle
     id="f4a12a6a-3235-4aa9-87a4-fdfa38e5097e"
     data-name="e6b07811-3d0f-4972-ba4c-46b0c6566e33"
     cx="520.03589"
     cy="504.02673"
     r="13.745012"
     fill="#e6e6e6"
     style="stroke-width:0.528654" />
  <path
     d="m 464.27538,376.91302 c -1.29924,0 -2.35651,1.20678 -2.35651,2.68974 0,1.48295 1.05727,2.68973 2.35651,2.68973 h 111.09278 c 1.29924,0 2.35652,-1.20678 2.35652,-2.68973 0,-1.48295 -1.05728,-2.68974 -2.35652,-2.68974 z"
     fill="#e6e6e6"
     id="path31"
     style="stroke-width:0.528654" />
  <path
     d="m 464.27538,440.35155 c -1.29924,0 -2.35651,1.20677 -2.35651,2.68974 0,1.48297 1.05727,2.68973 2.35651,2.68973 h 111.09278 c 1.29924,0 2.35652,-1.20676 2.35652,-2.68973 0,-1.48297 -1.05728,-2.68974 -2.35652,-2.68974 z"
     fill="#e6e6e6"
     id="path33"
     style="stroke-width:0.528654" />
  <path
     d="m 464.27538,393.05145 c -1.29924,0 -2.35651,1.20676 -2.35651,2.68973 0,1.48297 1.05727,2.68974 2.35651,2.68974 h 47.80357 c 1.29923,0 2.35651,-1.20676 2.35651,-2.68974 0,-1.48297 -1.05728,-2.68973 -2.35651,-2.68973 z"
     fill="#e6e6e6"
     id="path35"
     style="stroke-width:0.528654" />
  <path
     d="m 464.27538,408.43444 c -1.29924,0 -2.35651,1.20677 -2.35651,2.68973 0,1.48296 1.05727,2.68974 2.35651,2.68974 h 111.09278 c 1.29924,0 2.35652,-1.20677 2.35652,-2.68974 0,-1.48297 -1.05728,-2.68973 -2.35652,-2.68973 z"
     fill="#e6e6e6"
     id="path37"
     style="stroke-width:0.528654" />
  <path
     d="m 464.27538,424.57288 c -1.29924,0 -2.35651,1.20677 -2.35651,2.68974 0,1.48297 1.05727,2.68973 2.35651,2.68973 h 47.80357 c 1.29923,0 2.35651,-1.20677 2.35651,-2.68973 0,-1.48297 -1.05728,-2.68974 -2.35651,-2.68974 z"
     fill="#e6e6e6"
     id="path39"
     style="stroke-width:0.528654" />
  <path
     d="m 485.24764,254.43913 h 69.15513 a 2.8848664,2.8848664 0 0 1 2.88147,2.88144 v 72.02223 a 2.8848664,2.8848664 0 0 1 -2.88147,2.88144 h -69.15513 a 2.8848664,2.8848664 0 0 1 -2.88146,-2.88144 v -72.02224 a 2.8848664,2.8848664 0 0 1 2.88146,-2.88143 z"
     fill="#dc5c01"
     id="path41"
     style="stroke-width:0.528654" />
  <path
     d="m 539.66719,317.37198 a 1.9562535,1.9562535 0 1 0 0.002,-3.91249 h -39.68587 a 1.9562535,1.9562535 0 1 0 -0.002,3.91249 z"
     fill="#ffffff"
     id="path43"
     style="stroke-width:0.528654" />
  <path
     d="m 539.66719,305.84616 a 1.956255,1.956255 0 0 0 0,-3.91251 h -39.68396 a 1.9562553,1.9562553 0 1 0 -0.002,3.91251 z"
     fill="#ffffff"
     id="path45"
     style="stroke-width:0.528654" />
  <path
     d="m 519.82506,269.29141 a 12.313712,12.313712 0 1 1 -12.3137,12.31371 v 0 a 12.327636,12.327636 0 0 1 12.3137,-12.31371 z"
     fill="#ffffff"
     id="path47"
     style="stroke-width:0.528654" />
  <path
     d="m 362.71129,394.18521 h -36.55634 a 2.8394709,2.8394709 0 0 1 -2.83627,-2.83627 V 375.5919 a 21.114455,21.114455 0 1 1 42.22891,0 v 15.75704 a 2.8394709,2.8394709 0 0 1 -2.8363,2.83627 z"
     fill="#2f2e41"
     id="path49"
     style="stroke-width:0.528654" />
  <circle
     cx="-164.31683"
     cy="486.96008"
     r="15.480368"
     transform="rotate(-61.33682)"
     fill="#ffb6b6"
     id="circle51"
     style="stroke-width:0.528654" />
  <path
     d="m 370.54276,377.1676 h -22.35334 l -0.22928,-3.20927 -1.14608,3.20927 h -3.44192 l -0.45425,-6.36067 -2.27153,6.36067 h -6.65999 v -0.31514 A 16.721229,16.721229 0 0 1 350.68867,360.15 h 3.15156 a 16.721335,16.721335 0 0 1 16.70253,16.70246 z"
     fill="#2f2e41"
     id="path53"
     style="stroke-width:0.528654" />
  <path
     d="m 348.00648,397.12658 a 2.8976388,2.8976388 0 0 1 -0.50195,-0.0443 l -16.36809,-2.88797 v -27.05162 h 18.01813 l -0.4461,0.5201 c -6.20648,7.2384 -1.53061,18.97552 1.80899,25.32761 a 2.7942868,2.7942868 0 0 1 -0.22203,2.96675 2.8248695,2.8248695 0 0 1 -2.28895,1.16945 z"
     fill="#2f2e41"
     id="path55"
     style="stroke-width:0.528654" />
  <path
     d="m 402.50238,530.6864 20.1945,-7.9e-4 h 7.9e-4 a 12.870205,12.870205 0 0 1 12.86954,12.86931 v 0.41821 l -33.06421,0.002 z"
     fill="#2f2e41"
     id="path57"
     style="stroke-width:0.528654" />
  <path
     d="M 681.45598,545.28366 H 212.01096 a 0.528655,0.528655 0 0 1 0,-1.05731 h 469.44502 a 0.528655,0.528655 0 0 1 0,1.05731 z"
     fill="#cacaca"
     id="path59"
     style="stroke-width:0.528654" />
</svg>
