<?xml version="1.0" encoding="UTF-8" standalone="no"?>
<svg
   xmlns:dc="http://purl.org/dc/elements/1.1/"
   xmlns:cc="http://creativecommons.org/ns#"
   xmlns:rdf="http://www.w3.org/1999/02/22-rdf-syntax-ns#"
   xmlns:svg="http://www.w3.org/2000/svg"
   xmlns="http://www.w3.org/2000/svg"
   xmlns:sodipodi="http://sodipodi.sourceforge.net/DTD/sodipodi-0.dtd"
   xmlns:inkscape="http://www.inkscape.org/namespaces/inkscape"
   id="ae72d77f-f397-4021-826a-c0dbbd2dad22"
   data-name="Layer 1"
   width="808.46973"
   height="567"
   viewBox="0 0 808.46973 567"
   version="1.1"
   sodipodi:docname="maas3.svg"
   inkscape:version="1.0.1 (3bc2e813f5, 2020-09-07)">
  <metadata
     id="metadata87">
    <rdf:RDF>
      <cc:Work
         rdf:about="">
        <dc:format>image/svg+xml</dc:format>
        <dc:type
           rdf:resource="http://purl.org/dc/dcmitype/StillImage" />
      </cc:Work>
    </rdf:RDF>
  </metadata>
  <defs
     id="defs85" />
  <sodipodi:namedview
     pagecolor="#ffffff"
     bordercolor="#666666"
     borderopacity="1"
     objecttolerance="10"
     gridtolerance="10"
     guidetolerance="10"
     inkscape:pageopacity="0"
     inkscape:pageshadow="2"
     inkscape:window-width="1920"
     inkscape:window-height="1009"
     id="namedview83"
     showgrid="false"
     inkscape:zoom="1.2888547"
     inkscape:cx="404.23486"
     inkscape:cy="283.5"
     inkscape:window-x="-8"
     inkscape:window-y="-8"
     inkscape:window-maximized="1"
     inkscape:current-layer="ae72d77f-f397-4021-826a-c0dbbd2dad22" />
  <path
     d="m 441.8973,465.75497 a 57.363546,57.363546 0 0 1 -12.30027,6.7115 c -1.14171,0.45673 -2.28994,0.88175 -3.45736,1.26871 h -59.58495 c -0.24098,-0.41868 -0.47576,-0.84369 -0.71674,-1.26871 -4.83388,-8.65263 -9.21739,-17.64147 -10.4607,-27.41691 -1.4908,-11.73561 2.68982,-25.02539 13.02352,-30.79169 a 20.67058,20.67058 0 0 1 4.27541,-1.78889 c 0.61546,-0.19031 1.24333,-0.34255 1.87769,-0.47577 a 22.339675,22.339675 0 0 1 25.97705,29.04087 c 8.76051,-8.9825 7.12383,-23.54733 4.10412,-35.72065 -3.02589,-12.17331 -6.69235,-25.72317 -0.53277,-36.65949 3.41927,-6.08348 9.43916,-9.8579 16.18879,-11.38036 0.20939,-0.0444 0.41878,-0.0888 0.62167,-0.12687 a 32.609756,32.609756 0 0 1 23.42692,4.10429 c 12.91542,8.13245 19.54427,23.56636 21.69482,38.67674 3.47002,24.32125 -4.20575,51.45904 -24.1372,65.82723 z"
     fill="#f2f2f2"
     id="path2"
     style="stroke-width:0.634357" />
  <path
     d="m 379.22918,419.74506 a 50.210181,50.210181 0 0 1 4.3389,31.26745 51.576434,51.576434 0 0 1 -9.48998,21.45396 c -0.32337,0.43136 -0.65325,0.85638 -0.9896,1.26871 h -2.35347 c 0.36179,-0.41233 0.71676,-0.83735 1.05314,-1.26871 a 49.032117,49.032117 0 0 0 10.11161,-38.85437 49.497405,49.497405 0 0 0 -9.22355,-21.14312 c 0.61547,-0.19031 1.24334,-0.34255 1.8777,-0.47577 a 50.722507,50.722507 0 0 1 4.67525,7.75185 z"
     fill="#ffffff"
     id="path4"
     style="stroke-width:0.634357" />
  <path
     d="m 436.23238,426.76739 a 55.435526,55.435526 0 0 1 -3.82503,15.61787 48.134134,48.134134 0 0 1 -7.4729,12.20503 c -6.29897,7.58056 -14.63451,13.28343 -23.68679,17.07689 q -0.98964,0.41867 -1.99816,0.79929 c -1.16743,0.45673 -2.34725,0.87541 -3.53357,1.26871 h -6.42597 c 1.51621,-0.38061 3.02589,-0.80563 4.5167,-1.26871 a 75.368723,75.368723 0 0 0 10.3464,-4.07892 57.450447,57.450447 0 0 0 21.49194,-17.62878 c 6.01989,-8.31008 8.67812,-18.3012 9.13469,-28.45726 0.48227,-10.86653 -0.93234,-21.92972 -3.41277,-32.50445 a 136.27231,136.27231 0 0 0 -11.46272,-31.22939 0.9802021,0.9802021 0 0 1 0.38687,-1.29409 0.84778007,0.84778007 0 0 1 0.62167,-0.12687 0.72646564,0.72646564 0 0 1 0.48196,0.40599 c 0.62816,1.22434 1.24363,2.44861 1.83338,3.68561 a 138.30688,138.30688 0 0 1 10.80327,32.40296 c 2.17564,10.80944 3.34275,22.12002 2.20103,33.12612 z"
     fill="#ffffff"
     id="path6"
     style="stroke-width:0.634357" />
  <path
     d="m 171.25514,293.57779 a 26.642994,26.642994 0 1 1 26.643,-26.64299 26.673228,26.673228 0 0 1 -26.643,26.64299 z m 0,-52.01727 a 25.37428,25.37428 0 1 0 25.37428,25.37428 25.403004,25.403004 0 0 0 -25.37428,-25.37428 z"
     fill="#3f3d56"
     id="path8"
     style="stroke-width:0.634357" />
  <path
     d="m 279.09583,207.93959 a 26.642994,26.642994 0 1 1 26.643,-26.64299 26.673228,26.673228 0 0 1 -26.643,26.64299 z m 0,-52.01727 a 25.37428,25.37428 0 1 0 25.37428,25.37428 25.403004,25.403004 0 0 0 -25.37428,-25.37428 z"
     fill="#3f3d56"
     id="path10"
     style="stroke-width:0.634357" />
  <path
     d="m 394.54881,167.34074 a 26.642994,26.642994 0 1 1 26.64299,-26.64299 26.673228,26.673228 0 0 1 -26.64299,26.64299 z m 0,-52.01727 a 25.37428,25.37428 0 1 0 25.37428,25.37428 25.402959,25.402959 0 0 0 -25.37428,-25.37428 z"
     fill="#3f3d56"
     id="path12"
     style="stroke-width:0.634357" />
  <path
     d="m 517.61407,209.20831 a 26.642994,26.642994 0 1 1 26.64299,-26.643 26.673228,26.673228 0 0 1 -26.64299,26.643 z m 0,-52.01728 a 25.37428,25.37428 0 1 0 25.37428,25.37428 25.402959,25.402959 0 0 0 -25.37428,-25.37428 z"
     fill="#3f3d56"
     id="path14"
     style="stroke-width:0.634357" />
  <path
     d="m 630.52961,273.27837 a 26.642994,26.642994 0 1 1 26.643,-26.643 26.673228,26.673228 0 0 1 -26.643,26.643 z m 0,-52.01728 a 25.37428,25.37428 0 1 0 25.37428,25.37428 25.402959,25.402959 0 0 0 -25.37428,-25.37428 z"
     fill="#3f3d56"
     id="path16"
     style="stroke-width:0.634357" />
  <path
     d="m 294.3204,174.00006 3.17179,-0.63436 c 0,0 -2.6643,2.98148 -3.17179,3.17179 v 0 a 12.766086,12.766086 0 0 0 0,1.90307 c -6.08982,26.13551 -28.54606,14.59021 -28.54606,14.59021 8.1832,0.19031 8.881,-3.17179 8.881,-3.17179 -4.75768,-0.69779 -5.70922,-3.80614 -5.70922,-3.80614 a 1.9601631,1.9601631 0 0 0 2.53743,-0.63435 c -5.13829,-1.33215 -4.4405,-6.34357 -4.4405,-6.34357 a 6.597446,6.597446 0 0 0 3.10835,1.20527 c -0.57092,-0.69779 -5.39203,-6.47044 -2.47399,-9.45192 0,0 3.5524,6.34357 12.87745,6.9145 l 0.63435,-0.12688 a 4.9799562,4.9799562 0 0 1 -0.12687,-1.39558 6.6607485,6.6607485 0 0 1 6.66075,-6.66075 c 4.4405,0 5.39203,2.53743 5.39203,2.53743 l 3.17179,-1.90307 c -0.0634,0 -0.38061,3.17178 -1.96651,3.80614 z"
     fill="#3f3d56"
     id="path18"
     style="stroke-width:0.634357" />
  <polygon
     points="592.86,505.136 576.613,497.172 555.799,539.633 566.808,545.029 "
     fill="#ffb8b8"
     id="polygon20"
     transform="matrix(0.634357,0,0,0.634357,144.31418,114.05476)" />
  <path
     d="m 496.22574,453.22171 13.75242,6.74124 5.6e-4,2.7e-4 a 9.7602168,9.7602168 0 0 1 4.46765,13.06034 l -0.13962,0.28483 -22.51672,-11.03749 z"
     fill="#2f2e41"
     id="path22"
     style="stroke-width:0.634357" />
  <polygon
     points="682.985,511.155 664.891,511.155 664.893,558.443 677.153,558.442 "
     fill="#ffb8b8"
     id="polygon24"
     transform="matrix(0.634357,0,0,0.634357,144.31418,114.05476)" />
  <path
     d="m 564.10983,463.23051 15.31579,-6.4e-4 h 6.3e-4 a 9.7602486,9.7602486 0 0 1 9.7605,9.76038 v 0.31718 l -25.07645,9.3e-4 z"
     fill="#2f2e41"
     id="path26"
     style="stroke-width:0.634357" />
  <circle
     cx="549.38837"
     cy="245.70175"
     r="15.580461"
     fill="#ffb8b8"
     id="circle28"
     style="stroke-width:0.634357" />
  <path
     d="m 564.9034,458.41273 a 2.8547017,2.8547017 0 0 1 -2.84856,-2.73009 l -6.02237,-80.15819 a 0.9517829,0.9517829 0 0 0 -1.79419,-0.41043 l -38.52542,73.54888 a 2.8690254,2.8690254 0 0 1 -3.80537,1.22875 l -10.73962,-5.37005 a 2.8602269,2.8602269 0 0 1 -1.28312,-3.81636 l 22.98832,-46.58186 15.22627,-34.89304 c 5.8771,-11.57639 12.11799,-17.54208 19.07919,-18.23808 7.14162,-0.71302 14.76831,4.19735 23.32005,15.01333 l 0.0697,0.0883 -10e-4,0.11244 -1.26872,97.91771 a 2.841247,2.841247 0 0 1 -2.58822,2.83819 l -11.52715,1.43722 q -0.14055,0.0135 -0.27939,0.0133 z"
     fill="#2f2e41"
     id="path30"
     style="stroke-width:0.634357" />
  <path
     d="m 532.94428,364.86561 a 6.8146879,6.8146879 0 0 0 1.50254,-10.34094 l 2.34936,-62.0753 -11.41843,1.42302 -0.96279,60.39028 a 6.8516329,6.8516329 0 0 0 8.52931,10.60294 z"
     fill="#ffb8b8"
     id="path32"
     style="stroke-width:0.634357" />
  <path
     d="m 540.16733,303.4242 -15.33383,-1.7425 a 3.0556216,3.0556216 0 0 1 -2.60774,-3.82207 l 3.95876,-14.86776 a 8.4860283,8.4860283 0 0 1 16.85777,1.9657 l 0.52386,15.32709 a 3.0556152,3.0556152 0 0 1 -3.39882,3.13951 z"
     fill="#dc5c01"
     id="path34"
     style="stroke-width:0.634357" />
  <path
     d="m 606.22062,264.34785 a 6.6780157,6.6780157 0 0 0 -0.15181,1.04042 l -27.25035,15.72064 -6.62359,-3.81309 -7.06113,9.24402 11.06974,7.88985 a 5.074856,5.074856 0 0 0 6.08868,-0.14834 l 28.09981,-22.16813 a 6.6589089,6.6589089 0 1 0 -4.17136,-7.76537 z"
     fill="#ffb8b8"
     id="path36"
     style="stroke-width:0.634357" />
  <path
     d="m 577.90745,281.85347 -8.80725,11.41462 a 2.8546065,2.8546065 0 0 1 -4.31611,0.23641 l -9.9704,-10.35348 a 7.9278259,7.9278259 0 0 1 9.72259,-12.52485 l 12.50508,6.99239 a 2.8546065,2.8546065 0 0 1 0.86613,4.23491 z"
     fill="#dc5c01"
     id="path38"
     style="stroke-width:0.634357" />
  <path
     d="m 585.09188,360.85988 -16.90805,-82.358 a 15.44365,15.44365 0 0 0 -17.66691,-12.1277 l -5.6389,0.93984 a 15.121904,15.121904 0 0 0 -9.81952,6.1269 v 0 a 21.118011,21.118011 0 0 0 -3.15475,17.95849 l 9.33291,33.40216 -6.9262,35.78542 a 2.5348145,2.5348145 0 0 0 2.84624,2.99438 c 3.4676,-0.49613 9.18332,-1.20429 15.74804,-1.59015 l 3.55649,-13.71844 1.44651,13.50061 c 8.0642,-0.22572 16.8182,0.16943 24.0399,2.04555 a 2.5394199,2.5394199 0 0 0 3.14424,-2.95906 z"
     fill="#dc5c01"
     id="path40"
     style="stroke-width:0.634357" />
  <path
     d="m 555.38366,242.23531 c 4.00452,2.74074 9.26254,5.55807 13.35253,2.6394 2.68556,-1.91645 3.5317,-5.46527 2.44265,-8.5796 -1.95842,-5.60046 -7.33915,-8.06604 -12.48447,-9.95596 -6.68892,-2.45691 -13.97218,-4.41147 -20.8774,-2.65196 -6.90523,1.75951 -13.00788,8.44513 -11.76135,15.46113 1.00243,5.64212 6.32454,10.33679 5.56902,16.01725 -0.76038,5.71692 -7.18967,8.72615 -12.8657,9.7479 -5.67604,1.02175 -12.02766,1.35004 -16.1068,5.42705 -5.20369,5.20096 -3.90424,14.49711 0.99222,19.9883 4.89646,5.49118 12.28549,7.98029 19.44546,9.67241 9.48652,2.24195 19.74693,3.4202 28.75672,-0.30055 9.00979,-3.72076 16.02111,-13.73658 13.41111,-23.12851 -1.10245,-3.96713 -3.69951,-7.3199 -6.20943,-10.58393 -2.50991,-3.26404 -5.05144,-6.67725 -6.00887,-10.68187 -0.79784,-3.33718 -0.20732,-7.2118 2.00573,-9.71507 a 2.814642,2.814642 0 0 0 0.37705,-3.29005 z"
     fill="#2f2e41"
     id="path42"
     style="stroke-width:0.634357" />
  <path
     d="m 401.80538,127.51754 a 6.7179485,6.7179485 0 0 1 6.69786,6.69786 v 13.3943 a 6.7179422,6.7179422 0 0 1 -6.69786,6.69786 h -13.39427 a 6.7179485,6.7179485 0 0 1 -6.69786,-6.69786 v -13.3943 a 6.7179485,6.7179485 0 0 1 6.69786,-6.69786 h 13.39427 m 0,-2.67871 h -13.39427 a 9.404,9.404 0 0 0 -9.37657,9.37657 v 13.3943 a 9.404,9.404 0 0 0 9.37657,9.37657 h 13.39427 a 9.404,9.404 0 0 0 9.37657,-9.37657 v -13.3943 a 9.404,9.404 0 0 0 -9.37657,-9.37657 z"
     fill="#3f3d56"
     id="path44"
     style="stroke-width:0.634357" />
  <path
     d="m 403.8146,134.2154 a 2.0049043,2.0049043 0 1 1 0.009,0 q -0.004,0 -0.009,0 z"
     fill="#3f3d56"
     id="path46"
     style="stroke-width:0.634357" />
  <path
     d="m 395.10824,135.55438 a 5.3581408,5.3581408 0 1 1 -5.35814,5.35814 5.3581408,5.3581408 0 0 1 5.35814,-5.35814 m 0,-2.67871 a 8.0368528,8.0368528 0 1 0 8.03683,8.03686 8.0368592,8.0368592 0 0 0 -8.03683,-8.03685 z"
     fill="#3f3d56"
     id="path48"
     style="stroke-width:0.634357" />
  <polygon
     points="156.4,503.554 174.012,507.704 163.168,553.731 151.235,550.919 "
     fill="#ffb8b8"
     id="polygon50"
     transform="matrix(0.634357,0,0,0.634357,144.31418,114.05476)" />
  <path
     d="m 248.02273,473.11055 -24.40822,-5.75049 0.0727,-0.30872 a 9.7602486,9.7602486 0 0 1 11.73838,-7.26244 l 6e-4,1.4e-4 14.90764,3.51224 z"
     fill="#2f2e41"
     id="path52"
     style="stroke-width:0.634357" />
  <polygon
     points="191.578,506.843 209.672,506.844 209.67,554.131 197.41,554.131 "
     fill="#ffb8b8"
     id="polygon54"
     transform="matrix(0.634357,0,0,0.634357,144.31418,114.05476)" />
  <path
     d="m 279.30297,473.11055 -25.07646,-9.2e-4 v -0.31718 a 9.7602486,9.7602486 0 0 1 9.76051,-9.76036 h 6.4e-4 l 15.31579,6.3e-4 z"
     fill="#2f2e41"
     id="path56"
     style="stroke-width:0.634357" />
  <path
     d="m 319.32291,346.93728 a 6.8147197,6.8147197 0 0 0 -3.32065,-9.90788 l -22.76974,-57.74113 -12.66841,7.69031 26.36543,54.33946 a 6.8516329,6.8516329 0 0 0 12.39337,5.61923 z"
     fill="#ffb8b8"
     id="path58"
     style="stroke-width:0.634357" />
  <path
     d="m 298.07163,288.83734 -14.47277,5.35735 a 3.0556216,3.0556216 0 0 1 -4.05077,-2.23604 l -3.16895,-15.05588 a 8.4860283,8.4860283 0 0 1 15.93371,-5.84511 l 7.37729,13.44502 a 3.0556152,3.0556152 0 0 1 -1.61851,4.33463 z"
     fill="#dc5c01"
     id="path60"
     style="stroke-width:0.634357" />
  <path
     d="m 276.80306,454.80308 q -0.0569,0 -0.11429,-0.002 l -11.0235,-0.44107 a 2.838183,2.838183 0 0 1 -2.74016,-2.89178 l 0.84576,-60.89827 a 0.9515355,0.9515355 0 0 0 -1.89781,-0.11275 l -6.39483,60.96518 a 2.8633543,2.8633543 0 0 1 -2.36971,2.51822 l -0.0383,0.006 -10.34872,-0.81339 a 2.8543147,2.8543147 0 0 1 -3.28436,-2.83851 l 0.61871,-103.26018 50.78092,3.21391 -11.19635,102.0113 a 2.8640457,2.8640457 0 0 1 -2.83741,2.543 z"
     fill="#2f2e41"
     id="path62"
     style="stroke-width:0.634357" />
  <circle
     cx="267.52103"
     cy="241.3125"
     r="15.580461"
     fill="#ffb8b8"
     id="circle64"
     style="stroke-width:0.634357" />
  <path
     d="m 288.31193,354.79521 q -0.10732,0 -0.21558,-0.007 l -46.93205,-3.43383 a 2.8538897,2.8538897 0 0 1 -2.64583,-2.90726 l 1.23743,-58.93449 a 26.585344,26.585344 0 1 1 53.05724,1.76741 c -0.82067,9.08295 -1.47345,48.76309 -1.65404,60.70808 a 2.8514347,2.8514347 0 0 1 -2.84717,2.80753 z"
     fill="#dc5c01"
     id="path66"
     style="stroke-width:0.634357" />
  <path
     d="m 204.67493,258.80975 a 6.6781236,6.6781236 0 0 1 0.15181,1.04043 l 27.25036,15.72063 6.62358,-3.81308 7.06113,9.24403 -11.06975,7.88984 a 5.074856,5.074856 0 0 1 -6.08868,-0.14834 l -28.09981,-22.16814 a 6.6589089,6.6589089 0 1 1 4.17136,-7.76538 z"
     fill="#ffb8b8"
     id="path68"
     style="stroke-width:0.634357" />
  <path
     d="m 232.45151,273.99942 a 2.8515489,2.8515489 0 0 1 1.40273,-1.91893 l 12.50508,-6.99238 a 7.9278196,7.9278196 0 0 1 9.72254,12.52482 l -9.97039,10.35348 A 2.8546065,2.8546065 0 0 1 241.79535,287.73 l -8.80725,-11.41462 a 2.8514347,2.8514347 0 0 1 -0.53659,-2.31596 z"
     fill="#dc5c01"
     id="path70"
     style="stroke-width:0.634357" />
  <path
     d="m 275.5726,253.64749 a 14.191296,14.191296 0 0 1 -11.95645,-6.71404 c -0.13722,-0.21496 -0.88711,-1.31641 -1.75548,-2.59135 -2.44017,-3.58312 -3.01227,-4.43554 -3.06077,-4.56067 -0.66037,-1.7036 -2.75628,-2.3615 -4.39822,-2.61363 -0.30634,-0.0471 -0.61701,-0.0886 -0.92877,-0.13071 -2.31255,-0.30975 -4.70376,-0.63003 -6.01477,-3.17179 -0.96177,-1.86528 -2.5345,-9.46084 -1.32664,-11.31683 1.51421,-2.32804 4.42191,-1.57226 7.23393,-0.84064 1.79931,0.46709 3.65948,0.9509 5.14191,0.6424 6.4255,-1.33685 13.70837,-2.85212 20.14006,1.06491 5.119,3.11665 8.19801,9.00304 8.0354,15.36209 -0.17454,6.82863 -3.15275,12.21881 -7.96679,14.41923 l -1.00218,0.29181 -0.56373,0.0694 a 13.949866,13.949866 0 0 1 -1.5775,0.0898 z"
     fill="#2f2e41"
     id="path72"
     style="stroke-width:0.634357" />
  <path
     d="m 631.46257,229.38006 a 17.472691,17.472691 0 0 0 -7.01187,33.47605 15.472881,15.472881 0 0 1 0.30418,-4.00902 c 0.33539,-1.41953 2.2463,-9.52336 2.2463,-9.52336 a 6.6699911,6.6699911 0 0 1 -0.56158,-2.76107 c 0,-2.58944 1.49754,-4.52379 3.36945,-4.52379 1.59112,0 2.35549,1.19335 2.35549,2.62068 0,1.59893 -1.02176,3.98562 -1.54433,6.20072 a 2.7011238,2.7011238 0 0 0 2.76107,3.36164 c 3.30705,0 5.53775,-4.25083 5.53775,-9.28937 0,-3.82962 -2.58168,-6.69209 -7.26926,-6.69209 -5.29596,0 -8.60301,3.95442 -8.60301,8.36901 a 5.0361602,5.0361602 0 0 0 1.15435,3.42404 0.85395237,0.85395237 0 0 1 0.24959,0.97496 c -0.0858,0.31979 -0.27299,1.09195 -0.35879,1.40393 a 0.60026666,0.60026666 0 0 1 -0.87356,0.43678 c -2.44128,-0.99835 -3.58003,-3.66583 -3.58003,-6.67649 0,-4.96057 4.18841,-10.9117 12.48722,-10.9117 6.66869,0 11.0599,4.82798 11.0599,10.00694 0,6.85589 -3.81403,11.97245 -9.42977,11.97245 -1.88751,0 -3.65803,-1.02175 -4.2664,-2.1761 0,0 -1.01396,4.02462 -1.23235,4.80458 a 14.521796,14.521796 0 0 1 -1.75491,3.74383 17.474163,17.474163 0 1 0 4.96056,-34.23262 z"
     fill="#3f3d56"
     id="path74"
     style="stroke-width:0.634357" />
  <path
     d="m 533.07763,172.07729 -22.47175,-6.91358 a 2.2979138,2.2979138 0 0 0 -2.94588,1.38914 l -6.92892,22.52163 a 2.4786675,2.4786675 0 0 0 1.59086,3.01518 l 22.46512,6.91154 a 2.352976,2.352976 0 0 0 2.86996,-1.64278 l 6.92892,-22.52162 a 2.1596938,2.1596938 0 0 0 -1.50831,-2.75951 z m -23.33111,17.39052 -3.85737,-1.18675 3.68986,-11.99346 3.85739,1.18674 z m 2.4556,-14.3693 -0.0276,-0.008 a 2.1942092,2.1942092 0 1 1 0.0276,0.008 z m 11.64204,18.70655 -3.85739,-1.18675 2.01755,-6.55779 c 0.48338,-1.57108 0.25225,-2.81722 -1.14333,-3.24658 a 2.2066616,2.2066616 0 0 0 -2.41604,0.81529 2.7186004,2.7186004 0 0 0 -0.42484,0.90617 l -2.10168,6.83125 -3.85738,-1.18674 3.68987,-11.99347 3.85738,1.18675 -0.5135,1.66905 a 4.0866737,4.0866737 0 0 1 4.07859,-0.87947 c 2.53212,0.77899 3.9341,3.03738 2.82704,6.63571 z"
     fill="#3f3d56"
     id="path76"
     style="stroke-width:0.634357" />
  <path
     d="m 188.67218,267.03938 a 17.417033,17.417033 0 1 0 -20.13845,17.2063 v -12.17014 h -4.42346 v -5.03616 h 4.42346 v -3.83797 c 0,-4.36438 2.6009,-6.77709 6.57882,-6.77709 a 26.765121,26.765121 0 0 1 3.89939,0.34056 v 4.28662 h -2.19735 c -2.16236,0 -2.83882,1.34204 -2.83882,2.72139 v 3.26724 h 4.83012 l -0.77133,5.03616 h -4.05879 v 12.17093 a 17.421708,17.421708 0 0 0 14.6964,-17.20787 z"
     fill="#3f3d56"
     fill-rule="evenodd"
     id="path78"
     style="stroke-width:0.634357" />
  <path
     d="m 656.87464,473.10082 a 0.63631082,0.63631082 0 0 1 -0.63436,0.63436 H 144.94854 a 0.634357,0.634357 0 1 1 0,-1.26871 h 511.29174 a 0.63631082,0.63631082 0 0 1 0.63436,0.63435 z"
     fill="#3f3d56"
     id="path80"
     style="stroke-width:0.634357" />
</svg>
