<?xml version="1.0" encoding="UTF-8" standalone="no"?>
<svg
   xmlns:dc="http://purl.org/dc/elements/1.1/"
   xmlns:cc="http://creativecommons.org/ns#"
   xmlns:rdf="http://www.w3.org/1999/02/22-rdf-syntax-ns#"
   xmlns:svg="http://www.w3.org/2000/svg"
   xmlns="http://www.w3.org/2000/svg"
   xmlns:sodipodi="http://sodipodi.sourceforge.net/DTD/sodipodi-0.dtd"
   xmlns:inkscape="http://www.inkscape.org/namespaces/inkscape"
   id="f4bb5715-a48d-4f63-b868-20e22843da81"
   data-name="Layer 1"
   width="462.67848"
   height="515.97244"
   viewBox="0 0 462.67848 515.97244"
   version="1.1"
   sodipodi:docname="saas1.svg"
   inkscape:version="1.0.1 (3bc2e813f5, 2020-09-07)">
  <metadata
     id="metadata73">
    <rdf:RDF>
      <cc:Work
         rdf:about="">
        <dc:format>image/svg+xml</dc:format>
        <dc:type
           rdf:resource="http://purl.org/dc/dcmitype/StillImage" />
      </cc:Work>
    </rdf:RDF>
  </metadata>
  <defs
     id="defs71" />
  <sodipodi:namedview
     pagecolor="#ffffff"
     bordercolor="#666666"
     borderopacity="1"
     objecttolerance="10"
     gridtolerance="10"
     guidetolerance="10"
     inkscape:pageopacity="0"
     inkscape:pageshadow="2"
     inkscape:window-width="1920"
     inkscape:window-height="1009"
     id="namedview69"
     showgrid="false"
     inkscape:zoom="0.8159351"
     inkscape:cx="264.17009"
     inkscape:cy="358.74516"
     inkscape:window-x="-8"
     inkscape:window-y="-8"
     inkscape:window-maximized="1"
     inkscape:current-layer="f4bb5715-a48d-4f63-b868-20e22843da81" />
  <path
     d="m 211.7862,286.93765 a 0.91523171,0.91523171 0 0 1 0.47874,1.20254 l -1.24287,2.88692 0.14087,0.072 -0.84746,1.95944 -0.13565,-0.0752 -4.45261,10.34229 a 1.5872017,1.5872017 0 0 1 -1.89162,0.89915 l -6.92323,-1.96697 a 1.2014094,1.2014094 0 0 1 -0.75384,-1.67752 l 6.97816,-14.47065 a 1.4865002,1.4865002 0 0 1 1.67435,-0.80248 l 6.81235,1.57773 v 0 a 0.91423789,0.91423789 0 0 1 0.16281,0.0527 z"
     fill="#3f3d56"
     id="path2"
     style="stroke-width:0.37221" />
  <path
     d="m 206.02398,286.42232 3.58131,0.82943 a 0.30083528,0.30083528 0 0 0 0.33326,-0.15135 v 0 a 0.34076973,0.34076973 0 0 1 0.37746,-0.17145 l 0.75438,0.17471 a 0.72208807,0.72208807 0 0 1 0.50052,0.98847 l -6.4443,14.99912 a 0.82437892,0.82437892 0 0 1 -0.99559,0.46381 l -6.87454,-2.07417 a 0.63656156,0.63656156 0 0 1 -0.39139,-0.88192 l 6.81115,-14.37808 a 1.0273005,1.0273005 0 0 1 1.16018,-0.561 l 0.79522,0.18417 a 0.51424952,0.51424952 0 0 0 0.39234,0.57826 z"
     fill="#dc5c01"
     id="path4"
     style="stroke-width:0.37221" />
  <path
     d="m 233.93749,208.97588 a 15.632834,15.632834 0 1 1 15.63283,-15.63283 15.65057,15.65057 0 0 1 -15.63283,15.63283 z m 0,-30.52124 a 14.888414,14.888414 0 1 0 14.88841,14.88841 14.905267,14.905267 0 0 0 -14.88841,-14.88841 z"
     fill="#cccccc"
     id="path6"
     style="stroke-width:0.37221" />
  <path
     d="m 294.23556,223.49208 a 15.632834,15.632834 0 1 1 15.63283,-15.63283 15.65057,15.65057 0 0 1 -15.63283,15.63283 z m 0,-30.52124 a 14.888414,14.888414 0 1 0 14.88841,14.88841 14.905267,14.905267 0 0 0 -14.88841,-14.88841 z"
     fill="#cccccc"
     id="path8"
     style="stroke-width:0.37221" />
  <path
     d="m 266.31979,272.99606 a 15.632834,15.632834 0 1 1 15.63284,-15.63283 15.65057,15.65057 0 0 1 -15.63284,15.63283 z m 0,-30.52125 a 14.888414,14.888414 0 1 0 14.88841,14.88842 14.905241,14.905241 0 0 0 -14.88841,-14.88842 z"
     fill="#cccccc"
     id="path10"
     style="stroke-width:0.37221" />
  <path
     d="m 303.16861,203.57799 1.86105,-0.37221 c 0,0 -1.56328,1.74938 -1.86105,1.86105 v 0 a 7.4895273,7.4895273 0 0 0 0,1.11663 c -3.57322,15.33506 -16.74946,8.56085 -16.74946,8.56085 4.80151,0.11165 5.21094,-1.86106 5.21094,-1.86106 -2.79158,-0.40943 -3.34989,-2.23327 -3.34989,-2.23327 a 1.1501299,1.1501299 0 0 0 1.48884,-0.3722 c -3.01491,-0.78165 -2.60547,-3.72211 -2.60547,-3.72211 a 3.8710656,3.8710656 0 0 0 1.82382,0.7072 c -0.33498,-0.40943 -3.16379,-3.79654 -1.45162,-5.54593 0,0 2.08438,3.7221 7.55588,4.05709 l 0.3722,-0.0745 a 2.9217246,2.9217246 0 0 1 -0.0745,-0.81886 3.9082085,3.9082085 0 0 1 3.90821,-3.90821 c 2.60547,0 3.16379,1.48885 3.16379,1.48885 l 1.86105,-1.11664 c -0.0372,0 -0.22333,1.86105 -1.15385,2.23327 z"
     fill="#3f3d56"
     id="path12"
     style="stroke-width:0.37221" />
  <path
     d="m 273.26896,248.80176 -13.79525,7.7e-4 a 1.3483022,1.3483022 0 0 0 -1.41229,1.28745 l 7.8e-4,13.82587 a 1.4543673,1.4543673 0 0 0 1.41253,1.41633 l 13.79119,-7.7e-4 a 1.3806138,1.3806138 0 0 0 1.32594,-1.41659 l -7.7e-4,-13.82587 a 1.2672012,1.2672012 0 0 0 -1.32213,-1.28721 z m -10.08259,13.77919 -2.368,2.1e-4 -5.7e-4,-7.36269 2.36803,-2.1e-4 z m -1.10286,-8.48205 h -0.017 a 1.2876021,1.2876021 0 1 1 0.017,0 z m 9.75732,8.48127 -2.36801,2.1e-4 -3.7e-4,-4.02578 c -8e-5,-0.96447 -0.34475,-1.62341 -1.20149,-1.62334 a 1.2947597,1.2947597 0 0 0 -1.21419,0.87419 1.595126,1.595126 0 0 0 -0.0819,0.5815 l 3.7e-4,4.19366 -2.36801,2.1e-4 -5.6e-4,-7.36269 2.36802,-2.2e-4 9e-5,1.02463 a 2.3978497,2.3978497 0 0 1 2.13546,-1.19712 c 1.55446,-1.4e-4 2.73045,1.02437 2.73064,3.23336 z"
     fill="#3f3d56"
     id="path14"
     style="stroke-width:0.37221" />
  <path
     d="m 244.15697,193.40441 a 10.219481,10.219481 0 1 0 -11.81628,10.09583 v -7.14085 h -2.59548 v -2.95498 h 2.59547 v -2.25194 c 0,-2.56081 1.52607,-3.97647 3.86013,-3.97647 a 15.70441,15.70441 0 0 1 2.28799,0.19983 v 2.51518 h -1.28931 c -1.26876,0 -1.66568,0.78744 -1.66568,1.59678 v 1.91706 h 2.83408 l -0.45258,2.95498 h -2.38149 v 7.14132 a 10.222225,10.222225 0 0 0 8.62315,-10.09676 z"
     fill="#3f3d56"
     fill-rule="evenodd"
     id="path16"
     style="stroke-width:0.37221" />
  <polygon
     points="149.206,459.363 132.333,459.364 132.337,503.46 143.769,503.459 "
     fill="#ffb8b8"
     id="polygon18"
     transform="matrix(0.37221034,0,0,0.37221034,139.71749,177.71022)" />
  <path
     d="m 201.43652,369.05336 -13.37341,7.8e-4 -4.7e-4,-5.16703 8.20641,-5.5e-4 a 5.1669978,5.1669978 0 0 1 5.16747,5.16653 v 0 z"
     fill="#2f2e41"
     id="path20"
     style="stroke-width:0.37221" />
  <polygon
     points="87.584,459.363 70.711,459.364 70.715,503.46 82.148,503.459 "
     fill="#ffb8b8"
     id="polygon22"
     transform="matrix(0.37221034,0,0,0.37221034,139.71749,177.71022)" />
  <path
     d="m 178.50045,369.05336 -13.37343,7.8e-4 -4.6e-4,-5.16703 8.20642,-5.5e-4 a 5.1669978,5.1669978 0 0 1 5.16747,5.16652 v 0 z"
     fill="#2f2e41"
     id="path24"
     style="stroke-width:0.37221" />
  <circle
     cx="178.50044"
     cy="239.28264"
     r="9.1418686"
     fill="#ffb8b8"
     id="circle26"
     style="stroke-width:0.37221" />
  <path
     d="m 209.75962,298.90256 a 3.4902163,3.4902163 0 0 0 -4.50088,-2.89552 l -5.10905,-6.12451 -4.4791,2.197 7.33645,8.54767 a 3.5091208,3.5091208 0 0 0 6.75258,-1.72464 z"
     fill="#ffb8b8"
     id="path28"
     style="stroke-width:0.37221" />
  <path
     d="m 165.78902,305.09676 a 3.4901977,3.4901977 0 0 0 -2.24483,-4.85826 l -1.02573,-7.90947 -4.95858,-0.54897 1.6054,11.14938 a 3.5091208,3.5091208 0 0 0 6.62376,2.16734 z"
     fill="#ffb8b8"
     id="path30"
     style="stroke-width:0.37221" />
  <path
     d="m 158.84966,300.26038 a 1.6752592,1.6752592 0 0 1 -1.65658,-1.42905 l -2.44073,-16.43632 a 11.81412,11.81412 0 0 1 0.71884,-6.12384 l 7.4931,-18.69993 a 4.6837311,4.6837311 0 0 1 8.043,-1.13589 h 4e-5 a 4.6747273,4.6747273 0 0 1 0.58058,4.78965 l -3.53246,7.90128 a 53.921538,53.921538 0 0 0 -4.32644,28.27654 1.6745259,1.6745259 0 0 1 -1.17186,1.79618 l -3.21553,0.98759 a 1.6777902,1.6777902 0 0 1 -0.49196,0.0738 z"
     fill="#cccccc"
     id="path32"
     style="stroke-width:0.37221" />
  <path
     d="m 176.27459,248.42414 a 9.753772,9.753772 0 1 1 1.82762,-19.28992 c 2.01037,-1.22067 4.34775,-2.04205 6.6904,-1.83314 2.34264,0.20892 4.65945,1.59972 5.53547,3.78243 0.87603,2.18272 -0.0651,5.05987 -2.24334,5.94692 -1.39647,0.56869 -2.97346,0.29291 -4.46374,0.0636 -1.49029,-0.22932 -3.11604,-0.37897 -4.41306,0.38998 -1.29702,0.76895 -1.88005,2.83084 -0.71846,3.79221 a 3.9969695,3.9969695 0 0 1 1.14797,4.39963 c -0.58381,1.50979 -2.1772,2.7227 -3.36286,2.74831 z"
     fill="#2f2e41"
     id="path34"
     style="stroke-width:0.37221" />
  <path
     d="m 164.79976,361.79649 a 1.6749837,1.6749837 0 0 1 -1.67517,-1.71911 l 1.62627,-61.71839 0.17734,-0.004 26.88339,-0.58612 4.64163,60.01364 a 1.6800644,1.6800644 0 0 1 -1.10949,1.69821 l -0.051,0.0104 -5.27628,0.32242 a 1.6748014,1.6748014 0 0 1 -2.17016,-1.22187 l -8.60085,-38.4853 a 0.55833784,0.55833784 0 0 0 -1.09628,0.0342 l -6.35407,39.97135 a 1.6829156,1.6829156 0 0 1 -1.56881,1.40979 l -5.34203,0.27261 q -0.0423,0.002 -0.0845,0.002 z"
     fill="#2f2e41"
     id="path36"
     style="stroke-width:0.37221" />
  <path
     d="m 172.71163,303.46743 c -3.34539,0 -6.26687,-0.50543 -7.88006,-1.94757 -1.03671,-0.92671 -1.48507,-2.18692 -1.33255,-3.74572 0.57332,-5.85959 -0.42014,-18.70285 -1.35447,-28.4452 a 17.305919,17.305919 0 0 1 3.9901,-12.75766 16.481101,16.481101 0 0 1 11.48962,-5.8703 c 3.07765,-0.21919 10.28455,-0.73025 12.52471,5.00739 3.3653,8.61899 1.71938,12.57155 0.12767,16.39397 -1.35231,3.2474 -2.75064,6.60547 -1.0366,12.91142 a 94.208224,94.208224 0 0 0 3.43438,10.27213 c 0.92816,2.38011 1.39406,3.57471 0.96392,4.35493 -0.33931,0.61557 -1.18574,0.88363 -2.62892,1.16298 -0.4714,0.0914 -1.09428,0.22372 -1.83611,0.38148 -3.77132,0.80167 -10.73691,2.28215 -16.46169,2.28215 z"
     fill="#cccccc"
     id="path38"
     style="stroke-width:0.37221" />
  <path
     d="m 200.1776,298.06565 c -0.0129,0 -0.0257,0 -0.0386,-3.7e-4 a 1.6734986,1.6734986 0 0 1 -1.25635,-0.61192 l -9.47626,-11.54742 a 18.025439,18.025439 0 0 1 -3.86073,-8.57756 l -2.9178,-18.23504 a 4.6837832,4.6837832 0 1 1 9.27541,-1.29783 l 1.15997,9.67183 a 49.973893,49.973893 0 0 0 10.02892,24.54117 l 0.6629,0.86018 a 1.6745111,1.6745111 0 0 1 -0.082,2.14311 l -2.25094,2.4997 a 1.673346,1.673346 0 0 1 -1.24448,0.55415 z"
     fill="#cccccc"
     id="path40"
     style="stroke-width:0.37221" />
  <ellipse
     cx="245.61678"
     cy="206.33386"
     rx="6.2328339"
     ry="6.3012824"
     fill="#3f3d56"
     id="ellipse42"
     style="stroke-width:0.37221" />
  <path
     d="m 246.86334,209.69454 h -1.26898 v -4.83538 a 4.3672183,4.3672183 0 0 1 -1.63988,0.97228 v -1.16427 a 3.6617532,3.6617532 0 0 0 1.07934,-0.6232 2.363223,2.363223 0 0 0 0.79947,-1.0708 h 1.03007 z"
     fill="#3f3d56"
     id="path44"
     style="stroke-width:0.37221" />
  <ellipse
     cx="245.61678"
     cy="206.33386"
     rx="6.2328339"
     ry="6.3012824"
     fill="#dc5c01"
     id="ellipse46"
     style="stroke-width:0.37221" />
  <path
     d="m 246.86334,209.69454 h -1.26898 v -4.83538 a 4.3672183,4.3672183 0 0 1 -1.63988,0.97228 v -1.16427 a 3.6617532,3.6617532 0 0 0 1.07934,-0.6232 2.363223,2.363223 0 0 0 0.79947,-1.0708 h 1.03007 z"
     fill="#ffffff"
     id="path48"
     style="stroke-width:0.37221" />
  <circle
     cx="305.62988"
     cy="222.0952"
     r="6.3012824"
     fill="#3f3d56"
     id="circle50"
     style="stroke-width:0.37221" />
  <path
     d="m 304.88132,223.12524 a 1.4754976,1.4754976 0 0 0 0.27033,0.9496 0.78346559,0.78346559 0 0 0 0.61772,0.33481 0.69176036,0.69176036 0 0 0 0.55788,-0.27411 1.4293957,1.4293957 0 0 0 0.22327,-0.89793 1.495128,1.495128 0 0 0 -0.2405,-0.94078 0.75183511,0.75183511 0 0 0 -1.18864,-0.0136 1.2782857,1.2782857 0 0 0 -0.24006,0.84207 z m 2.73329,-2.75219 -1.16742,0.13507 a 0.90723293,0.90723293 0 0 0 -0.22327,-0.55662 0.63350201,0.63350201 0 0 0 -0.46756,-0.17959 0.78037622,0.78037622 0 0 0 -0.64589,0.35898 3.1387865,3.1387865 0 0 0 -0.33271,1.4957 1.3858992,1.3858992 0 0 1 1.12016,-0.55745 1.6767741,1.6767741 0 0 1 1.29342,0.60219 2.2405648,2.2405648 0 0 1 0.53855,1.55328 2.2880365,2.2880365 0 0 1 -0.56625,1.62088 2.0013452,2.0013452 0 0 1 -3.02043,-0.16425 q -0.61374,-0.77412 -0.61374,-2.53878 0,-1.80971 0.63937,-2.60873 a 2.02772,2.02772 0 0 1 1.6606,-0.7992 1.7143785,1.7143785 0 0 1 1.18633,0.41966 2.0006305,2.0006305 0 0 1 0.59883,1.21886 z"
     fill="#3f3d56"
     id="path52"
     style="stroke-width:0.37221" />
  <circle
     cx="305.62988"
     cy="222.0952"
     r="6.3012824"
     fill="#dc5c01"
     id="circle54"
     style="stroke-width:0.37221" />
  <path
     d="m 304.88132,223.12524 a 1.4754976,1.4754976 0 0 0 0.27033,0.9496 0.78346559,0.78346559 0 0 0 0.61772,0.33481 0.69176036,0.69176036 0 0 0 0.55788,-0.27411 1.4293957,1.4293957 0 0 0 0.22327,-0.89793 1.495128,1.495128 0 0 0 -0.2405,-0.94078 0.75183511,0.75183511 0 0 0 -1.18864,-0.0136 1.2782857,1.2782857 0 0 0 -0.24006,0.84207 z m 2.73329,-2.75219 -1.16742,0.13507 a 0.90723293,0.90723293 0 0 0 -0.22327,-0.55662 0.63350201,0.63350201 0 0 0 -0.46756,-0.17959 0.78037622,0.78037622 0 0 0 -0.64589,0.35898 3.1387865,3.1387865 0 0 0 -0.33271,1.4957 1.3858992,1.3858992 0 0 1 1.12016,-0.55745 1.6767741,1.6767741 0 0 1 1.29342,0.60219 2.2405648,2.2405648 0 0 1 0.53855,1.55328 2.2880365,2.2880365 0 0 1 -0.56625,1.62088 2.0013452,2.0013452 0 0 1 -3.02043,-0.16425 q -0.61374,-0.77412 -0.61374,-2.53878 0,-1.80971 0.63937,-2.60873 a 2.02772,2.02772 0 0 1 1.6606,-0.7992 1.7143785,1.7143785 0 0 1 1.18633,0.41966 2.0006305,2.0006305 0 0 1 0.59883,1.21886 z"
     fill="#ffffff"
     id="path56"
     style="stroke-width:0.37221" />
  <circle
     cx="279.11221"
     cy="270.77917"
     r="6.3012824"
     fill="#3f3d56"
     id="circle58"
     style="stroke-width:0.37221" />
  <path
     d="m 278.33214,269.20424 a 0.80095202,0.80095202 0 0 0 0.20711,0.58748 0.73569608,0.73569608 0 0 0 0.55092,0.21088 0.7453512,0.7453512 0 0 0 0.55768,-0.213 0.80601401,0.80601401 0 0 0 0.2092,-0.59 0.78157843,0.78157843 0 0 0 -0.20668,-0.56774 0.7283635,0.7283635 0 0 0 -0.54697,-0.21299 0.74757328,0.74757328 0 0 0 -0.56206,0.2153 0.78410199,0.78410199 0 0 0 -0.2092,0.57007 z m -0.11322,2.81793 a 1.1795718,1.1795718 0 0 0 0.25939,0.81183 0.83111967,0.83111967 0 0 0 0.64695,0.29175 0.80183042,0.80183042 0 0 0 0.6274,-0.28062 1.1835768,1.1835768 0 0 0 0.24825,-0.80972 1.064369,1.064369 0 0 0 -0.25247,-0.74208 0.82363073,0.82363073 0 0 0 -0.64064,-0.28101 0.75759694,0.75759694 0 0 0 -0.66897,0.31883 1.1927331,1.1927331 0 0 0 -0.21991,0.69102 z m -0.13926,-1.54823 a 1.4360359,1.4360359 0 0 1 -0.69082,-0.56773 1.5112781,1.5112781 0 0 1 -0.21551,-0.79145 1.6154561,1.6154561 0 0 1 0.49866,-1.21634 2.3297203,2.3297203 0 0 1 2.83263,0 1.6086558,1.6086558 0 0 1 0.50327,1.21636 1.4426873,1.4426873 0 0 1 -0.88051,1.35919 1.6678745,1.6678745 0 0 1 1.08531,1.61501 1.9473486,1.9473486 0 0 1 -2.06556,2.05086 2.2272545,2.2272545 0 0 1 -1.4512,-0.47093 1.8615318,1.8615318 0 0 1 -0.6841,-1.52617 1.9265049,1.9265049 0 0 1 0.25708,-0.97962 1.6671301,1.6671301 0 0 1 0.81075,-0.68918 z"
     fill="#3f3d56"
     id="path60"
     style="stroke-width:0.37221" />
  <circle
     cx="279.11221"
     cy="270.77917"
     r="6.3012824"
     fill="#dc5c01"
     id="circle62"
     style="stroke-width:0.37221" />
  <path
     d="m 278.33214,269.20424 a 0.80095202,0.80095202 0 0 0 0.20711,0.58748 0.73569608,0.73569608 0 0 0 0.55092,0.21088 0.7453512,0.7453512 0 0 0 0.55768,-0.213 0.80601401,0.80601401 0 0 0 0.2092,-0.59 0.78157843,0.78157843 0 0 0 -0.20668,-0.56774 0.7283635,0.7283635 0 0 0 -0.54697,-0.21299 0.74757328,0.74757328 0 0 0 -0.56206,0.2153 0.78410199,0.78410199 0 0 0 -0.2092,0.57007 z m -0.11322,2.81793 a 1.1795718,1.1795718 0 0 0 0.25939,0.81183 0.83111967,0.83111967 0 0 0 0.64695,0.29175 0.80183042,0.80183042 0 0 0 0.6274,-0.28062 1.1835768,1.1835768 0 0 0 0.24825,-0.80972 1.064369,1.064369 0 0 0 -0.25247,-0.74208 0.82363073,0.82363073 0 0 0 -0.64064,-0.28101 0.75759694,0.75759694 0 0 0 -0.66897,0.31883 1.1927331,1.1927331 0 0 0 -0.21991,0.69102 z m -0.13926,-1.54823 a 1.4360359,1.4360359 0 0 1 -0.69082,-0.56773 1.5112781,1.5112781 0 0 1 -0.21551,-0.79145 1.6154561,1.6154561 0 0 1 0.49866,-1.21634 2.3297203,2.3297203 0 0 1 2.83263,0 1.6086558,1.6086558 0 0 1 0.50327,1.21636 1.4426873,1.4426873 0 0 1 -0.88051,1.35919 1.6678745,1.6678745 0 0 1 1.08531,1.61501 1.9473486,1.9473486 0 0 1 -2.06556,2.05086 2.2272545,2.2272545 0 0 1 -1.4512,-0.47093 1.8615318,1.8615318 0 0 1 -0.6841,-1.52617 1.9265049,1.9265049 0 0 1 0.25708,-0.97962 1.6671301,1.6671301 0 0 1 0.81075,-0.68918 z"
     fill="#ffffff"
     id="path64"
     style="stroke-width:0.37221" />
  <path
     d="m 226.07028,369.76049 h -85.98059 a 0.37221034,0.37221034 0 0 1 0,-0.74442 h 85.98059 a 0.37221034,0.37221034 0 0 1 0,0.74442 z"
     fill="#cccccc"
     id="path66"
     style="stroke-width:0.37221" />
</svg>
