<?xml version="1.0" encoding="UTF-8" standalone="no"?>
<svg
   xmlns:dc="http://purl.org/dc/elements/1.1/"
   xmlns:cc="http://creativecommons.org/ns#"
   xmlns:rdf="http://www.w3.org/1999/02/22-rdf-syntax-ns#"
   xmlns:svg="http://www.w3.org/2000/svg"
   xmlns="http://www.w3.org/2000/svg"
   xmlns:sodipodi="http://sodipodi.sourceforge.net/DTD/sodipodi-0.dtd"
   xmlns:inkscape="http://www.inkscape.org/namespaces/inkscape"
   id="b1070cd0-28e6-4fc1-8c45-bef74f8907c5"
   data-name="Layer 1"
   width="790"
   height="701.99219"
   viewBox="0 0 790 701.99219"
   version="1.1"
   sodipodi:docname="taas2.svg"
   inkscape:version="1.0.1 (3bc2e813f5, 2020-09-07)">
  <metadata
     id="metadata75">
    <rdf:RDF>
      <cc:Work
         rdf:about="">
        <dc:format>image/svg+xml</dc:format>
        <dc:type
           rdf:resource="http://purl.org/dc/dcmitype/StillImage" />
      </cc:Work>
    </rdf:RDF>
  </metadata>
  <defs
     id="defs73" />
  <sodipodi:namedview
     pagecolor="#ffffff"
     bordercolor="#666666"
     borderopacity="1"
     objecttolerance="10"
     gridtolerance="10"
     guidetolerance="10"
     inkscape:pageopacity="0"
     inkscape:pageshadow="2"
     inkscape:window-width="1920"
     inkscape:window-height="1009"
     id="namedview71"
     showgrid="false"
     inkscape:zoom="1.1994435"
     inkscape:cx="387.19708"
     inkscape:cy="261.14133"
     inkscape:window-x="-8"
     inkscape:window-y="-8"
     inkscape:window-maximized="1"
     inkscape:current-layer="b1070cd0-28e6-4fc1-8c45-bef74f8907c5"
     inkscape:document-rotation="0" />
  <path
     d="m 508.51177,472.43644 c -6.07811,17.80235 -13.89466,35.56636 -23.90847,52.47369 -0.22227,0.38072 -0.44703,0.75393 -0.67371,1.13329 l -24.79099,-7.84291 c 0.14264,-0.35884 0.29882,-0.76046 0.46659,-1.19881 9.99927,-25.85901 70.32706,-183.41208 67.61921,-214.47599 0.29149,2.54274 9.72905,86.69139 -18.71263,169.91073 z"
     fill="#e6e6e6"
     id="path2"
     style="stroke-width:0.455981" />
  <path
     d="m 489.38605,526.42323 c -0.33689,0.34446 -0.68259,0.68613 -1.0308,1.0203 l -18.59762,-5.88355 c 0.25142,-0.30419 0.54425,-0.66259 0.88091,-1.06773 5.50798,-6.72658 21.88319,-26.86573 37.87322,-48.05583 17.18378,-22.77149 33.92597,-46.75307 36.27242,-56.60718 -0.47129,2.24084 -15.14593,70.45381 -55.39813,110.59399 z"
     fill="#e6e6e6"
     id="path4"
     style="stroke-width:0.455981" />
  <path
     d="m 498.68234,264.09035 c -0.005,0 -0.0145,10e-4 -0.0206,0.003 v -39.8663 A 16.273953,16.273953 0 0 0 482.38775,207.95333 H 357.57677 a 16.273953,16.273953 0 0 0 -16.27397,16.27392 v 20.43742 a 1.3185732,1.3185732 0 0 0 -1.29046,1.31719 v 10.12287 a 1.3182403,1.3182403 0 0 0 1.29046,1.31694 v 10.60468 h -0.0661 a 1.3199959,1.3199959 0 0 0 -1.32007,1.32008 v 19.57511 a 1.3200005,1.3200005 0 0 0 1.32007,1.32005 h 0.0661 v 7.77461 h -0.0205 a 1.3199959,1.3199959 0 0 0 -1.32004,1.32005 v 19.7666 a 1.3199959,1.3199959 0 0 0 1.32004,1.32006 h 0.0205 v 191.06775 a 16.273953,16.273953 0 0 0 16.27397,16.27395 H 482.3878 a 16.273953,16.273953 0 0 0 16.27396,-16.27395 V 302.85584 c 0.005,0 0.0145,10e-4 0.0206,10e-4 a 2.3504577,2.3504577 0 0 0 2.35055,-2.35047 v -34.06591 a 2.3506493,2.3506493 0 0 0 -2.35055,-2.35068 z"
     fill="#3f3d56"
     id="path6"
     style="stroke-width:0.455981" />
  <path
     d="M 488.94487,228.78187 V 506.93013 A 12.498433,12.498433 0 0 1 476.44644,519.424 H 363.51825 A 12.498433,12.498433 0 0 1 351.01982,506.93013 V 228.78187 a 12.498433,12.498433 0 0 1 12.49843,-12.49843 h 16.89865 v 2.19326 a 10.296045,10.296045 0 0 0 10.29147,10.29148 h 57.45359 a 10.291486,10.291486 0 0 0 10.26869,-10.29148 v -2.17045 h 18.01579 a 12.498433,12.498433 0 0 1 12.49843,12.47562 z"
     fill="#ffffff"
     id="path8"
     style="stroke-width:0.455981" />
  <path
     d="m 305.82269,364.0265 a 4.8984825,4.8984825 0 0 0 -6.57637,3.62892 l -40.24227,21.8815 7.0755,7.96341 37.3722,-23.98418 a 4.9250069,4.9250069 0 0 0 2.37095,-9.48965 z"
     fill="#ffb8b8"
     id="path10"
     style="stroke-width:0.455981" />
  <polygon
     points="200.697,634.635 184.466,645.133 211.903,687.551 222.9,680.438 "
     fill="#ffb8b8"
     id="polygon12"
     transform="matrix(0.45598075,0,0,0.45598075,198.9358,207.95263)" />
  <path
     d="m 313.25657,516.62015 -15.7599,10.19394 -3.93858,-6.08904 9.89854,-6.40266 a 6.9806639,6.9806639 0 0 1 9.65267,2.0701 l 0.14724,0.22766 z"
     fill="#2f2e41"
     id="path14"
     style="stroke-width:0.455981" />
  <polygon
     points="107.841,638.688 88.511,638.688 88.511,689.206 101.608,689.206 "
     fill="#ffb8b8"
     id="polygon16"
     transform="matrix(0.45598075,0,0,0.45598075,198.9358,207.95263)" />
  <path
     d="m 256.78489,527.76259 h -18.76944 v -7.25185 h 11.78877 a 6.9806639,6.9806639 0 0 1 6.98067,6.98069 z"
     fill="#2f2e41"
     id="path18"
     style="stroke-width:0.455981" />
  <path
     d="m 376.31231,253.09116 h -12.31148 a 1.139957,1.139957 0 0 1 0,-2.27991 h 12.31148 a 1.139957,1.139957 0 0 1 0,2.27991 z"
     fill="#3f3d56"
     id="path20"
     style="stroke-width:0.455981" />
  <path
     d="m 376.31231,256.28301 h -12.31148 a 1.139952,1.139952 0 0 1 0,-2.2799 h 12.31148 a 1.139952,1.139952 0 0 1 0,2.2799 z"
     fill="#3f3d56"
     id="path22"
     style="stroke-width:0.455981" />
  <path
     d="m 376.31231,259.47489 h -12.31148 a 1.1399518,1.1399518 0 0 1 0,-2.27989 h 12.31148 a 1.1399518,1.1399518 0 0 1 0,2.27989 z"
     fill="#3f3d56"
     id="path24"
     style="stroke-width:0.455981" />
  <path
     d="m 471.74524,256.3058 h -0.41495 l -0.15959,-0.13219 a 3.4701002,3.4701002 0 0 0 0.81165,-2.22975 3.3924969,3.3924969 0 1 0 -3.37426,3.41075 3.524731,3.524731 0 0 0 2.22517,-0.81167 l 0.15509,0.1322 v 0.4195 l 2.61731,2.62189 0.7843,-0.78428 z m -3.13715,0 a 2.3619804,2.3619804 0 1 1 2.35281,-2.37112 l 2e-5,0.01 a 2.348301,2.348301 0 0 1 -2.33457,2.36194 c -0.004,3e-5 -0.0117,5e-5 -0.0181,3e-5 z"
     fill="#3f3d56"
     id="path26"
     style="stroke-width:0.455981" />
  <path
     d="m 401.3937,295.04137 h -22.11752 a 5.0157882,5.0157882 0 0 1 0,-10.03157 h 22.11752 a 5.0157882,5.0157882 0 0 1 0,10.03157 z"
     fill="#dc5c01"
     id="path28"
     style="stroke-width:0.455981" />
  <path
     d="m 469.10439,305.98491 h -92.10814 a 2.7358851,2.7358851 0 0 1 0,-5.47174 h 92.10814 a 2.7358851,2.7358851 0 0 1 0,5.47174 z"
     fill="#e6e6e6"
     id="path30"
     style="stroke-width:0.455981" />
  <path
     d="m 410.83015,316.92846 h -33.8339 a 2.7358851,2.7358851 0 0 1 0,-5.47176 h 33.8339 a 2.7358851,2.7358851 0 0 1 0,5.47176 z"
     fill="#e6e6e6"
     id="path32"
     style="stroke-width:0.455981" />
  <path
     d="m 401.3937,416.33227 h -22.11752 a 5.0157925,5.0157925 0 0 1 0,-10.03158 h 22.11752 a 5.0157925,5.0157925 0 0 1 0,10.03158 z"
     fill="#dc5c01"
     id="path34"
     style="stroke-width:0.455981" />
  <path
     d="m 469.10439,427.2758 h -92.10814 a 2.7358922,2.7358922 0 0 1 0,-5.47178 h 92.10814 a 2.7358922,2.7358922 0 0 1 0,5.47178 z"
     fill="#e6e6e6"
     id="path36"
     style="stroke-width:0.455981" />
  <path
     d="m 410.83015,438.21933 h -33.8339 a 2.7358876,2.7358876 0 0 1 0,-5.47177 h 33.8339 a 2.7358876,2.7358876 0 0 1 0,5.47177 z"
     fill="#e6e6e6"
     id="path38"
     style="stroke-width:0.455981" />
  <path
     d="m 401.3937,472.4179 h -22.11752 a 5.0157963,5.0157963 0 0 1 0,-10.03159 h 22.11752 a 5.0157963,5.0157963 0 0 1 0,10.03159 z"
     fill="#dc5c01"
     id="path40"
     style="stroke-width:0.455981" />
  <path
     d="m 469.10439,483.36142 h -92.10814 a 2.7358922,2.7358922 0 0 1 0,-5.47176 h 92.10814 a 2.7358922,2.7358922 0 0 1 0,5.47176 z"
     fill="#e6e6e6"
     id="path42"
     style="stroke-width:0.455981" />
  <path
     d="m 410.83015,494.30496 h -33.8339 a 2.7358886,2.7358886 0 0 1 0,-5.47176 h 33.8339 a 2.7358886,2.7358886 0 0 1 0,5.47176 z"
     fill="#e6e6e6"
     id="path44"
     style="stroke-width:0.455981" />
  <path
     d="M 482.09983,387.83346 H 306.09127 a 3.8803095,3.8803095 0 0 1 -3.87582,-3.87584 v -47.87797 a 3.880173,3.880173 0 0 1 3.87582,-3.87584 h 176.00856 a 3.8803141,3.8803141 0 0 1 3.87584,3.87584 v 47.87797 a 3.8804556,3.8804556 0 0 1 -3.87584,3.87584 z"
     fill="#dc5c01"
     id="path46"
     style="stroke-width:0.455981" />
  <path
     d="m 242.81555,444.79459 c 1.68258,11.80535 -7.2273,64.10636 -6.23782,64.10175 l 12.79482,-0.0683 c 0.45599,-0.8755 6.32901,-29.09613 8.17117,-33.62404 2.57174,-6.28338 5.16628,-12.64431 6.17856,-19.35638 0.95299,-6.30163 0.48333,-12.72186 -0.13684,-19.06453 a 1.2037892,1.2037892 0 0 0 -1.39531,-1.36794 l -17.16766,-0.88461 c -3.53843,-0.1824 -4.37745,-0.95756 -3.83937,2.51703 0.37389,2.59453 1.25851,5.12065 1.63241,7.74711 z"
     fill="#2f2e41"
     id="path48"
     style="stroke-width:0.455981" />
  <path
     d="m 246.18979,416.09063 c -3.48822,5.01577 -7.14519,10.7885 -5.98703,16.79377 0.88006,4.55978 4.35463,8.09364 7.63314,11.39952 13.10488,13.15959 38.94531,71.22418 38.94531,71.22418 12.47036,-7.97968 -0.29711,0.22798 12.3571,-8.20764 -1.12173,-0.0867 -26.60648,-91.69773 -28.7177,-91.82085 -8.54051,-0.56543 -15.90916,-1.39986 -24.23082,0.61102 z"
     fill="#2f2e41"
     id="path50"
     style="stroke-width:0.455981" />
  <path
     d="m 259.98712,368.34984 c -1.77181,-1.58011 -14.22314,-6.45285 -14.22314,-6.45285 a 2.1359552,2.1359552 0 0 0 -0.68793,0.0207 c -0.7086,0.1789 -1.03189,1.05944 -0.88056,1.77144 0.15141,0.71202 -1.09037,12.41385 -1.41027,17.73505 -0.56067,9.28715 4.90843,30.3243 4.86029,30.96752 a 9.6104783,9.6104783 0 0 1 -2.83086,6.06073 c 0.42596,0.52872 27.47968,1.58913 29.31991,2.21514 0.37148,-0.47123 -2.09478,-33.83963 -2.20827,-35.72459 -0.18922,-2.8618 -9.60021,-14.42602 -11.93917,-16.59307 z"
     fill="#e6e6e6"
     id="path52"
     style="stroke-width:0.455981" />
  <path
     d="m 240.6912,440.7539 a 4.8984734,4.8984734 0 0 0 1.7517,-7.30411 l 11.41455,-63.17159 -10.65173,-0.14032 -7.92676,62.46853 a 4.9250069,4.9250069 0 0 0 5.41224,8.14755 z"
     fill="#ffb8b8"
     id="path54"
     style="stroke-width:0.455981" />
  <path
     d="m 240.59948,374.9657 a 2.0200313,2.0200313 0 0 1 -1.2585,-0.32832 c -0.63383,-0.54261 4.537,-8.84604 5.5584,-8.96915 3.32411,-0.38302 6.74396,-0.51068 9.96775,0.3876 3.22378,0.89826 6.25605,2.94108 7.69694,5.96423 0.60191,1.25851 -3.76184,7.59208 -5.74536,6.66187 -2.37565,-1.11256 -13.09121,-3.63872 -16.21923,-3.71623 z"
     fill="#e6e6e6"
     id="path56"
     style="stroke-width:0.455981" />
  <circle
     cx="252.33211"
     cy="349.25204"
     r="11.96439"
     fill="#ffb8b8"
     id="circle58"
     style="stroke-width:0.455981" />
  <path
     d="m 240.58045,369.03401 a 9.9972225,9.9972225 0 0 0 10.5266,-13.09827 c -0.47614,-1.43147 -1.27201,-2.74358 -1.70802,-4.18775 -0.43604,-1.44422 -0.44794,-3.15184 0.51916,-4.30969 1.89219,-2.2653 5.53922,-0.84038 8.45629,-1.29074 3.10825,-0.47988 5.49286,-3.46192 5.7416,-6.59715 0.24872,-3.13526 -1.38544,-6.23782 -3.81812,-8.23123 -2.43268,-1.99342 -5.57013,-2.97494 -8.70013,-3.28248 a 23.526035,23.526035 0 0 0 -24.1463,32.14444 c 1.30769,3.27192 3.44367,6.31935 6.4776,8.11125 3.03391,1.79187 7.04094,2.13611 10.06473,0.3272"
     fill="#2f2e41"
     id="path60"
     style="stroke-width:0.455981" />
  <path
     d="m 368.68694,354.0909 h -30.57527 c -1.94182,0 -3.52155,-2.2501 -3.52155,-5.01581 0,-2.76573 1.57977,-5.01578 3.52156,-5.01578 h 30.57526 c 1.94182,0 3.52153,2.25005 3.52153,5.01578 0,2.76571 -1.57975,5.01581 -3.52153,5.01581 z"
     fill="#ffffff"
     id="path62"
     style="stroke-width:0.455981" />
  <path
     d="m 450.86516,365.03443 h -113.5392 a 2.7358922,2.7358922 0 0 1 0,-5.47178 h 113.5392 a 2.7358922,2.7358922 0 0 1 0,5.47178 z"
     fill="#e6e6e6"
     id="path64"
     style="stroke-width:0.455981" />
  <path
     d="m 392.59092,375.97795 h -55.26496 a 2.7358886,2.7358886 0 0 1 0,-5.47177 h 55.26496 a 2.7358886,2.7358886 0 0 1 0,5.47177 z"
     fill="#e6e6e6"
     id="path66"
     style="stroke-width:0.455981" />
  <rect
     y="527.13562"
     width="360.22476"
     height="0.9119615"
     fill="#3f3d56"
     id="rect68"
     x="198.93581"
     style="stroke-width:0.455981" />
</svg>
