<?xml version="1.0" encoding="UTF-8" standalone="no"?>
<svg
   xmlns:dc="http://purl.org/dc/elements/1.1/"
   xmlns:cc="http://creativecommons.org/ns#"
   xmlns:rdf="http://www.w3.org/1999/02/22-rdf-syntax-ns#"
   xmlns:svg="http://www.w3.org/2000/svg"
   xmlns="http://www.w3.org/2000/svg"
   xmlns:sodipodi="http://sodipodi.sourceforge.net/DTD/sodipodi-0.dtd"
   xmlns:inkscape="http://www.inkscape.org/namespaces/inkscape"
   id="b6aa0626-c548-43ac-b721-fcff4f949bc4"
   data-name="Layer 1"
   width="868.9803"
   height="474.6702"
   viewBox="0 0 868.9803 474.6702"
   version="1.1"
   sodipodi:docname="taas4.svg"
   inkscape:version="1.0.1 (3bc2e813f5, 2020-09-07)">
  <metadata
     id="metadata81">
    <rdf:RDF>
      <cc:Work
         rdf:about="">
        <dc:format>image/svg+xml</dc:format>
        <dc:type
           rdf:resource="http://purl.org/dc/dcmitype/StillImage" />
      </cc:Work>
    </rdf:RDF>
  </metadata>
  <defs
     id="defs79" />
  <sodipodi:namedview
     pagecolor="#ffffff"
     bordercolor="#666666"
     borderopacity="1"
     objecttolerance="10"
     gridtolerance="10"
     guidetolerance="10"
     inkscape:pageopacity="0"
     inkscape:pageshadow="2"
     inkscape:window-width="1920"
     inkscape:window-height="1009"
     id="namedview77"
     showgrid="false"
     inkscape:zoom="1.1991066"
     inkscape:cx="434.49014"
     inkscape:cy="237.3351"
     inkscape:window-x="-8"
     inkscape:window-y="-8"
     inkscape:window-maximized="1"
     inkscape:current-layer="b6aa0626-c548-43ac-b721-fcff4f949bc4"
     inkscape:document-rotation="0" />
  <path
     d="m 152.4676,367.56892 c -12.95871,11.04984 -15.64838,29.17302 -15.64838,29.17302 0,0 18.3205,0.20789 31.27919,-10.84195 12.95873,-11.04984 15.6484,-29.17304 15.6484,-29.17304 0,0 -18.3205,-0.20786 -31.27921,10.84197 z"
     fill="#f2f2f2"
     id="path2"
     style="stroke-width:0.699811" />
  <path
     d="m 158.45569,371.96526 c -5.51994,16.1108 -21.38973,25.26697 -21.38973,25.26697 0,0 -6.9202,-16.96457 -1.40028,-33.07533 5.51993,-16.11081 21.38969,-25.26696 21.38969,-25.26696 0,0 6.92024,16.96456 1.40032,33.07532 z"
     fill="#f2f2f2"
     id="path4"
     style="stroke-width:0.699811" />
  <path
     d="m 293.71879,133.60646 c -2.93216,-3.79931 -7.07603,-7.31462 -7.33846,-12.00288 -0.24056,-4.29998 2.96567,-8.56919 1.61353,-12.68298 -1.0398,-3.163 -4.46982,-5.07156 -7.82162,-6.08224 a 30.399233,30.399233 0 0 0 -19.53559,0.75209 l 0.33929,-0.23926 c -3.81547,-1.35914 -8.27539,0.0439 -11.27726,2.64268 -3.0022,2.59871 -4.78626,6.20083 -6.17051,9.81057 -1.38459,3.60971 -2.45721,7.3515 -4.38066,10.73564 -1.92376,3.38415 -4.86895,6.46175 -8.7548,7.63133 1.30084,2.59487 5.36748,3.48506 7.75259,1.69703 a 9.8069317,9.8069317 0 0 0 1.63129,-1.68643 q 2.38596,-2.90143 4.77226,-5.8028 c 1.63677,2.91107 -0.80849,6.92892 1.20349,9.62394 1.0374,1.38983 2.93216,1.91759 4.69193,2.29618 a 84.871108,84.871108 0 0 0 41.52056,-1.54006 c 1.08491,-0.31969 2.28189,-0.76 2.73191,-1.74198 0.51974,-1.13365 -0.20708,-2.4118 -0.97795,-3.41083 z"
     fill="#2f2e41"
     id="path6"
     style="stroke-width:0.699811" />
  <path
     d="m 332.71744,148.43314 a 7.3671861,7.3671861 0 0 0 -0.16746,1.14779 l -30.06209,17.34272 -7.30701,-4.20651 -7.78973,10.19784 12.21193,8.70392 a 5.59849,5.59849 0 0 0 6.71693,-0.16365 l 30.9992,-24.45551 a 7.3459888,7.3459888 0 1 0 -4.60177,-8.5666 z"
     fill="#ffb7b7"
     id="path8"
     style="stroke-width:0.699811" />
  <path
     d="m 301.48287,167.74506 -9.71599,12.59243 a 3.1491508,3.1491508 0 0 1 -4.76147,0.2608 l -10.99916,-11.42176 a 8.7458355,8.7458355 0 0 1 10.72579,-13.81721 l 13.79537,7.71387 a 3.1491508,3.1491508 0 0 1 0.95551,4.67187 z"
     fill="#dc5c01"
     id="path10"
     style="stroke-width:0.699811" />
  <polygon
     points="253.548,460.266 259.38,412.978 241.286,412.979 241.288,460.267 "
     fill="#ffb7b7"
     id="polygon12"
     transform="matrix(0.69981127,0,0,0.69981127,119.2552,65.05267)" />
  <path
     d="m 285.9226,384.35136 16.89624,-6.8e-4 h 7.2e-4 a 10.768205,10.768205 0 0 1 10.76761,10.76741 v 0.34993 l -27.66405,9.8e-4 z"
     fill="#2f2e41"
     id="path14"
     style="stroke-width:0.699811" />
  <polygon
     points="169.548,460.266 175.38,412.978 157.286,412.979 157.288,460.267 "
     fill="#ffb7b7"
     id="polygon16"
     transform="matrix(0.69981127,0,0,0.69981127,119.2552,65.05267)" />
  <path
     d="m 227.13846,384.35136 16.89625,-6.8e-4 h 7.1e-4 a 10.768205,10.768205 0 0 1 10.76762,10.76741 v 0.34993 l -27.66408,9.8e-4 z"
     fill="#2f2e41"
     id="path18"
     style="stroke-width:0.699811" />
  <circle
     cx="-97.282845"
     cy="280.50992"
     r="14.82749"
     transform="rotate(-83.7356)"
     fill="#ffb7b7"
     id="circle20"
     style="stroke-width:0.699811" />
  <path
     d="m 276.89561,149.5384 8.73519,4.32743 c 0,0 9.75993,16.96133 4.16142,33.05699 -2.71812,7.81463 4.93614,32.72529 4.93614,32.72529 0,0 11.85934,112.83545 11.89678,147.66016 -14.73347,2.26531 -28.72968,5.06454 -29.42951,-1.93359 -0.69979,-6.99809 -8.36029,-89.74169 -8.36029,-89.74169 0,0 -10.53461,91.84114 -18.93235,93.24076 -8.3977,1.39964 -25.1932,-0.69979 -25.1932,-0.69979 0,0 13.33384,-134.52964 22.4314,-142.92738 l 1.39962,-6.99811 -0.0374,-62.81715 10.48151,-5.00202 z"
     fill="#2f2e41"
     id="path22"
     style="stroke-width:0.699811" />
  <path
     d="m 245.64697,244.90188 a 7.5178347,7.5178347 0 0 0 2.30317,-11.29531 l 10.15898,-67.71505 -13.27248,-0.63718 -7.91915,67.4348 a 7.5585985,7.5585985 0 0 0 8.72948,12.21274 z"
     fill="#ffb7b7"
     id="path24"
     style="stroke-width:0.699811" />
  <path
     d="m 257.82074,182.85835 -15.87338,-1.00215 a 3.1491508,3.1491508 0 0 1 -2.88149,-3.79955 l 3.30748,-15.50802 a 8.7458284,8.7458284 0 0 1 17.45353,1.15332 l 1.33033,15.74944 a 3.1491508,3.1491508 0 0 1 -3.33643,3.40703 z"
     fill="#dc5c01"
     id="path26"
     style="stroke-width:0.699811" />
  <path
     d="M 696.51971,118.64706 H 345.49882 a 9.6615941,9.6615941 0 0 0 -9.66159,9.66161 v 195.58231 a 9.6615941,9.6615941 0 0 0 9.66159,9.66157 h 351.02089 a 9.6615941,9.6615941 0 0 0 9.66159,-9.66157 V 128.30867 a 9.6615941,9.6615941 0 0 0 -9.66159,-9.66161 z"
     fill="#3f3d56"
     id="path28"
     style="stroke-width:0.699811" />
  <rect
     x="348.79044"
     y="135.72174"
     width="344.43759"
     height="194.29816"
     fill="#ffffff"
     id="rect30"
     style="stroke-width:0.699811" />
  <circle
     cx="520.71472"
     cy="126.89003"
     r="3.5326824"
     fill="#ffffff"
     id="circle32"
     style="stroke-width:0.699811" />
  <polygon
     points="679.425,378.627 327.996,378.627 327.996,100.983 "
     fill="#f2f2f2"
     style="isolation:isolate"
     id="polygon34"
     transform="matrix(0.69981127,0,0,0.69981127,119.2552,65.05267)" />
  <path
     d="m 715.85229,326.4872 h -33.61492 v -2.42196 a 0.48018952,0.48018952 0 0 0 -0.48016,-0.4802 h -11.52519 a 0.48019651,0.48019651 0 0 0 -0.48024,0.48017 v 2.42199 h -7.20304 v -2.42196 a 0.48019651,0.48019651 0 0 0 -0.4802,-0.4802 h -11.52511 a 0.48019651,0.48019651 0 0 0 -0.4802,0.4802 v 0 2.42196 h -7.20315 v -2.42196 a 0.48019651,0.48019651 0 0 0 -0.48024,-0.4802 h -11.52515 a 0.48019651,0.48019651 0 0 0 -0.4802,0.4802 v 0 2.42196 h -7.20316 v -2.42196 a 0.48019651,0.48019651 0 0 0 -0.4802,-0.4802 h -11.52512 a 0.48018952,0.48018952 0 0 0 -0.48022,0.48017 v 2.42199 h -7.20316 v -2.42196 a 0.48019651,0.48019651 0 0 0 -0.48019,-0.4802 H 591.4773 a 0.48019651,0.48019651 0 0 0 -0.48021,0.4802 v 0 2.42196 h -7.20319 v -2.42196 a 0.48019651,0.48019651 0 0 0 -0.48021,-0.4802 h -11.52511 a 0.48019651,0.48019651 0 0 0 -0.4802,0.4802 v 0 2.42196 h -7.20316 v -2.42196 a 0.48019651,0.48019651 0 0 0 -0.48022,-0.4802 h -90.27995 a 0.48019651,0.48019651 0 0 0 -0.48021,0.4802 v 0 2.42196 h -7.20321 v -2.42196 a 0.48019651,0.48019651 0 0 0 -0.48019,-0.4802 h -11.52509 a 0.48019651,0.48019651 0 0 0 -0.48019,0.4802 v 0 2.42196 h -7.20322 v -2.42196 a 0.48018952,0.48018952 0 0 0 -0.48017,-0.4802 h -11.52516 a 0.48019651,0.48019651 0 0 0 -0.48018,0.4802 v 0 2.42196 h -7.20321 v -2.42196 a 0.48019651,0.48019651 0 0 0 -0.48021,-0.4802 h -11.52509 a 0.48019651,0.48019651 0 0 0 -0.48025,0.4802 v 0 2.42196 h -7.20314 v -2.42196 a 0.48019651,0.48019651 0 0 0 -0.48021,-0.4802 h -11.52511 a 0.48019651,0.48019651 0 0 0 -0.48022,0.4802 v 0 2.42196 h -7.2032 v -2.42196 a 0.48019651,0.48019651 0 0 0 -0.48019,-0.4802 h -11.52513 a 0.48020348,0.48020348 0 0 0 -0.48019,0.48017 v 2.42199 h -7.20314 v -2.42196 a 0.48019651,0.48019651 0 0 0 -0.4802,-0.4802 h -11.52517 a 0.48021049,0.48021049 0 0 0 -0.4802,0.4802 v 0 2.42196 h -22.08978 a 11.525094,11.525094 0 0 0 -11.52511,11.5251 v 5.21135 a 11.525086,11.525086 0 0 0 11.52511,11.5251 h 383.2095 a 11.525108,11.525108 0 0 0 11.52513,-11.5251 v -5.21135 a 11.525086,11.525086 0 0 0 -11.52513,-11.5251 z"
     fill="#3f3d56"
     id="path36"
     style="stroke-width:0.699811" />
  <path
     d="m 527.63465,304.54271 a 8.4603542,8.4603542 0 0 1 -0.38763,0.80005 10.236209,10.236209 0 0 1 -3.10227,3.48997 10.191974,10.191974 0 0 1 -16.05783,-8.3351 v -1.64496 h 1.39595 a 35.649597,35.649597 0 0 0 18.15178,5.69004 z"
     fill="#3f3d56"
     id="path38"
     style="stroke-width:0.699811" />
  <path
     d="m 547.55408,299.33431 v 1.1633 a 10.188608,10.188608 0 0 1 -19.13574,4.8778 8.5098871,8.5098871 0 0 1 -0.40401,-0.82048 c 0.29797,0.008 0.59175,0.0122 0.88994,0.0122 a 35.702825,35.702825 0 0 0 18.64981,-5.23289 z"
     fill="#3f3d56"
     id="path40"
     style="stroke-width:0.699811" />
  <path
     d="m 561.2852,176.31631 c -0.30614,-0.045 -0.61628,-0.0733 -0.92659,-0.0937 a 34.278308,34.278308 0 0 1 0.68182,25.59711 c 0.31012,-0.0368 0.61626,-0.0856 0.92241,-0.14285 a 12.858633,12.858633 0 0 0 -0.67764,-25.36038 z"
     fill="#3f3d56"
     id="path42"
     style="stroke-width:0.699811" />
  <path
     d="m 497.44969,176.22242 c -0.31031,0.0202 -0.62044,0.049 -0.92659,0.0937 a 12.858669,12.858669 0 0 0 -0.67764,25.36035 c 0.30614,0.0573 0.6123,0.10613 0.9224,0.14287 a 34.280835,34.280835 0 0 1 0.68183,-25.59711 z"
     fill="#3f3d56"
     id="path44"
     style="stroke-width:0.699811" />
  <path
     d="m 561.2852,176.31631 a 35.099607,35.099607 0 1 0 2.72274,13.55166 35.150267,35.150267 0 0 0 -2.72274,-13.55166 z m -0.24477,25.50321 a 34.278308,34.278308 0 1 1 2.15113,-11.95155 34.337304,34.337304 0 0 1 -2.15113,11.95155 z"
     fill="#3f3d56"
     id="path46"
     style="stroke-width:0.699811" />
  <path
     d="m 546.86428,181.90841 h -35.92006 a 7.1431906,7.1431906 0 0 0 0,14.28636 h 35.92006 a 7.1431906,7.1431906 0 0 0 0,-14.28636 z"
     fill="#3f3d56"
     id="path48"
     style="stroke-width:0.699811" />
  <path
     d="m 561.04043,250.86675 q -0.19613,-0.36126 -0.4042,-0.71027 c -0.003,-0.0104 -0.008,-0.0111 -0.0111,-0.0203 a 36.721616,36.721616 0 1 0 -33.37708,55.20667 c 0.38766,0.0202 0.7795,0.0325 1.17133,0.0325 0.16343,0.0104 0.32249,0.0104 0.48591,0.0104 a 36.466052,36.466052 0 0 0 18.64983,-5.09818 36.980253,36.980253 0 0 0 14.26188,-15.32725 c 0.003,-0.008 0.0104,-0.0111 0.0111,-0.0203 0.12257,-0.24493 0.24096,-0.49387 0.35935,-0.74695 a 36.683668,36.683668 0 0 0 -1.14708,-33.32418 z m 0.35099,33.09947 q -0.17758,0.37966 -0.36733,0.74702 a 36.170537,36.170537 0 0 1 -13.47001,14.62107 35.702825,35.702825 0 0 1 -18.64981,5.23289 c -0.29819,0 -0.59197,-0.003 -0.88994,-0.0111 q -0.18981,0 -0.37968,-0.0111 a 35.918762,35.918762 0 1 1 32.17308,-54.17808 c 0.003,0.0104 0.008,0.0122 0.0111,0.0202 0.1429,0.23266 0.28159,0.46941 0.41238,0.70615 a 35.874426,35.874426 0 0 1 1.15913,32.87498 z"
     fill="#3f3d56"
     id="path50"
     style="stroke-width:0.699811" />
  <path
     d="m 557.13819,251.95249 a 4.2456988,4.2456988 0 0 0 -2.44911,-0.78776 h -16.05383 a 4.2165353,4.2165353 0 1 0 0,8.43307 h 16.05383 a 4.1700213,4.1700213 0 0 0 0.85302,-0.0856 4.6323587,4.6323587 0 0 0 0.81637,-0.25717 4.2148374,4.2148374 0 0 0 0.77971,-7.30239 z"
     fill="#3f3d56"
     id="path52"
     style="stroke-width:0.699811" />
  <circle
     cx="539.70404"
     cy="255.38101"
     r="2.1406877"
     fill="#f1f1f1"
     id="circle54"
     style="stroke-width:0.699811" />
  <circle
     cx="546.66125"
     cy="255.38101"
     r="2.1406877"
     fill="#f1f1f1"
     id="circle56"
     style="stroke-width:0.699811" />
  <circle
     cx="553.61859"
     cy="255.38101"
     r="2.1406877"
     fill="#dc5c01"
     id="circle58"
     style="stroke-width:0.699811" />
  <path
     d="m 634.24415,184.82761 c -5.56699,3.33865 -15.48541,7.52208 -25.621,3.22284 l -6.55185,-2.77915 13.12944,-14.71796 a 62.704637,62.704637 0 1 1 19.04341,14.27427 z"
     fill="#ffffff"
     id="path60"
     style="stroke-width:0.699811" />
  <path
     d="m 634.27829,185.6209 c -5.34932,3.14061 -15.53938,7.48095 -25.92838,3.07364 l -7.45089,-3.16045 13.36252,-14.97896 a 63.404594,63.404594 0 1 1 89.98172,4.83852 v 0 A 63.121913,63.121913 0 0 1 634.27832,185.6209 Z M 707.5766,86.772894 a 62.00488,62.00488 0 1 0 -91.85751,83.310376 l 0.42286,0.4664 -12.89832,14.45889 5.65282,2.39778 c 10.03359,4.25624 19.96231,-0.16504 24.98779,-3.17887 l 0.32485,-0.19515 0.34085,0.16576 a 62.004749,62.004749 0 0 0 73.02667,-97.42515 z"
     fill="#dc5c01"
     id="path62"
     style="stroke-width:0.699811" />
  <path
     d="M 714.58387,128.03727 A 57.70655,57.70655 0 0 0 661.98013,70.560335 c 1.68083,-0.147246 3.38103,-0.22691 5.10007,-0.22691 a 57.703848,57.703848 0 0 1 0,115.407675 c -1.71644,0 -3.41373,-0.0807 -5.09202,-0.22763 a 57.706577,57.706577 0 0 0 52.59569,-57.4762 z"
     opacity="0.1"
     style="isolation:isolate;stroke-width:0.699811"
     id="path64" />
  <rect
     x="628.55798"
     y="116.53036"
     width="41.232639"
     height="3.8290381"
     fill="#dc5c01"
     id="rect66"
     style="stroke-width:0.699811" />
  <rect
     x="628.55798"
     y="129.77625"
     width="71.865021"
     height="3.8290381"
     fill="#dc5c01"
     id="rect68"
     style="stroke-width:0.699811" />
  <rect
     x="628.55798"
     y="143.02211"
     width="71.79467"
     height="3.8290381"
     fill="#dc5c01"
     id="rect70"
     style="stroke-width:0.699811" />
  <path
     d="m 386.58311,396.19916 h -266.6281 a 0.69981127,0.69981127 0 0 1 0,-1.39961 h 266.6281 a 0.69981127,0.69981127 0 0 1 0,1.39961 z"
     fill="#cbcbcb"
     id="path72"
     style="stroke-width:0.699811" />
  <path
     d="m 283.76014,117.6718 c -0.57781,-2.62105 -2.45445,-4.79267 -4.61643,-6.38308 a 18.906591,18.906591 0 0 0 -24.16947,1.46975 12.351018,12.351018 0 0 0 -3.73278,5.98283 7.3383258,7.3383258 0 0 0 1.56397,6.68186 l 0.29625,0.18556 c -0.26857,-1.13931 0.61645,-2.27773 1.67369,-2.78039 a 13.373189,13.373189 0 0 1 3.41398,-0.76543 12.551115,12.551115 0 0 0 8.5074,-6.00323 14.174232,14.174232 0 0 0 8.12301,8.46528 c 1.95969,0.76638 7.34222,1.82024 9.20794,0.84723 2.37997,-1.241 0.31029,-5.07928 -0.26756,-7.70038 z"
     fill="#2f2e41"
     id="path74"
     style="stroke-width:0.699811" />
</svg>
