<?xml version="1.0" encoding="UTF-8" standalone="no"?>
<svg
   xmlns:dc="http://purl.org/dc/elements/1.1/"
   xmlns:cc="http://creativecommons.org/ns#"
   xmlns:rdf="http://www.w3.org/1999/02/22-rdf-syntax-ns#"
   xmlns:svg="http://www.w3.org/2000/svg"
   xmlns="http://www.w3.org/2000/svg"
   xmlns:sodipodi="http://sodipodi.sourceforge.net/DTD/sodipodi-0.dtd"
   xmlns:inkscape="http://www.inkscape.org/namespaces/inkscape"
   id="fab53ecb-c04a-44eb-8d92-23f87bdb6c81"
   data-name="Layer 1"
   width="942.54724"
   height="631.43903"
   viewBox="0 0 942.54724 631.43903"
   version="1.1"
   sodipodi:docname="taas.svg"
   inkscape:version="1.0.1 (3bc2e813f5, 2020-09-07)">
  <metadata
     id="metadata115">
    <rdf:RDF>
      <cc:Work
         rdf:about="">
        <dc:format>image/svg+xml</dc:format>
        <dc:type
           rdf:resource="http://purl.org/dc/dcmitype/StillImage" />
      </cc:Work>
    </rdf:RDF>
  </metadata>
  <defs
     id="defs113">
    <rect
       x="39.800459"
       y="35.27768"
       width="312.07178"
       height="262.32121"
       id="rect119" />
  </defs>
  <sodipodi:namedview
     pagecolor="#ffffff"
     bordercolor="#666666"
     borderopacity="1"
     objecttolerance="10"
     gridtolerance="10"
     guidetolerance="10"
     inkscape:pageopacity="0"
     inkscape:pageshadow="2"
     inkscape:window-width="1920"
     inkscape:window-height="1009"
     id="namedview111"
     showgrid="false"
     inkscape:zoom="1.1055149"
     inkscape:cx="471.27362"
     inkscape:cy="307.64369"
     inkscape:window-x="-8"
     inkscape:window-y="-8"
     inkscape:window-maximized="1"
     inkscape:current-layer="fab53ecb-c04a-44eb-8d92-23f87bdb6c81"
     inkscape:document-rotation="0" />
  <path
     d="m 769.69697,285.4099 2.64938,-21.23598 a 28.676839,28.676839 0 0 1 56.91247,7.10032 l -2.64937,21.23598 a 3.8564648,3.8564648 0 0 1 -4.29938,3.34561 l -49.26749,-6.14656 a 3.8564557,3.8564557 0 0 1 -3.34561,-4.29937 z"
     fill="#2f2e41"
     id="path2"
     style="stroke-width:0.946913" />
  <circle
     cx="793.29663"
     cy="270.72052"
     r="21.024843"
     fill="#ffb8b8"
     id="circle4"
     style="stroke-width:0.946913" />
  <path
     d="m 765.40235,265.03291 a 22.710311,22.710311 0 0 1 25.31849,-19.70181 l 4.24741,0.5299 a 22.71014,22.71014 0 0 1 19.7016,25.31844 l -0.053,0.42474 -8.97574,-1.11982 -1.99189,-8.95429 -1.68165,8.496 -4.63875,-0.57874 -1.00498,-4.51787 -0.8486,4.28664 -30.12589,-3.75847 z"
     fill="#2f2e41"
     id="path6"
     style="stroke-width:0.946913" />
  <path
     d="m 690.46482,345.72008 a 9.6848766,9.6848766 0 0 0 14.47287,3.32817 l 19.09632,11.18659 9.62844,-9.94676 -27.18959,-15.41883 a 9.7373735,9.7373735 0 0 0 -16.00804,10.85083 z"
     fill="#ffb8b8"
     id="path8"
     style="stroke-width:0.946913" />
  <path
     d="m 753.05237,365.82109 c -14.0858,0 -38.87268,-6.30565 -40.2452,-6.65797 l -0.43344,-0.11097 3.90115,-19.75158 37.85942,7.47778 20.56762,-28.96316 23.61341,-2.40057 -0.65911,0.86738 c -0.307,0.4041 -30.74599,40.47408 -35.4831,47.19587 -1.19541,1.69592 -4.60996,2.34322 -9.12075,2.34322 z"
     fill="#3f3d56"
     id="path10"
     style="stroke-width:0.946913" />
  <path
     d="m 756.8287,439.95311 -0.56363,-0.26907 c -0.12014,-0.0573 -12.08747,-5.87846 -18.2861,-17.24236 -6.16903,-11.31025 22.70996,-59.28841 24.73024,-62.61741 l 0.0292,-15.23661 10.38885,-28.04858 13.24893,-7.48839 -11.37527,26.54176 z"
     fill="#3f3d56"
     id="path12"
     style="stroke-width:0.946913" />
  <polygon
     points="703.523,564.011 723.259,564.012 723.257,615.591 709.885,615.59 "
     fill="#ffb8b8"
     id="polygon14"
     transform="matrix(0.9469132,0,0,0.9469132,58.694052,20.804786)" />
  <path
     d="m 746.78471,615.98978 -40.82886,-10e-4 v -0.5164 a 15.892602,15.892602 0 0 1 15.89174,-15.89146 h 10e-4 l 24.93687,10e-4 z"
     fill="#2f2e41"
     id="path16"
     style="stroke-width:0.946913" />
  <polygon
     points="832.077,561.002 850.832,554.857 866.891,603.872 854.184,608.035 "
     fill="#ffb8b8"
     id="polygon18"
     transform="matrix(0.9469132,0,0,0.9469132,58.694052,20.804786)" />
  <path
     d="m 886.45552,603.27755 -38.79942,12.71223 -0.16083,-0.49074 a 15.892594,15.892594 0 0 1 10.1532,-20.04995 l 9.4e-4,-3e-4 23.69737,-7.76413 z"
     fill="#2f2e41"
     id="path20"
     style="stroke-width:0.946913" />
  <path
     d="m 855.04805,584.63386 -36.0968,-60.26237 -30.47194,-64.38338 -27.42095,56.87209 -10.89296,73.65859 -38.20133,0.53079 0.15052,-0.59737 58.46008,-232.28779 45.78516,6.84014 -2.08409,30.22168 1.2412,1.7653 c 10.34276,14.69287 21.0367,29.88416 14.90324,46.26005 l 17.38752,51.62803 38.48846,85.96658 z"
     fill="#2f2e41"
     id="path22"
     style="stroke-width:0.946913" />
  <path
     d="m 772.66661,408.50803 c -6.6344,0 -14.2037,-7.57532 -10.27685,-20.50845 l -0.25429,-0.18413 9.4319,-41.67156 c -8.23116,-11.77167 2.62113,-21.48679 3.63804,-22.35464 l 5.18027,-9.32441 22.85632,-14.49545 11.56457,96.08718 -0.17114,0.16368 c -8.3523,7.99145 -36.40367,12.28771 -41.96887,12.28771 z"
     fill="#dc5c01"
     id="path24"
     style="stroke-width:0.946913" />
  <path
     d="m 819.47548,430.18994 a 11.250597,11.250597 0 0 1 -2.69996,-0.28575 c -0.88889,-0.22283 -2.32799,-1.35469 -4.55171,-8.59526 -8.84056,-28.78375 -19.27833,-115.39117 -11.69517,-123.86623 l 0.17363,-0.19419 12.45089,2.07507 c 1.03496,-0.76383 6.46611,-4.55517 11.47785,-3.89584 a 7.6065537,7.6065537 0 0 1 5.2048,3.07652 l 0.0858,0.11231 3.96662,56.43056 14.5315,66.40786 -0.34839,0.15815 c -0.84545,0.38466 -18.99081,8.57678 -28.59583,8.57678 z"
     fill="#3f3d56"
     id="path26"
     style="stroke-width:0.946913" />
  <path
     d="m 811.10197,408.13393 a 9.6849146,9.6849146 0 0 0 9.14945,-11.69737 l 18.22672,-12.55372 -4.92738,-12.93701 -25.49066,18.08983 a 9.7373735,9.7373735 0 0 0 3.04187,19.0983 z"
     fill="#ffb8b8"
     id="path28"
     style="stroke-width:0.946913" />
  <path
     d="m 832.4638,393.94182 -16.23529,-11.90577 22.82139,-31.1196 -17.51324,-30.90554 7.83539,-22.40502 0.50629,0.9649 c 0.23578,0.4494 23.62382,45.00381 27.70367,52.14401 4.24471,7.42735 -23.64442,41.43763 -24.83357,42.88112 z"
     fill="#3f3d56"
     id="path30"
     style="stroke-width:0.946913" />
  <path
     d="m 467.26793,534.00763 -13.81764,-5.81813 -9.47885,-69.26801 H 317.74358 l -10.27438,68.98504 -12.36206,6.18094 a 2.9355825,2.9355825 0 0 0 1.31297,5.56121 h 169.70902 a 2.935431,2.935431 0 0 0 1.1388,-5.64105 z"
     fill="#e6e6e6"
     id="path32"
     style="stroke-width:0.946913" />
  <path
     d="M 691.58356,468.13731 H 71.517146 A 12.284722,12.284722 0 0 1 59.260021,455.8527 V 368.41523 H 703.8407 v 87.4375 a 12.284845,12.284845 0 0 1 -12.25714,12.28458 z"
     fill="#cccccc"
     id="path34"
     style="stroke-width:0.946913" />
  <path
     d="M 704.48886,409.74025 H 58.694052 V 35.613645 A 14.826,14.826 0 0 1 73.503416,20.804786 H 689.67928 a 14.82616,14.82616 0 0 1 14.80958,14.808859 z"
     fill="#3f3d56"
     id="path36"
     style="stroke-width:0.946913" />
  <path
     d="M 665.91809,382.58612 H 97.264822 A 11.429469,11.429469 0 0 1 85.847906,371.16948 V 59.37559 A 11.430076,11.430076 0 0 1 97.264822,47.95827 H 665.91809 a 11.430076,11.430076 0 0 1 11.41694,11.41732 v 311.79389 a 11.429469,11.429469 0 0 1 -11.41694,11.41664 z"
     fill="#ffffff"
     id="path38"
     style="stroke-width:0.946913" />
  <path
     d="M 541.07058,540.37127 H 221.53641 a 1.4836331,1.4836331 0 0 1 -1.45739,-1.07345 1.4479344,1.4479344 0 0 1 1.39884,-1.81705 h 319.47431 a 1.5295962,1.5295962 0 0 1 1.53038,1.1303 1.4470633,1.4470633 0 0 1 -1.41197,1.7602 z"
     fill="#cccccc"
     id="path40"
     style="stroke-width:0.946913" />
  <rect
     x="522.54883"
     y="98.365906"
     width="137.29857"
     height="104.89271"
     fill="#f2f2f2"
     id="rect42"
     style="stroke-width:0.946913" />
  <rect
     x="529.37103"
     y="103.57796"
     width="123.65398"
     height="94.468575"
     fill="#ffffff"
     id="rect44"
     style="stroke-width:0.946913" />
  <path
     d="m 593.36954,173.65012 q 0.0245,2.6e-4 0.0491,-10e-4 a 32.968439,32.968439 0 0 0 0.73765,-65.79998 0.75207633,0.75207633 0 0 0 -0.5692,0.19729 0.74419802,0.74419802 0 0 0 -0.24317,0.54498 l -0.72078,64.29731 a 0.7547561,0.7547561 0 0 0 0.74642,0.76143 z"
     fill="#3f3d56"
     id="path46"
     style="stroke-width:0.946913" />
  <path
     d="m 567.51372,118.48119 a 0.97081328,0.97081328 0 0 1 0.68142,0.29103 l 22.13489,22.6368 a 0.96034043,0.96034043 0 0 1 0.27549,0.68661 l -0.3449,30.76657 a 0.95694101,0.95694101 0 0 1 -0.31266,0.70058 0.97153295,0.97153295 0 0 1 -0.73031,0.25359 33.184061,33.184061 0 0 1 -22.44137,-55.00677 0.97187384,0.97187384 0 0 1 0.70158,-0.32818 q 0.0172,-4.3e-4 0.0359,-2.3e-4 z"
     fill="#e6e6e6"
     id="path48"
     style="stroke-width:0.946913" />
  <path
     d="m 590.02177,107.58628 a 0.97466723,0.97466723 0 0 1 0.66235,0.27067 0.95766066,0.95766066 0 0 1 0.29728,0.70816 l -0.31118,27.7595 a 0.96658059,0.96658059 0 0 1 -1.6575,0.66495 l -19.31542,-19.7534 a 0.96860697,0.96860697 0 0 1 0.052,-1.40298 33.253754,33.253754 0 0 1 20.21246,-8.24572 c 0.0199,-10e-4 0.0401,-10e-4 0.06,-10e-4 z"
     fill="#dc5c01"
     id="path50"
     style="stroke-width:0.946913" />
  <path
     d="m 580.07122,186.98323 a 5.9214554,5.9214554 0 1 1 -5.85469,-5.98746 5.928188,5.928188 0 0 1 5.85469,5.98746 z"
     fill="#dc5c01"
     id="path52"
     style="stroke-width:0.946913" />
  <path
     d="m 596.98861,187.17288 a 5.9214554,5.9214554 0 1 1 -5.85469,-5.98746 5.9282069,5.9282069 0 0 1 5.85469,5.98746 z"
     fill="#3f3d56"
     id="path54"
     style="stroke-width:0.946913" />
  <path
     d="m 613.90599,187.36259 a 5.9214554,5.9214554 0 1 1 -5.85469,-5.98749 5.928188,5.928188 0 0 1 5.85469,5.98749 z"
     fill="#e6e6e6"
     id="path56"
     style="stroke-width:0.946913" />
  <rect
     x="521.10358"
     y="219.76672"
     width="137.29857"
     height="104.89271"
     fill="#f2f2f2"
     id="rect58"
     style="stroke-width:0.946913" />
  <rect
     x="527.92578"
     y="224.97882"
     width="123.65398"
     height="94.468575"
     fill="#ffffff"
     id="rect60"
     style="stroke-width:0.946913" />
  <circle
     cx="548.90607"
     cy="250.89342"
     r="5.134192"
     fill="#3f3d56"
     id="circle62"
     style="stroke-width:0.946913" />
  <path
     d="m 631.39893,246.89814 a 3.481923,3.481923 0 1 1 0,6.96383 h -53.99828 a 3.481923,3.481923 0 1 1 0,-6.96383 h 53.99828 m 0,-0.8528 h -53.99828 a 4.334721,4.334721 0 1 0 0,8.66944 h 53.99828 a 4.334721,4.334721 0 1 0 0,-8.66944 z"
     fill="#3f3d56"
     id="path64"
     style="stroke-width:0.946913" />
  <path
     d="M 610.09217,254.71476 H 569.4428 a 4.3347116,4.3347116 0 1 1 0,-8.66942 h 40.64937 a 4.3347116,4.3347116 0 0 1 0,8.66942 z"
     fill="#dc5c01"
     id="path66"
     style="stroke-width:0.946913" />
  <circle
     cx="548.90607"
     cy="272.21307"
     r="5.134192"
     fill="#3f3d56"
     id="circle68"
     style="stroke-width:0.946913" />
  <path
     d="m 631.39893,268.21779 a 3.481923,3.481923 0 1 1 0,6.96383 h -53.99828 a 3.4819182,3.4819182 0 1 1 0,-6.96383 h 53.99828 m 0,-0.85279 h -53.99828 a 4.3347116,4.3347116 0 1 0 0,8.66942 h 53.99828 a 4.3347116,4.3347116 0 1 0 0,-8.66942 z"
     fill="#3f3d56"
     id="path70"
     style="stroke-width:0.946913" />
  <path
     d="m 625.44232,276.03437 h -55.9995 a 4.3347054,4.3347054 0 1 1 0,-8.6694 h 55.9995 a 4.3347054,4.3347054 0 0 1 0,8.6694 z"
     fill="#dc5c01"
     id="path72"
     style="stroke-width:0.946913" />
  <circle
     cx="548.90607"
     cy="293.53275"
     r="5.134192"
     fill="#3f3d56"
     id="circle74"
     style="stroke-width:0.946913" />
  <path
     d="m 631.39893,289.53744 a 3.481923,3.481923 0 1 1 0,6.96383 h -53.99828 a 3.4819182,3.4819182 0 1 1 0,-6.96383 h 53.99828 m 0,-0.85278 h -53.99828 a 4.3347116,4.3347116 0 1 0 0,8.66942 h 53.99828 a 4.3347116,4.3347116 0 1 0 0,-8.66942 z"
     fill="#3f3d56"
     id="path76"
     style="stroke-width:0.946913" />
  <path
     d="M 592.18366,297.35405 H 569.4428 a 4.3347035,4.3347035 0 1 1 0,-8.66939 h 22.74086 a 4.3347035,4.3347035 0 0 1 0,8.66939 z"
     fill="#dc5c01"
     id="path78"
     style="stroke-width:0.946913" />
  <rect
     x="107.16502"
     y="116.92387"
     width="383.58823"
     height="196.58897"
     fill="#f2f2f2"
     id="rect80"
     style="stroke-width:0.946913" />
  <rect
     x="119.95134"
     y="126.69228"
     width="358.01566"
     height="177.05217"
     fill="#ffffff"
     id="rect82"
     style="stroke-width:0.946913" />
  <path
     d="M 433.56552,276.73342 H 172.57894 a 0.81680734,0.81680734 0 0 1 -0.81676,-0.81677 V 150.8258 a 0.816775,0.816775 0 1 1 1.63355,0 v 124.27409 h 260.16979 a 0.81676944,0.81676944 0 0 1 0,1.63353 z"
     fill="#3f3d56"
     id="path84"
     style="stroke-width:0.946913" />
  <path
     d="m 228.34041,267.74897 h -23.73773 a 2.4272795,2.4272795 0 0 1 -2.42457,-2.42438 v -32.7226 a 2.4272889,2.4272889 0 0 1 2.42457,-2.42439 h 23.73773 a 2.4272889,2.4272889 0 0 1 2.4246,2.42439 v 32.7226 a 2.4272795,2.4272795 0 0 1 -2.4246,2.42438 z"
     fill="#dc5c01"
     id="path86"
     style="stroke-width:0.946913" />
  <path
     d="m 271.62915,267.74897 h -23.73772 a 2.4272795,2.4272795 0 0 1 -2.42459,-2.42438 v -63.7598 a 2.4272795,2.4272795 0 0 1 2.42459,-2.42441 h 23.73772 a 2.4272795,2.4272795 0 0 1 2.42459,2.42441 v 63.7598 a 2.4272795,2.4272795 0 0 1 -2.42459,2.42438 z"
     fill="#dc5c01"
     id="path88"
     style="stroke-width:0.946913" />
  <path
     d="m 314.9179,267.74897 h -23.73773 a 2.4272889,2.4272889 0 0 1 -2.42459,-2.42438 v -32.7226 a 2.4272889,2.4272889 0 0 1 2.42459,-2.42439 h 23.73773 a 2.4272889,2.4272889 0 0 1 2.4246,2.42439 v 32.7226 a 2.4272889,2.4272889 0 0 1 -2.4246,2.42438 z"
     fill="#dc5c01"
     id="path90"
     style="stroke-width:0.946913" />
  <path
     d="m 358.20667,267.74897 h -23.73776 a 2.3742334,2.3742334 0 0 1 -2.4246,-2.31456 v -76.23103 a 2.3742334,2.3742334 0 0 1 2.4246,-2.31454 h 23.73773 a 2.3742334,2.3742334 0 0 1 2.4246,2.31454 v 76.231 a 2.3742334,2.3742334 0 0 1 -2.42457,2.31459 z"
     fill="#dc5c01"
     id="path92"
     style="stroke-width:0.946913" />
  <path
     d="m 401.49541,267.74897 h -23.73775 a 2.4272795,2.4272795 0 0 1 -2.42457,-2.42438 v -98.0641 a 2.4272795,2.4272795 0 0 1 2.42457,-2.42438 h 23.73775 a 2.4272795,2.4272795 0 0 1 2.42458,2.42438 v 98.0641 a 2.4272795,2.4272795 0 0 1 -2.42458,2.42438 z"
     fill="#dc5c01"
     id="path94"
     style="stroke-width:0.946913" />
  <circle
     cx="216.47156"
     cy="215.47574"
     r="4.9006166"
     fill="#3f3d56"
     id="circle96"
     style="stroke-width:0.946913" />
  <circle
     cx="259.76035"
     cy="183.6218"
     r="4.9006166"
     fill="#3f3d56"
     id="circle98"
     style="stroke-width:0.946913" />
  <circle
     cx="303.04904"
     cy="215.47574"
     r="4.9006166"
     fill="#3f3d56"
     id="circle100"
     style="stroke-width:0.946913" />
  <circle
     cx="346.33783"
     cy="168.10316"
     r="4.9006166"
     fill="#3f3d56"
     id="circle102"
     style="stroke-width:0.946913" />
  <circle
     cx="389.6265"
     cy="150.13425"
     r="4.9006166"
     fill="#3f3d56"
     id="circle104"
     style="stroke-width:0.946913" />
  <polygon
     points="304.274,156.283 258.163,206.744 212.339,172.421 167.14,206.275 166.106,204.895 212.339,170.265 257.945,204.425 303.266,154.83 303.447,154.756 349.163,136.337 349.808,137.937 "
     fill="#3f3d56"
     id="polygon106"
     transform="matrix(0.9469132,0,0,0.9469132,58.694052,20.804786)" />
  <path
     d="M 950.25756,618.72276 H 589.48364 a 0.946915,0.946915 0 0 1 0,-1.89383 h 360.77392 a 0.946915,0.946915 0 0 1 0,1.89383 z"
     fill="#cccccc"
     id="path108"
     style="stroke-width:0.946913" />
</svg>
