<svg id="eheSdWyAnKM1" xmlns="http://www.w3.org/2000/svg" xmlns:xlink="http://www.w3.org/1999/xlink" viewBox="0 0 996 674.00456" shape-rendering="geometricPrecision" text-rendering="geometricPrecision"><style><![CDATA[#eheSdWyAnKM5_ts {animation: eheSdWyAnKM5_ts__ts 3000ms linear infinite normal forwards}@keyframes eheSdWyAnKM5_ts__ts { 0% {transform: translate(777.358765px,216.010139px) scale(1,1);animation-timing-function: cubic-bezier(0.445,0.05,0.55,0.95)} 50% {transform: translate(777.358765px,216.010139px) scale(1.3,1.3);animation-timing-function: cubic-bezier(0.445,0.05,0.55,0.95)} 100% {transform: translate(777.358765px,216.010139px) scale(1,1)}} #eheSdWyAnKM15_tr {animation: eheSdWyAnKM15_tr__tr 3000ms linear infinite normal forwards}@keyframes eheSdWyAnKM15_tr__tr { 0% {transform: translate(771.736657px,216.002186px) rotate(0deg)} 100% {transform: translate(771.736657px,216.002186px) rotate(360deg)}}]]></style><circle id="eheSdWyAnKM2" r="79.1621" transform="matrix(1 0 0 1 681.598 348.16)" fill="rgb(242,242,242)" stroke="none" stroke-width="0.56982"/><path id="eheSdWyAnKM3" d="M777.35848,383.27216C697.561783,383.272432,628.87715,326.904754,613.309386,248.641368C597.741622,170.377982,639.626569,92.016352,713.349052,61.479351C787.071534,30.94235,872.098794,56.734966,916.431522,123.083455C960.76425,189.431945,952.055153,277.857312,895.63037,334.2821C864.331449,365.752501,821.743094,383.393262,777.35848,383.27216ZM777.35848,50.024758C685.8341,50.024758,611.37333,124.48522,611.37333,216.00989C611.37333,307.53458,685.83409,381.99534,777.35848,381.99534C868.88286,381.99534,943.34362,307.53458,943.34362,216.00987C943.34362,124.48518,868.88285,50.024758,777.35848,50.024758Z" fill="rgb(47,46,65)" stroke="none" stroke-width="0.56982"/><g id="eheSdWyAnKM4"><g id="eheSdWyAnKM5_ts" transform="translate(777.358765,216.010139) scale(1,1)"><g id="eheSdWyAnKM5" transform="translate(-777.358765,-216.010139)"><polygon id="eheSdWyAnKM6" points="459.875,386.46 315.201,467.019 156.779,387.808 154.049,386.443 162.271,222.003 305.334,120.05 306.913,121.037 454.975,213.781 459.908,386.443" transform="matrix(0.569821 0 0 0.569821 602.436 48.748)" fill="rgb(239,121,36)" stroke="none" stroke-width="1"/><polygon id="eheSdWyAnKM7" points="156.779,387.808 297.112,289.424 459.875,386.46 315.201,467.019" transform="matrix(0.569821 0 0 0.569821 602.436 48.748)" opacity="0.3" fill="rgb(0,0,0)" stroke="none" stroke-width="1"/><polygon id="eheSdWyAnKM8" points="306.913,121.037 454.975,213.781 459.908,386.443 297.112,289.424" transform="matrix(0.569821 0 0 0.569821 602.436 48.748)" opacity="0.1" fill="rgb(0,0,0)" stroke="none" stroke-width="1"/><polygon id="eheSdWyAnKM9" points="456.094,266.49 304.066,171.173 160.165,272.745 159.361,271.607 304.021,169.5 456.834,265.309" transform="matrix(0.569821 0 0 0.569821 602.436 48.748)" fill="rgb(242,242,242)" stroke="none" stroke-width="1"/><polygon id="eheSdWyAnKM10" points="300.882,229.957 456.963,318.417 456.275,319.629 300.571,231.382 157.361,328.61 156.579,327.458 300.505,229.743" transform="matrix(0.569821 0 0 0.569821 602.436 48.748)" fill="rgb(242,242,242)" stroke="none" stroke-width="1"/><polygon id="eheSdWyAnKM11" points="357.988,152.594 357.988,325.676 212.276,415.965 211.542,414.781 356.595,324.9 356.595,152.594" transform="matrix(0.569821 0 0 0.569821 602.436 48.748)" fill="rgb(242,242,242)" stroke="none" stroke-width="1"/><polygon id="eheSdWyAnKM12" points="409.531,184.879 409.531,356.416 269.209,444.428 268.469,443.248 408.138,355.645 408.138,184.879" transform="matrix(0.569821 0 0 0.569821 602.436 48.748)" fill="rgb(242,242,242)" stroke="none" stroke-width="1"/><polygon id="eheSdWyAnKM13" points="253.75,156.281 255.141,156.352 246.612,324.933 408.289,414.764 407.612,415.982 245.176,325.73 245.199,325.296" transform="matrix(0.569821 0 0 0.569821 602.436 48.748)" fill="rgb(242,242,242)" stroke="none" stroke-width="1"/><polygon id="eheSdWyAnKM14" points="205.388,190.742 206.779,190.82 197.337,359.471 357.154,443.221 356.507,444.455 195.895,360.288 195.92,359.841" transform="matrix(0.569821 0 0 0.569821 602.436 48.748)" fill="rgb(242,242,242)" stroke="none" stroke-width="1"/></g></g></g><g id="eheSdWyAnKM15_tr" transform="translate(771.736657,216.002186) rotate(0)"><circle id="eheSdWyAnKM15" r="31.9202" transform="translate(108.405345,-130.767369)" fill="rgb(63,61,86)" stroke="none" stroke-width="0.56982"/></g></svg>