<?xml version="1.0" encoding="UTF-8" standalone="no"?>
<svg
   xmlns:dc="http://purl.org/dc/elements/1.1/"
   xmlns:cc="http://creativecommons.org/ns#"
   xmlns:rdf="http://www.w3.org/1999/02/22-rdf-syntax-ns#"
   xmlns:svg="http://www.w3.org/2000/svg"
   xmlns="http://www.w3.org/2000/svg"
   xmlns:sodipodi="http://sodipodi.sourceforge.net/DTD/sodipodi-0.dtd"
   xmlns:inkscape="http://www.inkscape.org/namespaces/inkscape"
   id="ab33c339-a290-46df-b273-a8a31c058d9b"
   width="1104"
   height="560.27"
   data-name="Layer 1"
   version="1.1"
   viewBox="0 0 1104 560.27"
   sodipodi:docname="ab1m.svg"
   inkscape:version="1.0.1 (3bc2e813f5, 2020-09-07)">
  <defs
     id="defs101">
    <rect
       x="258.51823"
       y="311.49328"
       width="387.43438"
       height="292.64398"
       id="rect934" />
    <rect
       x="285.00576"
       y="220.3762"
       width="503.26296"
       height="62.510557"
       id="rect928" />
  </defs>
  <sodipodi:namedview
     pagecolor="#33262a"
     bordercolor="#666666"
     borderopacity="1"
     objecttolerance="10"
     gridtolerance="10"
     guidetolerance="10"
     inkscape:pageopacity="1"
     inkscape:pageshadow="2"
     inkscape:window-width="1920"
     inkscape:window-height="1009"
     id="namedview99"
     showgrid="false"
     inkscape:zoom="0.94384058"
     inkscape:cx="613.56148"
     inkscape:cy="255.79817"
     inkscape:window-x="-8"
     inkscape:window-y="-8"
     inkscape:window-maximized="1"
     inkscape:current-layer="ab33c339-a290-46df-b273-a8a31c058d9b"
     showguides="true"
     inkscape:document-rotation="0" />
  <metadata
     id="metadata2">
    <rdf:RDF>
      <cc:Work
         rdf:about="">
        <dc:format>image/svg+xml</dc:format>
        <dc:type
           rdf:resource="http://purl.org/dc/dcmitype/StillImage" />
        <dc:title>zoom_in</dc:title>
      </cc:Work>
    </rdf:RDF>
  </metadata>
  <title
     id="title4">zoom_in</title>
  <rect
     width="1104"
     height="560"
     fill="#dc5c01"
     id="rect6"
     x="0"
     y="0"
     style="fill:#f8a73e;fill-opacity:1" />
  <g
     fill="#3f3d56"
     id="g14"
     style="fill:#4d4d4d">
    <rect
       x="1021.1"
       y="484.74"
       width="2"
       height="74.411"
       id="rect8"
       style="fill:#4d4d4d" />
    <circle
       cx="1022.1"
       cy="484.74"
       r="10.523"
       id="circle10"
       style="fill:#4d4d4d" />
    <path
       transform="translate(-48 -169.86)"
       d="m1070.1 700.47s-1.5033-32.332-32.32-28.574"
       id="path12"
       style="fill:#4d4d4d" />
  </g>
  <path
     transform="translate(-48 -169.86)"
     d="m107.41 693.73c6.0732 22.45 26.875 36.354 26.875 36.354s10.955-22.495 4.8822-44.945-26.875-36.354-26.875-36.354-10.955 22.495-4.8822 44.945z"
     fill="#fff"
     id="path16" />
  <path
     transform="translate(-48 -169.86)"
     d="m116.33 688.91c16.665 16.223 18.7 41.16 18.7 41.16s-24.984-1.3641-41.648-17.587-18.7-41.16-18.7-41.16 24.984 1.3642 41.648 17.587z"
     fill="#3f3d56"
     id="path18"
     style="fill:#4d4d4d" />
  <g
     stroke-width="0.54429"
     id="g42"
     transform="matrix(0.70279585,0,0,0.70279585,-221.77083,85.38654)">
    <ellipse
       cx="548.40997"
       cy="201.42"
       rx="86.542"
       ry="13.063"
       opacity="0.1"
       id="ellipse26" />
    <ellipse
       cx="548.40997"
       cy="190.53999"
       rx="86.542"
       ry="13.063"
       opacity="0.1"
       id="ellipse28" />
    <ellipse
       cx="548.40997"
       cy="179.64999"
       rx="86.542"
       ry="13.063"
       opacity="0.1"
       id="ellipse30" />
    <ellipse
       cx="548.40997"
       cy="168.77"
       rx="86.542"
       ry="13.063"
       opacity="0.1"
       id="ellipse32" />
    <ellipse
       cx="548.40997"
       cy="157.88"
       rx="86.542"
       ry="13.063"
       opacity="0.1"
       id="ellipse34" />
    <ellipse
       cx="548.40997"
       cy="147"
       rx="86.542"
       ry="13.063"
       opacity="0.1"
       id="ellipse36" />
    <path
       d="m 578.72,107.01 c -6.8998,25.506 -30.533,41.302 -30.533,41.302 0,0 -12.447,-25.557 -5.5468,-51.062 6.8998,-25.506 30.533,-41.302 30.533,-41.302 0,0 12.447,25.557 5.5468,51.062 z"
       fill="#ffffff"
       id="path38" />
    <path
       d="m 515.96,107.01 c 6.8998,25.506 30.533,41.302 30.533,41.302 0,0 12.447,-25.557 5.5468,-51.062 -6.8998,-25.506 -30.533,-41.302 -30.533,-41.302 0,0 -12.447,25.557 -5.5468,51.062 z"
       fill="#ffffff"
       id="path40" />
  </g>
  <g
     fill="#3f3d56"
     id="g50"
     transform="matrix(0.70279585,0,0,0.70279585,-221.77083,85.38654)">
    <path
       d="m 526.09,101.53 c 18.933,18.431 21.246,46.763 21.246,46.763 0,0 -28.384,-1.5498 -47.317,-19.98 -18.933,-18.431 -21.246,-46.763 -21.246,-46.763 0,0 28.384,1.5498 47.317,19.98 z"
       stroke-width="0.54429"
       id="path44"
       style="fill:#4d4d4d" />
    <path
       d="m 568.59,101.53 c -18.933,18.431 -21.246,46.763 -21.246,46.763 0,0 28.384,-1.5498 47.317,-19.98 18.933,-18.4302 21.246,-46.763 21.246,-46.763 0,0 -28.384,1.5498 -47.317,19.98 z"
       stroke-width="0.54429"
       id="path46"
       style="fill:#4d4d4d" />
    <rect
       x="261.47"
       y="289.85999"
       width="561.83002"
       height="2"
       id="rect48" />
  </g>
  <path
     transform="translate(-48 -169.86)"
     d="m688.17 730.14a12 12 0 1 1 12-12 12.014 12.014 0 0 1-12 12zm0-22a10 10 0 1 0 10 10 10.011 10.011 0 0 0-10-10z"
     fill="#f0f0f0"
     id="path52" />
  <path
     d="m898.59 465.18-13.465-14.436 14.436-13.465 13.465 14.436zm-11.319-14.362 11.394 12.215 12.215-11.394-11.394-12.215z"
     fill="#f0f0f0"
     id="path56" />
  <path
     d="m 542.46449,58.90595 v 286 a 143,143 0 1 1 0,-286 z"
     opacity="0.1"
     id="path58" />
  <circle
     cx="410.46448"
     cy="96.905952"
     r="110"
     opacity="0.1"
     id="circle60" />
  <circle
     cx="313.46448"
     cy="32.905949"
     r="56"
     opacity="0.1"
     id="circle62" />
  <path
     d="m 313.77449,61.98595 a 29.116,29.116 0 1 1 29.116,-29.116 29.149,29.149 0 0 1 -29.116,29.116 z"
     fill="#3f3d56"
     id="path64"
     style="fill:#4d4d4d" />
  <circle
     cx="163.00287"
     cy="118.04897"
     r="3.8553274"
     fill="#f0f0f0"
     stroke-width="0.382525"
     id="circle66" />
  <path
     d="m 163.00287,129.18689 a 11.137909,11.137909 0 1 1 11.13791,-11.13791 11.149856,11.149856 0 0 1 -11.13791,11.13791 z m 0,-21.41841 a 10.281201,10.281201 0 1 0 10.2812,10.2812 10.292445,10.292445 0 0 0 -10.2812,-10.2812 z"
     fill="#2f2e41"
     stroke-width="0.382525"
     id="path68" />
  <text
     fill="#000000"
     font-family="sans-serif"
     font-size="16px"
     style="line-height:1.25;white-space:pre;shape-inside:url(#rect44);"
     xml:space="preserve"
     id="text96"
     transform="translate(-11.412,1.9457)" />
  <text
     xml:space="preserve"
     id="text926"
     style="font-style:normal;font-variant:normal;font-weight:bold;font-stretch:normal;font-size:40px;line-height:1.25;font-family:lora;-inkscape-font-specification:'lora Bold';white-space:pre;shape-inside:url(#rect928);fill:#ffffff;fill-opacity:1;stroke:none;"
     transform="matrix(0.70279585,0,0,0.70279585,-124.02649,93.147557)"><tspan
       x="285.00586"
       y="256.81445"><tspan
         style="font-style:normal;font-variant:normal;font-weight:bold;font-stretch:normal;font-family:lora;-inkscape-font-specification:'lora Bold';fill:#ffffff">Who are We?</tspan></tspan></text>
  <text
     xml:space="preserve"
     id="text932"
     style="font-style:normal;font-weight:normal;font-size:18.9718px;line-height:1.25;font-family:sans-serif;white-space:pre;shape-inside:url(#rect934);fill:#ffffff;fill-opacity:1;stroke:none;"
     x="0"
     y="0"
     transform="matrix(0.70279585,0,0,0.70279585,-148.08177,83.267538)"><tspan
       x="258.51758"
       y="328.931"><tspan
         dx="0 0 0 1.9689784 0 0 0 1.9689803 0 1.9689727 0 0 0 0 0 0 0 0 0 0 1.9689803 0 0 0 0 0 1.9689651 0 1.9689803"
         style="font-style:normal;font-variant:normal;font-weight:normal;font-stretch:normal;font-size:18.9718px;font-family:Montserrat;-inkscape-font-specification:Montserrat;text-align:justify;text-anchor:start;fill:#ffffff">We are a Marketing, Sales &amp; Technology </tspan></tspan><tspan
       x="258.51758"
       y="352.77405"><tspan
         dx="0 0 0 0 0 0 0 0 0 0 0 0 28.145906 0 0 0 0 0 0 0 28.145906 0 0 0 0 28.145922"
         style="font-style:normal;font-variant:normal;font-weight:normal;font-stretch:normal;font-size:18.9718px;font-family:Montserrat;-inkscape-font-specification:Montserrat;text-align:justify;text-anchor:start;fill:#ffffff">solutioning company that helps </tspan></tspan><tspan
       x="258.51758"
       y="376.6171"><tspan
         dx="0 0 0 0 0 0 0 0 0 0 22.403811 0 0 0 0 0 0 0 22.403811 0 0 0 0 0 22.403826"
         style="font-style:normal;font-variant:normal;font-weight:normal;font-stretch:normal;font-size:18.9718px;font-family:Montserrat;-inkscape-font-specification:Montserrat;text-align:justify;text-anchor:start;fill:#ffffff">companies achieve their business </tspan></tspan><tspan
       x="258.51758"
       y="400.46014"><tspan
         dx="0 0 0 0 0 0 0 0 0 0.65532064 0 0 0 0 0.65532064 0 0 0 0 0.65532064 0 0.6553359 0 0 0 0 0 0 0.65532064"
         style="font-style:normal;font-variant:normal;font-weight:normal;font-stretch:normal;font-size:18.9718px;font-family:Montserrat;-inkscape-font-specification:Montserrat;text-align:justify;text-anchor:start;fill:#ffffff">outcome, with over a decade experience </tspan></tspan><tspan
       x="258.51758"
       y="424.30319"><tspan
         dx="0 0 0 0 0 0 0 0 0.37072897 0 0 0 0 0 0 0.37072897 0 0 0 0 0 0 0 0.37072897 0 0 0.37072897 0 0 0 0 0 0 0 0 0.37074423"
         style="font-style:normal;font-variant:normal;font-weight:normal;font-stretch:normal;font-size:18.9718px;font-family:Montserrat;-inkscape-font-specification:Montserrat;text-align:justify;text-anchor:start;fill:#ffffff">working across domains of digital, social, </tspan></tspan><tspan
       x="258.51758"
       y="448.14624"><tspan
         dx="0 0 0 0 0 0 0 0 0 0 0 0 0 0 0 7.5304275 0 0 0 7.5304275 0 0 0 0 0 7.5304427 0 0 0 0 0 0 0 0 0 0 7.5304427"
         style="font-style:normal;font-variant:normal;font-weight:normal;font-stretch:normal;font-size:18.9718px;font-family:Montserrat;-inkscape-font-specification:Montserrat;text-align:justify;text-anchor:start;fill:#ffffff">technological, and sales strategies we </tspan></tspan><tspan
       x="258.51758"
       y="471.98929"><tspan
         dx="0 0 0 0 0 0 0 0 0 0 10.114656 0 0 10.114649 0 0 0 0 0 0 0 0 0 0 0 10.114672 0 0 0 0 10.114672 0 0 10.114672"
         style="font-style:normal;font-variant:normal;font-weight:normal;font-stretch:normal;font-size:18.9718px;font-family:Montserrat;-inkscape-font-specification:Montserrat;text-align:justify;text-anchor:start;fill:#ffffff">expertise in solutioning most of the </tspan></tspan><tspan
       x="258.51758"
       y="495.83234"><tspan
         style="font-style:normal;font-variant:normal;font-weight:normal;font-stretch:normal;font-size:18.9718px;font-family:Montserrat;-inkscape-font-specification:Montserrat;text-align:justify;text-anchor:start;fill:#ffffff">needs of any business today.</tspan></tspan></text>
</svg>
