<?xml version="1.0" encoding="UTF-8" standalone="no"?>
<svg
   xmlns:dc="http://purl.org/dc/elements/1.1/"
   xmlns:cc="http://creativecommons.org/ns#"
   xmlns:rdf="http://www.w3.org/1999/02/22-rdf-syntax-ns#"
   xmlns:svg="http://www.w3.org/2000/svg"
   xmlns="http://www.w3.org/2000/svg"
   xmlns:sodipodi="http://sodipodi.sourceforge.net/DTD/sodipodi-0.dtd"
   xmlns:inkscape="http://www.inkscape.org/namespaces/inkscape"
   id="a3386fed-3d80-43e9-a677-097ead221e66"
   data-name="Layer 1"
   width="776.36327"
   height="516.12769"
   viewBox="0 0 776.36327 516.12769"
   version="1.1"
   sodipodi:docname="baas.svg"
   inkscape:version="1.0.1 (3bc2e813f5, 2020-09-07)">
  <metadata
     id="metadata75">
    <rdf:RDF>
      <cc:Work
         rdf:about="">
        <dc:format>image/svg+xml</dc:format>
        <dc:type
           rdf:resource="http://purl.org/dc/dcmitype/StillImage" />
      </cc:Work>
    </rdf:RDF>
  </metadata>
  <defs
     id="defs73">
    <rect
       x="35.763376"
       y="58.860556"
       width="270.46053"
       height="222.03096"
       id="rect79" />
  </defs>
  <sodipodi:namedview
     pagecolor="#ffffff"
     bordercolor="#666666"
     borderopacity="1"
     objecttolerance="10"
     gridtolerance="10"
     guidetolerance="10"
     inkscape:pageopacity="0"
     inkscape:pageshadow="2"
     inkscape:window-width="1920"
     inkscape:window-height="1009"
     id="namedview71"
     showgrid="false"
     inkscape:zoom="1.3421552"
     inkscape:cx="388.18164"
     inkscape:cy="242.03778"
     inkscape:window-x="-8"
     inkscape:window-y="-8"
     inkscape:window-maximized="1"
     inkscape:current-layer="a3386fed-3d80-43e9-a677-097ead221e66"
     inkscape:document-rotation="0" />
  <path
     d="m 435.52975,273.80519 a 186.7865,186.7865 0 0 1 -1.76091,24.00098 c -0.0386,0.27935 -0.0806,0.55866 -0.1193,0.83799 l -75.19941,-0.42019 c -0.2208,-0.27741 -0.43812,-0.55815 -0.64868,-0.84224 -0.70207,-0.94022 -1.36008,-1.90718 -1.96413,-2.90749 -2.90335,-4.81907 -4.23253,-10.46123 -2.90055,-14.35399 l 0.0238,-0.0605 a 6.8308648,6.8308648 0 0 1 1.33319,-2.31656 c 3.03686,-3.41844 9.17709,-2.8486 14.74921,-0.0894 -4.99783,-5.4707 -8.9774,-12.37386 -9.27977,-18.53573 -0.29649,-6.01025 2.84624,-10.30379 6.25491,-13.95255 0.11184,-0.12062 0.22367,-0.23789 0.33549,-0.35514 0.0543,-0.0603 0.11184,-0.11727 0.16593,-0.17759 2.65947,-2.78062 5.76,-5.52174 10.24778,-5.19015 4.92192,0.36431 10.37888,4.48697 14.20507,9.29099 3.82618,4.80064 6.3688,10.25423 8.94602,15.57668 2.58053,5.3191 5.37243,10.77411 9.51332,15.32055 -5.60858,-7.09414 -10.13058,-15.16569 -11.801,-23.01584 -1.67042,-7.85015 -0.20033,-15.38974 4.79824,-19.08687 a 11.691201,11.691201 0 0 1 5.12101,-2.06631 c 0.21563,-0.0358 0.4347,-0.065 0.65718,-0.0906 4.62727,-0.52649 10.15209,1.07388 14.85273,4.89929 5.17673,4.21206 8.76577,10.45627 10.55151,16.38391 1.78563,5.92762 1.97593,11.63416 1.91831,17.1507 z"
     fill="#f2f2f2"
     id="path2"
     style="stroke-width:0.526733" />
  <path
     d="m 386.3299,298.37979 -1.43798,-0.008 q -0.68486,-0.42818 -1.3762,-0.84633 c -0.28531,-0.18009 -0.57395,-0.35347 -0.86273,-0.53023 q -7.15457,-4.36961 -14.39861,-8.38271 -7.23745,-4.01642 -14.54769,-7.66274 a 0.60266651,0.60266651 0 0 1 -0.34644,-0.68904 0.17367431,0.17367431 0 0 1 0.0239,-0.0504 c 0.068,-0.12761 0.2199,-0.18067 0.44164,-0.0716 0.59776,0.29971 1.19898,0.59948 1.79668,0.90597 q 7.3302,3.70873 14.59748,7.78767 7.26227,4.07718 14.44178,8.51428 c 0.10063,0.0612 0.20141,0.12574 0.30205,0.18693 0.45648,0.28204 0.90965,0.56413 1.36606,0.84624 z"
     fill="#ffffff"
     id="path4"
     style="stroke-width:0.526733" />
  <path
     d="m 404.87054,298.48335 -0.88919,-0.005 c -0.20054,-0.28065 -0.39764,-0.56131 -0.59818,-0.84198 q -7.06785,-9.911 -14.13274,-19.82224 -11.56957,-16.22623 -23.13222,-32.45242 a 0.5726164,0.5726164 0 0 1 -0.10005,-0.19591 c -0.0659,-0.2395 0.11,-0.37997 0.33549,-0.35514 a 0.67547677,0.67547677 0 0 1 0.46986,0.29902 q 6.48651,9.09967 12.96976,18.19258 11.50934,16.14507 23.01541,32.28673 c 0.48791,0.68308 0.97579,1.3695 1.46369,2.05259 0.20053,0.28068 0.40107,0.56135 0.59817,0.84198 z"
     fill="#ffffff"
     id="path6"
     style="stroke-width:0.526733" />
  <path
     d="m 424.67994,293.31967 c -0.0453,1.49857 -0.14455,2.97319 -0.27409,4.43419 q -0.0376,0.41913 -0.0754,0.83822 l -0.93293,-0.005 c 0.0285,-0.27938 0.0571,-0.55877 0.0821,-0.83818 0.19714,-2.11068 0.33701,-4.24523 0.356,-6.43773 a 89.809506,89.809506 0 0 0 -1.76805,-18.10303 112.71501,112.71501 0 0 0 -5.47588,-18.80748 129.16088,129.16088 0 0 0 -8.95934,-18.60803 0.49701446,0.49701446 0 0 1 -0.0824,-0.33052 c 0.0385,-0.26588 0.39251,-0.34473 0.65718,-0.0907 a 0.77219016,0.77219016 0 0 1 0.13375,0.16916 q 0.64553,1.11 1.26752,2.22663 a 129.07078,129.07078 0 0 1 8.57513,18.6732 112.18206,112.18206 0 0 1 5.10504,18.83573 88.602989,88.602989 0 0 1 1.39128,18.0437 z"
     fill="#ffffff"
     id="path8"
     style="stroke-width:0.526733" />
  <path
     d="m 635.46507,178.21317 h -87.96436 a 7.7410853,7.7410853 0 0 1 -5.06029,-1.68822 0.52680646,0.52680646 0 0 1 0.63939,-0.83742 6.6772853,6.6772853 0 0 0 4.4209,1.47217 h 87.96436 a 7.9099453,7.9099453 0 0 0 7.90099,-7.90099 v -53.72673 a 7.9099453,7.9099453 0 0 0 -7.90099,-7.901 h -87.96436 a 7.9099453,7.9099453 0 0 0 -7.90099,7.901 v 31.60396 a 0.52673272,0.52673272 0 0 1 -1.05346,0 v -31.60396 a 8.9645541,8.9645541 0 0 1 8.95445,-8.95446 h 87.96436 a 8.9645541,8.9645541 0 0 1 8.95446,8.95446 v 53.72673 a 8.964548,8.964548 0 0 1 -8.95446,8.95446 z"
     fill="#3f3d56"
     id="path10"
     style="stroke-width:0.526733" />
  <path
     d="M 752.39974,208.76366 H 519.58388 a 0.52673272,0.52673272 0 0 1 0,-1.05346 h 232.81586 a 7.9099453,7.9099453 0 0 0 7.90099,-7.901 V 36.522058 a 7.9099453,7.9099453 0 0 0 -7.90099,-7.90099 H 504.83536 a 7.9099453,7.9099453 0 0 0 -7.90099,7.90099 V 142.92208 a 0.52673272,0.52673272 0 0 1 -1.05346,0 V 36.522058 a 8.9645541,8.9645541 0 0 1 8.95445,-8.954456 h 247.56438 a 8.9645541,8.9645541 0 0 1 8.95445,8.954456 V 199.8092 a 8.964548,8.964548 0 0 1 -8.95445,8.95446 z"
     fill="#3f3d56"
     id="path12"
     style="stroke-width:0.526733" />
  <rect
     x="496.23557"
     y="44.726135"
     width="264.94656"
     height="1.0534655"
     fill="#3f3d56"
     id="rect14"
     style="stroke-width:0.526733" />
  <circle
     cx="506.24347"
     cy="37.857552"
     r="3.1603963"
     fill="#3f3d56"
     id="circle16"
     style="stroke-width:0.526733" />
  <circle
     cx="515.32965"
     cy="37.857552"
     r="3.1603963"
     fill="#3f3d56"
     id="circle18"
     style="stroke-width:0.526733" />
  <circle
     cx="524.41577"
     cy="37.857552"
     r="3.1603963"
     fill="#3f3d56"
     id="circle20"
     style="stroke-width:0.526733" />
  <path
     d="M 709.47102,80.767606 H 546.18388 a 8.1643571,8.1643571 0 0 1 0,-16.328713 h 163.28714 a 8.1643571,8.1643571 0 0 1 0,16.328713 z M 546.18388,65.492358 a 7.1108917,7.1108917 0 0 0 0,14.221783 h 163.28714 a 7.1108917,7.1108917 0 0 0 0,-14.221783 z"
     fill="#3f3d56"
     id="path22"
     style="stroke-width:0.526733" />
  <path
     d="m 708.41756,122.3795 h -31.60397 a 8.16436,8.16436 0 0 1 0,-16.32872 h 31.60397 a 8.16436,8.16436 0 0 1 0,16.32872 z"
     fill="#dc5c01"
     id="path24"
     style="stroke-width:0.526733" />
  <path
     d="m 708.41756,149.7696 h -31.60397 a 8.16436,8.16436 0 0 1 0,-16.32872 h 31.60397 a 8.16436,8.16436 0 0 1 0,16.32872 z"
     fill="#dc5c01"
     id="path26"
     style="stroke-width:0.526733" />
  <path
     d="m 708.41756,177.1597 h -31.60397 a 8.1643595,8.1643595 0 0 1 0,-16.32871 h 31.60397 a 8.1643595,8.1643595 0 0 1 0,16.32871 z"
     fill="#dc5c01"
     id="path28"
     style="stroke-width:0.526733" />
  <path
     d="m 483.76606,182.20581 a 5.8745815,5.8745815 0 0 0 -1.21139,-0.12641 5.8154452,5.8154452 0 0 0 -2.22808,0.44245 5.2782411,5.2782411 0 0 0 -0.69005,0.34765 l -23.56615,-10.5768 -0.66356,-6.39453 -10.16067,-0.26864 0.0684,10.64 a 5.7285923,5.7285923 0 0 0 4.14005,5.44642 l 27.55882,7.84305 c 0.063,0.20016 0.12115,0.37398 0.18955,0.53727 a 5.7876443,5.7876443 0 0 0 3.44483,3.24467 5.7224716,5.7224716 0 0 0 1.91198,0.32661 5.4947703,5.4947703 0 0 0 1.20622,-0.13169 5.0611219,5.0611219 0 0 0 0.66895,-0.18964 v -10.95605 a 5.9822721,5.9822721 0 0 0 -0.66892,-0.18436 z"
     fill="#a0616a"
     id="path30"
     style="stroke-width:0.526733" />
  <polygon
     points="139.306,504.226 145.138,456.938 127.044,456.938 127.046,504.226 "
     fill="#a0616a"
     id="polygon32"
     transform="matrix(0.52673272,0,0,0.52673272,352.41826,27.567602)" />
  <path
     d="m 438.2496,299.15555 -20.2954,8.7e-4 -3.6e-4,-7.84141 12.454,-5.6e-4 a 7.8413962,7.8413962 0 0 1 7.84176,7.84103 v 0 z"
     fill="#2f2e41"
     id="path34"
     style="stroke-width:0.526733" />
  <polygon
     points="74.591,495.837 98.572,454.666 81.94,447.541 63.321,491.01 "
     fill="#a0616a"
     id="polygon36"
     transform="matrix(0.52673272,0,0,0.52673272,352.41826,27.567602)" />
  <path
     d="m 400.79493,299.15646 -18.65612,-7.99072 3.08733,-7.20805 11.44808,4.9034 a 7.8413962,7.8413962 0 0 1 4.12072,10.29537 v 0 z"
     fill="#2f2e41"
     id="path38"
     style="stroke-width:0.526733" />
  <circle
     cx="435.30392"
     cy="118.91964"
     r="12.937098"
     fill="#a0616a"
     id="circle40"
     style="stroke-width:0.526733" />
  <path
     d="m 425.95746,287.07026 -7.10883,-1.35439 a 2.3563704,2.3563704 0 0 1 -1.91442,-2.56988 l 4.71397,-45.96206 a 1.8435645,1.8435645 0 0 0 -3.52858,-0.91406 l -20.58013,48.02064 a 2.3704973,2.3704973 0 0 1 -3.14136,1.23195 l -5.78184,-2.56988 a 2.3609898,2.3609898 0 0 1 -1.2861,-2.91554 l 14.07543,-42.22658 a 1.8431168,1.8431168 0 0 0 0.0818,-0.36573 l 4.56891,-38.58161 a 2.3702973,2.3702973 0 0 1 1.46177,-1.91763 l 14.42638,-5.86043 a 2.3706185,2.3706185 0 0 1 2.54583,0.49741 l 18.20931,17.73042 a 2.3607634,2.3607634 0 0 1 0.67141,2.15991 l -14.64511,73.73076 a 2.3790146,2.3790146 0 0 1 -2.32658,1.90838 2.3543162,2.3543162 0 0 1 -0.44185,-0.0417 z"
     fill="#2f2e41"
     id="path42"
     style="stroke-width:0.526733" />
  <path
     d="m 417.85302,200.99059 c -2.52023,-2.9181 -4.35956,-4.24266 -5.61749,-4.03382 -1.24817,0.20164 -1.96818,1.94541 -2.73063,3.79155 -1.04061,2.51998 -2.22009,5.37636 -5.12741,5.59962 a 2.4477638,2.4477638 0 0 1 -2.40309,-0.98505 c -2.28685,-3.40112 3.19832,-14.65593 3.69947,-15.66722 l -0.2572,-53.23189 a 2.364598,2.364598 0 0 1 1.23941,-2.09921 c 15.07335,-8.12835 35.4265,6.00804 39.35334,8.92513 v 0 a 2.3640818,2.3640818 0 0 1 0.95367,2.0272 c -0.47387,8.91536 -2.83751,53.89546 -2.83751,63.9291 0,2.77769 -0.95804,4.54255 -2.84764,5.24521 a 5.6789214,5.6789214 0 0 1 -1.98811,0.32612 c -5.76546,0 -15.20834,-6.61501 -21.43681,-13.82674 z"
     fill="#cccccc"
     id="path44"
     style="stroke-width:0.526733" />
  <path
     d="m 438.88865,175.14264 a 2.3441923,2.3441923 0 0 1 -1.06542,-1.87854 l -1.02106,-23.84289 a 6.1877241,6.1877241 0 0 1 11.96311,-2.47111 l 7.64148,20.02458 a 2.3728413,2.3728413 0 0 1 -1.36943,3.05958 l -14.00098,5.34294 a 2.346805,2.346805 0 0 1 -2.1477,-0.23456 z"
     fill="#cccccc"
     id="path46"
     style="stroke-width:0.526733" />
  <path
     d="m 403.3093,212.39748 a 5.6585105,5.6585105 0 0 1 -0.90928,-8.62889 l -2.47047,-55.2566 12.22114,1.43903 -1.41868,53.92749 a 5.6891927,5.6891927 0 0 1 -7.42273,8.51897 z"
     fill="#a0616a"
     id="path48"
     style="stroke-width:0.526733" />
  <path
     d="m 394.82301,163.22583 a 2.3443978,2.3443978 0 0 1 -0.32587,-2.13523 l 7.54684,-22.64024 a 6.187661,6.187661 0 0 1 12.05788,1.95673 v 21.43298 a 2.3729731,2.3729731 0 0 1 -2.37029,2.3703 h -14.98565 a 2.3454091,2.3454091 0 0 1 -1.92291,-0.98454 z"
     fill="#cccccc"
     id="path50"
     style="stroke-width:0.526733" />
  <path
     d="m 426.94936,127.62112 a 2.5560285,2.5560285 0 0 1 -3.34528,-0.16673 c -2.77269,-2.59173 -5.11272,-5.6908 -6.29697,-9.27998 -1.35698,-4.1127 -1.01034,-8.92957 1.58833,-12.39405 2.19679,-2.92871 5.67396,-4.58325 9.09893,-5.876704 a 14.891261,14.891261 0 0 1 4.19279,-1.0889 5.7606545,5.7606545 0 0 1 4.08453,1.14695 3.6174475,3.6174475 0 0 1 1.19856,3.896244 13.614397,13.614397 0 0 1 6.21616,-3.21574 7.5149326,7.5149326 0 0 1 4.44572,0.18423 c 1.98625,0.81684 3.27647,2.81198 3.87101,4.8757 a 8.809294,8.809294 0 0 1 0.11497,4.85074 5.871221,5.871221 0 0 1 -3.00551,3.70416 c -1.81723,0.85613 -3.97379,0.53299 -5.8739,-0.11877 -1.90012,-0.65176 -3.70163,-1.61353 -5.66692,-2.02929 -1.96528,-0.41575 -4.2344,-0.17317 -5.62504,1.27645 -0.97931,1.02085 -1.36492,2.45686 -1.7152,3.82745 l -1.82184,7.12876 a 8.891596,8.891596 0 0 1 -1.13598,2.93584 1.7557477,1.7557477 0 0 1 -0.32436,0.34364 z"
     fill="#2f2e41"
     id="path52"
     style="stroke-width:0.526733" />
  <path
     d="m 515.25942,171.59214 v 24.31398 l 0.33178,0.24229 V 171.629 a 2.371219,2.371219 0 0 0 -0.33178,-0.0369 z m 35.27515,-15.90733 -16.81326,-12.2044 a 5.710557,5.710557 0 0 0 -7.95887,1.26416 l -9.83405,13.5581 -0.66896,0.91652 v 52.27822 a 5.031056,5.031056 0 0 1 -5.02502,5.02503 h -2.79158 l 1.61697,0.32657 a 5.4731796,5.4731796 0 0 0 1.13242,0.11588 5.7079339,5.7079339 0 0 0 4.61432,-2.34922 l 0.68465,-0.94813 36.30778,-50.02907 a 5.7083289,5.7083289 0 0 0 -1.2644,-7.95367 z m 0.72169,7.55861 -35.34897,48.70698 -0.37398,0.5162 -0.0368,0.0526 a 5.4384837,5.4384837 0 0 0 0.0946,-1.02187 v -51.59347 l 0.33718,-0.46352 10.3819,-14.30079 a 5.0342479,5.0342479 0 0 1 7.016,-1.11668 l 16.81326,12.2044 a 5.0312455,5.0312455 0 0 1 1.11674,7.01609 z"
     fill="#cccccc"
     id="path54"
     style="stroke-width:0.526733" />
  <path
     d="m 533.37808,176.04246 a 4.4435172,4.4435172 0 0 1 -2.62004,-0.85466 l -9.44826,-6.85627 a 4.4827219,4.4827219 0 0 1 -0.99406,-6.25341 l 6.8564,-9.44827 a 4.4772808,4.4772808 0 0 1 6.25328,-0.99405 l 9.44827,6.85627 a 4.4823427,4.4823427 0 0 1 0.99405,6.25315 l -6.8564,9.44827 a 4.4476258,4.4476258 0 0 1 -2.92082,1.79238 4.5386926,4.5386926 0 0 1 -0.71242,0.0565 z"
     fill="#cccccc"
     id="path56"
     style="stroke-width:0.526733" />
  <path
     d="m 518.37327,197.80052 a 2.9202062,2.9202062 0 0 1 -1.72153,-0.56119 l -1.65658,-1.20135 v -24.7266 l 0.27906,0.0167 a 3.0160083,3.0160083 0 0 1 0.73442,0.13581 2.8760344,2.8760344 0 0 1 0.82908,0.42025 l 11.92967,8.65997 a 2.9415442,2.9415442 0 0 1 0.65161,4.10996 l -8.65715,11.93019 a 2.9183204,2.9183204 0 0 1 -1.91713,1.17846 2.9833141,2.9833141 0 0 1 -0.47145,0.0378 z"
     fill="#e6e6e6"
     opacity="0.5"
     id="path58"
     style="stroke-width:0.526733" />
  <path
     d="m 510.23437,142.81672 h -20.77431 a 5.7009283,5.7009283 0 0 0 -5.694,5.69398 v 62.98671 a 5.700902,5.700902 0 0 0 5.694,5.69398 h 20.77431 a 5.6945074,5.6945074 0 0 0 5.25679,-3.52385 5.5185787,5.5185787 0 0 0 0.3161,-1.00079 5.4446096,5.4446096 0 0 0 0.10004,-0.71636 4.3085104,4.3085104 0 0 0 0.0211,-0.45298 V 148.5107 a 5.7009283,5.7009283 0 0 0 -5.694,-5.69398 z m 5.02503,68.68069 a 5.031056,5.031056 0 0 1 -5.02503,5.02503 h -20.77431 a 5.0308926,5.0308926 0 0 1 -5.02503,-5.02503 V 148.5107 a 5.0308979,5.0308979 0 0 1 5.02503,-5.02503 h 20.77431 a 5.031056,5.031056 0 0 1 5.02503,5.02503 z"
     fill="#3f3d56"
     id="path60"
     style="stroke-width:0.526733" />
  <path
     d="M 505.68429,170.21599 H 494.0104 a 4.4822742,4.4822742 0 0 1 -4.47723,-4.47723 v -11.67402 a 4.4822742,4.4822742 0 0 1 4.47723,-4.47723 h 11.67389 a 4.4822215,4.4822215 0 0 1 4.47717,4.47723 v 11.67402 a 4.4822215,4.4822215 0 0 1 -4.47717,4.47723 z"
     fill="#dc5c01"
     id="path62"
     style="stroke-width:0.526733" />
  <path
     d="M 505.68429,196.34815 H 494.0104 a 4.4822742,4.4822742 0 0 1 -4.47723,-4.47723 V 180.1969 a 4.4822742,4.4822742 0 0 1 4.47723,-4.47722 h 11.67389 a 4.4822215,4.4822215 0 0 1 4.47717,4.47722 v 11.67402 a 4.4822215,4.4822215 0 0 1 -4.47717,4.47723 z"
     fill="#dc5c01"
     opacity="0.5"
     id="path64"
     style="stroke-width:0.526733" />
  <path
     d="m 499.84735,202.1163 a 4.3560796,4.3560796 0 1 0 4.35583,4.35608 4.3612942,4.3612942 0 0 0 -4.35583,-4.35608 z m 0,8.03794 a 3.6844953,3.6844953 0 1 1 3.68713,-3.68186 3.6899471,3.6899471 0 0 1 -3.68713,3.68187 z"
     fill="#3f3d56"
     id="path66"
     style="stroke-width:0.526733" />
  <path
     d="M 488.51772,299.42896 H 357.20641 a 0.62717538,0.62717538 0 0 1 0,-1.25435 h 131.31131 a 0.62717538,0.62717538 0 0 1 0,1.25435 z"
     fill="#3f3d56"
     id="path68"
     style="stroke-width:0.526733" />
  <text
     xml:space="preserve"
     id="text77"
     style="font-style:normal;font-weight:normal;font-size:40px;line-height:1.25;font-family:sans-serif;white-space:pre;shape-inside:url(#rect79);fill:#333333;fill-opacity:1;stroke:none;"
     transform="translate(73.016892,29.802813)"><tspan
       x="35.763672"
       y="95.354541"><tspan
         style="font-style:normal;font-variant:normal;font-weight:bold;font-stretch:normal;font-family:Lora;-inkscape-font-specification:'Lora Bold';fill:#333333">Branding
</tspan></tspan><tspan
       x="35.763672"
       y="145.41025"><tspan
         style="font-style:normal;font-variant:normal;font-weight:bold;font-stretch:normal;font-family:Lora;-inkscape-font-specification:'Lora Bold';fill:#333333">as a
</tspan></tspan><tspan
       x="35.763672"
       y="195.46596"><tspan
         style="font-style:normal;font-variant:normal;font-weight:bold;font-stretch:normal;font-family:Lora;-inkscape-font-specification:'Lora Bold';fill:#333333">Service</tspan></tspan></text>
</svg>
