<?xml version="1.0" encoding="UTF-8" standalone="no"?>
<svg
   xmlns:dc="http://purl.org/dc/elements/1.1/"
   xmlns:cc="http://creativecommons.org/ns#"
   xmlns:rdf="http://www.w3.org/1999/02/22-rdf-syntax-ns#"
   xmlns:svg="http://www.w3.org/2000/svg"
   xmlns="http://www.w3.org/2000/svg"
   xmlns:sodipodi="http://sodipodi.sourceforge.net/DTD/sodipodi-0.dtd"
   xmlns:inkscape="http://www.inkscape.org/namespaces/inkscape"
   id="a3386fed-3d80-43e9-a677-097ead221e66"
   data-name="Layer 1"
   width="776.36327"
   height="516.12769"
   viewBox="0 0 776.36327 516.12769"
   version="1.1"
   sodipodi:docname="baasm.svg"
   inkscape:version="1.0.1 (3bc2e813f5, 2020-09-07)">
  <metadata
     id="metadata75">
    <rdf:RDF>
      <cc:Work
         rdf:about="">
        <dc:format>image/svg+xml</dc:format>
        <dc:type
           rdf:resource="http://purl.org/dc/dcmitype/StillImage" />
      </cc:Work>
    </rdf:RDF>
  </metadata>
  <defs
     id="defs73">
    <rect
       x="35.763376"
       y="58.860556"
       width="270.46053"
       height="222.03096"
       id="rect79" />
  </defs>
  <sodipodi:namedview
     pagecolor="#ffffff"
     bordercolor="#666666"
     borderopacity="1"
     objecttolerance="10"
     gridtolerance="10"
     guidetolerance="10"
     inkscape:pageopacity="0"
     inkscape:pageshadow="2"
     inkscape:window-width="1920"
     inkscape:window-height="1009"
     id="namedview71"
     showgrid="false"
     inkscape:zoom="1.3421552"
     inkscape:cx="388.18164"
     inkscape:cy="242.03778"
     inkscape:window-x="-8"
     inkscape:window-y="-8"
     inkscape:window-maximized="1"
     inkscape:current-layer="a3386fed-3d80-43e9-a677-097ead221e66"
     inkscape:document-rotation="0" />
  <path
     d="m 75.022321,187.47983 a 109.99971,109.99971 0 0 1 -1.03701,14.13432 c -0.02273,0.16451 -0.04747,0.329 -0.07026,0.4935 l -44.28539,-0.24746 c -0.13003,-0.16336 -0.258011,-0.32869 -0.382011,-0.496 -0.413454,-0.5537 -0.80096,-1.12315 -1.156688,-1.71223 -1.709801,-2.83798 -2.492563,-6.16069 -1.708152,-8.45316 l 0.01402,-0.0356 a 4.0227379,4.0227379 0 0 1 0.785124,-1.36423 c 1.788425,-2.01314 5.404444,-1.67756 8.685899,-0.0526 -2.943252,-3.22173 -5.286845,-7.28704 -5.464913,-10.9158 -0.174605,-3.53948 1.676168,-6.06797 3.683555,-8.21675 0.06586,-0.071 0.13172,-0.14009 0.197572,-0.20914 0.03198,-0.0355 0.06586,-0.0691 0.09772,-0.10458 1.566178,-1.63753 3.392099,-3.25179 6.03498,-3.05652 2.898549,0.21455 6.112186,2.64241 8.365452,5.47153 2.253261,2.82712 3.750626,6.03877 5.268366,9.1732 1.51969,3.13245 3.163857,6.34494 5.602452,9.02236 -3.302927,-4.17778 -5.96596,-8.93116 -6.949681,-13.55417 -0.98372,-4.623 -0.117975,-9.06311 2.825713,-11.24037 a 6.8850195,6.8850195 0 0 1 3.015794,-1.21686 c 0.126986,-0.0211 0.255998,-0.0383 0.387017,-0.0534 2.725028,-0.31005 5.978628,0.63242 8.746864,2.88522 3.048607,2.48051 5.162214,6.15777 6.213848,9.64859 1.051568,3.49081 1.163637,6.85143 1.129704,10.10015 z"
     fill="#f2f2f2"
     id="path2"
     style="stroke-width:0.310196" />
  <path
     d="m 46.048231,201.95196 -0.846836,-0.005 q -0.403318,-0.25216 -0.810452,-0.49841 c -0.168021,-0.10606 -0.338003,-0.20816 -0.508067,-0.31226 q -4.21337,-2.57329 -8.479429,-4.93663 -4.262179,-2.36529 -8.567223,-4.51263 a 0.35491398,0.35491398 0 0 1 -0.204021,-0.40578 0.10227786,0.10227786 0 0 1 0.01408,-0.0297 c 0.04004,-0.0751 0.1295,-0.1064 0.260084,-0.0422 0.352025,0.1765 0.706087,0.35304 1.058076,0.53353 q 4.3168,2.1841 8.596545,4.58621 4.276795,2.40108 8.504852,5.01411 c 0.05926,0.036 0.118612,0.074 0.177879,0.11009 0.268824,0.16609 0.535699,0.33221 0.804481,0.49835 z"
     fill="#ffffff"
     id="path4"
     style="stroke-width:0.310196" />
  <path
     d="m 56.966927,202.01294 -0.52365,-0.003 c -0.118099,-0.16528 -0.234173,-0.33056 -0.352272,-0.49585 q -4.1623,-5.83665 -8.322856,-11.67344 -6.813391,-9.55572 -13.622706,-19.11142 a 0.33721729,0.33721729 0 0 1 -0.05892,-0.11538 c -0.03881,-0.14104 0.06478,-0.22376 0.197572,-0.20914 a 0.39779238,0.39779238 0 0 1 0.276704,0.1761 q 3.819945,5.35885 7.63797,10.71372 6.777921,9.50793 13.553916,19.01385 c 0.287333,0.40227 0.574648,0.80651 0.861976,1.20878 0.118093,0.1653 0.236192,0.33058 0.352266,0.49585 z"
     fill="#ffffff"
     id="path6"
     style="stroke-width:0.310196" />
  <path
     d="m 68.632803,198.97202 c -0.02668,0.88252 -0.08513,1.75093 -0.161413,2.61132 q -0.02214,0.24683 -0.0444,0.49364 l -0.549408,-0.003 c 0.01678,-0.16453 0.03363,-0.32906 0.04835,-0.49361 0.116097,-1.24299 0.198467,-2.50004 0.209651,-3.79122 a 52.889365,52.889365 0 0 0 -1.041216,-10.66098 66.378556,66.378556 0 0 0 -3.224779,-11.07584 76.063629,76.063629 0 0 0 -5.27621,-10.95838 0.29269484,0.29269484 0 0 1 -0.04853,-0.19465 c 0.02267,-0.15658 0.231152,-0.20301 0.387018,-0.0534 a 0.45474749,0.45474749 0 0 1 0.07877,0.0996 q 0.380156,0.65368 0.74645,1.31127 a 76.010569,76.010569 0 0 1 5.049946,10.99677 66.064698,66.064698 0 0 1 3.00639,11.09247 52.17884,52.17884 0 0 1 0.819333,10.62605 z"
     fill="#ffffff"
     id="path8"
     style="stroke-width:0.310196" />
  <path
     d="M 192.76545,131.1851 H 140.9627 a 4.5587723,4.5587723 0 0 1 -2.98003,-0.9942 0.31023953,0.31023953 0 0 1 0.37654,-0.49316 3.932294,3.932294 0 0 0 2.60349,0.86697 h 51.80275 a 4.658215,4.658215 0 0 0 4.65294,-4.65294 V 94.271767 a 4.658215,4.658215 0 0 0 -4.65294,-4.65295 H 140.9627 a 4.658215,4.658215 0 0 0 -4.65294,4.65295 v 18.611763 a 0.31019611,0.31019611 0 0 1 -0.62039,0 V 94.271767 a 5.2792805,5.2792805 0 0 1 5.27333,-5.27334 h 51.80275 a 5.2792805,5.2792805 0 0 1 5.27334,5.27334 v 31.640003 a 5.2792769,5.2792769 0 0 1 -5.27334,5.27333 z"
     fill="#3f3d56"
     id="path10"
     style="stroke-width:0.310196" />
  <path
     d="M 261.62899,149.17647 H 124.52231 a 0.31019611,0.31019611 0 0 1 0,-0.62039 h 137.10668 a 4.658215,4.658215 0 0 0 4.65294,-4.65294 V 47.742347 a 4.658215,4.658215 0 0 0 -4.65294,-4.652946 H 115.83682 a 4.658215,4.658215 0 0 0 -4.65294,4.652946 v 62.659623 a 0.31019611,0.31019611 0 0 1 -0.62039,0 V 47.742347 a 5.2792805,5.2792805 0 0 1 5.27333,-5.273338 h 145.79217 a 5.2792805,5.2792805 0 0 1 5.27333,5.273338 v 96.160793 a 5.2792769,5.2792769 0 0 1 -5.27333,5.27333 z"
     fill="#3f3d56"
     id="path12"
     style="stroke-width:0.310196" />
  <rect
     x="110.77235"
     y="52.57378"
     width="156.02864"
     height="0.62039226"
     fill="#3f3d56"
     id="rect14"
     style="stroke-width:0.310196" />
  <circle
     cx="116.66606"
     cy="48.52882"
     r="1.8611766"
     fill="#3f3d56"
     id="circle16"
     style="stroke-width:0.310196" />
  <circle
     cx="122.01697"
     cy="48.52882"
     r="1.8611766"
     fill="#3f3d56"
     id="circle18"
     style="stroke-width:0.310196" />
  <circle
     cx="127.36783"
     cy="48.52882"
     r="1.8611766"
     fill="#3f3d56"
     id="circle20"
     style="stroke-width:0.310196" />
  <path
     d="m 236.348,73.798817 h -96.16079 a 4.80804,4.80804 0 0 1 0,-9.61608 H 236.348 a 4.80804,4.80804 0 0 1 0,9.61608 z m -96.16079,-8.99569 a 4.18765,4.18765 0 0 0 0,8.3753 H 236.348 a 4.18765,4.18765 0 0 0 0,-8.3753 z"
     fill="#3f3d56"
     id="path22"
     style="stroke-width:0.310196" />
  <path
     d="m 235.72761,98.304317 h -18.61177 a 4.808045,4.808045 0 0 1 0,-9.61609 h 18.61177 a 4.808045,4.808045 0 0 1 0,9.61609 z"
     fill="#dc5c01"
     id="path24"
     style="stroke-width:0.310196" />
  <path
     d="m 235.72761,114.43451 h -18.61177 a 4.8080413,4.8080413 0 0 1 0,-9.61608 h 18.61177 a 4.8080413,4.8080413 0 0 1 0,9.61608 z"
     fill="#dc5c01"
     id="path26"
     style="stroke-width:0.310196" />
  <path
     d="m 235.72761,130.56471 h -18.61177 a 4.808041,4.808041 0 0 1 0,-9.61608 h 18.61177 a 4.808041,4.808041 0 0 1 0,9.61608 z"
     fill="#dc5c01"
     id="path28"
     style="stroke-width:0.310196" />
  <path
     d="m 103.42898,133.53639 a 3.4595768,3.4595768 0 0 0 -0.7134,-0.0744 3.4247511,3.4247511 0 0 0 -1.31213,0.26056 3.1083883,3.1083883 0 0 0 -0.40637,0.20473 l -13.878251,-6.22874 -0.390774,-3.76578 -5.983681,-0.1582 0.04028,6.26596 a 3.3736029,3.3736029 0 0 0 2.4381,3.20743 l 16.229557,4.61882 c 0.0371,0.11788 0.07135,0.22024 0.111627,0.3164 a 3.408379,3.408379 0 0 0 2.028682,1.91081 3.3699984,3.3699984 0 0 0 1.12598,0.19234 3.2359037,3.2359037 0 0 0 0.71035,-0.0776 2.9805255,2.9805255 0 0 0 0.39395,-0.11168 v -6.45209 a 3.5229965,3.5229965 0 0 0 -0.39393,-0.10857 z"
     fill="#a0616a"
     id="path30"
     style="stroke-width:0.310196" />
  <polygon
     points="127.046,504.226 139.306,504.226 145.138,456.938 127.044,456.938 "
     fill="#a0616a"
     id="polygon32"
     transform="matrix(0.31019611,0,0,0.31019611,26.077459,42.469009)" />
  <path
     d="m 76.624058,202.40881 -11.952084,5.1e-4 -2.12e-4,-4.61785 7.334235,-3.3e-4 a 4.617846,4.617846 0 0 1 4.618061,4.61763 v 0 z"
     fill="#2f2e41"
     id="path34"
     style="stroke-width:0.310196" />
  <polygon
     points="63.321,491.01 74.591,495.837 98.572,454.666 81.94,447.541 "
     fill="#a0616a"
     id="polygon36"
     transform="matrix(0.31019611,0,0,0.31019611,26.077459,42.469009)" />
  <path
     d="m 54.566775,202.40934 -10.986703,-4.70578 1.818148,-4.24487 6.741844,2.88765 a 4.617846,4.617846 0 0 1 2.426717,6.063 v 0 z"
     fill="#2f2e41"
     id="path38"
     style="stroke-width:0.310196" />
  <circle
     cx="74.889336"
     cy="96.266769"
     r="7.6187353"
     fill="#a0616a"
     id="circle40"
     style="stroke-width:0.310196" />
  <path
     d="m 69.385142,195.29171 -4.186433,-0.79761 a 1.3876809,1.3876809 0 0 1 -1.127414,-1.51342 l 2.776086,-27.06734 a 1.0856864,1.0856864 0 0 0 -2.078002,-0.53829 l -12.119764,28.27964 a 1.3960003,1.3960003 0 0 1 -1.849966,0.72551 l -3.404961,-1.51342 a 1.3904013,1.3904013 0 0 1 -0.757392,-1.71698 l 8.289106,-24.86749 a 1.0854227,1.0854227 0 0 0 0.04817,-0.21538 l 2.690659,-22.72095 a 1.3958825,1.3958825 0 0 1 0.860845,-1.1293 l 8.495783,-3.45124 a 1.3960717,1.3960717 0 0 1 1.499255,0.29293 l 10.723573,10.44155 a 1.3902679,1.3902679 0 0 1 0.395397,1.27198 l -8.624594,43.4205 a 1.4010162,1.4010162 0 0 1 -1.370137,1.12385 1.3864712,1.3864712 0 0 1 -0.260208,-0.0246 z"
     fill="#2f2e41"
     id="path42"
     style="stroke-width:0.310196" />
  <path
     d="m 64.612388,144.59886 c -1.484179,-1.71848 -2.567371,-2.49852 -3.308174,-2.37554 -0.735055,0.11875 -1.159073,1.14567 -1.608085,2.23287 -0.612821,1.48403 -1.307424,3.16617 -3.019563,3.29765 a 1.441503,1.441503 0 0 1 -1.415194,-0.5801 c -1.34674,-2.00294 1.88351,-8.63097 2.17864,-9.22652 l -0.151466,-31.34859 a 1.3925262,1.3925262 0 0 1 0.729896,-1.23623 c 8.876788,-4.78684 20.862881,3.53817 23.175421,5.25606 v 0 a 1.3922222,1.3922222 0 0 1 0.561622,1.19383 c -0.279065,5.25031 -1.671027,31.73936 -1.671027,37.64824 0,1.63579 -0.564196,2.67513 -1.676992,3.08893 a 3.3443514,3.3443514 0 0 1 -1.170811,0.19206 c -3.395314,0 -8.956283,-3.89562 -12.624267,-8.14266 z"
     fill="#cccccc"
     id="path44"
     style="stroke-width:0.310196" />
  <path
     d="m 77.000398,129.37685 a 1.3805091,1.3805091 0 0 1 -0.627432,-1.10628 l -0.601309,-14.04123 a 3.6439884,3.6439884 0 0 1 7.045149,-1.45525 l 4.500114,11.7926 a 1.3973807,1.3973807 0 0 1 -0.806466,1.8018 l -8.245262,3.14649 a 1.3820478,1.3820478 0 0 1 -1.264794,-0.13813 z"
     fill="#cccccc"
     id="path46"
     style="stroke-width:0.310196" />
  <path
     d="m 56.047503,151.31645 a 3.3323313,3.3323313 0 0 1 -0.535481,-5.0816 l -1.454875,-32.54095 7.197104,0.84745 -0.835469,31.75823 a 3.3504002,3.3504002 0 0 1 -4.371291,5.01687 z"
     fill="#a0616a"
     id="path48"
     style="stroke-width:0.310196" />
  <path
     d="m 51.049875,122.35897 a 1.3806301,1.3806301 0 0 1 -0.191907,-1.25745 l 4.44438,-13.33298 a 3.6439513,3.6439513 0 0 1 7.100959,1.15233 v 12.62201 a 1.3974583,1.3974583 0 0 1 -1.395878,1.39589 h -8.825141 a 1.3812257,1.3812257 0 0 1 -1.132413,-0.5798 z"
     fill="#cccccc"
     id="path50"
     style="stroke-width:0.310196" />
  <path
     d="m 69.969278,101.39114 a 1.5052608,1.5052608 0 0 1 -1.970056,-0.0982 c -1.632854,-1.526293 -3.010912,-3.351353 -3.708324,-5.465043 -0.799133,-2.42199 -0.594995,-5.25868 0.935378,-7.29893 1.293703,-1.72473 3.341429,-2.6991 5.358414,-3.46083 a 8.7695543,8.7695543 0 0 1 2.46916,-0.64126 3.3924845,3.3924845 0 0 1 2.405404,0.67545 2.1303369,2.1303369 0 0 1 0.70584,2.29452 8.0176013,8.0176013 0 0 1 3.660734,-1.89377 4.4255896,4.4255896 0 0 1 2.618112,0.1085 c 1.169715,0.48104 1.929533,1.65599 2.279661,2.87133 a 5.1878469,5.1878469 0 0 1 0.06771,2.85663 3.4575978,3.4575978 0 0 1 -1.769963,2.1814 c -1.070178,0.50418 -2.34019,0.31388 -3.459176,-0.0699 -1.118992,-0.38383 -2.179912,-0.95022 -3.337284,-1.19507 -1.157365,-0.24483 -2.493664,-0.10198 -3.31262,0.75171 -0.576722,0.60119 -0.80381,1.44686 -1.010092,2.25401 l -1.072892,4.19817 a 5.236315,5.236315 0 0 1 -0.668986,1.728943 1.0339705,1.0339705 0 0 1 -0.191017,0.20237 z"
     fill="#2f2e41"
     id="path52"
     style="stroke-width:0.310196" />
  <path
     d="m 121.97561,127.28594 v 14.31865 l 0.19539,0.14269 v -14.43963 a 1.3964253,1.3964253 0 0 0 -0.19539,-0.0217 z m 20.77375,-9.36793 -9.90143,-7.18724 a 3.3629818,3.3629818 0 0 0 -4.68703,0.74447 l -5.79133,7.98445 -0.39395,0.53974 v 30.78696 a 2.9628195,2.9628195 0 0 1 -2.95927,2.95928 h -1.64398 l 0.95225,0.19231 a 3.2231888,3.2231888 0 0 0 0.66688,0.0682 3.361437,3.361437 0 0 0 2.71741,-1.38347 l 0.40319,-0.55836 21.38187,-29.46243 a 3.3616697,3.3616697 0 0 0 -0.74461,-4.68396 z m 0.42501,4.45132 -20.81723,28.68383 -0.22023,0.304 -0.0217,0.031 a 3.2027562,3.2027562 0 0 0 0.0557,-0.60178 v -30.38371 l 0.19857,-0.27297 6.11397,-8.42182 a 2.9646993,2.9646993 0 0 1 4.13176,-0.65762 l 9.90143,7.18724 a 2.9629311,2.9629311 0 0 1 0.65766,4.13182 z"
     fill="#cccccc"
     id="path54"
     style="stroke-width:0.310196" />
  <path
     d="m 132.6458,129.90676 a 2.6168143,2.6168143 0 0 1 -1.54296,-0.50332 l -5.56414,-4.0377 a 2.6399022,2.6399022 0 0 1 -0.5854,-3.68267 l 4.03777,-5.56414 a 2.6366979,2.6366979 0 0 1 3.6826,-0.5854 l 5.56414,4.0377 a 2.6396789,2.6396789 0 0 1 0.5854,3.68252 l -4.03777,5.56414 a 2.6192339,2.6192339 0 0 1 -1.72009,1.05554 2.6728637,2.6728637 0 0 1 -0.41955,0.0333 z"
     fill="#cccccc"
     id="path56"
     style="stroke-width:0.310196" />
  <path
     d="m 123.80937,142.72021 a 1.7197272,1.7197272 0 0 1 -1.01381,-0.33049 l -0.97557,-0.70748 V 127.1206 l 0.16434,0.01 a 1.7761457,1.7761457 0 0 1 0.4325,0.08 1.6937142,1.6937142 0 0 1 0.48825,0.24749 l 7.02546,5.09991 a 1.7322933,1.7322933 0 0 1 0.38373,2.42038 l -5.09825,7.02576 a 1.7186167,1.7186167 0 0 1 -1.12901,0.694 1.7568918,1.7568918 0 0 1 -0.27764,0.0223 z"
     fill="#e6e6e6"
     opacity="0.5"
     id="path58"
     style="stroke-width:0.310196" />
  <path
     d="m 119.01633,110.33992 h -12.23412 a 3.3573114,3.3573114 0 0 0 -3.35323,3.35322 v 37.09325 a 3.3572959,3.3572959 0 0 0 3.35323,3.35322 h 12.23412 a 3.3535301,3.3535301 0 0 0 3.09575,-2.07521 3.2499246,3.2499246 0 0 0 0.18616,-0.58937 3.2063638,3.2063638 0 0 0 0.0589,-0.42187 2.537308,2.537308 0 0 0 0.0124,-0.26677 v -37.09325 a 3.3573114,3.3573114 0 0 0 -3.35324,-3.35322 z m 2.95927,40.44647 a 2.9628195,2.9628195 0 0 1 -2.95927,2.95928 h -12.23412 a 2.9627233,2.9627233 0 0 1 -2.95927,-2.95928 v -37.09325 a 2.9627264,2.9627264 0 0 1 2.95927,-2.95927 h 12.23412 a 2.9628195,2.9628195 0 0 1 2.95927,2.95927 z"
     fill="#3f3d56"
     id="path60"
     style="stroke-width:0.310196" />
  <path
     d="m 116.33676,126.47551 h -6.87483 a 2.6396386,2.6396386 0 0 1 -2.63667,-2.63666 v -6.8749 a 2.6396386,2.6396386 0 0 1 2.63667,-2.63667 h 6.87483 a 2.6396075,2.6396075 0 0 1 2.63663,2.63667 v 6.8749 a 2.6396075,2.6396075 0 0 1 -2.63663,2.63666 z"
     fill="#dc5c01"
     id="path62"
     style="stroke-width:0.310196" />
  <path
     d="m 116.33676,141.8649 h -6.87483 a 2.6396386,2.6396386 0 0 1 -2.63667,-2.63666 v -6.87491 a 2.6396386,2.6396386 0 0 1 2.63667,-2.63666 h 6.87483 a 2.6396075,2.6396075 0 0 1 2.63663,2.63666 v 6.87491 a 2.6396075,2.6396075 0 0 1 -2.63663,2.63666 z"
     fill="#dc5c01"
     opacity="0.5"
     id="path64"
     style="stroke-width:0.310196" />
  <path
     d="m 112.89935,145.2618 a 2.5653218,2.5653218 0 1 0 2.56517,2.56532 2.5683927,2.5683927 0 0 0 -2.56517,-2.56532 z m 0,4.73359 a 2.1698217,2.1698217 0 1 1 2.17137,-2.16827 2.1730323,2.1730323 0 0 1 -2.17137,2.16828 z"
     fill="#3f3d56"
     id="path66"
     style="stroke-width:0.310196" />
  <path
     d="M 106.22726,202.56982 H 28.89723 a 0.3693474,0.3693474 0 0 1 0,-0.73869 h 77.33003 a 0.3693474,0.3693474 0 0 1 0,0.73869 z"
     fill="#3f3d56"
     id="path68"
     style="stroke-width:0.310196" />
  <text
     xml:space="preserve"
     id="text77"
     style="font-style:normal;font-weight:normal;font-size:40px;line-height:1.25;font-family:sans-serif;white-space:pre;shape-inside:url(#rect79);fill:#333333;fill-opacity:1;stroke:none;"
     transform="translate(21.60704,202.65913)"><tspan
       x="35.763672"
       y="95.354541"><tspan
         style="font-style:normal;font-variant:normal;font-weight:bold;font-stretch:normal;font-family:Lora;-inkscape-font-specification:'Lora Bold';fill:#333333">Branding
</tspan></tspan><tspan
       x="35.763672"
       y="145.41025"><tspan
         style="font-style:normal;font-variant:normal;font-weight:bold;font-stretch:normal;font-family:Lora;-inkscape-font-specification:'Lora Bold';fill:#333333">as a
</tspan></tspan><tspan
       x="35.763672"
       y="195.46596"><tspan
         style="font-style:normal;font-variant:normal;font-weight:bold;font-stretch:normal;font-family:Lora;-inkscape-font-specification:'Lora Bold';fill:#333333">Service</tspan></tspan></text>
</svg>
