<?xml version="1.0" encoding="UTF-8" standalone="no"?>
<svg
   xmlns:dc="http://purl.org/dc/elements/1.1/"
   xmlns:cc="http://creativecommons.org/ns#"
   xmlns:rdf="http://www.w3.org/1999/02/22-rdf-syntax-ns#"
   xmlns:svg="http://www.w3.org/2000/svg"
   xmlns="http://www.w3.org/2000/svg"
   xmlns:sodipodi="http://sodipodi.sourceforge.net/DTD/sodipodi-0.dtd"
   xmlns:inkscape="http://www.inkscape.org/namespaces/inkscape"
   id="78bf026f-5d34-4e97-88cf-29aa2cfb8006"
   data-name="Layer 1"
   width="1084.15"
   height="758.57"
   viewBox="0 0 1084.15 758.57"
   version="1.1"
   sodipodi:docname="clientele.svg"
   inkscape:version="1.0.1 (3bc2e813f5, 2020-09-07)">
  <metadata
     id="metadata351">
    <rdf:RDF>
      <cc:Work
         rdf:about="">
        <dc:format>image/svg+xml</dc:format>
        <dc:type
           rdf:resource="http://purl.org/dc/dcmitype/StillImage" />
      </cc:Work>
    </rdf:RDF>
  </metadata>
  <defs
     id="defs349">
    <rect
       x="85.316988"
       y="79.074282"
       width="287.1645"
       height="227.85879"
       id="rect355" />
  </defs>
  <sodipodi:namedview
     pagecolor="#ffffff"
     bordercolor="#666666"
     borderopacity="1"
     objecttolerance="10"
     gridtolerance="10"
     guidetolerance="10"
     inkscape:pageopacity="0"
     inkscape:pageshadow="2"
     inkscape:window-width="1920"
     inkscape:window-height="1009"
     id="namedview347"
     showgrid="false"
     inkscape:zoom="0.96112159"
     inkscape:cx="542.07501"
     inkscape:cy="379.285"
     inkscape:window-x="-8"
     inkscape:window-y="-8"
     inkscape:window-maximized="1"
     inkscape:current-layer="78bf026f-5d34-4e97-88cf-29aa2cfb8006"
     inkscape:document-rotation="0" />
  <title
     id="title2">interview</title>
  <path
     d="M 714.27507,22.899262 C 692.25438,14.524706 668.98451,7.5292534 645.22995,8.4086818 610.30265,9.6978438 576.77444,29.350069 560.35511,58.206313 546.42417,82.65542 544.70529,111.3118 538.70419,138.44416 c -7.3852,33.42328 -21.55599,65.19762 -36.68615,96.26242 -8.12472,16.68916 -16.69914,33.73808 -18.03328,52.03119 -1.8488,25.39849 11.12777,50.70704 31.47954,67.60106 20.35177,16.89402 47.3792,25.80822 74.50657,27.75197 14.43561,1.03432 29.52081,0.075 42.34248,-6.21098 13.56618,-6.65067 23.45475,-18.66786 37.0759,-25.2236 12.6218,-6.07605 27.38719,-6.9255 41.55798,-6.13601 a 197.19183,197.19183 0 0 1 54.25474,10.79299 c 19.80712,6.95547 38.22515,17.03392 57.96232,24.08934 19.73717,7.05541 41.8428,10.99286 62.03968,5.10668 18.98765,-5.53141 33.97791,-18.96267 47.49413,-32.56383 a 577.21482,577.21482 0 0 0 60.57063,-71.64843 c 12.19707,-17.0939 23.54967,-35.12718 28.94117,-55.04923 10.3133,-38.09023 -3.8775,-81.0623 -35.35201,-107.07539 C 960.77984,96.62135 925.78259,87.267428 891.52486,81.591115 860.28517,76.414477 824.16364,76.094686 795.40733,62.603455 767.98516,49.721828 743.03138,33.84215 714.27507,22.899262 Z"
     fill="#dc5c01"
     opacity="0.1"
     id="path4"
     style="stroke-width:0.499675;fill:#333333" />
  <polygon
     points="632.58,655.33 642.91,655.33 640.91,616.33 632.58,619 "
     fill="#aaabb0"
     id="polygon6"
     transform="matrix(0,0.49967522,-0.49967522,0,941.07911,-118.78974)" />
  <polygon
     points="477.41,648 487.75,648 485.75,609 477.41,611.67 "
     fill="#aaabb0"
     id="polygon8"
     transform="matrix(0,0.49967522,-0.49967522,0,941.07911,-118.78974)" />
  <rect
     x="203.29091"
     y="-665.42334"
     width="6.6606708"
     height="32.313995"
     rx="3.3328338"
     ry="3.3328338"
     fill="#aaabb0"
     id="rect10"
     transform="rotate(90)"
     style="stroke-width:0.499675" />
  <rect
     x="117.84645"
     y="-672.58862"
     width="6.6606708"
     height="39.474342"
     rx="3.3328338"
     ry="3.3328338"
     fill="#aaabb0"
     id="rect12"
     transform="rotate(90)"
     style="stroke-width:0.499675" />
  <path
     d="m 858.7976,218.45106 c 0,0 2.83315,6.66066 0,7.66002 -2.83316,0.99935 -27.31725,1.49902 -27.31725,1.49902 v -6.33088 z"
     fill="#aaabb0"
     id="path14"
     style="stroke-width:0.499675" />
  <path
     d="m 858.7976,145.49847 c 0,0 2.83315,-6.66566 0,-7.66502 -2.83316,-0.99935 -27.31725,-1.49902 -27.31725,-1.49902 v 6.33089 z"
     fill="#aaabb0"
     id="path16"
     style="stroke-width:0.499675" />
  <polygon
     points="528.91,156.67 537.91,156.67 537.91,115 530.91,116 "
     fill="#aaabb0"
     id="polygon18"
     transform="matrix(0,0.49967522,-0.49967522,0,941.07911,-118.78974)" />
  <path
     d="m 831.48035,142.66532 29.31595,1.33413 c 0,0 6.49577,-0.49968 4.49708,15.32004 -1.9987,15.81971 -5.99611,62.12961 -5.99611,62.12961 h -27.81692 z"
     fill="#33323d"
     id="path20"
     style="stroke-width:0.499675" />
  <path
     d="m 677.08071,205.95918 -44.80088,-2.49838 c 0,0 -20.32179,-36.64618 -0.99935,-81.11727 l 47.13437,3.99739 z"
     fill="#33323d"
     id="path22"
     style="stroke-width:0.499675" />
  <polygon
     points="581.91,233.33 685.25,233.33 679.25,156.67 580.25,175.33 "
     fill="#444053"
     id="polygon24"
     transform="matrix(0,0.49967522,-0.49967522,0,941.07911,-118.78974)" />
  <rect
     x="127.75501"
     y="-696.23828"
     width="48.638386"
     height="61.624947"
     fill="#4c4981"
     id="rect26"
     transform="rotate(90)"
     style="stroke-width:0.499675" />
  <path
     d="m 671.08461,158.49003 c 0,0 5.49643,6.99546 3.83251,8.1597 -1.66392,1.16424 -8.82926,-4.1573 -7.99481,-6.32589 0.83446,-2.1686 4.1623,-1.83381 4.1623,-1.83381 z"
     fill="#ffb9b9"
     id="path28"
     style="stroke-width:0.499675" />
  <rect
     x="33.366367"
     y="-833.14929"
     width="319.27744"
     height="159.89606"
     fill="#504f60"
     id="rect30"
     transform="rotate(90)"
     style="stroke-width:0.499675" />
  <path
     d="m 884.28103,142.83021 c 0,0 23.31985,-2.49837 26.14801,0 2.82816,2.49838 29.65072,44.4711 -1.82882,83.28087 0,0 -0.16988,3.66262 -8.49448,2.99804 a 99.935036,99.935036 0 0 0 -15.82471,0.08 c 0,0 -5.9961,-83.52571 0,-86.35887 z"
     fill="#33323d"
     id="path32"
     style="stroke-width:0.499675" />
  <path
     d="m 884.28103,142.83021 c 0,0 23.31985,-2.49837 26.14801,0 2.82816,2.49838 29.65072,44.4711 -1.82882,83.28087 0,0 -0.16988,3.66262 -8.49448,2.99804 a 99.935036,99.935036 0 0 0 -15.82471,0.08 c 0,0 -5.9961,-83.52571 0,-86.35887 z"
     opacity="0.1"
     id="path34"
     style="stroke-width:0.499675" />
  <path
     d="m 881.28298,142.83021 c 0,0 23.31985,-2.49837 26.14801,0 2.82815,2.49838 29.65073,44.4711 -1.82882,83.28087 0,0 -0.16988,3.66262 -8.49447,2.99804 a 99.935036,99.935036 0 0 0 -15.82472,0.08 c 0,0 -5.9961,-83.52571 0,-86.35887 z"
     fill="#33323d"
     id="path36"
     style="stroke-width:0.499675" />
  <path
     d="m 891.94105,230.60815 c 0,0 -9.9935,2.66327 -11.65742,1.83381 -1.66392,-0.82946 -6.33088,-0.67955 -6.33088,-0.67955 0,0 -2.99805,0.17988 -3.32784,-1.15426 -0.32979,-1.33413 -0.49967,-2.49837 -1.49903,-1.41907 -0.99935,1.07929 -2.49838,0 -2.49838,0 0,0 -2.33348,-0.58463 -3.8325,0 -1.49903,0.58462 -2.12362,-3.41778 -3.9974,-3.078 -1.87379,0.33978 -7.16035,1.45905 -7.33024,0 -0.16989,-1.45905 -6.66067,0.49967 -6.66067,-0.81447 0,-1.31415 -11.65742,-2.24854 -11.65742,-2.24854 0,0 7.82491,-9.244 5.66132,-15.40499 0,0 6.49577,0.49968 8.82927,2.49838 2.33347,1.9987 8.32458,1.39409 8.32458,1.39409 l 29.81562,9.91355 z"
     fill="#4c4981"
     id="path38"
     style="stroke-width:0.499675" />
  <path
     d="m 754.14063,181.14031 c -2.39345,-2.1636 10.38824,-4.49707 10.38824,-4.49707 0,0 -8.49448,-6.161 -2.83316,-10.15841 3.92245,-2.7682 15.03523,-0.58462 21.48604,0.99935 2.86813,0.70954 4.81686,1.30915 4.81686,1.30915 l 1.49903,8.99416 c 0,0 -1.95872,0.03 -4.33718,0.22985 -3.21291,0.26983 -7.20032,0.85444 -8.1547,2.09863 -1.65393,2.19358 -20.45171,3.19293 -22.86513,1.02434 z"
     fill="#ae6e79"
     id="path40"
     style="stroke-width:0.499675" />
  <path
     d="m 903.76836,176.47834 c 0,0 0.1649,-15.65983 -8.15969,-19.48734 -8.32459,-3.82751 -11.16274,-3.9974 -12.49188,-5.49642 -1.32914,-1.49903 -8.32959,16.31939 -8.32959,16.31939 l -28.64638,0.83446 c 0,0 3.5427,3.49772 1.93875,9.15905 -1.60397,5.66131 0,12.82665 0,12.82665 0,0 0.6046,-0.33478 0,4.33219 -0.60461,4.66697 7.22031,19.48733 7.22031,19.48733 0,0 12.53184,0.24484 15.20011,-0.085 2.66827,-0.32978 22.27553,10.57313 22.27553,10.57313 0,0 8.15969,8.49448 10.99284,-0.32978 0,0 4.70694,-3.12298 4.66198,-11.15775 -0.0449,-8.03478 -4.66198,-36.97597 -4.66198,-36.97597 z"
     opacity="0.1"
     id="path42"
     style="stroke-width:0.499675" />
  <path
     d="m 904.26804,176.47834 c 0,0 0.16489,-15.65983 -8.1597,-19.48734 -8.32458,-3.82751 -11.16275,-3.9974 -12.49188,-5.49642 -1.32913,-1.49903 -8.32958,16.31939 -8.32958,16.31939 l -28.64639,0.83446 c 0,0 3.5427,3.49772 1.93875,9.15905 -1.60396,5.66131 0,12.82665 0,12.82665 0,0 0.60461,-0.33478 0,4.33219 -0.60461,4.66697 7.2203,19.48733 7.2203,19.48733 0,0 9.49384,5.82622 12.1571,5.49643 2.66327,-0.32978 22.82017,11.65743 22.82017,11.65743 0,0 10.65807,1.8338 13.49123,-6.99546 0,0 4.70695,-3.12297 4.66197,-11.15775 -0.0449,-8.03478 -4.66197,-36.97596 -4.66197,-36.97596 z"
     fill="#4c4981"
     id="path44"
     style="stroke-width:0.499675" />
  <path
     d="m 785.17546,178.05731 c 1.06929,-3.43276 -1.28918,-8.81927 -1.99871,-10.53315 2.86813,0.70954 4.81687,1.30915 4.81687,1.30915 l 1.49903,8.99415 c 0,0 -1.95873,0.015 -4.31719,0.22985 z"
     opacity="0.1"
     id="path46"
     style="stroke-width:0.499675" />
  <path
     d="m 883.61646,156.32144 v -4.82686 c 0,0 -10.16339,-0.99936 -13.16145,0 -2.99805,0.99935 -2.56333,1.49902 -4.78188,1.16424 -2.21856,-0.33478 -5.61636,2.33348 -5.61636,2.33348 0,0 -8.37455,0.32979 -11.49253,1.9987 -3.11797,1.66892 -17.09888,-1.8338 -17.09888,-1.8338 a 20.116924,20.116924 0 0 0 -6.49578,4.16229 c -2.82816,2.83316 -13.32134,4.33219 -17.31874,3.49773 -3.99741,-0.83447 -5.49643,2.33348 -5.49643,2.33348 0,0 -18.65787,1.33413 -18.65787,1.83381 0,0.49967 4.99675,10.15839 0.66956,13.15644 l 17.15386,-2.33347 33.14345,0.16989 c 0,0 4.1673,-3.16794 7.82991,-1.49903 3.66262,1.66891 12.32699,-1.33413 12.32699,-1.33413 l 19.31744,-4.33219 z"
     fill="#4c4981"
     id="path48"
     style="stroke-width:0.499675" />
  <path
     d="m 620.28762,126.34092 c 0,0 1.49903,-6.99545 0,-7.16033 -1.49902,-0.1649 -16.82405,-8.32959 -21.32114,1.8338 -4.49707,10.16339 -14.1558,37.30575 -1.66391,81.44706 0,0 -0.99936,2.82816 5.16164,2.16359 6.16099,-0.66457 12.99155,-0.66457 12.99155,-0.66457 0,0 1.83381,-6.66566 1.16425,-11.66241 -0.66956,-4.99675 -9.49383,-48.4685 3.66761,-65.95714 z"
     fill="#33323d"
     id="path50"
     style="stroke-width:0.499675" />
  <path
     d="m 620.28762,126.34092 c 0,0 1.49903,-6.99545 0,-7.16033 -1.49902,-0.1649 -16.82405,-8.32959 -21.32114,1.8338 -4.49707,10.16339 -14.1558,37.30575 -1.66391,81.44706 0,0 -0.99936,2.82816 5.16164,2.16359 6.16099,-0.66457 12.99155,-0.66457 12.99155,-0.66457 0,0 1.83381,-6.66566 1.16425,-11.66241 -0.66956,-4.99675 -9.49383,-48.4685 3.66761,-65.95714 z"
     opacity="0.1"
     id="path52"
     style="stroke-width:0.499675" />
  <path
     d="m 622.28633,126.34092 c 0,0 1.49902,-6.99545 0,-7.16033 -1.49903,-0.1649 -16.82407,-8.32959 -21.32114,1.8338 -4.49708,10.16339 -14.15581,37.30575 -1.66393,81.44706 0,0 -0.99934,2.82816 5.16165,2.16359 6.16099,-0.66457 12.99155,-0.66457 12.99155,-0.66457 0,0 1.83381,-6.66566 1.16424,-11.66241 -0.66955,-4.99675 -9.49382,-48.4685 3.66763,-65.95714 z"
     fill="#33323d"
     id="path54"
     style="stroke-width:0.499675" />
  <path
     d="m 877.63036,167.13441 c -2.44342,-0.42972 -4.79189,-1.40408 -7.26529,-1.55399 -2.47339,-0.1499 -5.28656,0.80448 -6.25592,3.08799 a 10.408234,10.408234 0 0 1 -0.74951,1.84381 c -0.59462,0.87943 -1.7139,1.23919 -2.76321,1.42408 a 15.090191,15.090191 0 0 1 -4.10733,0.17487 c -1.3791,-0.12491 -2.86315,-0.41972 -4.06736,0.25984 -2.13361,1.19422 -1.81881,4.3072 -1.21921,6.67566 l -6.31089,-0.81447 c -0.49968,-0.065 -1.06431,-0.10494 -1.40409,0.25983 a 1.5739769,1.5739769 0 0 0 -0.25984,1.19921 c 0.12993,2.05866 0.41474,4.17729 1.49903,5.94115 1.0843,1.76385 3.10299,3.078 5.13666,2.74322 2.35847,-0.38976 4.23226,-2.82817 6.60072,-2.49838 1.8338,0.25483 2.99804,2.04867 4.40712,3.2279 2.57834,2.13361 6.49579,2.24854 9.41389,0.57463 2.9181,-1.67391 4.72693,-4.90681 5.05671,-8.23465 0.18488,-1.84381 -0.04,-3.76255 0.59961,-5.49643 a 4.1672914,4.1672914 0 0 1 2.68825,-2.54834"
     fill="#444053"
     id="path56"
     style="stroke-width:0.499675" />
  <path
     d="m 655.42979,109.02218 3.79753,1.74387 c 0,0 8.7693,9.41388 9.3839,11.57748 0.6146,2.16358 3.29286,10.99285 3.29286,12.32698 0,1.33414 1.33413,25.65333 1.33413,25.65333 l -6.66568,2.82816 -6.70064,-30.52017 -7.49512,-10.2883 z"
     fill="#767d9f"
     id="path58"
     style="stroke-width:0.499675" />
  <path
     d="m 757.69831,182.34952 -12.26703,-1.59396 -4.72193,-0.61461 -0.99935,-7.16034 c 0,0 1.65892,-0.77449 4.20726,-1.86878 7.73497,-3.32284 23.68461,-9.57877 26.43782,-5.95113 3.66762,4.82186 -8.49448,5.9961 -8.49448,5.9961 l 2.66827,5.49642 z"
     fill="#ffb9b9"
     id="path60"
     style="stroke-width:0.499675" />
  <rect
     x="144.9938"
     y="-734.87817"
     width="36.161499"
     height="54.62949"
     fill="#ffffff"
     id="rect62"
     transform="rotate(90)"
     style="stroke-width:0.499675" />
  <rect
     x="144.9938"
     y="-734.87817"
     width="36.161499"
     height="54.62949"
     opacity="0.1"
     id="rect64"
     transform="rotate(90)"
     style="stroke-width:0.499675" />
  <rect
     x="52.076305"
     y="-752.92188"
     width="36.161499"
     height="54.62949"
     transform="rotate(98.41)"
     fill="#ffffff"
     id="rect66"
     style="stroke-width:0.499675" />
  <rect
     x="56.161358"
     y="-748.3158"
     width="18.612902"
     height="28.116722"
     transform="rotate(98.41)"
     fill="#dc5c01"
     id="rect68"
     style="stroke-width:0.499675" />
  <rect
     x="55.366253"
     y="-712.08008"
     width="22.550343"
     height="6.1060314"
     transform="rotate(98.41)"
     fill="#dc5c01"
     id="rect70"
     style="stroke-width:0.499675" />
  <circle
     cx="190.63414"
     cy="-893.60999"
     r="20.901415"
     opacity="0.1"
     id="circle72"
     transform="rotate(90)"
     style="stroke-width:0.499675" />
  <circle
     cx="190.63414"
     cy="-894.10968"
     r="20.901415"
     fill="#ae6e79"
     id="circle74"
     transform="rotate(90)"
     style="stroke-width:0.499675" />
  <path
     d="m 878.61971,173.40034 a 2.378454,2.378454 0 0 1 1.61395,0.14491 c 1.65393,0.79448 1.79883,3.05801 1.71389,4.89181 -0.19988,4.31221 -0.22486,9.04412 2.49838,12.41694 1.11927,1.39908 3.93244,2.96307 3.39779,4.99675 -0.47469,1.80881 -2.9281,2.56333 -3.47275,4.4471 -0.39474,1.36412 0.23485,2.7782 0.49969,4.16729 0.39473,1.99871 0.0649,4.04737 0.0499,6.07606 -0.015,2.02868 0.36976,4.23224 1.8538,5.61635 1.9987,1.86878 5.12167,1.56398 7.85989,1.39908 a 42.317494,42.317494 0 0 1 10.56314,0.71455 c 3.45775,0.67955 7.32523,1.72387 10.28831,-0.18489 2.82316,-1.81881 3.59766,-5.58636 5.76125,-8.15969 1.9987,-2.40844 5.20162,-3.68261 7.05542,-6.22596 2.33348,-3.20291 1.99869,-7.55509 1.59396,-11.49252 l -0.9094,-8.54445 c -0.23485,-2.20357 -0.49968,-4.49708 -1.81383,-6.3109 -2.36846,-3.27288 -7.29026,-3.72258 -9.88358,-6.82057 -1.14924,-1.37909 -1.71887,-3.14296 -2.57832,-4.71693 -0.85944,-1.57398 -2.21856,-3.09299 -3.9974,-3.27287 -1.49903,-0.14991 -2.88313,0.65957 -4.32719,1.05431 -3.44776,0.93439 -6.99544,-0.52465 -10.4682,-1.45906 -3.47274,-0.93438 -7.69,-1.11427 -9.9935,1.59897 -0.46969,0.54963 -0.82946,1.18923 -1.31914,1.72387 -1.67392,1.83381 -4.49708,2.08365 -6.93549,1.65893"
     fill="#444053"
     id="path76"
     style="stroke-width:0.499675" />
  <ellipse
     cx="192.33801"
     cy="-869.25085"
     rx="0.49967521"
     ry="1.2491879"
     fill="#444053"
     id="ellipse78"
     transform="rotate(90)"
     style="stroke-width:0.499675" />
  <ellipse
     cx="192.33801"
     cy="-864.04419"
     rx="0.49967521"
     ry="1.2491879"
     fill="#444053"
     id="ellipse80"
     transform="rotate(90)"
     style="stroke-width:0.499675" />
  <path
     d="m 754.1756,181.25523 c 0.6146,0.53466 2.19357,0.88943 4.27721,1.09429 l 7.42519,-5.95613 c 0,0 -14.39565,2.52336 -11.7024,4.86184 z"
     fill="#ae6e79"
     id="path82"
     style="stroke-width:0.499675" />
  <path
     d="m 631.44537,187.97087 c 0,0 -15.11017,-9.77364 -13.49123,-40.30881 1.49903,-28.76629 15.65483,-42.80717 20.65158,-42.1376 4.99676,0.66956 17.15885,-1.83381 20.65657,4.32718 2.02369,3.57269 0.82446,8.27463 -0.54464,11.59247 a 6.5457453,6.5457453 0 0 0 1.2342,6.88053 c 2.73322,3.03303 5.81122,8.68935 3.38779,17.61854 a 6.3458753,6.3458753 0 0 0 0.065,3.49774 c 1.13426,3.71757 3.10298,12.56683 -1.26918,18.98766 a 6.4957778,6.4957778 0 0 0 -0.26482,6.95547 l 0.055,0.0899 c 1.8338,2.99805 -15.48994,16.98896 -15.48994,16.98896 0,0 -13.32633,0.66956 -14.99025,-4.49208 z"
     opacity="0.1"
     id="path84"
     style="stroke-width:0.499675" />
  <path
     d="m 630.9457,187.97087 c 0,0 -15.11019,-9.77364 -13.49124,-40.30881 1.49903,-28.76629 15.65483,-42.80717 20.65158,-42.1376 4.99675,0.66956 17.15885,-1.83381 20.65658,4.32718 2.02368,3.57269 0.82446,8.27463 -0.54465,11.59247 a 6.5457453,6.5457453 0 0 0 1.2342,6.88053 c 2.73322,3.03303 5.81122,8.68935 3.3878,17.61854 a 6.3458753,6.3458753 0 0 0 0.065,3.49774 c 1.13426,3.71757 3.10299,12.56683 -1.26917,18.98766 a 6.4957778,6.4957778 0 0 0 -0.26483,6.95547 l 0.055,0.0899 c 1.83381,2.99805 -15.48992,16.98896 -15.48992,16.98896 0,0 -13.32635,0.66956 -14.99026,-4.49208 z"
     fill="#767d9f"
     id="path86"
     style="stroke-width:0.499675" />
  <circle
     cx="147.66208"
     cy="-644.93665"
     r="19.907061"
     opacity="0.1"
     id="circle88"
     transform="rotate(90)"
     style="stroke-width:0.499675" />
  <circle
     cx="147.66208"
     cy="-644.43695"
     r="19.907061"
     fill="#ffb9b9"
     id="circle90"
     transform="rotate(90)"
     style="stroke-width:0.499675" />
  <path
     d="m 661.64575,141.95577 c -0.56464,-2.08863 -1.64394,-4.14729 -3.41779,-5.16663 -1.0693,-0.61461 -2.35347,-0.82946 -3.24288,-1.71889 -1.26418,-1.25917 -1.28917,-3.3828 -1.99871,-5.08669 -0.70954,-1.70389 -3.20792,-2.82817 -3.9974,-1.15925 -0.0899,-1.73886 -1.6939,-3.02803 -3.28786,-3.24289 -1.59396,-0.21486 -3.18293,0.38974 -4.70195,0.97437 -4.91681,1.90875 -10.04846,3.96242 -13.5462,8.16968 -5.70628,6.85555 -5.44145,17.18884 -4.83685,26.39785 a 4.3171938,4.3171938 0 0 0 0.49967,2.16359 c 0.65958,0.99934 1.92376,1.12427 3.03304,1.28916 4.73692,0.69455 9.03912,3.26288 13.56119,4.94179 4.52205,1.67891 9.8336,2.36846 13.83599,-0.4597 5.93615,-4.16229 9.99851,-20.09693 8.09975,-27.10239 z"
     fill="#b96b6b"
     id="path92"
     style="stroke-width:0.499675" />
  <path
     d="m 745.43128,180.75556 -4.72193,-0.61461 -0.99935,-7.16034 c 0,0 1.65892,-0.77449 4.20726,-1.86878 l 1.78884,9.5288 z"
     opacity="0.1"
     id="path94"
     style="stroke-width:0.499675" />
  <path
     d="m 641.1041,188.30065 4.83186,4.16729 26.64767,-0.83446 a 43.226903,43.226903 0 0 0 5.83122,0.83446 c 2.83315,0.1649 9.15904,-2.08364 9.15904,-2.08364 a 19.842103,19.842103 0 0 1 3.66761,1.41408 c 1.99871,0.99935 6.49579,-1.40909 6.49579,-1.40909 0,0 11.65742,-3.58766 17.48863,-2.08864 5.83121,1.49903 9.15904,-0.36475 9.15904,-0.36475 0,0 6.49578,-1.46406 9.15905,-1.29917 2.66327,0.1649 5.16665,-3.33283 5.16665,-3.33283 l 6.49577,-2.66327 -1.9987,-10.65807 h -22.48539 c 0,0 -21.48603,0.66456 -25.65333,0 -4.16729,-0.66457 -8.15969,1.32914 -8.15969,1.32914 0,0 -6.161,-1.16424 -8.49447,-0.16489 -2.33349,0.99934 -7.99481,2.99804 -7.99481,2.99804 a 12.991556,12.991556 0 0 0 -6.07605,0.33478 c -2.9181,0.99936 -4.58202,0 -4.58202,0 z"
     fill="#767d9f"
     id="path96"
     style="stroke-width:0.499675" />
  <g
     opacity="0.1"
     id="g106"
     transform="matrix(0,0.49967522,-0.49967522,0,941.07911,-118.78974)">
    <path
       d="M 732.51,139.23 A 84.66,84.66 0 0 0 731,157 a 85.07,85.07 0 0 1 1.55,-14.76 c 0.88,-4.44 2,-9.22 1.76,-13.65 a 83,83 0 0 1 -1.8,10.64 z"
       transform="translate(-57.92,-70.71)"
       id="path98" />
    <path
       d="m 626.82,180.51 c -1.07,-1 -2.35,-1.7 -3.45,-2.65 -2.92,-2.49 -4.15,-6.1 -4.39,-10 -0.29,5 0.73,9.84 4.39,13 1.1,0.95 2.38,1.67 3.45,2.65 a 12.22,12.22 0 0 1 3.62,8.35 c 0.29,-4.2 -0.56,-8.57 -3.62,-11.35 z"
       transform="translate(-57.92,-70.71)"
       id="path100" />
    <path
       d="m 623.63,143.17 a 18.85,18.85 0 0 0 -0.54,-6.29 c -0.58,-2.14 -1.62,-4.23 -2,-6.38 0,0.23 -0.08,0.47 -0.11,0.72 -0.29,3 1.33,5.77 2.11,8.66 a 17,17 0 0 1 0.54,3.29 z"
       transform="translate(-57.92,-70.71)"
       id="path102" />
    <path
       d="m 728.28,176.1 c -2.77,3 -7.18,3.74 -11.24,3.71 -4.06,-0.03 -8.17,-0.69 -12.16,0.11 -2.78,0.56 -5.61,1.81 -8.34,1 -3.77,-1.09 -5.28,-6 -8.89,-6.95 -4.11,-1.08 -7.24,4.55 -10,6.79 -6.75,5.4 -16.22,5.35 -24.85,5 -3.67,-0.17 -8.2,0.12 -9.78,3.44 a 4.64,4.64 0 0 0 -0.29,3.23 l -12.22,1.92 a 23.71,23.71 0 0 1 -0.33,3 l 12.55,-2 a 4.64,4.64 0 0 1 0.29,-3.23 c 1.58,-3.32 6.11,-3.61 9.78,-3.44 8.63,0.4 18.1,0.45 24.85,-5 2.8,-2.24 5.93,-7.87 10,-6.79 3.61,0.94 5.12,5.86 8.89,6.95 2.73,0.78 5.56,-0.47 8.34,-1 4,-0.8 8.1,-0.14 12.16,-0.11 4.06,0.03 8.47,-0.74 11.24,-3.71 2.77,-2.97 3.17,-7.4 3,-11.72 -0.12,3.35 -0.81,6.45 -3,8.8 z"
       transform="translate(-57.92,-70.71)"
       id="path104" />
  </g>
  <g
     opacity="0.1"
     id="g116"
     transform="matrix(0,0.49967522,-0.49967522,0,941.07911,-118.78974)">
    <path
       d="m 635.71,224.13 a 20.23,20.23 0 0 0 -3.69,-1.5 9.55,9.55 0 0 1 -4.83,-4.94 c 0.75,3.45 2.65,6.59 5.83,7.94 a 20.23,20.23 0 0 1 3.69,1.5 5.54,5.54 0 0 1 1.77,2.07 c -0.4,-1.96 -1.13,-3.96 -2.77,-5.07 z"
       transform="translate(-57.92,-70.71)"
       id="path108" />
    <path
       d="m 652.79,248.46 c -4.61,1.17 -10.63,1.78 -13.16,-2.13 a 6.87,6.87 0 0 0 0.8,2.69 c 2.16,3.85 7.44,3.72 11.93,2.77 z"
       transform="translate(-57.92,-70.71)"
       id="path110" />
    <path
       d="m 671.47,251.2 c 0.64,4.06 -2,8.11 -5.5,10.24 -3.5,2.13 -7.77,2.72 -11.89,3 a 4.08,4.08 0 0 1 -1.94,-0.22 2.38,2.38 0 0 0 2.94,3.22 c 4.12,-0.26 8.36,-0.83 11.89,-3 3.53,-2.17 6.17,-6.21 5.49,-10.28 a 11.34,11.34 0 0 0 -0.99,-2.96 z"
       transform="translate(-57.92,-70.71)"
       id="path112" />
    <path
       d="m 675.91,215 a 16.46,16.46 0 0 1 -3,14.15 c -2.36,2.86 -5.95,5.15 -6.46,8.82 a 8.33,8.33 0 0 0 1,4.87 6.5,6.5 0 0 1 0,-1.87 c 0.51,-3.67 4.1,-6 6.46,-8.82 3.88,-4.69 4.42,-11.6 2,-17.15 z"
       transform="translate(-57.92,-70.71)"
       id="path114" />
  </g>
  <g
     opacity="0.1"
     id="g122"
     transform="matrix(0,0.49967522,-0.49967522,0,941.07911,-118.78974)">
    <path
       d="m 555.8,648.81 c 3.4,-1.41 7.65,-1.46 10.18,-4 1.78,-1.78 2.21,-4.35 3.44,-6.48 2,-3.56 6.15,-5.71 10.33,-6.84 14,-3.8 45.92,4.32 54.24,16.09 a 21.85,21.85 0 0 1 3.82,12.08 22.58,22.58 0 0 0 -3.81,-14.07 c -8.32,-11.77 -40.21,-19.89 -54.24,-16.09 -4.18,1.13 -8.3,3.28 -10.33,6.84 -1.23,2.13 -1.66,4.7 -3.44,6.48 -2.53,2.53 -6.78,2.58 -10.18,4 -2.59,1.07 -4.51,4.23 -3.81,6.35 a 6.88,6.88 0 0 1 3.8,-4.36 z"
       transform="translate(-57.92,-70.71)"
       id="path118" />
    <path
       d="m 547,663.34 c 0.42,-3.2 3,-6.4 6.49,-6.58 a 2.66,2.66 0 0 1 -1.53,-1.71 7.77,7.77 0 0 0 -5,6.29 10.57,10.57 0 0 0 0,2.45 c 0.04,-0.15 0.04,-0.3 0.04,-0.45 z"
       transform="translate(-57.92,-70.71)"
       id="path120" />
  </g>
  <rect
     x="185.96716"
     y="-826.03394"
     width="45.470444"
     height="59.296459"
     fill="#ffffff"
     id="rect124"
     transform="rotate(90)"
     style="stroke-width:0.499675" />
  <rect
     x="185.96716"
     y="-826.03394"
     width="45.470444"
     height="59.296459"
     opacity="0.1"
     id="rect126"
     transform="rotate(90)"
     style="stroke-width:0.499675" />
  <rect
     x="339.17975"
     y="-768.47113"
     width="45.470444"
     height="59.296459"
     transform="rotate(80.24)"
     fill="#ffffff"
     id="rect128"
     style="stroke-width:0.499675" />
  <rect
     x="343.13013"
     y="-727.3692"
     width="10.683056"
     height="13.930944"
     transform="rotate(80.24)"
     fill="#dc5c01"
     id="rect130"
     style="stroke-width:0.499675" />
  <rect
     x="357.91357"
     y="-727.37183"
     width="10.683056"
     height="13.930944"
     transform="rotate(80.24)"
     fill="#dc5c01"
     id="rect132"
     style="stroke-width:0.499675" />
  <rect
     x="344.47684"
     y="-745.5592"
     width="37.463215"
     height="13.993494"
     transform="rotate(80.256359)"
     fill="#dc5c01"
     id="rect134"
     style="stroke-width:0.501919" />
  <rect
     x="344.22937"
     y="-762.30298"
     width="37.463215"
     height="3.1219344"
     transform="rotate(80.256359)"
     fill="#dc5c01"
     id="rect136"
     style="stroke-width:0.501919" />
  <rect
     x="344.46494"
     y="-756.51965"
     width="37.463215"
     height="3.1219344"
     transform="rotate(80.256359)"
     fill="#dc5c01"
     id="rect138"
     style="stroke-width:0.501919" />
  <path
     d="m 842.14342,211.53555 c 0,0 -20.98636,-20.90142 -26.31789,-10.40823 -5.33154,10.49317 17.73847,17.32374 17.73847,17.32374 l 5.24659,1.65892 z"
     fill="#ae6e79"
     id="path140"
     style="stroke-width:0.499675" />
  <path
     d="m 843.99722,209.70674 -5.7063,-2.58332 c 0,0 -1.78883,12.74172 -5.64132,15.40499 l 10.06844,-1.57898 4.29721,-1.87378 z"
     opacity="0.1"
     id="path142"
     style="stroke-width:0.499675" />
  <path
     d="m 844.49689,210.20642 -5.70629,-2.58332 c 0,0 -1.78884,12.74171 -5.64133,15.40498 l 10.06846,-1.57898 4.2972,-1.87378 z"
     fill="#4c4981"
     id="path144"
     style="stroke-width:0.499675" />
  <polygon
     points="813.91,403.34 812.78,403.26 812.23,403.64 812.99,403.98 813.81,403.91 "
     fill="#464a5f"
     id="polygon146"
     transform="matrix(0,0.49967522,-0.49967522,0,941.07911,-118.78974)" />
  <polygon
     points="813.91,403.34 812.78,403.26 812.23,403.64 812.99,403.98 813.81,403.91 "
     opacity="0.1"
     id="polygon148"
     transform="matrix(0,0.49967522,-0.49967522,0,941.07911,-118.78974)" />
  <polygon
     points="812.3,402.56 812.78,403.26 812.22,403.62 811.78,403.08 812.05,402.64 "
     fill="#9c9ca1"
     id="polygon150"
     transform="matrix(0,0.49967522,-0.49967522,0,941.07911,-118.78974)" />
  <polygon
     points="812.3,402.56 812.78,403.26 812.22,403.62 811.78,403.08 812.05,402.64 "
     opacity="0.1"
     id="polygon152"
     transform="matrix(0,0.49967522,-0.49967522,0,941.07911,-118.78974)" />
  <path
     d="m 774.11264,336.51931 29.5458,-20.4567 a 2.4334182,2.4334182 0 0 0 0.62459,-3.3878 l -31.29966,-45.60036 a 2.4434118,2.4434118 0 0 0 -3.39279,-0.63459 l -29.92056,20.40174 z"
     fill="#9c9ca1"
     id="path154"
     style="stroke-width:0.499675" />
  <path
     d="m 774.11264,336.51931 29.5458,-20.4567 a 2.4334182,2.4334182 0 0 0 0.62459,-3.3878 l -31.29966,-45.60036 a 2.4434118,2.4434118 0 0 0 -3.39279,-0.63459 l -29.92056,20.40174 z"
     opacity="0.1"
     id="path156"
     style="stroke-width:0.499675" />
  <path
     d="m 774.04269,337.01898 29.54579,-20.4567 a 2.4384151,2.4384151 0 0 0 0.62459,-3.39279 l -31.31964,-45.59536 a 2.4484085,2.4484085 0 0 0 -3.39279,-0.63959 l -29.93554,20.40174 z"
     fill="#9c9ca1"
     id="path158"
     style="stroke-width:0.499675" />
  <path
     d="m 768.20148,354.11787 5.45645,-16.98895 -34.4426,-49.6877 -5.64634,17.25877 a 2.6133014,2.6133014 0 0 0 0.34978,2.3135 l 33.35831,47.24429 a 0.49967522,0.49967522 0 0 0 0.9244,-0.13991 z"
     fill="#464a5f"
     id="path160"
     style="stroke-width:0.499675" />
  <path
     d="m 768.20148,354.11787 5.45645,-16.98895 -34.4426,-49.6877 -5.64634,17.25877 a 2.6133014,2.6133014 0 0 0 0.34978,2.3135 l 33.35831,47.24429 a 0.49967522,0.49967522 0 0 0 0.9244,-0.13991 z"
     opacity="0.1"
     id="path162"
     style="stroke-width:0.499675" />
  <path
     d="m 768.54625,354.01294 5.46146,-16.98895 -34.44261,-49.68771 -5.63634,17.25878 a 2.5933143,2.5933143 0 0 0 0.34478,2.3135 l 33.35831,47.2443 a 0.49967522,0.49967522 0 0 0 0.9144,-0.13992 z"
     fill="#464a5f"
     id="path164"
     style="stroke-width:0.499675" />
  <g
     opacity="0.1"
     id="g252"
     transform="matrix(0,0.49967522,-0.49967522,0,941.07911,-118.78974)">
    <path
       d="m 954.07,402.36 -2.51,-3.6 a 1,1 0 0 0 -1.36,-0.25 l -3.73,2.49 a 1,1 0 0 0 -0.27,1.35 l 2.31,3.55 a 1,1 0 0 0 1.35,0.29 l 3.93,-2.47 a 1,1 0 0 0 0.28,-1.36 z"
       transform="translate(-57.92,-70.71)"
       id="path166" />
    <path
       d="m 947.37,407 -2.52,-3.59 a 1,1 0 0 0 -1.36,-0.25 l -3.72,2.51 a 1,1 0 0 0 -0.28,1.35 l 2.31,3.55 a 1,1 0 0 0 1.35,0.3 l 3.94,-2.47 a 1,1 0 0 0 0.28,-1.4 z"
       transform="translate(-57.92,-70.71)"
       id="path168" />
    <path
       d="m 940.33,411.87 -2.52,-3.59 a 1,1 0 0 0 -1.36,-0.25 l -3.73,2.51 a 1,1 0 0 0 -0.27,1.36 l 2.31,3.55 a 1,1 0 0 0 1.35,0.29 l 3.93,-2.47 a 1,1 0 0 0 0.29,-1.4 z"
       transform="translate(-57.92,-70.71)"
       id="path170" />
    <path
       d="m 933.2,416.81 -2.52,-3.6 a 1,1 0 0 0 -1.35,-0.25 l -3.73,2.52 a 1,1 0 0 0 -0.27,1.35 l 2.31,3.55 a 1,1 0 0 0 1.34,0.3 l 3.94,-2.48 a 1,1 0 0 0 0.28,-1.39 z"
       transform="translate(-57.92,-70.71)"
       id="path172" />
    <path
       d="m 926.08,421.74 -2.52,-3.59 a 1,1 0 0 0 -1.36,-0.25 l -3.72,2.51 a 1,1 0 0 0 -0.28,1.35 l 2.31,3.55 a 1,1 0 0 0 1.35,0.3 l 3.94,-2.48 a 1,1 0 0 0 0.28,-1.39 z"
       transform="translate(-57.92,-70.71)"
       id="path174" />
    <path
       d="m 919.27,427.12 -3.13,-4.46 a 0.45,0.45 0 0 0 -0.63,-0.12 l -4.58,3.09 a 0.45,0.45 0 0 0 -0.13,0.63 l 2.87,4.41 a 0.46,0.46 0 0 0 0.63,0.14 l 4.84,-3 a 0.46,0.46 0 0 0 0.13,-0.69 z"
       transform="translate(-57.92,-70.71)"
       id="path176" />
    <path
       d="M 912.15,432.05 909,427.59 a 0.46,0.46 0 0 0 -0.64,-0.12 l -4.58,3.09 a 0.46,0.46 0 0 0 -0.12,0.63 l 2.87,4.41 a 0.44,0.44 0 0 0 0.63,0.14 l 4.83,-3 a 0.45,0.45 0 0 0 0.16,-0.69 z"
       transform="translate(-57.92,-70.71)"
       id="path178" />
    <path
       d="M 905.84,436.42 902.71,432 a 0.46,0.46 0 0 0 -0.63,-0.11 l -4.58,3.08 a 0.47,0.47 0 0 0 -0.13,0.64 l 2.87,4.41 a 0.47,0.47 0 0 0 0.63,0.14 l 4.84,-3 a 0.46,0.46 0 0 0 0.13,-0.74 z"
       transform="translate(-57.92,-70.71)"
       id="path180" />
    <path
       d="m 898.78,441.3 -3.13,-4.46 a 0.46,0.46 0 0 0 -0.63,-0.11 l -4.58,3.08 a 0.46,0.46 0 0 0 -0.13,0.64 l 2.87,4.41 a 0.47,0.47 0 0 0 0.63,0.14 l 4.84,-3 a 0.47,0.47 0 0 0 0.13,-0.7 z"
       transform="translate(-57.92,-70.71)"
       id="path182" />
    <path
       d="m 891.94,446 -3.13,-4.46 a 0.45,0.45 0 0 0 -0.63,-0.12 l -4.58,3.09 a 0.45,0.45 0 0 0 -0.13,0.63 l 2.87,4.41 a 0.46,0.46 0 0 0 0.63,0.14 l 4.84,-3 a 0.46,0.46 0 0 0 0.13,-0.69 z"
       transform="translate(-57.92,-70.71)"
       id="path184" />
    <path
       d="m 885.1,450.78 -3.1,-4.47 a 0.46,0.46 0 0 0 -0.63,-0.11 l -4.58,3.08 a 0.46,0.46 0 0 0 -0.13,0.64 l 2.87,4.41 a 0.47,0.47 0 0 0 0.63,0.14 l 4.84,-3 a 0.46,0.46 0 0 0 0.1,-0.69 z"
       transform="translate(-57.92,-70.71)"
       id="path186" />
    <path
       d="m 878.26,455.51 -3.13,-4.46 a 0.45,0.45 0 0 0 -0.63,-0.12 l -4.58,3.07 a 0.45,0.45 0 0 0 -0.13,0.63 l 2.87,4.41 a 0.46,0.46 0 0 0 0.63,0.14 l 4.84,-3 a 0.46,0.46 0 0 0 0.13,-0.67 z"
       transform="translate(-57.92,-70.71)"
       id="path188" />
    <path
       d="m 949.57,395.85 -2.52,-3.6 A 1,1 0 0 0 945.69,392 l -3.69,2.52 a 1,1 0 0 0 -0.28,1.35 l 2.31,3.55 a 1,1 0 0 0 1.35,0.29 l 3.94,-2.47 a 1,1 0 0 0 0.25,-1.39 z"
       transform="translate(-57.92,-70.71)"
       id="path190" />
    <path
       d="M 939.72,381.62 937.2,378 a 1,1 0 0 0 -1.35,-0.25 l -3.73,2.51 a 1,1 0 0 0 -0.28,1.35 l 2.31,3.55 a 1,1 0 0 0 1.35,0.3 l 3.94,-2.47 a 1,1 0 0 0 0.28,-1.37 z"
       transform="translate(-57.92,-70.71)"
       id="path192" />
    <path
       d="m 942.86,400.49 -2.52,-3.59 a 1,1 0 0 0 -1.35,-0.25 l -3.73,2.51 a 1,1 0 0 0 -0.27,1.35 l 2.3,3.55 a 1,1 0 0 0 1.35,0.3 l 3.94,-2.47 a 1,1 0 0 0 0.28,-1.4 z"
       transform="translate(-57.92,-70.71)"
       id="path194" />
    <path
       d="m 935.82,405.36 -2.52,-3.59 a 1,1 0 0 0 -1.36,-0.25 l -3.72,2.48 a 1,1 0 0 0 -0.28,1.36 l 2.31,3.55 a 1,1 0 0 0 1.35,0.29 l 3.94,-2.47 a 1,1 0 0 0 0.28,-1.37 z"
       transform="translate(-57.92,-70.71)"
       id="path196" />
    <path
       d="m 928.69,410.3 -2.51,-3.6 a 1,1 0 0 0 -1.36,-0.25 l -3.73,2.55 a 1,1 0 0 0 -0.27,1.35 l 2.31,3.55 a 1,1 0 0 0 1.35,0.29 l 3.93,-2.47 a 1,1 0 0 0 0.28,-1.42 z"
       transform="translate(-57.92,-70.71)"
       id="path198" />
    <path
       d="m 933.17,386.49 -2.52,-3.59 a 1,1 0 0 0 -1.35,-0.25 l -3.73,2.51 a 1,1 0 0 0 -0.28,1.35 l 2.31,3.55 a 1,1 0 0 0 1.35,0.3 l 3.94,-2.47 a 1,1 0 0 0 0.28,-1.4 z"
       transform="translate(-57.92,-70.71)"
       id="path200" />
    <path
       d="m 926.13,391.37 -2.52,-3.6 a 1,1 0 0 0 -1.36,-0.25 l -3.72,2.48 a 1,1 0 0 0 -0.28,1.35 l 2.31,3.55 a 1,1 0 0 0 1.35,0.29 l 3.94,-2.47 a 1,1 0 0 0 0.28,-1.35 z"
       transform="translate(-57.92,-70.71)"
       id="path202" />
    <path
       d="m 919,396.3 -2.52,-3.59 a 1,1 0 0 0 -1.35,-0.26 L 911.4,395 a 1,1 0 0 0 -0.27,1.35 l 2.31,3.55 a 1,1 0 0 0 1.35,0.3 l 3.93,-2.48 A 1,1 0 0 0 919,396.3 Z"
       transform="translate(-57.92,-70.71)"
       id="path204" />
    <path
       d="m 921.57,415.23 -2.52,-3.59 a 1,1 0 0 0 -1.35,-0.26 l -3.7,2.52 a 1,1 0 0 0 -0.27,1.35 l 2.27,3.55 a 1,1 0 0 0 1.34,0.3 l 3.94,-2.48 a 1,1 0 0 0 0.29,-1.39 z"
       transform="translate(-57.92,-70.71)"
       id="path206" />
    <path
       d="m 914.45,420.16 -2.52,-3.59 a 1,1 0 0 0 -1.36,-0.25 l -3.72,2.51 a 1,1 0 0 0 -0.28,1.35 l 2.31,3.55 a 1,1 0 0 0 1.35,0.3 l 3.94,-2.47 a 1,1 0 0 0 0.28,-1.4 z"
       transform="translate(-57.92,-70.71)"
       id="path208" />
    <path
       d="m 907.64,425.54 -3.13,-4.46 a 0.45,0.45 0 0 0 -0.63,-0.12 l -4.58,3.09 a 0.45,0.45 0 0 0 -0.13,0.63 l 2.87,4.41 a 0.45,0.45 0 0 0 0.63,0.14 l 4.84,-3 a 0.46,0.46 0 0 0 0.13,-0.69 z"
       transform="translate(-57.92,-70.71)"
       id="path210" />
    <path
       d="m 901.33,429.91 -3.13,-4.47 a 0.46,0.46 0 0 0 -0.63,-0.11 l -4.57,3.08 a 0.47,0.47 0 0 0 -0.13,0.64 l 2.87,4.41 a 0.47,0.47 0 0 0 0.63,0.14 l 4.84,-3 a 0.44,0.44 0 0 0 0.12,-0.69 z"
       transform="translate(-57.92,-70.71)"
       id="path212" />
    <path
       d="m 894.27,434.79 -3.13,-4.46 a 0.46,0.46 0 0 0 -0.63,-0.11 l -4.58,3.08 a 0.45,0.45 0 0 0 -0.13,0.63 l 2.87,4.42 a 0.47,0.47 0 0 0 0.63,0.14 l 4.84,-3 a 0.47,0.47 0 0 0 0.13,-0.7 z"
       transform="translate(-57.92,-70.71)"
       id="path214" />
    <path
       d="m 887.43,439.53 -3.13,-4.46 a 0.45,0.45 0 0 0 -0.63,-0.12 l -4.58,3.05 a 0.45,0.45 0 0 0 -0.13,0.63 l 2.87,4.41 a 0.46,0.46 0 0 0 0.63,0.14 l 4.84,-3 a 0.46,0.46 0 0 0 0.13,-0.65 z"
       transform="translate(-57.92,-70.71)"
       id="path216" />
    <path
       d="M 931.13,398.59 928.61,395 a 1,1 0 0 0 -1.35,-0.25 l -3.73,2.52 a 1,1 0 0 0 -0.27,1.35 l 2.31,3.55 a 1,1 0 0 0 1.34,0.29 l 3.94,-2.47 a 1,1 0 0 0 0.28,-1.4 z"
       transform="translate(-57.92,-70.71)"
       id="path218" />
    <path
       d="m 924,403.53 -2.52,-3.6 a 1,1 0 0 0 -1.36,-0.25 l -3.72,2.52 a 1,1 0 0 0 -0.28,1.35 l 2.31,3.55 a 1,1 0 0 0 1.35,0.3 l 3.94,-2.48 a 1,1 0 0 0 0.28,-1.39 z"
       transform="translate(-57.92,-70.71)"
       id="path220" />
    <path
       d="m 916.89,408.46 -2.52,-3.59 a 1,1 0 0 0 -1.36,-0.25 l -3.73,2.51 a 1,1 0 0 0 -0.27,1.35 l 2.31,3.55 a 1,1 0 0 0 1.35,0.3 l 3.93,-2.48 a 1,1 0 0 0 0.29,-1.39 z"
       transform="translate(-57.92,-70.71)"
       id="path222" />
    <path
       d="m 909.76,413.39 -2.52,-3.59 a 1,1 0 0 0 -1.35,-0.25 l -3.73,2.51 a 1,1 0 0 0 -0.27,1.35 l 2.31,3.59 a 1,1 0 0 0 1.34,0.3 l 3.94,-2.47 a 1,1 0 0 0 0.28,-1.44 z"
       transform="translate(-57.92,-70.71)"
       id="path224" />
    <path
       d="m 903,418.77 -3.13,-4.46 a 0.45,0.45 0 0 0 -0.63,-0.12 l -4.58,3.09 a 0.46,0.46 0 0 0 -0.13,0.63 l 2.87,4.42 a 0.45,0.45 0 0 0 0.63,0.13 l 4.84,-3 a 0.46,0.46 0 0 0 0.13,-0.69 z"
       transform="translate(-57.92,-70.71)"
       id="path226" />
    <path
       d="m 896.65,423.14 -3.13,-4.47 a 0.47,0.47 0 0 0 -0.64,-0.11 l -4.57,3.08 a 0.47,0.47 0 0 0 -0.13,0.64 l 2.87,4.41 a 0.46,0.46 0 0 0 0.63,0.14 l 4.84,-3 a 0.46,0.46 0 0 0 0.13,-0.69 z"
       transform="translate(-57.92,-70.71)"
       id="path228" />
    <path
       d="m 889.59,428 -3.13,-4.47 a 0.47,0.47 0 0 0 -0.64,-0.11 l -4.58,3.08 a 0.48,0.48 0 0 0 -0.13,0.64 l 2.88,4.41 a 0.46,0.46 0 0 0 0.63,0.14 l 4.83,-3 a 0.45,0.45 0 0 0 0.14,-0.69 z"
       transform="translate(-57.92,-70.71)"
       id="path230" />
    <path
       d="m 882.75,432.76 -3.13,-4.46 a 0.46,0.46 0 0 0 -0.64,-0.12 l -4.58,3.09 a 0.46,0.46 0 0 0 -0.12,0.63 l 2.87,4.41 a 0.44,0.44 0 0 0 0.63,0.14 l 4.83,-3 a 0.45,0.45 0 0 0 0.14,-0.69 z"
       transform="translate(-57.92,-70.71)"
       id="path232" />
    <path
       d="m 880.59,444.26 -3.13,-4.46 a 0.46,0.46 0 0 0 -0.63,-0.11 l -4.58,3.08 a 0.45,0.45 0 0 0 -0.13,0.63 l 2.87,4.42 a 0.47,0.47 0 0 0 0.63,0.14 l 4.84,-3 a 0.47,0.47 0 0 0 0.13,-0.7 z"
       transform="translate(-57.92,-70.71)"
       id="path234" />
    <path
       d="m 873.75,449 -3.13,-4.46 a 0.45,0.45 0 0 0 -0.63,-0.12 l -4.58,3.09 a 0.45,0.45 0 0 0 -0.13,0.63 l 2.87,4.41 a 0.46,0.46 0 0 0 0.63,0.14 l 4.84,-3 a 0.46,0.46 0 0 0 0.13,-0.69 z"
       transform="translate(-57.92,-70.71)"
       id="path236" />
    <path
       d="m 884.49,420.66 -3,-4.2 a 0.62,0.62 0 0 0 -0.85,-0.15 l -4.32,2.91 a 0.61,0.61 0 0 0 -0.17,0.85 l 2.7,4.15 a 0.6,0.6 0 0 0 0.84,0.19 l 4.57,-2.87 a 0.62,0.62 0 0 0 0.23,-0.88 z"
       transform="translate(-57.92,-70.71)"
       id="path238" />
    <path
       d="m 877.65,425.4 -2.95,-4.2 a 0.61,0.61 0 0 0 -0.85,-0.16 l -4.32,2.96 a 0.6,0.6 0 0 0 -0.17,0.84 l 2.7,4.16 a 0.62,0.62 0 0 0 0.84,0.19 l 4.57,-2.87 a 0.62,0.62 0 0 0 0.18,-0.92 z"
       transform="translate(-57.92,-70.71)"
       id="path240" />
    <path
       d="m 870.81,430.14 -2.95,-4.21 a 0.62,0.62 0 0 0 -0.85,-0.15 l -4.32,2.91 a 0.61,0.61 0 0 0 -0.17,0.85 l 2.7,4.15 a 0.6,0.6 0 0 0 0.84,0.19 l 4.57,-2.87 a 0.61,0.61 0 0 0 0.18,-0.87 z"
       transform="translate(-57.92,-70.71)"
       id="path242" />
    <path
       d="m 864.06,435 -3.13,-4.47 a 0.46,0.46 0 0 0 -0.63,-0.11 l -4.58,3.08 a 0.47,0.47 0 0 0 -0.13,0.64 l 2.87,4.41 a 0.47,0.47 0 0 0 0.63,0.14 l 4.84,-3 a 0.44,0.44 0 0 0 0.13,-0.69 z"
       transform="translate(-57.92,-70.71)"
       id="path244" />
    <path
       d="M 945,388.85 942.29,385 a 1,1 0 0 0 -1.36,-0.24 l -10.58,7.41 a 1,1 0 0 0 -0.26,1.34 l 2.55,3.94 a 1,1 0 0 0 1.39,0.27 l 10.74,-7.51 a 1,1 0 0 0 0.23,-1.36 z"
       transform="translate(-57.92,-70.71)"
       id="path246" />
    <path
       d="m 875.89,437.35 -3.32,-4.69 a 0.45,0.45 0 0 0 -0.64,-0.11 l -11.42,8 a 0.45,0.45 0 0 0 -0.12,0.62 l 3.12,4.83 a 0.46,0.46 0 0 0 0.65,0.13 L 875.77,438 a 0.47,0.47 0 0 0 0.12,-0.65 z"
       transform="translate(-57.92,-70.71)"
       id="path248" />
    <path
       d="M 912.22,401.48 909.16,397 a 0.46,0.46 0 0 0 -0.63,-0.12 L 883.17,414 a 0.46,0.46 0 0 0 -0.13,0.63 l 3.13,4.8 a 0.46,0.46 0 0 0 0.65,0.13 l 25.28,-17.44 a 0.46,0.46 0 0 0 0.12,-0.64 z"
       transform="translate(-57.92,-70.71)"
       id="path250" />
  </g>
  <path
     d="m 775.30187,329.32898 1.79883,-1.25918 a 0.49967522,0.49967522 0 0 0 0.12492,-0.67955 l -1.25918,-1.85879 a 0.49967522,0.49967522 0 0 0 -0.67456,-0.13992 l -1.77385,1.15425 a 0.49967522,0.49967522 0 0 0 -0.14991,0.67457 l 1.2392,1.96872 a 0.49967522,0.49967522 0 0 0 0.69455,0.1399 z"
     fill="#464a5f"
     id="path254"
     style="stroke-width:0.499675" />
  <path
     d="m 772.98337,325.96117 1.79384,-1.25918 a 0.49967522,0.49967522 0 0 0 0.12492,-0.67456 l -1.25419,-1.86379 a 0.49967522,0.49967522 0 0 0 -0.67456,-0.13991 l -1.77385,1.15425 a 0.49967522,0.49967522 0 0 0 -0.1499,0.67457 l 1.2342,1.96872 a 0.49967522,0.49967522 0 0 0 0.69954,0.1399 z"
     fill="#464a5f"
     id="path256"
     style="stroke-width:0.499675" />
  <path
     d="m 770.54496,322.46345 1.79383,-1.25918 a 0.49967522,0.49967522 0 0 0 0.12492,-0.67956 l -1.25918,-1.85879 a 0.49967522,0.49967522 0 0 0 -0.67455,-0.13991 l -1.77385,1.15425 a 0.49967522,0.49967522 0 0 0 -0.14492,0.67456 l 1.2342,1.96872 a 0.49967522,0.49967522 0 0 0 0.69955,0.13991 z"
     fill="#464a5f"
     id="path258"
     style="stroke-width:0.499675" />
  <path
     d="m 768.08156,318.89576 1.79883,-1.25917 a 0.49967522,0.49967522 0 0 0 0.12492,-0.67457 l -1.25918,-1.86379 a 0.49967522,0.49967522 0 0 0 -0.69954,-0.12991 l -1.77385,1.15425 a 0.49967522,0.49967522 0 0 0 -0.14991,0.67456 l 1.2392,1.96373 a 0.49967522,0.49967522 0 0 0 0.71953,0.1349 z"
     fill="#464a5f"
     id="path260"
     style="stroke-width:0.499675" />
  <path
     d="m 765.61816,315.33808 1.79384,-1.25918 a 0.49967522,0.49967522 0 0 0 0.12491,-0.67456 l -1.25418,-1.86379 a 0.49967522,0.49967522 0 0 0 -0.67457,-0.13492 l -1.77384,1.14926 a 0.49967522,0.49967522 0 0 0 -0.1499,0.67455 l 1.23919,1.96873 a 0.49967522,0.49967522 0 0 0 0.69455,0.13991 z"
     fill="#464a5f"
     id="path262"
     style="stroke-width:0.499675" />
  <path
     d="m 762.92991,311.93529 2.22855,-1.56398 a 0.22485385,0.22485385 0 0 0 0.06,-0.3148 l -1.544,-2.28851 a 0.22485385,0.22485385 0 0 0 -0.3148,-0.065 l -2.20357,1.43407 a 0.2298506,0.2298506 0 0 0 -0.07,0.31479 l 1.49903,2.41843 a 0.2298506,0.2298506 0 0 0 0.34477,0.065 z"
     fill="#464a5f"
     id="path264"
     style="stroke-width:0.499675" />
  <path
     d="m 760.46651,308.3776 2.22855,-1.56398 a 0.2298506,0.2298506 0 0 0 0.06,-0.31979 l -1.54399,-2.28351 a 0.22485385,0.22485385 0 0 0 -0.31479,-0.065 l -2.20857,1.43406 a 0.22485385,0.22485385 0 0 0 -0.0649,0.31479 l 1.49903,2.41844 a 0.23484735,0.23484735 0 0 0 0.34477,0.065 z"
     fill="#464a5f"
     id="path266"
     style="stroke-width:0.499675" />
  <path
     d="m 758.28293,305.22465 2.23355,-1.56398 a 0.2298506,0.2298506 0 0 0 0.055,-0.3148 l -1.51902,-2.28851 a 0.23484735,0.23484735 0 0 0 -0.31978,-0.065 l -2.20357,1.43406 a 0.23484735,0.23484735 0 0 0 -0.07,0.3148 l 1.49903,2.41844 a 0.2298506,0.2298506 0 0 0 0.32479,0.065 z"
     fill="#464a5f"
     id="path268"
     style="stroke-width:0.499675" />
  <path
     d="m 755.83952,301.69695 2.21356,-1.56398 a 0.2298506,0.2298506 0 0 0 0.055,-0.3148 l -1.539,-2.28851 a 0.2298506,0.2298506 0 0 0 -0.31979,-0.065 l -2.20357,1.43407 a 0.23484735,0.23484735 0 0 0 -0.07,0.3148 l 1.49903,2.41842 a 0.2298506,0.2298506 0 0 0 0.36476,0.065 z"
     fill="#464a5f"
     id="path270"
     style="stroke-width:0.499675" />
  <path
     d="m 753.47605,298.27917 2.22856,-1.56398 a 0.22485385,0.22485385 0 0 0 0.06,-0.3148 l -1.54399,-2.28852 a 0.22485385,0.22485385 0 0 0 -0.3148,-0.065 l -2.20356,1.43406 a 0.22485385,0.22485385 0 0 0 -0.07,0.3148 l 1.49904,2.41842 a 0.2298506,0.2298506 0 0 0 0.34476,0.065 z"
     fill="#464a5f"
     id="path272"
     style="stroke-width:0.499675" />
  <path
     d="m 751.10759,294.86139 2.23355,-1.56398 a 0.2298506,0.2298506 0 0 0 0.055,-0.3148 l -1.53899,-2.28851 a 0.23484735,0.23484735 0 0 0 -0.3198,-0.065 l -2.20356,1.43407 a 0.23484735,0.23484735 0 0 0 -0.07,0.3148 l 1.49903,2.41843 a 0.2298506,0.2298506 0 0 0 0.34477,0.065 z"
     fill="#464a5f"
     id="path274"
     style="stroke-width:0.499675" />
  <path
     d="m 748.74413,291.44361 2.22855,-1.56398 a 0.22485385,0.22485385 0 0 0 0.06,-0.31479 l -1.54399,-2.28852 a 0.22485385,0.22485385 0 0 0 -0.3148,-0.065 l -2.20357,1.43407 a 0.22485385,0.22485385 0 0 0 -0.07,0.3148 l 1.49903,2.41842 a 0.2298506,0.2298506 0 0 0 0.34477,0.065 z"
     fill="#464a5f"
     id="path276"
     style="stroke-width:0.499675" />
  <path
     d="m 778.53976,327.07546 1.79884,-1.25919 a 0.49967522,0.49967522 0 0 0 0.12492,-0.67456 l -1.25919,-1.86379 a 0.49967522,0.49967522 0 0 0 -0.67456,-0.13491 l -1.77385,1.14925 a 0.49967522,0.49967522 0 0 0 -0.1499,0.67456 l 1.23919,1.96872 a 0.49967522,0.49967522 0 0 0 0.69455,0.13992 z"
     fill="#464a5f"
     id="path278"
     style="stroke-width:0.499675" />
  <path
     d="m 785.66513,322.15365 1.79383,-1.25918 a 0.49967522,0.49967522 0 0 0 0.12492,-0.67456 l -1.25418,-1.86379 a 0.49967522,0.49967522 0 0 0 -0.67456,-0.13491 l -1.77385,1.15424 a 0.49967522,0.49967522 0 0 0 -0.14991,0.66957 l 1.23421,1.96872 a 0.49967522,0.49967522 0 0 0 0.69954,0.13991 z"
     fill="#464a5f"
     id="path280"
     style="stroke-width:0.499675" />
  <path
     d="m 776.23626,323.72263 1.80382,-1.25918 a 0.49967522,0.49967522 0 0 0 0.12493,-0.67456 l -1.25419,-1.86379 a 0.49967522,0.49967522 0 0 0 -0.67456,-0.13492 l -1.77385,1.15426 a 0.49967522,0.49967522 0 0 0 -0.1499,0.66955 l 1.23419,1.96873 a 0.49967522,0.49967522 0 0 0 0.68956,0.13991 z"
     fill="#464a5f"
     id="path282"
     style="stroke-width:0.499675" />
  <path
     d="m 773.80284,320.20491 1.79383,-1.23919 a 0.49967522,0.49967522 0 0 0 0.12492,-0.67456 l -1.25418,-1.8638 a 0.49967522,0.49967522 0 0 0 -0.67956,-0.1349 l -1.77385,1.14925 a 0.49967522,0.49967522 0 0 0 -0.14491,0.67456 l 1.23421,1.96873 a 0.49967522,0.49967522 0 0 0 0.69954,0.11991 z"
     fill="#464a5f"
     id="path284"
     style="stroke-width:0.499675" />
  <path
     d="m 771.33445,316.64722 1.79883,-1.25918 a 0.49967522,0.49967522 0 0 0 0.12492,-0.67954 l -1.25919,-1.85881 a 0.49967522,0.49967522 0 0 0 -0.67456,-0.1399 l -1.77384,1.15424 a 0.49967522,0.49967522 0 0 0 -0.14991,0.67456 l 1.2392,1.96873 a 0.49967522,0.49967522 0 0 0 0.69455,0.1399 z"
     fill="#464a5f"
     id="path286"
     style="stroke-width:0.499675" />
  <path
     d="m 783.23172,318.88078 1.80382,-1.25918 a 0.49967522,0.49967522 0 0 0 0.12492,-0.67456 l -1.25418,-1.86379 a 0.49967522,0.49967522 0 0 0 -0.67456,-0.13492 l -1.77386,1.15425 a 0.49967522,0.49967522 0 0 0 -0.14989,0.66956 l 1.23419,1.96872 a 0.49967522,0.49967522 0 0 0 0.68956,0.13992 z"
     fill="#464a5f"
     id="path288"
     style="stroke-width:0.499675" />
  <path
     d="m 780.7933,315.36306 1.79883,-1.25918 a 0.49967522,0.49967522 0 0 0 0.12492,-0.67456 l -1.25919,-1.86379 a 0.49967522,0.49967522 0 0 0 -0.67456,-0.1399 l -1.77384,1.15424 a 0.49967522,0.49967522 0 0 0 -0.1499,0.67457 l 1.23919,1.96871 a 0.49967522,0.49967522 0 0 0 0.69455,0.13991 z"
     fill="#464a5f"
     id="path290"
     style="stroke-width:0.499675" />
  <path
     d="m 778.3299,311.80537 1.79383,-1.25918 a 0.49967522,0.49967522 0 0 0 0.12492,-0.67955 l -1.25418,-1.85879 a 0.49967522,0.49967522 0 0 0 -0.67457,-0.13991 l -1.77884,1.15424 a 0.49967522,0.49967522 0 0 0 -0.1499,0.67456 l 1.2392,1.96373 a 0.49967522,0.49967522 0 0 0 0.69954,0.1449 z"
     fill="#464a5f"
     id="path292"
     style="stroke-width:0.499675" />
  <path
     d="m 768.87104,313.08454 1.79384,-1.25917 a 0.49967522,0.49967522 0 0 0 0.12492,-0.67457 l -1.24418,-1.86379 a 0.49967522,0.49967522 0 0 0 -0.67458,-0.13491 l -1.77384,1.15425 a 0.49967522,0.49967522 0 0 0 -0.1499,0.66957 l 1.23919,1.96871 a 0.49967522,0.49967522 0 0 0 0.68455,0.13991 z"
     fill="#464a5f"
     id="path294"
     style="stroke-width:0.499675" />
  <path
     d="m 766.40765,309.52686 1.79383,-1.25918 a 0.49967522,0.49967522 0 0 0 0.12492,-0.67457 l -1.27917,-1.86378 a 0.49967522,0.49967522 0 0 0 -0.67456,-0.13991 l -1.77385,1.15425 a 0.49967522,0.49967522 0 0 0 -0.14989,0.67456 l 1.23419,1.96872 a 0.49967522,0.49967522 0 0 0 0.72453,0.13991 z"
     fill="#464a5f"
     id="path296"
     style="stroke-width:0.499675" />
  <path
     d="m 763.7194,306.12407 2.22855,-1.56398 a 0.22485385,0.22485385 0 0 0 0.0599,-0.31479 l -1.544,-2.26854 a 0.22485385,0.22485385 0 0 0 -0.3148,-0.065 l -2.20356,1.43406 a 0.22485385,0.22485385 0 0 0 -0.07,0.31481 l 1.49903,2.41843 a 0.23484735,0.23484735 0 0 0 0.34477,0.0449 z"
     fill="#464a5f"
     id="path298"
     style="stroke-width:0.499675" />
  <path
     d="m 761.55081,302.97612 2.23354,-1.56399 a 0.23484735,0.23484735 0 0 0 0.055,-0.31979 l -1.53899,-2.28851 a 0.2398441,0.2398441 0 0 0 -0.31979,-0.065 l -2.20357,1.43907 a 0.2298506,0.2298506 0 0 0 -0.07,0.31479 l 1.49902,2.41343 a 0.22485385,0.22485385 0 0 0 0.34479,0.07 z"
     fill="#464a5f"
     id="path300"
     style="stroke-width:0.499675" />
  <path
     d="m 759.09241,299.44341 2.23354,-1.56398 a 0.2298506,0.2298506 0 0 0 0.055,-0.3148 l -1.539,-2.28851 a 0.23484735,0.23484735 0 0 0 -0.3198,-0.065 l -2.20357,1.43406 a 0.23484735,0.23484735 0 0 0 -0.07,0.3148 l 1.49902,2.41843 a 0.2198571,0.2198571 0 0 0 0.34478,0.065 z"
     fill="#464a5f"
     id="path302"
     style="stroke-width:0.499675" />
  <path
     d="m 756.72894,296.03063 2.22855,-1.549 a 0.22485385,0.22485385 0 0 0 0.06,-0.31479 l -1.54401,-2.2885 a 0.2298506,0.2298506 0 0 0 -0.31479,-0.065 l -2.20356,1.43406 a 0.2298506,0.2298506 0 0 0 -0.07,0.31479 l 1.49903,2.41843 a 0.22485385,0.22485385 0 0 0 0.34477,0.05 z"
     fill="#464a5f"
     id="path304"
     style="stroke-width:0.499675" />
  <path
     d="m 777.18065,317.86144 1.79882,-1.25419 a 0.49967522,0.49967522 0 0 0 0.12493,-0.67955 l -1.25919,-1.86379 a 0.49967522,0.49967522 0 0 0 -0.67455,-0.13492 l -1.77385,1.15426 a 0.49967522,0.49967522 0 0 0 -0.14491,0.67456 l 1.23419,1.96372 a 0.49967522,0.49967522 0 0 0 0.69456,0.13991 z"
     fill="#464a5f"
     id="path306"
     style="stroke-width:0.499675" />
  <path
     d="m 774.71724,314.30375 1.79385,-1.25918 a 0.49967522,0.49967522 0 0 0 0.1299,-0.67456 l -1.25917,-1.86378 a 0.49967522,0.49967522 0 0 0 -0.67456,-0.13492 l -1.77385,1.15425 a 0.49967522,0.49967522 0 0 0 -0.14991,0.66956 l 1.2392,1.96872 a 0.49967522,0.49967522 0 0 0 0.69454,0.13991 z"
     fill="#464a5f"
     id="path308"
     style="stroke-width:0.499675" />
  <path
     d="m 772.25385,310.74606 1.78884,-1.27417 a 0.49967522,0.49967522 0 0 0 0.12492,-0.67956 l -1.2492,-1.81881 a 0.49967522,0.49967522 0 0 0 -0.67456,-0.13991 l -1.77384,1.15425 a 0.49967522,0.49967522 0 0 0 -0.14991,0.67456 l 1.2342,1.96872 a 0.49967522,0.49967522 0 0 0 0.69955,0.11492 z"
     fill="#464a5f"
     id="path310"
     style="stroke-width:0.499675" />
  <path
     d="m 769.79045,307.18338 1.79383,-1.25918 a 0.49967522,0.49967522 0 0 0 0.12492,-0.67456 l -1.25418,-1.86379 a 0.49967522,0.49967522 0 0 0 -0.67456,-0.13491 l -1.77385,1.15424 a 0.49967522,0.49967522 0 0 0 -0.1499,0.66957 l 1.23419,1.96872 a 0.49967522,0.49967522 0 0 0 0.69955,0.13991 z"
     fill="#464a5f"
     id="path312"
     style="stroke-width:0.499675" />
  <path
     d="m 767.1022,303.78559 2.22855,-1.56399 a 0.2298506,0.2298506 0 0 0 0.06,-0.31978 l -1.544,-2.28852 a 0.2298506,0.2298506 0 0 0 -0.31479,-0.065 l -2.20857,1.43407 a 0.2298506,0.2298506 0 0 0 -0.065,0.31978 l 1.49903,2.41343 a 0.2298506,0.2298506 0 0 0 0.34478,0.07 z"
     fill="#464a5f"
     id="path314"
     style="stroke-width:0.499675" />
  <path
     d="m 764.91862,300.63264 2.22855,-1.56398 a 0.22485385,0.22485385 0 0 0 0.06,-0.3148 l -1.53901,-2.27353 a 0.23484735,0.23484735 0 0 0 -0.3198,-0.065 l -2.20356,1.43408 a 0.23484735,0.23484735 0 0 0 -0.07,0.31479 l 1.49903,2.41842 a 0.2298506,0.2298506 0 0 0 0.34478,0.0499 z"
     fill="#464a5f"
     id="path316"
     style="stroke-width:0.499675" />
  <path
     d="m 762.4752,297.10493 2.23356,-1.56398 a 0.23484735,0.23484735 0 0 0 0.0549,-0.31979 l -1.539,-2.28352 a 0.23484735,0.23484735 0 0 0 -0.31979,-0.065 l -2.20357,1.43407 a 0.2298506,0.2298506 0 0 0 -0.07,0.31479 l 1.49902,2.41842 a 0.2298506,0.2298506 0 0 0 0.34477,0.065 z"
     fill="#464a5f"
     id="path318"
     style="stroke-width:0.499675" />
  <path
     d="m 760.11174,293.68715 2.22856,-1.56398 a 0.2298506,0.2298506 0 0 0 0.06,-0.31979 l -1.544,-2.28352 a 0.22485385,0.22485385 0 0 0 -0.3148,-0.065 l -2.20855,1.43406 a 0.22485385,0.22485385 0 0 0 -0.065,0.3148 l 1.49903,2.41843 a 0.23484735,0.23484735 0 0 0 0.34477,0.065 z"
     fill="#464a5f"
     id="path320"
     style="stroke-width:0.499675" />
  <path
     d="m 754.36048,292.61285 2.23354,-1.56398 a 0.23484735,0.23484735 0 0 0 0.055,-0.31979 l -1.53899,-2.28852 a 0.23484735,0.23484735 0 0 0 -0.31979,-0.065 l -2.20357,1.43408 a 0.23484735,0.23484735 0 0 0 -0.07,0.31479 l 1.49903,2.41843 a 0.22485385,0.22485385 0 0 0 0.34478,0.07 z"
     fill="#464a5f"
     id="path322"
     style="stroke-width:0.499675" />
  <path
     d="m 751.99702,289.19507 2.22854,-1.56398 a 0.2298506,0.2298506 0 0 0 0.06,-0.31979 l -1.544,-2.28852 a 0.2298506,0.2298506 0 0 0 -0.31479,-0.065 l -2.20357,1.43407 a 0.2298506,0.2298506 0 0 0 -0.07,0.31979 l 1.49902,2.41343 a 0.22485385,0.22485385 0 0 0 0.34479,0.07 z"
     fill="#464a5f"
     id="path324"
     style="stroke-width:0.499675" />
  <path
     d="m 766.15281,294.55659 2.10363,-1.47405 a 0.30979863,0.30979863 0 0 0 0.075,-0.42472 l -1.45405,-2.17358 a 0.30979863,0.30979863 0 0 0 -0.42472,-0.085 l -2.07865,1.34913 a 0.30979863,0.30979863 0 0 0 -0.0899,0.42472 l 1.43406,2.27852 a 0.30480188,0.30480188 0 0 0 0.43472,0.10493 z"
     fill="#464a5f"
     id="path326"
     style="stroke-width:0.499675" />
  <path
     d="m 763.78936,291.13881 2.09862,-1.47404 a 0.30480188,0.30480188 0 0 0 0.08,-0.42472 l -1.45905,-2.1586 a 0.30480188,0.30480188 0 0 0 -0.41973,-0.085 l -2.07865,1.34913 a 0.31479538,0.31479538 0 0 0 -0.0949,0.42472 l 1.43407,2.28352 a 0.31479538,0.31479538 0 0 0 0.43971,0.085 z"
     fill="#464a5f"
     id="path328"
     style="stroke-width:0.499675" />
  <path
     d="m 761.42089,287.72103 2.10363,-1.49903 a 0.30480188,0.30480188 0 0 0 0.075,-0.41972 l -1.45406,-2.16359 a 0.30979863,0.30979863 0 0 0 -0.42473,-0.085 l -2.07864,1.34912 a 0.30979863,0.30979863 0 0 0 -0.0899,0.42473 l 1.43406,2.28351 a 0.30480188,0.30480188 0 0 0 0.43472,0.10993 z"
     fill="#464a5f"
     id="path330"
     style="stroke-width:0.499675" />
  <path
     d="m 758.98747,284.35322 2.23355,-1.56398 a 0.23484735,0.23484735 0 0 0 0.055,-0.3198 l -1.539,-2.28851 a 0.23484735,0.23484735 0 0 0 -0.31979,-0.06 l -2.20356,1.43407 a 0.2298506,0.2298506 0 0 0 -0.07,0.31479 l 1.49902,2.41843 a 0.2298506,0.2298506 0 0 0 0.34478,0.065 z"
     fill="#464a5f"
     id="path332"
     style="stroke-width:0.499675" />
  <path
     d="m 782.03749,324.79693 1.92874,-1.33413 a 0.49967522,0.49967522 0 0 0 0.11993,-0.67956 l -3.7026,-5.31654 a 0.49967522,0.49967522 0 0 0 -0.66956,-0.12991 l -1.96872,1.27916 a 0.49967522,0.49967522 0 0 0 -0.13491,0.69454 l 3.75256,5.36153 a 0.49967522,0.49967522 0 0 0 0.67456,0.12491 z"
     fill="#464a5f"
     id="path334"
     style="stroke-width:0.499675" />
  <path
     d="m 757.81824,290.25939 2.34346,-1.65894 a 0.22485385,0.22485385 0 0 0 0.055,-0.31978 l -3.9974,-5.7063 a 0.2298506,0.2298506 0 0 0 -0.31479,-0.06 l -2.40844,1.56398 a 0.2298506,0.2298506 0 0 0 -0.065,0.32479 l 4.06236,5.80123 a 0.23484735,0.23484735 0 0 0 0.32479,0.055 z"
     fill="#464a5f"
     id="path336"
     style="stroke-width:0.499675" />
  <path
     d="m 775.74159,308.41258 2.22355,-1.49903 a 0.23484735,0.23484735 0 0 0 0.065,-0.31979 L 769.48563,293.927 a 0.22485385,0.22485385 0 0 0 -0.31479,-0.065 l -2.39845,1.55899 a 0.2298506,0.2298506 0 0 0 -0.065,0.32479 l 8.71434,12.63178 a 0.2298506,0.2298506 0 0 0 0.3198,0.035 z"
     fill="#464a5f"
     id="path338"
     style="stroke-width:0.499675" />
  <path
     d="m 783.37662,308.47254 9.78863,-6.73562 a 1.2491881,1.2491881 0 0 0 0.3298,-1.72888 L 781.03814,281.4551 a 1.2541848,1.2541848 0 0 0 -1.74386,-0.33478 l -10.06846,6.86554 a 1.2491881,1.2491881 0 0 0 -0.32979,1.74386 l 12.74672,18.42303 a 1.2441913,1.2441913 0 0 0 1.73387,0.31979 z"
     opacity="0.1"
     id="path340"
     style="stroke-width:0.499675" />
  <path
     d="m 783.31665,308.78234 9.78865,-6.73562 a 1.2541848,1.2541848 0 0 0 0.32977,-1.72888 l -12.46688,-18.52796 a 1.2491881,1.2491881 0 0 0 -1.74387,-0.33977 l -10.05846,6.84555 a 1.2491881,1.2491881 0 0 0 -0.32979,1.74387 l 12.74671,18.43301 a 1.2441913,1.2441913 0 0 0 1.73387,0.3098 z"
     fill="#939498"
     id="path342"
     style="stroke-width:0.499675" />
  <path
     d="m 767.49694,350.55019 4.76691,-14.29071 -31.83932,-45.83521 -4.62199,14.18578 a 2.5983111,2.5983111 0 0 0 0.33978,2.29351 l 30.44022,43.77654 a 0.49967522,0.49967522 0 0 0 0.9144,-0.12991 z"
     fill="#dc5c01"
     id="path344"
     style="stroke-width:0.499675" />
  <text
     xml:space="preserve"
     id="text353"
     style="font-style:normal;font-weight:normal;font-size:48px;line-height:1.25;font-family:sans-serif;white-space:pre;shape-inside:url(#rect355);fill:#333333;fill-opacity:1;stroke:none;"
     transform="translate(82.195635,55.143907)"><tspan
       x="85.316406"
       y="122.86607"><tspan
         style="font-style:normal;font-variant:normal;font-weight:bold;font-stretch:normal;font-size:48px;font-family:Lora;-inkscape-font-specification:'Lora Bold';fill:#333333">Our 
</tspan></tspan><tspan
       x="85.316406"
       y="182.93294"><tspan
         style="font-style:normal;font-variant:normal;font-weight:bold;font-stretch:normal;font-size:48px;font-family:Lora;-inkscape-font-specification:'Lora Bold';fill:#333333">Clientele</tspan></tspan></text>
</svg>
