<?xml version="1.0" encoding="UTF-8" standalone="no"?>
<svg
   xmlns:dc="http://purl.org/dc/elements/1.1/"
   xmlns:cc="http://creativecommons.org/ns#"
   xmlns:rdf="http://www.w3.org/1999/02/22-rdf-syntax-ns#"
   xmlns:svg="http://www.w3.org/2000/svg"
   xmlns="http://www.w3.org/2000/svg"
   xmlns:sodipodi="http://sodipodi.sourceforge.net/DTD/sodipodi-0.dtd"
   xmlns:inkscape="http://www.inkscape.org/namespaces/inkscape"
   id="78bf026f-5d34-4e97-88cf-29aa2cfb8006"
   data-name="Layer 1"
   width="1084.15"
   height="758.57"
   viewBox="0 0 1084.15 758.57"
   version="1.1"
   sodipodi:docname="clientelem.svg"
   inkscape:version="1.0.1 (3bc2e813f5, 2020-09-07)">
  <metadata
     id="metadata351">
    <rdf:RDF>
      <cc:Work
         rdf:about="">
        <dc:format>image/svg+xml</dc:format>
        <dc:type
           rdf:resource="http://purl.org/dc/dcmitype/StillImage" />
      </cc:Work>
    </rdf:RDF>
  </metadata>
  <defs
     id="defs349">
    <rect
       x="85.316988"
       y="79.074282"
       width="287.1645"
       height="227.85879"
       id="rect355" />
  </defs>
  <sodipodi:namedview
     pagecolor="#ffffff"
     bordercolor="#666666"
     borderopacity="1"
     objecttolerance="10"
     gridtolerance="10"
     guidetolerance="10"
     inkscape:pageopacity="0"
     inkscape:pageshadow="2"
     inkscape:window-width="1920"
     inkscape:window-height="1009"
     id="namedview347"
     showgrid="false"
     inkscape:zoom="0.96112159"
     inkscape:cx="542.07501"
     inkscape:cy="379.285"
     inkscape:window-x="-8"
     inkscape:window-y="-8"
     inkscape:window-maximized="1"
     inkscape:current-layer="78bf026f-5d34-4e97-88cf-29aa2cfb8006"
     inkscape:document-rotation="0" />
  <title
     id="title2">interview</title>
  <path
     d="m 199.491,93.223897 c -15.08457,-5.73672 -31.02485,-10.528731 -47.29715,-9.926307 -23.92583,0.883099 -46.89326,14.345226 -58.140793,34.11227 -9.542937,16.74808 -10.720408,36.37822 -14.831262,54.96436 -5.058997,22.89556 -14.766244,44.66154 -25.130673,65.94149 -5.565583,11.43238 -11.439214,23.11119 -12.353122,35.6423 -1.266464,17.39842 7.622726,34.73524 21.564055,46.30794 13.941329,11.57271 32.4556,17.67909 51.038335,19.0106 9.88865,0.70853 20.22228,0.0514 29.00536,-4.25463 9.29308,-4.55583 16.06693,-12.78782 25.39765,-17.27862 8.64617,-4.16221 18.76072,-4.74409 28.46797,-4.20328 a 135.07995,135.07995 0 0 1 37.16547,7.39339 c 13.56824,4.76462 26.18491,11.66854 39.70523,16.50163 13.52032,4.83309 28.66307,7.53031 42.49829,3.49817 13.00688,-3.78912 23.27548,-12.98977 32.53433,-22.3068 a 395.40252,395.40252 0 0 0 41.49197,-49.08047 c 8.35521,-11.70963 16.13194,-24.06274 19.82523,-37.70971 7.06479,-26.09249 -2.65616,-55.52913 -24.21677,-73.34857 -17.86393,-14.76281 -41.83767,-21.17041 -65.30483,-25.05879 -21.39975,-3.54609 -46.14365,-3.76515 -65.84224,-13.00689 -18.78468,-8.82414 -35.87847,-19.70201 -55.57705,-27.198083 z"
     fill="#dc5c01"
     opacity="0.1"
     id="path4"
     style="fill:#333333;stroke-width:0.342286" />
  <polygon
     points="632.58,619 632.58,655.33 642.91,655.33 640.91,616.33 "
     fill="#aaabb0"
     id="polygon6"
     transform="matrix(0,0.3422865,-0.3422865,0,354.85584,-3.8356123)" />
  <polygon
     points="477.41,611.67 477.41,648 487.75,648 485.75,609 "
     fill="#aaabb0"
     id="polygon8"
     transform="matrix(0,0.3422865,-0.3422865,0,354.85584,-3.8356123)" />
  <rect
     x="216.79541"
     y="-166.02672"
     width="4.5626793"
     height="22.135666"
     rx="2.283051"
     ry="2.283051"
     fill="#aaabb0"
     id="rect10"
     transform="rotate(90)"
     style="stroke-width:0.342286" />
  <rect
     x="158.26442"
     y="-170.93501"
     width="4.5626793"
     height="27.040634"
     rx="2.283051"
     ry="2.283051"
     fill="#aaabb0"
     id="rect12"
     transform="rotate(90)"
     style="stroke-width:0.342286" />
  <path
     d="m 298.49152,227.18039 c 0,0 1.94077,4.56267 0,5.24725 -1.94076,0.68457 -18.71281,1.02686 -18.71281,1.02686 v -4.33677 z"
     fill="#aaabb0"
     id="path14"
     style="stroke-width:0.342286" />
  <path
     d="m 298.49152,177.20655 c 0,0 1.94077,-4.56609 0,-5.25067 -1.94076,-0.68457 -18.71281,-1.02686 -18.71281,-1.02686 v 4.33678 z"
     fill="#aaabb0"
     id="path16"
     style="stroke-width:0.342286" />
  <polygon
     points="530.91,116 528.91,156.67 537.91,156.67 537.91,115 "
     fill="#aaabb0"
     id="polygon18"
     transform="matrix(0,0.3422865,-0.3422865,0,354.85584,-3.8356123)" />
  <path
     d="m 279.77871,175.2658 20.08196,0.9139 c 0,0 4.44972,-0.34229 3.08058,10.4945 -1.36914,10.83679 -4.10744,42.5599 -4.10744,42.5599 h -19.0551 z"
     fill="#33323d"
     id="path20"
     style="stroke-width:0.342286" />
  <path
     d="m 174.01219,218.62323 -30.68941,-1.71144 c 0,0 -13.92079,-25.10328 -0.68457,-55.56679 l 32.28789,2.73829 z"
     fill="#33323d"
     id="path22"
     style="stroke-width:0.342286" />
  <polygon
     points="580.25,175.33 581.91,233.33 685.25,233.33 679.25,156.67 "
     fill="#444053"
     id="polygon24"
     transform="matrix(0,0.3422865,-0.3422865,0,354.85584,-3.8356123)" />
  <rect
     x="165.05196"
     y="-187.13545"
     width="33.318165"
     height="42.214191"
     fill="#4c4981"
     id="rect26"
     transform="rotate(90)"
     style="stroke-width:0.342286" />
  <path
     d="m 169.90476,186.10601 c 0,0 3.76515,4.79201 2.62533,5.58954 -1.13981,0.79753 -6.0482,-2.84782 -5.47659,-4.33334 0.57163,-1.48554 2.85126,-1.2562 2.85126,-1.2562 z"
     fill="#ffb9b9"
     id="path28"
     style="stroke-width:0.342286" />
  <rect
     x="100.39405"
     y="-280.92194"
     width="218.71078"
     height="109.53167"
     fill="#504f60"
     id="rect30"
     transform="rotate(90)"
     style="stroke-width:0.342286" />
  <path
     d="m 315.94813,175.37875 c 0,0 15.97452,-1.71143 17.91185,0 1.93734,1.71143 20.31128,30.4635 -1.25276,57.04889 0,0 -0.11638,2.50897 -5.81888,2.05371 a 68.457293,68.457293 0 0 0 -10.84021,0.0548 c 0,0 -4.10743,-57.21661 0,-59.15737 z"
     fill="#33323d"
     id="path32"
     style="stroke-width:0.342286" />
  <path
     d="m 315.94813,175.37875 c 0,0 15.97452,-1.71143 17.91185,0 1.93734,1.71143 20.31128,30.4635 -1.25276,57.04889 0,0 -0.11638,2.50897 -5.81888,2.05371 a 68.457293,68.457293 0 0 0 -10.84021,0.0548 c 0,0 -4.10743,-57.21661 0,-59.15737 z"
     opacity="0.1"
     id="path34"
     style="stroke-width:0.342286" />
  <path
     d="m 313.89442,175.37875 c 0,0 15.97451,-1.71143 17.91185,0 1.93733,1.71143 20.31128,30.4635 -1.25277,57.04889 0,0 -0.11638,2.50897 -5.81887,2.05371 a 68.457293,68.457293 0 0 0 -10.84021,0.0548 c 0,0 -4.10744,-57.21661 0,-59.15737 z"
     fill="#33323d"
     id="path36"
     style="stroke-width:0.342286" />
  <path
     d="m 321.19538,235.50822 c 0,0 -6.84572,1.82438 -7.98554,1.25619 -1.13981,-0.5682 -4.33677,-0.46551 -4.33677,-0.46551 0,0 -2.05371,0.12323 -2.27962,-0.79068 -0.22592,-0.91391 -0.34229,-1.71144 -1.02687,-0.97209 -0.68457,0.73933 -1.71143,0 -1.71143,0 0,0 -1.59848,-0.40048 -2.62534,0 -1.02685,0.40048 -1.45472,-2.34125 -2.73829,-2.10849 -1.28358,0.23276 -4.90496,0.99948 -5.02135,0 -0.11637,-0.99947 -4.56267,0.34229 -4.56267,-0.55792 0,-0.90022 -7.98554,-1.54029 -7.98554,-1.54029 0,0 5.3602,-6.33231 3.8781,-10.5527 0,0 4.44973,0.34229 6.04822,1.71144 1.59846,1.36914 5.70248,0.95497 5.70248,0.95497 l 20.42423,6.79096 z"
     fill="#4c4981"
     id="path38"
     style="stroke-width:0.342286" />
  <path
     d="m 226.79962,201.62185 c -1.63955,-1.48209 7.11613,-3.08057 7.11613,-3.08057 0,0 -5.81887,-4.22039 -1.94076,-6.95869 2.68694,-1.89626 10.2994,-0.40047 14.71832,0.68457 1.96472,0.48605 3.29963,0.89679 3.29963,0.89679 l 1.02687,6.16116 c 0,0 -1.34176,0.0205 -2.97104,0.15746 -2.20091,0.18484 -4.93236,0.5853 -5.58613,1.4376 -1.13296,1.50264 -14.00979,2.18721 -15.66302,0.70168 z"
     fill="#ae6e79"
     id="path40"
     style="stroke-width:0.342286" />
  <path
     d="m 329.2973,198.42832 c 0,0 0.11296,-10.72726 -5.58953,-13.34917 -5.7025,-2.62191 -7.64668,-2.73829 -8.55716,-3.76515 -0.91048,-1.02686 -5.70592,11.17908 -5.70592,11.17908 l -19.62329,0.57162 c 0,0 2.42682,2.39599 1.32808,6.27411 -1.09874,3.8781 0,8.78649 0,8.78649 0,0 0.41417,-0.22934 0,2.96762 -0.41417,3.19696 4.94605,13.34917 4.94605,13.34917 0,0 8.58453,0.16773 10.41235,-0.0582 1.8278,-0.2259 15.25913,7.24278 15.25913,7.24278 0,0 5.58953,5.81887 7.53029,-0.2259 0,0 3.22434,-2.1393 3.19354,-7.64326 -0.0308,-5.50397 -3.19354,-25.32921 -3.19354,-25.32921 z"
     opacity="0.1"
     id="path42"
     style="stroke-width:0.342286" />
  <path
     d="m 329.63959,198.42832 c 0,0 0.11295,-10.72726 -5.58954,-13.34917 -5.70248,-2.62191 -7.64668,-2.73829 -8.55717,-3.76515 -0.91047,-1.02686 -5.7059,11.17908 -5.7059,11.17908 l -19.62329,0.57162 c 0,0 2.42681,2.39599 1.32807,6.27411 -1.09874,3.8781 0,8.78649 0,8.78649 0,0 0.41417,-0.22934 0,2.96762 -0.41417,3.19696 4.94604,13.34917 4.94604,13.34917 0,0 6.50345,3.99107 8.32783,3.76516 1.82439,-0.22591 15.63223,7.98555 15.63223,7.98555 0,0 7.30096,1.25618 9.24173,-4.79202 0,0 3.22435,-2.13929 3.19354,-7.64326 -0.0308,-5.50397 -3.19354,-25.3292 -3.19354,-25.3292 z"
     fill="#4c4981"
     id="path44"
     style="stroke-width:0.342286" />
  <path
     d="m 248.05904,199.50994 c 0.73248,-2.35149 -0.88312,-6.04135 -1.36915,-7.21539 1.96471,0.48605 3.29964,0.89679 3.29964,0.89679 l 1.02686,6.16115 c 0,0 -1.34177,0.0105 -2.95735,0.15745 z"
     opacity="0.1"
     id="path46"
     style="stroke-width:0.342286" />
  <path
     d="M 315.49288,184.62048 V 181.314 c 0,0 -6.9621,-0.68458 -9.01582,0 -2.05372,0.68457 -1.75593,1.02686 -3.27567,0.79753 -1.51976,-0.22934 -3.84731,1.59847 -3.84731,1.59847 0,0 -5.73672,0.22591 -7.87259,1.36915 -2.13586,1.14323 -11.71304,-1.25618 -11.71304,-1.25618 a 13.780454,13.780454 0 0 0 -4.44973,2.85123 c -1.93734,1.94076 -9.12536,2.96763 -11.86365,2.39601 -2.7383,-0.57163 -3.76515,1.59847 -3.76515,1.59847 0,0 -12.78098,0.91391 -12.78098,1.2562 0,0.34228 3.42287,6.95868 0.45867,9.01239 l 11.7507,-1.59846 22.70385,0.11638 c 0,0 2.85469,-2.1701 5.36364,-1.02687 2.50896,1.14324 8.4442,-0.91389 8.4442,-0.91389 l 13.2328,-2.96763 z"
     fill="#4c4981"
     id="path48"
     style="stroke-width:0.342286" />
  <path
     d="m 135.10791,164.08329 c 0,0 1.02686,-4.79201 0,-4.90495 -1.02685,-0.11296 -11.52478,-5.70592 -14.60537,1.25618 -3.08057,6.96211 -9.69697,25.55511 -1.13981,55.7927 0,0 -0.68458,1.93734 3.53582,1.4821 4.22039,-0.45524 8.89945,-0.45524 8.89945,-0.45524 0,0 1.25619,-4.5661 0.79753,-7.98897 -0.45866,-3.42286 -6.50345,-33.20178 2.51238,-45.18182 z"
     fill="#33323d"
     id="path50"
     style="stroke-width:0.342286" />
  <path
     d="m 135.10791,164.08329 c 0,0 1.02686,-4.79201 0,-4.90495 -1.02685,-0.11296 -11.52478,-5.70592 -14.60537,1.25618 -3.08057,6.96211 -9.69697,25.55511 -1.13981,55.7927 0,0 -0.68458,1.93734 3.53582,1.4821 4.22039,-0.45524 8.89945,-0.45524 8.89945,-0.45524 0,0 1.25619,-4.5661 0.79753,-7.98897 -0.45866,-3.42286 -6.50345,-33.20178 2.51238,-45.18182 z"
     opacity="0.1"
     id="path52"
     style="stroke-width:0.342286" />
  <path
     d="m 136.47706,164.08329 c 0,0 1.02686,-4.79201 0,-4.90495 -1.02686,-0.11296 -11.52479,-5.70592 -14.60537,1.25618 -3.08057,6.96211 -9.69697,25.55511 -1.13982,55.7927 0,0 -0.68456,1.93734 3.53583,1.4821 4.22039,-0.45524 8.89944,-0.45524 8.89944,-0.45524 0,0 1.25619,-4.5661 0.79753,-7.98897 -0.45866,-3.42286 -6.50344,-33.20178 2.51239,-45.18182 z"
     fill="#33323d"
     id="path54"
     style="stroke-width:0.342286" />
  <path
     d="m 311.3923,192.02756 c -1.67378,-0.29436 -3.28253,-0.96181 -4.97685,-1.06451 -1.69432,-0.10271 -3.62139,0.55108 -4.28541,2.11533 a 7.1298271,7.1298271 0 0 1 -0.51344,1.26304 c -0.40732,0.60243 -1.17404,0.84887 -1.89285,0.97553 a 10.337052,10.337052 0 0 1 -2.81359,0.11978 c -0.94471,-0.0855 -1.96131,-0.28751 -2.78622,0.17799 -1.46155,0.81807 -1.24591,2.95051 -0.83517,4.57296 l -4.32308,-0.55793 c -0.34229,-0.0445 -0.72907,-0.0719 -0.96182,0.17798 a 1.0782024,1.0782024 0 0 0 -0.178,0.82148 c 0.089,1.41023 0.28411,2.86152 1.02687,4.06981 0.74276,1.20826 2.1256,2.10848 3.51869,1.87915 1.6156,-0.26699 2.89918,-1.93735 4.52161,-1.71144 1.2562,0.17456 2.05372,1.40338 3.01897,2.21117 1.76621,1.46156 4.44973,1.54029 6.44867,0.39363 1.99896,-1.14666 3.23804,-3.36124 3.46395,-5.64088 0.12664,-1.26304 -0.0274,-2.57741 0.41074,-3.76515 a 2.8546694,2.8546694 0 0 1 1.8415,-1.74566"
     fill="#444053"
     id="path56"
     style="stroke-width:0.342286" />
  <path
     d="m 159.18093,152.21964 2.60137,1.19459 c 0,0 6.00713,6.44868 6.42814,7.93077 0.42101,1.4821 2.25567,7.5303 2.25567,8.44421 0,0.91391 0.9139,17.573 0.9139,17.573 l -4.56611,1.93734 -4.59006,-20.90687 -5.13429,-7.04768 z"
     fill="#767d9f"
     id="path58"
     style="stroke-width:0.342286" />
  <path
     d="m 229.2367,202.45018 -8.40314,-1.09188 -3.2346,-0.42103 -0.68457,-4.90495 c 0,0 1.13638,-0.53054 2.88203,-1.28015 5.2986,-2.27621 16.22439,-6.56164 18.11039,-4.07663 2.51238,3.30306 -5.81887,4.10743 -5.81887,4.10743 l 1.82781,3.76515 z"
     fill="#ffb9b9"
     id="path60"
     style="stroke-width:0.342286" />
  <rect
     x="176.86086"
     y="-213.60448"
     width="24.771275"
     height="37.42218"
     fill="#ffffff"
     id="rect62"
     transform="rotate(90)"
     style="stroke-width:0.342286" />
  <rect
     x="176.86086"
     y="-213.60448"
     width="24.771275"
     height="37.42218"
     opacity="0.1"
     id="rect64"
     transform="rotate(90)"
     style="stroke-width:0.342286" />
  <rect
     x="154.76186"
     y="-240.42131"
     width="24.771275"
     height="37.42218"
     transform="rotate(98.41)"
     fill="#ffffff"
     id="rect66"
     style="stroke-width:0.342286" />
  <rect
     x="157.5602"
     y="-237.2661"
     width="12.750172"
     height="19.260458"
     transform="rotate(98.41)"
     fill="#dc5c01"
     id="rect68"
     style="stroke-width:0.342286" />
  <rect
     x="157.01553"
     y="-212.44395"
     width="15.44739"
     height="4.1827412"
     transform="rotate(98.41)"
     fill="#dc5c01"
     id="rect70"
     style="stroke-width:0.342286" />
  <circle
     cx="208.12531"
     cy="-322.33862"
     r="14.317844"
     opacity="0.1"
     id="circle72"
     transform="rotate(90)"
     style="stroke-width:0.342286" />
  <circle
     cx="208.12531"
     cy="-322.68094"
     r="14.317844"
     fill="#ae6e79"
     id="circle74"
     transform="rotate(90)"
     style="stroke-width:0.342286" />
  <path
     d="m 312.07003,196.31984 a 1.6292837,1.6292837 0 0 1 1.10558,0.0993 c 1.13298,0.54422 1.23223,2.09479 1.17405,3.35097 -0.13692,2.95395 -0.15404,6.19539 1.71143,8.50583 0.76672,0.95839 2.69379,2.02975 2.32755,3.42287 -0.32517,1.23906 -2.0058,1.75592 -2.3789,3.04633 -0.2704,0.93445 0.16088,1.90312 0.3423,2.85468 0.2704,1.36915 0.0445,2.77251 0.0341,4.1622 -0.0105,1.38968 0.25329,2.89917 1.26988,3.8473 1.36916,1.28015 3.50844,1.07136 5.38417,0.9584 a 28.988243,28.988243 0 0 1 7.23594,0.48947 c 2.36862,0.46552 5.01792,1.18089 7.04768,-0.12665 1.93391,-1.24591 2.46446,-3.82675 3.94656,-5.58952 1.36915,-1.64984 3.5632,-2.52266 4.83309,-4.2649 1.59848,-2.19405 1.36914,-5.17538 1.09189,-7.87258 l -0.62295,-5.8531 c -0.16088,-1.50949 -0.3423,-3.08059 -1.24251,-4.32309 -1.62244,-2.24198 -4.99396,-2.55003 -6.77044,-4.67221 -0.78724,-0.9447 -1.17745,-2.15299 -1.76619,-3.23118 -0.58873,-1.0782 -1.51975,-2.11875 -2.73829,-2.24198 -1.02686,-0.10271 -1.975,0.45182 -2.9642,0.72223 -2.36178,0.64007 -4.792,-0.3594 -7.17091,-0.99949 -2.37889,-0.64006 -5.26778,-0.76329 -6.84572,1.09533 -0.32175,0.3765 -0.5682,0.81464 -0.90364,1.18087 -1.14667,1.2562 -3.08058,1.42734 -4.75093,1.1364"
     fill="#444053"
     id="path76"
     style="stroke-width:0.342286" />
  <ellipse
     cx="209.29248"
     cy="-305.65219"
     rx="0.3422865"
     ry="0.85571617"
     fill="#444053"
     id="ellipse78"
     transform="rotate(90)"
     style="stroke-width:0.342286" />
  <ellipse
     cx="209.29248"
     cy="-302.08551"
     rx="0.3422865"
     ry="0.85571617"
     fill="#444053"
     id="ellipse80"
     transform="rotate(90)"
     style="stroke-width:0.342286" />
  <path
     d="m 226.82357,201.70058 c 0.42102,0.36625 1.50264,0.60928 2.92997,0.7496 l 5.08639,-4.08005 c 0,0 -9.86128,1.72854 -8.01636,3.33045 z"
     fill="#ae6e79"
     id="path82"
     style="stroke-width:0.342286" />
  <path
     d="m 142.75117,206.30092 c 0,0 -10.35075,-6.69513 -9.24174,-27.61227 1.02687,-19.70542 10.72385,-29.32367 14.14671,-28.86501 3.42287,0.45866 11.75412,-1.25619 14.15011,2.9642 1.38627,2.44736 0.56478,5.66827 -0.37309,7.94104 a 4.4839531,4.4839531 0 0 0 0.84546,4.71329 c 1.8723,2.07769 3.98079,5.95236 2.3207,12.06902 a 4.3470385,4.3470385 0 0 0 0.0445,2.39601 c 0.777,2.5466 2.12561,8.60851 -0.8694,13.00689 a 4.4497244,4.4497244 0 0 0 -0.1814,4.76463 l 0.0377,0.0616 c 1.25619,2.05372 -10.61089,11.63774 -10.61089,11.63774 0,0 -9.12878,0.45866 -10.26859,-3.07715 z"
     opacity="0.1"
     id="path84"
     style="stroke-width:0.342286" />
  <path
     d="m 142.40888,206.30092 c 0,0 -10.35075,-6.69513 -9.24174,-27.61227 1.02686,-19.70542 10.72384,-29.32367 14.1467,-28.86501 3.42287,0.45866 11.75412,-1.25619 14.15014,2.9642 1.38625,2.44736 0.56476,5.66827 -0.3731,7.94104 a 4.4839531,4.4839531 0 0 0 0.84545,4.71329 c 1.8723,2.07769 3.98078,5.95236 2.3207,12.06902 a 4.3470385,4.3470385 0 0 0 0.0445,2.39601 c 0.77699,2.5466 2.1256,8.60851 -0.86941,13.00689 a 4.4497244,4.4497244 0 0 0 -0.18141,4.76463 l 0.0377,0.0616 c 1.25619,2.05372 -10.61086,11.63774 -10.61086,11.63774 0,0 -9.1288,0.45866 -10.2686,-3.07715 z"
     fill="#767d9f"
     id="path86"
     style="stroke-width:0.342286" />
  <circle
     cx="178.68867"
     cy="-151.99292"
     r="13.636694"
     opacity="0.1"
     id="circle88"
     transform="rotate(90)"
     style="stroke-width:0.342286" />
  <circle
     cx="178.68867"
     cy="-151.65067"
     r="13.636694"
     fill="#ffb9b9"
     id="circle90"
     transform="rotate(90)"
     style="stroke-width:0.342286" />
  <path
     d="m 163.43896,174.77975 c -0.38678,-1.43076 -1.12612,-2.84097 -2.34124,-3.53924 -0.73249,-0.42102 -1.61217,-0.56819 -2.22143,-1.17748 -0.86599,-0.86255 -0.8831,-2.31727 -1.36915,-3.48447 -0.48605,-1.16719 -2.19749,-1.93734 -2.7383,-0.7941 -0.0616,-1.19115 -1.16034,-2.07425 -2.25223,-2.22144 -1.0919,-0.14718 -2.18037,0.26698 -3.22092,0.66747 -3.36811,1.30752 -6.88338,2.71432 -9.2794,5.59637 -3.9089,4.69617 -3.72748,11.77466 -3.31332,18.083 a 2.9573553,2.9573553 0 0 0 0.34228,1.4821 c 0.45182,0.68456 1.31781,0.77014 2.07769,0.8831 3.24487,0.47577 6.19196,2.23512 9.28965,3.38521 3.09769,1.15008 6.7362,1.62244 9.4779,-0.3149 4.06638,-2.85125 6.84916,-13.76676 5.54847,-18.56562 z"
     fill="#b96b6b"
     id="path92"
     style="stroke-width:0.342286" />
  <path
     d="m 220.83356,201.3583 -3.2346,-0.42103 -0.68457,-4.90495 c 0,0 1.13638,-0.53054 2.88203,-1.28015 l 1.2254,6.5274 z"
     opacity="0.1"
     id="path94"
     style="stroke-width:0.342286" />
  <path
     d="m 149.36757,206.52682 3.30991,2.85466 18.25414,-0.57161 a 29.611205,29.611205 0 0 0 3.99448,0.57161 c 1.94076,0.11297 6.27411,-1.42733 6.27411,-1.42733 a 13.592197,13.592197 0 0 1 2.51238,0.96868 c 1.36915,0.68457 4.44974,-0.96525 4.44974,-0.96525 0,0 7.98553,-2.45761 11.98002,-1.43076 3.99448,1.02686 6.27411,-0.24986 6.27411,-0.24986 0,0 4.44972,-1.00291 6.27411,-0.88996 1.82439,0.11297 3.53925,-2.28305 3.53925,-2.28305 l 4.44971,-1.82438 -1.36914,-7.30097 H 203.9075 c 0,0 -14.71832,0.45523 -17.573,0 -2.85467,-0.45524 -5.58954,0.91048 -5.58954,0.91048 0,0 -4.22038,-0.79753 -5.81886,-0.11294 -1.59848,0.68455 -5.47658,2.0537 -5.47658,2.0537 a 8.899449,8.899449 0 0 0 -4.16221,0.22933 c -1.99895,0.68458 -3.13876,0 -3.13876,0 z"
     fill="#767d9f"
     id="path96"
     style="stroke-width:0.342286" />
  <g
     opacity="0.1"
     id="g106"
     transform="matrix(0,0.3422865,-0.3422865,0,354.85584,-3.8356123)">
    <path
       d="M 732.51,139.23 A 84.66,84.66 0 0 0 731,157 a 85.07,85.07 0 0 1 1.55,-14.76 c 0.88,-4.44 2,-9.22 1.76,-13.65 a 83,83 0 0 1 -1.8,10.64 z"
       transform="translate(-57.92,-70.71)"
       id="path98" />
    <path
       d="m 626.82,180.51 c -1.07,-1 -2.35,-1.7 -3.45,-2.65 -2.92,-2.49 -4.15,-6.1 -4.39,-10 -0.29,5 0.73,9.84 4.39,13 1.1,0.95 2.38,1.67 3.45,2.65 a 12.22,12.22 0 0 1 3.62,8.35 c 0.29,-4.2 -0.56,-8.57 -3.62,-11.35 z"
       transform="translate(-57.92,-70.71)"
       id="path100" />
    <path
       d="m 623.63,143.17 a 18.85,18.85 0 0 0 -0.54,-6.29 c -0.58,-2.14 -1.62,-4.23 -2,-6.38 0,0.23 -0.08,0.47 -0.11,0.72 -0.29,3 1.33,5.77 2.11,8.66 a 17,17 0 0 1 0.54,3.29 z"
       transform="translate(-57.92,-70.71)"
       id="path102" />
    <path
       d="m 728.28,176.1 c -2.77,3 -7.18,3.74 -11.24,3.71 -4.06,-0.03 -8.17,-0.69 -12.16,0.11 -2.78,0.56 -5.61,1.81 -8.34,1 -3.77,-1.09 -5.28,-6 -8.89,-6.95 -4.11,-1.08 -7.24,4.55 -10,6.79 -6.75,5.4 -16.22,5.35 -24.85,5 -3.67,-0.17 -8.2,0.12 -9.78,3.44 a 4.64,4.64 0 0 0 -0.29,3.23 l -12.22,1.92 a 23.71,23.71 0 0 1 -0.33,3 l 12.55,-2 a 4.64,4.64 0 0 1 0.29,-3.23 c 1.58,-3.32 6.11,-3.61 9.78,-3.44 8.63,0.4 18.1,0.45 24.85,-5 2.8,-2.24 5.93,-7.87 10,-6.79 3.61,0.94 5.12,5.86 8.89,6.95 2.73,0.78 5.56,-0.47 8.34,-1 4,-0.8 8.1,-0.14 12.16,-0.11 4.06,0.03 8.47,-0.74 11.24,-3.71 2.77,-2.97 3.17,-7.4 3,-11.72 -0.12,3.35 -0.81,6.45 -3,8.8 z"
       transform="translate(-57.92,-70.71)"
       id="path104" />
  </g>
  <g
     opacity="0.1"
     id="g116"
     transform="matrix(0,0.3422865,-0.3422865,0,354.85584,-3.8356123)">
    <path
       d="m 635.71,224.13 a 20.23,20.23 0 0 0 -3.69,-1.5 9.55,9.55 0 0 1 -4.83,-4.94 c 0.75,3.45 2.65,6.59 5.83,7.94 a 20.23,20.23 0 0 1 3.69,1.5 5.54,5.54 0 0 1 1.77,2.07 c -0.4,-1.96 -1.13,-3.96 -2.77,-5.07 z"
       transform="translate(-57.92,-70.71)"
       id="path108" />
    <path
       d="m 652.79,248.46 c -4.61,1.17 -10.63,1.78 -13.16,-2.13 a 6.87,6.87 0 0 0 0.8,2.69 c 2.16,3.85 7.44,3.72 11.93,2.77 z"
       transform="translate(-57.92,-70.71)"
       id="path110" />
    <path
       d="m 671.47,251.2 c 0.64,4.06 -2,8.11 -5.5,10.24 -3.5,2.13 -7.77,2.72 -11.89,3 a 4.08,4.08 0 0 1 -1.94,-0.22 2.38,2.38 0 0 0 2.94,3.22 c 4.12,-0.26 8.36,-0.83 11.89,-3 3.53,-2.17 6.17,-6.21 5.49,-10.28 a 11.34,11.34 0 0 0 -0.99,-2.96 z"
       transform="translate(-57.92,-70.71)"
       id="path112" />
    <path
       d="m 675.91,215 a 16.46,16.46 0 0 1 -3,14.15 c -2.36,2.86 -5.95,5.15 -6.46,8.82 a 8.33,8.33 0 0 0 1,4.87 6.5,6.5 0 0 1 0,-1.87 c 0.51,-3.67 4.1,-6 6.46,-8.82 3.88,-4.69 4.42,-11.6 2,-17.15 z"
       transform="translate(-57.92,-70.71)"
       id="path114" />
  </g>
  <g
     opacity="0.1"
     id="g122"
     transform="matrix(0,0.3422865,-0.3422865,0,354.85584,-3.8356123)">
    <path
       d="m 555.8,648.81 c 3.4,-1.41 7.65,-1.46 10.18,-4 1.78,-1.78 2.21,-4.35 3.44,-6.48 2,-3.56 6.15,-5.71 10.33,-6.84 14,-3.8 45.92,4.32 54.24,16.09 a 21.85,21.85 0 0 1 3.82,12.08 22.58,22.58 0 0 0 -3.81,-14.07 c -8.32,-11.77 -40.21,-19.89 -54.24,-16.09 -4.18,1.13 -8.3,3.28 -10.33,6.84 -1.23,2.13 -1.66,4.7 -3.44,6.48 -2.53,2.53 -6.78,2.58 -10.18,4 -2.59,1.07 -4.51,4.23 -3.81,6.35 a 6.88,6.88 0 0 1 3.8,-4.36 z"
       transform="translate(-57.92,-70.71)"
       id="path118" />
    <path
       d="m 547,663.34 c 0.42,-3.2 3,-6.4 6.49,-6.58 a 2.66,2.66 0 0 1 -1.53,-1.71 7.77,7.77 0 0 0 -5,6.29 10.57,10.57 0 0 0 0,2.45 c 0.04,-0.15 0.04,-0.3 0.04,-0.45 z"
       transform="translate(-57.92,-70.71)"
       id="path120" />
  </g>
  <rect
     x="204.92834"
     y="-276.04785"
     width="31.148069"
     height="40.619141"
     fill="#ffffff"
     id="rect124"
     transform="rotate(90)"
     style="stroke-width:0.342286" />
  <rect
     x="204.92834"
     y="-276.04785"
     width="31.148069"
     height="40.619141"
     opacity="0.1"
     id="rect126"
     transform="rotate(90)"
     style="stroke-width:0.342286" />
  <rect
     x="259.63208"
     y="-227.66643"
     width="31.148069"
     height="40.619141"
     transform="rotate(80.24)"
     fill="#ffffff"
     id="rect128"
     style="stroke-width:0.342286" />
  <rect
     x="262.33817"
     y="-199.51085"
     width="7.3180852"
     height="9.5429478"
     transform="rotate(80.24)"
     fill="#dc5c01"
     id="rect130"
     style="stroke-width:0.342286" />
  <rect
     x="272.46509"
     y="-199.51263"
     width="7.3180852"
     height="9.5429478"
     transform="rotate(80.24)"
     fill="#dc5c01"
     id="rect132"
     style="stroke-width:0.342286" />
  <rect
     x="263.34598"
     y="-211.97913"
     width="25.662975"
     height="9.5857944"
     transform="rotate(80.256359)"
     fill="#dc5c01"
     id="rect134"
     style="stroke-width:0.343824" />
  <rect
     x="263.17645"
     y="-223.44893"
     width="25.662975"
     height="2.1385813"
     transform="rotate(80.256359)"
     fill="#dc5c01"
     id="rect136"
     style="stroke-width:0.343824" />
  <rect
     x="263.33783"
     y="-219.48727"
     width="25.662975"
     height="2.1385813"
     transform="rotate(80.256359)"
     fill="#dc5c01"
     id="rect138"
     style="stroke-width:0.343824" />
  <path
     d="m 287.08311,222.44314 c 0,0 -14.37603,-14.31784 -18.02823,-7.12983 -3.6522,7.18802 12.15118,11.86708 12.15118,11.86708 l 3.594,1.13639 z"
     fill="#ae6e79"
     id="path140"
     style="stroke-width:0.342286" />
  <path
     d="m 288.353,221.19037 -3.90892,-1.76962 c 0,0 -1.22538,8.72831 -3.8644,10.5527 l 6.89706,-1.08163 2.94366,-1.28357 z"
     opacity="0.1"
     id="path142"
     style="stroke-width:0.342286" />
  <path
     d="m 288.69528,221.53267 -3.90891,-1.76963 c 0,0 -1.22538,8.7283 -3.86441,10.55269 l 6.89707,-1.08163 2.94367,-1.28357 z"
     fill="#4c4981"
     id="path144"
     style="stroke-width:0.342286" />
  <polygon
     points="812.99,403.98 813.81,403.91 813.91,403.34 812.78,403.26 812.23,403.64 "
     fill="#464a5f"
     id="polygon146"
     transform="matrix(0,0.3422865,-0.3422865,0,354.85584,-3.8356123)" />
  <polygon
     points="812.99,403.98 813.81,403.91 813.91,403.34 812.78,403.26 812.23,403.64 "
     opacity="0.1"
     id="polygon148"
     transform="matrix(0,0.3422865,-0.3422865,0,354.85584,-3.8356123)" />
  <polygon
     points="811.78,403.08 812.05,402.64 812.3,402.56 812.78,403.26 812.22,403.62 "
     fill="#9c9ca1"
     id="polygon150"
     transform="matrix(0,0.3422865,-0.3422865,0,354.85584,-3.8356123)" />
  <polygon
     points="811.78,403.08 812.05,402.64 812.3,402.56 812.78,403.26 812.22,403.62 "
     opacity="0.1"
     id="polygon152"
     transform="matrix(0,0.3422865,-0.3422865,0,354.85584,-3.8356123)" />
  <path
     d="m 240.48081,308.05926 20.2394,-14.01321 a 1.6669351,1.6669351 0 0 0 0.42785,-2.3207 l -21.44082,-31.23706 a 1.6737809,1.6737809 0 0 0 -2.32413,-0.43471 L 216.887,274.02914 Z"
     fill="#9c9ca1"
     id="path154"
     style="stroke-width:0.342286" />
  <path
     d="m 240.48081,308.05926 20.2394,-14.01321 a 1.6669351,1.6669351 0 0 0 0.42785,-2.3207 l -21.44082,-31.23706 a 1.6737809,1.6737809 0 0 0 -2.32413,-0.43471 L 216.887,274.02914 Z"
     opacity="0.1"
     id="path156"
     style="stroke-width:0.342286" />
  <path
     d="m 240.43289,308.40154 20.2394,-14.0132 a 1.6703581,1.6703581 0 0 0 0.42785,-2.32412 l -21.45452,-31.23365 a 1.6772038,1.6772038 0 0 0 -2.32412,-0.43812 L 216.81512,274.368 Z"
     fill="#9c9ca1"
     id="path158"
     style="stroke-width:0.342286" />
  <path
     d="m 236.43156,320.11459 3.73776,-11.63773 -23.5938,-34.03697 -3.86784,11.82257 a 1.7901583,1.7901583 0 0 0 0.2396,1.58478 l 22.85104,32.36319 a 0.3422865,0.3422865 0 0 0 0.63324,-0.0958 z"
     fill="#464a5f"
     id="path160"
     style="stroke-width:0.342286" />
  <path
     d="m 236.43156,320.11459 3.73776,-11.63773 -23.5938,-34.03697 -3.86784,11.82257 a 1.7901583,1.7901583 0 0 0 0.2396,1.58478 l 22.85104,32.36319 a 0.3422865,0.3422865 0 0 0 0.63324,-0.0958 z"
     opacity="0.1"
     id="path162"
     style="stroke-width:0.342286" />
  <path
     d="m 236.66773,320.04271 3.7412,-11.63774 -23.59381,-34.03697 -3.86099,11.82257 a 1.7764668,1.7764668 0 0 0 0.23617,1.5848 l 22.85105,32.36319 a 0.3422865,0.3422865 0 0 0 0.62638,-0.0958 z"
     fill="#464a5f"
     id="path164"
     style="stroke-width:0.342286" />
  <g
     opacity="0.1"
     id="g252"
     transform="matrix(0,0.3422865,-0.3422865,0,354.85584,-3.8356123)">
    <path
       d="m 954.07,402.36 -2.51,-3.6 a 1,1 0 0 0 -1.36,-0.25 l -3.73,2.49 a 1,1 0 0 0 -0.27,1.35 l 2.31,3.55 a 1,1 0 0 0 1.35,0.29 l 3.93,-2.47 a 1,1 0 0 0 0.28,-1.36 z"
       transform="translate(-57.92,-70.71)"
       id="path166" />
    <path
       d="m 947.37,407 -2.52,-3.59 a 1,1 0 0 0 -1.36,-0.25 l -3.72,2.51 a 1,1 0 0 0 -0.28,1.35 l 2.31,3.55 a 1,1 0 0 0 1.35,0.3 l 3.94,-2.47 a 1,1 0 0 0 0.28,-1.4 z"
       transform="translate(-57.92,-70.71)"
       id="path168" />
    <path
       d="m 940.33,411.87 -2.52,-3.59 a 1,1 0 0 0 -1.36,-0.25 l -3.73,2.51 a 1,1 0 0 0 -0.27,1.36 l 2.31,3.55 a 1,1 0 0 0 1.35,0.29 l 3.93,-2.47 a 1,1 0 0 0 0.29,-1.4 z"
       transform="translate(-57.92,-70.71)"
       id="path170" />
    <path
       d="m 933.2,416.81 -2.52,-3.6 a 1,1 0 0 0 -1.35,-0.25 l -3.73,2.52 a 1,1 0 0 0 -0.27,1.35 l 2.31,3.55 a 1,1 0 0 0 1.34,0.3 l 3.94,-2.48 a 1,1 0 0 0 0.28,-1.39 z"
       transform="translate(-57.92,-70.71)"
       id="path172" />
    <path
       d="m 926.08,421.74 -2.52,-3.59 a 1,1 0 0 0 -1.36,-0.25 l -3.72,2.51 a 1,1 0 0 0 -0.28,1.35 l 2.31,3.55 a 1,1 0 0 0 1.35,0.3 l 3.94,-2.48 a 1,1 0 0 0 0.28,-1.39 z"
       transform="translate(-57.92,-70.71)"
       id="path174" />
    <path
       d="m 919.27,427.12 -3.13,-4.46 a 0.45,0.45 0 0 0 -0.63,-0.12 l -4.58,3.09 a 0.45,0.45 0 0 0 -0.13,0.63 l 2.87,4.41 a 0.46,0.46 0 0 0 0.63,0.14 l 4.84,-3 a 0.46,0.46 0 0 0 0.13,-0.69 z"
       transform="translate(-57.92,-70.71)"
       id="path176" />
    <path
       d="M 912.15,432.05 909,427.59 a 0.46,0.46 0 0 0 -0.64,-0.12 l -4.58,3.09 a 0.46,0.46 0 0 0 -0.12,0.63 l 2.87,4.41 a 0.44,0.44 0 0 0 0.63,0.14 l 4.83,-3 a 0.45,0.45 0 0 0 0.16,-0.69 z"
       transform="translate(-57.92,-70.71)"
       id="path178" />
    <path
       d="M 905.84,436.42 902.71,432 a 0.46,0.46 0 0 0 -0.63,-0.11 l -4.58,3.08 a 0.47,0.47 0 0 0 -0.13,0.64 l 2.87,4.41 a 0.47,0.47 0 0 0 0.63,0.14 l 4.84,-3 a 0.46,0.46 0 0 0 0.13,-0.74 z"
       transform="translate(-57.92,-70.71)"
       id="path180" />
    <path
       d="m 898.78,441.3 -3.13,-4.46 a 0.46,0.46 0 0 0 -0.63,-0.11 l -4.58,3.08 a 0.46,0.46 0 0 0 -0.13,0.64 l 2.87,4.41 a 0.47,0.47 0 0 0 0.63,0.14 l 4.84,-3 a 0.47,0.47 0 0 0 0.13,-0.7 z"
       transform="translate(-57.92,-70.71)"
       id="path182" />
    <path
       d="m 891.94,446 -3.13,-4.46 a 0.45,0.45 0 0 0 -0.63,-0.12 l -4.58,3.09 a 0.45,0.45 0 0 0 -0.13,0.63 l 2.87,4.41 a 0.46,0.46 0 0 0 0.63,0.14 l 4.84,-3 a 0.46,0.46 0 0 0 0.13,-0.69 z"
       transform="translate(-57.92,-70.71)"
       id="path184" />
    <path
       d="m 885.1,450.78 -3.1,-4.47 a 0.46,0.46 0 0 0 -0.63,-0.11 l -4.58,3.08 a 0.46,0.46 0 0 0 -0.13,0.64 l 2.87,4.41 a 0.47,0.47 0 0 0 0.63,0.14 l 4.84,-3 a 0.46,0.46 0 0 0 0.1,-0.69 z"
       transform="translate(-57.92,-70.71)"
       id="path186" />
    <path
       d="m 878.26,455.51 -3.13,-4.46 a 0.45,0.45 0 0 0 -0.63,-0.12 l -4.58,3.07 a 0.45,0.45 0 0 0 -0.13,0.63 l 2.87,4.41 a 0.46,0.46 0 0 0 0.63,0.14 l 4.84,-3 a 0.46,0.46 0 0 0 0.13,-0.67 z"
       transform="translate(-57.92,-70.71)"
       id="path188" />
    <path
       d="m 949.57,395.85 -2.52,-3.6 A 1,1 0 0 0 945.69,392 l -3.69,2.52 a 1,1 0 0 0 -0.28,1.35 l 2.31,3.55 a 1,1 0 0 0 1.35,0.29 l 3.94,-2.47 a 1,1 0 0 0 0.25,-1.39 z"
       transform="translate(-57.92,-70.71)"
       id="path190" />
    <path
       d="M 939.72,381.62 937.2,378 a 1,1 0 0 0 -1.35,-0.25 l -3.73,2.51 a 1,1 0 0 0 -0.28,1.35 l 2.31,3.55 a 1,1 0 0 0 1.35,0.3 l 3.94,-2.47 a 1,1 0 0 0 0.28,-1.37 z"
       transform="translate(-57.92,-70.71)"
       id="path192" />
    <path
       d="m 942.86,400.49 -2.52,-3.59 a 1,1 0 0 0 -1.35,-0.25 l -3.73,2.51 a 1,1 0 0 0 -0.27,1.35 l 2.3,3.55 a 1,1 0 0 0 1.35,0.3 l 3.94,-2.47 a 1,1 0 0 0 0.28,-1.4 z"
       transform="translate(-57.92,-70.71)"
       id="path194" />
    <path
       d="m 935.82,405.36 -2.52,-3.59 a 1,1 0 0 0 -1.36,-0.25 l -3.72,2.48 a 1,1 0 0 0 -0.28,1.36 l 2.31,3.55 a 1,1 0 0 0 1.35,0.29 l 3.94,-2.47 a 1,1 0 0 0 0.28,-1.37 z"
       transform="translate(-57.92,-70.71)"
       id="path196" />
    <path
       d="m 928.69,410.3 -2.51,-3.6 a 1,1 0 0 0 -1.36,-0.25 l -3.73,2.55 a 1,1 0 0 0 -0.27,1.35 l 2.31,3.55 a 1,1 0 0 0 1.35,0.29 l 3.93,-2.47 a 1,1 0 0 0 0.28,-1.42 z"
       transform="translate(-57.92,-70.71)"
       id="path198" />
    <path
       d="m 933.17,386.49 -2.52,-3.59 a 1,1 0 0 0 -1.35,-0.25 l -3.73,2.51 a 1,1 0 0 0 -0.28,1.35 l 2.31,3.55 a 1,1 0 0 0 1.35,0.3 l 3.94,-2.47 a 1,1 0 0 0 0.28,-1.4 z"
       transform="translate(-57.92,-70.71)"
       id="path200" />
    <path
       d="m 926.13,391.37 -2.52,-3.6 a 1,1 0 0 0 -1.36,-0.25 l -3.72,2.48 a 1,1 0 0 0 -0.28,1.35 l 2.31,3.55 a 1,1 0 0 0 1.35,0.29 l 3.94,-2.47 a 1,1 0 0 0 0.28,-1.35 z"
       transform="translate(-57.92,-70.71)"
       id="path202" />
    <path
       d="m 919,396.3 -2.52,-3.59 a 1,1 0 0 0 -1.35,-0.26 L 911.4,395 a 1,1 0 0 0 -0.27,1.35 l 2.31,3.55 a 1,1 0 0 0 1.35,0.3 l 3.93,-2.48 A 1,1 0 0 0 919,396.3 Z"
       transform="translate(-57.92,-70.71)"
       id="path204" />
    <path
       d="m 921.57,415.23 -2.52,-3.59 a 1,1 0 0 0 -1.35,-0.26 l -3.7,2.52 a 1,1 0 0 0 -0.27,1.35 l 2.27,3.55 a 1,1 0 0 0 1.34,0.3 l 3.94,-2.48 a 1,1 0 0 0 0.29,-1.39 z"
       transform="translate(-57.92,-70.71)"
       id="path206" />
    <path
       d="m 914.45,420.16 -2.52,-3.59 a 1,1 0 0 0 -1.36,-0.25 l -3.72,2.51 a 1,1 0 0 0 -0.28,1.35 l 2.31,3.55 a 1,1 0 0 0 1.35,0.3 l 3.94,-2.47 a 1,1 0 0 0 0.28,-1.4 z"
       transform="translate(-57.92,-70.71)"
       id="path208" />
    <path
       d="m 907.64,425.54 -3.13,-4.46 a 0.45,0.45 0 0 0 -0.63,-0.12 l -4.58,3.09 a 0.45,0.45 0 0 0 -0.13,0.63 l 2.87,4.41 a 0.45,0.45 0 0 0 0.63,0.14 l 4.84,-3 a 0.46,0.46 0 0 0 0.13,-0.69 z"
       transform="translate(-57.92,-70.71)"
       id="path210" />
    <path
       d="m 901.33,429.91 -3.13,-4.47 a 0.46,0.46 0 0 0 -0.63,-0.11 l -4.57,3.08 a 0.47,0.47 0 0 0 -0.13,0.64 l 2.87,4.41 a 0.47,0.47 0 0 0 0.63,0.14 l 4.84,-3 a 0.44,0.44 0 0 0 0.12,-0.69 z"
       transform="translate(-57.92,-70.71)"
       id="path212" />
    <path
       d="m 894.27,434.79 -3.13,-4.46 a 0.46,0.46 0 0 0 -0.63,-0.11 l -4.58,3.08 a 0.45,0.45 0 0 0 -0.13,0.63 l 2.87,4.42 a 0.47,0.47 0 0 0 0.63,0.14 l 4.84,-3 a 0.47,0.47 0 0 0 0.13,-0.7 z"
       transform="translate(-57.92,-70.71)"
       id="path214" />
    <path
       d="m 887.43,439.53 -3.13,-4.46 a 0.45,0.45 0 0 0 -0.63,-0.12 l -4.58,3.05 a 0.45,0.45 0 0 0 -0.13,0.63 l 2.87,4.41 a 0.46,0.46 0 0 0 0.63,0.14 l 4.84,-3 a 0.46,0.46 0 0 0 0.13,-0.65 z"
       transform="translate(-57.92,-70.71)"
       id="path216" />
    <path
       d="M 931.13,398.59 928.61,395 a 1,1 0 0 0 -1.35,-0.25 l -3.73,2.52 a 1,1 0 0 0 -0.27,1.35 l 2.31,3.55 a 1,1 0 0 0 1.34,0.29 l 3.94,-2.47 a 1,1 0 0 0 0.28,-1.4 z"
       transform="translate(-57.92,-70.71)"
       id="path218" />
    <path
       d="m 924,403.53 -2.52,-3.6 a 1,1 0 0 0 -1.36,-0.25 l -3.72,2.52 a 1,1 0 0 0 -0.28,1.35 l 2.31,3.55 a 1,1 0 0 0 1.35,0.3 l 3.94,-2.48 a 1,1 0 0 0 0.28,-1.39 z"
       transform="translate(-57.92,-70.71)"
       id="path220" />
    <path
       d="m 916.89,408.46 -2.52,-3.59 a 1,1 0 0 0 -1.36,-0.25 l -3.73,2.51 a 1,1 0 0 0 -0.27,1.35 l 2.31,3.55 a 1,1 0 0 0 1.35,0.3 l 3.93,-2.48 a 1,1 0 0 0 0.29,-1.39 z"
       transform="translate(-57.92,-70.71)"
       id="path222" />
    <path
       d="m 909.76,413.39 -2.52,-3.59 a 1,1 0 0 0 -1.35,-0.25 l -3.73,2.51 a 1,1 0 0 0 -0.27,1.35 l 2.31,3.59 a 1,1 0 0 0 1.34,0.3 l 3.94,-2.47 a 1,1 0 0 0 0.28,-1.44 z"
       transform="translate(-57.92,-70.71)"
       id="path224" />
    <path
       d="m 903,418.77 -3.13,-4.46 a 0.45,0.45 0 0 0 -0.63,-0.12 l -4.58,3.09 a 0.46,0.46 0 0 0 -0.13,0.63 l 2.87,4.42 a 0.45,0.45 0 0 0 0.63,0.13 l 4.84,-3 a 0.46,0.46 0 0 0 0.13,-0.69 z"
       transform="translate(-57.92,-70.71)"
       id="path226" />
    <path
       d="m 896.65,423.14 -3.13,-4.47 a 0.47,0.47 0 0 0 -0.64,-0.11 l -4.57,3.08 a 0.47,0.47 0 0 0 -0.13,0.64 l 2.87,4.41 a 0.46,0.46 0 0 0 0.63,0.14 l 4.84,-3 a 0.46,0.46 0 0 0 0.13,-0.69 z"
       transform="translate(-57.92,-70.71)"
       id="path228" />
    <path
       d="m 889.59,428 -3.13,-4.47 a 0.47,0.47 0 0 0 -0.64,-0.11 l -4.58,3.08 a 0.48,0.48 0 0 0 -0.13,0.64 l 2.88,4.41 a 0.46,0.46 0 0 0 0.63,0.14 l 4.83,-3 a 0.45,0.45 0 0 0 0.14,-0.69 z"
       transform="translate(-57.92,-70.71)"
       id="path230" />
    <path
       d="m 882.75,432.76 -3.13,-4.46 a 0.46,0.46 0 0 0 -0.64,-0.12 l -4.58,3.09 a 0.46,0.46 0 0 0 -0.12,0.63 l 2.87,4.41 a 0.44,0.44 0 0 0 0.63,0.14 l 4.83,-3 a 0.45,0.45 0 0 0 0.14,-0.69 z"
       transform="translate(-57.92,-70.71)"
       id="path232" />
    <path
       d="m 880.59,444.26 -3.13,-4.46 a 0.46,0.46 0 0 0 -0.63,-0.11 l -4.58,3.08 a 0.45,0.45 0 0 0 -0.13,0.63 l 2.87,4.42 a 0.47,0.47 0 0 0 0.63,0.14 l 4.84,-3 a 0.47,0.47 0 0 0 0.13,-0.7 z"
       transform="translate(-57.92,-70.71)"
       id="path234" />
    <path
       d="m 873.75,449 -3.13,-4.46 a 0.45,0.45 0 0 0 -0.63,-0.12 l -4.58,3.09 a 0.45,0.45 0 0 0 -0.13,0.63 l 2.87,4.41 a 0.46,0.46 0 0 0 0.63,0.14 l 4.84,-3 a 0.46,0.46 0 0 0 0.13,-0.69 z"
       transform="translate(-57.92,-70.71)"
       id="path236" />
    <path
       d="m 884.49,420.66 -3,-4.2 a 0.62,0.62 0 0 0 -0.85,-0.15 l -4.32,2.91 a 0.61,0.61 0 0 0 -0.17,0.85 l 2.7,4.15 a 0.6,0.6 0 0 0 0.84,0.19 l 4.57,-2.87 a 0.62,0.62 0 0 0 0.23,-0.88 z"
       transform="translate(-57.92,-70.71)"
       id="path238" />
    <path
       d="m 877.65,425.4 -2.95,-4.2 a 0.61,0.61 0 0 0 -0.85,-0.16 l -4.32,2.96 a 0.6,0.6 0 0 0 -0.17,0.84 l 2.7,4.16 a 0.62,0.62 0 0 0 0.84,0.19 l 4.57,-2.87 a 0.62,0.62 0 0 0 0.18,-0.92 z"
       transform="translate(-57.92,-70.71)"
       id="path240" />
    <path
       d="m 870.81,430.14 -2.95,-4.21 a 0.62,0.62 0 0 0 -0.85,-0.15 l -4.32,2.91 a 0.61,0.61 0 0 0 -0.17,0.85 l 2.7,4.15 a 0.6,0.6 0 0 0 0.84,0.19 l 4.57,-2.87 a 0.61,0.61 0 0 0 0.18,-0.87 z"
       transform="translate(-57.92,-70.71)"
       id="path242" />
    <path
       d="m 864.06,435 -3.13,-4.47 a 0.46,0.46 0 0 0 -0.63,-0.11 l -4.58,3.08 a 0.47,0.47 0 0 0 -0.13,0.64 l 2.87,4.41 a 0.47,0.47 0 0 0 0.63,0.14 l 4.84,-3 a 0.44,0.44 0 0 0 0.13,-0.69 z"
       transform="translate(-57.92,-70.71)"
       id="path244" />
    <path
       d="M 945,388.85 942.29,385 a 1,1 0 0 0 -1.36,-0.24 l -10.58,7.41 a 1,1 0 0 0 -0.26,1.34 l 2.55,3.94 a 1,1 0 0 0 1.39,0.27 l 10.74,-7.51 a 1,1 0 0 0 0.23,-1.36 z"
       transform="translate(-57.92,-70.71)"
       id="path246" />
    <path
       d="m 875.89,437.35 -3.32,-4.69 a 0.45,0.45 0 0 0 -0.64,-0.11 l -11.42,8 a 0.45,0.45 0 0 0 -0.12,0.62 l 3.12,4.83 a 0.46,0.46 0 0 0 0.65,0.13 L 875.77,438 a 0.47,0.47 0 0 0 0.12,-0.65 z"
       transform="translate(-57.92,-70.71)"
       id="path248" />
    <path
       d="M 912.22,401.48 909.16,397 a 0.46,0.46 0 0 0 -0.63,-0.12 L 883.17,414 a 0.46,0.46 0 0 0 -0.13,0.63 l 3.13,4.8 a 0.46,0.46 0 0 0 0.65,0.13 l 25.28,-17.44 a 0.46,0.46 0 0 0 0.12,-0.64 z"
       transform="translate(-57.92,-70.71)"
       id="path250" />
  </g>
  <path
     d="m 241.29545,303.13376 1.23223,-0.86257 a 0.3422865,0.3422865 0 0 0 0.0855,-0.4655 l -0.86256,-1.2733 a 0.3422865,0.3422865 0 0 0 -0.46209,-0.0959 l -1.21512,0.79068 a 0.3422865,0.3422865 0 0 0 -0.1027,0.4621 l 0.84887,1.3486 a 0.3422865,0.3422865 0 0 0 0.47578,0.0958 z"
     fill="#464a5f"
     id="path254"
     style="stroke-width:0.342286" />
  <path
     d="m 239.70724,300.82674 1.22881,-0.86255 a 0.3422865,0.3422865 0 0 0 0.0855,-0.46209 l -0.85914,-1.27673 a 0.3422865,0.3422865 0 0 0 -0.46208,-0.0958 l -1.21512,0.79068 a 0.3422865,0.3422865 0 0 0 -0.10271,0.4621 l 0.84545,1.34861 a 0.3422865,0.3422865 0 0 0 0.47919,0.0958 z"
     fill="#464a5f"
     id="path256"
     style="stroke-width:0.342286" />
  <path
     d="m 238.03688,298.43075 1.22881,-0.86257 a 0.3422865,0.3422865 0 0 0 0.0855,-0.46551 l -0.86255,-1.2733 a 0.3422865,0.3422865 0 0 0 -0.46208,-0.0958 l -1.21512,0.79068 a 0.3422865,0.3422865 0 0 0 -0.0993,0.46208 l 0.84545,1.34861 a 0.3422865,0.3422865 0 0 0 0.4792,0.0959 z"
     fill="#464a5f"
     id="path258"
     style="stroke-width:0.342286" />
  <path
     d="m 236.34941,295.98681 1.23223,-0.86255 a 0.3422865,0.3422865 0 0 0 0.0855,-0.46209 l -0.86256,-1.27673 a 0.3422865,0.3422865 0 0 0 -0.47919,-0.089 l -1.21512,0.79068 a 0.3422865,0.3422865 0 0 0 -0.10271,0.46209 l 0.84888,1.3452 a 0.3422865,0.3422865 0 0 0 0.49289,0.0924 z"
     fill="#464a5f"
     id="path260"
     style="stroke-width:0.342286" />
  <path
     d="m 234.66193,293.54974 1.22882,-0.86256 a 0.3422865,0.3422865 0 0 0 0.0855,-0.46209 l -0.85914,-1.27673 a 0.3422865,0.3422865 0 0 0 -0.46209,-0.0924 l -1.21511,0.78726 a 0.3422865,0.3422865 0 0 0 -0.1027,0.46208 l 0.84887,1.34862 a 0.3422865,0.3422865 0 0 0 0.47577,0.0958 z"
     fill="#464a5f"
     id="path262"
     style="stroke-width:0.342286" />
  <path
     d="m 232.82043,291.21877 1.52661,-1.07136 a 0.15402892,0.15402892 0 0 0 0.0411,-0.21565 l -1.05767,-1.56766 a 0.15402892,0.15402892 0 0 0 -0.21564,-0.0445 l -1.50948,0.98237 a 0.15745179,0.15745179 0 0 0 -0.048,0.21563 l 1.02687,1.65667 a 0.15745179,0.15745179 0 0 0 0.23617,0.0445 z"
     fill="#464a5f"
     id="path264"
     style="stroke-width:0.342286" />
  <path
     d="m 231.13296,288.78168 1.5266,-1.07135 a 0.15745179,0.15745179 0 0 0 0.0411,-0.21906 l -1.05766,-1.56425 a 0.15402892,0.15402892 0 0 0 -0.21564,-0.0445 l -1.51291,0.98236 a 0.15402892,0.15402892 0 0 0 -0.0445,0.21565 l 1.02686,1.65667 a 0.16087465,0.16087465 0 0 0 0.23618,0.0445 z"
     fill="#464a5f"
     id="path266"
     style="stroke-width:0.342286" />
  <path
     d="m 229.63717,286.62186 1.53003,-1.07136 a 0.15745179,0.15745179 0 0 0 0.0377,-0.21564 l -1.04056,-1.56767 a 0.16087465,0.16087465 0 0 0 -0.21905,-0.0445 l -1.50948,0.98236 a 0.16087465,0.16087465 0 0 0 -0.048,0.21565 l 1.02685,1.65667 a 0.15745179,0.15745179 0 0 0 0.22249,0.0445 z"
     fill="#464a5f"
     id="path268"
     style="stroke-width:0.342286" />
  <path
     d="m 227.9634,284.20531 1.51632,-1.07135 a 0.15745179,0.15745179 0 0 0 0.0377,-0.21564 l -1.05424,-1.56767 a 0.15745179,0.15745179 0 0 0 -0.21907,-0.0445 l -1.50949,0.98236 a 0.16087465,0.16087465 0 0 0 -0.048,0.21564 l 1.02687,1.65667 a 0.15745179,0.15745179 0 0 0 0.24987,0.0445 z"
     fill="#464a5f"
     id="path270"
     style="stroke-width:0.342286" />
  <path
     d="m 226.34438,281.86408 1.5266,-1.07135 a 0.15402892,0.15402892 0 0 0 0.0411,-0.21565 l -1.05766,-1.56767 a 0.15402892,0.15402892 0 0 0 -0.21564,-0.0445 l -1.50948,0.98236 a 0.15402892,0.15402892 0 0 0 -0.0479,0.21564 l 1.02686,1.65666 a 0.15745179,0.15745179 0 0 0 0.23617,0.0445 z"
     fill="#464a5f"
     id="path272"
     style="stroke-width:0.342286" />
  <path
     d="m 224.72193,279.52284 1.53003,-1.07135 a 0.15745179,0.15745179 0 0 0 0.0377,-0.21565 l -1.05423,-1.56767 a 0.16087465,0.16087465 0 0 0 -0.21907,-0.0445 l -1.50947,0.98237 a 0.16087465,0.16087465 0 0 0 -0.048,0.21564 l 1.02686,1.65667 a 0.15745179,0.15745179 0 0 0 0.23617,0.0445 z"
     fill="#464a5f"
     id="path274"
     style="stroke-width:0.342286" />
  <path
     d="m 223.10292,277.1816 1.5266,-1.07136 a 0.15402892,0.15402892 0 0 0 0.0411,-0.21563 l -1.05766,-1.56768 a 0.15402892,0.15402892 0 0 0 -0.21565,-0.0445 l -1.50947,0.98237 a 0.15402892,0.15402892 0 0 0 -0.0479,0.21565 l 1.02685,1.65665 a 0.15745179,0.15745179 0 0 0 0.23618,0.0445 z"
     fill="#464a5f"
     id="path276"
     style="stroke-width:0.342286" />
  <path
     d="m 243.51346,301.59006 1.23224,-0.86257 a 0.3422865,0.3422865 0 0 0 0.0855,-0.46209 l -0.86257,-1.27673 a 0.3422865,0.3422865 0 0 0 -0.46209,-0.0924 l -1.21511,0.78726 a 0.3422865,0.3422865 0 0 0 -0.1027,0.46209 l 0.84887,1.3486 a 0.3422865,0.3422865 0 0 0 0.47577,0.0958 z"
     fill="#464a5f"
     id="path278"
     style="stroke-width:0.342286" />
  <path
     d="m 248.39446,298.21853 1.22882,-0.86257 a 0.3422865,0.3422865 0 0 0 0.0855,-0.46209 l -0.85913,-1.27672 a 0.3422865,0.3422865 0 0 0 -0.46209,-0.0924 l -1.21512,0.79067 a 0.3422865,0.3422865 0 0 0 -0.10271,0.45868 l 0.84545,1.34861 a 0.3422865,0.3422865 0 0 0 0.47919,0.0958 z"
     fill="#464a5f"
     id="path280"
     style="stroke-width:0.342286" />
  <path
     d="m 241.93553,299.2933 1.23565,-0.86255 a 0.3422865,0.3422865 0 0 0 0.0855,-0.46209 l -0.85915,-1.27673 a 0.3422865,0.3422865 0 0 0 -0.46209,-0.0924 l -1.21512,0.79069 a 0.3422865,0.3422865 0 0 0 -0.1027,0.45864 l 0.84544,1.34862 a 0.3422865,0.3422865 0 0 0 0.47236,0.0958 z"
     fill="#464a5f"
     id="path282"
     style="stroke-width:0.342286" />
  <path
     d="m 240.26859,296.8836 1.2288,-0.84887 a 0.3422865,0.3422865 0 0 0 0.0855,-0.46208 l -0.85914,-1.27674 a 0.3422865,0.3422865 0 0 0 -0.46552,-0.0924 l -1.21512,0.78726 a 0.3422865,0.3422865 0 0 0 -0.0992,0.46209 l 0.84546,1.34861 a 0.3422865,0.3422865 0 0 0 0.4792,0.0822 z"
     fill="#464a5f"
     id="path284"
     style="stroke-width:0.342286" />
  <path
     d="m 238.57769,294.44653 1.23224,-0.86257 a 0.3422865,0.3422865 0 0 0 0.0855,-0.46549 l -0.86257,-1.27332 a 0.3422865,0.3422865 0 0 0 -0.46208,-0.0958 l -1.21511,0.79068 a 0.3422865,0.3422865 0 0 0 -0.10271,0.46209 l 0.84888,1.34861 a 0.3422865,0.3422865 0 0 0 0.47577,0.0958 z"
     fill="#464a5f"
     id="path286"
     style="stroke-width:0.342286" />
  <path
     d="m 246.72754,295.97655 1.23565,-0.86256 a 0.3422865,0.3422865 0 0 0 0.0855,-0.46208 l -0.85914,-1.27673 a 0.3422865,0.3422865 0 0 0 -0.46209,-0.0924 l -1.21512,0.79069 a 0.3422865,0.3422865 0 0 0 -0.1027,0.45865 l 0.84543,1.34861 a 0.3422865,0.3422865 0 0 0 0.47236,0.0959 z"
     fill="#464a5f"
     id="path288"
     style="stroke-width:0.342286" />
  <path
     d="m 245.05718,293.56685 1.23223,-0.86256 a 0.3422865,0.3422865 0 0 0 0.0855,-0.46209 l -0.86257,-1.27672 a 0.3422865,0.3422865 0 0 0 -0.46208,-0.0958 l -1.21511,0.79068 a 0.3422865,0.3422865 0 0 0 -0.10271,0.46209 l 0.84887,1.3486 a 0.3422865,0.3422865 0 0 0 0.47578,0.0959 z"
     fill="#464a5f"
     id="path290"
     style="stroke-width:0.342286" />
  <path
     d="m 243.3697,291.12977 1.22881,-0.86256 a 0.3422865,0.3422865 0 0 0 0.0855,-0.46551 l -0.85915,-1.2733 a 0.3422865,0.3422865 0 0 0 -0.46209,-0.0958 l -1.21853,0.79067 a 0.3422865,0.3422865 0 0 0 -0.10271,0.46209 l 0.84887,1.3452 a 0.3422865,0.3422865 0 0 0 0.4792,0.0993 z"
     fill="#464a5f"
     id="path292"
     style="stroke-width:0.342286" />
  <path
     d="m 236.89021,292.00603 1.22882,-0.86256 a 0.3422865,0.3422865 0 0 0 0.0855,-0.46209 l -0.8523,-1.27673 a 0.3422865,0.3422865 0 0 0 -0.4621,-0.0924 l -1.21511,0.79068 a 0.3422865,0.3422865 0 0 0 -0.10271,0.45867 l 0.84887,1.3486 a 0.3422865,0.3422865 0 0 0 0.46893,0.0958 z"
     fill="#464a5f"
     id="path294"
     style="stroke-width:0.342286" />
  <path
     d="m 235.20275,289.56895 1.22881,-0.86257 a 0.3422865,0.3422865 0 0 0 0.0855,-0.46209 l -0.87625,-1.27672 a 0.3422865,0.3422865 0 0 0 -0.46209,-0.0958 l -1.21512,0.79068 a 0.3422865,0.3422865 0 0 0 -0.10271,0.46209 l 0.84545,1.34861 a 0.3422865,0.3422865 0 0 0 0.49631,0.0958 z"
     fill="#464a5f"
     id="path296"
     style="stroke-width:0.342286" />
  <path
     d="m 233.36125,287.23798 1.5266,-1.07136 a 0.15402892,0.15402892 0 0 0 0.041,-0.21563 l -1.05767,-1.554 a 0.15402892,0.15402892 0 0 0 -0.21564,-0.0445 l -1.50948,0.98236 a 0.15402892,0.15402892 0 0 0 -0.0479,0.21565 l 1.02687,1.65667 a 0.16087465,0.16087465 0 0 0 0.23617,0.0308 z"
     fill="#464a5f"
     id="path298"
     style="stroke-width:0.342286" />
  <path
     d="m 231.87572,285.08157 1.53002,-1.07136 a 0.16087465,0.16087465 0 0 0 0.0377,-0.21905 l -1.05423,-1.56768 a 0.16429751,0.16429751 0 0 0 -0.21907,-0.0445 l -1.50949,0.9858 a 0.15745179,0.15745179 0 0 0 -0.048,0.21563 l 1.02686,1.65324 a 0.15402892,0.15402892 0 0 0 0.23618,0.048 z"
     fill="#464a5f"
     id="path300"
     style="stroke-width:0.342286" />
  <path
     d="m 230.19168,282.6616 1.53001,-1.07135 a 0.15745179,0.15745179 0 0 0 0.0377,-0.21564 l -1.05424,-1.56768 a 0.16087465,0.16087465 0 0 0 -0.21907,-0.0445 l -1.50948,0.98236 a 0.16087465,0.16087465 0 0 0 -0.0479,0.21564 l 1.02685,1.65667 a 0.15060606,0.15060606 0 0 0 0.23618,0.0445 z"
     fill="#464a5f"
     id="path302"
     style="stroke-width:0.342286" />
  <path
     d="m 228.57266,280.32379 1.5266,-1.06109 a 0.15402892,0.15402892 0 0 0 0.0412,-0.21565 l -1.05767,-1.56765 a 0.15745179,0.15745179 0 0 0 -0.21564,-0.0445 l -1.50948,0.98236 a 0.15745179,0.15745179 0 0 0 -0.0479,0.21564 l 1.02686,1.65666 a 0.15402892,0.15402892 0 0 0 0.23618,0.0342 z"
     fill="#464a5f"
     id="path304"
     style="stroke-width:0.342286" />
  <path
     d="m 242.58245,295.27829 1.23223,-0.85915 a 0.3422865,0.3422865 0 0 0 0.0855,-0.4655 l -0.86256,-1.27673 a 0.3422865,0.3422865 0 0 0 -0.46208,-0.0925 l -1.21512,0.79069 a 0.3422865,0.3422865 0 0 0 -0.0992,0.46209 l 0.84544,1.34518 a 0.3422865,0.3422865 0 0 0 0.47579,0.0958 z"
     fill="#464a5f"
     id="path306"
     style="stroke-width:0.342286" />
  <path
     d="m 240.89497,292.8412 1.22882,-0.86255 a 0.3422865,0.3422865 0 0 0 0.089,-0.46209 l -0.86255,-1.27673 a 0.3422865,0.3422865 0 0 0 -0.46209,-0.0924 l -1.21512,0.79069 a 0.3422865,0.3422865 0 0 0 -0.10271,0.45865 l 0.84887,1.34861 a 0.3422865,0.3422865 0 0 0 0.47578,0.0958 z"
     fill="#464a5f"
     id="path308"
     style="stroke-width:0.342286" />
  <path
     d="m 239.20751,290.40412 1.22538,-0.87283 a 0.3422865,0.3422865 0 0 0 0.0855,-0.4655 l -0.85573,-1.24593 a 0.3422865,0.3422865 0 0 0 -0.46209,-0.0958 l -1.21511,0.79068 a 0.3422865,0.3422865 0 0 0 -0.10271,0.46209 l 0.84545,1.3486 a 0.3422865,0.3422865 0 0 0 0.4792,0.0787 z"
     fill="#464a5f"
     id="path310"
     style="stroke-width:0.342286" />
  <path
     d="m 237.52003,287.96362 1.2288,-0.86256 a 0.3422865,0.3422865 0 0 0 0.0855,-0.46208 l -0.85914,-1.27674 a 0.3422865,0.3422865 0 0 0 -0.46208,-0.0924 l -1.21512,0.79068 a 0.3422865,0.3422865 0 0 0 -0.10271,0.45866 l 0.84545,1.34861 a 0.3422865,0.3422865 0 0 0 0.47919,0.0958 z"
     fill="#464a5f"
     id="path312"
     style="stroke-width:0.342286" />
  <path
     d="m 235.67853,285.63608 1.5266,-1.07136 a 0.15745179,0.15745179 0 0 0 0.0412,-0.21906 l -1.05767,-1.56768 a 0.15745179,0.15745179 0 0 0 -0.21563,-0.0445 l -1.51291,0.98236 a 0.15745179,0.15745179 0 0 0 -0.0445,0.21905 l 1.02687,1.65325 a 0.15745179,0.15745179 0 0 0 0.23617,0.048 z"
     fill="#464a5f"
     id="path314"
     style="stroke-width:0.342286" />
  <path
     d="m 234.18274,283.47625 1.5266,-1.07135 a 0.15402892,0.15402892 0 0 0 0.041,-0.21565 l -1.05424,-1.55741 a 0.16087465,0.16087465 0 0 0 -0.21907,-0.0445 l -1.50949,0.98238 a 0.16087465,0.16087465 0 0 0 -0.0479,0.21564 l 1.02687,1.65665 a 0.15745179,0.15745179 0 0 0 0.23618,0.0341 z"
     fill="#464a5f"
     id="path316"
     style="stroke-width:0.342286" />
  <path
     d="m 232.50895,281.0597 1.53003,-1.07135 a 0.16087465,0.16087465 0 0 0 0.0376,-0.21907 l -1.05424,-1.56425 a 0.16087465,0.16087465 0 0 0 -0.21906,-0.0445 l -1.50948,0.98236 a 0.15745179,0.15745179 0 0 0 -0.0479,0.21564 l 1.02685,1.65667 a 0.15745179,0.15745179 0 0 0 0.23618,0.0445 z"
     fill="#464a5f"
     id="path318"
     style="stroke-width:0.342286" />
  <path
     d="m 230.88994,278.71846 1.5266,-1.07135 a 0.15745179,0.15745179 0 0 0 0.0412,-0.21906 l -1.05767,-1.56426 a 0.15402892,0.15402892 0 0 0 -0.21564,-0.0445 l -1.5129,0.98236 a 0.15402892,0.15402892 0 0 0 -0.0445,0.21564 l 1.02687,1.65667 a 0.16087465,0.16087465 0 0 0 0.23617,0.0445 z"
     fill="#464a5f"
     id="path320"
     style="stroke-width:0.342286" />
  <path
     d="m 226.95022,277.98255 1.53002,-1.07136 a 0.16087465,0.16087465 0 0 0 0.0377,-0.21906 l -1.05423,-1.56767 a 0.16087465,0.16087465 0 0 0 -0.21906,-0.0445 l -1.50948,0.98237 a 0.16087465,0.16087465 0 0 0 -0.048,0.21563 l 1.02685,1.65667 a 0.15402892,0.15402892 0 0 0 0.23619,0.0479 z"
     fill="#464a5f"
     id="path322"
     style="stroke-width:0.342286" />
  <path
     d="m 225.33121,275.6413 1.52659,-1.07135 a 0.15745179,0.15745179 0 0 0 0.0411,-0.21906 l -1.05766,-1.56767 a 0.15745179,0.15745179 0 0 0 -0.21564,-0.0445 l -1.50948,0.98236 a 0.15745179,0.15745179 0 0 0 -0.048,0.21907 l 1.02685,1.65323 a 0.15402892,0.15402892 0 0 0 0.23619,0.0479 z"
     fill="#464a5f"
     id="path324"
     style="stroke-width:0.342286" />
  <path
     d="m 235.02818,279.31404 1.44103,-1.00975 a 0.21221762,0.21221762 0 0 0 0.0514,-0.29094 l -0.99605,-1.48894 a 0.21221762,0.21221762 0 0 0 -0.29094,-0.0582 l -1.42391,0.92418 a 0.21221762,0.21221762 0 0 0 -0.0616,0.29094 l 0.98236,1.56083 a 0.20879476,0.20879476 0 0 0 0.29779,0.0718 z"
     fill="#464a5f"
     id="path326"
     style="stroke-width:0.342286" />
  <path
     d="m 233.40917,276.9728 1.43759,-1.00974 a 0.20879476,0.20879476 0 0 0 0.0549,-0.29095 l -0.99948,-1.47867 a 0.20879476,0.20879476 0 0 0 -0.28753,-0.0582 l -1.42391,0.92418 a 0.21564049,0.21564049 0 0 0 -0.065,0.29094 l 0.98236,1.56425 a 0.21564049,0.21564049 0 0 0 0.30121,0.0582 z"
     fill="#464a5f"
     id="path328"
     style="stroke-width:0.342286" />
  <path
     d="m 231.78673,274.63157 1.44103,-1.02687 a 0.20879476,0.20879476 0 0 0 0.0514,-0.28752 l -0.99605,-1.48209 a 0.21221762,0.21221762 0 0 0 -0.29095,-0.0582 l -1.42391,0.92417 a 0.21221762,0.21221762 0 0 0 -0.0616,0.29095 l 0.98236,1.56425 a 0.20879476,0.20879476 0 0 0 0.29779,0.0753 z"
     fill="#464a5f"
     id="path330"
     style="stroke-width:0.342286" />
  <path
     d="m 230.11979,272.32455 1.53003,-1.07135 a 0.16087465,0.16087465 0 0 0 0.0377,-0.21907 l -1.05424,-1.56767 a 0.16087465,0.16087465 0 0 0 -0.21906,-0.0411 l -1.50948,0.98237 a 0.15745179,0.15745179 0 0 0 -0.048,0.21564 l 1.02686,1.65666 a 0.15745179,0.15745179 0 0 0 0.23617,0.0445 z"
     fill="#464a5f"
     id="path332"
     style="stroke-width:0.342286" />
  <path
     d="m 245.90947,300.02922 1.32123,-0.9139 a 0.3422865,0.3422865 0 0 0 0.0822,-0.46551 l -2.53635,-3.64193 a 0.3422865,0.3422865 0 0 0 -0.45866,-0.089 l -1.34861,0.87625 a 0.3422865,0.3422865 0 0 0 -0.0924,0.47577 l 2.57058,3.67275 a 0.3422865,0.3422865 0 0 0 0.46208,0.0855 z"
     fill="#464a5f"
     id="path334"
     style="stroke-width:0.342286" />
  <path
     d="m 229.31885,276.37039 1.60532,-1.13641 a 0.15402892,0.15402892 0 0 0 0.0377,-0.21906 l -2.73829,-3.90891 a 0.15745179,0.15745179 0 0 0 -0.21564,-0.0412 l -1.64982,1.07136 a 0.15745179,0.15745179 0 0 0 -0.0445,0.22249 l 2.78278,3.97395 a 0.16087465,0.16087465 0 0 0 0.22249,0.0377 z"
     fill="#464a5f"
     id="path336"
     style="stroke-width:0.342286" />
  <path
     d="m 241.59667,288.80565 1.52316,-1.02687 a 0.16087465,0.16087465 0 0 0 0.0445,-0.21906 l -5.85314,-8.67696 a 0.15402892,0.15402892 0 0 0 -0.21564,-0.0445 l -1.64298,1.06794 a 0.15745179,0.15745179 0 0 0 -0.0445,0.22249 l 5.96949,8.65299 a 0.15745179,0.15745179 0 0 0 0.21906,0.024 z"
     fill="#464a5f"
     id="path338"
     style="stroke-width:0.342286" />
  <path
     d="m 246.8268,288.84672 6.70538,-4.61402 a 0.85571626,0.85571626 0 0 0 0.22593,-1.18432 l -8.53321,-12.70909 a 0.8591391,0.8591391 0 0 0 -1.19458,-0.22933 l -6.89707,4.70301 a 0.85571626,0.85571626 0 0 0 -0.22592,1.19458 l 8.73174,12.62011 a 0.85229337,0.85229337 0 0 0 1.18773,0.21906 z"
     opacity="0.1"
     id="path340"
     style="stroke-width:0.342286" />
  <path
     d="m 246.78572,289.05894 6.7054,-4.61403 a 0.8591391,0.8591391 0 0 0 0.22589,-1.1843 l -8.54003,-12.69199 a 0.85571626,0.85571626 0 0 0 -1.19458,-0.23275 l -6.89023,4.68932 a 0.85571626,0.85571626 0 0 0 -0.22591,1.19458 l 8.73172,12.62695 a 0.85229337,0.85229337 0 0 0 1.18774,0.21222 z"
     fill="#939498"
     id="path342"
     style="stroke-width:0.342286" />
  <path
     d="m 235.94894,317.67066 3.26541,-9.78939 -21.81051,-31.39793 -3.16614,9.7175 a 1.7798898,1.7798898 0 0 0 0.23276,1.5711 l 20.8521,29.98772 a 0.3422865,0.3422865 0 0 0 0.62638,-0.089 z"
     fill="#dc5c01"
     id="path344"
     style="stroke-width:0.342286" />
  <text
     xml:space="preserve"
     id="text353"
     style="font-style:normal;font-weight:normal;font-size:48px;line-height:1.25;font-family:sans-serif;white-space:pre;shape-inside:url(#rect355);fill:#333333;fill-opacity:1;stroke:none;"
     transform="translate(34.334885,364.15787)"><tspan
       x="85.316406"
       y="122.86607"><tspan
         style="font-style:normal;font-variant:normal;font-weight:bold;font-stretch:normal;font-size:48px;font-family:Lora;-inkscape-font-specification:'Lora Bold';fill:#333333">Our 
</tspan></tspan><tspan
       x="85.316406"
       y="182.93294"><tspan
         style="font-style:normal;font-variant:normal;font-weight:bold;font-stretch:normal;font-size:48px;font-family:Lora;-inkscape-font-specification:'Lora Bold';fill:#333333">Clientele</tspan></tspan></text>
</svg>
