<?xml version="1.0" encoding="UTF-8" standalone="no"?>
<svg
   xmlns:dc="http://purl.org/dc/elements/1.1/"
   xmlns:cc="http://creativecommons.org/ns#"
   xmlns:rdf="http://www.w3.org/1999/02/22-rdf-syntax-ns#"
   xmlns:svg="http://www.w3.org/2000/svg"
   xmlns="http://www.w3.org/2000/svg"
   xmlns:xlink="http://www.w3.org/1999/xlink"
   xmlns:sodipodi="http://sodipodi.sourceforge.net/DTD/sodipodi-0.dtd"
   xmlns:inkscape="http://www.inkscape.org/namespaces/inkscape"
   id="ae37f038-3a9e-4b82-ad68-fc94ba16af2a"
   data-name="Layer 1"
   width="1096"
   height="574.74"
   viewBox="0 0 1096 574.74"
   version="1.1"
   sodipodi:docname="contact.svg"
   inkscape:version="1.0.1 (3bc2e813f5, 2020-09-07)">
  <metadata
     id="metadata454">
    <rdf:RDF>
      <cc:Work
         rdf:about="">
        <dc:format>image/svg+xml</dc:format>
        <dc:type
           rdf:resource="http://purl.org/dc/dcmitype/StillImage" />
      </cc:Work>
    </rdf:RDF>
  </metadata>
  <sodipodi:namedview
     pagecolor="#ffffff"
     bordercolor="#666666"
     borderopacity="1"
     objecttolerance="10"
     gridtolerance="10"
     guidetolerance="10"
     inkscape:pageopacity="0"
     inkscape:pageshadow="2"
     inkscape:window-width="1920"
     inkscape:window-height="1009"
     id="namedview452"
     showgrid="false"
     inkscape:zoom="0.95072993"
     inkscape:cx="548"
     inkscape:cy="362.57562"
     inkscape:window-x="-8"
     inkscape:window-y="-8"
     inkscape:window-maximized="1"
     inkscape:current-layer="ae37f038-3a9e-4b82-ad68-fc94ba16af2a"
     inkscape:document-rotation="0" />
  <defs
     id="defs115">
    <rect
       x="368.13819"
       y="122.01152"
       width="350.2572"
       height="106.23416"
       id="rect997" />
    <linearGradient
       id="eb6c86d6-45fa-49e0-9a60-1b0612516196"
       x1="819.07"
       y1="732.58"
       x2="819.07"
       y2="560.46"
       gradientUnits="userSpaceOnUse">
      <stop
         offset="0"
         stop-color="gray"
         stop-opacity="0.25"
         id="stop2" />
      <stop
         offset="0.54"
         stop-color="gray"
         stop-opacity="0.12"
         id="stop4" />
      <stop
         offset="1"
         stop-color="gray"
         stop-opacity="0.1"
         id="stop6" />
    </linearGradient>
    <pattern
       id="ad310e25-2b04-44c8-bb7b-982389166780"
       data-name="New Pattern 3"
       width="36.88"
       height="49.48"
       patternUnits="userSpaceOnUse"
       viewBox="0 0 36.88 49.48">
      <rect
         width="36.88"
         height="49.48"
         fill="none"
         id="rect9" />
      <path
         d="M4.33,13.19c4.5,0,4.51-7,0-7s-4.52,7,0,7Z"
         id="path11" />
      <path
         d="M4.51,17.16c4.51,0,4.52-7,0-7s-4.51,7,0,7Z"
         id="path13" />
      <path
         d="M4.51,20.94c4.51,0,4.52-7,0-7s-4.51,7,0,7Z"
         id="path15" />
      <path
         d="M3.38,24.72c4.51,0,4.51-7,0-7s-4.51,7,0,7Z"
         id="path17" />
      <path
         d="M1.09,28.29l.2.38a3.52,3.52,0,0,0,4.78,1.25,3.58,3.58,0,0,0,1.26-4.79l-.19-.37A3.52,3.52,0,0,0,2.35,23.5a3.59,3.59,0,0,0-1.26,4.79Z"
         id="path19" />
      <path
         d="M1.49,30.1l.18.57a3.73,3.73,0,0,0,1.61,2.09,3.59,3.59,0,0,0,2.7.35A3.54,3.54,0,0,0,8.42,28.8l-.18-.56a3.68,3.68,0,0,0-1.61-2.1,3.61,3.61,0,0,0-2.69-.35A3.56,3.56,0,0,0,1.49,30.1Z"
         id="path21" />
      <path
         d="M1.58,33.88v.38a3.54,3.54,0,0,0,3.5,3.5,3.56,3.56,0,0,0,3.5-3.5v-.38a3.54,3.54,0,0,0-3.5-3.5,3.57,3.57,0,0,0-3.5,3.5Z"
         id="path23" />
      <path
         d="M4.89,42.3c4.51,0,4.51-7,0-7s-4.51,7,0,7Z"
         id="path25" />
      <path
         d="M1.77,42v.19a3.54,3.54,0,0,0,3.5,3.5,3.56,3.56,0,0,0,3.5-3.5V42a3.54,3.54,0,0,0-3.5-3.5A3.56,3.56,0,0,0,1.77,42Z"
         id="path27" />
      <path
         d="M6,49.29c4.5,0,4.51-7,0-7s-4.52,7,0,7Z"
         id="path29" />
      <path
         d="M10,14.14c4.5,0,4.51-7,0-7s-4.52,7,0,7Z"
         id="path31" />
      <path
         d="M6.59,20.94c4.51,0,4.52-7,0-7s-4.51,7,0,7Z"
         id="path33" />
      <path
         d="M8.48,27c4.51,0,4.51-7,0-7s-4.51,7,0,7Z"
         id="path35" />
      <path
         d="M8.48,29.26c4.51,0,4.51-7,0-7s-4.51,7,0,7Z"
         id="path37" />
      <path
         d="M14.91,33.79c4.5,0,4.51-7,0-7s-4.51,7,0,7Z"
         id="path39" />
      <path
         d="M9.81,38.52c4.5,0,4.51-7,0-7s-4.52,7,0,7Z"
         id="path41" />
      <path
         d="M10.56,45.13c4.51,0,4.51-7,0-7s-4.51,7,0,7Z"
         id="path43" />
      <path
         d="M10.56,49.48c4.51,0,4.51-7,0-7s-4.51,7,0,7Z"
         id="path45" />
      <path
         d="M12.83,18.12c2.57,0,2.58-4,0-4s-2.58,4,0,4Z"
         id="path47" />
      <path
         d="M13,20.39c2.57,0,2.58-4,0-4s-2.58,4,0,4Z"
         id="path49" />
      <path
         d="M13.1,21v.19a2,2,0,0,0,4,0V21a2,2,0,0,0-4,0Z"
         id="path51" />
      <path
         d="M15.1,25.87c2.57,0,2.58-4,0-4s-2.58,4,0,4Z"
         id="path53" />
      <path
         d="M16.61,11.07a1,1,0,0,0,0-2,1,1,0,0,0,0,2Z"
         id="path55" />
      <path
         d="M21.71,16.55a1,1,0,0,0,0-2,1,1,0,0,0,0,2Z"
         id="path57" />
      <path
         d="M16.85,8.94V8.56a1,1,0,0,0-2,0v.38a1,1,0,0,0,2,0Z"
         id="path59" />
      <path
         d="M16.48,4.78V4.59a1,1,0,0,0-2,0v.19a1,1,0,0,0,2,0Z"
         id="path61" />
      <path
         d="M15.48,2a1,1,0,0,0,0-2,1,1,0,0,0,0,2Z"
         id="path63" />
      <path
         d="M10.56,2a1,1,0,0,0,0-2,1,1,0,0,0,0,2Z"
         id="path65" />
      <path
         d="M10.37,4.65a1,1,0,0,0,0-2,1,1,0,0,0,0,2Z"
         id="path67" />
      <path
         d="M7.35,6.16a1,1,0,0,0,0-2,1,1,0,0,0,0,2Z"
         id="path69" />
      <path
         d="M11.88,7.1h.38a1,1,0,0,0,0-2h-.38a1,1,0,0,0,0,2Z"
         id="path71" />
      <path
         d="M13.28,11l.57,1.32a1,1,0,0,0,1.37.36,1,1,0,0,0,.36-1.37L15,10a1,1,0,0,0-1.37-.36A1,1,0,0,0,13.28,11Z"
         id="path73" />
      <path
         d="M18.44,19.33v.19a1,1,0,0,0,2,0v-.19a1,1,0,0,0-2,0Z"
         id="path75" />
      <path
         d="M20.68,24.93l.19.38c.57,1.15,2.3.14,1.72-1l-.19-.38c-.57-1.15-2.3-.14-1.72,1Z"
         id="path77" />
      <path
         d="M22.13,29.38a2.48,2.48,0,0,0-.84,1.86,1,1,0,0,0,2,0,.56.56,0,0,1,.25-.44,1,1,0,0,0,0-1.42,1,1,0,0,0-1.41,0Z"
         id="path79" />
      <path
         d="M20.32,33.41l-.54,1.71c-.38,1.23,1.55,1.76,1.93.53l.54-1.71c.38-1.23-1.55-1.76-1.93-.53Z"
         id="path81" />
      <path
         d="M19.44,37h-.19a1,1,0,0,0,0,2h.19a1,1,0,0,0,0-2Z"
         id="path83" />
      <path
         d="M17.64,41.5l-.19.38c-.58,1.15,1.15,2.16,1.72,1l.19-.38c.58-1.15-1.15-2.16-1.72-1Z"
         id="path85" />
      <path
         d="M15.8,47.87v.56a1,1,0,0,0,2,0v-.56a1,1,0,0,0-2,0Z"
         id="path87" />
      <path
         d="M14.34,49.43a1,1,0,0,0,0-2,1,1,0,0,0,0,2Z"
         id="path89" />
      <path
         d="M14.34,41.31a1,1,0,0,0,0-2,1,1,0,0,0,0,2Z"
         id="path91" />
      <path
         d="M17.13,36.47a2,2,0,0,0,1-1.64,1,1,0,0,0-2,0c0-.13.19-.2,0-.08-1.15.58-.14,2.3,1,1.72Z"
         id="path93" />
      <path
         d="M17.37,31.29a1,1,0,0,0,0-2,1,1,0,0,0,0,2Z"
         id="path95" />
      <path
         d="M18.12,28.46a1,1,0,0,0,0-2,1,1,0,0,0,0,2Z"
         id="path97" />
      <path
         d="M19,24.94l.19-.38c.58-1.15-1.15-2.16-1.72-1l-.19.38c-.58,1.15,1.15,2.16,1.72,1Z"
         id="path99" />
      <path
         d="M17.93,16a1,1,0,0,0,0-2,1,1,0,0,0,0,2Z"
         id="path101" />
      <path
         d="M24.64,16.05l.57.94a1,1,0,0,0,1.72-1L26.37,15a1,1,0,0,0-1.73,1Z"
         id="path103" />
      <path
         d="M34.88,29.72v.19a1,1,0,0,0,2,0v-.19a1,1,0,0,0-2,0Z"
         id="path105" />
      <path
         d="M24,39.23a1,1,0,0,0,0-2,1,1,0,0,0,0,2Z"
         id="path107" />
      <path
         d="M22.85,29a1,1,0,0,0,0-2,1,1,0,0,0,0,2Z"
         id="path109" />
      <path
         d="M18.24,21.9l.57-.56c.93-.89-.48-2.3-1.41-1.41l-.58.56c-.93.89.49,2.3,1.42,1.41Z"
         id="path111" />
    </pattern>
    <linearGradient
       id="a964f849-fa65-4178-8cc4-fb8fb10b3617"
       x1="462.91"
       y1="660.68"
       x2="462.91"
       y2="559.69"
       xlink:href="#eb6c86d6-45fa-49e0-9a60-1b0612516196" />
  </defs>
  <title
     id="title117">contact us</title>
  <g
     opacity="0.1"
     id="g159"
     transform="matrix(0.85368437,0,0,0.85368437,65.213052,-1.1042492)">
    <ellipse
       cx="1038.58"
       cy="322.12"
       rx="11.38"
       ry="14.9"
       fill="#3f3d56"
       id="ellipse147" />
    <path
       d="m 1081.57,421 a 18,18 0 0 1 -2.38,-9.11 c 0,-8.23 5.1,-14.9 11.39,-14.9 6.29,0 11.38,6.67 11.38,14.9 a 18,18 0 0 1 -2.38,9.11 18.61,18.61 0 0 1 0,18.21 18.61,18.61 0 0 1 0,18.21 17.94,17.94 0 0 1 2.38,9.11 c 0,8.22 -5.1,14.9 -11.38,14.9 -6.28,0 -11.39,-6.68 -11.39,-14.9 a 17.94,17.94 0 0 1 2.38,-9.11 18.61,18.61 0 0 1 0,-18.21 18.61,18.61 0 0 1 0,-18.21 z"
       transform="translate(-52,-162.63)"
       fill="#3f3d56"
       id="path149" />
    <ellipse
       cx="1038.58"
       cy="231.07001"
       rx="11.38"
       ry="14.9"
       fill="#3f3d56"
       id="ellipse151" />
    <ellipse
       cx="1038.58"
       cy="212.86"
       rx="11.38"
       ry="14.9"
       fill="#3f3d56"
       id="ellipse153" />
    <path
       d="m 1133.18,250.86 a 53.08,53.08 0 0 0 4.24,-6.24 l -29.9,-4.91 32.34,0.24 a 54.62,54.62 0 0 0 1,-43.2 l -43.39,22.51 40,-29.42 a 54.53,54.53 0 1 0 -90,61 54.54,54.54 0 0 0 -6.22,9.94 l 38.83,20.22 -41.39,-13.89 a 54.53,54.53 0 0 0 8.79,51.2 54.52,54.52 0 1 0 85.7,0 54.52,54.52 0 0 0 0,-67.42 z"
       transform="translate(-52,-162.63)"
       fill="#f8a73e"
       id="path155" />
    <path
       d="m 1035.81,284.57 a 54.27,54.27 0 0 0 11.67,33.71 54.52,54.52 0 1 0 85.7,0 c 7.31,-9.28 -97.37,-39.83 -97.37,-33.71 z"
       transform="translate(-52,-162.63)"
       opacity="0.1"
       id="path157" />
  </g>
  <g
     opacity="0.1"
     id="g173"
     transform="matrix(0.85368437,0,0,0.85368437,65.213052,-1.1042492)">
    <ellipse
       cx="928.71997"
       cy="324.26001"
       rx="8.5100002"
       ry="11.13"
       fill="#3f3d56"
       id="ellipse161" />
    <path
       d="m 974,439.26 a 13.43,13.43 0 0 1 -1.77,-6.8 c 0,-6.15 3.81,-11.14 8.5,-11.14 4.69,0 8.51,5 8.51,11.14 a 13.33,13.33 0 0 1 -1.78,6.8 13.9,13.9 0 0 1 0,13.61 13.9,13.9 0 0 1 0,13.61 13.33,13.33 0 0 1 1.78,6.8 c 0,6.15 -3.81,11.14 -8.51,11.14 -4.7,0 -8.5,-5 -8.5,-11.14 a 13.43,13.43 0 0 1 1.77,-6.8 14,14 0 0 1 0,-13.61 14,14 0 0 1 0,-13.61 z"
       transform="translate(-52,-162.63)"
       fill="#3f3d56"
       id="path163" />
    <ellipse
       cx="928.71997"
       cy="256.22"
       rx="8.5100002"
       ry="11.13"
       fill="#3f3d56"
       id="ellipse165" />
    <ellipse
       cx="928.71997"
       cy="242.61"
       rx="8.5100002"
       ry="11.13"
       fill="#3f3d56"
       id="ellipse167" />
    <path
       d="m 1012.56,312.11 a 39,39 0 0 0 3.17,-4.66 l -22.35,-3.67 24.17,0.18 a 40.84,40.84 0 0 0 0.78,-32.29 l -32.43,16.83 29.91,-22 a 40.75,40.75 0 1 0 -67.29,45.6 41.2,41.2 0 0 0 -4.65,7.43 l 29,15.07 L 942,324.23 a 40.76,40.76 0 0 0 6.57,38.26 40.74,40.74 0 1 0 64,0 40.74,40.74 0 0 0 0,-50.38 z"
       transform="translate(-52,-162.63)"
       fill="#f8a73e"
       id="path169" />
    <path
       d="m 939.8,337.3 a 40.57,40.57 0 0 0 8.72,25.19 40.74,40.74 0 1 0 64,0 C 1018,355.56 939.8,332.73 939.8,337.3 Z"
       transform="translate(-52,-162.63)"
       opacity="0.1"
       id="path171" />
  </g>
  <g
     opacity="0.1"
     id="g187"
     transform="matrix(0.85368437,0,0,0.85368437,65.213052,-1.1042492)">
    <ellipse
       cx="61.59"
       cy="322.12"
       rx="11.38"
       ry="14.9"
       fill="#3f3d56"
       id="ellipse175" />
    <path
       d="m 122.59,421 a 18,18 0 0 0 2.38,-9.11 c 0,-8.23 -5.1,-14.9 -11.38,-14.9 -6.28,0 -11.38,6.67 -11.38,14.9 a 18,18 0 0 0 2.37,9.11 18.67,18.67 0 0 0 0,18.21 18.67,18.67 0 0 0 0,18.21 17.93,17.93 0 0 0 -2.37,9.11 c 0,8.22 5.09,14.9 11.38,14.9 6.29,0 11.41,-6.66 11.41,-14.88 a 17.94,17.94 0 0 0 -2.38,-9.11 18.61,18.61 0 0 0 0,-18.21 18.61,18.61 0 0 0 0,-18.21 z"
       transform="translate(-52,-162.63)"
       fill="#3f3d56"
       id="path177" />
    <ellipse
       cx="61.59"
       cy="231.07001"
       rx="11.38"
       ry="14.9"
       fill="#3f3d56"
       id="ellipse179" />
    <ellipse
       cx="61.59"
       cy="212.86"
       rx="11.38"
       ry="14.9"
       fill="#3f3d56"
       id="ellipse181" />
    <path
       d="m 71,250.86 a 54.33,54.33 0 0 1 -4.24,-6.24 L 96.67,239.71 64.3,240 a 54.62,54.62 0 0 1 -1,-43.2 l 43.4,22.51 -40,-29.42 a 54.52,54.52 0 1 1 90,61 54.54,54.54 0 0 1 6.22,9.94 l -38.84,20.17 41.4,-13.89 a 54.59,54.59 0 0 1 -8.8,51.2 54.52,54.52 0 1 1 -85.7,0 54.52,54.52 0 0 1 0,-67.42 z"
       transform="translate(-52,-162.63)"
       fill="#f8a73e"
       id="path183" />
    <path
       d="m 168.35,284.57 a 54.27,54.27 0 0 1 -11.67,33.71 54.52,54.52 0 1 1 -85.7,0 c -7.31,-9.28 97.37,-39.83 97.37,-33.71 z"
       transform="translate(-52,-162.63)"
       opacity="0.1"
       id="path185" />
  </g>
  <g
     opacity="0.1"
     id="g201"
     transform="matrix(0.85368437,0,0,0.85368437,65.213052,-1.1042492)">
    <ellipse
       cx="171.44"
       cy="324.26001"
       rx="8.5100002"
       ry="11.13"
       fill="#3f3d56"
       id="ellipse189" />
    <path
       d="m 230.17,439.26 a 13.43,13.43 0 0 0 1.77,-6.8 c 0,-6.15 -3.8,-11.14 -8.5,-11.14 -4.7,0 -8.51,5 -8.51,11.14 a 13.43,13.43 0 0 0 1.78,6.8 13.9,13.9 0 0 0 0,13.61 13.9,13.9 0 0 0 0,13.61 13.43,13.43 0 0 0 -1.78,6.8 c 0,6.15 3.81,11.14 8.51,11.14 4.7,0 8.5,-5 8.5,-11.14 a 13.43,13.43 0 0 0 -1.77,-6.8 14,14 0 0 0 0,-13.61 14,14 0 0 0 0,-13.61 z"
       transform="translate(-52,-162.63)"
       fill="#3f3d56"
       id="path191" />
    <ellipse
       cx="171.44"
       cy="256.22"
       rx="8.5100002"
       ry="11.13"
       fill="#3f3d56"
       id="ellipse193" />
    <ellipse
       cx="171.44"
       cy="242.61"
       rx="8.5100002"
       ry="11.13"
       fill="#3f3d56"
       id="ellipse195" />
    <path
       d="m 191.6,312.11 a 40.21,40.21 0 0 1 -3.17,-4.66 l 22.35,-3.67 -24.17,0.18 a 40.84,40.84 0 0 1 -0.78,-32.29 l 32.43,16.83 -29.91,-22 a 40.75,40.75 0 1 1 67.29,45.6 40.12,40.12 0 0 1 4.65,7.43 l -29,15.07 30.93,-10.38 a 40.76,40.76 0 0 1 -6.57,38.26 40.74,40.74 0 1 1 -64,0 40.74,40.74 0 0 1 0,-50.38 z"
       transform="translate(-52,-162.63)"
       fill="#f8a73e"
       id="path197" />
    <path
       d="m 264.36,337.3 a 40.57,40.57 0 0 1 -8.72,25.19 40.74,40.74 0 1 1 -64,0 c -5.5,-6.93 72.72,-29.76 72.72,-25.19 z"
       transform="translate(-52,-162.63)"
       opacity="0.1"
       id="path199" />
  </g>
  <ellipse
     cx="533.0321"
     cy="419.87314"
     rx="467.81903"
     ry="7.563643"
     fill="#f8a73e"
     opacity="0.1"
     id="ellipse203"
     style="stroke-width:0.853684" />
  <ellipse
     cx="533.0321"
     cy="463.97867"
     rx="467.81903"
     ry="7.563643"
     fill="#f8a73e"
     opacity="0.1"
     id="ellipse205"
     style="stroke-width:0.853684" />
  <ellipse
     cx="533.0321"
     cy="290.25821"
     rx="467.81903"
     ry="7.563643"
     fill="#f8a73e"
     opacity="0.1"
     id="ellipse207"
     style="stroke-width:0.853684" />
  <ellipse
     cx="533.0321"
     cy="355.0614"
     rx="467.81903"
     ry="7.563643"
     fill="#f8a73e"
     opacity="0.1"
     id="ellipse209"
     style="stroke-width:0.853684" />
  <path
     d="m 755.66443,93.116895 a 15.622424,15.622424 0 0 0 -9.04905,0.990274 13.36016,13.36016 0 0 1 -10.87594,0 15.263876,15.263876 0 0 0 -12.80527,0.247568 7.8880436,7.8880436 0 0 1 -3.67938,0.921979 c -5.1904,0 -9.50151,-5.224548 -10.39787,-12.113781 a 10.14177,10.14177 0 0 0 2.56105,-2.791548 c 3.03912,-4.900148 7.74292,-8.050243 13.03576,-8.050243 5.29284,0 9.93689,3.107411 12.976,7.956338 a 9.9710334,9.9710334 0 0 0 8.61368,4.729411 H 746.18 c 4.17451,-0.04268 7.75145,3.269612 9.48443,8.110002 z"
     fill="#f8a73e"
     opacity="0.1"
     id="path211"
     style="stroke-width:0.853684" />
  <path
     d="m 771.46613,71.475996 -8.38318,5.309917 5.1221,-9.253939 A 8.2807384,8.2807384 0 0 0 763.13417,65.7307 h -0.13659 a 9.6893176,9.6893176 0 0 1 -1.70737,-0.128052 l -2.88545,1.801274 1.22077,-2.21958 a 10.064939,10.064939 0 0 1 -4.97698,-3.773285 l -5.12211,3.226927 3.20985,-5.839201 c -2.97082,-3.5684 -6.98314,-5.753832 -11.38815,-5.753832 -5.29284,0 -9.99664,3.141558 -13.04429,8.041706 a 9.7405386,9.7405386 0 0 1 -8.61368,4.644043 h -0.28172 c -5.8392,0 -10.56861,6.616054 -10.56861,14.777277 0,8.161222 4.72941,14.785813 10.56861,14.785813 a 8.0160962,8.0160962 0 0 0 3.67938,-0.921979 15.246803,15.246803 0 0 1 12.80527,-0.256105 13.274792,13.274792 0 0 0 10.87594,0 15.298024,15.298024 0 0 1 12.68575,0.247568 7.9392646,7.9392646 0 0 0 3.63669,0.904905 c 5.8392,0 10.56862,-6.62459 10.56862,-14.785813 a 18.721298,18.721298 0 0 0 -2.19397,-9.00637 z"
     fill="#f8a73e"
     opacity="0.1"
     id="path213"
     style="stroke-width:0.853684" />
  <path
     d="m 399.2256,88.498462 a 10.961307,10.961307 0 0 0 -6.34288,0.691485 9.3222333,9.3222333 0 0 1 -7.60633,0 10.653981,10.653981 0 0 0 -8.95515,0.179274 5.6513905,5.6513905 0 0 1 -2.56105,0.640263 c -3.62816,0 -6.6502,-3.653769 -7.28193,-8.477086 a 7.1026539,7.1026539 0 0 0 1.81835,-1.954937 c 2.12568,-3.414738 5.4209,-5.634317 9.12589,-5.634317 3.70499,0 6.95752,2.176895 9.0832,5.566022 a 6.991675,6.991675 0 0 0 6.03555,3.312295 h 0.0939 c 2.86838,-0.01707 5.36968,2.304948 6.59045,5.677001 z"
     fill="#f8a73e"
     opacity="0.1"
     id="path215"
     style="stroke-width:0.853684" />
  <path
     d="m 410.28081,73.362639 -5.86481,3.722063 3.55986,-6.479464 a 5.7623695,5.7623695 0 0 0 -3.54279,-1.263453 h -0.10244 a 6.3940959,6.3940959 0 0 1 -1.21223,-0.09391 l -1.98909,1.263453 0.85369,-1.553706 a 7.0855802,7.0855802 0 0 1 -3.48304,-2.637884 l -3.55986,2.253726 2.25373,-4.080611 a 10.423486,10.423486 0 0 0 -7.97342,-4.037927 c -3.70499,0 -7.00021,2.202506 -9.12588,5.634317 a 6.8294749,6.8294749 0 0 1 -6.03555,3.252537 h -0.19635 c -4.08915,0 -7.40144,4.62697 -7.40144,10.346655 0,5.719685 3.31229,10.346654 7.40144,10.346654 a 5.5489484,5.5489484 0 0 0 2.56106,-0.6488 10.671055,10.671055 0 0 1 8.94661,-0.170737 9.4758965,9.4758965 0 0 0 3.83304,0.853685 9.390528,9.390528 0 0 0 3.78182,-0.802464 10.705202,10.705202 0 0 1 8.87832,0.170737 5.5318747,5.5318747 0 0 0 2.56105,0.631727 c 4.08061,0 7.39291,-4.635506 7.39291,-10.346655 a 13.086981,13.086981 0 0 0 -1.53663,-6.359948 z"
     fill="#f8a73e"
     opacity="0.1"
     id="path217"
     style="stroke-width:0.853684" />
  <path
     d="m 295.35782,155.43586 a 10.944234,10.944234 0 0 1 6.33434,0.69148 9.339307,9.339307 0 0 0 7.61486,0 10.688128,10.688128 0 0 1 8.95515,0.17074 5.5233379,5.5233379 0 0 0 2.56105,0.6488 c 3.62816,0 6.6502,-3.66231 7.27339,-8.48562 a 6.9575276,6.9575276 0 0 1 -1.80981,-1.95494 c -2.13421,-3.41474 -5.42943,-5.62578 -9.12588,-5.62578 -3.69646,0 -6.95753,2.16836 -9.09174,5.56602 a 6.991675,6.991675 0 0 1 -6.02701,3.3123 h -0.0939 c -2.87691,0.0171 -5.38675,2.33055 -6.59044,5.677 z"
     fill="#f8a73e"
     opacity="0.1"
     id="path219"
     style="stroke-width:0.853684" />
  <path
     d="m 284.29407,140.32564 5.87335,3.72207 -3.5684,-6.47093 a 5.7965169,5.7965169 0 0 1 3.55132,-1.27199 h 0.0939 a 7.2733908,7.2733908 0 0 0 1.22077,-0.0854 l 1.98908,1.25492 -0.85368,-1.54517 a 7.0770434,7.0770434 0 0 0 3.47449,-2.63789 l 3.55987,2.25373 -2.21958,-4.08915 a 10.414949,10.414949 0 0 1 7.97341,-4.02939 c 3.69645,0 7.00021,2.20251 9.12589,5.63432 a 6.8294749,6.8294749 0 0 0 6.02701,3.25254 h 0.20488 c 4.08061,0 7.39291,4.6355 7.39291,10.34665 0,5.71115 -3.3123,10.34666 -7.39291,10.34666 a 5.5404115,5.5404115 0 0 1 -2.56105,-0.64027 10.653981,10.653981 0 0 0 -8.95515,-0.17927 9.2710122,9.2710122 0 0 1 -3.82451,0.85368 9.390528,9.390528 0 0 1 -3.79035,-0.80246 10.688128,10.688128 0 0 0 -8.86979,0.17074 5.5318747,5.5318747 0 0 1 -2.56105,0.63172 c -4.08915,0 -7.40144,-4.62697 -7.40144,-10.34665 a 13.180887,13.180887 0 0 1 1.51102,-6.36849 z"
     fill="#f8a73e"
     opacity="0.1"
     id="path221"
     style="stroke-width:0.853684" />
  <path
     d="m 245.25309,461.59963 c 2.22812,-4.13183 -0.29879,-9.18564 -3.20131,-12.86502 -2.90253,-3.67938 -6.45386,-7.51242 -6.37703,-12.19915 0.11098,-6.73557 7.26486,-10.72228 12.97601,-14.29068 a 63.428749,63.428749 0 0 0 11.65279,-9.39053 17.184666,17.184666 0 0 0 3.57694,-4.7977 c 1.18662,-2.62935 1.15247,-5.63432 1.07564,-8.53684 q -0.36709,-14.41873 -1.42566,-28.82039"
     fill="none"
     stroke="#3f3d56"
     stroke-miterlimit="10"
     stroke-width="3.41474"
     id="path223" />
  <path
     d="m 274.39788,370.22126 a 10.508855,10.508855 0 0 0 -5.25016,-8.61368 l -2.35617,4.65258 0.0768,-5.63431 a 10.508855,10.508855 0 1 0 7.5295,9.59541 z"
     fill="#f8a73e"
     id="path225"
     style="stroke-width:0.853684" />
  <path
     d="m 255.65097,423.35024 a 10.508855,10.508855 0 0 1 -19.83963,-4.26842 10.244212,10.244212 0 0 1 0.68295,-4.26842 10.517391,10.517391 0 0 1 19.63474,0.11097 l -6.56483,5.34407 7.22217,-1.70737 a 10.449097,10.449097 0 0 1 -1.1354,4.78917 z"
     fill="#f8a73e"
     id="path227"
     style="stroke-width:0.853684" />
  <path
     d="m 250.46057,420.94718 a 10.508855,10.508855 0 0 1 -3.32937,-20.61647 l -0.0598,4.32817 2.38178,-4.71233 v 0 a 10.511785,10.511785 0 1 1 0.98174,21.00063 z"
     fill="#f8a73e"
     id="path229"
     style="stroke-width:0.853684" />
  <path
     d="m 275.97719,403.9674 a 10.508855,10.508855 0 1 1 4.64405,-19.63474 l -1.8525,5.12211 3.78182,-3.73914 a 10.508855,10.508855 0 0 1 -6.60751,18.24323 z"
     fill="#f8a73e"
     id="path231"
     style="stroke-width:0.853684" />
  <path
     d="m 272.98076,373.02134 c -2.42446,0.26464 -4.78063,1.01589 -7.22217,1.16955 -2.44154,0.15366 -5.12211,-0.43538 -6.64166,-2.32202 a 33.703459,33.703459 0 0 1 -1.9464,-3.41474 7.4782751,7.4782751 0 0 0 -2.64643,-2.49276 10.508855,10.508855 0 1 0 19.63474,6.98314 c -0.38415,0.009 -0.78538,0.0342 -1.17808,0.0768 z"
     opacity="0.1"
     id="path233"
     style="stroke-width:0.853684" />
  <path
     d="m 275.97719,403.9674 a 10.508855,10.508855 0 0 1 -9.99664,-14.9907 7.7770646,7.7770646 0 0 1 2.1086,2.11714 35.615712,35.615712 0 0 0 2.08299,3.4745 c 1.63907,1.92079 4.43916,2.56105 6.9746,2.433 2.53544,-0.12806 4.98552,-0.85369 7.51242,-1.06711 0.35001,0 0.70002,-0.0512 1.05857,-0.0598 a 10.508855,10.508855 0 0 1 -9.74054,8.09293 z"
     opacity="0.1"
     id="path235"
     style="stroke-width:0.853684" />
  <path
     d="m 250.46057,420.94718 a 10.508855,10.508855 0 0 1 -10.08202,-14.79435 8.5368437,8.5368437 0 0 1 2.22812,2.13421 35.197406,35.197406 0 0 0 2.27934,3.54279 c 1.76712,1.97201 4.75502,2.67204 7.43559,2.56106 2.68057,-0.11098 5.1221,-0.69149 7.68316,-0.85369 a 10.525928,10.525928 0 0 1 -9.54419,7.40998 z"
     opacity="0.1"
     id="path237"
     style="stroke-width:0.853684" />
  <path
     d="m 255.65097,423.35024 a 10.508855,10.508855 0 0 1 -19.83963,-4.26842 10.244212,10.244212 0 0 1 0.68295,-4.26842 10.491781,10.491781 0 0 1 2.30495,2.05737 c 0.99881,1.21224 1.65615,2.56106 2.81716,3.73061 2.14274,2.1086 5.61724,2.97935 8.69904,3.05619 a 44.135482,44.135482 0 0 0 5.33553,-0.30733 z"
     opacity="0.1"
     id="path239"
     style="stroke-width:0.853684" />
  <path
     d="m 111.57665,355.95778 c 2.22812,-4.13183 -0.29879,-9.18565 -3.20132,-12.86503 -2.90252,-3.67938 -6.45385,-7.52949 -6.37702,-12.19915 0.11098,-6.73556 7.26485,-10.72227 12.976,-14.29067 a 63.428749,63.428749 0 0 0 11.65279,-9.39053 17.184666,17.184666 0 0 0 3.57694,-4.79771 c 1.18662,-2.62934 1.15248,-5.63431 1.07564,-8.53684 q -0.37562,-14.41873 -1.42565,-28.82038"
     fill="none"
     stroke="#3f3d56"
     stroke-miterlimit="10"
     stroke-width="3.41474"
     id="path241" />
  <path
     d="m 140.72143,264.5794 a 10.508855,10.508855 0 0 0 -5.25016,-8.61367 l -2.35616,4.65258 0.0768,-5.63432 a 10.508855,10.508855 0 1 0 7.52949,9.59541 z"
     fill="#f8a73e"
     id="path243"
     style="stroke-width:0.853684" />
  <path
     d="m 121.97453,335.70838 a 10.508855,10.508855 0 0 1 -19.83963,-4.26842 10.244212,10.244212 0 0 1 0.68295,-4.26842 10.517391,10.517391 0 0 1 19.63474,0.11098 l -6.56483,5.34406 7.22217,-1.70736 a 10.449097,10.449097 0 0 1 -1.1354,4.78916 z"
     fill="#f8a73e"
     id="path245"
     style="stroke-width:0.853684" />
  <path
     d="m 116.78412,315.30533 a 10.508855,10.508855 0 0 1 -3.32936,-20.61648 l -0.0598,4.32818 2.38177,-4.71234 v 0 a 10.511787,10.511787 0 1 1 0.98174,21.00064 z"
     fill="#f8a73e"
     id="path247"
     style="stroke-width:0.853684" />
  <path
     d="m 142.30075,298.32555 a 10.508855,10.508855 0 1 1 4.64404,-19.63474 l -1.85249,5.1221 3.78182,-3.73914 a 10.508855,10.508855 0 0 1 -6.60752,18.24324 z"
     fill="#f8a73e"
     id="path249"
     style="stroke-width:0.853684" />
  <path
     d="m 139.30432,267.37949 c -2.42447,0.26464 -4.78063,1.01588 -7.22217,1.16955 -2.44154,0.15366 -5.12211,-0.43538 -6.64167,-2.32203 a 33.703459,33.703459 0 0 1 -1.9464,-3.41473 7.4782751,7.4782751 0 0 0 -2.64642,-2.49276 10.508855,10.508855 0 1 0 19.63474,6.98314 c -0.38416,0.009 -0.78539,0.0341 -1.17808,0.0768 z"
     opacity="0.1"
     id="path251"
     style="stroke-width:0.853684" />
  <path
     d="m 142.30075,298.32555 a 10.508855,10.508855 0 0 1 -9.99664,-14.9907 7.7770646,7.7770646 0 0 1 2.1086,2.11714 35.615712,35.615712 0 0 0 2.08299,3.47449 c 1.63907,1.92079 4.43915,2.56105 6.9746,2.433 2.53544,-0.12805 4.98551,-0.85368 7.51242,-1.0671 0.35001,0 0.70002,-0.0512 1.05857,-0.0598 a 10.508855,10.508855 0 0 1 -9.74054,8.09293 z"
     opacity="0.1"
     id="path253"
     style="stroke-width:0.853684" />
  <path
     d="m 116.78412,315.30533 a 10.508855,10.508855 0 0 1 -10.08201,-14.79435 8.5368437,8.5368437 0 0 1 2.22812,2.13421 35.197406,35.197406 0 0 0 2.27934,3.54279 c 1.76712,1.97201 4.75502,2.67203 7.43559,2.56105 2.68056,-0.11098 5.1221,-0.69148 7.68316,-0.85368 a 10.525928,10.525928 0 0 1 -9.5442,7.40998 z"
     opacity="0.1"
     id="path255"
     style="stroke-width:0.853684" />
  <path
     d="m 121.97453,335.70838 a 10.508855,10.508855 0 0 1 -19.83963,-4.26842 10.244212,10.244212 0 0 1 0.68295,-4.26842 10.491781,10.491781 0 0 1 2.30495,2.05738 c 0.99881,1.21223 1.65614,2.56105 2.81715,3.7306 2.14275,2.1086 5.61725,2.97936 8.69905,3.05619 a 44.135482,44.135482 0 0 0 5.33553,-0.30733 z"
     opacity="0.1"
     id="path257"
     style="stroke-width:0.853684" />
  <circle
     cx="674.48987"
     cy="267.00745"
     r="55.451309"
     fill="#3f3d56"
     id="circle277"
     style="stroke-width:0.554735" />
  <path
     d="m 698.29351,281.30849 c -1.93048,-1.93047 -6.57361,-4.84283 -8.87576,-5.93012 -2.65718,-1.27588 -3.63351,-1.25369 -5.51407,0.1054 -1.56435,1.10947 -2.57952,2.18011 -4.37685,1.78625 -1.79734,-0.39386 -5.35875,-3.07878 -8.80366,-6.51259 -3.44489,-3.43381 -6.11872,-6.97302 -6.50149,-8.79809 -0.38277,-1.82508 0.67123,-2.81806 1.7918,-4.38241 1.35355,-1.88055 1.39238,-2.85688 0.1054,-5.51407 -1.10947,-2.30215 -3.98855,-6.93418 -5.93567,-8.87576 -1.94712,-1.94157 -2.36872,-1.51442 -3.4338,-1.10947 a 19.859513,19.859513 0 0 0 -3.14535,1.66421 c -1.93048,1.29253 -3.01221,2.36872 -3.7722,3.98855 -0.75999,1.61982 -1.61983,4.62648 2.80141,12.49818 a 69.724645,69.724645 0 0 0 12.25964,16.34803 v 0 0 a 69.830044,69.830044 0 0 0 16.40352,12.28183 c 7.86614,4.43789 10.87835,3.55586 12.49818,2.80142 1.61982,-0.75444 2.696,-1.82508 3.98299,-3.7722 a 19.598788,19.598788 0 0 0 1.66421,-3.14534 c 0.36613,-1.0651 0.79882,-1.49779 -1.1483,-3.43382 z"
     fill="#f8a73e"
     id="path279"
     style="stroke-width:0.554735" />
  <path
     d="m 674.48983,211.56166 a 55.473501,55.473501 0 1 0 55.44576,55.44576 55.473501,55.473501 0 0 0 -55.44576,-55.44576 z m 0,103.52465 a 48.078883,48.078883 0 1 1 48.07888,-48.07889 48.078883,48.078883 0 0 1 -48.07888,48.07889 z"
     opacity="0.1"
     id="path281"
     style="stroke-width:0.554735" />
  <circle
     cx="547.09497"
     cy="351.23285"
     r="55.451309"
     fill="#3f3d56"
     id="circle283"
     style="stroke-width:0.554735" />
  <path
     d="m 578.63162,334.47985 -16.60322,16.89168 a 0.29955691,0.29955691 0 0 0 0,0.43269 l 11.64943,12.38723 a 2.0081408,2.0081408 0 0 1 -1.41456,3.42271 2.0192355,2.0192355 0 0 1 -1.42013,-0.58801 l -11.58841,-12.34286 a 0.31619895,0.31619895 0 0 0 -0.44379,0 l -2.8236,2.85134 a 12.409422,12.409422 0 0 1 -8.87576,3.73337 12.681243,12.681243 0 0 1 -9.03108,-3.83877 l -2.71266,-2.77367 a 0.31619895,0.31619895 0 0 0 -0.4438,0 l -11.56067,12.31512 a 2.0025934,2.0025934 0 0 1 -2.8347,0 1.9970461,1.9970461 0 0 1 0,-2.8347 l 11.60506,-12.3595 a 0.33284101,0.33284101 0 0 0 0,-0.43269 l -16.60321,-16.89168 a 0.30510425,0.30510425 0 0 0 -0.52146,0.21634 v 33.80001 a 4.9482363,4.9482363 0 0 0 4.9316,4.93159 h 54.29191 a 4.9482363,4.9482363 0 0 0 4.93159,-4.93159 v -33.77227 a 0.30510425,0.30510425 0 0 0 -0.53254,-0.21634 z"
     fill="#f8a73e"
     id="path285"
     style="stroke-width:0.554735" />
  <path
     d="m 547.09493,357.25727 a 8.3986879,8.3986879 0 0 0 6.05771,-2.49631 l 24.1809,-24.6136 a 4.8261946,4.8261946 0 0 0 -3.05104,-1.10947 h -54.33075 a 4.7929104,4.7929104 0 0 0 -3.05104,1.10947 l 24.18645,24.6136 a 8.3654038,8.3654038 0 0 0 6.00777,2.49631 z"
     fill="#f8a73e"
     id="path287"
     style="stroke-width:0.554735" />
  <path
     d="m 546.39597,295.78708 a 55.473501,55.473501 0 1 0 55.44576,55.44576 55.473501,55.473501 0 0 0 -55.44576,-55.44576 z m 0,103.52465 a 48.078883,48.078883 0 1 1 48.07888,-48.07889 48.078883,48.078883 0 0 1 -48.07888,48.07889 z"
     opacity="0.1"
     id="path289"
     style="stroke-width:0.554735" />
  <circle
     cx="415.49515"
     cy="309.82184"
     r="55.451309"
     fill="#3f3d56"
     id="circle291"
     style="stroke-width:0.554735" />
  <path
     d="m 415.49514,283.2889 -22.10618,51.00233 2.06361,2.06362 20.04813,-8.84248 20.04812,8.84248 2.06361,-2.06362 z"
     fill="#f8a73e"
     id="path293"
     style="stroke-width:0.554735" />
  <path
     d="m 415.49514,254.35392 a 55.473501,55.473501 0 1 0 55.44578,55.4735 55.473501,55.473501 0 0 0 -55.44578,-55.4735 z m 0,103.52464 a 48.078883,48.078883 0 1 1 48.07889,-48.05114 48.078883,48.078883 0 0 1 -48.07889,48.07333 z"
     opacity="0.1"
     id="path295"
     style="stroke-width:0.554735" />
  <path
     d="m 779.22612,352.63695 c 2.22811,-4.1233 -0.29879,-9.18565 -3.20986,-12.86503 -2.91106,-3.67938 -6.44531,-7.50388 -6.36848,-12.19915 0.10244,-6.73557 7.25632,-10.71374 12.976,-14.29067 a 63.087275,63.087275 0 0 0 11.64426,-9.39053 17.013929,17.013929 0 0 0 3.58547,-4.78917 c 1.17809,-2.63789 1.14394,-5.63432 1.07564,-8.53684 q -0.37562,-14.42727 -1.42565,-28.82039"
     fill="none"
     stroke="#3f3d56"
     stroke-miterlimit="10"
     stroke-width="3.41474"
     id="path361" />
  <path
     d="m 808.36237,261.23296 a 10.491781,10.491781 0 0 0 -5.24163,-8.60514 l -2.35617,4.65258 0.0683,-5.63432 a 10.312507,10.312507 0 0 0 -3.45742,-0.4183 10.508855,10.508855 0 1 0 10.98692,10.00518 z"
     fill="#f8a73e"
     id="path363"
     style="stroke-width:0.853684" />
  <path
     d="m 789.62399,332.37048 a 10.508855,10.508855 0 1 1 0.50368,-8.46855 l -6.56484,5.34406 7.22217,-1.70736 a 10.449097,10.449097 0 0 1 -1.16101,4.83185 z"
     fill="#f8a73e"
     id="path365"
     style="stroke-width:0.853684" />
  <path
     d="m 784.43359,311.95889 a 10.508855,10.508855 0 0 1 -3.3379,-20.61648 l -0.0512,4.32818 2.38178,-4.7038 v 0 a 10.517391,10.517391 0 0 1 10.98691,10.01371 10.500318,10.500318 0 0 1 -10.00518,10.98692 z"
     fill="#f8a73e"
     id="path367"
     style="stroke-width:0.853684" />
  <path
     d="m 809.94168,294.98764 a 10.508855,10.508855 0 1 1 4.65258,-19.63474 l -1.86103,5.12211 3.82451,-3.67085 a 10.449097,10.449097 0 0 1 3.41473,7.25632 10.14177,10.14177 0 0 1 -0.26464,2.89399 10.508855,10.508855 0 0 1 -9.76615,8.03317 z"
     fill="#f8a73e"
     id="path369"
     style="stroke-width:0.853684" />
  <path
     d="m 806.95379,264.03305 c -2.42447,0.27317 -4.78917,1.02442 -7.22217,1.17808 -2.433,0.15366 -5.12211,-0.43538 -6.6502,-2.33056 a 32.610743,32.610743 0 0 1 -1.93787,-3.41474 7.5551067,7.5551067 0 0 0 -2.64642,-2.49275 10.508855,10.508855 0 1 0 19.63474,6.9746 c -0.39269,0.0171 -0.78539,0.0427 -1.17808,0.0854 z"
     opacity="0.1"
     id="path371"
     style="stroke-width:0.853684" />
  <path
     d="m 809.94168,294.98764 a 10.517391,10.517391 0 0 1 -9.99664,-14.9907 7.7770646,7.7770646 0 0 1 2.11713,2.1086 33.694922,33.694922 0 0 0 2.08299,3.4745 c 1.63054,1.92933 4.43063,2.56105 6.96607,2.44154 2.53544,-0.11952 4.98552,-0.85369 7.51242,-1.06711 0.35001,0 0.70856,-0.0598 1.05857,-0.0683 a 10.508855,10.508855 0 0 1 -9.74054,8.10146 z"
     opacity="0.1"
     id="path373"
     style="stroke-width:0.853684" />
  <path
     d="m 784.43359,311.95889 a 10.500318,10.500318 0 0 1 -10.08201,-14.81143 8.6648963,8.6648963 0 0 1 2.21958,2.13421 c 0.85368,1.15248 1.32321,2.48422 2.27934,3.54279 1.77566,1.98055 4.75502,2.67203 7.44412,2.61228 2.68911,-0.0598 5.12211,-0.70002 7.68316,-0.89637 a 10.508855,10.508855 0 0 1 -9.54419,7.41852 z"
     opacity="0.1"
     id="path375"
     style="stroke-width:0.853684" />
  <path
     d="m 789.62399,332.37048 a 10.517391,10.517391 0 0 1 -19.16521,-8.53684 10.295433,10.295433 0 0 1 2.30495,2.05737 c 1.00734,1.22077 1.66468,2.56106 2.81716,3.73914 2.15128,2.1086 5.61724,2.97082 8.70758,3.05619 a 46.047735,46.047735 0 0 0 5.33552,-0.31586 z"
     opacity="0.1"
     id="path377"
     style="stroke-width:0.853684" />
  <path
     d="m 914.96193,464.39697 c 2.22812,-4.1233 -0.29879,-9.18564 -3.20985,-12.86502 -2.91106,-3.67938 -6.44532,-7.50389 -6.36849,-12.19915 0.10245,-6.73557 7.25632,-10.71374 12.97601,-14.29068 a 63.087275,63.087275 0 0 0 11.64425,-9.39053 17.013929,17.013929 0 0 0 3.58548,-4.78917 c 1.17808,-2.63788 1.14393,-5.63431 1.07564,-8.53684 q -0.36709,-14.42727 -1.42566,-28.82039"
     fill="none"
     stroke="#3f3d56"
     stroke-miterlimit="10"
     stroke-width="3.41474"
     id="path379" />
  <path
     d="m 944.09818,372.99298 a 10.491781,10.491781 0 0 0 -5.24162,-8.60513 l -2.35617,4.65258 0.0683,-5.63432 a 10.312507,10.312507 0 0 0 -3.41473,-0.41831 10.508855,10.508855 0 1 0 10.98691,10.00518 z"
     fill="#f8a73e"
     id="path381"
     style="stroke-width:0.853684" />
  <path
     d="m 925.35981,444.1305 a 10.508855,10.508855 0 1 1 0.50367,-8.46855 l -6.56483,5.34407 7.22217,-1.70737 a 10.449097,10.449097 0 0 1 -1.16101,4.83185 z"
     fill="#f8a73e"
     id="path383"
     style="stroke-width:0.853684" />
  <path
     d="m 920.16941,423.71891 a 10.508855,10.508855 0 0 1 -3.33791,-20.61648 l -0.0512,4.32818 2.38178,-4.7038 v 0 a 10.517391,10.517391 0 0 1 10.98692,10.01372 10.500318,10.500318 0 0 1 -10.00518,10.98692 z"
     fill="#f8a73e"
     id="path385"
     style="stroke-width:0.853684" />
  <path
     d="m 945.6775,406.74766 a 10.508855,10.508855 0 1 1 4.65258,-19.63474 l -1.86104,5.12211 3.82451,-3.67084 a 10.449097,10.449097 0 0 1 3.41474,7.25631 10.14177,10.14177 0 0 1 -0.26464,2.89399 10.508855,10.508855 0 0 1 -9.76615,8.03317 z"
     fill="#f8a73e"
     id="path387"
     style="stroke-width:0.853684" />
  <path
     d="m 942.6896,375.79307 c -2.42446,0.27318 -4.78917,1.02442 -7.22217,1.17808 -2.433,0.15367 -5.12211,-0.43538 -6.6502,-2.33055 a 32.610743,32.610743 0 0 1 -1.93786,-3.41474 7.5551067,7.5551067 0 0 0 -2.64643,-2.49276 10.508855,10.508855 0 1 0 19.63475,6.9746 c -0.3927,0.0171 -0.78539,0.0427 -1.17809,0.0854 z"
     opacity="0.1"
     id="path389"
     style="stroke-width:0.853684" />
  <path
     d="m 945.6775,406.74766 a 10.517391,10.517391 0 0 1 -9.99665,-14.99069 7.7770646,7.7770646 0 0 1 2.11714,2.1086 33.694922,33.694922 0 0 0 2.08299,3.47449 c 1.63054,1.92933 4.43062,2.56106 6.96606,2.44154 2.53545,-0.11952 4.98552,-0.85368 7.51243,-1.06711 0.35001,0 0.70855,-0.0597 1.05856,-0.0683 a 10.508855,10.508855 0 0 1 -9.74053,8.10146 z"
     opacity="0.1"
     id="path391"
     style="stroke-width:0.853684" />
  <path
     d="m 920.16941,423.71891 a 10.500318,10.500318 0 0 1 -10.08202,-14.81142 8.6648963,8.6648963 0 0 1 2.21958,2.13421 c 0.85369,1.15247 1.32321,2.48422 2.27934,3.54279 1.77566,1.98054 4.75502,2.67203 7.44413,2.61227 2.6891,-0.0598 5.12211,-0.70002 7.68316,-0.89637 a 10.508855,10.508855 0 0 1 -9.54419,7.41852 z"
     opacity="0.1"
     id="path393"
     style="stroke-width:0.853684" />
  <path
     d="m 925.35981,444.1305 a 10.517391,10.517391 0 0 1 -19.16522,-8.53684 10.295433,10.295433 0 0 1 2.30495,2.05738 c 1.00735,1.22077 1.70737,2.56105 2.81716,3.73914 2.15128,2.1086 5.61724,2.97082 8.70758,3.05619 a 46.047735,46.047735 0 0 0 5.33553,-0.31587 z"
     opacity="0.1"
     id="path395"
     style="stroke-width:0.853684" />
  <text
     xml:space="preserve"
     id="text995"
     style="font-style:normal;font-weight:normal;font-size:40px;line-height:1.25;font-family:sans-serif;white-space:pre;shape-inside:url(#rect997);fill:#333333;fill-opacity:1;stroke:none;"
     transform="translate(59.953935,7.3627643)"><tspan
       x="368.13867"
       y="158.50493"><tspan
         style="font-style:normal;font-variant:normal;font-weight:bold;font-stretch:normal;font-family:Lora;-inkscape-font-specification:'Lora Bold';fill:#333333">Contact Us</tspan></tspan></text>
</svg>
