<?xml version="1.0" encoding="UTF-8" standalone="no"?>
<svg
   xmlns:dc="http://purl.org/dc/elements/1.1/"
   xmlns:cc="http://creativecommons.org/ns#"
   xmlns:rdf="http://www.w3.org/1999/02/22-rdf-syntax-ns#"
   xmlns:svg="http://www.w3.org/2000/svg"
   xmlns="http://www.w3.org/2000/svg"
   xmlns:sodipodi="http://sodipodi.sourceforge.net/DTD/sodipodi-0.dtd"
   xmlns:inkscape="http://www.inkscape.org/namespaces/inkscape"
   id="bb535a4d-a035-40f6-99ac-869b240e0289"
   data-name="Layer 1"
   width="995"
   height="697.68102"
   viewBox="0 0 995 697.68102"
   version="1.1"
   sodipodi:docname="maasm.svg"
   inkscape:version="1.0.1 (3bc2e813f5, 2020-09-07)">
  <metadata
     id="metadata187">
    <rdf:RDF>
      <cc:Work
         rdf:about="">
        <dc:format>image/svg+xml</dc:format>
        <dc:type
           rdf:resource="http://purl.org/dc/dcmitype/StillImage" />
        <dc:title />
      </cc:Work>
    </rdf:RDF>
  </metadata>
  <defs
     id="defs185">
    <rect
       x="18.142994"
       y="41.060461"
       width="359.04031"
       height="393.41651"
       id="rect191" />
  </defs>
  <sodipodi:namedview
     pagecolor="#ffffff"
     bordercolor="#666666"
     borderopacity="1"
     objecttolerance="10"
     gridtolerance="10"
     guidetolerance="10"
     inkscape:pageopacity="0"
     inkscape:pageshadow="2"
     inkscape:window-width="1920"
     inkscape:window-height="1009"
     id="namedview183"
     showgrid="false"
     inkscape:zoom="1.0472362"
     inkscape:cx="497.5"
     inkscape:cy="348.84052"
     inkscape:window-x="-8"
     inkscape:window-y="-8"
     inkscape:window-maximized="1"
     inkscape:current-layer="bb535a4d-a035-40f6-99ac-869b240e0289"
     inkscape:document-rotation="0" />
  <path
     d="M 315.27836,243.06479 H 114.52157 a 5.1748343,5.1748343 0 0 1 -5.16898,-5.16899 V 114.10516 a 3.7911712,3.7911712 0 0 1 3.7868,-3.78695 H 316.595 a 3.8567328,3.8567328 0 0 1 3.85235,3.85242 V 237.8958 a 5.1748374,5.1748374 0 0 1 -5.16899,5.16899 z"
     fill="#f2f2f2"
     id="path2"
     style="stroke-width:0.313272" />
  <path
     d="M 307.95491,235.74462 H 120.85483 c -2.7427,0 -4.974,-2.08951 -4.974,-4.65779 V 123.28836 c 0,-1.90472 1.65344,-3.45441 3.68584,-3.45441 h 189.61532 c 2.0661,0 3.74696,1.57524 3.74696,3.51131 v 107.74157 c 0,2.56828 -2.23138,4.65779 -4.97404,4.65779 z"
     fill="#ffffff"
     id="path4"
     style="stroke-width:0.313272" />
  <path
     d="M 320.37538,113.80948 H 109.28005 v -2.63161 a 5.1920987,5.1920987 0 0 1 5.1878,-5.18459 h 200.71972 a 5.1920737,5.1920737 0 0 1 5.18781,5.18459 z"
     fill="#cccccc"
     id="path6"
     style="stroke-width:0.313272" />
  <circle
     cx="118.70807"
     cy="109.90918"
     r="1.3418758"
     fill="#ffffff"
     id="circle8"
     style="stroke-width:0.313272" />
  <circle
     cx="123.80149"
     cy="109.90918"
     r="1.3418758"
     fill="#ffffff"
     id="circle10"
     style="stroke-width:0.313272" />
  <circle
     cx="128.89496"
     cy="109.90918"
     r="1.3418758"
     fill="#ffffff"
     id="circle12"
     style="stroke-width:0.313272" />
  <path
     d="M 287.36087,217.66509 H 142.3665 a 5.4884948,5.4884948 0 0 1 -5.48226,-5.48226 v -69.90785 a 4.1048254,4.1048254 0 0 1 4.10008,-4.10023 h 147.6932 a 4.1704089,4.1704089 0 0 1 4.16562,4.16569 v 69.84239 a 5.48847,5.48847 0 0 1 -5.48227,5.48226 z M 140.98432,138.8013 a 3.4775138,3.4775138 0 0 0 -3.47353,3.47368 v 69.90785 a 4.8611832,4.8611832 0 0 0 4.85571,4.85571 h 144.99437 a 4.8612083,4.8612083 0 0 0 4.85571,-4.85571 v -69.84239 a 3.5431068,3.5431068 0 0 0 -3.53906,-3.53914 z"
     fill="#cccccc"
     id="path14"
     style="stroke-width:0.313272" />
  <path
     d="m 147.37887,212.18283 h 134.96965 a 5.0123526,5.0123526 0 0 0 5.01236,-5.01236 v -58.44022 a 5.0123526,5.0123526 0 0 0 -5.01236,-5.01235 H 147.37887 a 5.0123526,5.0123526 0 0 0 -5.01236,5.01235 v 58.44022 a 5.0123526,5.0123526 0 0 0 5.01236,5.01236 z"
     fill="#f2f2f2"
     id="path16"
     style="stroke-width:0.313272" />
  <circle
     cx="162.7039"
     cy="157.90096"
     r="2.8194485"
     fill="#cccccc"
     id="circle18"
     style="stroke-width:0.313272" />
  <circle
     cx="162.7039"
     cy="168.5522"
     r="2.8194485"
     fill="#cccccc"
     id="circle20"
     style="stroke-width:0.313272" />
  <circle
     cx="162.7039"
     cy="179.20345"
     r="2.8194485"
     fill="#cccccc"
     id="circle22"
     style="stroke-width:0.313272" />
  <circle
     cx="162.7039"
     cy="189.85471"
     r="2.8194485"
     fill="#cccccc"
     id="circle24"
     style="stroke-width:0.313272" />
  <path
     d="m 269.52967,158.21422 h -92.72853 a 0.3132729,0.3132729 0 0 1 0,-0.62654 h 92.72853 a 0.3132729,0.3132729 0 0 1 0,0.62654 z"
     fill="#cccccc"
     id="path26"
     style="stroke-width:0.313272" />
  <path
     d="m 269.52967,168.86547 h -92.72853 a 0.31327208,0.31327208 0 0 1 0,-0.62654 h 92.72853 a 0.31327208,0.31327208 0 0 1 0,0.62654 z"
     fill="#cccccc"
     id="path28"
     style="stroke-width:0.313272" />
  <path
     d="m 269.52967,179.51672 h -92.72853 a 0.31327262,0.31327262 0 0 1 0,-0.62654 h 92.72853 a 0.31327262,0.31327262 0 0 1 0,0.62654 z"
     fill="#cccccc"
     id="path30"
     style="stroke-width:0.313272" />
  <path
     d="m 269.52967,190.16797 h -92.72853 a 0.313275,0.313275 0 0 1 0,-0.62655 h 92.72853 a 0.313275,0.313275 0 0 1 0,0.62655 z"
     fill="#cccccc"
     id="path32"
     style="stroke-width:0.313272" />
  <path
     d="m 194.34437,200.81922 h -9.08488 a 1.5681835,1.5681835 0 0 1 -1.56636,-1.56637 v -8.45834 a 1.5681803,1.5681803 0 0 1 1.56636,-1.56636 h 9.08488 a 1.5681771,1.5681771 0 0 1 1.56637,1.56636 v 8.45834 a 1.5681803,1.5681803 0 0 1 -1.56637,1.56637 z"
     fill="#dc5c01"
     id="path34"
     style="stroke-width:0.313272" />
  <path
     d="m 214.70706,200.81922 h -9.08489 a 1.5681552,1.5681552 0 0 1 -1.56636,-1.56637 v -19.10958 a 1.5681552,1.5681552 0 0 1 1.56636,-1.56636 h 9.08489 a 1.5681552,1.5681552 0 0 1 1.56635,1.56636 v 19.10958 a 1.5681552,1.5681552 0 0 1 -1.56635,1.56637 z"
     fill="#dc5c01"
     id="path36"
     style="stroke-width:0.313272" />
  <path
     d="m 235.38301,200.81922 h -9.08488 a 1.5681552,1.5681552 0 0 1 -1.56637,-1.56637 v -29.76084 a 1.5681552,1.5681552 0 0 1 1.56637,-1.56635 h 9.08488 a 1.5681552,1.5681552 0 0 1 1.56637,1.56635 v 29.76084 a 1.5681552,1.5681552 0 0 1 -1.56637,1.56637 z"
     fill="#dc5c01"
     id="path38"
     style="stroke-width:0.313272" />
  <path
     d="m 256.68551,200.81922 h -9.08489 a 1.5681552,1.5681552 0 0 1 -1.56636,-1.56637 v -40.09881 a 1.5681552,1.5681552 0 0 1 1.56636,-1.56636 h 9.08489 a 1.5681552,1.5681552 0 0 1 1.56636,1.56636 v 40.09881 a 1.5681552,1.5681552 0 0 1 -1.56636,1.56637 z"
     fill="#dc5c01"
     id="path40"
     style="stroke-width:0.313272" />
  <path
     d="m 269.52967,200.81922 h -92.72853 a 0.3132769,0.3132769 0 0 1 0,-0.62655 h 92.72853 a 0.3132769,0.3132769 0 0 1 0,0.62655 z"
     fill="#3f3d56"
     id="path42"
     style="stroke-width:0.313272" />
  <path
     d="m 310.26999,259.25937 a 3.1501947,3.1501947 0 0 1 4.79947,-0.54616 l 9.94801,-5.1341 -0.61867,5.78438 -9.35195,3.98863 a 3.1672649,3.1672649 0 0 1 -4.77686,-4.09275 z"
     fill="#ffb8b8"
     id="path44"
     style="stroke-width:0.313272" />
  <path
     d="m 318.82952,261.41667 a 1.4114722,1.4114722 0 0 1 -0.47731,-0.69283 l -0.79124,-2.55609 a 1.4143199,1.4143199 0 0 1 0.49712,-1.54169 l 8.06289,-6.09012 8.73248,-16.20001 a 4.5413554,4.5413554 0 1 1 7.17393,5.57049 l -4.96803,10.48535 a 14.527527,14.527527 0 0 1 -7.3503,7.11016 l -9.44915,4.09845 a 1.4112906,1.4112906 0 0 1 -1.14939,-0.0123 1.3955329,1.3955329 0 0 1 -0.281,-0.17141 z"
     fill="#3f3d56"
     id="path46"
     style="stroke-width:0.313272" />
  <circle
     cx="342.24692"
     cy="219.88057"
     r="7.694284"
     fill="#ffb8b8"
     id="circle48"
     style="stroke-width:0.313272" />
  <polygon
     points="870.722,638.448 888.817,638.449 888.812,685.737 876.553,685.736 "
     fill="#ffb8b8"
     id="polygon50"
     transform="matrix(0.31327204,0,0,0.31327204,60.685761,105.99328)" />
  <path
     d="m 332.54175,319.71771 h 7.40697 v 4.66364 h -12.0706 v 0 a 4.663637,4.663637 0 0 1 4.66363,-4.66364 z"
     fill="#2f2e41"
     id="path52"
     style="stroke-width:0.313272" />
  <polygon
     points="910.722,638.449 928.817,638.451 928.812,685.739 916.553,685.738 "
     fill="#ffb8b8"
     id="polygon54"
     transform="matrix(0.31327204,0,0,0.31327204,60.685761,105.99328)" />
  <path
     d="m 345.07264,319.71828 h 7.40696 v 4.66364 H 340.409 v 0 a 4.663637,4.663637 0 0 1 4.66364,-4.66364 z"
     fill="#2f2e41"
     id="path56"
     style="stroke-width:0.313272" />
  <path
     d="m 351.93727,317.05703 -4.50076,-2e-4 a 1.4121457,1.4121457 0 0 1 -1.36103,-1.04298 l -6.47834,-24.02832 a 0.15665482,0.15665482 0 0 0 -0.30762,0.0501 l 1.30865,22.78815 a 1.4094735,1.4094735 0 0 1 -1.52459,1.48554 l -5.0586,-0.42182 a 1.41359,1.41359 0 0 1 -1.28317,-1.24183 l -4.6084,-47.85069 1.78291,1.06993 16.70648,-2.83643 6.72198,50.43252 a 1.4099498,1.4099498 0 0 1 -1.39749,1.59596 z"
     fill="#2f2e41"
     id="path58"
     style="stroke-width:0.313272" />
  <path
     d="m 333.71076,271.84559 a 10.318896,10.318896 0 0 1 -5.22904,-1.47176 1.4035152,1.4035152 0 0 1 -0.66923,-1.4376 c 0.58754,-3.59832 3.66023,-22.05676 6.45591,-32.11957 1.13862,-4.0985 3.6563,-6.30596 7.4831,-6.56094 5.59754,-0.36715 10.5729,4.01214 11.09096,9.77405 0.91397,10.16516 -2.79854,24.60763 -4.43713,30.34527 a 1.4085087,1.4085087 0 0 1 -2.22032,0.72251 l -3.33995,-2.59811 a 1.1067369,1.1067369 0 0 0 -1.41477,0.059 c -2.81513,2.51095 -5.48931,3.28727 -7.71953,3.28716 z"
     fill="#3f3d56"
     id="path60"
     style="stroke-width:0.313272" />
  <polygon
     points="902.784,513.738 911.786,482.739 906.787,443.738 915.786,481.739 "
     opacity="0.2"
     id="polygon62"
     transform="matrix(0.31327204,0,0,0.31327204,60.685761,105.99328)" />
  <path
     d="m 346.63737,226.20789 a 5.1810339,5.1810339 0 0 0 2.00119,-0.36198 c 0.2801,-0.10793 0.57087,-0.19664 0.85045,-0.30465 2.46916,-0.95382 4.09578,-3.58334 4.15415,-6.22969 0.0584,-2.64634 -1.31194,-5.21492 -3.34687,-6.90774 -2.03493,-1.69281 -4.67073,-2.56198 -7.31006,-2.76306 -2.84301,-0.2166 -6.04437,0.50423 -7.63312,2.87181 -0.4229,0.63021 -0.71868,1.39484 -0.46814,2.1558 a 1.3795091,1.3795091 0 0 0 0.38868,0.59709 c 0.70944,0.63124 1.41676,0.15666 2.14001,0.11477 0.99409,-0.0576 1.88692,0.7471 2.20778,1.68974 0.32086,0.94264 0.17956,1.9804 -0.0796,2.94183 a 7.3490487,7.3490487 0 0 0 -0.37052,1.78879 1.7983538,1.7983538 0 0 0 0.74506,1.58353 c 0.62117,0.37552 1.43696,0.15824 2.05852,-0.2166 0.62156,-0.37486 1.15864,-0.89605 1.83004,-1.17189 0.67139,-0.27583 1.5734,-0.2146 1.96415,0.3971 a 2.1724445,2.1724445 0 0 1 0.24828,0.71696 c 0.35026,1.59609 0.26974,1.50209 0.61999,3.09819 z"
     fill="#2f2e41"
     id="path64"
     style="stroke-width:0.313272" />
  <path
     d="m 334.71147,310.06862 -48.17995,-16.77911 a 3.307003,3.307003 0 0 1 -2.03311,-4.20589 L 297.01854,253.133 a 2.4227614,2.4227614 0 0 1 3.08127,-1.48954 l 49.80872,17.34633 a 2.4646583,2.4646583 0 0 1 1.51522,3.1346 l -12.50637,35.91112 a 3.307003,3.307003 0 0 1 -4.20591,2.03311 z"
     fill="#e6e6e6"
     id="path66"
     style="stroke-width:0.313272" />
  <path
     d="m 290.64288,291.2235 42.13001,14.67214 a 3.2031659,3.2031659 0 0 0 4.07845,-1.97149 l 10.10992,-29.02988 a 3.2031659,3.2031659 0 0 0 -1.97151,-4.07844 l -42.13001,-14.67216 a 3.203169,3.203169 0 0 0 -4.07845,1.97151 l -10.10991,29.02987 a 3.2031627,3.2031627 0 0 0 1.9715,4.07845 z"
     fill="#ffffff"
     id="path68"
     style="stroke-width:0.313272" />
  <path
     d="m 301.22229,270.82743 -2.08647,-0.72664 a 0.45242121,0.45242121 0 0 1 -0.27815,-0.5754 l 0.72663,-2.08648 a 0.45242121,0.45242121 0 0 1 0.5754,-0.27815 l 2.08648,0.72664 a 0.45242121,0.45242121 0 0 1 0.27815,0.5754 l -0.72663,2.08647 a 0.45241808,0.45241808 0 0 1 -0.57541,0.27816 z"
     fill="#dc5c01"
     id="path70"
     style="stroke-width:0.313272" />
  <path
     d="m 299.33964,276.2333 -2.08647,-0.72664 a 0.45242121,0.45242121 0 0 1 -0.27815,-0.57541 l 0.72664,-2.08647 a 0.45242121,0.45242121 0 0 1 0.57541,-0.27815 l 2.08647,0.72663 a 0.45242121,0.45242121 0 0 1 0.27815,0.5754 l -0.72664,2.08649 a 0.45242434,0.45242434 0 0 1 -0.57541,0.27815 z"
     fill="#3f3d56"
     id="path72"
     style="stroke-width:0.313272" />
  <path
     d="m 297.45701,281.63917 -2.08649,-0.72663 a 0.45242121,0.45242121 0 0 1 -0.27814,-0.57541 l 0.72663,-2.08648 a 0.45242121,0.45242121 0 0 1 0.57542,-0.27815 l 2.08646,0.72664 a 0.45242121,0.45242121 0 0 1 0.27816,0.57541 l -0.72664,2.08647 a 0.45242434,0.45242434 0 0 1 -0.5754,0.27815 z"
     fill="#cccccc"
     id="path74"
     style="stroke-width:0.313272" />
  <path
     d="m 315.24254,274.54034 -10.05302,-3.50105 a 0.45192155,0.45192155 0 1 1 0.29726,-0.85356 l 10.05303,3.50106 a 0.45191997,0.45191997 0 1 1 -0.29727,0.85355 z"
     fill="#cccccc"
     id="path76"
     style="stroke-width:0.313272" />
  <path
     d="m 313.35991,279.94621 -10.05303,-3.50106 a 0.45192042,0.45192042 0 0 1 0.29726,-0.85355 l 10.05302,3.50106 a 0.45191997,0.45191997 0 1 1 -0.29725,0.85355 z"
     fill="#cccccc"
     id="path78"
     style="stroke-width:0.313272" />
  <path
     d="m 311.47725,285.35209 -10.05303,-3.50106 a 0.45192204,0.45192204 0 0 1 0.29727,-0.85356 l 10.05302,3.50106 a 0.45192098,0.45192098 0 0 1 -0.29726,0.85356 z"
     fill="#cccccc"
     id="path80"
     style="stroke-width:0.313272" />
  <path
     d="m 338.23029,288.281 c 0.0732,-0.17568 0.14221,-0.35422 0.20562,-0.53633 a 9.4729107,9.4729107 0 0 0 -5.83042,-12.06141 l -3.30431,9.48809 z"
     fill="#dc5c01"
     id="path82"
     style="stroke-width:0.313272" />
  <path
     d="m 328.34023,285.74859 3.30432,-9.48809 a 9.4728983,9.4728983 0 1 0 5.62479,12.59774 z"
     fill="#3f3d56"
     id="path84"
     style="stroke-width:0.313272" />
  <path
     d="m 340.16983,272.13799 a 3.1501884,3.1501884 0 0 1 3.43951,-3.39161 l 4.6594,-10.17899 3.08286,4.93332 -4.89729,8.90983 a 3.1672649,3.1672649 0 0 1 -6.28448,-0.27255 z"
     fill="#ffb8b8"
     id="path86"
     style="stroke-width:0.313272" />
  <path
     d="m 348.23637,268.55322 a 1.411469,1.411469 0 0 1 -0.80313,-0.2506 l -2.20002,-1.52302 a 1.4143199,1.4143199 0 0 1 -0.56025,-1.51988 l 2.58609,-9.76791 -3.12607,-18.13626 a 4.5413544,4.5413544 0 1 1 9.0826,-0.0439 l 2.56156,11.31646 a 14.527519,14.527519 0 0 1 -1.39588,10.13079 l -4.90599,9.0562 a 1.4112906,1.4112906 0 0 1 -0.91201,0.69962 1.3955016,1.3955016 0 0 1 -0.3269,0.0386 z"
     fill="#3f3d56"
     id="path88"
     style="stroke-width:0.313272" />
  <path
     d="m 372.07816,324.55723 h -59.52169 a 0.31327262,0.31327262 0 0 1 0,-0.62654 h 59.52169 a 0.31327262,0.31327262 0 0 1 0,0.62654 z"
     fill="#cccccc"
     id="path90"
     style="stroke-width:0.313272" />
  <polygon
     points="508.633,637.951 490.539,637.951 490.541,685.239 502.801,685.238 "
     fill="#a0616a"
     id="polygon92"
     transform="matrix(0.31327204,0,0,0.31327204,60.685761,105.99328)" />
  <path
     d="m 213.37893,319.40561 7.56358,-3.1e-4 h 3.1e-4 a 4.8200193,4.8200193 0 0 1 4.82016,4.82008 v 0.15662 l -12.38381,4.7e-4 z"
     fill="#2f2e41"
     id="path94"
     style="stroke-width:0.313272" />
  <polygon
     points="459.633,637.951 441.539,637.951 441.541,685.239 453.801,685.238 "
     fill="#a0616a"
     id="polygon96"
     transform="matrix(0.31327204,0,0,0.31327204,60.685761,105.99328)" />
  <path
     d="m 198.02861,319.40561 7.56356,-3.1e-4 h 3.2e-4 a 4.8200193,4.8200193 0 0 1 4.82015,4.82008 v 0.15662 l -12.3838,4.7e-4 z"
     fill="#2f2e41"
     id="path98"
     style="stroke-width:0.313272" />
  <circle
     cx="215.12514"
     cy="210.4059"
     r="7.694284"
     fill="#a0616a"
     id="circle100"
     style="stroke-width:0.313272" />
  <path
     d="m 220.2993,317.46221 h -7.12716 a 1.4098087,1.4098087 0 0 1 -1.40958,-1.42685 l 0.41415,-33.84317 a 0.46992686,0.46992686 0 0 0 -0.93638,-0.0627 l -4.14794,34.09342 a 1.4109929,1.4109929 0 0 1 -1.39937,1.23932 h -7.19564 a 1.4096083,1.4096083 0 0 1 -1.40544,-1.51955 l 4.75154,-60.79833 0.12918,-0.0141 22.7526,-2.45722 -3.01776,63.44646 a 1.4081108,1.4081108 0 0 1 -1.4082,1.34272 z"
     fill="#2f2e41"
     id="path102"
     style="stroke-width:0.313272" />
  <path
     d="m 202.12042,258.87667 a 1.4085494,1.4085494 0 0 1 -1.40467,-1.36537 c -0.12421,-3.8443 -0.33706,-17.14613 2.13714,-26.91171 a 12.820225,12.820225 0 0 1 11.8394,-9.66096 v 0 a 12.900367,12.900367 0 0 1 12.70587,8.15243 c 4.15881,10.55823 8.08803,23.57248 3.1894,25.61365 -6.42048,2.67505 -23.34611,3.86757 -28.38064,4.16921 q -0.0435,0.003 -0.0865,0.003 z"
     fill="#3f3d56"
     id="path104"
     style="stroke-width:0.313272" />
  <path
     d="m 231.52768,202.62923 a 3.2971883,3.2971883 0 0 0 0.39032,0.34244 l -0.80769,15.51517 -3.35961,1.72002 1.93314,5.40951 6.24342,-2.46697 a 2.5061763,2.5061763 0 0 0 1.57445,-2.56274 l -1.63564,-17.59946 a 3.2884479,3.2884479 0 1 0 -4.33839,-0.35797 z"
     fill="#a0616a"
     id="path106"
     style="stroke-width:0.313272" />
  <path
     d="m 231.17406,219.06438 2.36337,6.71621 a 1.4097242,1.4097242 0 0 1 -1.0617,1.85192 l -6.96887,1.34952 a 3.9150891,3.9150891 0 0 1 -2.57747,-7.39376 l 6.25719,-3.30283 a 1.4097242,1.4097242 0 0 1 1.98748,0.77894 z"
     fill="#3f3d56"
     id="path108"
     style="stroke-width:0.313272" />
  <path
     d="m 198.19972,202.62923 a 3.2976707,3.2976707 0 0 1 -0.39033,0.34244 l 0.8077,15.51517 3.35959,1.72002 -1.93311,5.40951 -6.24342,-2.46697 a 2.5061763,2.5061763 0 0 1 -1.57445,-2.56274 l 1.63564,-17.59946 a 3.2884479,3.2884479 0 1 1 4.3384,-0.35797 z"
     fill="#a0616a"
     id="path110"
     style="stroke-width:0.313272" />
  <path
     d="m 199.3688,218.21978 a 1.4082205,1.4082205 0 0 1 1.17201,0.0657 l 6.2572,3.30282 a 3.9150891,3.9150891 0 0 1 -2.57748,7.39378 l -6.96887,-1.34953 a 1.4097242,1.4097242 0 0 1 -1.0617,-1.85192 l 2.36338,-6.71621 a 1.4081578,1.4081578 0 0 1 0.81546,-0.84459 z"
     fill="#3f3d56"
     id="path112"
     style="stroke-width:0.313272" />
  <path
     d="m 218.11354,211.71745 a 5.0572382,5.0572382 0 0 1 2.83216,-4.7516 c 2.33886,-1.20737 3.80814,-3.78281 3.16431,-6.13453 -0.82411,-3.01019 -4.92107,-4.96245 -8.24067,-3.92679 a 15.214267,15.214267 0 0 0 -2.58789,1.20275 l -2.16881,1.16256 a 22.471004,22.471004 0 0 0 -2.67347,1.5782 8.8704074,8.8704074 0 0 0 -3.53066,8.31112 c 0.42711,3.06025 2.43121,5.86678 5.17451,7.78825 a 8.7517339,8.7517339 0 0 0 3.54588,1.5761 c 1.31496,0.21681 2.77881,-0.0295 3.74027,-0.84734 1.50254,-1.27795 1.34731,-3.41802 0.86135,-5.20543 a 3.7875091,3.7875091 0 0 1 -0.11698,-0.75329 z"
     fill="#2f2e41"
     id="path114"
     style="stroke-width:0.313272" />
  <path
     d="m 244.26317,324.55723 h -59.52169 a 0.31327262,0.31327262 0 0 1 0,-0.62654 h 59.52169 a 0.31327262,0.31327262 0 0 1 0,0.62654 z"
     fill="#cccccc"
     id="path116"
     style="stroke-width:0.313272" />
  <path
     d="m 147.12055,267.4078 -49.113904,20.14881 a 3.4410584,3.4410584 0 0 1 -4.484535,-1.8754 l -15.034529,-36.6475 a 2.5209721,2.5209721 0 0 1 1.373879,-3.28547 l 50.774229,-20.82996 a 2.5645702,2.5645702 0 0 1 3.34225,1.39774 l 15.018,36.60723 a 3.4410615,3.4410615 0 0 1 -1.87539,4.48455 z"
     fill="#e6e6e6"
     id="path118"
     style="stroke-width:0.313272" />
  <path
     d="m 99.785685,283.1116 42.946675,-17.61873 a 3.3330171,3.3330171 0 0 0 1.81857,-4.34865 l -12.14027,-29.5926 a 3.3330109,3.3330109 0 0 0 -4.34865,-1.81856 l -42.946675,17.61873 a 3.3330077,3.3330077 0 0 0 -1.818565,4.34864 l 12.140272,29.5926 a 3.3330109,3.3330109 0 0 0 4.348643,1.81857 z"
     fill="#ffffff"
     id="path120"
     style="stroke-width:0.313272" />
  <rect
     x="30.652185"
     y="271.8577"
     width="0.68247253"
     height="0.11374594"
     transform="rotate(-22.30577)"
     fill="#e6e6e6"
     id="rect122"
     style="stroke-width:0.313272" />
  <path
     d="m 130.30956,240.50953 -1.27555,0.52329 -0.0432,-0.10524 1.27557,-0.52329 z m -2.55113,1.04659 -1.27555,0.5233 -0.0432,-0.10525 1.27555,-0.52328 z m -2.55114,1.0466 -1.27555,0.52329 -0.0432,-0.10523 1.27555,-0.52329 z m -2.55114,1.04659 -1.27555,0.5233 -0.0432,-0.10524 1.27556,-0.52329 z m -2.55112,1.0466 -1.27556,0.52329 -0.0432,-0.10523 1.27555,-0.52329 z m -2.55114,1.0466 -1.27555,0.52329 -0.0432,-0.10523 1.27555,-0.5233 z m -2.55114,1.04659 -1.27555,0.52329 -0.0432,-0.10523 1.27556,-0.52329 z m -2.55112,1.0466 -1.27556,0.52329 -0.0432,-0.10523 1.27556,-0.5233 z m -2.55115,1.04659 -1.27555,0.5233 -0.0432,-0.10524 1.27556,-0.52328 z m -2.55112,1.0466 -1.27555,0.52329 -0.0432,-0.10523 1.27556,-0.52329 z m -2.55114,1.04659 -1.27556,0.5233 -0.0432,-0.10523 1.27556,-0.52329 z m -2.55114,1.0466 -1.27555,0.5233 -0.0432,-0.10524 1.27555,-0.52329 z m -2.551133,1.04661 -1.275558,0.52329 -0.04318,-0.10524 1.275558,-0.52329 z m -2.551134,1.04659 -1.275575,0.5233 -0.04318,-0.10523 1.275575,-0.52331 z m -2.551133,1.0466 -1.275549,0.52329 -0.04318,-0.10524 1.275558,-0.52329 z m -2.551134,1.04659 -1.275584,0.52331 -0.04318,-0.10524 1.275584,-0.5233 z"
     fill="#e6e6e6"
     id="path124"
     style="stroke-width:0.313272" />
  <rect
     x="-15.528548"
     y="271.8577"
     width="0.68247253"
     height="0.11374594"
     transform="rotate(-22.30577)"
     fill="#e6e6e6"
     id="rect126"
     style="stroke-width:0.313272" />
  <rect
     x="8.2443027"
     y="282.4361"
     width="0.68247253"
     height="0.11374594"
     transform="rotate(-22.30577)"
     fill="#e6e6e6"
     id="rect128"
     style="stroke-width:0.313272" />
  <path
     d="m 113.61232,258.79345 -1.25661,0.51552 -0.0432,-0.10524 1.25661,-0.51552 z m -2.51324,1.03104 -1.25661,0.51552 -0.0432,-0.10523 1.25662,-0.51552 z m -2.51323,1.03105 -1.25662,0.51553 -0.0432,-0.10524 1.25663,-0.51552 z m -2.51324,1.03107 -1.25662,0.51551 -0.0432,-0.10522 1.25662,-0.51553 z m -2.51324,1.03106 -1.25664,0.51553 -0.0432,-0.10523 1.25665,-0.51554 z m -2.51326,1.03105 -1.256614,0.51553 -0.04318,-0.10523 1.256614,-0.51552 z m -2.513239,1.03105 -1.256617,0.51554 -0.04318,-0.10524 1.256617,-0.51552 z m -2.513234,1.03106 -1.256617,0.51553 -0.04318,-0.10524 1.256617,-0.51552 z"
     fill="#e6e6e6"
     id="path130"
     style="stroke-width:0.313272" />
  <rect
     x="-15.528548"
     y="282.43607"
     width="0.68247253"
     height="0.11374594"
     transform="rotate(-22.30577)"
     fill="#e6e6e6"
     id="rect132"
     style="stroke-width:0.313272" />
  <rect
     x="-5.0639563"
     y="287.44086"
     width="0.68247253"
     height="0.11374594"
     transform="rotate(-22.30577)"
     fill="#e6e6e6"
     id="rect134"
     style="stroke-width:0.313272" />
  <path
     d="m 103.16327,268.48975 -1.29288,0.5304 -0.0432,-0.10523 1.29288,-0.53039 z m -2.58577,1.06081 -1.292871,0.5304 -0.04318,-0.10524 1.292871,-0.5304 z m -2.585744,1.0608 -1.292882,0.53039 -0.04318,-0.10523 1.292882,-0.5304 z"
     fill="#e6e6e6"
     id="path136"
     style="stroke-width:0.313272" />
  <rect
     x="-15.528548"
     y="287.44086"
     width="0.68247253"
     height="0.11374594"
     transform="rotate(-22.30577)"
     fill="#e6e6e6"
     id="rect138"
     style="stroke-width:0.313272" />
  <rect
     x="-5.0639563"
     y="295.98172"
     width="0.68247253"
     height="0.11374594"
     transform="rotate(-22.30577)"
     fill="#e6e6e6"
     id="rect140"
     style="stroke-width:0.313272" />
  <path
     d="m 106.40495,276.3915 -1.29288,0.53039 -0.0432,-0.10522 1.29288,-0.5304 z m -2.58578,1.0608 -1.29287,0.5304 -0.0432,-0.10523 1.29287,-0.5304 z m -2.58574,1.0608 -1.292877,0.5304 -0.04318,-0.10524 1.292877,-0.5304 z"
     fill="#e6e6e6"
     id="path142"
     style="stroke-width:0.313272" />
  <rect
     x="-15.528548"
     y="295.98172"
     width="0.68247253"
     height="0.11374594"
     transform="rotate(-22.30577)"
     fill="#e6e6e6"
     id="rect144"
     style="stroke-width:0.313272" />
  <path
     d="m 101.60924,278.45326 36.3944,-14.93071 a 3.5966324,3.5966324 0 0 0 1.9602,-4.68732 l -7.35333,-17.92414 -0.0711,0.0316 -8.93117,21.35482 -6.62402,-2.7693 a 0.85902325,0.85902325 0 0 0 -0.76298,0.0476 0.91530578,0.91530578 0 0 0 -0.37969,0.44887 l -4.68069,11.19058 -4.84312,-2.02447 a 0.86232203,0.86232203 0 0 0 -1.12863,0.46301 c -0.031,0.076 -3.01722,7.4028 -3.57987,8.79945 z"
     fill="#dc5c01"
     id="path146"
     style="stroke-width:0.313272" />
  <path
     d="m 101.49721,278.62204 -0.10493,-0.0439 3.74504,-8.95532 a 0.96782889,0.96782889 0 0 1 1.26497,-0.51895 l 4.74747,1.98535 4.65403,-11.12895 a 0.96782578,0.96782578 0 0 1 1.26497,-0.51895 l 6.52835,2.7301 8.97708,-21.46645 0.10493,0.0439 -9.02095,21.57139 -6.63329,-2.77398 a 0.85303977,0.85303977 0 0 0 -1.11616,0.4579 l -4.6979,11.23388 -4.85241,-2.02922 a 0.85412371,0.85412371 0 0 0 -1.11617,0.45789 z"
     fill="#3f3d56"
     id="path148"
     style="stroke-width:0.313272" />
  <circle
     cx="105.06596"
     cy="267.64774"
     r="0.79621851"
     fill="#3f3d56"
     id="circle150"
     style="stroke-width:0.313272" />
  <circle
     cx="115.47879"
     cy="257.96625"
     r="0.79621851"
     fill="#3f3d56"
     id="circle152"
     style="stroke-width:0.313272" />
  <circle
     cx="131.69272"
     cy="239.64644"
     r="0.79621851"
     fill="#3f3d56"
     id="circle154"
     style="stroke-width:0.313272" />
  <path
     d="m 87.12626,266.74425 a 3.1624594,3.1624594 0 0 0 1.13088,-4.71555 l 2.36477,-23.12081 h -5.110502 l -1.879333,22.57629 a 3.1795984,3.1795984 0 0 0 3.494185,5.26007 z"
     fill="#ffb8b8"
     id="path156"
     style="stroke-width:0.313272" />
  <circle
     cx="91.818649"
     cy="218.91769"
     r="7.2303371"
     fill="#ffb8b8"
     id="circle158"
     style="stroke-width:0.313272" />
  <path
     d="m 93.179805,252.37273 a 1.3223213,1.3223213 0 0 1 -1.274412,-0.97112 c -0.579281,-2.10467 -2.086413,-5.66313 -4.479427,-10.57707 a 8.7613512,8.7613512 0 0 1 4.975331,-12.09628 v 0 a 8.7573886,8.7573886 0 0 1 11.253303,5.57875 c 1.85484,5.8152 1.76528,12.04437 1.64066,14.45234 a 1.3279602,1.3279602 0 0 1 -1.04032,1.22611 l -10.791038,2.3565 a 1.318161,1.318161 0 0 1 -0.284097,0.0307 z"
     fill="#ff6584"
     id="path160"
     style="stroke-width:0.313272" />
  <polygon
     points="154.083,641.988 137.08,641.989 137.082,686.425 148.602,686.425 "
     fill="#ffb8b8"
     id="polygon162"
     transform="matrix(0.31327204,0,0,0.31327204,60.685761,105.99328)" />
  <path
     d="m 114.19917,324.38196 -11.34276,5.2e-4 -2.1e-4,-4.38243 6.96034,-3.2e-4 a 4.3824346,4.3824346 0 0 1 4.38263,4.38223 z"
     fill="#2f2e41"
     id="path164"
     style="stroke-width:0.313272" />
  <polygon
     points="58.19,640.747 43.291,632.555 21.882,671.495 31.978,677.045 "
     fill="#ffb8b8"
     id="polygon166"
     transform="matrix(0.31327204,0,0,0.31327204,60.685761,105.99328)" />
  <path
     d="m 75.188342,324.38247 -9.939644,-5.46458 2.111315,-3.84032 6.099343,3.35327 a 4.3824314,4.3824314 0 0 1 1.728986,5.95163 z"
     fill="#2f2e41"
     id="path168"
     style="stroke-width:0.313272" />
  <path
     d="m 103.46104,313.30444 a 1.3245674,1.3245674 0 0 1 -1.31241,-1.15424 l -4.513564,-34.78083 a 0.73596372,0.73596372 0 0 0 -1.374322,-0.26075 l -18.810642,34.12796 a 1.3319481,1.3319481 0 0 1 -1.631688,0.59883 l -4.100154,-1.56219 a 1.3246081,1.3246081 0 0 1 -0.755365,-1.73726 l 13.030614,-32.01035 a 1.0204179,1.0204179 0 0 0 0.06654,-0.25357 c 1.764923,-13.66033 6.255481,-20.60705 7.589683,-22.41072 a 1.0258531,1.0258531 0 0 0 0.145993,-0.93403 l -0.183413,-0.55025 a 1.324038,1.324038 0 0 1 0.25493,-1.28849 c 4.807643,-5.47597 13.187178,-2.48787 13.271288,-2.45711 l 0.0419,0.0155 0.0263,0.0359 c 9.39594,12.88585 5.92192,54.73876 5.13014,62.99786 a 1.321087,1.321087 0 0 1 -1.21699,1.19219 l -5.55604,0.42778 c -0.0346,0.003 -0.0688,0.004 -0.10289,0.004 z"
     fill="#2f2e41"
     id="path170"
     style="stroke-width:0.313272" />
  <path
     d="m 119.92743,227.31649 a 3.0989778,3.0989778 0 0 0 -0.0704,0.48283 l -12.64591,7.29539 -3.07377,-1.76952 -3.27683,4.28982 5.13708,3.6614 a 2.3550569,2.3550569 0 0 0 2.82554,-0.0689 l 13.04012,-10.28744 a 3.0901624,3.0901624 0 1 0 -1.93579,-3.60363 z"
     fill="#ffb8b8"
     id="path172"
     style="stroke-width:0.313272" />
  <path
     d="m 106.78831,235.44023 -4.08713,5.29712 a 1.3247272,1.3247272 0 0 1 -2.00295,0.1097 l -4.626914,-4.80467 a 3.6790198,3.6790198 0 0 1 4.511894,-5.81232 l 5.80316,3.2449 a 1.3247303,1.3247303 0 0 1 0.40194,1.96528 z"
     fill="#ff6584"
     id="path174"
     style="stroke-width:0.313272" />
  <path
     d="m 90.947159,244.64328 -6.584115,-1.18887 a 1.3247272,1.3247272 0 0 1 -1.019694,-1.72745 l 2.134441,-6.31962 a 3.6790198,3.6790198 0 0 1 7.237054,1.32869 l -0.208245,6.64549 a 1.3247335,1.3247335 0 0 1 -1.55945,1.26176 z"
     fill="#ff6584"
     id="path176"
     style="stroke-width:0.313272" />
  <path
     d="m 92.962996,217.25463 c 1.858349,1.27188 4.298404,2.5793 6.196429,1.22485 a 3.4539245,3.4539245 0 0 0 1.133555,-3.98148 c -0.90884,-2.59898 -3.405842,-3.74316 -5.793605,-4.62022 -3.104083,-1.14015 -6.483982,-2.0472 -9.688455,-1.23067 -3.204464,0.81652 -6.036487,3.91909 -5.458023,7.17495 0.465191,2.61832 2.934991,4.79696 2.584369,7.43304 -0.352869,2.65303 -3.336464,4.0495 -5.970513,4.52365 -2.634041,0.47416 -5.581602,0.6265 -7.47459,2.5185 -2.41485,2.41358 -1.811822,6.7276 0.460456,9.27585 2.27227,2.54828 5.701254,3.70337 9.023939,4.48863 4.402356,1.04042 9.163837,1.58719 13.344978,-0.13948 4.181142,-1.72667 7.434824,-6.37465 6.223614,-10.73311 -0.511611,-1.84102 -1.716806,-3.3969 -2.88157,-4.91163 -1.164773,-1.51472 -2.344195,-3.09866 -2.7885,-4.95708 -0.370264,-1.54865 -0.09622,-3.34673 0.930783,-4.50841 a 1.3061846,1.3061846 0 0 0 0.174981,-1.52679 z"
     fill="#2f2e41"
     id="path178"
     style="stroke-width:0.313272" />
  <path
     d="M 120.52072,324.55723 H 60.999024 a 0.31327262,0.31327262 0 0 1 0,-0.62654 h 59.521696 a 0.31327262,0.31327262 0 0 1 0,0.62654 z"
     fill="#cccccc"
     id="path180"
     style="stroke-width:0.313272" />
  <text
     xml:space="preserve"
     id="text189"
     style="font-style:normal;font-weight:normal;font-size:48px;line-height:1.25;font-family:sans-serif;white-space:pre;shape-inside:url(#rect191);fill:#333333;fill-opacity:1;stroke:none;"
     transform="translate(75.43666,362.85987)"><tspan
       x="18.142578"
       y="84.852402"><tspan
         style="font-style:normal;font-variant:normal;font-weight:bold;font-stretch:normal;font-size:48px;font-family:Lora;-inkscape-font-specification:'Lora Bold';fill:#333333">Marketing 
</tspan></tspan><tspan
       x="18.142578"
       y="144.91926"><tspan
         style="font-style:normal;font-variant:normal;font-weight:bold;font-stretch:normal;font-size:48px;font-family:Lora;-inkscape-font-specification:'Lora Bold';fill:#333333">as a 
</tspan></tspan><tspan
       x="18.142578"
       y="204.98611"><tspan
         style="font-style:normal;font-variant:normal;font-weight:bold;font-stretch:normal;font-size:48px;font-family:Lora;-inkscape-font-specification:'Lora Bold';fill:#333333">Service</tspan></tspan></text>
</svg>
