<?xml version="1.0" encoding="UTF-8" standalone="no"?>
<svg
   xmlns:dc="http://purl.org/dc/elements/1.1/"
   xmlns:cc="http://creativecommons.org/ns#"
   xmlns:rdf="http://www.w3.org/1999/02/22-rdf-syntax-ns#"
   xmlns:svg="http://www.w3.org/2000/svg"
   xmlns="http://www.w3.org/2000/svg"
   xmlns:sodipodi="http://sodipodi.sourceforge.net/DTD/sodipodi-0.dtd"
   xmlns:inkscape="http://www.inkscape.org/namespaces/inkscape"
   id="b9bf6650-716f-405e-b16b-128ee0039b2f"
   data-name="Layer 1"
   width="1036"
   height="569.97133"
   viewBox="0 0 1036 569.97133"
   version="1.1"
   sodipodi:docname="story.svg"
   inkscape:version="1.0.1 (3bc2e813f5, 2020-09-07)">
  <metadata
     id="metadata51">
    <rdf:RDF>
      <cc:Work
         rdf:about="">
        <dc:format>image/svg+xml</dc:format>
        <dc:type
           rdf:resource="http://purl.org/dc/dcmitype/StillImage" />
      </cc:Work>
    </rdf:RDF>
  </metadata>
  <defs
     id="defs49">
    <rect
       x="213.762"
       y="85.504798"
       width="221.71593"
       height="189.90019"
       id="rect55" />
  </defs>
  <sodipodi:namedview
     pagecolor="#ffffff"
     bordercolor="#666666"
     borderopacity="1"
     objecttolerance="10"
     gridtolerance="10"
     guidetolerance="10"
     inkscape:pageopacity="0"
     inkscape:pageshadow="2"
     inkscape:window-width="1920"
     inkscape:window-height="1009"
     id="namedview47"
     showgrid="false"
     inkscape:zoom="1.0057915"
     inkscape:cx="485.54099"
     inkscape:cy="324.75533"
     inkscape:window-x="-8"
     inkscape:window-y="-8"
     inkscape:window-maximized="1"
     inkscape:current-layer="b9bf6650-716f-405e-b16b-128ee0039b2f"
     inkscape:document-rotation="0" />
  <title
     id="title2">Books</title>
  <path
     d="m 133.28569,155.58043 c 0,73.67871 -59.733907,133.41267 -133.41266716,133.41267 V 22.167759 C 73.551783,22.167759 133.28569,81.901673 133.28569,155.58043 Z"
     fill="#3f3d56"
     id="path4"
     style="stroke-width:0.695241" />
  <path
     d="m 902.87969,162.28857 c 0,73.6787 59.73391,133.41266 133.41271,133.41266 V 28.875895 c -73.6788,0 -133.41271,59.733915 -133.41271,133.412675 z"
     fill="#3f3d56"
     id="path6"
     style="stroke-width:0.695241" />
  <path
     d="m 458.78942,2.9224713 a 9.0011998,9.0011998 0 1 1 9.00119,-9.0011993 9.0115163,9.0115163 0 0 1 -9.00119,9.0011993 z m 0,-16.5021963 a 7.5009965,7.5009965 0 1 0 7.50099,7.500997 7.5093563,7.5093563 0 0 0 -7.50099,-7.500997 z"
     fill="#3f3d56"
     id="path8"
     style="stroke-width:0.656699" />
  <path
     d="m 859.2134,236.42091 h -14.80785 v -14.80783 h 14.80785 z m -13.66877,-1.13907 h 12.52971 v -12.52968 h -12.52973 z"
     fill="#3f3d56"
     id="path10"
     style="stroke-width:0.656699" />
  <path
     d="m 506.39937,222.97917 -10.10016,-10.82859 10.82859,-10.10017 10.10017,10.82861 z m -8.49025,-10.77257 8.54628,9.16268 9.16265,-8.54629 -8.54628,-9.16266 z"
     fill="#3f3d56"
     id="path12"
     style="stroke-width:0.656699" />
  <path
     d="m 844.70617,323.73186 q -24.32961,-3.80877 -46.78519,-6.47933 l 5.76479,-11.52962 c -2.00096,-0.667 -10.67197,6.00298 -10.67197,6.00298 l 7.33701,-33.34991 c -10.00497,1.33399 -14.67395,35.35091 -14.67395,35.35091 l -11.33901,-11.33897 5.58167,12.83781 c -45.81029,-4.8135 -85.34028,-6.31568 -118.5695,-5.97115 l 4.93409,-9.86815 c -2.00095,-0.66699 -10.67196,6.00299 -10.67196,6.00299 l 7.33697,-33.34992 c -10.00497,1.334 -14.67393,35.35092 -14.67393,35.35092 l -11.33898,-11.33897 5.91188,13.59733 a 665.5638,665.5638 0 0 0 -68.04888,5.47999 c 4.92346,-15.33817 22.1171,-30.08279 22.1171,-30.08279 -13.22027,4.11297 -20.09807,10.81363 -23.65795,17.02486 a 267.84054,267.84054 0 0 1 14.31998,-92.72917 c 0,0 -26.67994,60.02984 -22.67794,100.04974 l 0.50778,7.10892 c -23.21113,3.62099 -34.85819,7.23154 -34.85819,7.23154 z"
     fill="#3f3d56"
     id="path16"
     style="stroke-width:0.656699" />
  <circle
     cx="680.22089"
     cy="138.84386"
     r="104.26386"
     fill="#dc5c01"
     opacity="0.3"
     id="circle18"
     style="stroke-width:0.656699" />
  <polygon
     points="509.965,398.782 614.268,276.156 459.223,85.873 353.51,214.137 "
     fill="#dc5c01"
     id="polygon20"
     transform="matrix(0.65669928,0,0,0.65669928,335.83129,-50.19285)" />
  <polygon
     points="509.965,398.782 614.268,276.156 459.223,85.873 353.51,214.137 "
     opacity="0.1"
     id="polygon22"
     transform="matrix(0.65669928,0,0,0.65669928,335.83129,-50.19285)" />
  <path
     d="m 570.75801,91.356706 v 0 a 34.891326,34.891326 0 0 1 5.66019,-7.557583 L 640.1795,19.15837 c 0,0 22.21486,-3.702471 26.84297,7.404941 l -81.45453,66.644636 z"
     fill="#f2f2f2"
     id="path24"
     style="stroke-width:0.656699" />
  <path
     d="m 567.51834,89.968273 94.41322,144.396677 c 0,0 9.25617,6.47935 18.51239,2.77686 L 777.17122,171.8856 674.42741,16.381503 581.86545,88.579852 Z"
     fill="#dc5c01"
     id="path26"
     style="stroke-width:0.656699" />
  <rect
     x="442.65247"
     y="418.42636"
     width="72.954025"
     height="1.500072"
     transform="rotate(-35.7003)"
     fill="#3f3d56"
     id="rect28"
     style="stroke-width:0.656699" />
  <rect
     x="447.5759"
     y="413.83041"
     width="1.500177"
     height="140.94087"
     transform="rotate(-33.48132)"
     fill="#3f3d56"
     id="rect30"
     style="stroke-width:0.656699" />
  <rect
     x="425.32089"
     y="584.19885"
     width="78.125229"
     height="1.5005579"
     transform="rotate(-36.34406)"
     fill="#3f3d56"
     id="rect32"
     style="stroke-width:0.656699" />
  <rect
     x="528.40643"
     y="418.70105"
     width="1.4996647"
     height="140.96762"
     transform="rotate(-34.83794)"
     fill="#3f3d56"
     id="rect34"
     style="stroke-width:0.656699" />
  <rect
     x="366.57959"
     y="452.4357"
     width="99.415375"
     height="0.92509228"
     transform="rotate(-42.54484)"
     fill="#3f3d56"
     id="rect36"
     style="stroke-width:0.656699" />
  <rect
     x="376.72525"
     y="447.82361"
     width="102.11143"
     height="0.92603141"
     transform="rotate(-41.43847)"
     fill="#3f3d56"
     id="rect38"
     style="stroke-width:0.656699" />
  <rect
     x="390.71329"
     y="438.15897"
     width="103.45163"
     height="0.9261167"
     transform="rotate(-39.81273)"
     fill="#3f3d56"
     id="rect40"
     style="stroke-width:0.656699" />
  <text
     xml:space="preserve"
     id="text53"
     style="font-style:normal;font-weight:normal;font-size:48px;line-height:1.25;font-family:sans-serif;white-space:pre;shape-inside:url(#rect55);fill:#333333;fill-opacity:1;stroke:none;"
     transform="translate(45.735125,25.850288)"><tspan
       x="213.76172"
       y="129.29576"><tspan
         style="font-style:normal;font-variant:normal;font-weight:bold;font-stretch:normal;font-size:48px;font-family:lora;-inkscape-font-specification:'lora Bold';fill:#333333">Our
</tspan></tspan><tspan
       x="213.76172"
       y="189.36263"><tspan
         style="font-style:normal;font-variant:normal;font-weight:bold;font-stretch:normal;font-size:48px;font-family:lora;-inkscape-font-specification:'lora Bold';fill:#333333">Story</tspan></tspan></text>
</svg>
