<?xml version="1.0" encoding="UTF-8" standalone="no"?>
<svg
   xmlns:dc="http://purl.org/dc/elements/1.1/"
   xmlns:cc="http://creativecommons.org/ns#"
   xmlns:rdf="http://www.w3.org/1999/02/22-rdf-syntax-ns#"
   xmlns:svg="http://www.w3.org/2000/svg"
   xmlns="http://www.w3.org/2000/svg"
   xmlns:sodipodi="http://sodipodi.sourceforge.net/DTD/sodipodi-0.dtd"
   xmlns:inkscape="http://www.inkscape.org/namespaces/inkscape"
   id="fab53ecb-c04a-44eb-8d92-23f87bdb6c81"
   data-name="Layer 1"
   width="942.54724"
   height="631.43903"
   viewBox="0 0 942.54724 631.43903"
   version="1.1"
   sodipodi:docname="taasm.svg"
   inkscape:version="1.0.1 (3bc2e813f5, 2020-09-07)">
  <metadata
     id="metadata115">
    <rdf:RDF>
      <cc:Work
         rdf:about="">
        <dc:format>image/svg+xml</dc:format>
        <dc:type
           rdf:resource="http://purl.org/dc/dcmitype/StillImage" />
      </cc:Work>
    </rdf:RDF>
  </metadata>
  <defs
     id="defs113">
    <rect
       x="39.800459"
       y="35.27768"
       width="312.07178"
       height="262.32121"
       id="rect119" />
  </defs>
  <sodipodi:namedview
     pagecolor="#ffffff"
     bordercolor="#666666"
     borderopacity="1"
     objecttolerance="10"
     gridtolerance="10"
     guidetolerance="10"
     inkscape:pageopacity="0"
     inkscape:pageshadow="2"
     inkscape:window-width="1920"
     inkscape:window-height="1009"
     id="namedview111"
     showgrid="false"
     inkscape:zoom="1.1055149"
     inkscape:cx="471.27362"
     inkscape:cy="271.46146"
     inkscape:window-x="-8"
     inkscape:window-y="-8"
     inkscape:window-maximized="1"
     inkscape:current-layer="fab53ecb-c04a-44eb-8d92-23f87bdb6c81"
     inkscape:document-rotation="0" />
  <path
     d="m 327.67693,178.27925 1.04236,-8.35504 a 11.282554,11.282554 0 0 1 22.39152,2.79353 l -1.04236,8.35505 a 1.5172793,1.5172793 0 0 1 -1.69154,1.31628 l -19.3837,-2.41829 a 1.5172756,1.5172756 0 0 1 -1.31628,-1.69153 z"
     fill="#2f2e41"
     id="path2"
     style="stroke-width:0.372551" />
  <circle
     cx="336.96191"
     cy="172.49989"
     r="8.2719698"
     fill="#ffb8b8"
     id="circle4"
     style="stroke-width:0.372551" />
  <path
     d="m 325.98726,170.26217 a 8.9350959,8.9350959 0 0 1 9.96125,-7.75144 l 1.67109,0.20848 a 8.935029,8.935029 0 0 1 7.75135,9.96124 l -0.0208,0.16711 -3.5314,-0.44058 -0.78368,-3.52296 -0.66163,3.34265 -1.82506,-0.2277 -0.3954,-1.7775 -0.33387,1.68653 -11.85266,-1.47873 z"
     fill="#2f2e41"
     id="path6"
     style="stroke-width:0.372551" />
  <path
     d="m 296.50399,202.00756 a 3.8103971,3.8103971 0 0 0 5.69418,1.30943 l 7.51321,4.40122 3.7882,-3.91343 -10.69741,-6.06635 a 3.8310514,3.8310514 0 0 0 -6.29818,4.26913 z"
     fill="#ffb8b8"
     id="path8"
     style="stroke-width:0.372551" />
  <path
     d="m 321.1283,209.91605 c -5.54188,0 -15.29398,-2.48088 -15.83398,-2.61949 l -0.17053,-0.0437 1.53486,-7.77101 14.89533,2.94204 8.09208,-11.3952 9.29041,-0.94448 -0.25932,0.34126 c -0.12078,0.15899 -12.09664,15.92403 -13.9604,18.56864 -0.47032,0.66724 -1.81373,0.92191 -3.58845,0.92191 z"
     fill="#3f3d56"
     id="path10"
     style="stroke-width:0.372551" />
  <path
     d="m 322.61406,239.0824 -0.22175,-0.10587 c -0.0473,-0.0225 -4.75567,-2.3128 -7.19445,-6.78379 -2.42713,-4.44988 8.93496,-23.32631 9.72982,-24.63606 l 0.0115,-5.99466 4.08737,-11.03538 5.21262,-2.94621 -4.47545,10.44253 z"
     fill="#3f3d56"
     id="path12"
     style="stroke-width:0.372551" />
  <polygon
     points="723.257,615.591 709.885,615.59 703.523,564.011 723.259,564.012 "
     fill="#ffb8b8"
     id="polygon14"
     transform="matrix(0.3725515,0,0,0.3725515,47.941464,74.173582)" />
  <path
     d="m 318.66237,308.34189 -16.06362,-6e-4 v -0.20317 a 6.2527516,6.2527516 0 0 1 6.25242,-6.2523 h 3.9e-4 l 9.81111,4e-4 z"
     fill="#2f2e41"
     id="path16"
     style="stroke-width:0.372551" />
  <polygon
     points="866.891,603.872 854.184,608.035 832.077,561.002 850.832,554.857 "
     fill="#ffb8b8"
     id="polygon18"
     transform="matrix(0.3725515,0,0,0.3725515,47.941464,74.173582)" />
  <path
     d="m 373.61416,303.34042 -15.26516,5.00147 -0.0633,-0.19308 a 6.2527479,6.2527479 0 0 1 3.99465,-7.88841 l 3.7e-4,-1.2e-4 9.32345,-3.0547 z"
     fill="#2f2e41"
     id="path20"
     style="stroke-width:0.372551" />
  <path
     d="m 361.25727,296.00528 -14.20185,-23.70949 -11.98881,-25.33087 -10.78844,22.37564 -4.28571,28.98008 -15.02984,0.20883 0.0592,-0.23503 23.00041,-91.39081 18.01362,2.69117 -0.81996,11.89035 0.48833,0.69454 c 4.06923,5.78073 8.27664,11.75756 5.8635,18.20045 l 6.84091,20.31242 15.14282,33.82251 z"
     fill="#2f2e41"
     id="path22"
     style="stroke-width:0.372551" />
  <path
     d="m 328.84529,226.71071 c -2.61022,0 -5.58827,-2.98041 -4.0433,-8.0688 l -0.10005,-0.0724 3.71087,-16.39517 c -3.23845,-4.63143 1.03125,-8.45372 1.43134,-8.79516 l 2.03812,-3.66858 8.99254,-5.70306 4.54994,37.80433 -0.0673,0.0644 c -3.28611,3.14413 -14.32258,4.83444 -16.51214,4.83444 z"
     fill="#dc5c01"
     id="path24"
     style="stroke-width:0.372551" />
  <path
     d="m 347.26167,235.2412 a 4.4264111,4.4264111 0 0 1 -1.06226,-0.11243 c -0.34973,-0.0877 -0.91592,-0.53298 -1.79082,-3.3817 -3.47821,-11.32462 -7.58482,-45.39925 -4.60132,-48.73366 l 0.0683,-0.0764 4.89865,0.81642 c 0.4072,-0.30052 2.54401,-1.79218 4.51582,-1.53278 a 2.9927062,2.9927062 0 0 1 2.04777,1.21043 l 0.0337,0.0442 1.56061,22.20192 5.71725,26.12737 -0.13707,0.0622 c -0.33264,0.15134 -7.4717,3.37443 -11.25069,3.37443 z"
     fill="#3f3d56"
     id="path26"
     style="stroke-width:0.372551" />
  <path
     d="m 343.96722,226.56352 a 3.810412,3.810412 0 0 0 3.59974,-4.60218 l 7.17108,-4.93911 -1.93862,-5.08991 -10.02899,7.11722 a 3.8310514,3.8310514 0 0 0 1.19679,7.514 z"
     fill="#ffb8b8"
     id="path28"
     style="stroke-width:0.372551" />
  <path
     d="m 352.37177,220.97981 -6.38758,-4.68418 8.9788,-12.24363 -6.89037,-12.15941 3.08274,-8.81498 0.19919,0.37963 c 0.0928,0.17681 9.29451,17.7062 10.89968,20.51543 1.67002,2.9222 -9.30262,16.30313 -9.77047,16.87105 z"
     fill="#3f3d56"
     id="path30"
     style="stroke-width:0.372551" />
  <path
     d="m 208.68989,276.087 -5.43638,-2.28906 -3.72934,-27.25266 h -49.66282 l -4.04233,27.14132 -4.8637,2.43182 a 1.1549693,1.1549693 0 0 0 0.51657,2.18799 h 66.76995 a 1.1549097,1.1549097 0 0 0 0.44805,-2.21941 z"
     fill="#e6e6e6"
     id="path32"
     style="stroke-width:0.372551" />
  <path
     d="M 296.94415,250.17113 H 52.986554 a 4.8332746,4.8332746 0 0 1 -4.82242,-4.83323 V 210.93669 H 301.76657 v 34.40122 a 4.833323,4.833323 0 0 1 -4.82242,4.83322 z"
     fill="#cccccc"
     id="path34"
     style="stroke-width:0.372551" />
  <path
     d="M 302.02158,227.19551 H 47.941464 V 79.999948 a 5.8331096,5.8331096 0 0 1 5.82657,-5.826366 H 296.19494 a 5.833173,5.833173 0 0 1 5.82664,5.826366 z"
     fill="#3f3d56"
     id="path36"
     style="stroke-width:0.372551" />
  <path
     d="M 286.84638,216.51205 H 63.116664 a 4.496786,4.496786 0 0 1 -4.49185,-4.49174 V 89.348797 a 4.4970245,4.4970245 0 0 1 4.49185,-4.492006 H 286.84638 a 4.4970245,4.4970245 0 0 1 4.49186,4.492006 V 212.02031 a 4.496786,4.496786 0 0 1 -4.49186,4.49174 z"
     fill="#ffffff"
     id="path38"
     style="stroke-width:0.372551" />
  <path
     d="M 237.72664,278.5907 H 112.00981 a 0.58371741,0.58371741 0 0 1 -0.5734,-0.42233 0.56967222,0.56967222 0 0 1 0.55036,-0.7149 h 125.69329 a 0.60180107,0.60180107 0 0 1 0.60211,0.4447 0.56932948,0.56932948 0 0 1 -0.55553,0.69253 z"
     fill="#cccccc"
     id="path40"
     style="stroke-width:0.372551" />
  <rect
     x="230.43951"
     y="104.68906"
     width="54.018456"
     height="41.268761"
     fill="#f2f2f2"
     id="rect42"
     style="stroke-width:0.372551" />
  <rect
     x="233.1236"
     y="106.73969"
     width="48.650162"
     height="37.167515"
     fill="#ffffff"
     id="rect44"
     style="stroke-width:0.372551" />
  <path
     d="m 258.30304,134.30872 q 0.01,1e-4 0.0193,-4e-4 a 12.971032,12.971032 0 0 0 0.29022,-25.88821 0.2958953,0.2958953 0 0 0 -0.22395,0.0776 0.29279567,0.29279567 0 0 0 -0.0957,0.21442 l -0.28358,25.29699 a 0.29694962,0.29694962 0 0 0 0.29367,0.29958 z"
     fill="#3f3d56"
     id="path46"
     style="stroke-width:0.372551" />
  <path
     d="m 248.13037,112.60318 a 0.3819547,0.3819547 0 0 1 0.26811,0.1145 l 8.7087,8.90617 a 0.37783428,0.37783428 0 0 1 0.10839,0.27014 l -0.1357,12.10474 a 0.37649682,0.37649682 0 0 1 -0.12301,0.27563 0.38223784,0.38223784 0 0 1 -0.28734,0.0998 13.055866,13.055866 0 0 1 -8.82928,-21.64175 0.38237196,0.38237196 0 0 1 0.27603,-0.12912 q 0.007,-1.7e-4 0.0141,-9e-5 z"
     fill="#e6e6e6"
     id="path48"
     style="stroke-width:0.372551" />
  <path
     d="m 256.9859,108.31671 a 0.38347099,0.38347099 0 0 1 0.26059,0.10649 0.37677996,0.37677996 0 0 1 0.11696,0.27862 l -0.12243,10.92163 a 0.3802894,0.3802894 0 0 1 -0.65212,0.26162 l -7.59942,-7.77174 a 0.38108665,0.38108665 0 0 1 0.0204,-0.55198 13.083286,13.083286 0 0 1 7.95235,-3.24418 c 0.008,-3.9e-4 0.0158,-5.4e-4 0.0236,-4.6e-4 z"
     fill="#dc5c01"
     id="path50"
     style="stroke-width:0.372551" />
  <path
     d="m 253.07098,139.55447 a 2.3297247,2.3297247 0 1 1 -2.30346,-2.35569 2.3323736,2.3323736 0 0 1 2.30346,2.35569 z"
     fill="#dc5c01"
     id="path52"
     style="stroke-width:0.372551" />
  <path
     d="m 259.72692,139.62909 a 2.3297247,2.3297247 0 1 1 -2.30346,-2.35569 2.332381,2.332381 0 0 1 2.30346,2.35569 z"
     fill="#3f3d56"
     id="path54"
     style="stroke-width:0.372551" />
  <path
     d="m 266.38285,139.70373 a 2.3297247,2.3297247 0 1 1 -2.30346,-2.3557 2.3323736,2.3323736 0 0 1 2.30346,2.3557 z"
     fill="#e6e6e6"
     id="path56"
     style="stroke-width:0.372551" />
  <rect
     x="229.87085"
     y="152.45274"
     width="54.018456"
     height="41.268761"
     fill="#f2f2f2"
     id="rect58"
     style="stroke-width:0.372551" />
  <rect
     x="232.55499"
     y="154.50339"
     width="48.650162"
     height="37.167515"
     fill="#ffffff"
     id="rect60"
     style="stroke-width:0.372551" />
  <circle
     cx="240.80945"
     cy="164.69917"
     r="2.0199854"
     fill="#3f3d56"
     id="circle62"
     style="stroke-width:0.372551" />
  <path
     d="m 273.26524,163.12726 a 1.3699203,1.3699203 0 1 1 0,2.73984 h -21.24497 a 1.3699203,1.3699203 0 1 1 0,-2.73984 h 21.24497 m 0,-0.33552 h -21.24497 a 1.7054434,1.7054434 0 1 0 0,3.41088 h 21.24497 a 1.7054434,1.7054434 0 1 0 0,-3.41088 z"
     fill="#3f3d56"
     id="path64"
     style="stroke-width:0.372551" />
  <path
     d="m 264.88236,166.20262 h -15.99301 a 1.70544,1.70544 0 1 1 0,-3.41088 h 15.99301 a 1.70544,1.70544 0 0 1 0,3.41088 z"
     fill="#dc5c01"
     id="path66"
     style="stroke-width:0.372551" />
  <circle
     cx="240.80945"
     cy="173.08713"
     r="2.0199854"
     fill="#3f3d56"
     id="circle68"
     style="stroke-width:0.372551" />
  <path
     d="m 273.26524,171.51522 a 1.3699203,1.3699203 0 1 1 0,2.73984 h -21.24497 a 1.36992,1.36992 0 1 1 0,-2.73984 h 21.24497 m 0,-0.33552 h -21.24497 a 1.70544,1.70544 0 1 0 0,3.41088 h 21.24497 a 1.70544,1.70544 0 1 0 0,-3.41088 z"
     fill="#3f3d56"
     id="path70"
     style="stroke-width:0.372551" />
  <path
     d="m 270.92168,174.59056 h -22.03232 a 1.7054372,1.7054372 0 1 1 0,-3.41087 h 22.03232 a 1.7054372,1.7054372 0 0 1 0,3.41087 z"
     fill="#dc5c01"
     id="path72"
     style="stroke-width:0.372551" />
  <circle
     cx="240.80945"
     cy="181.47508"
     r="2.0199854"
     fill="#3f3d56"
     id="circle74"
     style="stroke-width:0.372551" />
  <path
     d="m 273.26524,179.90318 a 1.3699203,1.3699203 0 1 1 0,2.73983 h -21.24497 a 1.3699184,1.3699184 0 1 1 0,-2.73983 h 21.24497 m 0,-0.33552 h -21.24497 a 1.70544,1.70544 0 1 0 0,3.41088 h 21.24497 a 1.70544,1.70544 0 1 0 0,-3.41088 z"
     fill="#3f3d56"
     id="path76"
     style="stroke-width:0.372551" />
  <path
     d="m 257.83646,182.97853 h -8.94711 a 1.7054365,1.7054365 0 1 1 0,-3.41087 h 8.94711 a 1.7054365,1.7054365 0 0 1 0,3.41087 z"
     fill="#dc5c01"
     id="path78"
     style="stroke-width:0.372551" />
  <rect
     x="67.011765"
     y="111.99047"
     width="150.91814"
     height="77.345543"
     fill="#f2f2f2"
     id="rect80"
     style="stroke-width:0.372551" />
  <rect
     x="72.042404"
     y="115.83373"
     width="140.85692"
     height="69.659027"
     fill="#ffffff"
     id="rect82"
     style="stroke-width:0.372551" />
  <path
     d="M 195.43008,174.86559 H 92.748093 a 0.32136293,0.32136293 0 0 1 -0.32135,-0.32135 v -49.21547 a 0.32135,0.32135 0 1 1 0.6427,0 V 174.2229 H 195.43008 a 0.32134802,0.32134802 0 0 1 0,0.64269 z"
     fill="#3f3d56"
     id="path84"
     style="stroke-width:0.372551" />
  <path
     d="m 114.68676,171.33077 h -9.33932 a 0.95498366,0.95498366 0 0 1 -0.95392,-0.95384 v -12.87431 a 0.95498734,0.95498734 0 0 1 0.95392,-0.95385 h 9.33932 a 0.95498734,0.95498734 0 0 1 0.95393,0.95385 v 12.87431 a 0.95498366,0.95498366 0 0 1 -0.95393,0.95384 z"
     fill="#dc5c01"
     id="path86"
     style="stroke-width:0.372551" />
  <path
     d="m 131.71819,171.33077 h -9.33932 a 0.95498366,0.95498366 0 0 1 -0.95393,-0.95384 v -25.08552 a 0.95498366,0.95498366 0 0 1 0.95393,-0.95386 h 9.33932 a 0.95498366,0.95498366 0 0 1 0.95392,0.95386 v 25.08552 a 0.95498366,0.95498366 0 0 1 -0.95392,0.95384 z"
     fill="#dc5c01"
     id="path88"
     style="stroke-width:0.372551" />
  <path
     d="m 148.74962,171.33077 h -9.33932 a 0.95498734,0.95498734 0 0 1 -0.95393,-0.95384 v -12.87431 a 0.95498734,0.95498734 0 0 1 0.95393,-0.95385 h 9.33932 a 0.95498734,0.95498734 0 0 1 0.95393,0.95385 v 12.87431 a 0.95498734,0.95498734 0 0 1 -0.95393,0.95384 z"
     fill="#dc5c01"
     id="path90"
     style="stroke-width:0.372551" />
  <path
     d="m 165.78106,171.33077 h -9.33933 a 0.9341133,0.9341133 0 0 1 -0.95393,-0.91064 v -29.99217 a 0.9341133,0.9341133 0 0 1 0.95393,-0.91062 h 9.33932 a 0.9341133,0.9341133 0 0 1 0.95393,0.91062 v 29.99216 a 0.9341133,0.9341133 0 0 1 -0.95392,0.91065 z"
     fill="#dc5c01"
     id="path92"
     style="stroke-width:0.372551" />
  <path
     d="m 182.81249,171.33077 h -9.33933 a 0.95498366,0.95498366 0 0 1 -0.95392,-0.95384 V 131.7948 a 0.95498366,0.95498366 0 0 1 0.95392,-0.95384 h 9.33933 a 0.95498366,0.95498366 0 0 1 0.95392,0.95384 v 38.58213 a 0.95498366,0.95498366 0 0 1 -0.95392,0.95384 z"
     fill="#dc5c01"
     id="path94"
     style="stroke-width:0.372551" />
  <circle
     cx="110.01708"
     cy="150.76451"
     r="1.9280881"
     fill="#3f3d56"
     id="circle96"
     style="stroke-width:0.372551" />
  <circle
     cx="127.04858"
     cy="138.23196"
     r="1.9280881"
     fill="#3f3d56"
     id="circle98"
     style="stroke-width:0.372551" />
  <circle
     cx="144.07996"
     cy="150.76451"
     r="1.9280881"
     fill="#3f3d56"
     id="circle100"
     style="stroke-width:0.372551" />
  <circle
     cx="161.11139"
     cy="132.12634"
     r="1.9280881"
     fill="#3f3d56"
     id="circle102"
     style="stroke-width:0.372551" />
  <circle
     cx="178.14282"
     cy="125.05669"
     r="1.9280881"
     fill="#3f3d56"
     id="circle104"
     style="stroke-width:0.372551" />
  <polygon
     points="349.163,136.337 349.808,137.937 304.274,156.283 258.163,206.744 212.339,172.421 167.14,206.275 166.106,204.895 212.339,170.265 257.945,204.425 303.266,154.83 303.447,154.756 "
     fill="#3f3d56"
     id="polygon106"
     transform="matrix(0.3725515,0,0,0.3725515,47.941464,74.173582)" />
  <path
     d="M 398.7163,309.41714 H 256.77418 a 0.37255214,0.37255214 0 0 1 0,-0.7451 H 398.7163 a 0.37255214,0.37255214 0 0 1 0,0.7451 z"
     fill="#cccccc"
     id="path108"
     style="stroke-width:0.372551" />
  <text
     xml:space="preserve"
     id="text117"
     style="font-style:normal;font-weight:normal;font-size:48px;line-height:1.25;font-family:sans-serif;white-space:pre;shape-inside:url(#rect119);fill:#333333;fill-opacity:1;stroke:none;"
     transform="translate(34.373125,322.02189)"><tspan
       x="39.800781"
       y="79.069199"><tspan
         style="font-style:normal;font-variant:normal;font-weight:bold;font-stretch:normal;font-size:48px;font-family:lora;-inkscape-font-specification:'lora Bold';fill:#333333">Technology
</tspan></tspan><tspan
       x="39.800781"
       y="139.13606"><tspan
         style="font-style:normal;font-variant:normal;font-weight:bold;font-stretch:normal;font-size:48px;font-family:lora;-inkscape-font-specification:'lora Bold';fill:#333333">as a
</tspan></tspan><tspan
       x="39.800781"
       y="199.20291"><tspan
         style="font-style:normal;font-variant:normal;font-weight:bold;font-stretch:normal;font-size:48px;font-family:lora;-inkscape-font-specification:'lora Bold';fill:#333333">Services</tspan></tspan></text>
</svg>
