<?xml version="1.0" encoding="UTF-8" standalone="no"?>
<svg
   xmlns:dc="http://purl.org/dc/elements/1.1/"
   xmlns:cc="http://creativecommons.org/ns#"
   xmlns:rdf="http://www.w3.org/1999/02/22-rdf-syntax-ns#"
   xmlns:svg="http://www.w3.org/2000/svg"
   xmlns="http://www.w3.org/2000/svg"
   xmlns:sodipodi="http://sodipodi.sourceforge.net/DTD/sodipodi-0.dtd"
   xmlns:inkscape="http://www.inkscape.org/namespaces/inkscape"
   id="ab33c339-a290-46df-b273-a8a31c058d9b"
   data-name="Layer 1"
   width="1104"
   height="560.27146"
   viewBox="0 0 1104 560.27146"
   version="1.1"
   sodipodi:docname="ab1.svg"
   inkscape:version="1.0.1 (3bc2e813f5, 2020-09-07)">
  <metadata
     id="metadata67">
    <rdf:RDF>
      <cc:Work
         rdf:about="">
        <dc:format>image/svg+xml</dc:format>
        <dc:type
           rdf:resource="http://purl.org/dc/dcmitype/StillImage" />
      </cc:Work>
    </rdf:RDF>
  </metadata>
  <defs
     id="defs65">
    <rect
       x="268.05374"
       y="337.98081"
       width="549.94626"
       height="102.3302"
       id="rect71" />
  </defs>
  <sodipodi:namedview
     pagecolor="#ffffff"
     bordercolor="#666666"
     borderopacity="1"
     objecttolerance="10"
     gridtolerance="10"
     guidetolerance="10"
     inkscape:pageopacity="0"
     inkscape:pageshadow="2"
     inkscape:window-width="1920"
     inkscape:window-height="1009"
     id="namedview63"
     showgrid="false"
     inkscape:zoom="0.94384058"
     inkscape:cx="552"
     inkscape:cy="280.13574"
     inkscape:window-x="-8"
     inkscape:window-y="-8"
     inkscape:window-maximized="1"
     inkscape:current-layer="ab33c339-a290-46df-b273-a8a31c058d9b" />
  <title
     id="title2">zoom_in</title>
  <rect
     width="1104"
     height="560"
     fill="#6c63ff"
     id="rect4"
     x="0"
     y="0" />
  <rect
     x="1021.14746"
     y="484.74411"
     width="2"
     height="74.41113"
     fill="#3f3d56"
     id="rect6" />
  <circle
     cx="1022.14769"
     cy="484.74374"
     r="10.52282"
     fill="#3f3d56"
     id="circle8" />
  <path
     d="M1070.14769,700.46928s-1.50326-32.33193-32.32009-28.57378"
     transform="translate(-48 -169.86427)"
     fill="#3f3d56"
     id="path10" />
  <path
     d="M107.40863,693.73447c6.07317,22.45005,26.87512,36.35394,26.87512,36.35394s10.95541-22.49485,4.88225-44.94491-26.87512-36.35394-26.87512-36.35394S101.33547,671.28441,107.40863,693.73447Z"
     transform="translate(-48 -169.86427)"
     fill="#fff"
     id="path12" />
  <path
     d="M116.33272,688.90971c16.66484,16.22255,18.70033,41.1604,18.70033,41.1604s-24.98356-1.36412-41.64841-17.58667S74.68431,671.323,74.68431,671.323,99.66787,672.68715,116.33272,688.90971Z"
     transform="translate(-48 -169.86427)"
     fill="#3f3d56"
     id="path14" />
  <polygon
     points="442.23 0 0 303.64 0 234.46 341.53 0 442.23 0"
     opacity="0.1"
     id="polygon16" />
  <polygon
     points="274.97 0 0 188.77 0 119.63 174.26 0 274.97 0"
     opacity="0.1"
     id="polygon18" />
  <polygon
     points="93.46 0 0 64.16 0 0 93.46 0"
     opacity="0.1"
     id="polygon20" />
  <ellipse
     cx="552"
     cy="274.36829"
     rx="131.45297"
     ry="19.483429"
     opacity="0.1"
     id="ellipse22"
     style="stroke-width:0.819245" />
  <ellipse
     cx="552"
     cy="258.13211"
     rx="131.45297"
     ry="19.483429"
     opacity="0.1"
     id="ellipse24"
     style="stroke-width:0.819245" />
  <ellipse
     cx="552"
     cy="241.8959"
     rx="131.45297"
     ry="19.483429"
     opacity="0.1"
     id="ellipse26"
     style="stroke-width:0.819245" />
  <ellipse
     cx="552"
     cy="225.65971"
     rx="131.45297"
     ry="19.483429"
     opacity="0.1"
     id="ellipse28"
     style="stroke-width:0.819245" />
  <ellipse
     cx="552"
     cy="209.42352"
     rx="131.45297"
     ry="19.483429"
     opacity="0.1"
     id="ellipse30"
     style="stroke-width:0.819245" />
  <ellipse
     cx="552"
     cy="193.18733"
     rx="131.45297"
     ry="19.483429"
     opacity="0.1"
     id="ellipse32"
     style="stroke-width:0.819245" />
  <path
     d="m 598.04492,133.55242 c -10.48038,38.0417 -46.378,61.60188 -46.378,61.60188 0,0 -18.90559,-38.1176 -8.42523,-76.1593 10.48037,-38.0417 46.378,-61.601887 46.378,-61.601887 0,0 18.90557,38.117597 8.42523,76.159307 z"
     fill="#ffffff"
     id="path34"
     style="stroke-width:0.819245" />
  <path
     d="m 502.70277,133.55242 c 10.48037,38.0417 46.37798,61.60192 46.37798,61.60192 0,0 18.90559,-38.1176 8.42523,-76.15931 -10.48037,-38.0417 -46.378,-61.601884 -46.378,-61.601884 0,0 -18.90558,38.117564 -8.42521,76.159274 z"
     fill="#ffffff"
     id="path36"
     style="stroke-width:0.819245" />
  <path
     d="m 518.10293,125.37687 c 28.75828,27.48918 32.2709,69.74645 32.2709,69.74645 0,0 -43.11378,-2.3115 -71.87206,-29.80072 -28.75828,-27.48922 -32.27089,-69.74645 -32.27089,-69.74645 0,0 43.11377,2.31152 71.87205,29.80072 z"
     fill="#3f3d56"
     id="path38"
     style="stroke-width:0.819245" />
  <path
     d="m 582.64473,125.37687 c -28.75828,27.48918 -32.2709,69.74645 -32.2709,69.74645 0,0 43.11377,-2.3115 71.87206,-29.80072 28.75829,-27.48922 32.2709,-69.74645 32.2709,-69.74645 0,0 -43.11378,2.31152 -71.87206,29.80072 z"
     fill="#3f3d56"
     id="path40"
     style="stroke-width:0.819245" />
  <rect
     x="256.17236"
     y="440.31101"
     width="561.82764"
     height="2"
     fill="#3f3d56"
     id="rect42" />
  <path
     d="M688.17236,730.13573a12,12,0,1,1,12-12A12.01375,12.01375,0,0,1,688.17236,730.13573Zm0-22a10,10,0,1,0,10,10A10.01114,10.01114,0,0,0,688.17236,708.13573Z"
     transform="translate(-48 -169.86427)"
     fill="#f0f0f0"
     id="path44" />
  <path
     d="M311,487.42559H291.25885V467.68444H311ZM292.7774,485.907h16.704V469.203h-16.704Z"
     transform="translate(-48 -169.86427)"
     fill="#3f3d56"
     id="path46" />
  <path
     d="M840.64387,625.50567l-13.4651-14.43621L841.615,597.60437l13.46509,14.43621ZM829.325,611.14416l11.39354,12.21526,12.21525-11.39354-11.39354-12.21526Z"
     transform="translate(-48 -169.86427)"
     fill="#f0f0f0"
     id="path48" />
  <path
     d="M1152,283.86427v286a143,143,0,1,1,0-286Z"
     transform="translate(-48 -169.86427)"
     opacity="0.1"
     id="path50" />
  <circle
     cx="972"
     cy="152"
     r="110"
     opacity="0.1"
     id="circle52" />
  <circle
     cx="875"
     cy="88"
     r="56"
     opacity="0.1"
     id="circle54" />
  <path
     d="M923.3101,286.93662a29.116,29.116,0,1,1,29.116-29.116A29.14864,29.14864,0,0,1,923.3101,286.93662Z"
     transform="translate(-48 -169.86427)"
     fill="#3f3d56"
     id="path56" />
  <ellipse
     cx="550.60291"
     cy="43.262032"
     fill="#f0f0f0"
     id="circle58"
     rx="8.3324738"
     ry="8.1819124"
     style="stroke-width:0.819245" />
  <path
     d="m 550.60288,66.898672 a 24.071603,23.636647 0 1 1 24.0716,-23.636646 24.098588,23.663144 0 0 1 -24.0716,23.636646 z m 0,-45.455067 A 22.219935,21.818437 0 1 0 572.8228,43.262034 22.245382,21.843424 0 0 0 550.60288,21.443605 Z"
     fill="#2f2e41"
     id="path60"
     style="stroke-width:0.819245" />
  <text
     xml:space="preserve"
     id="text69"
     style="font-style:normal;font-weight:normal;font-size:40px;line-height:1.25;font-family:sans-serif;white-space:pre;shape-inside:url(#rect71);fill:#000000;fill-opacity:1;stroke:none;"
     transform="matrix(2,0,0,2,-264.64542,-346.86708)"><tspan
       x="268.05469"
       y="374.74421"><tspan
         style="font-style:normal;font-variant:normal;font-weight:bold;font-stretch:normal;font-family:Montserrat;-inkscape-font-specification:'Montserrat Bold';fill:#ffffff">Who are we?</tspan></tspan></text>
</svg>
