<?xml version="1.0" encoding="UTF-8" standalone="no"?>
<svg
   xmlns:dc="http://purl.org/dc/elements/1.1/"
   xmlns:cc="http://creativecommons.org/ns#"
   xmlns:rdf="http://www.w3.org/1999/02/22-rdf-syntax-ns#"
   xmlns:svg="http://www.w3.org/2000/svg"
   xmlns="http://www.w3.org/2000/svg"
   xmlns:sodipodi="http://sodipodi.sourceforge.net/DTD/sodipodi-0.dtd"
   xmlns:inkscape="http://www.inkscape.org/namespaces/inkscape"
   id="a3386fed-3d80-43e9-a677-097ead221e66"
   data-name="Layer 1"
   width="776.36327"
   height="516.12769"
   viewBox="0 0 776.36327 516.12769"
   version="1.1"
   sodipodi:docname="baas.svg"
   inkscape:version="1.0.1 (3bc2e813f5, 2020-09-07)">
  <metadata
     id="metadata75">
    <rdf:RDF>
      <cc:Work
         rdf:about="">
        <dc:format>image/svg+xml</dc:format>
        <dc:type
           rdf:resource="http://purl.org/dc/dcmitype/StillImage" />
      </cc:Work>
    </rdf:RDF>
  </metadata>
  <defs
     id="defs73">
    <rect
       x="35.763376"
       y="58.860556"
       width="270.46053"
       height="222.03096"
       id="rect79" />
  </defs>
  <sodipodi:namedview
     pagecolor="#ffffff"
     bordercolor="#666666"
     borderopacity="1"
     objecttolerance="10"
     gridtolerance="10"
     guidetolerance="10"
     inkscape:pageopacity="0"
     inkscape:pageshadow="2"
     inkscape:window-width="1920"
     inkscape:window-height="1009"
     id="namedview71"
     showgrid="false"
     inkscape:zoom="1.3421552"
     inkscape:cx="388.18164"
     inkscape:cy="242.03778"
     inkscape:window-x="-8"
     inkscape:window-y="-8"
     inkscape:window-maximized="1"
     inkscape:current-layer="a3386fed-3d80-43e9-a677-097ead221e66"
     inkscape:document-rotation="0" />
  <path
     d="m 186.90841,447.83694 a 324.6161,324.6161 0 0 1 -3.06028,41.71128 c -0.0671,0.48547 -0.14012,0.97089 -0.20736,1.45633 L 52.95179,490.2743 c -0.383722,-0.4821 -0.761404,-0.97 -1.127339,-1.46372 -1.220117,-1.63402 -2.363682,-3.31447 -3.413467,-5.05292 -5.045726,-8.37506 -7.355706,-18.18056 -5.040855,-24.9458 l 0.04136,-0.10503 a 11.871355,11.871355 0 0 1 2.31697,-4.02594 c 5.277753,-5.94091 15.948854,-4.95059 25.632641,-0.15538 -8.685738,-9.50752 -15.601821,-21.50451 -16.127317,-32.21322 -0.515269,-10.44521 4.946476,-17.90695 10.870398,-24.24812 0.194372,-0.20963 0.388719,-0.41344 0.583055,-0.61721 0.09439,-0.10481 0.194372,-0.20379 0.288368,-0.30862 4.621899,-4.83245 10.01029,-9.59623 17.809609,-9.01997 8.553795,0.63315 18.037447,7.79792 24.686987,16.14681 6.64951,8.34303 11.06832,17.82081 15.54728,27.07069 4.48471,9.24406 9.33674,18.72433 16.53317,26.62557 -9.74713,-12.32888 -17.60592,-26.35644 -20.50893,-39.9992 -2.90303,-13.64276 -0.34816,-26.74582 8.33885,-33.17106 a 20.31813,20.31813 0 0 1 8.89981,-3.59103 c 0.37474,-0.0623 0.75545,-0.11304 1.14211,-0.15746 8.04173,-0.91497 17.64331,1.8663 25.81254,8.51447 8.99664,7.32016 15.23402,18.17196 18.33746,28.4736 3.10325,10.30159 3.43397,20.21898 3.33384,29.80617 z"
     fill="#f2f2f2"
     id="path2"
     style="stroke-width:0.915409" />
  <path
     d="m 101.40402,490.54511 -2.499059,-0.0132 q -1.190228,-0.74413 -2.391707,-1.47084 c -0.495835,-0.31298 -0.997453,-0.6143 -1.499339,-0.92148 Q 82.580011,480.54566 69.990593,473.5713 57.412632,466.59117 44.708168,460.25423 a 1.0473736,1.0473736 0 0 1 -0.602071,-1.19748 0.30182842,0.30182842 0 0 1 0.04149,-0.0877 c 0.118114,-0.2218 0.382161,-0.31399 0.767532,-0.12446 1.03885,0.52087 2.083699,1.04184 3.12245,1.5745 q 12.739146,6.4454 25.368945,13.53418 12.621096,7.08573 25.098363,14.79696 c 0.174875,0.10648 0.350026,0.21852 0.524925,0.32485 0.793311,0.49017 1.580878,0.98041 2.374068,1.47069 z"
     fill="#ffffff"
     id="path4"
     style="stroke-width:0.915409" />
  <path
     d="m 133.62578,490.72508 -1.54532,-0.009 c -0.34852,-0.48774 -0.69106,-0.97551 -1.03958,-1.46329 Q 118.75768,472.02862 106.47961,454.80388 86.372861,426.60433 66.278152,398.40483 a 0.99514957,0.99514957 0 0 1 -0.173896,-0.34046 c -0.114434,-0.41623 0.191187,-0.66035 0.583054,-0.6172 a 1.1739105,1.1739105 0 0 1 0.816566,0.51967 q 11.272907,15.81431 22.540144,31.61686 20.00207,28.05852 39.99846,56.11109 c 0.84792,1.18712 1.69581,2.38005 2.54374,3.56719 0.34851,0.48779 0.69702,0.97557 1.03956,1.46328 z"
     fill="#ffffff"
     id="path6"
     style="stroke-width:0.915409" />
  <path
     d="m 168.05251,481.75113 c -0.0786,2.60437 -0.2512,5.1671 -0.47631,7.70617 q -0.0653,0.72842 -0.13103,1.45674 l -1.62133,-0.009 c 0.0495,-0.48553 0.0992,-0.97107 0.14274,-1.45666 0.34262,-3.66816 0.58569,-7.37778 0.61869,-11.18813 a 156.07986,156.07986 0 0 0 -3.07277,-31.46113 195.88732,195.88732 0 0 0 -9.51654,-32.68551 224.46858,224.46858 0 0 0 -15.57042,-32.33889 0.86376101,0.86376101 0 0 1 -0.14318,-0.5744 c 0.067,-0.46207 0.68214,-0.59912 1.14212,-0.15763 a 1.3419886,1.3419886 0 0 1 0.23243,0.29399 q 1.12188,1.92906 2.20282,3.86965 a 224.312,224.312 0 0 1 14.90272,32.45214 194.96111,194.96111 0 0 1 8.87204,32.73461 153.98306,153.98306 0 0 1 2.41791,31.35811 z"
     fill="#ffffff"
     id="path8"
     style="stroke-width:0.915409" />
  <path
     d="M 534.37583,281.70764 H 381.50264 a 13.453225,13.453225 0 0 1 -8.79428,-2.93396 0.9155365,0.9155365 0 0 1 1.11118,-1.45535 11.604448,11.604448 0 0 0 7.6831,2.55849 H 534.37583 A 13.746687,13.746687 0 0 0 548.10695,266.1457 V 172.77405 A 13.746687,13.746687 0 0 0 534.37583,159.04291 H 381.50264 a 13.746687,13.746687 0 0 0 -13.73113,13.73114 v 54.9245 a 0.91541,0.91541 0 0 1 -1.83082,0 v -54.9245 a 15.579491,15.579491 0 0 1 15.56195,-15.56195 h 152.87319 a 15.579491,15.579491 0 0 1 15.56195,15.56195 v 93.37165 a 15.579481,15.579481 0 0 1 -15.56195,15.56194 z"
     fill="#3f3d56"
     id="path10"
     style="stroke-width:0.915409" />
  <path
     d="M 737.59649,334.80132 H 332.986 a 0.91540872,0.91540872 0 0 1 0,-1.83081 h 404.61049 a 13.746687,13.746687 0 0 0 13.73113,-13.73113 V 35.462785 A 13.746687,13.746687 0 0 0 737.59649,21.731666 H 307.35457 A 13.746687,13.746687 0 0 0 293.62344,35.462785 V 220.37529 a 0.91540835,0.91540835 0 0 1 -1.83081,0 V 35.462785 a 15.579491,15.579491 0 0 1 15.56194,-15.561926 h 430.24192 a 15.579491,15.579491 0 0 1 15.56192,15.561926 V 319.23938 a 15.579481,15.579481 0 0 1 -15.56192,15.56194 z"
     fill="#3f3d56"
     id="path12"
     style="stroke-width:0.915409" />
  <rect
     x="292.40897"
     y="49.72065"
     width="460.45041"
     height="1.830817"
     fill="#3f3d56"
     id="rect14"
     style="stroke-width:0.915409" />
  <circle
     cx="309.80167"
     cy="37.783756"
     r="5.4924502"
     fill="#3f3d56"
     id="circle16"
     style="stroke-width:0.915409" />
  <circle
     cx="325.59259"
     cy="37.783756"
     r="5.4924502"
     fill="#3f3d56"
     id="circle18"
     style="stroke-width:0.915409" />
  <circle
     cx="341.3833"
     cy="37.783756"
     r="5.4924502"
     fill="#3f3d56"
     id="circle20"
     style="stroke-width:0.915409" />
  <path
     d="M 662.99071,112.3571 H 379.21412 a 14.188831,14.188831 0 0 1 0,-28.377662 h 283.77659 a 14.188831,14.188831 0 0 1 0,28.377662 z M 379.21412,85.810254 a 12.358019,12.358019 0 0 0 0,24.716026 h 283.77659 a 12.358019,12.358019 0 0 0 0,-24.716026 z"
     fill="#3f3d56"
     id="path22"
     style="stroke-width:0.915409" />
  <path
     d="m 661.15989,184.67435 h -54.92451 a 14.188835,14.188835 0 0 1 0,-28.37767 h 54.92451 a 14.188835,14.188835 0 0 1 0,28.37767 z"
     fill="#dc5c01"
     id="path24"
     style="stroke-width:0.915409" />
  <path
     d="m 661.15989,232.27557 h -54.92451 a 14.188835,14.188835 0 0 1 0,-28.37766 h 54.92451 a 14.188835,14.188835 0 0 1 0,28.37766 z"
     fill="#dc5c01"
     id="path26"
     style="stroke-width:0.915409" />
  <path
     d="m 661.15989,279.87682 h -54.92451 a 14.188833,14.188833 0 0 1 0,-28.37766 h 54.92451 a 14.188833,14.188833 0 0 1 0,28.37766 z"
     fill="#dc5c01"
     id="path28"
     style="stroke-width:0.915409" />
  <path
     d="m 270.73824,288.64645 a 10.20943,10.20943 0 0 0 -2.10526,-0.21968 10.106657,10.106657 0 0 0 -3.87219,0.76892 9.1730507,9.1730507 0 0 0 -1.19923,0.60418 l -40.95561,-18.3814 -1.15318,-11.11305 -17.65821,-0.46688 0.11887,18.49125 a 9.9557158,9.9557158 0 0 0 7.19498,9.46534 l 47.89447,13.63043 c 0.10951,0.34785 0.21053,0.64994 0.3294,0.93371 a 10.058342,10.058342 0 0 0 5.98676,5.63892 9.9450786,9.9450786 0 0 0 3.32284,0.5676 9.5493567,9.5493567 0 0 0 2.09628,-0.22886 8.7957195,8.7957195 0 0 0 1.16257,-0.32957 v -19.04051 a 10.396586,10.396586 0 0 0 -1.1625,-0.3204 z"
     fill="#a0616a"
     id="path30"
     style="stroke-width:0.915409" />
  <polygon
     points="139.306,504.226 145.138,456.938 127.044,456.938 127.046,504.226 "
     fill="#a0616a"
     id="polygon32"
     transform="matrix(0.91540835,0,0,0.91540835,42.469007,19.900859)" />
  <path
     d="m 191.63523,491.89331 -35.27137,0.001 -6.1e-4,-13.6276 21.64378,-9.7e-4 a 13.627555,13.627555 0 0 1 13.6282,13.62693 v 0 z"
     fill="#2f2e41"
     id="path34"
     style="stroke-width:0.915409" />
  <polygon
     points="74.591,495.837 98.572,454.666 81.94,447.541 63.321,491.01 "
     fill="#a0616a"
     id="polygon36"
     transform="matrix(0.91540835,0,0,0.91540835,42.469007,19.900859)" />
  <path
     d="m 126.54278,491.89489 -32.422439,-13.88708 5.365454,-12.52685 19.895605,8.5216 a 13.627555,13.627555 0 0 1 7.16139,17.89233 v 0 z"
     fill="#2f2e41"
     id="path38"
     style="stroke-width:0.915409" />
  <circle
     cx="186.51595"
     cy="178.66148"
     r="22.483372"
     fill="#a0616a"
     id="circle40"
     style="stroke-width:0.915409" />
  <path
     d="m 170.27272,470.89028 -12.35444,-2.35379 a 4.0951342,4.0951342 0 0 1 -3.32705,-4.46619 l 8.19241,-79.87743 a 3.2039292,3.2039292 0 0 0 -6.13232,-1.58855 l -35.76621,83.45505 a 4.1196852,4.1196852 0 0 1 -5.45936,2.141 l -10.04826,-4.46619 a 4.1031621,4.1031621 0 0 1 -2.2351,-5.06692 l 24.46168,-73.38554 a 3.2031513,3.2031513 0 0 0 0.14216,-0.6356 l 7.9403,-67.05095 a 4.1193377,4.1193377 0 0 1 2.54041,-3.33264 l 25.0716,-10.18485 a 4.1198957,4.1198957 0 0 1 4.4244,0.86446 l 31.64594,30.81368 a 4.1027688,4.1027688 0 0 1 1.16685,3.7537 L 175.084,467.64614 a 4.1344875,4.1344875 0 0 1 -4.04338,3.31658 4.0915641,4.0915641 0 0 1 -0.76788,-0.0725 z"
     fill="#2f2e41"
     id="path42"
     style="stroke-width:0.915409" />
  <path
     d="m 156.18803,321.2925 c -4.3799,-5.07136 -7.57648,-7.37332 -9.76263,-7.01037 -2.16919,0.35043 -3.4205,3.38093 -4.74558,6.58932 -1.80845,4.37949 -3.85828,9.34357 -8.91091,9.73159 a 4.2539666,4.2539666 0 0 1 -4.17632,-1.71193 c -3.97432,-5.9108 5.55836,-25.47052 6.4293,-27.22804 L 134.5749,209.1514 a 4.1094329,4.1094329 0 0 1 2.15399,-3.64821 c 26.19595,-14.12624 61.56767,10.44138 68.39212,15.51099 v 0 a 4.1085359,4.1085359 0 0 1 1.65737,3.52307 c -0.82352,15.49399 -4.93128,93.66486 -4.93128,111.10232 0,4.82734 -1.665,7.89451 -4.94891,9.11565 a 9.8693928,9.8693928 0 0 1 -3.45515,0.56677 c -10.0198,0 -26.43055,-11.49623 -37.25501,-24.02949 z"
     fill="#cccccc"
     id="path44"
     style="stroke-width:0.915409" />
  <path
     d="m 192.74583,276.37137 a 4.0739699,4.0739699 0 0 1 -1.85159,-3.26472 l -1.77451,-41.43653 a 10.75364,10.75364 0 0 1 20.79068,-4.29454 l 13.28014,34.80071 a 4.1237588,4.1237588 0 0 1 -2.37994,5.31722 l -24.33229,9.2855 a 4.0785104,4.0785104 0 0 1 -3.73249,-0.40764 z"
     fill="#cccccc"
     id="path46"
     style="stroke-width:0.915409" />
  <path
     d="m 130.91252,341.11653 a 9.8339207,9.8339207 0 0 1 -1.58025,-14.99614 l -4.29342,-96.0304 21.2391,2.50089 -2.46552,93.72053 a 9.8872432,9.8872432 0 0 1 -12.89996,14.80512 z"
     fill="#a0616a"
     id="path48"
     style="stroke-width:0.915409" />
  <path
     d="m 116.16418,255.66117 a 4.074327,4.074327 0 0 1 -0.56632,-3.71083 l 13.11565,-39.34646 a 10.753531,10.753531 0 0 1 20.95538,3.4006 v 37.24836 a 4.1239878,4.1239878 0 0 1 -4.11934,4.11935 h -26.04353 a 4.0760845,4.0760845 0 0 1 -3.34184,-1.71102 z"
     fill="#cccccc"
     id="path50"
     style="stroke-width:0.915409" />
  <path
     d="m 171.99654,193.78376 a 4.4421199,4.4421199 0 0 1 -5.81377,-0.28977 c -4.81864,-4.50414 -8.88537,-9.89002 -10.94348,-16.12766 -2.3583,-7.14746 -1.75588,-15.51869 2.76034,-21.53962 3.81782,-5.0898 9.86078,-7.96521 15.81303,-10.21309 a 25.87951,25.87951 0 0 1 7.28665,-1.89241 10.011437,10.011437 0 0 1 7.09851,1.99328 6.2867588,6.2867588 0 0 1 2.08297,6.77128 23.66045,23.66045 0 0 1 10.80306,-5.58862 13.060196,13.060196 0 0 1 7.72622,0.32016 c 3.45189,1.41959 5.69416,4.88695 6.72742,8.47347 a 15.309664,15.309664 0 0 1 0.19982,8.4301 10.20359,10.20359 0 0 1 -5.22328,6.43746 c -3.15818,1.48787 -6.90604,0.92628 -10.20825,-0.20642 -3.30221,-1.13269 -6.43307,-2.80415 -9.84854,-3.5267 -3.41546,-0.72253 -7.35896,-0.30094 -9.77574,2.21834 -1.70195,1.77414 -2.3721,4.26978 -2.98085,6.65173 l -3.16617,12.38907 a 15.452696,15.452696 0 0 1 -1.97424,5.10219 3.0513125,3.0513125 0 0 1 -0.5637,0.59721 z"
     fill="#2f2e41"
     id="path52"
     style="stroke-width:0.915409" />
  <path
     d="m 325.47053,270.20095 v 42.25525 l 0.5766,0.42108 v -42.61227 a 4.1209393,4.1209393 0 0 0 -0.5766,-0.0642 z m 61.30466,-27.64533 -29.21976,-21.21002 a 9.9243723,9.9243723 0 0 0 -13.83173,2.19699 l -17.09057,23.56261 -1.16259,1.59283 v 90.85427 a 8.7434679,8.7434679 0 0 1 -8.73298,8.73298 h -4.85149 l 2.81014,0.56757 a 9.5118341,9.5118341 0 0 0 1.96802,0.20137 9.9198136,9.9198136 0 0 0 8.01923,-4.0827 l 1.18986,-1.64775 63.09925,-86.94549 a 9.9205,9.9205 0 0 0 -2.19738,-13.82268 z m 1.25422,13.13611 -61.43295,84.64781 -0.64993,0.8971 -0.0639,0.0915 a 9.4515362,9.4515362 0 0 0 0.16441,-1.7759 v -89.66425 l 0.58599,-0.80556 18.0427,-24.85333 a 8.7490151,8.7490151 0 0 1 12.19309,-1.94067 l 29.21975,21.21001 a 8.7437971,8.7437971 0 0 1 1.94078,12.19327 z"
     fill="#cccccc"
     id="path54"
     style="stroke-width:0.915409" />
  <path
     d="m 356.95892,277.93517 a 7.7223848,7.7223848 0 0 1 -4.55336,-1.48532 l -16.42013,-11.91549 a 7.7905185,7.7905185 0 0 1 -1.72756,-10.8678 l 11.91572,-16.42015 a 7.7810624,7.7810624 0 0 1 10.86759,-1.72756 l 16.42014,11.91552 a 7.7898594,7.7898594 0 0 1 1.72755,10.86733 l -11.91573,16.42014 a 7.7295251,7.7295251 0 0 1 -5.07609,3.11498 7.88779,7.88779 0 0 1 -1.23813,0.0982 z"
     fill="#cccccc"
     id="path56"
     style="stroke-width:0.915409" />
  <path
     d="m 330.88208,315.74848 a 5.0750238,5.0750238 0 0 1 -2.99184,-0.97529 l -2.87896,-2.08782 v -42.97234 l 0.48497,0.029 a 5.2415182,5.2415182 0 0 1 1.27634,0.23601 4.9982578,4.9982578 0 0 1 1.44085,0.73036 l 20.73258,15.05015 a 5.1121072,5.1121072 0 0 1 1.13242,7.1427 L 335.0332,313.6347 a 5.0717467,5.0717467 0 0 1 -3.33177,2.04806 5.1846991,5.1846991 0 0 1 -0.81935,0.0657 z"
     fill="#e6e6e6"
     opacity="0.5"
     id="path58"
     style="stroke-width:0.915409" />
  <path
     d="m 316.7375,220.19218 h -36.10366 a 9.9076384,9.9076384 0 0 0 -9.8956,9.89557 V 339.5523 a 9.9075929,9.9075929 0 0 0 9.8956,9.89556 h 36.10366 a 9.8964796,9.8964796 0 0 0 9.13578,-6.12409 9.5907334,9.5907334 0 0 0 0.54934,-1.73928 9.4621823,9.4621823 0 0 0 0.17385,-1.24496 7.4877564,7.4877564 0 0 0 0.0366,-0.78723 V 230.08775 a 9.9076384,9.9076384 0 0 0 -9.8956,-9.89557 z m 8.73298,119.36012 a 8.7434679,8.7434679 0 0 1 -8.73298,8.73298 h -36.10366 a 8.7431841,8.7431841 0 0 1 -8.73301,-8.73298 V 230.08775 a 8.7431931,8.7431931 0 0 1 8.73301,-8.733 h 36.10366 a 8.7434679,8.7434679 0 0 1 8.73298,8.733 z"
     fill="#3f3d56"
     id="path60"
     style="stroke-width:0.915409" />
  <path
     d="m 308.82991,267.80934 h -20.28804 a 7.7897404,7.7897404 0 0 1 -7.78097,-7.78097 v -20.28826 a 7.7897404,7.7897404 0 0 1 7.78097,-7.78097 h 20.28804 a 7.7896488,7.7896488 0 0 1 7.78088,7.78097 v 20.28826 a 7.7896488,7.7896488 0 0 1 -7.78088,7.78097 z"
     fill="#dc5c01"
     id="path62"
     style="stroke-width:0.915409" />
  <path
     d="m 308.82991,313.2244 h -20.28804 a 7.7897404,7.7897404 0 0 1 -7.78097,-7.78097 v -20.28827 a 7.7897404,7.7897404 0 0 1 7.78097,-7.78095 h 20.28804 a 7.7896488,7.7896488 0 0 1 7.78088,7.78095 v 20.28827 a 7.7896488,7.7896488 0 0 1 -7.78088,7.78097 z"
     fill="#dc5c01"
     opacity="0.5"
     id="path64"
     style="stroke-width:0.915409" />
  <path
     d="m 298.68591,323.24887 a 7.5704271,7.5704271 0 1 0 7.56997,7.57043 7.5794894,7.5794894 0 0 0 -7.56997,-7.57043 z m 0,13.96912 a 6.4032813,6.4032813 0 1 1 6.40785,-6.39869 6.412756,6.412756 0 0 1 -6.40785,6.39871 z"
     fill="#3f3d56"
     id="path66"
     style="stroke-width:0.915409" />
  <path
     d="M 278.99616,492.36846 H 50.790334 a 1.0899676,1.0899676 0 0 1 0,-2.17993 H 278.99616 a 1.0899676,1.0899676 0 0 1 0,2.17993 z"
     fill="#3f3d56"
     id="path68"
     style="stroke-width:0.915409" />
</svg>
