<?xml version="1.0" encoding="UTF-8" standalone="no"?>
<svg
   xmlns:dc="http://purl.org/dc/elements/1.1/"
   xmlns:cc="http://creativecommons.org/ns#"
   xmlns:rdf="http://www.w3.org/1999/02/22-rdf-syntax-ns#"
   xmlns:svg="http://www.w3.org/2000/svg"
   xmlns="http://www.w3.org/2000/svg"
   xmlns:sodipodi="http://sodipodi.sourceforge.net/DTD/sodipodi-0.dtd"
   xmlns:inkscape="http://www.inkscape.org/namespaces/inkscape"
   id="e1534d39-2157-45ab-ad0a-1caad9111655"
   data-name="Layer 1"
   width="1150.08221"
   height="803.24347"
   viewBox="0 0 1150.08221 803.24347"
   version="1.1"
   sodipodi:docname="baas1.svg"
   inkscape:version="1.0.1 (3bc2e813f5, 2020-09-07)">
  <metadata
     id="metadata77">
    <rdf:RDF>
      <cc:Work
         rdf:about="">
        <dc:format>image/svg+xml</dc:format>
        <dc:type
           rdf:resource="http://purl.org/dc/dcmitype/StillImage" />
      </cc:Work>
    </rdf:RDF>
  </metadata>
  <defs
     id="defs75" />
  <sodipodi:namedview
     pagecolor="#ffffff"
     bordercolor="#666666"
     borderopacity="1"
     objecttolerance="10"
     gridtolerance="10"
     guidetolerance="10"
     inkscape:pageopacity="0"
     inkscape:pageshadow="2"
     inkscape:window-width="1920"
     inkscape:window-height="1009"
     id="namedview73"
     showgrid="false"
     inkscape:zoom="0.90602223"
     inkscape:cx="575.04108"
     inkscape:cy="401.62173"
     inkscape:window-x="-8"
     inkscape:window-y="-8"
     inkscape:window-maximized="1"
     inkscape:current-layer="e1534d39-2157-45ab-ad0a-1caad9111655" />
  <path
     d="m 620.1102,481.79937 a 293.81431,293.81431 0 0 0 -14.44879,-78.65248 c 0,0 0.006,-0.006 0,-0.006 q -2.7437,-8.35938 -6.01376,-16.58058 -1.2238,-3.08913 -2.51998,-6.15851 a 294.6107,294.6107 0 0 0 -24.43663,-46.03743 q -5.05312,-7.79678 -10.61287,-15.26463 a 299.07046,299.07046 0 0 0 -28.51598,-32.98383 q -6.30649,-6.30654 -12.92229,-12.17883 c -0.63822,-0.57243 -1.27644,-1.13827 -1.92124,-1.69096 a 294.43945,294.43945 0 0 0 -51.59719,-36.16803 c -0.26318,-0.15791 -0.51979,-0.29609 -0.78298,-0.43425 q -5.63542,-3.09899 -11.409,-5.9348 c -0.39479,-0.1974 -0.78298,-0.39478 -1.17776,-0.57896 q -4.94456,-2.418 -9.98783,-4.63862 c -0.53294,-0.24344 -1.07247,-0.48031 -1.61199,-0.7106 -0.0131,-0.006 -0.0197,-0.0131 -0.033,-0.0131 q -1.42118,-0.62177 -2.84239,-1.2238 -0.37503,-0.15791 -0.75007,-0.31582 h -0.006 a 294.50462,294.50462 0 0 0 -107.5374,-22.9039 q -3.57271,-0.0888 -7.16517,-0.0856 H 259.6405 a 55.965698,55.965698 0 0 0 -14.75148,1.9673 c -0.0987,0.0264 -0.19081,0.0526 -0.28951,0.079 a 56.247022,56.247022 0 0 0 -41.10931,54.09744 v 244.10957 a 8.9650349,8.9650349 0 0 0 3.27006,6.92832 c 0.0132,0.0132 0.0264,0.0197 0.0329,0.0264 a 8.9459344,8.9459344 0 0 0 5.69793,2.03968 h 395.32189 a 12.641719,12.641719 0 0 0 12.62624,-12.62629 q 0,-7.05665 -0.32898,-14.06066 z"
     fill="#f2f2f2"
     id="path2"
     style="stroke-width:0.657959" />
  <path
     d="M 473.29859,444.89548 A 142.78748,142.78748 0 0 1 458.6222,508.15992 H 212.49107 a 8.6701242,8.6701242 0 0 1 -8.67011,-8.67009 V 376.39601 c 37.81731,-69.60949 124.90395,-95.38216 194.51344,-57.56488 a 143.43852,143.43852 0 0 1 74.96419,126.06439 z"
     fill="#2f2e41"
     id="path4"
     style="stroke-width:0.657959" />
  <path
     d="m 620.11078,422.00436 v 73.85597 a 12.299633,12.299633 0 0 1 -12.29963,12.29963 H 211.94594 a 8.6078744,8.6078744 0 0 1 -8.60788,-8.60531 v -0.0875 c 0,-61.51625 191.33397,-113.98711 245.73656,-134.36214 a 143.60607,143.60607 0 0 1 171.03619,56.89939 z"
     fill="#3f3d56"
     id="path6"
     style="stroke-width:0.657959" />
  <circle
     cx="-191.52249"
     cy="593.2536"
     r="35.737175"
     transform="rotate(-80.78252)"
     fill="#ff6584"
     id="circle8"
     style="stroke-width:0.657959" />
  <path
     d="m 368.34195,292.28071 q 0,7.44152 -0.61848,14.20535 c -5.32947,58.84136 -44.4649,79.84339 -91.94327,79.84339 -1.19091,0 -2.36865,-0.0131 -3.5464,-0.046 -2.36866,-0.046 -4.71757,-0.15792 -7.03359,-0.3224 -21.31131,-1.50673 -40.41845,-7.77708 -54.82119,-20.46913 a 69.358999,69.358999 0 0 1 -6.88883,-7.00727 c -12.68547,-14.86332 -20.27174,-36.3786 -20.27174,-66.20391 0,-48.47188 44.74126,-106.10913 72.01368,-136.73715 a 27.429907,27.429907 0 0 1 19.84405,-9.21802 h 0.26318 a 27.382112,27.382112 0 0 1 20.98891,9.21801 464.50264,464.50264 0 0 1 34.65474,43.78063 c 19.81118,28.65415 37.35894,62.60485 37.35894,92.95653 z"
     fill="#dc5c01"
     id="path10"
     style="stroke-width:0.657959" />
  <polygon
     points="130.2,258.204 130.24,257.354 130.72,248.194 79.01,168.214 130.88,240.684 131,242.804 135.19,162.724 93.29,84.494 90.92,80.074 93.73,84.374 135.74,148.654 136.36,124.744 137.5,81.384 139.61,0.964 140.01,0.964 139.57,81.384 139.39,113.544 166.69,81.384 183.46,61.634 169.62,81.384 139.2,124.814 138.04,196.524 179.19,127.714 137.87,207.074 137.22,246.944 196.95,151.154 141.6,252.424 136.99,260.854 135.55,349.524 187.01,277.624 135.42,357.414 135.29,365.664 134.14,436.414 133.72,462.364 119.51,462.364 120.49,443.624 124.6,365.174 130.15,259.184 130.1,258.354 "
     fill="#3f3d56"
     id="polygon12"
     transform="matrix(0.65795957,0,0,0.65795957,183.21846,145.69134)" />
  <path
     d="m 519.26472,260.33019 q 0,6.2572 -0.5461,11.91565 c -4.46098,46.95857 -35.85222,63.73654 -73.91519,63.73654 -0.95403,0 -1.90808,-0.0132 -2.84896,-0.033 q -2.86212,-0.0592 -5.65845,-0.26976 a 94.68193,94.68193 0 0 1 -16.48847,-2.53971 c -13.4487,-3.34243 -25.10774,-9.81018 -33.72701,-20.23883 -9.85623,-11.92881 -15.73181,-29.03576 -15.73181,-52.57098 0,-17.4754 7.23098,-36.43122 17.1859,-54.24876 10.86949,-19.45587 24.98931,-37.54975 36.48386,-50.88001 a 27.321771,27.321771 0 0 1 20.15331,-9.50752 h 0.26318 a 27.341114,27.341114 0 0 1 21.15998,9.50752 c 22.02851,25.53539 53.66976,68.57255 53.66976,105.12877 z"
     fill="#dc5c01"
     id="path14"
     style="stroke-width:0.657959" />
  <polygon
     points="389.1,203.504 389.07,202.844 389.14,202.724 389.56,194.664 347.97,130.324 389.69,188.624 389.79,190.334 393.16,125.914 388.03,116.324 388.02,116.324 357.55,59.434 393.6,114.604 396.61,0.004 397.01,0.004 396.53,86.354 431.98,44.604 396.39,95.424 395.99,119.764 395.45,153.104 411.17,126.814 428.55,97.754 412.96,127.694 395.31,161.594 394.79,193.664 430.3,136.714 442.84,116.614 431.49,137.374 394.61,204.854 393.45,276.174 434.84,218.344 393.35,282.524 393.24,289.164 392.77,318.114 392.46,337.674 391.98,366.944 380.55,366.944 381.89,341.334 383.66,307.504 384.64,288.754 "
     fill="#3f3d56"
     id="polygon16"
     transform="matrix(0.65795957,0,0,0.65795957,183.21846,145.69134)" />
  <path
     d="m 672.65483,339.43007 c 0,37.75373 -22.443,50.93265 -50.12993,50.93265 q -0.95733,0 -1.91466,-0.0197 c -1.28302,-0.0329 -2.55289,-0.0856 -3.80959,-0.18423 a 59.474235,59.474235 0 0 1 -17.153,-3.59904 c -16.17924,-6.21772 -27.24611,-20.61387 -27.24611,-47.12964 a 45.544941,45.544941 0 0 1 0.2895,-5.06629 c 0.92772,-8.46794 4.05961,-17.30434 8.33635,-25.89071 a 148.42722,148.42722 0 0 1 8.14554,-14.19877 c 3.78984,-5.88215 7.86261,-11.45507 11.81695,-16.47531 a 27.258304,27.258304 0 0 1 20.97575,-10.42865 c 0.0921,0 0.18424,-0.006 0.28292,0 a 27.258363,27.258363 0 0 1 21.81794,10.42865 c 13.58688,17.25829 28.58834,40.97775 28.58834,61.63108 z"
     fill="#dc5c01"
     id="path18"
     style="stroke-width:0.657959" />
  <path
     d="m 620.70234,384.58584 18.33075,-25.61436 -18.37684,28.43043 -0.046,2.94108 -0.51979,31.62812 -0.046,2.82264 h -5.05971 l 0.50005,-9.547 1.31591,-25.08799 1.97388,-37.76029 -0.0198,-0.2961 0.0329,-0.0526 0.19081,-3.56613 -18.42287,-28.50281 18.4755,25.82491 0.046,0.75665 1.49356,-28.5357 -15.77129,-29.45027 15.96868,24.44978 1.19748,-45.65582 c 0.0921,0 0.18424,-0.006 0.28293,0 l -0.18423,33.13484 15.70549,-18.49524 -15.77129,22.5088 -0.41451,25.55514 14.66591,-24.52215 -14.72512,28.2791 -0.23029,14.20536 21.28499,-34.12837 -21.36395,39.0828 z"
     fill="#3f3d56"
     id="path20"
     style="stroke-width:0.657959" />
  <path
     d="m 303.11708,409.08304 c -2.21845,3.53876 -5.09679,3.45552 -7.69188,1.82866 -2.5951,-1.62686 -3.92424,-4.1813 -1.70579,-7.72006 2.21845,-3.53877 9.7395,-5.09495 9.7395,-5.09495 0,0 1.87662,7.44756 -0.34183,10.98635 z"
     fill="#dc5c01"
     id="path22"
     style="stroke-width:0.657959" />
  <path
     d="m 234.0574,418.74174 c -2.21845,3.53877 -5.0968,3.45554 -7.69189,1.82869 -2.59508,-1.62683 -3.92423,-4.18132 -1.70578,-7.72006 2.21844,-3.53873 9.7395,-5.09495 9.7395,-5.09495 0,0 1.87663,7.44753 -0.34183,10.98632 z"
     fill="#dc5c01"
     id="path24"
     style="stroke-width:0.657959" />
  <path
     d="m 478.87793,401.71882 c 0.41052,4.15643 -1.91706,5.85174 -4.96512,6.15278 -3.04806,0.30106 -5.66231,-0.90615 -6.07283,-5.06258 -0.41052,-4.15641 4.58618,-9.98914 4.58618,-9.98914 0,0 6.0412,4.74252 6.45177,8.89894 z"
     fill="#dc5c01"
     id="path26"
     style="stroke-width:0.657959" />
  <path
     d="m 399.22112,350.16497 c -2.21845,3.53876 -5.0968,3.45553 -7.69191,1.82866 -2.59509,-1.62686 -3.92423,-4.18133 -1.70576,-7.72005 2.21846,-3.53874 9.7395,-5.09493 9.7395,-5.09493 0,0 1.87663,7.44756 -0.34183,10.98632 z"
     fill="#dc5c01"
     id="path28"
     style="stroke-width:0.657959" />
  <path
     d="m 582.73636,404.73662 c -2.21846,3.53876 -5.09679,3.45553 -7.69189,1.82868 -2.59509,-1.62685 -3.92421,-4.18133 -1.70577,-7.72005 2.21846,-3.53872 9.73952,-5.09496 9.73952,-5.09496 0,0 1.87661,7.44756 -0.34186,10.98633 z"
     fill="#dc5c01"
     id="path30"
     style="stroke-width:0.657959" />
  <path
     d="m 894.38466,457.72433 c 0,115.91855 -52.63138,207.36469 -117.44579,209.88911 -84.52315,3.29204 -194.99076,-80.98546 -117.44578,-209.88911 59.75444,-99.33032 52.58226,-209.8891 117.44578,-209.8891 64.86352,0 117.44579,93.97055 117.44579,209.8891 z"
     fill="#f2f2f2"
     id="path32"
     style="stroke-width:0.657959" />
  <path
     d="m 934.2135,439.55181 c -10.48778,13.03418 -24.81163,28.51597 -40.38553,38.68803 -7.40862,4.84257 -15.10681,8.48767 -22.80489,10.0931 -40.39213,8.43503 -59.50585,-12.63279 -65.69067,-42.24759 -0.14476,-0.69086 -0.28296,-1.37514 -0.40136,-2.05941 q -0.39477,-2.07258 -0.66454,-4.11883 c -3.69118,-27.12767 6.79669,-50.99187 44.35958,-58.83475 11.62615,-2.42786 25.09467,-0.59873 38.37884,3.23716 14.01457,4.04646 27.81855,10.32338 39.04993,16.18581 a 25.67301,25.67301 0 0 1 13.20521,17.06089 c 0.0195,0.0856 0.0399,0.17108 0.0524,0.25661 a 25.662772,25.662772 0 0 1 -5.09927,21.73898 z"
     fill="#dc5c01"
     id="path34"
     style="stroke-width:0.657959" />
  <path
     d="m 893.14366,427.09659 -23.52207,4.51365 24.3511,8.42845 5.1584,1.78308 -5.14521,-1.44752 -28.39754,-7.9942 -15.25146,2.92791 41.27381,15.15281 -46.5967,-14.12639 -33.91123,6.50722 31.5031,13.88953 -34.52314,-13.31052 -3.15163,0.60532 -14.10665,2.70421 v 0.006 l -14.94226,2.86212 -5.68477,1.09222 -2.2568,0.43425 -1.13169,-5.42159 2.29631,-0.3553 4.71758,-0.73034 17.23854,-2.66473 13.20525,-2.04625 40.8461,-6.32299 0.30923,-0.079 0.0658,0.0264 3.85567,-0.59876 26.3776,-26.0815 -23.50237,25.54199 -0.79613,0.21712 30.8583,-4.77679 10.14574,-8.50084 17.84386,-14.95542 -17.58732,17.55437 -4.99381,4.98733 5.35572,-0.97378 46.21506,-8.38899 c 0.0195,0.0856 0.0399,0.17108 0.0524,0.25661 l -37.94451,7.7047 23.29181,12.66573 -27.60803,-11.8367 z"
     fill="#3f3d56"
     id="path36"
     style="stroke-width:0.657959" />
  <path
     d="m 794.35105,357.53713 a 0.09498305,0.09498305 0 0 0 -0.0132,-0.046 6.9295578,6.9295578 0 0 0 -1.50015,-2.9016 7.0140858,7.0140858 0 0 0 -4.97418,-2.40813 c -0.079,0 -0.15132,-0.006 -0.23028,-0.006 a 7.1520599,7.1520599 0 0 0 -2.16469,0.31582 7.0162702,7.0162702 0 0 0 -4.87548,5.9019 l -0.40793,8.4811 -1.23039,25.71964 -0.16448,3.32269 -1.98704,41.43172 a 8.6549911,8.6549911 0 0 0 -2.98056,7.27045 8.7886881,8.7886881 0 0 0 1.29618,3.94118 8.8099469,8.8099469 0 0 0 3.50693,3.1911 8.7996435,8.7996435 0 0 0 3.92802,0.92773 8.7530333,8.7530333 0 0 0 8.21134,-5.77688 c 0.0198,-0.0526 0.0394,-0.11186 0.0592,-0.1645 v -0.006 a 8.6951988,8.6951988 0 0 0 0.2369,-4.77678 9.2126248,9.2126248 0 0 0 -0.68428,-1.89493 8.7791546,8.7791546 0 0 0 -0.66453,-1.10537 l 2.70424,-44.60967 1.62516,-26.88421 0.42767,-7.07308 0.0197,-0.30266 a 6.8645711,6.8645711 0 0 0 0.0526,-1.09878 0.17878736,0.17878736 0 0 0 0,-0.0593 7.0550438,7.0550438 0 0 0 -0.19087,-1.38831 z"
     fill="#ffb6b6"
     id="path38"
     style="stroke-width:0.657959" />
  <path
     d="m 794.96295,363.91276 a 12.566876,12.566876 0 0 0 -0.2895,-2.68447 c -0.0526,-0.28293 -0.12502,-0.56585 -0.20397,-0.8422 a 13.367765,13.367765 0 0 0 -6.60592,-8.20475 13.360007,13.360007 0 0 0 -8.69822,-1.35539 c -8.43505,1.53305 -13.46843,4.3491 -14.962,8.36924 -1.05273,2.83581 -0.51321,6.63223 0.82903,10.64579 v 0.006 a 62.693408,62.693408 0 0 0 4.39517,9.78386 c 0.3224,0.58555 0.6448,1.16459 0.9672,1.73044 a 119.01934,119.01934 0 0 0 7.07965,10.93528 l 0.079,0.11185 1.40145,0.18424 1.76991,0.23028 11.69194,1.51988 0.73691,0.0987 0.0394,-0.3224 a 219.29874,219.29874 0 0 0 1.76991,-30.20693 z"
     fill="#ff6584"
     id="path40"
     style="stroke-width:0.657959" />
  <ellipse
     cx="743.71191"
     cy="663.00769"
     rx="104.61556"
     ry="11.185312"
     fill="#3f3d56"
     id="ellipse42"
     style="stroke-width:0.657959" />
  <polygon
     points="840.407,696.504 840.404,761.577 823.533,761.576 815.507,696.503 "
     fill="#ffb6b6"
     id="polygon44"
     transform="matrix(0.65795957,0,0,0.65795957,183.21846,145.69134)" />
  <path
     d="m 741.84585,664.2713 -1.03958,-12.44201 -0.87508,-10.52736 -3.76353,-0.2237 -11.88934,-0.71059 -1.89492,-0.11186 v 7.52048 l -6.43484,4.44122 -3.39507,2.34892 -6.85595,4.73073 a 4.6964101,4.6964101 0 0 0 2.67137,8.56005 h 20.89021 l 2.94108,-6.07297 0.65796,-1.36855 0.30924,1.6449 v 0.006 l 1.09879,5.79004 h 7.87578 z"
     fill="#2f2e41"
     id="path46"
     style="stroke-width:0.657959" />
  <polygon
     points="894.889,687.366 917.951,748.216 902.175,754.195 871.606,696.19 "
     fill="#ffb6b6"
     id="polygon48"
     transform="matrix(0.65795957,0,0,0.65795957,183.21846,145.69134)" />
  <path
     d="m 799.266,653.52682 -10.50104,-21.99559 -3.59247,1.12512 -11.36953,3.55297 -1.81597,0.56589 2.66477,7.027 -11.51429,16.68585 a 4.6955679,4.6955679 0 0 0 2.13178,7.03359 4.5909721,4.5909721 0 0 0 3.07267,0.12501 h 0.0198 a 2.3286571,2.3286571 0 0 0 0.30266,-0.0987 l 19.53483,-7.40205 0.63821,-7.23097 0.0921,-1.00009 0.63823,1.03957 3.31612,5.41501 7.36256,-2.78975 z"
     fill="#2f2e41"
     id="path50"
     style="stroke-width:0.657959" />
  <path
     d="m 809.17363,568.18259 c 0.4105,4.15642 -1.9171,5.85176 -4.9651,6.15279 -3.048,0.30102 -5.66229,-0.90615 -6.07283,-5.06261 -0.41055,-4.15646 4.5862,-9.98914 4.5862,-9.98914 0,0 6.0412,4.74254 6.45173,8.89896 z"
     fill="#dc5c01"
     id="path52"
     style="stroke-width:0.657959" />
  <path
     d="m 786.74346,516.11976 c -2.21845,3.53879 -5.09678,3.45553 -7.69188,1.82866 -2.59508,-1.62685 -3.92422,-4.18132 -1.70577,-7.72005 2.21845,-3.53874 9.73951,-5.09493 9.73951,-5.09493 0,0 1.87657,7.44751 -0.34186,10.98632 z"
     fill="#dc5c01"
     id="path54"
     style="stroke-width:0.657959" />
  <path
     d="m 758.67591,533.91926 c 0,0 48.59464,76.50864 43.21584,79.93996 -5.37882,3.43131 -48.96559,16.87829 -52.86057,14.1889 -3.89499,-2.68939 -7.04807,-90.69759 -7.04807,-90.69759 z"
     fill="#2f2e41"
     id="path56"
     style="stroke-width:0.657959" />
  <path
     d="m 729.04752,415.78557 c 7.14084,0.27822 36.49099,4.5299 35.84183,5.64276 a 23.44404,23.44404 0 0 1 -2.13294,2.78214 c 0,0 1.48381,6.76986 0.83465,7.41902 -0.64916,0.64916 12.70507,15.95092 4.91511,48.78007 -7.78999,32.82916 -6.9553,55.54995 -6.9553,55.54995 0,0 3.1531,96.26186 -5.84248,98.20934 -8.99558,1.9475 -44.42144,0.64917 -46.09073,-3.15309 -1.6693,-3.80226 5.1006,-121.85749 5.1006,-121.85749 0,0 0.74189,-59.35217 2.50394,-66.58576 1.76204,-7.23359 7.4112,-26.88495 11.82532,-26.78694 z"
     fill="#2f2e41"
     id="path58"
     style="stroke-width:0.657959" />
  <circle
     cx="763.54468"
     cy="312.13678"
     r="22.349813"
     fill="#ffb6b6"
     id="circle60"
     style="stroke-width:0.657959" />
  <path
     d="m 785.94089,342.4157 c 3.15309,3.15307 16.78554,16.13637 1.94748,39.13536 -14.83806,22.99899 -24.29728,39.69178 -24.29728,39.69178 l -36.90966,-4.35869 5.657,-22.44255 c 0,0 -2.78212,-17.71292 6.67713,-26.523 9.45925,-8.81008 19.84587,-23.27719 19.84587,-23.27719 l 5.35648,-0.97849 c 0,0 18.56987,-4.4003 21.72298,-1.24722 z"
     fill="#ff6584"
     id="path62"
     style="stroke-width:0.657959" />
  <path
     d="m 774.81235,375.61583 c 0,0 -52.11864,40.15547 -55.45723,26.05932 -2.16977,-9.16118 0.36241,-43.59354 1.79693,-58.26513 l 10.53722,0.11856 c 0,0 -2.22571,32.36548 2.22571,36.07501 0,0 16.12688,-15.5721 19.47021,-15.34419 3.34333,0.2279 21.42716,11.35643 21.42716,11.35643 z"
     fill="#ffb6b6"
     id="path64"
     style="stroke-width:0.657959" />
  <path
     d="m 785.94084,350.57663 c 0,0 -7.07706,32.8538 -27.94309,38.23259 l -24.34451,-9.86938 c 0,0 30.95789,-33.0001 41.62274,-33.37106 10.66486,-0.37095 10.66486,5.00785 10.66486,5.00785 z"
     fill="#ff6584"
     id="path66"
     style="stroke-width:0.657959" />
  <circle
     cx="727.07361"
     cy="340.12021"
     r="8.5534744"
     fill="#ffb6b6"
     id="circle68"
     style="stroke-width:0.657959" />
  <path
     d="m 794.39484,317.31945 c -0.0641,-5.53567 -0.13542,-11.13275 -1.40817,-16.49823 -1.27276,-5.36548 -3.88286,-10.55989 -8.11044,-13.74179 -4.22755,-3.18193 -10.23267,-3.94912 -14.58125,-0.96031 -3.24045,-4.17445 -8.84339,-5.76984 -13.79985,-4.64147 -4.95646,1.12838 -9.23973,4.68007 -12.20132,9.08599 -2.9616,4.40591 -4.71078,9.62306 -5.89581,14.90239 -0.42083,1.8747 -0.59716,4.26738 0.91143,5.31818 1.18276,0.82384 2.74396,0.31564 4.06488,-0.2149 q 5.45044,-2.1891 10.90091,-4.37818 c 3.67412,5.02362 8.96739,9.60589 8.23815,15.93931 -0.72985,6.33878 -4.96382,13.00062 -7.20282,18.91974 q 4.68555,-1.69118 9.37106,-3.38244 c 1.00031,-1.66948 3.47955,-4.29613 3.30238,-6.23632 a 15.779594,15.779594 0 0 1 1.37956,4.5617 c 7.8e-4,0.0127 7.2e-4,0.0258 0.002,0.0385 l 17.38461,-6.27486 c 2.06913,-0.74684 4.2412,-1.56567 5.66999,-3.33483 1.9476,-2.41142 2.01182,-5.9136 1.97488,-9.10254 z"
     fill="#2f2e41"
     id="path70"
     style="stroke-width:0.657959" />
</svg>
