<?xml version="1.0" encoding="UTF-8" standalone="no"?>
<svg
   xmlns:dc="http://purl.org/dc/elements/1.1/"
   xmlns:cc="http://creativecommons.org/ns#"
   xmlns:rdf="http://www.w3.org/1999/02/22-rdf-syntax-ns#"
   xmlns:svg="http://www.w3.org/2000/svg"
   xmlns="http://www.w3.org/2000/svg"
   xmlns:sodipodi="http://sodipodi.sourceforge.net/DTD/sodipodi-0.dtd"
   xmlns:inkscape="http://www.inkscape.org/namespaces/inkscape"
   id="bb535a4d-a035-40f6-99ac-869b240e0289"
   data-name="Layer 1"
   width="995"
   height="697.68102"
   viewBox="0 0 995 697.68102"
   version="1.1"
   sodipodi:docname="maas.svg"
   inkscape:version="1.0.1 (3bc2e813f5, 2020-09-07)">
  <metadata
     id="metadata187">
    <rdf:RDF>
      <cc:Work
         rdf:about="">
        <dc:format>image/svg+xml</dc:format>
        <dc:type
           rdf:resource="http://purl.org/dc/dcmitype/StillImage" />
        <dc:title />
      </cc:Work>
    </rdf:RDF>
  </metadata>
  <defs
     id="defs185">
    <rect
       x="18.142994"
       y="41.060461"
       width="359.04031"
       height="393.41651"
       id="rect191" />
  </defs>
  <sodipodi:namedview
     pagecolor="#ffffff"
     bordercolor="#666666"
     borderopacity="1"
     objecttolerance="10"
     gridtolerance="10"
     guidetolerance="10"
     inkscape:pageopacity="0"
     inkscape:pageshadow="2"
     inkscape:window-width="1920"
     inkscape:window-height="1009"
     id="namedview183"
     showgrid="false"
     inkscape:zoom="1.0472362"
     inkscape:cx="497.5"
     inkscape:cy="348.84052"
     inkscape:window-x="-8"
     inkscape:window-y="-8"
     inkscape:window-maximized="1"
     inkscape:current-layer="bb535a4d-a035-40f6-99ac-869b240e0289"
     inkscape:document-rotation="0" />
  <path
     d="M 770.17559,414.09401 H 205.64441 A 14.551714,14.551714 0 0 1 191.10913,399.55874 V 51.457562 A 10.660832,10.660832 0 0 1 201.7577,40.808596 H 773.878 a 10.845192,10.845192 0 0 1 10.83286,10.833069 V 399.55874 a 14.551722,14.551722 0 0 1 -14.53527,14.53527 z"
     fill="#f2f2f2"
     id="path2"
     style="stroke-width:0.880926" />
  <path
     d="M 749.58194,393.50958 H 223.45362 c -7.71251,0 -13.98696,-5.87571 -13.98696,-13.09776 V 77.280861 c 0,-5.356091 4.64949,-9.713836 10.36463,-9.713836 h 533.2012 c 5.80991,0 10.53651,4.429576 10.53651,9.873856 V 380.41182 c 2e-5,7.22205 -6.27466,13.09776 -13.98706,13.09776 z"
     fill="#ffffff"
     id="path4"
     style="stroke-width:0.880926" />
  <path
     d="M 784.50847,50.626107 H 190.90515 v -7.40012 a 14.600262,14.600262 0 0 1 14.58817,-14.579154 h 564.42696 a 14.600191,14.600191 0 0 1 14.58819,14.579154 z"
     fill="#cccccc"
     id="path6"
     style="stroke-width:0.880926" />
  <circle
     cx="217.4169"
     cy="39.658405"
     r="3.7733753"
     fill="#ffffff"
     id="circle8"
     style="stroke-width:0.880926" />
  <circle
     cx="231.73965"
     cy="39.658405"
     r="3.7733753"
     fill="#ffffff"
     id="circle10"
     style="stroke-width:0.880926" />
  <circle
     cx="246.06253"
     cy="39.658405"
     r="3.7733753"
     fill="#ffffff"
     id="circle12"
     style="stroke-width:0.880926" />
  <path
     d="M 691.67117,342.66967 H 283.94478 a 15.433732,15.433732 0 0 1 -15.4162,-15.41621 V 130.67151 a 11.542832,11.542832 0 0 1 11.52946,-11.52988 H 695.3736 a 11.727254,11.727254 0 0 1 11.71377,11.71399 v 196.39784 a 15.433662,15.433662 0 0 1 -15.4162,15.41621 z M 280.05804,120.90348 a 9.7788224,9.7788224 0 0 0 -9.76761,9.76803 v 196.58195 a 13.669722,13.669722 0 0 0 13.65435,13.65435 h 407.72639 a 13.669792,13.669792 0 0 0 13.65435,-13.65435 V 130.85562 a 9.9632708,9.9632708 0 0 0 -9.95192,-9.95214 z"
     fill="#cccccc"
     id="path14"
     style="stroke-width:0.880926" />
  <path
     d="m 298.03962,327.25346 h 379.53675 a 14.094813,14.094813 0 0 0 14.09482,-14.09482 V 148.82384 A 14.094813,14.094813 0 0 0 677.57637,134.72903 H 298.03962 a 14.094813,14.094813 0 0 0 -14.09482,14.09481 v 164.3348 a 14.094813,14.094813 0 0 0 14.09482,14.09482 z"
     fill="#f2f2f2"
     id="path16"
     style="stroke-width:0.880926" />
  <circle
     cx="341.13382"
     cy="174.61198"
     r="7.9283323"
     fill="#cccccc"
     id="circle18"
     style="stroke-width:0.880926" />
  <circle
     cx="341.13382"
     cy="204.56348"
     r="7.9283323"
     fill="#cccccc"
     id="circle20"
     style="stroke-width:0.880926" />
  <circle
     cx="341.13382"
     cy="234.51495"
     r="7.9283323"
     fill="#cccccc"
     id="circle22"
     style="stroke-width:0.880926" />
  <circle
     cx="341.13382"
     cy="264.46643"
     r="7.9283323"
     fill="#cccccc"
     id="circle24"
     style="stroke-width:0.880926" />
  <path
     d="M 641.52954,175.49291 H 380.77551 a 0.88092743,0.88092743 0 0 1 0,-1.76185 h 260.75403 a 0.88092743,0.88092743 0 0 1 0,1.76185 z"
     fill="#cccccc"
     id="path26"
     style="stroke-width:0.880926" />
  <path
     d="M 641.52954,205.44439 H 380.77551 a 0.88092591,0.88092591 0 0 1 0,-1.76183 h 260.75403 a 0.88092591,0.88092591 0 0 1 0,1.76183 z"
     fill="#cccccc"
     id="path28"
     style="stroke-width:0.880926" />
  <path
     d="M 641.52954,235.39589 H 380.77551 a 0.88093,0.88093 0 0 1 0,-1.76186 h 260.75403 a 0.88093,0.88093 0 0 1 0,1.76186 z"
     fill="#cccccc"
     id="path30"
     style="stroke-width:0.880926" />
  <path
     d="M 641.52954,265.34735 H 380.77551 a 0.88093,0.88093 0 0 1 0,-1.76186 h 260.75403 a 0.88093,0.88093 0 0 1 0,1.76186 z"
     fill="#cccccc"
     id="path32"
     style="stroke-width:0.880926" />
  <path
     d="m 430.10736,295.29883 h -25.54684 a 4.409756,4.409756 0 0 1 -4.40464,-4.40464 V 267.1092 a 4.4097472,4.4097472 0 0 1 4.40464,-4.40463 h 25.54684 a 4.4097383,4.4097383 0 0 1 4.40463,4.40463 v 23.78499 a 4.4097472,4.4097472 0 0 1 -4.40463,4.40464 z"
     fill="#dc5c01"
     id="path34"
     style="stroke-width:0.880926" />
  <path
     d="m 487.36753,295.29883 h -25.54684 a 4.4096766,4.4096766 0 0 1 -4.40462,-4.40464 v -53.73646 a 4.4096766,4.4096766 0 0 1 4.40462,-4.40462 h 25.54684 a 4.4096766,4.4096766 0 0 1 4.40462,4.40462 v 53.73646 a 4.4096766,4.4096766 0 0 1 -4.40462,4.40464 z"
     fill="#dc5c01"
     id="path36"
     style="stroke-width:0.880926" />
  <path
     d="m 545.50863,295.29883 h -25.54684 a 4.4096766,4.4096766 0 0 1 -4.40464,-4.40464 v -83.68794 a 4.4096766,4.4096766 0 0 1 4.40464,-4.40462 h 25.54684 a 4.4096766,4.4096766 0 0 1 4.40464,4.40462 v 83.68794 a 4.4096766,4.4096766 0 0 1 -4.40464,4.40464 z"
     fill="#dc5c01"
     id="path38"
     style="stroke-width:0.880926" />
  <path
     d="m 605.41159,295.29883 h -25.54684 a 4.4096766,4.4096766 0 0 1 -4.40464,-4.40464 V 178.1357 a 4.4096766,4.4096766 0 0 1 4.40464,-4.40464 h 25.54684 a 4.4096766,4.4096766 0 0 1 4.40462,4.40464 v 112.75849 a 4.4096766,4.4096766 0 0 1 -4.40462,4.40464 z"
     fill="#dc5c01"
     id="path40"
     style="stroke-width:0.880926" />
  <path
     d="M 641.52954,295.29883 H 380.77551 a 0.88093,0.88093 0 0 1 0,-1.76186 h 260.75403 a 0.88093,0.88093 0 0 1 0,1.76186 z"
     fill="#3f3d56"
     id="path42"
     style="stroke-width:0.880926" />
  <path
     d="m 756.09197,459.63343 a 8.8583959,8.8583959 0 0 1 13.49619,-1.53579 l 27.97394,-14.43719 -1.7397,16.26577 -26.29782,11.21607 a 8.9063976,8.9063976 0 0 1 -13.43261,-11.50886 z"
     fill="#ffb8b8"
     id="path44"
     style="stroke-width:0.880926" />
  <path
     d="m 780.16149,465.69976 a 3.9690816,3.9690816 0 0 1 -1.34221,-1.94821 l -2.22497,-7.18777 a 3.9770892,3.9770892 0 0 1 1.3979,-4.33525 l 22.67298,-17.12552 24.55588,-45.55469 a 12.770358,12.770358 0 1 1 20.17319,15.6643 l -13.97017,29.48498 a 40.85163,40.85163 0 0 1 -20.66918,19.99389 l -26.57116,11.52489 a 3.9685707,3.9685707 0 0 1 -3.23209,-0.0346 3.9242601,3.9242601 0 0 1 -0.79017,-0.48201 z"
     fill="#3f3d56"
     id="path46"
     style="stroke-width:0.880926" />
  <circle
     cx="846.01154"
     cy="348.89963"
     r="21.636444"
     fill="#ffb8b8"
     id="circle48"
     style="stroke-width:0.880926" />
  <polygon
     points="888.817,638.449 888.812,685.737 876.553,685.736 870.722,638.448 "
     fill="#ffb8b8"
     id="polygon50"
     transform="matrix(0.8809258,0,0,0.8809258,54.257254,28.646833)" />
  <path
     d="M 818.72051,629.64321 H 839.549 v 13.11423 h -33.9427 v 0 a 13.114219,13.114219 0 0 1 13.11421,-13.11423 z"
     fill="#2f2e41"
     id="path52"
     style="stroke-width:0.880926" />
  <polygon
     points="928.817,638.451 928.812,685.739 916.553,685.738 910.722,638.449 "
     fill="#ffb8b8"
     id="polygon54"
     transform="matrix(0.8809258,0,0,0.8809258,54.257254,28.646833)" />
  <path
     d="m 853.95753,629.64482 h 20.82849 v 13.11423 h -33.9427 v 0 a 13.114219,13.114219 0 0 1 13.11421,-13.11423 z"
     fill="#2f2e41"
     id="path56"
     style="stroke-width:0.880926" />
  <path
     d="m 873.261,622.16134 -12.65622,-5.8e-4 a 3.9709756,3.9709756 0 0 1 -3.82723,-2.93287 l -18.2172,-67.568 a 0.44051575,0.44051575 0 0 0 -0.86502,0.14099 l 3.67993,64.08064 a 3.9634613,3.9634613 0 0 1 -4.28716,4.17734 l -14.22486,-1.18617 a 3.9750367,3.9750367 0 0 1 -3.60828,-3.49204 l -12.95892,-134.55686 5.01358,3.00864 46.97889,-7.97609 18.9023,141.81702 a 3.9648003,3.9648003 0 0 1 -3.92974,4.48789 z"
     fill="#2f2e41"
     id="path58"
     style="stroke-width:0.880926" />
  <path
     d="m 822.00776,495.02606 a 29.016893,29.016893 0 0 1 -14.70413,-4.13859 3.9467062,3.9467062 0 0 1 -1.8819,-4.04257 c 1.6522,-10.11853 10.29264,-62.02393 18.15413,-90.32073 3.20183,-11.52501 10.28156,-17.73246 21.04261,-18.44944 15.74038,-1.03244 29.73115,11.28219 31.18794,27.48476 2.57009,28.58461 -7.86954,69.19704 -12.47728,85.33138 a 3.9607482,3.9607482 0 0 1 -6.24357,2.0317 l -9.39198,-7.30594 a 3.1121612,3.1121612 0 0 0 -3.97837,0.16578 c -7.9162,7.06083 -15.43604,9.24387 -21.70745,9.24358 z"
     fill="#3f3d56"
     id="path60"
     style="stroke-width:0.880926" />
  <polygon
     points="911.786,482.739 906.787,443.738 915.786,481.739 902.784,513.738 "
     opacity="0.2"
     id="polygon62"
     transform="matrix(0.8809258,0,0,0.8809258,54.257254,28.646833)" />
  <path
     d="m 858.35761,366.69214 a 14.569147,14.569147 0 0 0 5.62736,-1.01788 c 0.78765,-0.30351 1.60529,-0.55295 2.39149,-0.85666 6.9433,-2.68218 11.51739,-10.07643 11.68154,-17.51799 0.16415,-7.44156 -3.68923,-14.66446 -9.41147,-19.42468 -5.72225,-4.76021 -13.13417,-7.20433 -20.556,-7.76977 -7.99459,-0.60909 -16.99684,1.4179 -21.46444,8.07558 -1.1892,1.77217 -2.02093,3.9223 -1.31643,6.06212 a 3.8792008,3.8792008 0 0 0 1.09299,1.67906 c 1.99494,1.77504 3.98394,0.44052 6.01772,0.32272 2.7954,-0.16198 5.30605,2.10085 6.20834,4.75158 0.90226,2.65073 0.50492,5.56891 -0.22384,8.27248 a 20.665638,20.665638 0 0 0 -1.04193,5.03009 5.0569985,5.0569985 0 0 0 2.09513,4.45293 c 1.74673,1.05593 4.04074,0.44496 5.78857,-0.60911 1.74784,-1.05409 3.25814,-2.51972 5.14612,-3.29537 1.88796,-0.77563 4.42441,-0.60343 5.52321,1.11664 a 6.1089473,6.1089473 0 0 1 0.69817,2.01613 c 0.98494,4.48823 0.75851,4.22389 1.74343,8.71213 z"
     fill="#2f2e41"
     id="path64"
     style="stroke-width:0.880926" />
  <path
     d="M 824.82179,602.50983 689.33901,555.32672 a 9.2993434,9.2993434 0 0 1 -5.71714,-11.82705 l 35.2068,-101.09369 a 6.8128423,6.8128423 0 0 1 8.66458,-4.18862 l 140.06289,48.77815 a 6.9306572,6.9306572 0 0 1 4.26081,8.81454 L 836.64886,596.7927 a 9.2993434,9.2993434 0 0 1 -11.82707,5.71713 z"
     fill="#e6e6e6"
     id="path66"
     style="stroke-width:0.880926" />
  <path
     d="m 700.90023,549.51704 118.47025,41.25831 a 9.0073517,9.0073517 0 0 0 11.46866,-5.54388 l 28.42924,-81.63244 a 9.0073517,9.0073517 0 0 0 -5.5439,-11.46866 L 735.25425,450.87204 a 9.0073605,9.0073605 0 0 0 -11.46867,5.5439 l -28.42925,81.63244 a 9.007343,9.007343 0 0 0 5.5439,11.46866 z"
     fill="#ffffff"
     id="path68"
     style="stroke-width:0.880926" />
  <path
     d="m 730.6497,492.16299 -5.86721,-2.04332 a 1.2722154,1.2722154 0 0 1 -0.78214,-1.61805 l 2.0433,-5.8672 a 1.2722154,1.2722154 0 0 1 1.61804,-0.78217 l 5.86721,2.04332 a 1.2722154,1.2722154 0 0 1 0.78216,1.61805 l -2.04332,5.8672 a 1.2722066,1.2722066 0 0 1 -1.61804,0.78217 z"
     fill="#dc5c01"
     id="path70"
     style="stroke-width:0.880926" />
  <path
     d="m 725.35566,507.36438 -5.8672,-2.04331 a 1.2722154,1.2722154 0 0 1 -0.78217,-1.61807 l 2.04332,-5.86718 a 1.2722154,1.2722154 0 0 1 1.61807,-0.78217 l 5.8672,2.0433 a 1.2722154,1.2722154 0 0 1 0.78217,1.61805 l -2.04332,5.86722 a 1.2722242,1.2722242 0 0 1 -1.61807,0.78216 z"
     fill="#3f3d56"
     id="path72"
     style="stroke-width:0.880926" />
  <path
     d="m 720.06167,522.56578 -5.86723,-2.0433 a 1.2722154,1.2722154 0 0 1 -0.78216,-1.61807 l 2.04332,-5.86722 a 1.2722154,1.2722154 0 0 1 1.61806,-0.78214 l 5.86719,2.04329 a 1.2722154,1.2722154 0 0 1 0.78216,1.61807 l -2.04332,5.8672 a 1.2722242,1.2722242 0 0 1 -1.61802,0.78217 z"
     fill="#cccccc"
     id="path74"
     style="stroke-width:0.880926" />
  <path
     d="m 770.07487,502.60375 -28.26926,-9.84501 a 1.2708104,1.2708104 0 1 1 0.8359,-2.40023 l 28.26926,9.84503 a 1.2708059,1.2708059 0 1 1 -0.8359,2.40021 z"
     fill="#cccccc"
     id="path76"
     style="stroke-width:0.880926" />
  <path
     d="m 764.78085,517.80515 -28.26925,-9.84503 a 1.2708072,1.2708072 0 0 1 0.83588,-2.40021 l 28.26927,9.84503 a 1.2708059,1.2708059 0 1 1 -0.8359,2.40021 z"
     fill="#cccccc"
     id="path78"
     style="stroke-width:0.880926" />
  <path
     d="m 759.4868,533.00655 -28.26927,-9.84503 a 1.2708072,1.2708072 0 0 1 0.83591,-2.40022 l 28.26926,9.84503 a 1.2708088,1.2708088 0 0 1 -0.8359,2.40022 z"
     fill="#cccccc"
     id="path80"
     style="stroke-width:0.880926" />
  <path
     d="m 834.71675,541.24269 c 0.20585,-0.49403 0.3999,-0.99607 0.57822,-1.50816 a 26.637971,26.637971 0 0 0 -16.39524,-33.91689 l -9.29177,26.68067 z"
     fill="#dc5c01"
     id="path82"
     style="stroke-width:0.880926" />
  <path
     d="m 806.90576,534.12154 9.29179,-26.68067 a 26.637937,26.637937 0 1 0 15.81701,35.42502 z"
     fill="#3f3d56"
     id="path84"
     style="stroke-width:0.880926" />
  <path
     d="m 840.17079,495.84831 a 8.8583784,8.8583784 0 0 1 9.67195,-9.53725 l 13.1023,-28.62349 8.66903,13.87259 -13.77123,25.05456 a 8.9063976,8.9063976 0 0 1 -17.67205,-0.76643 z"
     fill="#ffb8b8"
     id="path86"
     style="stroke-width:0.880926" />
  <path
     d="m 862.85402,485.76788 a 3.9690728,3.9690728 0 0 1 -2.25841,-0.70469 l -6.18651,-4.28274 a 3.9770892,3.9770892 0 0 1 -1.57541,-4.27394 l 7.27211,-27.46752 -8.79056,-50.99945 a 12.770358,12.770358 0 1 1 25.5404,-0.12343 l 7.20315,31.82205 a 40.851605,40.851605 0 0 1 -3.92524,28.48795 l -13.79573,25.46616 a 3.9685707,3.9685707 0 0 1 -2.56458,1.96735 3.924172,3.924172 0 0 1 -0.91922,0.1084 z"
     fill="#3f3d56"
     id="path88"
     style="stroke-width:0.880926" />
  <path
     d="m 929.89749,643.25202 h -167.3759 a 0.88092743,0.88092743 0 0 1 0,-1.76185 h 167.3759 a 0.88092743,0.88092743 0 0 1 0,1.76185 z"
     fill="#cccccc"
     id="path90"
     style="stroke-width:0.880926" />
  <polygon
     points="490.539,637.951 490.541,685.239 502.801,685.238 508.633,637.951 "
     fill="#a0616a"
     id="polygon92"
     transform="matrix(0.8809258,0,0,0.8809258,54.257254,28.646833)" />
  <path
     d="m 483.63281,628.76558 21.2689,-8.7e-4 h 8.6e-4 a 13.553968,13.553968 0 0 1 13.55436,13.55412 v 0.44045 l -34.82345,10e-4 z"
     fill="#2f2e41"
     id="path94"
     style="stroke-width:0.880926" />
  <polygon
     points="441.539,637.951 441.541,685.239 453.801,685.238 459.633,637.951 "
     fill="#a0616a"
     id="polygon96"
     transform="matrix(0.8809258,0,0,0.8809258,54.257254,28.646833)" />
  <path
     d="m 440.46746,628.76558 21.26887,-8.7e-4 h 8.9e-4 a 13.553968,13.553968 0 0 1 13.55436,13.55412 v 0.44045 l -34.82347,10e-4 z"
     fill="#2f2e41"
     id="path98"
     style="stroke-width:0.880926" />
  <circle
     cx="488.5433"
     cy="322.25674"
     r="21.636444"
     fill="#a0616a"
     id="circle100"
     style="stroke-width:0.880926" />
  <path
     d="M 503.09301,623.30071 H 483.0513 a 3.9644038,3.9644038 0 0 1 -3.96375,-4.01234 l 1.1646,-95.16751 a 1.3214415,1.3214415 0 0 0 -2.6331,-0.17627 l -11.66407,95.87122 a 3.9677339,3.9677339 0 0 1 -3.93508,3.48497 h -20.23424 a 3.9638401,3.9638401 0 0 1 -3.95213,-4.27299 l 13.36143,-170.96585 0.36325,-0.0396 63.98066,-6.90975 -8.486,178.41243 a 3.9596292,3.9596292 0 0 1 -3.95986,3.77576 z"
     fill="#2f2e41"
     id="path102"
     style="stroke-width:0.880926" />
  <path
     d="m 451.9737,458.55727 a 3.9608626,3.9608626 0 0 1 -3.94995,-3.83943 c -0.34928,-10.81026 -0.94782,-48.21519 6.00967,-75.67616 a 36.050672,36.050672 0 0 1 33.29259,-27.16675 v 0 a 36.27603,36.27603 0 0 1 35.7291,22.92472 c 11.69464,29.68995 22.74364,66.28621 8.96865,72.02601 -18.05448,7.52227 -65.64963,10.87564 -79.80682,11.72387 q -0.12234,0.007 -0.24324,0.007 z"
     fill="#3f3d56"
     id="path104"
     style="stroke-width:0.880926" />
  <path
     d="m 534.66737,300.38861 a 9.2717441,9.2717441 0 0 0 1.09758,0.96294 l -2.27123,43.62891 -9.44725,4.83673 5.436,15.2116 17.55661,-6.93717 a 7.0474064,7.0474064 0 0 0 4.42735,-7.20644 l -4.59944,-49.48996 a 9.2471661,9.2471661 0 1 0 -12.19962,-1.00661 z"
     fill="#a0616a"
     id="path106"
     style="stroke-width:0.880926" />
  <path
     d="m 533.67299,346.60449 6.64584,18.88607 a 3.9641662,3.9641662 0 0 1 -2.98551,5.20766 l -19.59657,3.79487 a 11.009291,11.009291 0 0 1 -7.24791,-20.79139 l 17.59533,-9.28761 a 3.9641662,3.9641662 0 0 1 5.58882,2.19042 z"
     fill="#3f3d56"
     id="path108"
     style="stroke-width:0.880926" />
  <path
     d="m 440.94864,300.38861 a 9.2731007,9.2731007 0 0 1 -1.0976,0.96294 l 2.27126,43.62891 9.44722,4.83673 -5.43594,15.2116 -17.5566,-6.93717 a 7.0474064,7.0474064 0 0 1 -4.42737,-7.20644 l 4.59946,-49.48996 a 9.2471661,9.2471661 0 1 1 12.1996,-1.00661 z"
     fill="#a0616a"
     id="path110"
     style="stroke-width:0.880926" />
  <path
     d="m 444.23611,344.22949 a 3.9599376,3.9599376 0 0 1 3.29573,0.18458 l 17.59533,9.28759 a 11.009291,11.009291 0 0 1 -7.24791,20.79141 l -19.59659,-3.79487 a 3.9641662,3.9641662 0 0 1 -2.98551,-5.20765 l 6.64586,-18.88608 a 3.9597615,3.9597615 0 0 1 2.29309,-2.37498 z"
     fill="#3f3d56"
     id="path112"
     style="stroke-width:0.880926" />
  <path
     d="m 496.94661,325.94482 a 14.221032,14.221032 0 0 1 7.96409,-13.36159 c 6.5769,-3.39514 10.70853,-10.63731 8.89808,-17.25036 -2.31741,-8.46472 -13.83813,-13.95451 -23.17289,-11.04222 a 42.782751,42.782751 0 0 0 -7.27719,3.38216 l -6.09873,3.26912 a 63.188808,63.188808 0 0 0 -7.51783,4.43796 24.943722,24.943722 0 0 0 -9.92828,23.37097 c 1.20103,8.60547 6.83659,16.49748 14.55082,21.90068 a 24.61001,24.61001 0 0 0 9.97103,4.43202 c 3.69769,0.60965 7.81409,-0.0831 10.51772,-2.38273 4.22516,-3.59362 3.78865,-9.61153 2.42211,-14.63776 a 10.650534,10.650534 0 0 1 -0.32893,-2.11825 z"
     fill="#2f2e41"
     id="path114"
     style="stroke-width:0.880926" />
  <path
     d="m 570.47977,643.25202 h -167.3759 a 0.88092743,0.88092743 0 0 1 0,-1.76185 h 167.3759 a 0.88092743,0.88092743 0 0 1 0,1.76185 z"
     fill="#cccccc"
     id="path116"
     style="stroke-width:0.880926" />
  <path
     d="m 297.31323,482.54693 -138.10906,56.65879 a 9.6763092,9.6763092 0 0 1 -12.61059,-5.27367 L 104.31627,430.87873 a 7.0890124,7.0890124 0 0 1 3.86336,-9.2388 l 142.77791,-58.57417 a 7.2116109,7.2116109 0 0 1 9.39848,3.93046 l 42.23083,102.94009 a 9.6763179,9.6763179 0 0 1 -5.27362,12.61062 z"
     fill="#e6e6e6"
     id="path118"
     style="stroke-width:0.880926" />
  <path
     d="m 164.20685,526.70627 120.76672,-49.54415 a 9.3724954,9.3724954 0 0 0 5.11385,-12.22847 l -34.13863,-83.21484 a 9.3724778,9.3724778 0 0 0 -12.22847,-5.11383 L 122.9536,426.14912 a 9.372469,9.372469 0 0 0 -5.11383,12.22846 l 34.13863,83.21484 a 9.3724778,9.3724778 0 0 0 12.22845,5.11385 z"
     fill="#ffffff"
     id="path120"
     style="stroke-width:0.880926" />
  <rect
     x="80.765434"
     y="471.04306"
     width="1.9191233"
     height="0.31985536"
     transform="rotate(-22.30577)"
     fill="#e6e6e6"
     id="rect122"
     style="stroke-width:0.880926" />
  <path
     d="m 250.04047,406.90858 -3.58687,1.4715 -0.12144,-0.29592 3.58689,-1.47151 z m -7.17382,2.94305 -3.58687,1.4715 -0.12144,-0.29594 3.58687,-1.47149 z m -7.17385,2.94304 -3.58687,1.47151 -0.12144,-0.29592 3.58687,-1.47151 z m -7.17382,2.94303 -3.58687,1.47151 -0.12144,-0.29592 3.58689,-1.47151 z m -7.17381,2.94305 -3.58688,1.47151 -0.12144,-0.29592 3.58688,-1.47151 z m -7.17384,2.94305 -3.58687,1.47151 -0.12144,-0.29592 3.58687,-1.47151 z m -7.17383,2.94305 -3.58688,1.47151 -0.12144,-0.29593 3.58689,-1.4715 z m -7.17382,2.94303 -3.58687,1.47151 -0.12144,-0.29591 3.58687,-1.4715 z m -7.17385,2.94305 -3.58688,1.47151 -0.12144,-0.29591 3.58688,-1.4715 z m -7.17382,2.94305 -3.58687,1.4715 -0.12144,-0.29592 3.58689,-1.4715 z m -7.17384,2.94305 -3.58689,1.4715 -0.12144,-0.29592 3.58689,-1.47149 z m -7.17383,2.94303 -3.58687,1.47152 -0.12144,-0.29592 3.58687,-1.47151 z m -7.17384,2.94306 -3.58687,1.47151 -0.12144,-0.29592 3.58687,-1.47151 z m -7.17381,2.94305 -3.58695,1.47153 -0.12144,-0.29591 3.58695,-1.47156 z m -7.17384,2.94305 -3.58687,1.47151 -0.12144,-0.29594 3.58689,-1.47151 z m -7.17383,2.94303 -3.58695,1.47155 -0.12144,-0.29593 3.58697,-1.47154 z"
     fill="#e6e6e6"
     id="path124"
     style="stroke-width:0.880926" />
  <rect
     x="-49.095528"
     y="471.04306"
     width="1.9191233"
     height="0.31985536"
     transform="rotate(-22.30577)"
     fill="#e6e6e6"
     id="rect126"
     style="stroke-width:0.880926" />
  <rect
     x="17.754068"
     y="500.78955"
     width="1.9191233"
     height="0.31985536"
     transform="rotate(-22.30577)"
     fill="#e6e6e6"
     id="rect128"
     style="stroke-width:0.880926" />
  <path
     d="m 203.08759,458.32325 -3.53365,1.44966 -0.12144,-0.29592 3.53363,-1.44967 z m -7.06727,2.89932 -3.53361,1.44964 -0.12144,-0.2959 3.53363,-1.44966 z m -7.06726,2.89932 -3.53363,1.44967 -0.12144,-0.29593 3.53365,-1.44966 z m -7.06729,2.89936 -3.53363,1.44965 -0.12144,-0.29591 3.53363,-1.44966 z m -7.06724,2.89936 -3.5337,1.4497 -0.12144,-0.29592 3.53372,-1.44968 z m -7.06734,2.89936 -3.53363,1.44967 -0.12144,-0.29593 3.53365,-1.44964 z m -7.06726,2.89933 -3.53364,1.44968 -0.12144,-0.29593 3.53363,-1.44966 z m -7.06727,2.89934 -3.53363,1.44966 -0.12144,-0.29592 3.53365,-1.44966 z"
     fill="#e6e6e6"
     id="path130"
     style="stroke-width:0.880926" />
  <rect
     x="-49.095528"
     y="500.78949"
     width="1.9191233"
     height="0.31985536"
     transform="rotate(-22.30577)"
     fill="#e6e6e6"
     id="rect132"
     style="stroke-width:0.880926" />
  <rect
     x="-19.668913"
     y="514.8631"
     width="1.9191233"
     height="0.31985536"
     transform="rotate(-22.30577)"
     fill="#e6e6e6"
     id="rect134"
     style="stroke-width:0.880926" />
  <path
     d="m 173.70466,485.58941 -3.63557,1.49149 -0.12144,-0.29592 3.63559,-1.49147 z m -7.27122,2.98301 -3.63557,1.49149 -0.12144,-0.29594 3.63557,-1.49149 z m -7.27115,2.98296 -3.63559,1.49148 -0.12144,-0.2959 3.6356,-1.49149 z"
     fill="#e6e6e6"
     id="path136"
     style="stroke-width:0.880926" />
  <rect
     x="-49.095528"
     y="514.8631"
     width="1.9191233"
     height="0.31985536"
     transform="rotate(-22.30577)"
     fill="#e6e6e6"
     id="rect138"
     style="stroke-width:0.880926" />
  <rect
     x="-19.668913"
     y="538.88007"
     width="1.9191233"
     height="0.31985536"
     transform="rotate(-22.30577)"
     fill="#e6e6e6"
     id="rect140"
     style="stroke-width:0.880926" />
  <path
     d="m 182.8203,507.80924 -3.63557,1.49148 -0.12144,-0.2959 3.63558,-1.49149 z m -7.27122,2.983 -3.63557,1.49149 -0.12144,-0.29592 3.63557,-1.49149 z m -7.27116,2.98298 -3.63558,1.49147 -0.12144,-0.29591 3.63558,-1.4915 z"
     fill="#e6e6e6"
     id="path142"
     style="stroke-width:0.880926" />
  <rect
     x="-49.095528"
     y="538.88007"
     width="1.9191233"
     height="0.31985536"
     transform="rotate(-22.30577)"
     fill="#e6e6e6"
     id="rect144"
     style="stroke-width:0.880926" />
  <path
     d="m 169.33472,513.60694 102.34162,-41.98539 a 10.113786,10.113786 0 0 0 5.51211,-13.18083 l -20.67768,-50.40295 -0.19993,0.0889 -25.11456,60.05007 -18.62685,-7.78729 a 2.4155866,2.4155866 0 0 0 -2.14552,0.13393 2.5738539,2.5738539 0 0 0 -1.06768,1.26222 l -13.16219,31.46808 -13.61895,-5.69284 a 2.4248628,2.4248628 0 0 0 -3.17371,1.302 c -0.0871,0.21379 -8.48448,20.8168 -10.06666,24.7442 z"
     fill="#dc5c01"
     id="path146"
     style="stroke-width:0.880926" />
  <path
     d="m 169.0197,514.08157 -0.29507,-0.12343 10.5311,-25.18251 a 2.7215498,2.7215498 0 0 1 3.55712,-1.45929 l 13.34999,5.58284 13.08719,-31.29479 a 2.7215409,2.7215409 0 0 1 3.5571,-1.45929 l 18.35784,7.67709 25.24368,-60.36401 0.29505,0.12343 -25.36705,60.6591 -18.6529,-7.80049 a 2.398761,2.398761 0 0 0 -3.13865,1.28763 l -13.2106,31.58985 -13.64505,-5.70622 a 2.401809,2.401809 0 0 0 -3.13867,1.28761 z"
     fill="#3f3d56"
     id="path148"
     style="stroke-width:0.880926" />
  <circle
     cx="179.0551"
     cy="483.22159"
     r="2.2389786"
     fill="#3f3d56"
     id="circle150"
     style="stroke-width:0.880926" />
  <circle
     cx="208.33612"
     cy="455.99722"
     r="2.2389786"
     fill="#3f3d56"
     id="circle152"
     style="stroke-width:0.880926" />
  <circle
     cx="253.92987"
     cy="404.48157"
     r="2.2389786"
     fill="#3f3d56"
     id="circle154"
     style="stroke-width:0.880926" />
  <path
     d="m 128.60835,480.68103 a 8.8928843,8.8928843 0 0 0 3.18006,-13.26019 l 6.64977,-65.0161 h -14.37082 l -5.28472,63.48489 a 8.9410797,8.9410797 0 0 0 9.82571,14.7914 z"
     fill="#ffb8b8"
     id="path156"
     style="stroke-width:0.880926" />
  <circle
     cx="141.80339"
     cy="346.19202"
     r="20.33182"
     fill="#ffb8b8"
     id="circle158"
     style="stroke-width:0.880926" />
  <path
     d="m 145.63101,440.26808 a 3.7183877,3.7183877 0 0 1 -3.58367,-2.73079 c -1.62894,-5.91835 -5.86702,-15.9248 -12.5962,-29.7429 a 24.637054,24.637054 0 0 1 13.9907,-34.01491 v 0 a 24.625911,24.625911 0 0 1 31.64447,15.68753 c 5.21584,16.35244 4.964,33.86895 4.61357,40.64019 a 3.7342444,3.7342444 0 0 1 -2.92543,3.44786 l -30.34455,6.62651 a 3.7066891,3.7066891 0 0 1 -0.79889,0.0865 z"
     fill="#ff6584"
     id="path160"
     style="stroke-width:0.880926" />
  <polygon
     points="137.08,641.989 137.082,686.425 148.602,686.425 154.083,641.988 "
     fill="#ffb8b8"
     id="polygon162"
     transform="matrix(0.8809258,0,0,0.8809258,54.257254,28.646833)" />
  <path
     d="m 204.73781,642.75916 -31.89605,0.001 -5.6e-4,-12.32348 19.57259,-9.1e-4 a 12.323474,12.323474 0 0 1 12.32402,12.32293 z"
     fill="#2f2e41"
     id="path164"
     style="stroke-width:0.880926" />
  <polygon
     points="43.291,632.555 21.882,671.495 31.978,677.045 58.19,640.747 "
     fill="#ffb8b8"
     id="polygon166"
     transform="matrix(0.8809258,0,0,0.8809258,54.257254,28.646833)" />
  <path
     d="m 95.038756,642.7606 -27.95046,-15.3665 5.93707,-10.79904 17.15143,9.42944 a 12.323465,12.323465 0 0 1 4.86196,16.73608 v 0 z"
     fill="#2f2e41"
     id="path168"
     style="stroke-width:0.880926" />
  <path
     d="m 174.54203,611.609 a 3.724704,3.724704 0 0 1 -3.69056,-3.24574 l -12.69219,-97.80425 a 2.0695413,2.0695413 0 0 0 -3.86463,-0.73321 l -52.8958,95.96836 a 3.7454586,3.7454586 0 0 1 -4.588324,1.68388 l -11.52971,-4.39287 a 3.7248185,3.7248185 0 0 1 -2.12409,-4.8852 L 119.799,508.18635 a 2.8694308,2.8694308 0 0 0 0.18715,-0.71302 c 4.963,-38.41305 17.59052,-57.94738 21.34232,-63.01931 a 2.8847149,2.8847149 0 0 0 0.41052,-2.62651 l -0.51576,-1.5473 a 3.7232152,3.7232152 0 0 1 0.71687,-3.62323 c 13.51917,-15.39854 37.08256,-6.99595 37.31905,-6.90946 l 0.118,0.0438 0.074,0.10098 c 26.42154,36.23521 16.65256,153.92625 14.42605,177.15095 a 3.7149168,3.7149168 0 0 1 -3.42219,3.35247 l -15.62368,1.20291 c -0.0972,0.007 -0.19355,0.0109 -0.28934,0.0109 z"
     fill="#2f2e41"
     id="path170"
     style="stroke-width:0.880926" />
  <path
     d="m 220.84578,369.80958 a 8.7143734,8.7143734 0 0 0 -0.19808,1.3577 l -35.56053,20.51474 -8.6435,-4.9759 -9.21447,12.06305 14.44553,10.29589 a 6.6224564,6.6224564 0 0 0 7.94547,-0.19358 l 36.66902,-28.92842 a 8.6895842,8.6895842 0 1 0 -5.44346,-10.13348 z"
     fill="#ffb8b8"
     id="path172"
     style="stroke-width:0.880926" />
  <path
     d="m 183.89834,392.65364 -11.49307,14.89557 a 3.7251532,3.7251532 0 0 1 -5.63234,0.30849 l -13.01094,-13.51081 a 10.34546,10.34546 0 0 1 12.68752,-16.34435 l 16.31856,9.12474 a 3.725162,3.725162 0 0 1 1.13027,5.52638 z"
     fill="#ff6584"
     id="path174"
     style="stroke-width:0.880926" />
  <path
     d="m 139.35278,418.53275 -18.51462,-3.34311 a 3.7251532,3.7251532 0 0 1 -2.8674,-4.85764 l 6.00207,-17.77084 a 10.34546,10.34546 0 0 1 20.35072,3.73629 l -0.5856,18.68723 a 3.7251709,3.7251709 0 0 1 -4.38518,3.54807 z"
     fill="#ff6584"
     id="path176"
     style="stroke-width:0.880926" />
  <path
     d="m 145.02136,341.51546 c 5.2257,3.57653 12.08717,7.25301 17.42445,3.44429 a 9.7124887,9.7124887 0 0 0 3.18757,-11.19598 c -2.55568,-7.30836 -9.57729,-10.52585 -16.2917,-12.99212 -8.72874,-3.20614 -18.23307,-5.75677 -27.24409,-3.46068 -9.01101,2.29608 -16.97471,11.02053 -15.34804,20.17609 1.30811,7.36273 8.25322,13.4891 7.26727,20.90181 -0.99227,7.46034 -9.38219,11.38724 -16.789164,12.72057 -7.40698,1.33333 -15.69557,1.76175 -21.01867,7.08208 -6.79059,6.787 -5.09486,18.91809 1.2948,26.08383 6.38968,7.16576 16.03203,10.41393 25.375474,12.62208 12.37949,2.92566 25.76885,4.46321 37.52628,-0.39222 11.75742,-4.85541 20.90683,-17.92562 17.50091,-30.18167 -1.43866,-5.17696 -4.8277,-9.55215 -8.10303,-13.81158 -3.27535,-4.25942 -6.59193,-8.7135 -7.84132,-13.93936 -1.04117,-4.35487 -0.27055,-9.41109 2.61738,-12.67774 a 3.6730113,3.6730113 0 0 0 0.49205,-4.29337 z"
     fill="#2f2e41"
     id="path178"
     style="stroke-width:0.880926" />
  <path
     d="M 222.51409,643.25202 H 55.138164 a 0.88092743,0.88092743 0 0 1 0,-1.76185 H 222.51409 a 0.88092743,0.88092743 0 0 1 0,1.76185 z"
     fill="#cccccc"
     id="path180"
     style="stroke-width:0.880926" />
</svg>
