<?xml version="1.0" encoding="UTF-8" standalone="no"?>
<svg
   xmlns:dc="http://purl.org/dc/elements/1.1/"
   xmlns:cc="http://creativecommons.org/ns#"
   xmlns:rdf="http://www.w3.org/1999/02/22-rdf-syntax-ns#"
   xmlns:svg="http://www.w3.org/2000/svg"
   xmlns="http://www.w3.org/2000/svg"
   xmlns:sodipodi="http://sodipodi.sourceforge.net/DTD/sodipodi-0.dtd"
   xmlns:inkscape="http://www.inkscape.org/namespaces/inkscape"
   id="ed1cb2a2-9ed7-4833-8d03-c78f60f09f28"
   data-name="Layer 1"
   width="756.96034"
   height="473.36008"
   viewBox="0 0 756.96034 473.36008"
   version="1.1"
   sodipodi:docname="maas4.svg"
   inkscape:version="1.0.1 (3bc2e813f5, 2020-09-07)">
  <metadata
     id="metadata99">
    <rdf:RDF>
      <cc:Work
         rdf:about="">
        <dc:format>image/svg+xml</dc:format>
        <dc:type
           rdf:resource="http://purl.org/dc/dcmitype/StillImage" />
      </cc:Work>
    </rdf:RDF>
  </metadata>
  <defs
     id="defs97" />
  <sodipodi:namedview
     pagecolor="#ffffff"
     bordercolor="#666666"
     borderopacity="1"
     objecttolerance="10"
     gridtolerance="10"
     guidetolerance="10"
     inkscape:pageopacity="0"
     inkscape:pageshadow="2"
     inkscape:window-width="1920"
     inkscape:window-height="1009"
     id="namedview95"
     showgrid="false"
     inkscape:zoom="1.3765583"
     inkscape:cx="378.48016"
     inkscape:cy="282.40348"
     inkscape:window-x="-8"
     inkscape:window-y="-8"
     inkscape:window-maximized="1"
     inkscape:current-layer="ed1cb2a2-9ed7-4833-8d03-c78f60f09f28" />
  <path
     d="m 564.36359,301.68844 a 6.9214699,6.9214699 0 0 1 3.37225,-10.06323 l -0.97836,-24.57707 10.94183,6.60658 -0.74843,22.32592 a 6.9589688,6.9589688 0 0 1 -12.58729,5.70777 z"
     fill="#a0616a"
     id="path2"
     style="stroke-width:0.688307" />
  <path
     d="m 578.96762,285.75584 -9.72743,1.55419 a 3.0972572,3.0972572 0 0 1 -3.55868,-2.65084 l -4.11549,-30.99412 -20.33591,-27.82939 a 9.3466367,9.3466367 0 0 1 2.51418,-13.3896 l -6.9e-4,-6e-5 a 9.3462375,9.3462375 0 0 1 12.90824,2.8427 l 20.76923,32.50063 4.13376,34.53998 a 3.1345015,3.1345015 0 0 1 0.009,0.66412 3.0876003,3.0876003 0 0 1 -2.59627,2.76239 z"
     fill="#dc5c01"
     id="path4"
     style="stroke-width:0.688307" />
  <polygon
     points="626.727,412.576 626.725,459.863 614.465,459.863 608.633,412.575 "
     fill="#a0616a"
     id="polygon6"
     transform="matrix(0.68830692,0,0,0.68830692,114.05256,84.268149)" />
  <path
     d="m 530.96545,398.38381 h 16.27424 v 10.24674 h -26.52095 v 0 a 10.246729,10.246729 0 0 1 10.24671,-10.24674 z"
     fill="#2f2e41"
     id="path8"
     style="stroke-width:0.688307" />
  <polygon
     points="647.021,403.547 678.45,438.879 669.29,447.027 635.145,413.36 "
     fill="#a0616a"
     id="polygon10"
     transform="matrix(0.68830692,0,0,0.68830692,114.05256,84.268149)" />
  <path
     d="m 568.62367,394.16479 12.15957,-10.81647 6.81035,7.65601 -19.81555,17.62682 v 0 a 10.246729,10.246729 0 0 1 0.84563,-14.46636 z"
     fill="#2f2e41"
     id="path12"
     style="stroke-width:0.688307" />
  <path
     d="m 460.63099,214.67274 a 6.9214699,6.9214699 0 0 1 8.48277,6.37833 l 23.62778,6.83503 -9.72458,8.29478 -20.94646,-7.76237 a 6.9589688,6.9589688 0 0 1 -1.43951,-13.74578 z"
     fill="#a0616a"
     id="path14"
     style="stroke-width:0.688307" />
  <circle
     cx="534.29633"
     cy="174.18016"
     r="16.905525"
     fill="#a0616a"
     id="circle16"
     style="stroke-width:0.688307" />
  <path
     d="m 546.46752,394.70044 -11.74506,-0.93971 a 3.0955296,3.0955296 0 0 1 -2.84867,-2.98513 l -3.2782,-99.00125 a 3.0900025,3.0900025 0 0 1 2.66769,-3.16996 l 23.41605,-3.26745 a 3.0970851,3.0970851 0 0 1 3.4812,3.58874 l -8.96043,52.48272 a 2.4185522,2.4185522 0 0 0 -0.0343,0.43692 l 0.64595,49.72681 a 3.0981796,3.0981796 0 0 1 -3.09923,3.13838 c -0.0815,10e-6 -0.16337,-0.003 -0.24503,-0.0101 z"
     fill="#2f2e41"
     id="path18"
     style="stroke-width:0.688307" />
  <path
     d="m 561.50977,382.82647 -40.34795,-44.90396 a 3.1000793,3.1000793 0 0 1 -0.77603,-2.39833 l 5.09575,-47.77212 a 3.0924184,3.0924184 0 0 1 3.28576,-2.76196 l 24.76242,1.65085 a 3.0972779,3.0972779 0 0 1 2.72819,4.08213 l -14.83658,43.89166 a 2.4002433,2.4002433 0 0 0 0.54866,2.44402 l 34.27268,35.51906 a 3.0974844,3.0974844 0 0 1 -0.6532,4.81746 l -10.20008,6.02739 a 3.1045189,3.1045189 0 0 1 -3.87963,-0.59622 z"
     fill="#2f2e41"
     id="path20"
     style="stroke-width:0.688307" />
  <path
     d="m 531.26662,201.52815 c 0,0 10.32461,-8.94799 15.14275,-4.12985 0,0 22.36998,14.1103 12.73368,52.65549 0,0 8.25968,37.16857 4.81815,38.54518 -3.44153,1.37662 -38.20104,6.53892 -40.95426,2.40908 -2.75323,-4.12985 -4.12984,-67.45408 8.25968,-89.4799 z"
     fill="#dc5c01"
     id="path22"
     style="stroke-width:0.688307" />
  <path
     d="m 471.13478,233.56177 1.59806,-9.72033 a 3.0972642,3.0972642 0 0 1 3.63921,-2.53916 l 30.70722,5.8855 32.82821,-10.50405 a 9.3466298,9.3466298 0 0 1 11.90989,6.61489 l 2.8e-4,-6.1e-4 a 9.3462513,9.3462513 0 0 1 -6.77455,11.3494 l -37.39709,9.43971 -34.07732,-6.98822 a 3.1343226,3.1343226 0 0 1 -0.63296,-0.20118 3.0875865,3.0875865 0 0 1 -1.80095,-3.33595 z"
     fill="#dc5c01"
     id="path24"
     style="stroke-width:0.688307" />
  <path
     d="m 541.55069,187.89313 c 1.54491,-3.57544 2.85221,-8.33712 -0.11097,-10.86502 -1.71878,-1.46629 -4.19444,-1.46931 -6.44631,-1.65173 -6.34434,-0.51395 -12.87515,-3.43308 -15.97614,-8.99174 -3.10098,-5.55866 -1.3692,-13.82425 4.48105,-16.33215 3.94346,-1.69047 8.4644,-0.53888 12.59218,0.63164 l 12.39352,3.51445 c 3.68248,1.04425 7.54892,2.19587 10.19998,4.95683 4.22806,4.4033 3.91201,11.84691 0.55381,16.94474 -3.35819,5.09782 -8.41548,10.41464 -14.20505,12.35016 z"
     fill="#2f2e41"
     id="path26"
     style="stroke-width:0.688307" />
  <path
     d="M 634.38529,410.08514 H 463.68518 a 0.68830692,0.68830692 0 0 1 0,-1.37661 h 170.70011 a 0.68830692,0.68830692 0 0 1 0,1.37661 z"
     fill="#3f3d56"
     id="path28"
     style="stroke-width:0.688307" />
  <path
     d="M 454.07618,84.268177 H 118.87071 a 4.8235035,4.8235035 0 0 0 -4.81815,4.818148 V 336.87682 a 4.8235035,4.8235035 0 0 0 4.81815,4.81815 h 335.20547 a 4.8235035,4.8235035 0 0 0 4.81814,-4.81815 V 89.086325 a 4.8235035,4.8235035 0 0 0 -4.81814,-4.818148 z m 3.44153,252.608643 a 3.4429112,3.4429112 0 0 1 -3.44153,3.44154 H 118.87071 a 3.4429112,3.4429112 0 0 1 -3.44153,-3.44154 V 89.086325 a 3.4429112,3.4429112 0 0 1 3.44153,-3.441534 h 335.20547 a 3.4429112,3.4429112 0 0 1 3.44153,3.441534 z"
     fill="#3f3d56"
     id="path30"
     style="stroke-width:0.688307" />
  <rect
     x="114.74088"
     y="103.56825"
     width="343.46515"
     height="1.3766137"
     fill="#3f3d56"
     id="rect32"
     style="stroke-width:0.688307" />
  <circle
     cx="126.44209"
     cy="94.592743"
     r="4.1298418"
     fill="#3f3d56"
     id="circle34"
     style="stroke-width:0.688307" />
  <circle
     cx="138.3154"
     cy="94.592743"
     r="4.1298418"
     fill="#3f3d56"
     id="circle36"
     style="stroke-width:0.688307" />
  <circle
     cx="150.18869"
     cy="94.592743"
     r="4.1298418"
     fill="#3f3d56"
     id="circle38"
     style="stroke-width:0.688307" />
  <path
     d="m 321.79931,298.54138 a 0.68830692,0.68830692 0 0 1 -0.68831,-0.6883 v -28.22059 a 0.68831,0.68831 0 0 1 1.37662,0 v 28.22059 a 0.68834133,0.68834133 0 0 1 -0.68831,0.6883 z"
     fill="#3f3d56"
     id="path40"
     style="stroke-width:0.688307" />
  <path
     d="m 320.85575,258.61958 a 0.68471396,0.68471396 0 0 1 -0.34584,-0.0934 l -39.10629,-22.78569 a 0.6884377,0.6884377 0 0 1 0.69302,-1.18975 l 39.10628,22.7857 a 0.68838952,0.68838952 0 0 1 -0.34717,1.28318 z"
     fill="#3f3d56"
     id="path42"
     style="stroke-width:0.688307" />
  <path
     d="m 242.64468,258.61958 a 0.68838952,0.68838952 0 0 1 -0.34718,-1.28318 l 39.10612,-22.78571 a 0.6884377,0.6884377 0 0 1 0.693,1.18976 l -39.10617,22.7857 a 0.68789394,0.68789394 0 0 1 -0.34577,0.0935 z"
     fill="#3f3d56"
     id="path44"
     style="stroke-width:0.688307" />
  <path
     d="m 361.46585,293.03492 a 0.68471396,0.68471396 0 0 1 -0.34583,-0.0935 l -39.10629,-22.78571 a 0.6884377,0.6884377 0 0 1 0.69301,-1.18975 l 39.10629,22.78571 a 0.68838952,0.68838952 0 0 1 -0.34718,1.28318 z"
     fill="#3f3d56"
     id="path46"
     style="stroke-width:0.688307" />
  <path
     d="m 283.25479,293.03492 a 0.68838952,0.68838952 0 0 1 -0.34718,-1.28317 l 39.10612,-22.78571 a 0.6884377,0.6884377 0 0 1 0.69299,1.18975 l -39.10615,22.78571 a 0.68767368,0.68767368 0 0 1 -0.34578,0.0935 z"
     fill="#3f3d56"
     id="path48"
     style="stroke-width:0.688307" />
  <path
     d="m 281.87751,223.51593 a 0.68819679,0.68819679 0 0 1 -0.68831,-0.68663 l -0.0636,-25.04554 a 0.6882312,0.6882312 0 0 1 0.68663,-0.68999 h 0.002 a 0.68820368,0.68820368 0 0 1 0.6883,0.68663 l 0.0636,25.04556 a 0.6882312,0.6882312 0 0 1 -0.68664,0.68999 z"
     fill="#3f3d56"
     id="path50"
     style="stroke-width:0.688307" />
  <path
     d="m 290.77978,236.53595 h -17.93177 a 3.1008777,3.1008777 0 0 1 -3.09738,-3.09738 v -9.21047 a 3.1008777,3.1008777 0 0 1 3.09738,-3.09739 h 17.93177 a 3.1008777,3.1008777 0 0 1 3.09739,3.09739 v 9.21047 a 3.1008777,3.1008777 0 0 1 -3.09739,3.09738 z"
     fill="#cccccc"
     id="path52"
     style="stroke-width:0.688307" />
  <path
     d="m 261.10092,189.71731 h -38.15523 a 0.68831,0.68831 0 0 1 0,-1.37662 h 38.15523 a 0.68831,0.68831 0 0 1 0,1.37662 z"
     fill="#3f3d56"
     id="path54"
     style="stroke-width:0.688307" />
  <path
     d="m 281.81382,179.88607 a 0.68834133,0.68834133 0 0 1 -0.68831,-0.6883 v -23.82423 a 0.68830692,0.68830692 0 0 1 1.37661,0 v 23.82423 a 0.68834822,0.68834822 0 0 1 -0.6883,0.6883 z"
     fill="#3f3d56"
     id="path56"
     style="stroke-width:0.688307" />
  <path
     d="m 208.1007,189.71731 a 0.6853059,0.6853059 0 0 1 -0.35029,-0.0962 L 170.70914,167.6669 a 0.68837575,0.68837575 0 0 1 0.70191,-1.18438 l 37.04129,21.95424 a 0.68836887,0.68836887 0 0 1 -0.35164,1.28049 z"
     fill="#3f3d56"
     id="path58"
     style="stroke-width:0.688307" />
  <path
     d="m 171.06077,211.67154 a 0.68836887,0.68836887 0 0 1 -0.35163,-1.2805 l 37.04127,-21.95423 a 0.68837328,0.68837328 0 0 1 0.70193,1.18436 l -37.04129,21.95424 a 0.68536785,0.68536785 0 0 1 -0.35028,0.0961 z"
     fill="#3f3d56"
     id="path60"
     style="stroke-width:0.688307" />
  <path
     d="m 220.19245,200.81961 h -9.21056 a 3.1008226,3.1008226 0 0 1 -3.09737,-3.09738 v -17.93161 a 3.1008226,3.1008226 0 0 1 3.09737,-3.09737 h 9.21056 a 3.1008226,3.1008226 0 0 1 3.09738,3.09737 v 17.93161 a 3.1008226,3.1008226 0 0 1 -3.09738,3.09738 z"
     fill="#cccccc"
     id="path62"
     style="stroke-width:0.688307" />
  <path
     d="m 290.77978,157.22572 h -17.93177 a 3.1008777,3.1008777 0 0 1 -3.09738,-3.09738 v -9.21081 a 3.1008777,3.1008777 0 0 1 3.09738,-3.09738 h 17.93177 a 3.1008777,3.1008777 0 0 1 3.09739,3.09738 v 9.21081 a 3.1008777,3.1008777 0 0 1 -3.09739,3.09738 z"
     fill="#cccccc"
     id="path64"
     style="stroke-width:0.688307" />
  <path
     d="m 168.56944,179.4821 h -9.21056 a 3.1008226,3.1008226 0 0 1 -3.09738,-3.09738 v -17.9316 a 3.1008226,3.1008226 0 0 1 3.09738,-3.09738 h 9.21056 a 3.1008226,3.1008226 0 0 1 3.09738,3.09738 v 17.9316 a 3.1008226,3.1008226 0 0 1 -3.09738,3.09738 z"
     fill="#cccccc"
     id="path66"
     style="stroke-width:0.688307" />
  <path
     d="m 168.56944,222.84544 h -9.21056 a 3.1008226,3.1008226 0 0 1 -3.09738,-3.09739 v -17.9316 a 3.1008226,3.1008226 0 0 1 3.09738,-3.09738 h 9.21056 a 3.1008226,3.1008226 0 0 1 3.09738,3.09738 v 17.9316 a 3.1008226,3.1008226 0 0 1 -3.09738,3.09739 z"
     fill="#cccccc"
     id="path68"
     style="stroke-width:0.688307" />
  <path
     d="m 340.68203,189.71731 h -38.15532 a 0.68831,0.68831 0 0 1 0,-1.37662 h 38.15532 a 0.68831,0.68831 0 0 1 0,1.37662 z"
     fill="#3f3d56"
     id="path70"
     style="stroke-width:0.688307" />
  <path
     d="m 355.52702,189.71731 a 0.68830692,0.68830692 0 0 1 -0.35155,-1.28049 l 37.04119,-21.95425 a 0.68833551,0.68833551 0 1 1 0.70176,1.18438 l -37.0412,21.95423 a 0.68501682,0.68501682 0 0 1 -0.3502,0.0961 z"
     fill="#3f3d56"
     id="path72"
     style="stroke-width:0.688307" />
  <path
     d="m 392.56687,211.67154 a 0.68507876,0.68507876 0 0 1 -0.35021,-0.0961 l -37.04119,-21.95422 a 0.68832917,0.68832917 0 1 1 0.70175,-1.18436 l 37.0412,21.95423 a 0.68830692,0.68830692 0 0 1 -0.35155,1.2805 z"
     fill="#3f3d56"
     id="path74"
     style="stroke-width:0.688307" />
  <path
     d="m 352.64574,200.81961 h -9.21047 a 3.1008777,3.1008777 0 0 1 -3.09738,-3.09738 v -17.93161 a 3.1008777,3.1008777 0 0 1 3.09738,-3.09737 h 9.21047 a 3.1008777,3.1008777 0 0 1 3.09738,3.09737 v 17.93161 a 3.1008777,3.1008777 0 0 1 -3.09738,3.09738 z"
     fill="#cccccc"
     id="path76"
     style="stroke-width:0.688307" />
  <path
     d="m 404.26876,179.4821 h -9.21047 a 3.1008777,3.1008777 0 0 1 -3.09738,-3.09738 v -17.9316 a 3.1008777,3.1008777 0 0 1 3.09738,-3.09738 h 9.21047 a 3.1008777,3.1008777 0 0 1 3.09739,3.09738 v 17.9316 a 3.1008777,3.1008777 0 0 1 -3.09739,3.09738 z"
     fill="#cccccc"
     id="path78"
     style="stroke-width:0.688307" />
  <path
     d="m 404.26876,222.84544 h -9.21047 a 3.1008777,3.1008777 0 0 1 -3.09738,-3.09739 v -17.9316 a 3.1008777,3.1008777 0 0 1 3.09738,-3.09738 h 9.21047 a 3.1008777,3.1008777 0 0 1 3.09739,3.09738 v 17.9316 a 3.1008777,3.1008777 0 0 1 -3.09739,3.09739 z"
     fill="#cccccc"
     id="path80"
     style="stroke-width:0.688307" />
  <path
     d="m 250.85791,271.63961 h -17.93178 a 3.1008226,3.1008226 0 0 1 -3.09738,-3.09738 v -9.21048 a 3.1008226,3.1008226 0 0 1 3.09738,-3.09738 h 17.93178 a 3.1008226,3.1008226 0 0 1 3.09737,3.09738 v 9.21048 a 3.1008226,3.1008226 0 0 1 -3.09737,3.09738 z"
     fill="#cccccc"
     id="path82"
     style="stroke-width:0.688307" />
  <path
     d="m 330.57421,271.63961 h -17.93178 a 3.1008777,3.1008777 0 0 1 -3.09737,-3.09738 v -9.21048 a 3.1008777,3.1008777 0 0 1 3.09737,-3.09738 h 17.93178 a 3.1008777,3.1008777 0 0 1 3.09739,3.09738 v 9.21048 a 3.1008777,3.1008777 0 0 1 -3.09739,3.09738 z"
     fill="#cccccc"
     id="path84"
     style="stroke-width:0.688307" />
  <path
     d="m 294.09395,305.36664 h -17.93177 a 3.1008777,3.1008777 0 0 1 -3.09739,-3.09738 v -9.21047 a 3.1008777,3.1008777 0 0 1 3.09739,-3.09739 h 17.93177 a 3.1008777,3.1008777 0 0 1 3.09738,3.09739 v 9.21047 a 3.1008777,3.1008777 0 0 1 -3.09738,3.09738 z"
     fill="#cccccc"
     id="path86"
     style="stroke-width:0.688307" />
  <path
     d="m 370.49601,305.36664 h -17.93177 a 3.1008777,3.1008777 0 0 1 -3.09738,-3.09738 v -9.21047 a 3.1008777,3.1008777 0 0 1 3.09738,-3.09739 h 17.93177 a 3.1008777,3.1008777 0 0 1 3.09739,3.09739 v 9.21047 a 3.1008777,3.1008777 0 0 1 -3.09739,3.09738 z"
     fill="#cccccc"
     id="path88"
     style="stroke-width:0.688307" />
  <path
     d="m 330.57421,305.36664 h -17.93178 a 3.1008777,3.1008777 0 0 1 -3.09737,-3.09738 v -9.21047 a 3.1008777,3.1008777 0 0 1 3.09737,-3.09739 h 17.93178 a 3.1008777,3.1008777 0 0 1 3.09739,3.09739 v 9.21047 a 3.1008777,3.1008777 0 0 1 -3.09739,3.09738 z"
     fill="#cccccc"
     id="path90"
     style="stroke-width:0.688307" />
  <path
     d="m 303.61194,201.00278 h -43.59621 a 3.1008777,3.1008777 0 0 1 -3.09738,-3.09738 v -17.75281 a 3.1008777,3.1008777 0 0 1 3.09738,-3.09738 h 43.59625 a 3.1008777,3.1008777 0 0 1 3.09738,3.09738 v 17.75281 a 3.1008777,3.1008777 0 0 1 -3.09742,3.09738 z"
     fill="#dc5c01"
     id="path92"
     style="stroke-width:0.688307" />
</svg>
