<?xml version="1.0" encoding="UTF-8" standalone="no"?>
<svg
   xmlns:dc="http://purl.org/dc/elements/1.1/"
   xmlns:cc="http://creativecommons.org/ns#"
   xmlns:rdf="http://www.w3.org/1999/02/22-rdf-syntax-ns#"
   xmlns:svg="http://www.w3.org/2000/svg"
   xmlns="http://www.w3.org/2000/svg"
   xmlns:sodipodi="http://sodipodi.sourceforge.net/DTD/sodipodi-0.dtd"
   xmlns:inkscape="http://www.inkscape.org/namespaces/inkscape"
   id="f885adbf-893a-4cbc-9f2f-51541a368feb"
   data-name="Layer 1"
   width="1090.76"
   height="795.07"
   viewBox="0 0 1090.76 795.07"
   version="1.1"
   sodipodi:docname="saas.svg"
   inkscape:version="1.0.1 (3bc2e813f5, 2020-09-07)">
  <metadata
     id="metadata292">
    <rdf:RDF>
      <cc:Work
         rdf:about="">
        <dc:format>image/svg+xml</dc:format>
        <dc:type
           rdf:resource="http://purl.org/dc/dcmitype/StillImage" />
      </cc:Work>
    </rdf:RDF>
  </metadata>
  <sodipodi:namedview
     pagecolor="#ffffff"
     bordercolor="#666666"
     borderopacity="1"
     objecttolerance="10"
     gridtolerance="10"
     guidetolerance="10"
     inkscape:pageopacity="0"
     inkscape:pageshadow="2"
     inkscape:window-width="1920"
     inkscape:window-height="1009"
     id="namedview290"
     showgrid="false"
     inkscape:zoom="0.95529722"
     inkscape:cx="545.38"
     inkscape:cy="338.97297"
     inkscape:window-x="-8"
     inkscape:window-y="-8"
     inkscape:window-maximized="1"
     inkscape:current-layer="f885adbf-893a-4cbc-9f2f-51541a368feb"
     inkscape:document-rotation="0" />
  <defs
     id="defs9">
    <rect
       x="47.105759"
       y="74.322419"
       width="353.81659"
       height="329.74031"
       id="rect296" />
    <linearGradient
       id="b2e9a30e-d699-40a8-8c6a-b63a5f54a941"
       x1="946.56"
       y1="846.78"
       x2="946.56"
       y2="635.52"
       gradientUnits="userSpaceOnUse"
       gradientTransform="matrix(1.0412835,0,0,1.0412835,-36.984569,-125.93188)">
      <stop
         offset="0"
         stop-color="gray"
         stop-opacity="0.25"
         id="stop2" />
      <stop
         offset="0.54"
         stop-color="gray"
         stop-opacity="0.12"
         id="stop4" />
      <stop
         offset="1"
         stop-color="gray"
         stop-opacity="0.1"
         id="stop6" />
    </linearGradient>
  </defs>
  <title
     id="title11">revenue</title>
  <path
     d="m 215.55792,701.96137 c 0,0 13.85949,-9.14247 27.59401,-2.63445 0,0 -4.2276,8.14285 -21.61704,7.37228 z"
     fill="#dc5c01"
     id="path67"
     style="stroke-width:1.04128" />
  <path
     d="m 213.86061,702.45078 c 0,0 -4.21718,16.09824 6.35185,26.97964 0,0 6.36224,-6.62255 0.052,-22.83533 z"
     fill="#dc5c01"
     id="path69"
     style="stroke-width:1.04128" />
  <path
     d="m 196.57532,687.03976 c 0,0 1.04128,-13.66161 31.86327,-9.13203 0,0 0.14585,8.80924 -10.68357,12.9848 -10.82935,4.17555 -15.77544,0.65601 -21.1797,-3.85277 z"
     fill="#dc5c01"
     id="path71"
     style="stroke-width:1.04128" />
  <path
     d="m 194.68019,686.94607 c 0,0 -13.03688,4.16513 -1.41613,33.1024 0,0 8.60099,-1.91596 10.12125,-13.42214 1.52028,-11.5062 -3.05098,-15.49431 -8.70512,-19.68026 z"
     fill="#dc5c01"
     id="path73"
     style="stroke-width:1.04128" />
  <path
     d="m 177.21786,667.52614 c 0,0 -1.75977,-22.4709 29.74948,-20.15927 0,0 2.23875,20.33629 -24.17862,25.56354 z"
     fill="#dc5c01"
     id="path75"
     style="stroke-width:1.04128" />
  <path
     d="m 156.4026,642.20213 c 0,0 4.3109,-25.45939 35.80974,-17.86846 0,0 0.12498,22.01275 -30.67622,23.94954 z"
     fill="#dc5c01"
     id="path77"
     style="stroke-width:1.04128" />
  <path
     d="m 141.17904,615.98259 c 0,0 7.28897,-24.86585 38.44417,-17.37901 0,0 -7.42433,22.30427 -36.37203,21.96067 z"
     fill="#dc5c01"
     id="path79"
     style="stroke-width:1.04128" />
  <path
     d="m 126.72602,590.36702 c 0,0 7.07029,-25.74052 37.19466,-18.0142 0,0 -10.05882,24.45975 -35.21623,22.39801 z"
     fill="#dc5c01"
     id="path81"
     style="stroke-width:1.04128" />
  <path
     d="m 117.40653,566.03223 c 0,0 5.43551,-31.478 33.52932,-24.51182 0,0 -8.16365,28.63528 -31.45716,29.09346 z"
     fill="#dc5c01"
     id="path83"
     style="stroke-width:1.04128" />
  <path
     d="m 108.67015,536.63678 c 0,0 6.52886,-31.72789 34.92466,-22.50213 0,0 -11.15214,29.98897 -32.94621,26.88597 z"
     fill="#dc5c01"
     id="path85"
     style="stroke-width:1.04128" />
  <path
     d="m 103.26589,509.25103 c 0,0 10.35036,-31.73831 32.33184,-30.87404 0,0 -10.58983,33.51892 -30.49918,37.23629 z"
     fill="#dc5c01"
     id="path87"
     style="stroke-width:1.04128" />
  <path
     d="m 99.829668,482.58377 c 0,0 11.266682,-38.20467 29.155922,-35.24745 0,0 -7.79921,29.15595 -28.52075,41.2036 z"
     fill="#dc5c01"
     id="path89"
     style="stroke-width:1.04128" />
  <path
     d="m 97.872055,450.69967 c 0,0 10.569025,-31.83202 28.229185,-33.08159 0,0 -7.19526,31.32181 -27.833502,41.37021 z"
     fill="#dc5c01"
     id="path91"
     style="stroke-width:1.04128" />
  <path
     d="m 95.737428,421.01268 c 0,0 13.182652,-31.87369 24.845012,-32.59216 0,0 -5.71666,31.38427 -23.678786,37.81939 z"
     fill="#dc5c01"
     id="path93"
     style="stroke-width:1.04128" />
  <path
     d="m 94.269213,393.36661 c 0,0 8.101177,-34.61226 19.784367,-37.48622 0,0 -1.59313,28.30209 -18.586892,40.06859 z"
     fill="#dc5c01"
     id="path95"
     style="stroke-width:1.04128" />
  <path
     d="m 89.895817,357.22365 c 0,0 8.517707,-27.58361 17.951743,-31.79037 0,0 -1.86391,32.51928 -15.765056,38.52748 z"
     fill="#dc5c01"
     id="path97"
     style="stroke-width:1.04128" />
  <path
     d="m 86.240914,333.4199 -1.718122,-48.63833 c 0,0 17.618528,36.71565 3.01975,57.21853 z"
     fill="#dc5c01"
     id="path99"
     style="stroke-width:1.04128" />
  <path
     d="m 72.620912,285.08354 c 0,0 -12.703637,-35.51818 -15.754592,-37.48621 0,0 24.917899,23.04359 22.481294,52.68893 z"
     fill="#dc5c01"
     id="path101"
     style="stroke-width:1.04128" />
  <path
     d="m 176.36399,667.41159 c 0,0 -22.34594,-2.92601 -21.67952,28.65612 0,0 20.20091,3.29045 26.79223,-22.82494 z"
     fill="#dc5c01"
     id="path103"
     style="stroke-width:1.04128" />
  <path
     d="m 155.34049,641.35867 c 0,0 -25.82384,-0.0938 -23.72043,32.27979 0,0 21.66911,3.87358 28.82273,-26.13621 z"
     fill="#dc5c01"
     id="path105"
     style="stroke-width:1.04128" />
  <path
     d="m 140.92911,618.07557 c 0,0 -23.43928,-10.9439 -38.44416,17.37904 0,0 21.65868,9.15285 40.51633,-12.79738 z"
     fill="#dc5c01"
     id="path107"
     style="stroke-width:1.04128" />
  <path
     d="m 126.20539,590.60651 c 0,0 -24.0016,-11.70401 -38.100578,16.02537 0,0 24.990808,8.60099 40.079018,-11.64154 z"
     fill="#dc5c01"
     id="path109"
     style="stroke-width:1.04128" />
  <path
     d="m 117.70851,566.71946 c 0,0 -23.095675,-22.07521 -41.536806,0.24993 0,0 23.605882,18.15995 42.598906,4.66493 z"
     fill="#dc5c01"
     id="path111"
     style="stroke-width:1.04128" />
  <path
     d="m 109.98218,535.88708 c 0,0 -23.241452,-22.57502 -41.536786,1.04127 0,0 26.094538,18.51403 42.359396,3.69657 z"
     fill="#dc5c01"
     id="path113"
     style="stroke-width:1.04128" />
  <path
     d="m 105.67126,508.37637 c 0,0 -17.899664,-28.11467 -38.985643,-21.86696 0,0 18.576501,29.84319 38.787793,28.51034 z"
     fill="#dc5c01"
     id="path115"
     style="stroke-width:1.04128" />
  <path
     d="m 100.36072,482.40674 c 0,0 -18.06627,-35.49734 -35.112069,-29.33294 0,0 13.00563,27.28162 35.570229,35.29953 z"
     fill="#dc5c01"
     id="path117"
     style="stroke-width:1.04128" />
  <path
     d="m 99.111195,448.8566 c 0,0 -18.545263,-27.94807 -35.924298,-24.53266 0,0 15.161078,28.33334 37.725723,32.613 z"
     fill="#dc5c01"
     id="path119"
     style="stroke-width:1.04128" />
  <path
     d="m 97.695051,420.38791 c 0,0 -14.369734,-31.35306 -26.032103,-31.62379 0,0 6.903706,31.13439 25.09492,36.89269 z"
     fill="#dc5c01"
     id="path121"
     style="stroke-width:1.04128" />
  <path
     d="m 94.852326,392.67936 c 0,0 -15.983694,-31.74873 -27.989684,-31.81122 0,0 8.18449,27.14628 27.448225,34.61227 z"
     fill="#dc5c01"
     id="path123"
     style="stroke-width:1.04128" />
  <path
     d="m 92.446959,359.13962 c 0,0 -11.95393,-26.28202 -21.866938,-29.26007 0,0 5.976949,32.02986 20.534093,36.22626 z"
     fill="#dc5c01"
     id="path125"
     style="stroke-width:1.04128" />
  <path
     d="M 84.845603,332.50358 58.115855,291.82064 c 0,0 6.841224,40.13106 30.603309,48.44051 z"
     fill="#dc5c01"
     id="path127"
     style="stroke-width:1.04128" />
  <path
     d="m 66.48777,288.36359 c 0,0 -31.040661,-21.42962 -32.165254,-24.85546 0,0 15.837932,30.02023 45.108387,35.30992 z"
     fill="#dc5c01"
     id="path129"
     style="stroke-width:1.04128" />
  <path
     d="m 64.634275,278.72129 c 0,0 -35.643135,-34.25822 -44.775174,-34.22699 0,0 29.395421,1.34325 45.597802,32.40474 z"
     fill="#dc5c01"
     id="path131"
     style="stroke-width:1.04128" />
  <path
     d="m 92.134596,364.22108 -1.301627,0.1665 C 84.137546,311.95896 74.370283,280.98078 63.332682,277.14885 l 0.437335,-1.23912 c 11.704026,4.06102 21.471269,34.60186 28.364579,88.31124 z"
     fill="#444053"
     id="path133"
     style="stroke-width:1.04128" />
  <path
     d="m 101.94348,489.57077 -1.95762,0.16652 C 99.569323,484.84326 99.25695,479.8347 99.038281,474.84695 97.174394,431.44623 94.269213,391.60674 90.458118,361.7323 l 1.134999,-1.39533 c 3.82151,29.91609 7.5389,70.9739 9.371553,114.41624 0.26032,4.96693 0.54145,9.94427 0.97881,14.81747 z"
     fill="#444053"
     id="path135"
     style="stroke-width:1.04128" />
  <path
     d="m 252.15902,726.8793 c -0.34362,-0.15617 -34.87256,-15.56721 -70.72399,-52.35574 a 284.83269,284.83269 0 0 1 -51.6997,-73.24389 C 113.16851,567.56293 103.06805,526.1094 99.683871,485.82215 l 2.082579,0.95801 c 7.61178,90.42504 48.7737,152.24606 81.51168,185.86908 35.49736,36.44491 69.64102,51.72056 69.98465,51.86632 z"
     fill="#444053"
     id="path137"
     style="stroke-width:1.04128" />
  <path
     d="M 1061.8403,67.465701 V 697.2756 c 0,18.7431 -18.0663,33.95624 -40.3811,33.95624 H 166.9508 c -22.3043,0 -40.37056,-15.23396 -40.37056,-33.95624 V 67.465701 c 0,-18.743104 18.06626,-37.892294 40.37056,-37.892294 l 854.4668,2.082554 c 22.3043,-0.0098 40.4227,17.045811 40.4227,35.80974 z"
     fill="#e8eaf2"
     id="path139"
     style="stroke-width:1.04128" />
  <path
     d="M 1061.8403,67.653135 V 96.80907 H 126.58024 V 67.653135 a 38.079737,38.079737 0 0 1 38.07972,-38.079728 h 859.05884 a 38.09015,38.09015 0 0 1 38.1215,38.079728 z"
     fill="#65617d"
     id="path141"
     style="stroke-width:1.04128" />
  <circle
     cx="171.88649"
     cy="63.186035"
     r="13.453382"
     fill="#fa5959"
     opacity="0.8"
     id="circle143"
     style="stroke-width:1.04128" />
  <circle
     cx="211.04913"
     cy="63.186035"
     r="13.453382"
     fill="#fed253"
     opacity="0.8"
     id="circle145"
     style="stroke-width:1.04128" />
  <circle
     cx="250.2014"
     cy="63.186035"
     r="13.453382"
     fill="#8ccf4d"
     opacity="0.8"
     id="circle147"
     style="stroke-width:1.04128" />
  <path
     d="m 1041.0667,718.16376 -22.7313,-32.93581 c 0,0 -0.4269,-8.15326 -1.916,-10.0588 -1.4889,-1.90556 -0.3124,-6.15398 -0.3124,-6.15398 0,0 1.5933,-2.33249 0.2084,-2.54075 -1.3849,-0.20825 -0.2084,-5.40425 -0.2084,-5.40425 l -0.1144,-8.26779 c 0,0 1.2808,-7.94499 0.2187,-9.85054 a 3.1238504,3.1238504 0 0 1 0.1042,-3.38417 c 0,0 1.2703,-4.56083 0,-5.72705 -1.2704,-1.16627 -0.958,-8.2678 -0.6353,-13.88031 0.3229,-5.61254 -2.2283,-8.78844 -2.2283,-9.64228 0,-0.85387 -8.3927,-9.11124 -8.3927,-9.85055 0,-0.73933 -5.31055,-3.82151 -8.49691,-4.66497 -3.18634,-0.84344 -4.7795,-1.47861 -4.67537,-1.90553 0.10415,-0.42692 -4.98774,-2.08256 -4.98774,-2.08256 0,0 -4.46711,-0.31239 -6.1644,-2.54075 -1.69729,-2.22836 -6.89329,-2.86351 -7.03906,-2.88436 -0.14586,-0.0208 -0.073,-0.30195 -0.10415,-0.44774 l -0.0938,-0.479 c 0.39568,-0.66642 0.77055,-1.36406 1.10375,-2.08255 l 0.30195,-0.6456 a 9.0591661,9.0591661 0 0 0 5.20644,-1.6244 7.1536175,7.1536175 0 0 0 2.54075,-5.08148 11.110495,11.110495 0 0 0 -1.23915,-5.64375 c -0.93714,-1.91597 -2.30123,-3.884 -1.83265,-5.95614 0.20825,-0.89551 0.73931,-1.67646 1.04128,-2.55114 a 6.7683425,6.7683425 0 0 0 -0.76015,-5.01899 c -0.81217,-1.54111 -1.92635,-2.89476 -2.82187,-4.3838 a 17.202002,17.202002 0 0 1 -2.24917,-6.24772 9.6735234,9.6735234 0 0 0 -0.82261,-3.37376 6.424719,6.424719 0 0 0 -1.86389,-1.88469 18.586909,18.586909 0 0 0 -11.45413,-3.45708 c -2.89478,0.0938 -5.77911,0.87468 -8.65306,0.52064 a 30.436714,30.436714 0 0 1 -5.0398,-1.32242 c -3.56119,-1.04129 -7.67427,-1.48904 -10.7773,0.55189 -3.10302,2.0409 -4.33172,6.04984 -6.43513,9.18409 -1.86389,2.78025 -4.58164,5.10229 -5.99779,8.03872 0,-0.052 0,-0.11445 0,-0.1665 a 9.9650829,9.9650829 0 0 0 -0.79137,2.14502 15.317279,15.317279 0 0 0 0.46859,7.01825 4.9356838,4.9356838 0 0 0 1.7181,3.12386 c 1.04127,0.66641 2.48865,0.51022 3.71738,0.72891 0,0.19789 -0.10416,0.39568 -0.14585,0.60393 a 24.24108,24.24108 0 0 0 16.83755,28.29168 c 0,0.21866 0,0.43733 0,0.64559 a 14.577969,14.577969 0 0 1 -0.11444,1.82224 v 0 c 0,0 -10.67317,-2.19711 -13.53669,-0.70806 -2.86354,1.48903 -8.49688,2.64484 -9.37155,3.49869 -0.87467,0.85385 -2.97807,0.20826 -4.89403,5.20642 -1.91597,4.99817 -2.08256,10.06923 -4.56082,12.40169 -2.47826,2.33247 -3.71739,3.91523 -3.82152,5.61252 -0.10414,1.6973 0.31239,2.08256 -0.64559,2.64486 -0.95799,0.56227 -2.33247,2.75941 -1.90555,3.60284 a 3.0301349,3.0301349 0 0 1 -1.16625,3.18633 3.5091252,3.5091252 0 0 0 -1.48903,3.12386 c 0,0 -0.63519,2.33247 -2.08257,2.86352 -1.44739,0.53106 -2.44702,4.01936 -2.44702,4.01936 l -4.81073,5.53962 -9.54856,-10.55861 a 4.0401797,4.0401797 0 0 0 -5.6854,-0.29155 l -4.68578,4.16512 a 9.2882485,9.2882485 0 0 0 -4.68577,2.79066 12.287145,12.287145 0 0 0 -2.43659,3.61324 l -2.56156,2.31164 a 6.5184345,6.5184345 0 0 0 -0.65603,7.20568 l 6.11234,6.75793 v 0.0624 a 10.79811,10.79811 0 0 0 -5.78954,2.50951 c -9.13206,8.04912 -9.24659,15.47345 -7.86167,18.85763 1.38489,3.38417 12.95354,16.43145 12.95354,16.43145 0,0 6.7267,8.73638 16.43147,13.39091 v 0 l -0.073,0.073 c -0.18737,0.20823 -0.38529,0.4269 -0.57271,0.66639 l -0.15618,0.1979 a 2.5303188,2.5303188 0 0 1 -0.14585,0.20828 l -0.1665,0.24991 -0.13532,0.20825 -0.18737,0.31239 -0.11444,0.1979 -0.21868,0.41652 c 0,0 -0.052,0.0833 -0.073,0.13532 -0.0208,0.052 -0.17704,0.37486 -0.26031,0.5727 a 1.8743102,1.8743102 0 0 0 -0.0833,0.21866 c -0.0624,0.13532 -0.11444,0.28115 -0.1665,0.4165 l -0.0938,0.28116 c 0,0.13531 -0.0938,0.27072 -0.13531,0.4061 l -0.0938,0.30198 -0.12498,0.46858 c 0,0.0938 -0.0521,0.18735 -0.0832,0.28113 -0.0312,0.0938 -0.11444,0.49983 -0.1665,0.76015 a 2.6032085,2.6032085 0 0 1 -0.052,0.30198 l -0.0938,0.55185 c 0,0.12499 0,0.24993 -0.052,0.38529 l -0.0624,0.52065 c 0,0.1353 0,0.27075 0,0.40608 0,0.13533 0,0.39571 0,0.60395 v 0.37487 c 0,0.33322 0,0.66643 0,1.04128 -0.21865,12.40168 0.51023,14.2031 0.51023,14.2031 a 6.8724708,6.8724708 0 0 0 5.63334,4.22763 7.3618741,7.3618741 0 0 0 1.82227,-0.0938 c 5.51878,-0.95798 18.47236,-3.18634 23.04358,-2.33248 2.749,0.51023 7.83047,-0.24991 11.45411,-0.92674 l 0.95798,-0.18737 0.66642,2.08256 2.08258,-0.57271 1.791,1.04128 c 0.4686,0.28116 0.85387,0.49983 1.12459,0.64562 2.08257,7.11197 10.60027,4.68576 10.60027,4.68576 l 2.0201,1.16624 20.49246,0.53107 a 41.578449,41.578449 0 0 0 7.28899,3.47787 6.7058656,6.7058656 0 0 0 1.04128,0.2291 47.97193,47.97193 0 0 0 5.71665,0.10414 c 1.57233,0 2.7802,-0.10414 2.7802,-0.10414 0,0 -0.20824,-5.57089 -0.49981,-11.79776 a 166.99062,166.99062 0 0 0 18.98261,-1.5515 c 10.9439,-1.92638 15.5151,-11.88105 17.1916,-17.20201 a 49.502616,49.502616 0 0 1 1.0413,6.60172 49.179819,49.179819 0 0 0 1.6972,5.72708 19.336635,19.336635 0 0 0 2.3429,4.23802 c 8.07,-2.75939 3.1863,-6.89329 1.4891,-8.69473 -1.6973,-1.80142 1.1662,-3.28003 1.1662,-3.28003 0,0 2.2283,-1.48903 2.0201,-2.86353 -0.2082,-1.3745 -0.3227,-2.86353 6.9038,-2.74899 7.2264,0.11445 6.7266,-5.93532 6.7266,-5.93532 z M 928.90999,650.48032 c 0.0938,0.61435 1.10378,7.13279 2.00967,8.85092 a 11.308338,11.308338 0 0 1 0.23949,3.4987 c -4.27966,-0.34363 -8.73636,-0.53107 -8.73636,-0.53107 a 1.0412835,1.0412835 0 0 1 0.22908,0.5519 l -0.66642,-0.15618 -0.97881,-0.23949 7.8825,-11.98516 z m -15.61925,24.85542 7.41392,1.16626 0.61438,0.10414 a 26.240343,26.240343 0 0 0 -0.38528,3.49872 c 0,0.10414 0.17704,0.23949 0.4061,0.39569 a 9.3715513,9.3715513 0 0 0 -0.13532,1.74936 c 0.11445,0.58312 3.58202,1.85349 7.5493,2.90517 -0.052,0.2187 -0.10416,0.41653 -0.16652,0.60396 v 0 c -3.50911,-1.84308 -9.02792,-2.70734 -9.66311,-4.07143 -0.63518,-1.36408 -19.44076,-7.91374 -19.44076,-7.91374 0,0 -0.68726,-0.36444 -1.87431,-0.93716 l 4.95651,0.93716 1.35366,-0.13532 a 73.545852,73.545852 0 0 0 9.37155,1.71814 z"
     fill="url(#b2e9a30e-d699-40a8-8c6a-b63a5f54a941)"
     id="path149"
     style="fill:url(#b2e9a30e-d699-40a8-8c6a-b63a5f54a941);stroke-width:1.04128" />
  <path
     d="m 1016.888,722.76623 c 0,0 -2.9468,17.79552 -17.89958,20.41955 -14.95288,2.62405 -64.84078,2.08258 -64.84078,2.08258 0,0 -28.52075,-4.16515 -38.83987,-28.21879 -10.31912,-24.05365 -16.94168,-33.6751 -8.10117,-34.10204 8.84048,-0.42692 56.52084,16.10866 59.25943,16.31692 2.73856,0.20826 73.05637,-36.60112 70.42197,23.50178 z"
     fill="#65617d"
     id="path151"
     style="stroke-width:1.04128" />
  <path
     d="m 1016.888,722.76623 c 0,0 -2.9468,17.79552 -17.89958,20.41955 -14.95288,2.62405 -64.84078,2.08258 -64.84078,2.08258 0,0 -28.52075,-4.16515 -38.83987,-28.21879 -10.31912,-24.05365 -16.94168,-33.6751 -8.10117,-34.10204 8.84048,-0.42692 56.52084,16.10866 59.25943,16.31692 2.73856,0.20826 73.05637,-36.60112 70.42197,23.50178 z"
     opacity="0.05"
     id="path153"
     style="stroke-width:1.04128" />
  <path
     d="m 883.08309,742.561 a 6.8204067,6.8204067 0 0 0 5.58129,4.16515 7.1952688,7.1952688 0 0 0 1.80142,-0.0938 c 5.47714,-0.94755 18.31618,-3.12383 22.84577,-2.31165 2.71773,0.49983 7.75754,-0.24989 11.33958,-0.92673 2.38451,-0.44775 4.16511,-0.86426 4.16511,-0.86426 0,0 -4.21719,-14.00524 -4.73784,-14.42179 -0.52064,-0.41651 -18.95135,-11.45411 -18.95135,-11.45411 l -14.57797,-1.0413 v 0 a 7.7263233,7.7263233 0 0 0 -4.94611,2.9052 c -1.54108,1.86391 -2.86352,4.92528 -2.9468,9.93385 -0.29158,12.31839 0.4269,14.10939 0.4269,14.10939 z"
     fill="#3f3d56"
     id="path155"
     style="stroke-width:1.04128" />
  <path
     d="m 883.08309,742.561 a 6.8204067,6.8204067 0 0 0 5.58129,4.16515 58.717974,58.717974 0 0 1 -3.95687,-5.77913 l 0.073,-10.20457 a 17.993378,17.993378 0 0 1 5.72706,-15.16111 v 0 c 0,0 -7.68467,0.52065 -7.89293,12.83905 -0.20825,12.31838 0.46857,14.14061 0.46857,14.14061 z"
     opacity="0.05"
     id="path157"
     style="stroke-width:1.04128" />
  <path
     d="m 946.36189,720.24631 13.53668,-10.6315 21.36714,-21.05476 c 0,0 -2.30123,-0.11444 -5.78952,-0.26031 -0.86428,0.55186 -3.29047,2.29082 -3.38416,4.39421 -0.10415,2.57196 -5.76874,0.17704 -8.71556,1.65564 -2.94683,1.47861 -17.36862,19.93017 -19.89892,19.78438 -2.53032,-0.14585 -4.52959,-1.28078 -5.58128,0.51024 l -0.073,0.11445 z"
     opacity="0.1"
     id="path159"
     style="stroke-width:1.04128" />
  <path
     d="m 885.5197,718.54902 1.47861,0.67683 c 10.30872,4.41504 23.04362,13.68246 23.94955,15.36934 0.58311,1.0413 7.96579,5.49799 13.66162,8.86134 2.38454,-0.44777 4.16514,-0.86427 4.16514,-0.86427 0,0 -4.2172,-14.00528 -4.73785,-14.42178 -0.52063,-0.41652 -18.95135,-11.45411 -18.95135,-11.45411 l -14.57797,-1.0413 v 0 a 7.7263233,7.7263233 0 0 0 -4.98775,2.87395 z"
     opacity="0.1"
     id="path161"
     style="stroke-width:1.04128" />
  <path
     d="m 856.88441,688.3518 c 1.37449,3.36334 12.84944,16.31691 12.84944,16.31691 0,0 7.28898,9.46526 17.57687,13.89073 10.28788,4.42544 23.05399,13.68247 24.00158,15.36934 0.60393,1.04127 8.83008,6.02902 14.57798,9.43402 l 1.30158,0.76013 2.87396,1.66609 1.52026,0.87466 7.02868,-5.675 c 3.46746,-2.81147 6.91412,-5.64376 6.96619,-5.79995 0.10414,-0.3124 1.47861,-3.89441 1.15581,-4.10267 -0.15619,-0.11445 -0.8851,-1.56193 -2.21793,-3.25921 a 14.775812,14.775812 0 0 0 -5.36262,-4.42545 15.275629,15.275629 0 0 1 -6.94536,-7.28899 c 0,0 -0.45817,-0.33322 -1.15581,-0.77054 a 13.942786,13.942786 0 0 0 -4.73785,-2.08257 c -2.31165,-0.29154 -6.62255,-5.0294 -6.62255,-5.0294 a 12.963979,12.963979 0 0 1 -4.11308,-4.31091 c -1.10377,-2.31165 -17.43107,-13.5367 -18.94095,-14.57797 l 39.56877,25.41774 9.46527,6.08108 13.53668,-10.6315 21.37755,-21.04434 c 0,0 -2.87394,-0.14584 -7.05989,-0.32282 -10.41285,-0.44772 -28.82273,-1.15579 -31.15521,-0.62473 a 17.899662,17.899662 0 0 1 -5.78954,0.37484 c 0,0 -5.20641,0.23949 -8.73637,-1.60358 -3.52994,-1.84306 -8.94463,-2.6865 -9.57979,-4.05058 -0.6352,-1.36409 -19.26376,-7.88252 -19.26376,-7.88252 0,0 -25.36567,-13.47423 -34.42483,-5.47715 -9.05915,7.99706 -9.05915,15.40058 -7.69508,18.77434 z"
     fill="#65617d"
     id="path163"
     style="stroke-width:1.04128" />
  <path
     d="m 938.69805,611.08856 3.25923,10.83978 4.16511,24.41808 15.47349,1.0413 4.4775,-7.42437 4.46712,-7.41394 c 0,0 2.79065,-9.87137 4.78991,-19.40951 1.77019,-8.45523 2.92599,-16.66054 1.04128,-17.53524 -1.70772,-0.79134 -2.83229,-3.63407 -3.5612,-6.69543 -0.0938,-0.37486 -0.17704,-0.76014 -0.24989,-1.14543 a 59.072011,59.072011 0 0 1 -1.04129,-7.85126 c 0,0 -32.42557,-1.67646 -27.89598,11.69362 a 21.148466,21.148466 0 0 1 1.21829,7.10154 16.806315,16.806315 0 0 1 -0.10414,1.81184 15.161087,15.161087 0 0 1 -6.03944,10.56902 z"
     fill="#ee8e9e"
     id="path165"
     style="stroke-width:1.04128" />
  <path
     d="m 931.94012,609.29755 1.15583,18.4203 2.63444,15.68172 2.94683,7.28901 2.63445,39.74578 c 0,0 25.37608,2.93644 31.55088,-0.0521 a 2.7489884,2.7489884 0 0 0 1.11419,-0.87466 c 7.41394,-11.28751 5.01898,-43.84845 5.01898,-43.84845 l 2.84269,-21.04434 -1.89512,-10.93346 -4.58165,-0.479 -3.52995,-0.38529 c 0,0 -0.79138,0.97881 -1.9368,2.49909 -3.12382,4.16512 -8.86131,12.22465 -8.47604,15.61923 0.52065,4.63372 -0.63517,9.37157 -2.42618,10.11086 -1.791,0.73932 -3.25922,1.99926 -3.58202,0.72891 a 5.737472,5.737472 0 0 1 -0.31239,-3.36335 c 0.31239,-1.791 -1.36406,-7.28899 -1.36406,-7.28899 0,0 -2.84273,-6.41431 -2.63446,-9.15286 0.20825,-2.73858 -0.3124,-5.89367 -1.15584,-6.63298 -0.84343,-0.73931 -1.99926,-1.47863 -1.04125,-4.84198 0.95796,-3.36335 -4.16516,-9.92343 -4.16516,-9.92343 z"
     fill="#e3e8f4"
     id="path167"
     style="stroke-width:1.04128" />
  <path
     d="m 965.46944,655.30145 1.04128,31.47801 6.0811,3.36334 a 2.6448601,2.6448601 0 0 0 1.11418,-0.86426 c 7.45559,-11.26669 5.00858,-43.86926 5.00858,-43.86926 l 2.84269,-21.05476 -1.89513,-10.92307 -4.57122,-0.48942 c 1.77017,-8.4448 2.92599,-16.66052 1.04126,-17.53521 -1.7077,-0.79135 -2.83229,-3.63404 -3.56118,-6.68503 v 0 l -3.28003,22.26263 c 0,0 0.27073,2.00969 0.36443,4.08184 a 11.454119,11.454119 0 0 1 -0.26031,3.91522 c -0.73931,1.89514 -0.20826,5.2689 -0.20826,5.2689 -1.90553,3.34252 -2.85312,9.53816 -3.31126,15.51512 -0.64562,7.97626 -0.40613,15.53595 -0.40613,15.53595 z"
     opacity="0.1"
     id="path169"
     style="stroke-width:1.04128" />
  <path
     d="m 972.63349,588.21158 c 0,0 5.31055,0.66639 6.98699,2.87393 1.67646,2.20752 6.11234,2.5303 6.11234,2.5303 0,0 5.05025,1.67649 4.9461,2.08259 -0.10415,0.4061 1.46821,1.04127 4.63372,1.89512 3.16554,0.85387 8.41356,3.89441 8.41356,4.6337 0,0.73933 8.3302,8.94465 8.3302,9.78809 0,0.84343 2.5304,3.99852 2.2075,9.5798 -0.3227,5.58129 -0.6246,12.63077 0.6353,13.7866 1.26,1.15582 0,5.6854 0,5.6854 a 3.1238504,3.1238504 0 0 0 -0.1042,3.36334 c 1.0413,1.89515 -0.2082,9.78808 -0.2082,9.78808 l 0.1041,8.21572 c 0,0 -1.1558,5.20642 0.2083,5.36261 1.364,0.15618 -0.2083,2.53031 -0.2083,2.53031 0,0 -1.1558,4.16515 0.3124,6.10193 1.4683,1.9368 1.8952,10.00675 1.8952,10.00675 l 22.5229,32.73793 c 0,0 0.3228,5.9978 -6.8412,5.89366 -7.164,-0.10414 -7.0495,1.36408 -6.8413,2.73858 0.2083,1.3745 -1.9993,2.83231 -1.9993,2.83231 0,0 -2.8426,1.47861 -1.1557,3.26962 1.6868,1.79101 6.5288,5.89366 -1.4787,8.63224 a 19.347048,19.347048 0 0 1 -2.3116,-4.16514 47.472114,47.472114 0 0 1 -1.6869,-5.675 c 0,0 -0.7393,-8.00747 -2.2075,-9.05916 -1.4683,-1.05169 -1.2287,-6.13316 -1.2287,-6.13316 0,0 2.0825,-4.10265 -0.8435,-5.78954 -2.926,-1.68686 -45.6915,-25.36566 -45.6915,-25.36566 l -1.04128,-31.47799 c 0,0 -0.72889,-23.26228 3.68614,-31.05109 0,0 -0.52063,-3.37374 0.20826,-5.26888 0.7289,-1.89515 -0.10415,-7.99707 -0.10415,-7.99707 z"
     fill="#3f3d56"
     id="path171"
     style="stroke-width:1.04128" />
  <path
     d="m 945.04988,600.88398 c 0,0 -10.57944,-2.17628 -13.42213,-0.70805 -2.84272,1.46819 -8.424,2.63444 -9.26743,3.47787 -0.84344,0.84343 -2.94684,0.20826 -4.84196,5.20641 -1.89516,4.99816 -2.08259,10.00675 -4.5296,12.31838 -2.44703,2.31168 -3.67571,3.8944 -3.77985,5.58129 -0.10415,1.68688 0.31239,2.08258 -0.6352,2.63444 -0.94756,0.55189 -2.32206,2.72817 -1.89513,3.57161 0.42692,0.84343 21.86696,19.36786 21.86696,19.36786 0,0 1.04129,7.05992 1.99927,8.84051 0.95798,1.7806 -1.04128,26.42777 -3.12386,28.11466 -2.08256,1.68687 14.21352,1.52025 14.21352,1.52025 0,0 0.73931,-16.16068 1.3745,-16.99372 0.63517,-0.83303 -0.42694,-18.10793 -0.42694,-18.10793 0,0 -0.10414,-14.73415 1.25996,-18.63897 1.36408,-3.90482 1.21831,-16.83756 1.21831,-16.83756 0,0 1.20789,-7.76798 2.67608,-9.57982 1.46821,-1.81181 -2.6865,-9.76723 -2.6865,-9.76723 z"
     opacity="0.1"
     id="path173"
     style="stroke-width:1.04128" />
  <path
     d="m 944.73749,600.52994 c 0,0 -10.58985,-2.18669 -13.43254,-0.70805 -2.8427,1.47861 -8.41357,2.63444 -9.25703,3.47786 -0.84343,0.84344 -2.94683,0.20827 -4.84196,5.15436 -1.89515,4.94611 -2.08257,9.99633 -4.52959,12.31837 -2.44702,2.32207 -3.68614,3.89441 -3.79027,5.57089 -0.10414,1.67646 0.32281,2.08255 -0.62474,2.63445 -0.9476,0.55188 -2.32208,2.73857 -1.89516,3.58201 0.42691,0.84343 21.91902,19.34704 21.91902,19.34704 0,0 1.04128,7.0495 1.99927,8.84051 0.95798,1.791 -1.04131,26.41735 -3.12386,28.11464 -2.08256,1.69729 14.15104,1.57234 14.15104,1.57234 0,0 0.73932,-16.16072 1.36409,-17.00416 0.62476,-0.84344 -0.41654,-18.10792 -0.41654,-18.10792 0,0 -0.10414,-14.73415 1.25998,-18.62855 1.36407,-3.89441 1.21829,-16.83755 1.21829,-16.83755 0,0 1.20789,-7.76797 2.67608,-9.57982 1.46824,-1.81183 -2.67608,-9.74642 -2.67608,-9.74642 z"
     fill="#3f3d56"
     id="path175"
     style="stroke-width:1.04128" />
  <path
     d="m 943.62333,591.61657 a 21.148466,21.148466 0 0 1 1.21829,7.10155 24.136953,24.136953 0 0 0 27.70856,-10.9439 59.072011,59.072011 0 0 1 -1.0413,-7.85126 c 0,0 -32.41514,-1.67646 -27.88555,11.69361 z"
     opacity="0.1"
     id="path177"
     style="stroke-width:1.04128" />
  <path
     d="m 927.62919,574.97685 a 24.074473,24.074473 0 1 0 0.52066,-5.00859 24.095301,24.095301 0 0 0 -0.52066,5.00859 z"
     fill="#ee8e9e"
     id="path179"
     style="stroke-width:1.04128" />
  <path
     d="m 912.15574,630.76882 -5.73748,1.79101 a 2.9988963,2.9988963 0 0 1 -1.16624,3.12386 3.529951,3.529951 0 0 0 -1.4682,3.12383 c 0,0 -0.63518,2.32208 -2.08258,2.8427 -1.44738,0.52065 -2.42618,4.00896 -2.42618,4.00896 l -4.84196,5.57084 c 0,0 -1.79101,1.47864 -1.46821,2.21795 0.32279,0.73933 -1.89514,0.94759 -1.89514,0.94759 l 1.15583,18.74309 9.99631,1.89512 6.2477,-0.63517 5.05021,-1.89513 4.41507,-2.62405 2.00967,-5.20639 8.84049,-13.47423 z"
     fill="#3f3d56"
     id="path181"
     style="stroke-width:1.04128" />
  <path
     d="m 892.46507,655.92623 c 0,0 -12.83904,-18.52442 -22.41884,-8.5281 -9.57981,9.99633 3.89441,26.20909 7.0495,25.68847 3.15509,-0.52065 18.21204,-1.39535 18.21204,-1.39535 z"
     fill="#ee8e9e"
     id="path183"
     style="stroke-width:1.04128" />
  <rect
     x="1050.9335"
     y="157.64842"
     width="67.214851"
     height="52.189125"
     rx="1.6035765"
     transform="rotate(27.04)"
     fill="#3f3d56"
     id="rect185"
     style="stroke-width:1.04128" />
  <rect
     x="1056.342"
     y="162.3586"
     width="56.500042"
     height="42.578075"
     transform="rotate(27.04)"
     fill="#dc5c01"
     id="rect187"
     style="stroke-width:1.04128" />
  <circle
     cx="855.49945"
     cy="642.76434"
     r="0.92674226"
     fill="#e6e8ec"
     id="circle189"
     style="stroke-width:1.04128" />
  <circle
     cx="909.96906"
     cy="670.67078"
     r="1.5306869"
     fill="#e6e8ec"
     id="circle191"
     style="stroke-width:1.04128" />
  <path
     d="m 884.15562,659.82061 c -0.10415,13.90114 28.62489,16.83757 28.62489,16.83757 l 7.28899,1.16625 3.29045,0.52062 1.3745,-13.53669 c 0,0 -1.50986,-0.21865 -3.39459,-0.65599 -2.78025,-0.65602 -6.38307,-1.77018 -7.13279,-3.34252 -1.21831,-2.65528 -29.94731,-14.87995 -30.05145,-0.98924 z"
     fill="#ee8e9e"
     id="path193"
     style="stroke-width:1.04128" />
  <path
     d="m 928.14985,569.96826 a 2.8114654,2.8114654 0 0 1 1.75977,0.7914 c 0.82261,0.86425 0.86426,2.38453 1.91596,2.91558 a 2.0825669,2.0825669 0 0 0 1.25996,0.14584 c 2.80105,-0.39568 4.41504,-3.55077 7.10156,-4.42545 a 7.2889844,7.2889844 0 0 1 4.717,0.40613 3.4882996,3.4882996 0 0 1 1.55151,1.04125 c 0.90591,1.16625 0.27073,2.88437 0.68727,4.2901 0.58309,1.95762 2.91557,2.72817 4.93566,2.98848 2.02008,0.26032 4.3005,0.39569 5.64376,1.91596 a 5.1439404,5.1439404 0 0 1 1.0413,4.08184 3.1759146,3.1759146 0 0 0 0,1.49943 c 0.56227,1.58276 3.29044,1.34326 4.00891,0.10414 0.52066,-0.90591 0.35404,-1.66605 1.58275,-1.91596 a 5.2688944,5.2688944 0 0 1 2.5824,0.44776 18.826405,18.826405 0 0 0 6.66421,1.04127 24.105712,24.105712 0 1 0 -45.39996,-15.26521 z"
     opacity="0.1"
     id="path195"
     style="stroke-width:1.04128" />
  <path
     d="m 958.71153,584.95234 a 3.2175659,3.2175659 0 0 1 0,-1.50986 5.1335277,5.1335277 0 0 0 -1.04129,-4.07141 c -1.34327,-1.5307 -3.62367,-1.67646 -5.64376,-1.92638 -2.02009,-0.24991 -4.35256,-1.04128 -4.93569,-2.98848 -0.4165,-1.40571 0.21867,-3.12384 -0.68724,-4.27967 a 3.3216943,3.3216943 0 0 0 -1.55151,-1.04129 7.1119661,7.1119661 0 0 0 -4.71702,-0.40611 c -2.68653,0.86427 -4.30051,4.02979 -7.10154,4.42547 a 2.2595851,2.2595851 0 0 1 -1.25997,-0.14585 c -1.04128,-0.53105 -1.10377,-2.08256 -1.91595,-2.926 -1.27036,-1.35369 -3.69656,-0.47899 -5.26891,-1.47862 a 4.8732066,4.8732066 0 0 1 -1.69727,-3.12385 15.275629,15.275629 0 0 1 -0.46859,-6.9766 c 0.91634,-3.91524 4.41506,-6.60174 6.65378,-9.94427 2.08258,-3.12386 3.24883,-7.05991 6.38307,-9.12165 3.13429,-2.06172 7.14321,-1.59316 10.67317,-0.55185 a 31.238504,31.238504 0 0 0 4.99815,1.312 c 2.85313,0.35404 5.70625,-0.42692 8.56977,-0.52066 a 18.430717,18.430717 0 0 1 11.31876,3.43625 6.3205908,6.3205908 0 0 1 1.84306,1.87431 9.5589823,9.5589823 0 0 1 0.82264,3.34253 17.1187,17.1187 0 0 0 2.21792,6.1644 c 0.88508,1.47863 1.99925,2.82186 2.80106,4.35256 a 6.737104,6.737104 0 0 1 0.74973,4.98775 c -0.27074,0.86426 -0.80181,1.64523 -1.0413,2.53032 -0.46856,2.08256 0.8851,4.01934 1.81183,5.91448 a 11.256275,11.256275 0 0 1 1.22871,5.61253 7.0703148,7.0703148 0 0 1 -2.53031,5.05022 9.0279277,9.0279277 0 0 1 -5.33138,1.61399 18.868058,18.868058 0 0 1 -6.79957,-1.0413 5.3730227,5.3730227 0 0 0 -2.57198,-0.44772 c -1.2287,0.26031 -1.04127,1.04125 -1.59316,1.91593 -0.62476,1.32244 -3.35293,1.54112 -3.91521,-0.0312 z"
     fill="#3f3d56"
     id="path197"
     style="stroke-width:1.04128" />
  <path
     d="m 945.7267,720.87107 13.53669,-10.63149 21.37756,-21.04436 c 0,0 -2.87395,-0.14583 -7.05989,-0.32279 a 4.6649501,4.6649501 0 0 0 -1.48903,2.87396 c -0.10415,2.57196 -5.76874,0.17703 -8.71556,1.65564 -2.94683,1.47861 -17.36862,19.93017 -19.89892,19.78438 -2.53032,-0.14584 -4.52959,-1.28077 -5.58128,0.51023 l -0.073,0.11446 a 3.0197222,3.0197222 0 0 1 -1.60357,0.95797 z"
     opacity="0.1"
     id="path199"
     style="stroke-width:1.04128" />
  <path
     d="m 918.36178,720.14219 6.79959,21.77322 1.04127,3.42583 3.24881,-0.89552 7.16405,-1.968 31.90492,-8.7572 a 27.729379,27.729379 0 0 0 11.45411,-3.12385 34.799694,34.799694 0 0 1 19.78438,-4.32134 c 4.16519,0.39569 8.90299,-1.42655 12.79739,-8.61141 0,0 8.8404,-26.10497 -13.47418,-33.58138 -22.31475,-7.47642 -23.38726,3.97771 -23.38726,3.97771 l -0.30199,0.18737 c -0.86427,0.55186 -3.29044,2.29081 -3.38416,4.39421 -0.10415,2.57196 -5.76872,0.17704 -8.71554,1.65565 -2.94683,1.47861 -17.36862,19.93016 -19.89892,19.78436 -2.53032,-0.14584 -4.52961,-1.28076 -5.5813,0.51025 l -0.073,0.11444 c -0.78094,1.04129 -3.12384,1.32244 -4.67535,1.37449 -0.84346,0 -1.4578,0 -1.4578,0 l -0.1979,0.0624 -1.6244,0.479 z"
     fill="#65617d"
     id="path201"
     style="stroke-width:1.04128" />
  <path
     d="m 920.12156,677.82443 3.29047,0.52062 1.37447,-13.53669 c 0,0 -1.50985,-0.21865 -3.39458,-0.65599 0.4998,1.85349 -0.62477,9.1737 -1.27036,13.67206 z"
     opacity="0.1"
     id="path203"
     style="stroke-width:1.04128" />
  <path
     d="m 1006.2044,614.42066 c 0,0 9.7881,-2.84269 7.3619,24.9908 -2.4261,27.83353 -20.52367,45.36873 -20.52367,45.36873 0,0 -20.82567,9.15288 -30.19722,7.68469 -9.37155,-1.46823 -16.21278,-1.79101 -16.21278,-1.79101 a 23.762089,23.762089 0 0 0 -9.47569,-2.53033 c -5.20641,-0.20826 -16.31691,-3.46747 -16.52517,-4.52958 -0.20825,-1.06212 2.73859,-16.52518 1.46822,-17.70181 0,0 14.74458,0.60393 16.21279,1.67646 1.4682,1.07251 3.58201,0.30198 5.20642,0 1.62439,-0.30198 6.41429,-4.51918 15.9941,-0.83304 0,0 3.26964,0.31239 4.52959,-0.52063 a 4.5295832,4.5295832 0 0 1 3.29047,-0.21868 9.1737073,9.1737073 0 0 0 2.29081,-1.15583 c 0.3124,-0.4165 2.84271,0 2.84271,0 a 1.1141733,1.1141733 0 0 0 1.57235,-0.7393 6.9557736,6.9557736 0 0 1 1.47861,-2.31165 c 0,0 2.8427,-16.00452 8.20531,-22.00232 a 3.4049969,3.4049969 0 0 0 1.1558,-3.05096 c -0.46855,-1.74936 8.68431,-25.75093 21.32545,-22.33554 z"
     opacity="0.1"
     id="path205"
     style="stroke-width:1.04128" />
  <path
     d="m 1005.9442,612.24439 c 0,0 9.7881,-2.84269 7.3619,24.99081 -2.4263,27.83349 -20.52377,45.36871 -20.52377,45.36871 0,0 -20.82568,9.15287 -30.19726,7.68466 -9.37153,-1.4682 -16.21277,-1.79101 -16.21277,-1.79101 a 23.699611,23.699611 0 0 0 -9.47567,-2.53031 c -5.20642,-0.20825 -16.31691,-3.46746 -16.52516,-4.52956 -0.20827,-1.06212 2.73857,-16.52519 1.47863,-17.70184 0,0 14.73414,0.60396 16.20236,1.67648 1.4682,1.07251 3.58201,0.30195 5.20642,0 1.62439,-0.30199 6.41431,-4.51919 15.9941,-0.83303 0,0 3.26965,0.31238 4.52959,-0.53106 a 4.5608216,4.5608216 0 0 1 3.29044,-0.20825 9.1737073,9.1737073 0 0 0 2.29082,-1.15583 c 0.3124,-0.41652 2.84272,0 2.84272,0 a 1.1141733,1.1141733 0 0 0 1.57234,-0.73933 6.9557736,6.9557736 0 0 1 1.47861,-2.31165 c 0,0 2.84271,-16.00449 8.20534,-22.00231 a 3.4258227,3.4258227 0 0 0 1.16622,-3.05095 c -0.47898,-1.70772 8.68431,-25.70929 21.31514,-22.33553 z"
     fill="#3f3d56"
     id="path207"
     style="stroke-width:1.04128" />
  <path
     d="m 929.90962,716.67471 13.91156,16.82715 0.0832,-0.0938 c 0.10414,-0.32281 1.46821,-3.90483 1.15583,-4.11307 -0.3124,-0.20826 -2.73859,-5.47716 -7.58055,-7.68468 a 14.286409,14.286409 0 0 1 -5.94573,-5.41468 z"
     opacity="0.1"
     id="path209"
     style="stroke-width:1.04128" />
  <path
     d="m 930.10746,745.78902 1.52029,0.87466 7.02866,-5.675 c 3.46746,-2.81147 6.91412,-5.64376 6.96616,-5.79995 0.10415,-0.3124 1.47864,-3.89441 1.15585,-4.10267 -0.15617,-0.11445 -0.8851,-1.56193 -2.21795,-3.25921 -9.37154,-2.63444 -3.41541,3.90483 -2.62403,4.16513 0,0 -11.45414,-2.63444 -12.09971,9.86097 a 14.827877,14.827877 0 0 0 0.27073,3.93607 z"
     opacity="0.1"
     id="path211"
     style="stroke-width:1.04128" />
  <path
     d="m 941.72818,751.08912 1.99926,1.15583 20.31545,0.52066 a 41.161936,41.161936 0 0 0 7.19527,3.46745 6.2477008,6.2477008 0 0 0 1.04129,0.21868 45.025098,45.025098 0 0 0 5.66459,0.10414 c 1.55148,0 2.75939,-0.10414 2.75939,-0.10414 0,0 -0.96839,-25.61558 -1.68688,-28.31249 -0.35402,-1.29121 -2.08257,-1.04128 -3.72779,-0.36445 a 24.855435,24.855435 0 0 0 -3.6445,1.84306 c 0,0 -8.63224,0.83304 -9.99632,1.58274 -1.36409,0.74974 -5.2689,-0.42691 -7.68467,0 -2.41579,0.42694 -6.7371,-2.85311 -6.7371,-2.85311 -11.78735,-3.8944 -5.20641,3.37377 -4.32133,3.68613 0,0 -11.45412,-2.63443 -12.09973,9.86098 -0.64559,12.49541 10.92307,9.19452 10.92307,9.19452 z"
     fill="#3f3d56"
     id="path213"
     style="stroke-width:1.04128" />
  <path
     d="m 971.09237,741.18651 c 0.22907,5.31056 4.363,11.89148 6.83081,15.36935 1.55152,0 2.75943,-0.10415 2.75943,-0.10415 0,0 -0.9684,-25.61558 -1.68689,-28.31248 -0.35404,-1.29121 -2.08256,-1.04128 -3.7278,-0.36445 -2.04092,3.8215 -4.29008,9.14246 -4.17555,13.41171 z"
     fill="#565387"
     id="path215"
     style="stroke-width:1.04128" />
  <path
     d="m 971.09237,741.18651 c 0.22907,5.31056 4.363,11.89148 6.83081,15.36935 1.55152,0 2.75943,-0.10415 2.75943,-0.10415 0,0 -0.9684,-25.61558 -1.68689,-28.31248 -0.35404,-1.29121 -2.08256,-1.04128 -3.7278,-0.36445 -2.04092,3.8215 -4.29008,9.14246 -4.17555,13.41171 z"
     opacity="0.1"
     id="path217"
     style="stroke-width:1.04128" />
  <path
     d="m 967.6249,741.8946 c 1.39533,5.12312 1.38491,10.8606 3.61326,14.33846 a 6.2477008,6.2477008 0 0 0 1.04129,0.21868 45.025098,45.025098 0 0 0 5.66459,0.10414 c 1.55148,0 2.75939,-0.10414 2.75939,-0.10414 0,0 -0.96839,-25.61558 -1.68688,-28.31249 -0.35402,-1.29121 -2.08257,-1.04128 -3.72779,-0.36445 a 24.855435,24.855435 0 0 0 -3.6445,1.84306 c 0,0 -5.81037,5.71665 -4.01936,12.27674 z"
     opacity="0.05"
     id="path219"
     style="stroke-width:1.04128" />
  <path
     d="m 897.53611,689.95537 c 0,0 10.09004,3.28005 18.63899,14.9216 z"
     opacity="0.1"
     id="path221"
     style="stroke-width:1.04128" />
  <g
     opacity="0.1"
     id="g227"
     transform="matrix(1.0412835,0,0,1.0412835,19.890335,-71.306144)">
    <path
       d="m 976.22,662.24 -0.06,0.22 a 6.71,6.71 0 0 1 -0.34,0.84 6.78,6.78 0 0 1 0.4,-1.06 z"
       transform="translate(-54.62,-52.46)"
       id="path223" />
    <path
       d="m 921.39,657.34 a 9.38,9.38 0 0 1 0.75,-2 c 0,0.17 -0.1,0.34 -0.14,0.52 a 14.45,14.45 0 0 0 0.45,6.71 4.64,4.64 0 0 0 1.63,3 c 1.5,1 3.83,0.13 5.06,1.43 0.78,0.82 0.82,2.29 1.84,2.8 a 2.08,2.08 0 0 0 1.21,0.14 c 2.68,-0.38 4.24,-3.42 6.82,-4.25 a 6.8,6.8 0 0 1 4.52,0.39 3.44,3.44 0 0 1 1.5,1 c 0.86,1.12 0.26,2.76 0.66,4.12 0.55,1.87 2.79,2.62 4.73,2.86 1.94,0.24 4.13,0.39 5.43,1.85 a 5,5 0 0 1 1,3.91 3,3 0 0 0 0,1.45 c 0.53,1.52 3.15,1.29 3.84,0.09 0.5,-0.87 0.35,-1.59 1.53,-1.83 a 4.91,4.91 0 0 1 2.47,0.43 18.37,18.37 0 0 0 6.53,1 8.78,8.78 0 0 0 5.13,-1.56 5.81,5.81 0 0 0 1.57,-1.91 6.43,6.43 0 0 1 -2.18,3.43 8.69,8.69 0 0 1 -5.12,1.55 18.12,18.12 0 0 1 -6.53,-1 5.18,5.18 0 0 0 -2.48,-0.43 c -1.18,0.25 -1,1 -1.53,1.84 -0.68,1.2 -3.3,1.42 -3.84,-0.09 a 3.23,3.23 0 0 1 0,-1.45 4.89,4.89 0 0 0 -1,-3.91 c -1.29,-1.47 -3.48,-1.61 -5.42,-1.85 -1.94,-0.24 -4.18,-1 -4.74,-2.87 -0.4,-1.35 0.21,-3 -0.66,-4.11 a 3.24,3.24 0 0 0 -1.49,-1 6.83,6.83 0 0 0 -4.53,-0.39 c -2.58,0.83 -4.14,3.87 -6.82,4.25 a 2.17,2.17 0 0 1 -1.21,-0.14 c -1,-0.51 -1.06,-2 -1.84,-2.81 -1.23,-1.3 -3.55,-0.46 -5.06,-1.42 a 4.64,4.64 0 0 1 -1.63,-3 14.53,14.53 0 0 1 -0.45,-6.75 z"
       transform="translate(-54.62,-52.46)"
       id="path225" />
  </g>
  <path
     d="m 981.172,642.79565 c -1.93677,2.6032 -4.16514,5.00856 -5.84159,7.76797 a 14.744574,14.744574 0 0 0 -2.56156,9.18411 c 1.77016,-1.81184 2.58238,-4.3109 3.69654,-6.58091 1.88473,-3.85273 4.6962,-7.11195 7.08075,-10.65232 0.44773,-0.67683 3.35293,-4.58165 1.88472,-4.75867 -1.21829,-0.15617 -3.60286,4.15474 -4.25886,5.03982 z"
     opacity="0.1"
     id="path229"
     style="stroke-width:1.04128" />
  <path
     d="m 318.37425,303.82664 h -86.14538 a 2.8739422,2.8739422 0 1 0 0,5.73746 h 86.14538 a 2.8739422,2.8739422 0 1 0 0,-5.73746 z m 0,9.84014 h -86.14538 a 2.8739422,2.8739422 0 0 0 0,5.74787 h 86.14538 a 2.8739422,2.8739422 0 0 0 0,-5.74787 z m -4.32133,-66.41307 h -77.49231 a 7.2160944,7.2160944 0 0 0 -7.2057,7.19525 v 36.44494 a 7.2160944,7.2160944 0 0 0 7.2057,7.19526 h 77.49231 a 7.2160944,7.2160944 0 0 0 7.19528,-7.19526 v -36.44494 a 7.2160944,7.2160944 0 0 0 -7.19528,-7.19525 z m -67.88127,44.30662 h -7.3827 a 2.8739541,2.8739541 0 0 1 0,-5.7479 h 7.3827 a 2.8739541,2.8739541 0 0 1 0,5.7479 z m 0,-31.99864 h -7.3827 a 2.87395,2.87395 0 0 1 0,-5.7479 h 7.3827 a 2.87395,2.87395 0 0 1 0,5.7479 z m 29.15594,29.53079 a 16.410627,16.410627 0 1 1 16.41061,-16.41063 16.431454,16.431454 0 0 1 -16.43144,16.41063 z m 36.51782,2.46785 h -7.3827 a 2.8739541,2.8739541 0 0 1 0,-5.7479 h 7.3827 a 2.8739541,2.8739541 0 0 1 0,5.7479 z m 0,-31.99864 h -7.3827 a 2.87395,2.87395 0 0 1 0,-5.7479 h 7.3827 a 2.87395,2.87395 0 0 1 0,5.7479 z"
     fill="#ffffff"
     id="path231"
     style="stroke-width:1.04128" />
  <circle
     cx="275.30685"
     cy="273.07755"
     r="10.870998"
     fill="#ffffff"
     id="circle233"
     style="stroke-width:1.04128" />
  <rect
     x="439.98584"
     y="174.7283"
     width="391.1998"
     height="217.19092"
     fill="#dc5c01"
     opacity="0.2"
     id="rect235"
     style="stroke-width:1.04128" />
  <rect
     x="439.98584"
     y="440.50549"
     width="391.1998"
     height="217.19092"
     fill="#dc5c01"
     opacity="0.2"
     id="rect237"
     style="stroke-width:1.04128" />
  <rect
     x="516.91577"
     y="325.96432"
     width="11.839394"
     height="39.672901"
     fill="#ffffff"
     id="rect239"
     style="stroke-width:1.04128" />
  <rect
     x="539.45966"
     y="276.84698"
     width="11.839394"
     height="88.790245"
     fill="#ffffff"
     id="rect241"
     style="stroke-width:1.04128" />
  <rect
     x="562.01379"
     y="232.59247"
     width="11.839394"
     height="133.0448"
     fill="#dfe3ef"
     id="rect243"
     style="stroke-width:1.04128" />
  <rect
     x="584.56793"
     y="201.02072"
     width="11.839394"
     height="164.61652"
     fill="#ffffff"
     id="rect245"
     style="stroke-width:1.04128" />
  <rect
     x="562.01379"
     y="201.02072"
     width="11.839394"
     height="164.61652"
     fill="#dc5c01"
     id="rect247"
     style="stroke-width:1.04128" />
  <rect
     x="607.11182"
     y="275.14972"
     width="11.839394"
     height="90.487534"
     fill="#dc5c01"
     id="rect249"
     style="stroke-width:1.04128" />
  <rect
     x="629.66595"
     y="251.76247"
     width="11.839394"
     height="113.87477"
     fill="#dc5c01"
     opacity="0.2"
     id="rect251"
     style="stroke-width:1.04128" />
  <rect
     x="652.20978"
     y="216.24432"
     width="11.839394"
     height="149.39294"
     fill="#dc5c01"
     id="rect253"
     style="stroke-width:1.04128" />
  <rect
     x="674.76398"
     y="299.10962"
     width="11.839394"
     height="66.527611"
     fill="#dc5c01"
     opacity="0.2"
     id="rect255"
     style="stroke-width:1.04128" />
  <rect
     x="697.31818"
     y="268.39172"
     width="11.839394"
     height="97.245461"
     fill="#dc5c01"
     id="rect257"
     style="stroke-width:1.04128" />
  <rect
     x="719.86194"
     y="232.59247"
     width="11.839394"
     height="133.0448"
     fill="#dc5c01"
     opacity="0.2"
     id="rect259"
     style="stroke-width:1.04128" />
  <rect
     x="742.41614"
     y="232.59247"
     width="11.839394"
     height="133.0448"
     fill="#dc5c01"
     id="rect261"
     style="stroke-width:1.04128" />
  <path
     d="m 321.21696,522.83979 a 6.5809115,6.5809115 0 0 0 -6.56009,-6.5601 h -78.73146 a 6.5913243,6.5913243 0 0 0 -6.5705,6.5601 v 9.85053 h 91.86205 z m -91.89329,52.51192 a 6.5913243,6.5913243 0 0 0 6.5705,6.57048 h 78.7627 a 6.5809115,6.5809115 0 0 0 6.56009,-6.57048 v -32.77958 h -91.86205 z m 29.15597,-9.84013 h 33.64383 a 2.8739422,2.8739422 0 1 1 0,5.73748 h -33.64383 a 2.8739422,2.8739422 0 0 1 0,-5.73748 z m -14.76541,0 h 2.45742 a 2.8739422,2.8739422 0 1 1 0,5.73748 h -2.45742 a 2.8739422,2.8739422 0 1 1 0,-5.73748 z"
     fill="#ffffff"
     id="path263"
     style="stroke-width:1.04128" />
  <rect
     x="516.91577"
     y="591.73102"
     width="11.839394"
     height="39.672901"
     fill="#ffffff"
     id="rect265"
     style="stroke-width:1.04128" />
  <rect
     x="539.45966"
     y="542.61377"
     width="11.839394"
     height="88.790245"
     fill="#ffffff"
     id="rect267"
     style="stroke-width:1.04128" />
  <rect
     x="562.01379"
     y="498.35916"
     width="11.839394"
     height="133.0448"
     fill="#dfe3ef"
     id="rect269"
     style="stroke-width:1.04128" />
  <rect
     x="584.56793"
     y="466.78748"
     width="11.839394"
     height="164.61652"
     fill="#ffffff"
     id="rect271"
     style="stroke-width:1.04128" />
  <rect
     x="562.01379"
     y="466.78748"
     width="11.839394"
     height="164.61652"
     fill="#dc5c01"
     id="rect273"
     style="stroke-width:1.04128" />
  <rect
     x="607.11182"
     y="540.91644"
     width="11.839394"
     height="90.487534"
     fill="#dc5c01"
     id="rect275"
     style="stroke-width:1.04128" />
  <rect
     x="629.66595"
     y="517.52924"
     width="11.839394"
     height="113.87477"
     fill="#ffffff"
     id="rect277"
     style="stroke-width:1.04128" />
  <rect
     x="652.20978"
     y="482.01102"
     width="11.839394"
     height="149.39294"
     fill="#ffffff"
     id="rect279"
     style="stroke-width:1.04128" />
  <rect
     x="674.76398"
     y="564.8764"
     width="11.839394"
     height="66.527611"
     fill="#dc5c01"
     opacity="0.2"
     id="rect281"
     style="stroke-width:1.04128" />
  <rect
     x="697.31818"
     y="534.15851"
     width="11.839394"
     height="97.245461"
     fill="#dc5c01"
     opacity="0.2"
     id="rect283"
     style="stroke-width:1.04128" />
  <rect
     x="719.86194"
     y="498.35916"
     width="11.839394"
     height="133.0448"
     fill="#dc5c01"
     opacity="0.2"
     id="rect285"
     style="stroke-width:1.04128" />
  <rect
     x="742.41614"
     y="498.35916"
     width="11.839394"
     height="133.0448"
     fill="#dc5c01"
     opacity="0.2"
     id="rect287"
     style="stroke-width:1.04128" />
</svg>
