<?xml version="1.0" encoding="UTF-8" standalone="no"?>
<svg
   xmlns:dc="http://purl.org/dc/elements/1.1/"
   xmlns:cc="http://creativecommons.org/ns#"
   xmlns:rdf="http://www.w3.org/1999/02/22-rdf-syntax-ns#"
   xmlns:svg="http://www.w3.org/2000/svg"
   xmlns="http://www.w3.org/2000/svg"
   xmlns:sodipodi="http://sodipodi.sourceforge.net/DTD/sodipodi-0.dtd"
   xmlns:inkscape="http://www.inkscape.org/namespaces/inkscape"
   id="b2764883-148f-45a6-9ca9-ea478379e86a"
   data-name="Layer 1"
   width="933.25124"
   height="528"
   viewBox="0 0 933.25124 528"
   version="1.1"
   sodipodi:docname="saas2.svg"
   inkscape:version="1.0.1 (3bc2e813f5, 2020-09-07)">
  <metadata
     id="metadata139">
    <rdf:RDF>
      <cc:Work
         rdf:about="">
        <dc:format>image/svg+xml</dc:format>
        <dc:type
           rdf:resource="http://purl.org/dc/dcmitype/StillImage" />
      </cc:Work>
    </rdf:RDF>
  </metadata>
  <defs
     id="defs137" />
  <sodipodi:namedview
     pagecolor="#ffffff"
     bordercolor="#666666"
     borderopacity="1"
     objecttolerance="10"
     gridtolerance="10"
     guidetolerance="10"
     inkscape:pageopacity="0"
     inkscape:pageshadow="2"
     inkscape:window-width="1920"
     inkscape:window-height="1009"
     id="namedview135"
     showgrid="false"
     inkscape:zoom="1.1165268"
     inkscape:cx="466.62561"
     inkscape:cy="264"
     inkscape:window-x="-8"
     inkscape:window-y="-8"
     inkscape:window-maximized="1"
     inkscape:current-layer="b2764883-148f-45a6-9ca9-ea478379e86a" />
  <path
     d="M 709.26328,251.49949 H 250.92327 A 25.111667,25.111667 0 0 1 225.83998,226.4162 V 79.716993 a 25.111667,25.111667 0 0 1 25.08329,-25.083284 h 458.34001 a 25.111667,25.111667 0 0 1 25.08329,25.083284 V 226.4162 a 25.111667,25.111667 0 0 1 -25.08329,25.08329 z"
     fill="#e6e6e6"
     id="path2"
     style="stroke-width:0.7601" />
  <path
     d="m 251.68337,64.515003 a 15.219344,15.219344 0 0 0 -15.20199,15.20199 V 226.4162 a 15.219344,15.219344 0 0 0 15.20199,15.20199 H 710.02338 A 15.21929,15.21929 0 0 0 725.22537,226.4162 V 79.716993 a 15.21929,15.21929 0 0 0 -15.20199,-15.20199 z"
     fill="#ffffff"
     id="path4"
     style="stroke-width:0.7601" />
  <path
     d="m 309.17968,125.88468 a 16.65128,16.65128 0 1 1 16.65128,-16.6513 v 0 a 16.669834,16.669834 0 0 1 -16.65128,16.6513 z m 0,-31.082386 a 14.431113,14.431113 0 1 0 14.43111,14.431126 v 0 A 14.447478,14.447478 0 0 0 309.17968,94.802294 Z"
     fill="#cccccc"
     id="path6"
     style="stroke-width:0.7601" />
  <path
     d="m 308.81103,105.45432 h -0.0309 l -1.75727,0.94856 -0.26397,-1.04179 2.20771,-1.18163 h 1.16645 v 10.1078 h -1.32202 z"
     fill="#cccccc"
     id="path8"
     style="stroke-width:0.7601" />
  <path
     d="m 286.44799,152.76631 a 1.9545047,1.9545047 0 1 0 -1.88566,-1.88566 1.9544971,1.9544971 0 0 0 1.88566,1.88566 z"
     fill="#e6e6e6"
     id="path10"
     style="stroke-width:0.7601" />
  <path
     d="m 286.44799,164.97724 a 1.9545047,1.9545047 0 1 0 -1.88566,-1.88566 1.9544971,1.9544971 0 0 0 1.88566,1.88566 z"
     fill="#e6e6e6"
     id="path12"
     style="stroke-width:0.7601" />
  <path
     d="m 286.44799,177.18817 a 1.9545047,1.9545047 0 1 0 -1.88566,-1.88566 1.9544971,1.9544971 0 0 0 1.88566,1.88566 z"
     fill="#e6e6e6"
     id="path14"
     style="stroke-width:0.7601" />
  <path
     d="m 332.68698,151.92306 h -35.52275 a 1.1100875,1.1100875 0 0 1 0,-2.22018 h 35.52273 a 1.1100875,1.1100875 0 0 1 0,2.22018 z"
     fill="#e6e6e6"
     id="path16"
     style="stroke-width:0.7601" />
  <path
     d="m 332.68698,164.13399 h -35.52275 a 1.110088,1.110088 0 1 1 -0.002,-2.22017 h 35.52507 a 1.110088,1.110088 0 1 1 0.002,2.22017 z"
     fill="#e6e6e6"
     id="path18"
     style="stroke-width:0.7601" />
  <path
     d="m 332.68698,176.34492 h -35.52275 a 1.1100874,1.1100874 0 0 1 0,-2.22017 h 35.52273 a 1.110088,1.110088 0 1 1 0.002,2.22017 z"
     fill="#e6e6e6"
     id="path20"
     style="stroke-width:0.7601" />
  <path
     d="m 412.31893,123.60438 a 16.65128,16.65128 0 1 1 16.6513,-16.65128 16.651272,16.651272 0 0 1 -16.6513,16.65128 z m 0,-31.082385 a 14.43112,14.43112 0 1 0 14.43108,14.431155 v -5e-5 A 14.447812,14.447812 0 0 0 412.31893,92.52198 Z"
     fill="#cccccc"
     id="path22"
     style="stroke-width:0.7601" />
  <path
     d="m 409.37349,112.09267 v -0.84014 l 1.07214,-1.0418 c 2.58225,-2.4565 3.7487,-3.76389 3.76389,-5.287 a 1.8024392,1.8024392 0 0 0 -2.00554,-1.97409 3.4443682,3.4443682 0 0 0 -2.14645,0.85424 l -0.43579,-0.96372 a 4.4384948,4.4384948 0 0 1 2.86195,-1.02663 2.8441404,2.8441404 0 0 1 3.09393,2.93891 c 0,1.86568 -1.3529,3.3747 -3.4831,5.42684 l -0.80874,0.74693 v 0.0303 h 4.54115 v 1.13611 z"
     fill="#cccccc"
     id="path24"
     style="stroke-width:0.7601" />
  <path
     d="m 456.40472,212.708 h -88.17154 a 6.8487324,6.8487324 0 0 1 -6.8409,-6.8409 v -52.44687 a 6.8487248,6.8487248 0 0 1 6.8409,-6.84089 h 88.17154 a 6.8487324,6.8487324 0 0 1 6.8409,6.84089 v 52.44687 a 6.84874,6.84874 0 0 1 -6.8409,6.8409 z"
     fill="#ffffff"
     id="path26"
     style="stroke-width:0.7601" />
  <path
     d="m 442.29125,160.77223 h -59.94461 a 1.1100905,1.1100905 0 0 1 -0.002,-2.22018 h 59.94696 a 1.1100905,1.1100905 0 0 1 0.002,2.22018 z"
     fill="#e6e6e6"
     id="path28"
     style="stroke-width:0.7601" />
  <path
     d="m 442.29125,170.76299 h -59.94461 a 1.1100905,1.1100905 0 0 1 -0.002,-2.22018 h 59.94696 a 1.11009,1.11009 0 0 1 0,2.22018 z"
     fill="#e6e6e6"
     id="path30"
     style="stroke-width:0.7601" />
  <path
     d="m 442.29125,180.75376 h -59.94461 a 1.110088,1.110088 0 0 1 -0.002,-2.22017 h 59.94696 a 1.110088,1.110088 0 0 1 0.002,2.22017 z"
     fill="#e6e6e6"
     id="path32"
     style="stroke-width:0.7601" />
  <path
     d="m 442.29125,190.74452 h -59.94461 a 1.1100874,1.1100874 0 0 1 -0.002,-2.22017 h 59.94696 a 1.1100874,1.1100874 0 0 1 0,2.22017 z"
     fill="#e6e6e6"
     id="path34"
     style="stroke-width:0.7601" />
  <path
     d="m 442.29125,200.73528 h -59.94461 a 1.1100874,1.1100874 0 0 1 0,-2.22017 h 59.94459 a 1.110088,1.110088 0 0 1 0.002,2.22017 z"
     fill="#e6e6e6"
     id="path36"
     style="stroke-width:0.7601" />
  <path
     d="m 456.40472,212.708 h -88.17154 a 6.8487324,6.8487324 0 0 1 -6.8409,-6.8409 v -52.44687 a 6.8487248,6.8487248 0 0 1 6.8409,-6.84089 h 88.17154 a 6.8487324,6.8487324 0 0 1 6.8409,6.84089 v 52.44687 a 6.84874,6.84874 0 0 1 -6.8409,6.8409 z m -88.17154,-64.60846 a 5.3266635,5.3266635 0 0 0 -5.3207,5.32069 v 52.44687 a 5.3266711,5.3266711 0 0 0 5.3207,5.3207 h 88.17154 a 5.3266787,5.3266787 0 0 0 5.3207,-5.3207 v -52.44687 a 5.3266711,5.3266711 0 0 0 -5.3207,-5.32069 z"
     fill="#e6e6e6"
     id="path38"
     style="stroke-width:0.7601" />
  <path
     d="m 523.87999,123.60438 a 16.65128,16.65128 0 1 1 16.6513,-16.65128 16.651295,16.651295 0 0 1 -16.6513,16.65128 z m 0,-31.082385 a 14.43112,14.43112 0 1 0 14.43108,14.431155 v -5e-5 A 14.447858,14.447858 0 0 0 523.87999,92.52198 Z"
     fill="#cccccc"
     id="path40"
     style="stroke-width:0.7601" />
  <path
     d="m 521.09656,110.43599 a 4.5824956,4.5824956 0 0 0 2.23859,0.63742 c 1.75838,0 2.30257,-1.11984 2.28629,-1.9589 -0.0152,-1.41581 -1.29112,-2.02179 -2.6115,-2.02179 h -0.76314 v -1.02661 h 0.76321 c 0.99517,0 2.25487,-0.51276 2.25487,-1.71065 0,-0.80875 -0.51383,-1.52421 -1.77355,-1.52421 a 3.697717,3.697717 0 0 0 -2.02068,0.66996 l -0.35774,-0.99518 a 4.7972694,4.7972694 0 0 1 2.64295,-0.77834 c 1.99035,0 2.89232,1.18162 2.89232,2.41096 a 2.5103503,2.5103503 0 0 1 -1.86676,2.37846 v 0.0314 a 2.6318598,2.6318598 0 0 1 2.25488,2.59633 c 0,1.61743 -1.2597,3.03322 -3.68475,3.03322 a 5.1282851,5.1282851 0 0 1 -2.62778,-0.68513 z"
     fill="#cccccc"
     id="path42"
     style="stroke-width:0.7601" />
  <path
     d="m 499.27586,198.05875 a 1.9545047,1.9545047 0 1 0 -1.88566,-1.88565 1.9544971,1.9544971 0 0 0 1.88566,1.88565 z"
     fill="#e6e6e6"
     id="path44"
     style="stroke-width:0.7601" />
  <path
     d="M 545.51485,197.21551 H 509.9921 a 1.11009,1.11009 0 1 1 0,-2.22018 h 35.52273 a 1.1100905,1.1100905 0 1 1 0.002,2.22018 z"
     fill="#e6e6e6"
     id="path46"
     style="stroke-width:0.7601" />
  <path
     d="m 555.04409,182.30402 h -62.32816 a 5.3266787,5.3266787 0 0 1 -5.3207,-5.3207 v -25.08329 a 5.3266711,5.3266711 0 0 1 5.3207,-5.32069 h 62.32816 a 5.3266711,5.3266711 0 0 1 5.3207,5.32069 v 25.08329 a 5.3266787,5.3266787 0 0 1 -5.3207,5.3207 z m -62.32816,-34.20448 a 3.804853,3.804853 0 0 0 -3.8005,3.80049 v 25.08329 a 3.804853,3.804853 0 0 0 3.8005,3.8005 h 62.32816 a 3.804853,3.804853 0 0 0 3.8005,-3.8005 v -25.08329 a 3.804853,3.804853 0 0 0 -3.8005,-3.80049 z"
     fill="#e6e6e6"
     id="path48"
     style="stroke-width:0.7601" />
  <rect
     x="372.14661"
     y="364.49753"
     width="75.825073"
     height="1.5201079"
     transform="rotate(-24.26219)"
     fill="#e6e6e6"
     id="rect50"
     style="stroke-width:0.7601" />
  <rect
     x="68.451187"
     y="506.9798"
     width="1.5198951"
     height="75.636528"
     transform="rotate(-65.35159)"
     fill="#e6e6e6"
     id="rect52"
     style="stroke-width:0.7601" />
  <path
     d="m 606.25384,165.46727 a 1.0711931,1.0711931 0 0 0 -0.162,-0.24384 v -1e-4 l -8.32565,-8.32551 a 1.1099657,1.1099657 0 1 0 -1.56975,1.5697 l 6.43078,6.43069 h -28.40258 a 1.1100874,1.1100874 0 0 0 0,2.22017 h 28.40259 l -5.87573,5.87565 a 1.1099809,1.1099809 0 1 0 1.56974,1.56975 l 7.76987,-7.76974 9.2e-4,-8.3e-4 a 1.0950602,1.0950602 0 0 0 0.16181,-1.32594 z"
     fill="#cccccc"
     id="path54"
     style="stroke-width:0.7601" />
  <path
     d="m 677.14561,143.64843 h -0.52023 v -14.25174 a 8.2485241,8.2485241 0 0 0 -8.24852,-8.24853 H 638.1826 a 8.2485089,8.2485089 0 0 0 -8.24854,8.2485 v 78.1862 a 8.2485241,8.2485241 0 0 0 8.24851,8.24853 h 30.19425 a 8.2485241,8.2485241 0 0 0 8.24855,-8.2485 v -53.78983 h 0.52024 z"
     fill="#3f3d56"
     id="path56"
     style="stroke-width:0.7601" />
  <path
     d="m 674.86972,129.45423 v 78.07116 a 6.1602874,6.1602874 0 0 1 -6.16019,6.16019 h -30.3391 a 6.1603179,6.1603179 0 0 1 -6.1602,-6.16019 v -78.07116 a 6.1603179,6.1603179 0 0 1 6.1602,-6.16018 h 3.68051 a 2.9280782,2.9280782 0 0 0 2.70996,4.03177 h 17.29796 a 2.9281086,2.9281086 0 0 0 2.70997,-4.03177 h 3.9407 a 6.1603026,6.1603026 0 0 1 6.16019,6.16018 z"
     fill="#ffffff"
     id="path58"
     style="stroke-width:0.7601" />
  <path
     d="m 277.22723,219.65139 a 3.3374602,3.3374602 0 0 1 -0.62378,-2.86254 79.051324,79.051324 0 0 0 -2.3e-4,-36.71731 3.3383571,3.3383571 0 0 1 0.62404,-2.86253 3.2818133,3.2818133 0 0 1 2.59223,-1.25594 h 30.80474 a 3.3235656,3.3235656 0 0 1 3.27353,2.78572 129.39841,129.39841 0 0 1 0,39.38287 3.3235732,3.3235732 0 0 1 -3.27353,2.78572 h -30.80477 a 3.2818209,3.2818209 0 0 1 -2.59223,-1.25599 z"
     fill="#dc5c01"
     id="path60"
     style="stroke-width:0.7601" />
  <path
     d="m 304.67976,192.53974 h -16.22763 a 2.2827917,2.2827917 0 0 1 -2.2803,-2.2803 v -0.96831 a 2.2827917,2.2827917 0 0 1 2.2803,-2.28029 h 16.22763 a 2.2827917,2.2827917 0 0 1 2.2803,2.28029 v 0.96831 a 2.2827917,2.2827917 0 0 1 -2.2803,2.2803 z"
     fill="#ffffff"
     id="path62"
     style="stroke-width:0.7601" />
  <path
     d="m 304.67976,202.07699 h -16.22763 a 2.2827917,2.2827917 0 0 1 -2.2803,-2.2803 v -0.9683 a 2.2827917,2.2827917 0 0 1 2.2803,-2.2803 h 16.22763 a 2.2827917,2.2827917 0 0 1 2.2803,2.2803 v 0.96831 a 2.2827917,2.2827917 0 0 1 -2.2803,2.28029 z"
     fill="#ffffff"
     id="path64"
     style="stroke-width:0.7601" />
  <path
     d="m 562.13306,247.72255 a 127.30651,127.30651 0 0 1 0,-38.74633 3.2696061,3.2696061 0 0 1 3.22038,-2.7407 h 30.30709 a 3.2278463,3.2278463 0 0 1 2.55033,1.23611 3.2829915,3.2829915 0 0 1 0.6137,2.81583 77.779822,77.779822 0 0 0 -2.3e-4,36.12385 3.2821478,3.2821478 0 0 1 -0.61347,2.81583 3.2278463,3.2278463 0 0 1 -2.55033,1.2361 h -30.30709 a 3.2695985,3.2695985 0 0 1 -3.22038,-2.74069 z"
     fill="#dc5c01"
     id="path66"
     style="stroke-width:0.7601" />
  <path
     d="m 586.88752,225.93073 h -15.90401 a 2.2827917,2.2827917 0 0 1 -2.2803,-2.2803 v -0.89111 a 2.2827917,2.2827917 0 0 1 2.2803,-2.2803 h 15.90401 a 2.2827917,2.2827917 0 0 1 2.2803,2.2803 v 0.89111 a 2.2827917,2.2827917 0 0 1 -2.2803,2.2803 z"
     fill="#ffffff"
     id="path68"
     style="stroke-width:0.7601" />
  <path
     d="m 122.04956,332.09758 a 127.32138,127.32138 0 0 1 23.90225,-30.49526 3.270389,3.270389 0 0 1 4.22549,-0.17026 l 23.85315,18.69617 a 3.2278387,3.2278387 0 0 1 1.2447,2.54615 3.2830143,3.2830143 0 0 1 -1.25406,2.59479 77.779769,77.779769 0 0 0 -22.28459,28.43109 3.282163,3.282163 0 0 1 -2.2199,1.83775 3.2278311,3.2278311 0 0 1 -2.7698,-0.6004 l -23.85315,-18.69617 a 3.270389,3.270389 0 0 1 -0.84409,-4.14386 z"
     fill="#cccccc"
     id="path70"
     style="stroke-width:0.7601" />
  <path
     d="m 155.11924,329.13719 -12.51723,-9.81103 a 2.2827917,2.2827917 0 0 1 -0.38801,-3.20141 l 0.54948,-0.70105 a 2.2827917,2.2827917 0 0 1 3.20141,-0.38801 l 12.51723,9.81103 a 2.2827917,2.2827917 0 0 1 0.38801,3.2014 l -0.54949,0.70106 a 2.2827841,2.2827841 0 0 1 -3.2014,0.38801 z"
     fill="#ffffff"
     id="path72"
     style="stroke-width:0.7601" />
  <path
     d="m 149.33082,336.52225 -12.51724,-9.81103 a 2.2827917,2.2827917 0 0 1 -0.388,-3.20141 l 0.54972,-0.70135 a 2.2827917,2.2827917 0 0 1 3.2014,-0.38801 l 12.51726,9.81103 a 2.2827917,2.2827917 0 0 1 0.38802,3.20141 l -0.54972,0.70134 a 2.2827917,2.2827917 0 0 1 -3.20144,0.38802 z"
     fill="#ffffff"
     id="path74"
     style="stroke-width:0.7601" />
  <path
     d="m 766.59983,341.9749 a 127.30651,127.30651 0 0 1 0,-38.74634 3.2696061,3.2696061 0 0 1 3.22039,-2.7407 h 30.30708 a 3.2278463,3.2278463 0 0 1 2.55033,1.23611 3.2829915,3.2829915 0 0 1 0.6137,2.81583 77.779822,77.779822 0 0 0 -2.3e-4,36.12385 3.2821478,3.2821478 0 0 1 -0.61347,2.81583 3.2278463,3.2278463 0 0 1 -2.55033,1.23611 h -30.30708 a 3.2695985,3.2695985 0 0 1 -3.22039,-2.74069 z"
     fill="#cccccc"
     id="path76"
     style="stroke-width:0.7601" />
  <path
     d="m 791.35429,320.18307 h -15.90401 a 2.2827917,2.2827917 0 0 1 -2.2803,-2.2803 v -0.89111 a 2.2827917,2.2827917 0 0 1 2.2803,-2.2803 h 15.90401 a 2.2827917,2.2827917 0 0 1 2.2803,2.2803 v 0.89111 a 2.2827917,2.2827917 0 0 1 -2.2803,2.2803 z"
     fill="#ffffff"
     id="path78"
     style="stroke-width:0.7601" />
  <path
     d="m 775.50148,306.53061 a 8.1162516,8.1162516 0 0 0 -3.10485,-10.55896 7.1228091,7.1228091 0 0 0 -1.10464,-0.49482 l -0.62365,-27.59913 -11.02431,8.11756 2.28238,24.96409 a 8.0551548,8.0551548 0 0 0 3.71148,8.83015 7.0592268,7.0592268 0 0 0 9.86359,-3.25889 z"
     fill="#a0616a"
     id="path80"
     style="stroke-width:0.7601" />
  <path
     d="m 770.85663,294.27594 -7.90179,0.47659 a 3.3567591,3.3567591 0 0 1 -3.42192,-3.00092 l -6.56151,-49.36599 -10.60347,-30.11244 a 10.436098,10.436098 0 0 1 0.2748,-7.70389 9.3590447,9.3590447 0 0 1 5.36375,-5.12606 c 4.82898,-1.75507 10.11592,1.02378 11.78535,6.19405 l 10.78324,34.52475 3.32543,50.41921 a 3.5848346,3.5848346 0 0 1 -0.79795,2.52885 3.2045188,3.2045188 0 0 1 -1.37851,0.98709 3.074443,3.074443 0 0 1 -0.86742,0.17876 z"
     fill="#3f3d56"
     id="path82"
     style="stroke-width:0.7601" />
  <polygon
     points="811.757,467.611 829.851,467.612 829.849,514.9 817.589,514.899 "
     fill="#a0616a"
     id="polygon84"
     transform="matrix(0.76009953,0,0,0.76009953,94.02065,54.633709)" />
  <path
     d="m 727.16463,455.04189 -30.04713,-0.001 v -0.38005 a 11.694929,11.694929 0 0 1 11.69526,-11.69507 h 7.6e-4 l 18.35169,7.6e-4 z"
     fill="#2f2e41"
     id="path86"
     style="stroke-width:0.7601" />
  <polygon
     points="847.757,467.611 865.851,467.612 865.849,514.9 853.589,514.899 "
     fill="#a0616a"
     id="polygon88"
     transform="matrix(0.76009953,0,0,0.76009953,94.02065,54.633709)" />
  <path
     d="m 754.52822,455.04189 -30.04713,-0.001 v -0.38005 a 11.694929,11.694929 0 0 1 11.69525,-11.69507 h 7.6e-4 l 18.35169,7.6e-4 z"
     fill="#2f2e41"
     id="path90"
     style="stroke-width:0.7601" />
  <path
     d="m 758.40567,300.74789 -2.22514,132.02469 a 3.0403981,3.0403981 0 0 1 -3.31522,2.97668 l -10.90457,-0.99132 a 3.0403981,3.0403981 0 0 1 -2.75604,-2.79292 l -6.38396,-82.35318 a 0.76009953,0.76009953 0 0 0 -1.51739,0.03 l -3.19085,84.2386 a 3.0403981,3.0403981 0 0 1 -3.03823,2.92531 h -11.6946 a 3.0403981,3.0403981 0 0 1 -3.03474,-2.85493 l -8.18662,-133.96298 48.64637,-12.16159 z"
     fill="#2f2e41"
     id="path92"
     style="stroke-width:0.7601" />
  <circle
     cx="723.12091"
     cy="158.10953"
     r="18.668827"
     fill="#a0616a"
     id="circle94"
     style="stroke-width:0.7601" />
  <path
     d="m 700.49262,304.67529 a 3.3970444,3.3970444 0 0 1 -1.03716,-2.40571 l -1.25929,-90.028 a 21.663475,21.663475 0 0 1 14.65624,-20.8582 c 1.74899,-7.93503 11.05783,-8.92895 16.48448,-8.81018 a 8.4255741,8.4255741 0 0 1 6.82382,3.74186 l 3.89013,5.8351 8.57413,5.02601 a 21.684119,21.684119 0 0 1 10.23871,23.42353 l -1.31998,6.00435 a 137.98861,137.98861 0 0 0 1.29047,64.35014 l 2.65627,10.12773 a 3.4200298,3.4200298 0 0 1 -3.57095,4.27779 l -3.08493,-0.23753 a 3.4157657,3.4157657 0 0 1 -3.14117,-3.06935 l -0.5105,-5.10543 a 0.38008777,0.38008777 0 0 0 -0.75639,0 l -0.49421,4.94289 a 3.4200754,3.4200754 0 0 1 -3.35085,3.07974 l -43.65321,0.67177 c -0.0182,0 -0.0362,7.6e-4 -0.0544,7.6e-4 a 3.3986406,3.3986406 0 0 1 -2.38123,-0.96727 z"
     fill="#3f3d56"
     id="path96"
     style="stroke-width:0.7601" />
  <path
     d="m 724.58124,168.87063 c 0.0765,2.63906 1.90874,4.16584 4.15814,5.54815 2.24941,1.3823 4.87891,1.98167 7.45506,2.55983 a 2.2792573,2.2792573 0 0 0 3.34836,-1.99494 l 2.36269,-8.98684 a 56.886328,56.886328 0 0 0 1.81897,-8.76927 c 0.56901,-5.7077 -0.78367,-11.84772 -4.76752,-15.97451 -3.98386,-4.1268 -10.89286,-5.59282 -15.66686,-2.41315 -5.6655,-7.23598 -31.56195,8.75102 -25.17384,13.78274 1.13643,0.89515 2.87365,-0.23752 4.31615,-0.34731 1.4425,-0.10979 3.05905,0.14394 3.97532,1.26343 1.19716,1.46258 0.67573,3.64127 1.16904,5.4658 a 5.1035515,5.1035515 0 0 0 6.44845,3.30516 17.549695,17.549695 0 0 0 3.34434,-2.15002 c 1.10645,-0.73697 2.50457,-1.28152 3.75008,-0.81672 1.64176,0.61269 2.22499,2.62265 2.37336,4.36871 a 40.462606,40.462606 0 0 0 1.08826,5.15894 z"
     fill="#2f2e41"
     id="path98"
     style="stroke-width:0.7601" />
  <polygon
     points="798.84,316.118 829.84,266.118 823.84,216.118 819.84,265.118 "
     opacity="0.2"
     id="polygon100"
     transform="matrix(0.76009953,0,0,0.76009953,94.02065,54.633709)" />
  <path
     d="m 697.48635,309.35085 a 7.6433708,7.6433708 0 0 0 0.24142,-11.71774 l 10.16903,-25.18665 -13.83554,2.7939 -7.53555,23.48936 a 7.6848115,7.6848115 0 0 0 10.96064,10.62115 z"
     fill="#a0616a"
     id="path102"
     style="stroke-width:0.7601" />
  <path
     d="m 697.18935,298.24265 -7.83178,-2.82258 a 3.4385154,3.4385154 0 0 1 -2.13973,-4.11945 l 12.91961,-47.29289 1.96976,-42.74229 a 9.7436019,9.7436019 0 1 1 19.44942,1.17912 l -3.51803,46.80188 -16.46193,46.91198 a 3.4272888,3.4272888 0 0 1 -3.47827,2.27985 3.4371701,3.4371701 0 0 1 -0.90905,-0.19562 z"
     fill="#3f3d56"
     id="path104"
     style="stroke-width:0.7601" />
  <polygon
     points="88.419,466.203 72.172,458.239 51.358,500.7 62.367,506.096 "
     fill="#ffb8b8"
     id="polygon106"
     transform="matrix(0.76009953,0,0,0.76009953,94.02065,54.633709)" />
  <path
     d="m 132.26291,431.43747 16.47843,8.07749 6.7e-4,3.3e-4 a 11.694891,11.694891 0 0 1 5.35323,15.64917 l -0.16729,0.34128 -26.98,-13.22537 z"
     fill="#2f2e41"
     id="path108"
     style="stroke-width:0.7601" />
  <polygon
     points="178.544,472.221 160.45,472.222 160.452,519.51 172.712,519.509 "
     fill="#ffb8b8"
     id="polygon110"
     transform="matrix(0.76009953,0,0,0.76009953,94.02065,54.633709)" />
  <path
     d="m 213.60302,443.43022 18.35169,-7.6e-4 h 7.6e-4 a 11.694929,11.694929 0 0 1 11.69525,11.69507 v 0.38005 l -30.04713,0.001 z"
     fill="#2f2e41"
     id="path112"
     style="stroke-width:0.7601" />
  <circle
     cx="195.96352"
     cy="182.78282"
     r="18.668827"
     fill="#ffb8b8"
     id="circle114"
     style="stroke-width:0.7601" />
  <path
     d="m 214.5539,437.65746 a 3.4205467,3.4205467 0 0 1 -3.41321,-3.27124 l -7.21612,-96.04719 a 1.1404457,1.1404457 0 0 0 -2.14984,-0.49179 l -46.16198,88.12777 a 3.4377249,3.4377249 0 0 1 -4.55967,1.47232 l -12.86844,-6.4345 a 3.4271976,3.4271976 0 0 1 -1.53746,-4.57285 l 27.54508,-55.81535 18.24443,-41.80956 c 7.04205,-13.87105 14.52001,-21.01927 22.86106,-21.85323 8.55725,-0.85435 17.69571,5.02935 27.94257,17.98927 l 0.0835,0.10578 -0.002,0.13473 -1.5202,117.327 a 3.4044402,3.4044402 0 0 1 -3.10127,3.40078 l -13.81206,1.7221 q -0.16838,0.0161 -0.33473,0.016 z"
     fill="#2f2e41"
     id="path116"
     style="stroke-width:0.7601" />
  <path
     d="m 176.2598,325.56739 a 8.1655288,8.1655288 0 0 0 1.8004,-12.39072 l 2.81505,-74.3799 -13.68179,1.70509 -1.15367,72.36087 a 8.2097666,8.2097666 0 0 0 10.22001,12.70466 z"
     fill="#ffb8b8"
     id="path118"
     style="stroke-width:0.7601" />
  <path
     d="m 184.91458,251.94703 -18.37327,-2.08784 a 3.6613006,3.6613006 0 0 1 -3.12464,-4.5797 l 4.74345,-17.81484 a 10.168133,10.168133 0 0 1 20.19933,2.35535 l 0.62771,18.36523 a 3.6613082,3.6613082 0 0 1 -4.07255,3.76183 z"
     fill="#2f2e41"
     id="path120"
     style="stroke-width:0.7601" />
  <path
     d="m 264.06102,205.12495 a 8.0008076,8.0008076 0 0 0 -0.18189,1.24666 l -32.65194,18.83679 -7.93651,-4.56895 -8.4608,11.07637 13.264,9.45378 a 6.0807962,6.0807962 0 0 0 7.29558,-0.17774 l 33.66977,-26.56231 a 7.9788408,7.9788408 0 1 0 -4.99821,-9.30463 z"
     fill="#ffb8b8"
     id="path122"
     style="stroke-width:0.7601" />
  <path
     d="m 230.1356,226.10055 -10.55302,13.67723 a 3.4204479,3.4204479 0 0 1 -5.17166,0.28327 L 202.46419,227.6553 a 9.4992831,9.4992831 0 0 1 11.64977,-15.00754 l 14.98384,8.37842 a 3.4204479,3.4204479 0 0 1 1.03783,5.07436 z"
     fill="#2f2e41"
     id="path124"
     style="stroke-width:0.7601" />
  <path
     d="M 238.74413,320.76764 218.48458,222.0846 a 18.504904,18.504904 0 0 0 -21.16884,-14.53166 l -6.75664,1.12614 a 18.119412,18.119412 0 0 0 -11.76596,7.34138 v 0 a 25.304033,25.304033 0 0 0 -3.78008,21.51823 l 11.18288,40.02315 -8.29911,42.87882 a 3.0372741,3.0372741 0 0 0 3.41043,3.58793 c 4.15494,-0.59448 11.00362,-1.44301 18.86962,-1.90535 l 4.26145,-16.43772 1.73323,16.17671 c 9.6627,-0.27047 20.15192,0.20301 28.80511,2.45102 a 3.0427848,3.0427848 0 0 0 3.76746,-3.54561 z"
     fill="#dc5c01"
     id="path126"
     style="stroke-width:0.7601" />
  <path
     d="m 217.4633,167.02114 c -1.11417,-6.48085 -6.31685,-11.85332 -12.51455,-14.05155 -6.19771,-2.19822 -13.18632,-1.48332 -19.2556,1.0481 a 30.186965,30.186965 0 0 0 -15.17193,13.58391 15.718509,15.718509 0 0 1 -2.26954,-1.24954 c -3.59414,-2.39203 -6.51058,-5.79822 -10.39903,-7.6737 -6.85575,-3.30643 -15.1441,-1.10841 -21.81612,2.55402 -6.67203,3.66239 -12.58656,8.72214 -19.63455,11.59621 -7.04764,2.87402 -16.04077,3.01613 -21.377428,-2.41076 a 19.558759,19.558759 0 0 0 28.663348,23.08533 c 7.72199,-4.70377 11.98753,-14.56631 20.64887,-17.16255 4.79256,-1.43665 9.93919,-0.27952 14.78334,0.97374 a 58.468194,58.468194 0 0 0 8.71034,1.80134 21.503717,21.503717 0 0 0 5.61947,14.3556 c 5.97724,6.2924 15.35823,7.9693 24.03628,7.86757 l 0.18149,-0.18456 c -2.657,-3.97707 -4.75396,-9.49177 -1.82861,-13.2758 2.88786,-3.73527 8.5834,-3.18496 13.00594,-4.83779 6.15984,-2.30206 9.73245,-9.53869 8.61828,-16.01957 z"
     fill="#2f2e41"
     id="path128"
     style="stroke-width:0.7601" />
  <path
     d="M 250.53723,455.96626 H 121.32031 a 0.7601,0.7601 0 1 1 0,-1.5202 h 129.21692 a 0.7601,0.7601 0 0 1 0,1.5202 z"
     fill="#cccccc"
     id="path130"
     style="stroke-width:0.7601" />
  <path
     d="M 784.8872,455.96626 H 655.67028 a 0.7601,0.7601 0 0 1 0,-1.5202 H 784.8872 a 0.7601,0.7601 0 0 1 0,1.5202 z"
     fill="#cccccc"
     id="path132"
     style="stroke-width:0.7601" />
</svg>
