<?xml version="1.0" encoding="UTF-8" standalone="no"?>
<svg
   xmlns:dc="http://purl.org/dc/elements/1.1/"
   xmlns:cc="http://creativecommons.org/ns#"
   xmlns:rdf="http://www.w3.org/1999/02/22-rdf-syntax-ns#"
   xmlns:svg="http://www.w3.org/2000/svg"
   xmlns="http://www.w3.org/2000/svg"
   xmlns:sodipodi="http://sodipodi.sourceforge.net/DTD/sodipodi-0.dtd"
   xmlns:inkscape="http://www.inkscape.org/namespaces/inkscape"
   id="b6117b06-2b45-45bc-b789-4a82ab6612dd"
   data-name="Layer 1"
   width="1139.17088"
   height="654.54324"
   viewBox="0 0 1139.17088 654.54324"
   version="1.1"
   sodipodi:docname="taas3.svg"
   inkscape:version="1.0.1 (3bc2e813f5, 2020-09-07)">
  <metadata
     id="metadata91">
    <rdf:RDF>
      <cc:Work
         rdf:about="">
        <dc:format>image/svg+xml</dc:format>
        <dc:type
           rdf:resource="http://purl.org/dc/dcmitype/StillImage" />
      </cc:Work>
    </rdf:RDF>
  </metadata>
  <defs
     id="defs89" />
  <sodipodi:namedview
     pagecolor="#ffffff"
     bordercolor="#666666"
     borderopacity="1"
     objecttolerance="10"
     gridtolerance="10"
     guidetolerance="10"
     inkscape:pageopacity="0"
     inkscape:pageshadow="2"
     inkscape:window-width="1920"
     inkscape:window-height="1009"
     id="namedview87"
     showgrid="false"
     inkscape:zoom="0.91470033"
     inkscape:cx="569.58545"
     inkscape:cy="327.27161"
     inkscape:window-x="-8"
     inkscape:window-y="-8"
     inkscape:window-maximized="1"
     inkscape:current-layer="b6117b06-2b45-45bc-b789-4a82ab6612dd" />
  <title
     id="title2">progressive_app</title>
  <circle
     cx="308.91705"
     cy="472.3288"
     r="48.168343"
     fill="#f2f2f2"
     id="circle4"
     style="stroke-width:0.81306" />
  <circle
     cx="316.7493"
     cy="465.27979"
     r="48.168343"
     fill="#dc5c01"
     id="circle6"
     style="stroke-width:0.81306" />
  <rect
     x="355.5415"
     y="411.98233"
     width="595.97205"
     height="1.6261185"
     fill="#3f3d56"
     id="rect8"
     style="stroke-width:0.81306" />
  <path
     d="M 664.19623,63.268502 H 452.66292 v -4.359879 h -95.91743 v 4.359879 H 144.34021 A 14.308625,14.308625 0 0 0 130.03157,77.577136 V 367.23127 a 14.308673,14.308673 0 0 0 14.30864,14.30869 h 519.85602 a 14.308673,14.308673 0 0 0 14.30863,-14.30869 V 77.577136 A 14.308625,14.308625 0 0 0 664.19623,63.268502 Z"
     fill="#3f3d56"
     id="path10"
     style="stroke-width:0.81306" />
  <rect
     x="149.21504"
     y="88.555824"
     width="510.10635"
     height="287.75226"
     fill="#dc5c01"
     id="rect12"
     style="stroke-width:0.81306" />
  <circle
     cx="403.83224"
     cy="75.476196"
     r="5.2318578"
     fill="#dc5c01"
     id="circle14"
     style="stroke-width:0.81306" />
  <polygon
     points="50.406,49.754 498.374,403.667 50.406,403.667 "
     opacity="0.1"
     id="polygon16"
     transform="matrix(0.81305927,0,0,0.81305927,108.23216,48.103185)" />
  <circle
     cx="229.03142"
     cy="305.74249"
     r="49.033005"
     fill="#f2f2f2"
     id="circle18"
     style="stroke-width:0.81306" />
  <rect
     x="522.854"
     y="243.74292"
     width="47.649506"
     height="9.9566097"
     fill="#3f3d56"
     id="rect20"
     style="stroke-width:0.81306" />
  <rect
     x="465.24783"
     y="166.2236"
     width="162.86174"
     height="4.2671218"
     fill="#3f3d56"
     id="rect22"
     style="stroke-width:0.81306" />
  <rect
     x="465.24783"
     y="179.73613"
     width="162.86174"
     height="4.2671218"
     fill="#3f3d56"
     id="rect24"
     style="stroke-width:0.81306" />
  <rect
     x="465.24783"
     y="193.2487"
     width="162.86174"
     height="4.2671218"
     fill="#3f3d56"
     id="rect26"
     style="stroke-width:0.81306" />
  <rect
     x="465.24783"
     y="206.76123"
     width="162.86174"
     height="4.2671218"
     fill="#3f3d56"
     id="rect28"
     style="stroke-width:0.81306" />
  <rect
     x="465.24783"
     y="220.2738"
     width="162.86174"
     height="4.2671218"
     fill="#3f3d56"
     id="rect30"
     style="stroke-width:0.81306" />
  <rect
     x="608.19629"
     y="94.39373"
     width="19.913227"
     height="19.913227"
     fill="#f2f2f2"
     id="rect32"
     style="stroke-width:0.81306" />
  <path
     d="M 637.35498,123.55239 H 613.1746 V 99.372007 h 24.18038 z m -23.12901,-1.05128 h 22.07769 v -22.07774 h -22.07769 z"
     fill="#3f3d56"
     id="path34"
     style="stroke-width:0.81306" />
  <path
     d="m 692.82754,371.07623 h -49.78306 v -3.58685 a 0.71116668,0.71116668 0 0 0 -0.71119,-0.71118 h -17.06847 a 0.71116668,0.71116668 0 0 0 -0.71119,0.71118 v 3.58685 h -10.6678 v -3.58685 a 0.71115855,0.71115855 0 0 0 -0.71119,-0.71118 h -17.06847 a 0.71116668,0.71116668 0 0 0 -0.71119,0.71118 v 3.58685 h -10.6678 v -3.58685 A 0.71116668,0.71116668 0 0 0 584.016,366.7782 h -17.06845 a 0.71116668,0.71116668 0 0 0 -0.71119,0.71118 v 3.58685 h -10.66783 v -3.58685 a 0.71116668,0.71116668 0 0 0 -0.71119,-0.71118 h -17.06848 a 0.71116668,0.71116668 0 0 0 -0.71118,0.71118 v 3.58685 h -10.66781 v -3.58685 a 0.71116668,0.71116668 0 0 0 -0.71117,-0.71118 h -17.06849 a 0.71115855,0.71115855 0 0 0 -0.71117,0.71118 v 3.58685 h -10.66782 v -3.58685 a 0.71116668,0.71116668 0 0 0 -0.7112,-0.71118 h -17.06845 a 0.71116668,0.71116668 0 0 0 -0.7112,0.71118 v 3.58685 h -10.66782 v -3.58685 a 0.71116668,0.71116668 0 0 0 -0.71119,-0.71118 H 333.67831 a 0.71116668,0.71116668 0 0 0 -0.71118,0.71118 v 3.58685 h -10.6678 v -3.58685 a 0.71116668,0.71116668 0 0 0 -0.71118,-0.71118 h -17.06849 a 0.71115855,0.71115855 0 0 0 -0.71118,0.71118 v 3.58685 h -10.6678 v -3.58685 a 0.71116668,0.71116668 0 0 0 -0.7112,-0.71118 h -17.06846 a 0.71116668,0.71116668 0 0 0 -0.7112,0.71118 v 3.58685 h -10.6678 v -3.58685 a 0.71115855,0.71115855 0 0 0 -0.71117,-0.71118 h -17.0685 a 0.71116668,0.71116668 0 0 0 -0.71117,0.71118 v 3.58685 h -10.66777 v -3.58685 a 0.71116668,0.71116668 0 0 0 -0.71119,-0.71118 H 217.0437 a 0.71116668,0.71116668 0 0 0 -0.71118,0.71118 v 3.58685 h -10.66778 v -3.58685 a 0.71116668,0.71116668 0 0 0 -0.7112,-0.71118 h -17.06848 a 0.71116668,0.71116668 0 0 0 -0.71118,0.71118 v 3.58685 h -10.6678 v -3.58685 a 0.71116668,0.71116668 0 0 0 -0.71118,-0.71118 h -17.06848 a 0.71115855,0.71115855 0 0 0 -0.71118,0.71118 v 3.58685 h -32.71459 a 17.068496,17.068496 0 0 0 -17.06849,17.06847 v 7.71797 a 17.06848,17.06848 0 0 0 17.06849,17.06843 h 567.52689 a 17.068472,17.068472 0 0 0 17.06848,-17.06843 v -7.71797 a 17.068488,17.068488 0 0 0 -17.06848,-17.06847 z"
     fill="#3f3d56"
     id="path36"
     style="stroke-width:0.81306" />
  <path
     d="m 240.90016,336.36784 a 61.792504,61.792504 0 1 1 61.79249,-61.79249 61.862541,61.862541 0 0 1 -61.79249,61.79249 z m 0,-121.9589 a 60.166386,60.166386 0 1 0 60.16637,60.16641 60.234561,60.234561 0 0 0 -60.16637,-60.16641 z"
     fill="#3f3d56"
     id="path38"
     style="stroke-width:0.81306" />
  <rect
     x="584.82416"
     y="74.562798"
     width="207.3297"
     height="1.6261185"
     fill="#3f3d56"
     id="rect40"
     style="stroke-width:0.81306" />
  <rect
     x="438.4736"
     y="503.85797"
     width="595.97205"
     height="1.6261185"
     fill="#3f3d56"
     id="rect42"
     style="stroke-width:0.81306" />
  <rect
     x="264.88559"
     y="578.65948"
     width="207.3297"
     height="1.6261185"
     fill="#3f3d56"
     id="rect44"
     style="stroke-width:0.81306" />
  <rect
     x="491.18311"
     y="495.28574"
     width="22.765661"
     height="22.765661"
     fill="#dc5c01"
     id="rect46"
     style="stroke-width:0.81306" />
  <path
     d="m 527.77074,505.04248 h -27.64401 v -27.64401 h 27.64401 z m -26.4421,-1.20191 h 25.24018 V 478.6004 h -25.24018 z"
     fill="#3f3d56"
     id="path48"
     style="stroke-width:0.81306" />
  <rect
     x="755.42737"
     y="65.990501"
     width="22.765661"
     height="22.765661"
     fill="#dc5c01"
     id="rect50"
     style="stroke-width:0.81306" />
  <path
     d="M 792.01501,75.747197 H 764.37098 V 48.103185 h 27.64403 z m -26.44212,-1.201922 h 25.2402 V 49.305098 h -25.2402 z"
     fill="#3f3d56"
     id="path52"
     style="stroke-width:0.81306" />
  <rect
     x="984.70996"
     y="495.28574"
     width="22.765661"
     height="22.765661"
     fill="#dc5c01"
     id="rect54"
     style="stroke-width:0.81306" />
  <path
     d="m 1021.2977,505.04248 h -27.64395 v -27.64401 h 27.64395 z m -26.44215,-1.20191 h 25.24025 V 478.6004 h -25.24025 z"
     fill="#3f3d56"
     id="path56"
     style="stroke-width:0.81306" />
  <path
     d="m 967.77514,236.69895 h -1.93395 V 183.71872 A 30.663506,30.663506 0 0 0 935.17758,153.05519 H 822.93195 a 30.663498,30.663498 0 0 0 -30.66362,30.66353 v 290.65355 a 30.663506,30.663506 0 0 0 30.66362,30.66354 H 935.1776 a 30.663506,30.663506 0 0 0 30.66361,-30.66354 V 274.41116 h 1.93396 z"
     fill="#3f3d56"
     id="path58"
     style="stroke-width:0.81306" />
  <path
     d="m 959.31125,185.52093 v 290.22964 a 22.900001,22.900001 0 0 1 -22.89588,22.90388 H 823.62792 A 22.899904,22.899904 0 0 1 800.73217,475.75057 V 185.52093 a 22.898188,22.898188 0 0 1 22.89575,-22.89574 h 13.68378 a 10.878082,10.878082 0 0 0 10.07382,14.98469 h 64.30486 a 10.877984,10.877984 0 0 0 10.07375,-14.98469 h 14.65133 a 22.898253,22.898253 0 0 1 22.89579,22.89574 z"
     fill="#dc5c01"
     id="path60"
     style="stroke-width:0.81306" />
  <rect
     x="863.22241"
     y="353.99042"
     width="33.598515"
     height="9.9566097"
     fill="#3f3d56"
     id="rect62"
     style="stroke-width:0.81306" />
  <rect
     x="822.60339"
     y="276.47107"
     width="114.83671"
     height="4.2671218"
     fill="#3f3d56"
     id="rect64"
     style="stroke-width:0.81306" />
  <rect
     x="822.60339"
     y="289.98364"
     width="114.83671"
     height="4.2671218"
     fill="#3f3d56"
     id="rect66"
     style="stroke-width:0.81306" />
  <rect
     x="822.60339"
     y="303.49619"
     width="114.83671"
     height="4.2671218"
     fill="#3f3d56"
     id="rect68"
     style="stroke-width:0.81306" />
  <rect
     x="822.60339"
     y="317.00873"
     width="114.83671"
     height="4.2671218"
     fill="#3f3d56"
     id="rect70"
     style="stroke-width:0.81306" />
  <rect
     x="822.60339"
     y="330.52127"
     width="114.83671"
     height="4.2671218"
     fill="#3f3d56"
     id="rect72"
     style="stroke-width:0.81306" />
  <rect
     x="864.11987"
     y="219.80402"
     width="19.913227"
     height="19.913227"
     fill="#f2f2f2"
     id="rect74"
     style="stroke-width:0.81306" />
  <path
     d="m 871.74303,224.78361 v 24.18036 h 24.18037 v -24.18036 z m 23.13153,23.13153 h -22.08268 v -22.08269 h 22.08268 z"
     fill="#3f3d56"
     id="path76"
     style="stroke-width:0.81306" />
  <path
     d="m 959.31125,444.75677 v 30.99383 a 22.900001,22.900001 0 0 1 -22.89588,22.90388 H 823.62792 A 22.899904,22.899904 0 0 1 800.73217,475.7506 V 319.47248 l 95.02224,75.06975 1.62612,1.28464 17.67589,13.96021 1.65053,1.30905 z"
     opacity="0.1"
     id="path78"
     style="stroke-width:0.81306" />
  <circle
     cx="870.26495"
     cy="453.58142"
     r="35.667145"
     fill="#f2f2f2"
     id="circle80"
     style="stroke-width:0.81306" />
  <path
     d="m 368.55045,580.28563 a 70.736156,70.736156 0 1 1 70.73616,-70.73616 70.816308,70.816308 0 0 1 -70.73616,70.73616 z m 0,-139.84619 a 69.110037,69.110037 0 1 0 69.11005,69.11003 69.188327,69.188327 0 0 0 -69.11005,-69.11003 z"
     fill="#3f3d56"
     id="path82"
     style="stroke-width:0.81306" />
  <path
     d="m 880.7778,481.0924 a 44.71826,44.71826 0 1 1 44.71825,-44.71827 44.768857,44.768857 0 0 1 -44.71825,44.71827 z m 0,-87.8104 A 43.092141,43.092141 0 1 0 923.86993,436.37413 43.140624,43.140624 0 0 0 880.7778,393.282 Z"
     fill="#3f3d56"
     id="path84"
     style="stroke-width:0.81306" />
</svg>
