<?xml version="1.0" encoding="UTF-8" standalone="no"?>
<svg
   xmlns:dc="http://purl.org/dc/elements/1.1/"
   xmlns:cc="http://creativecommons.org/ns#"
   xmlns:rdf="http://www.w3.org/1999/02/22-rdf-syntax-ns#"
   xmlns:svg="http://www.w3.org/2000/svg"
   xmlns="http://www.w3.org/2000/svg"
   xmlns:sodipodi="http://sodipodi.sourceforge.net/DTD/sodipodi-0.dtd"
   xmlns:inkscape="http://www.inkscape.org/namespaces/inkscape"
   id="ecb8a146-dd8f-4f83-ab4e-53bb1469e238"
   data-name="Layer 1"
   width="1099"
   height="797.68034"
   viewBox="0 0 1099 797.68034"
   version="1.1"
   sodipodi:docname="taas1.svg"
   inkscape:version="1.0.1 (3bc2e813f5, 2020-09-07)">
  <metadata
     id="metadata131">
    <rdf:RDF>
      <cc:Work
         rdf:about="">
        <dc:format>image/svg+xml</dc:format>
        <dc:type
           rdf:resource="http://purl.org/dc/dcmitype/StillImage" />
      </cc:Work>
    </rdf:RDF>
  </metadata>
  <defs
     id="defs129" />
  <sodipodi:namedview
     pagecolor="#ffffff"
     bordercolor="#666666"
     borderopacity="1"
     objecttolerance="10"
     gridtolerance="10"
     guidetolerance="10"
     inkscape:pageopacity="0"
     inkscape:pageshadow="2"
     inkscape:window-width="1920"
     inkscape:window-height="1009"
     id="namedview127"
     showgrid="false"
     inkscape:zoom="0.94813467"
     inkscape:cx="549.5"
     inkscape:cy="398.84018"
     inkscape:window-x="-8"
     inkscape:window-y="-8"
     inkscape:window-maximized="1"
     inkscape:current-layer="ecb8a146-dd8f-4f83-ab4e-53bb1469e238"
     inkscape:document-rotation="0" />
  <title
     id="title2">transfer money</title>
  <circle
     cx="512.43463"
     cy="401.97971"
     r="218.71695"
     fill="#f2f2f2"
     id="circle4"
     style="stroke-width:0.58637" />
  <ellipse
     cx="323.03647"
     cy="637.11505"
     rx="86.783112"
     ry="13.885299"
     fill="#f2f2f2"
     id="ellipse6"
     style="stroke-width:0.58637" />
  <ellipse
     cx="746.39728"
     cy="615.401"
     rx="134.27928"
     ry="21.484684"
     fill="#f2f2f2"
     id="ellipse8"
     style="stroke-width:0.58637" />
  <path
     d="m 716.56288,408.88977 c 0,0 1.14322,3.81069 -5.33498,7.24033 -6.47819,3.42962 -8.38353,16.38602 -0.76213,20.19669 7.62139,3.8107 9.90782,8.76462 6.09709,12.19424 -3.81072,3.42965 -10.66995,12.57536 -1.5243,14.86174 9.14571,2.2864 10.28892,6.85926 7.62142,8.7646 -2.66749,1.90536 6.0971,-3.42961 6.0971,-3.42961 0,0 1.52429,9.14563 9.52675,6.85926 8.00247,-2.28639 30.4856,-45.7284 19.0535,-51.82554 -11.4321,-6.0971 -40.77445,-14.86171 -40.77445,-14.86171 z"
     fill="#2f2e41"
     id="path10"
     style="stroke-width:0.58637" />
  <path
     d="m 730.37473,445.68593 c 0,0 3.95286,13.83495 -2.96462,14.82317 a 27.003809,27.003809 0 0 0 -11.85855,4.94105 l 12.84675,16.79957 h 23.71707 l 14.82316,-14.82317 c 0,0 -19.76423,-14.82317 -15.81136,-23.71707 3.95283,-8.89392 -20.75245,1.97645 -20.75245,1.97645 z"
     fill="#ffb9b9"
     id="path12"
     style="stroke-width:0.58637" />
  <path
     d="m 730.37473,445.68593 c 0,0 3.95286,13.83495 -2.96462,14.82317 a 27.003809,27.003809 0 0 0 -11.85855,4.94105 l 12.84675,16.79957 h 23.71707 l 14.82316,-14.82317 c 0,0 -19.76423,-14.82317 -15.81136,-23.71707 3.95283,-8.89392 -20.75245,1.97645 -20.75245,1.97645 z"
     opacity="0.1"
     id="path14"
     style="stroke-width:0.58637" />
  <polygon
     points="861.213,715.904 852.787,740.779 891.549,754.261 918.513,755.946 916.828,732.352 "
     fill="#ffb9b9"
     id="polygon16"
     transform="matrix(0.58637236,0,0,0.58637236,236.25335,183.26265)" />
  <path
     d="m 765.45624,614.67008 c 0,0 0,13.83496 1.97641,13.83496 1.97642,0 28.65813,-2.96462 36.56385,0 7.90569,2.96463 19.76421,-7.9057 13.83495,-13.83496 -5.92927,-5.92925 -15.60083,-14.82317 -21.63535,-12.84675 -6.03457,1.97642 -30.73986,6.9175 -30.73986,6.9175 z"
     fill="#575a89"
     id="path18"
     style="stroke-width:0.58637" />
  <path
     d="m 692.8227,601.82333 c 0,0 -11.85853,23.71709 -3.95286,25.69351 7.90569,1.97641 16.7996,-0.98823 17.78781,-1.97642 0.98822,-0.98824 14.82318,-4.94108 16.79957,-2.96465 1.97637,1.97641 1.97642,-7.90569 1.97642,-7.90569 z"
     fill="#575a89"
     id="path20"
     style="stroke-width:0.58637" />
  <path
     d="m 702.70482,569.21235 c 0,0 -18.77603,25.69348 -4.94108,32.61098 13.83498,6.9175 80.04511,6.9175 84.98619,0 4.94108,-6.9175 6.91748,-28.65812 0,-30.63455 -6.91747,-1.97643 -80.04511,-1.97643 -80.04511,-1.97643 z"
     fill="#2f2e41"
     id="path22"
     style="stroke-width:0.58637" />
  <path
     d="m 702.70482,569.21235 c 0,0 -18.77603,25.69348 -4.94108,32.61098 13.83498,6.9175 80.04511,6.9175 84.98619,0 4.94108,-6.9175 6.91748,-28.65812 0,-30.63455 -6.91747,-1.97643 -80.04511,-1.97643 -80.04511,-1.97643 z"
     opacity="0.2"
     id="path24"
     style="stroke-width:0.58637" />
  <circle
     cx="738.28046"
     cy="429.87457"
     r="22.728867"
     fill="#ffb9b9"
     id="circle26"
     style="stroke-width:0.58637" />
  <path
     d="m 702.70482,465.45015 19.76423,-3.95286 c 0,0 4.94106,15.81142 20.75244,12.84675 15.81137,-2.96461 19.76422,-12.84675 19.76422,-12.84675 0,0 11.85853,4.94109 12.84675,4.94109 0.98821,0 13.83495,4.94105 13.83495,7.90566 0,2.96467 -14.82317,32.61099 -14.82317,32.61099 l 1.97643,53.36341 -73.12768,-1.97643 4.94107,-52.37521 z"
     fill="#dc5c01"
     id="path28"
     style="stroke-width:0.58637" />
  <path
     d="m 691.83449,491.14365 c 0,0 -5.92928,52.3752 -1.97643,56.32805 3.95285,3.95285 19.76423,14.82317 19.76423,14.82317 v -11.85855 l -7.9057,-14.82316 7.9057,-34.58739 z"
     fill="#ffb9b9"
     id="path30"
     style="stroke-width:0.58637" />
  <path
     d="m 794.11436,489.66134 c 0,0 -3.45874,53.85751 -3.45874,55.83393 0,1.97643 -8.89389,8.89392 -11.85852,8.89392 -2.96464,0 -4.94107,-4.94107 -4.94107,-4.94107 l 6.91749,-7.90568 -4.94106,-40.51667 z"
     fill="#ffb9b9"
     id="path32"
     style="stroke-width:0.58637" />
  <path
     d="m 784.72636,565.25951 c 0,0 44.46952,-24.70529 45.45772,0 0.98823,24.7053 -22.72886,34.5874 -22.72886,34.5874 0,0 -61.2691,18.37221 -63.73963,11.65661 -2.47054,-6.71557 -7.41158,-17.58587 -3.45874,-18.57409 3.95284,-0.98822 8.89391,-2.96462 10.87033,-0.98822 1.97642,1.97642 26.68168,-14.82317 26.68168,-14.82317 z"
     fill="#2f2e41"
     id="path34"
     style="stroke-width:0.58637" />
  <path
     d="m 805.47878,562.29487 c 0,0 -8.89389,3.95284 -11.85851,6.91748 -2.96465,2.96464 -15.8114,7.90569 -15.8114,7.90569"
     fill="none"
     stroke="#000000"
     stroke-miterlimit="10"
     stroke-width="1.17275"
     opacity="0.2"
     id="path36" />
  <path
     d="m 708.63409,467.42658 -5.92927,-1.97643 c 0,0 -21.74065,22.72887 -14.82319,28.65815 6.9175,5.92925 10.87032,7.90568 12.84675,9.88214 1.97642,1.97641 11.85854,2.96463 11.85854,2.96463 z"
     fill="#dc5c01"
     id="path38"
     style="stroke-width:0.58637" />
  <path
     d="m 780.77352,472.36762 8.89389,1.97642 c 0,0 6.91748,14.82319 8.89391,16.79958 1.9764,1.9764 -2.96462,0.98821 -5.92927,4.94105 -2.96464,3.95286 -5.92926,10.87032 -11.85853,10.87032 -5.92928,0 -13.83498,-9.88214 -13.83498,-9.88214 z"
     fill="#dc5c01"
     id="path40"
     style="stroke-width:0.58637" />
  <path
     d="m 704.68123,574.1534 c 0,0 -37.55203,-26.6817 -50.39879,-6.91747 -12.84675,19.76423 55.33985,46.44593 65.22197,50.39879 9.88212,3.95284 18.77601,7.9057 18.77601,7.9057 0,0 8.89389,-21.74067 8.89389,-25.69351 0,-3.95284 -6.91746,-3.95285 -8.89389,-3.95285 -1.97641,0 -10.87031,-1.97641 -12.84674,-4.94105 -1.97642,-2.96463 -20.75245,-16.79961 -20.75245,-16.79961 z"
     fill="#2f2e41"
     id="path42"
     style="stroke-width:0.58637" />
  <path
     d="m 683.92879,567.23593 c 0,0 9.88214,7.90569 18.77603,9.88214 8.89388,1.97643 11.85853,6.91747 11.85853,6.91747"
     fill="none"
     stroke="#000000"
     stroke-miterlimit="10"
     stroke-width="1.17275"
     opacity="0.2"
     id="path44" />
  <path
     d="m 697.86444,530.07958 0.78945,41.84128 a 5.2379177,5.2379177 0 0 0 5.29583,5.13879 l 77.86427,-0.87488 a 5.2379177,5.2379177 0 0 0 5.17038,-4.93591 l 2.36345,-40.96641 a 5.2379293,5.2379293 0 0 0 -5.22922,-5.53962 h -81.01716 a 5.2379234,5.2379234 0 0 0 -5.237,5.33675 z"
     fill="#575a89"
     id="path46"
     style="stroke-width:0.58637" />
  <path
     d="m 739.49474,401.32269 c 0,0 1.26645,4.22151 -5.91008,8.02084 -7.17653,3.79934 -9.2873,18.15244 -0.84432,22.37393 8.443,4.22148 10.97589,9.70941 6.7544,13.50876 -4.22149,3.79937 -11.82018,13.93094 -1.6886,16.46383 10.1316,2.53288 11.39803,7.59869 8.44299,9.70943 -2.95504,2.11074 6.75441,-3.79932 6.75441,-3.79932 0,0 1.6886,10.13158 10.55373,7.59866 8.86513,-2.53288 17.71038,-48.57504 7.82827,-60.43358 -9.18865,-11.02633 -31.8908,-13.44255 -31.8908,-13.44255 z"
     fill="#2f2e41"
     id="path48"
     style="stroke-width:0.58637" />
  <path
     d="m 736.79811,396.97745 c 0.001,-6.18471 18.50516,-1.74073 26.43837,6.89453 5.49354,5.97975 13.83766,14.97616 6.84554,21.31768 -6.99212,6.34155 11.98509,14.65466 17.07461,17.17512 5.08953,2.52045 15.13849,10.22808 6.06503,15.39884 -9.07345,5.17074 -8.92719,10.3904 -5.51248,11.62625 3.4147,1.23585 -7.52862,-1.83754 -7.52862,-1.83754 0,0 1.10558,10.21169 -8.11417,10.16277 -9.21975,-0.0488 -35.67049,-50.71795 -29.35163,-64.80176 5.87543,-13.0954 -5.91665,-15.93589 -5.91665,-15.93589 z"
     fill="#2f2e41"
     id="path50"
     style="stroke-width:0.58637" />
  <path
     d="m 740.80596,395.62209 c -24.74365,-1.48997 -27.22696,17.13549 -27.22696,17.13549 0.17105,10.77859 17.2879,5.52668 22.04198,7.13346 5.73554,-4.12596 16.79116,-11.93272 24.69783,-17.504 a 37.395175,37.395175 0 0 0 -19.51285,-6.76495 z"
     fill="#2f2e41"
     id="path52"
     style="stroke-width:0.58637" />
  <path
     d="m 733.75656,514.47424 c 0,0 -22.19542,-104.02211 -161.1193,-179.48172"
     fill="none"
     stroke="#3f3d56"
     stroke-miterlimit="10"
     stroke-width="1.17275"
     id="path54" />
  <polygon
     points="583.905,256.836 574.322,259.16 577.341,268.549 575.435,269.16 571.76,257.724 583.431,254.891 "
     fill="#3f3d56"
     id="polygon56"
     transform="matrix(0.58637236,0,0,0.58637236,236.25335,183.26265)" />
  <path
     d="m 276.40422,620.7618 c 0,13.17496 -7.83186,17.77515 -17.49377,17.77515 q -0.33572,0 -0.6704,-0.007 c -0.44767,-0.0104 -0.89107,-0.0309 -1.32913,-0.0606 -8.7197,-0.61712 -15.49423,-5.45393 -15.49423,-17.70692 0,-12.6804 16.20409,-28.6809 17.42128,-29.86505 l 0.002,-0.002 c 0.0471,-0.0459 0.0703,-0.0681 0.0703,-0.0681 0,0 17.49372,16.76045 17.49372,29.9354 z"
     fill="#dc5c01"
     id="path58"
     style="stroke-width:0.58637" />
  <path
     d="m 258.27308,636.52143 6.39827,-8.94032 -6.41425,9.92197 -0.0171,1.0264 c -0.44767,-0.0104 -0.89107,-0.031 -1.32912,-0.0606 l 0.68958,-13.18135 -0.004,-0.10231 0.0113,-0.0192 0.0649,-1.24491 -6.43028,-9.94647 6.45051,9.0128 0.0151,0.26433 0.52118,-9.95926 -5.50508,-10.278 5.57224,8.52996 0.54253,-20.64759 0.002,-0.0703 v 0.0681 l -0.0906,16.28197 5.48059,-6.45479 -5.50297,7.85737 -0.14501,8.91689 5.11714,-8.55768 -5.13846,9.86973 -0.081,4.95726 7.42895,-11.91085 -7.45666,13.64072 z"
     fill="#3f3d56"
     id="path60"
     style="stroke-width:0.58637" />
  <path
     d="m 359.84496,617.34853 3.74212,-2.78011 c 0,0 2.47704,13.83638 -0.28703,15.90944 -2.76407,2.07308 -13.12931,5.52816 -13.12931,9.67424 0,4.14612 -23.49459,9.67424 -24.18563,3.4551 -0.691,-6.21916 2.07307,-9.67424 2.07307,-9.67424 0,0 11.05627,-11.05628 12.43828,-13.12932 1.38204,-2.07306 4.83715,-6.21915 4.83715,-6.21915 z"
     fill="#2f2e41"
     id="path62"
     style="stroke-width:0.58637" />
  <path
     d="m 304.56361,445.2853 c 0,0 0.10367,0.60809 0.28324,1.72063 0.16593,0.98814 0.39392,2.38401 0.67037,4.10464 2.90229,17.71079 11.36726,69.848 10.79367,71.56864 -0.69102,2.07304 -5.52812,9.67423 0,11.74729 0.53209,0.20036 1.10561,0.84993 1.72062,1.87263 a 40.163175,40.163175 0 0 1 2.92298,6.89636 c 3.29619,9.56367 6.82044,24.86971 8.8589,35.46987 0.89144,4.6575 1.49945,8.40279 1.67911,10.36526 a 5.6361057,5.6361057 0 0 1 0.0208,1.36825 c -0.69103,2.76406 4.14608,12.4383 6.21915,15.20236 2.07306,2.76408 5.52814,5.52814 4.83711,8.2922 -0.69103,2.76409 17.27543,10.36527 19.34847,5.52815 2.07305,-4.83711 2.07305,-7.60119 2.76408,-8.98322 0.69102,-1.38204 1.38204,-11.05627 -2.07306,-12.43831 -3.45508,-1.38204 -1.38204,-25.56763 -4.83711,-30.40474 -1.15394,-1.61007 -2.91607,-7.06221 -4.76113,-13.61997 -0.72551,-2.57056 -1.45801,-5.307 -2.17673,-8.0503 -2.91606,-11.24287 -5.50044,-22.55482 -5.50044,-22.55482 l 0.691,-80.84899 -38.00593,-4.83712 -0.97427,2.14907 -1.94181,4.26357 z"
     fill="#2f2e41"
     id="path64"
     style="stroke-width:0.58637" />
  <path
     d="m 302.49057,577.96055 c 0,0 -5.52815,-5.52814 -8.2922,0 -2.76408,5.52813 -5.52815,26.94967 -10.36527,31.78678 -4.83711,4.83711 -11.05626,29.02271 -4.14609,30.40474 6.91017,1.38205 14.51136,-2.07304 15.20237,-6.21915 0.69101,-4.14611 15.20234,-25.56761 15.20234,-27.64065 0,-2.07306 -9.67424,-9.67424 -9.67424,-9.67424 z"
     fill="#2f2e41"
     id="path66"
     style="stroke-width:0.58637" />
  <path
     d="m 387.48564,407.27936 c 0,0 -8.98324,80.84898 -11.05628,88.45017 -2.07304,7.60117 -13.12931,36.62389 -16.5844,41.46103 -3.45508,4.83711 -25.56762,44.22507 -28.3317,46.29812 -2.76406,2.07305 -8.2922,7.60119 -8.2922,7.60119 0,0 -10.36525,10.36526 -11.74728,12.43832 -1.38204,2.07304 -13.12933,-4.1461 -13.82034,-8.2922 -0.69103,-4.14612 0.69101,-11.05628 1.38201,-13.82036 0.69103,-2.76405 -1.38201,-6.91017 0.69103,-8.98322 2.07305,-2.07304 12.43832,-12.43829 12.43832,-17.27542 0,-4.83712 17.96642,-33.16883 24.87659,-39.38798 6.91019,-6.21915 5.52813,-16.5844 5.52813,-16.5844 V 457.03257 L 304.56361,445.2853 c 0,0 2.07304,-33.16882 6.91017,-33.16882 4.83711,0 68.41066,-11.05626 76.01186,-4.83712 z"
     fill="#2f2e41"
     id="path68"
     style="stroke-width:0.58637" />
  <circle
     cx="331.51321"
     cy="269.07596"
     r="22.803566"
     fill="#9f616a"
     id="circle70"
     style="stroke-width:0.58637" />
  <path
     d="m 339.11445,287.0424 c 0,0 2.76405,10.36527 6.21916,13.12935 3.45508,2.76405 -8.98323,14.51134 -8.98323,14.51134 l -23.49457,1.38202 -4.14611,-13.12931 c 0,0 7.60119,-15.20237 5.52814,-24.87663 -2.07304,-9.67423 24.87661,8.98323 24.87661,8.98323 z"
     fill="#9f616a"
     id="path72"
     style="stroke-width:0.58637" />
  <path
     d="m 348.78868,298.78969 c 0,0 -6.21916,0.69102 -7.60119,2.76406 -1.38203,2.07305 -11.05627,8.29221 -18.65745,6.91018 -7.6012,-1.38202 -12.43831,-3.45509 -13.82034,-2.76408 -1.38203,0.69103 -4.14609,15.20241 -4.14609,15.20241 l 7.60119,22.11251 -1.38203,60.80952 -2.07307,16.58439 c 0,0 -4.14609,-5.52813 12.4383,-2.07304 16.58441,3.45508 38.00593,-2.76408 44.91613,-3.45509 6.91017,-0.69102 18.65746,-2.76407 19.34848,-6.91015 0.69102,-4.14611 -2.07304,-19.34851 -2.07304,-19.34851 l -11.0563,-46.29813 -6.91016,-24.87662 z"
     fill="#dc5c01"
     id="path74"
     style="stroke-width:0.58637" />
  <path
     d="m 342.25242,295.67086 c 0,0 5.84525,-3.10033 7.91832,-0.33625 2.07304,2.76408 28.33166,6.91018 28.33166,8.98322 0,2.07306 5.52816,58.04545 4.14613,62.88259 -1.38205,4.83715 2.76406,10.36525 2.76406,10.36525 l 4.83711,20.73052 c 0,0 13.12932,39.38795 7.60119,40.76999 -5.52813,1.38202 -10.36525,0 -12.4383,0 -2.07304,0 -1.38203,-26.25864 -6.91019,-33.16884 -5.52812,-6.91015 -13.12931,-24.18557 -14.51135,-27.64067 -1.38203,-3.45507 -18.65744,-51.13524 -17.96643,-56.66338 0.691,-5.52814 -3.7722,-25.92243 -3.7722,-25.92243 z"
     fill="#d0cde1"
     id="path76"
     style="stroke-width:0.58637" />
  <path
     d="m 313.54683,298.78969 c 0,0 -5.52814,0 -6.21916,1.38206 -0.69102,1.38201 -7.60119,10.36523 -10.36526,12.43829 -2.76408,2.07308 -12.43831,11.05627 -12.43831,13.12931 0,2.07306 20.03952,17.27542 20.03952,17.27542 0,0 8.2922,40.77 4.14608,54.59036 -4.14609,13.82032 -10.36525,46.98916 -7.60119,49.0622 2.76408,2.07304 8.98323,2.76408 8.98323,0 0,-2.76406 4.14611,-32.4778 7.6012,-38.69693 3.45509,-6.21916 13.82033,-45.60712 9.67423,-56.66342 -4.14611,-11.05627 -13.82034,-52.51729 -13.82034,-52.51729 z"
     fill="#d0cde1"
     id="path78"
     style="stroke-width:0.58637" />
  <path
     d="m 404.76106,367.2004 c 0,0 0.69103,21.42149 -6.91017,32.47779 -7.60119,11.05627 -12.4383,23.49456 -12.4383,23.49456 0,0 -12.43831,-3.45508 -14.51135,-7.60119 -2.07306,-4.14611 -15.20239,-0.69101 -15.20239,-2.07305 0,-1.38203 15.89339,-8.29219 17.27543,-9.67422 1.38202,-1.38205 6.21915,-1.38204 8.98324,-4.1461 2.76407,-2.76409 3.45507,-8.98326 3.45507,-8.98326 l 2.76407,-17.96642 z"
     fill="#9f616a"
     id="path80"
     style="stroke-width:0.58637" />
  <path
     d="m 347.21914,255.01577 c 1.75431,-0.15936 3.56361,-0.33469 5.11404,-1.17085 3.47401,-1.8735 4.39524,-7.20877 1.75063,-10.13878 a 13.101904,13.101904 0 0 0 -2.42942,-1.95344 l -5.25262,-3.57522 c -2.32312,-1.58123 -4.70117,-3.18839 -7.41069,-3.93381 -2.45071,-0.6742 -5.03907,-0.60493 -7.57594,-0.44724 -4.92471,0.30609 -9.87992,0.93836 -14.51189,2.63869 -4.63202,1.70031 -8.95287,4.5449 -11.75821,8.60403 -4.44738,6.43496 -4.50851,15.11367 -2.05904,22.54248 2.44947,7.42883 7.10237,13.89786 11.68704,20.23572 l 2.37885,-11.60712 c 0.21191,-1.03383 0.48591,-2.1669 1.34574,-2.77875 2.13708,-1.52075 4.75118,1.60164 7.37402,1.58138 1.68527,-0.0131 3.10019,-1.39915 3.73885,-2.95876 0.63868,-1.55964 0.68071,-3.2868 0.82849,-4.96563 0.31297,-3.55589 1.55586,-8.50362 4.92329,-10.46469 3.13792,-1.82743 8.32973,-1.28764 11.85686,-1.60801 z"
     fill="#2f2e41"
     id="path82"
     style="stroke-width:0.58637" />
  <path
     d="m 345.93994,445.84301 c 0,0 -2.33388,67.50745 -3.71591,69.58052 -1.38206,2.07305 0,-69.79272 0,-69.79272 z"
     opacity="0.1"
     id="path84"
     style="stroke-width:0.58637" />
  <path
     d="m 372.97428,304.31783 h 5.52812 c 0,0 23.49459,31.78678 20.73053,33.85983 -2.76407,2.07305 0,7.6012 0,7.6012 l 5.52813,10.36524 c 0,0 6.91016,6.21918 4.83711,7.60118 -2.07304,1.38205 -4.83711,6.91019 -4.83711,6.91019 0,0 -13.82035,-2.07305 -17.96644,6.21915 l -8.96236,-11.31443 z"
     fill="#d0cde1"
     id="path86"
     style="stroke-width:0.58637" />
  <rect
     x="205.96594"
     y="433.83243"
     width="20.523033"
     height="38.245342"
     transform="rotate(-22.43787)"
     fill="#2f2e41"
     id="rect88"
     style="stroke-width:0.58637" />
  <ellipse
     cx="216.52075"
     cy="448.37637"
     rx="4.1046062"
     ry="3.7706676"
     transform="rotate(-22.43785)"
     fill="#dc5c01"
     id="ellipse90"
     style="stroke-width:0.58637" />
  <path
     d="m 359.15393,359.59919 c 0,0 -49.75321,41.46103 -58.04542,28.3317 -8.29221,-13.12932 8.98323,-24.18561 8.98323,-24.18561 0,0 15.20237,0.69104 32.47778,-10.36524 l 17.27544,-7.60118 c 0,0 15.77111,-22.51611 21.14542,-13.94219 5.37431,8.57395 -9.17387,23.49617 -21.83645,27.76252 z"
     fill="#9f616a"
     id="path92"
     style="stroke-width:0.58637" />
  <path
     d="m 292.12529,322.9753 -7.60119,2.76405 v 20.73053 l -2.76405,4.14608 c 0,0 0.691,8.29221 2.76405,10.36526 2.07307,2.07306 6.21916,1.38206 4.83713,6.21918 a 26.191494,26.191494 0 0 0 -0.69102,9.67422 c 0,0 12.4383,15.89337 13.12932,13.82031 0.69104,-2.07304 10.36527,-27.64065 11.7473,-27.64065 1.38204,0 -13.82035,-40.07898 -13.82035,-40.07898 z"
     fill="#d0cde1"
     id="path94"
     style="stroke-width:0.58637" />
  <path
     d="m 382.99403,427.66436 c 0,0 7.14495,-6.91016 3.57248,-7.25568 -3.57247,-0.34548 -16.01079,-7.25567 -18.08384,-3.8006 -2.07306,3.45511 14.51136,11.05628 14.51136,11.05628 z"
     fill="#2f2e41"
     id="path96"
     style="stroke-width:0.58637" />
  <ellipse
     cx="518.88477"
     cy="290.56906"
     rx="9.9683304"
     ry="5.2773519"
     fill="#57b894"
     id="ellipse98"
     style="stroke-width:0.58637" />
  <path
     d="m 556.99902,308.16018 q -33.71639,-12.73398 -67.43281,0 v -27.55951 a 116.71027,116.71027 0 0 1 67.43281,0 z"
     fill="none"
     stroke="#3f3d56"
     stroke-miterlimit="10"
     stroke-width="1.17275"
     id="path100" />
  <path
     d="m 547.61708,302.4607 q -24.33445,-9.19059 -48.66891,0 v -19.89076 a 84.234405,84.234405 0 0 1 48.66891,0 z"
     fill="none"
     stroke="#3f3d56"
     stroke-miterlimit="10"
     stroke-width="1.17275"
     id="path102" />
  <ellipse
     cx="522.40314"
     cy="288.2236"
     rx="9.9683304"
     ry="5.2773519"
     fill="none"
     stroke="#3f3d56"
     stroke-miterlimit="10"
     stroke-width="1.17275"
     id="ellipse104" />
  <ellipse
     cx="449.81473"
     cy="422.20508"
     rx="9.9683304"
     ry="5.2773519"
     transform="rotate(-11.53546)"
     fill="#57b894"
     id="ellipse106"
     style="stroke-width:0.58637" />
  <path
     d="m 566.02126,333.33963 q -35.58182,-5.73436 -66.07077,13.48483 l -5.51117,-27.00282 a 116.71028,116.71028 0 0 1 66.07075,-13.48484 z"
     fill="none"
     stroke="#3f3d56"
     stroke-miterlimit="10"
     stroke-width="1.17275"
     id="path108" />
  <path
     d="m 555.68909,329.63146 q -25.6808,-4.13873 -47.68587,9.73253 l -3.97765,-19.48901 a 84.234382,84.234382 0 0 1 47.68585,-9.73253 z"
     fill="none"
     stroke="#3f3d56"
     stroke-miterlimit="10"
     stroke-width="1.17275"
     id="path110" />
  <ellipse
     cx="453.33301"
     cy="419.85962"
     rx="9.9683304"
     ry="5.2773519"
     transform="rotate(-11.53546)"
     fill="none"
     stroke="#3f3d56"
     stroke-miterlimit="10"
     stroke-width="1.17275"
     id="ellipse112" />
  <ellipse
     cx="-319.35455"
     cy="546.57965"
     rx="5.2773519"
     ry="9.9683304"
     transform="rotate(-86.0194)"
     fill="#57b894"
     id="ellipse114"
     style="stroke-width:0.58637" />
  <path
     d="m 559.89302,376.72155 q -32.75109,-15.04381 -67.27016,-4.6811 l 1.91313,-27.49301 a 116.71035,116.71035 0 0 1 67.27015,4.68109 z"
     fill="none"
     stroke="#3f3d56"
     stroke-miterlimit="10"
     stroke-width="1.17275"
     id="path116" />
  <path
     d="m 550.92934,370.38456 q -23.63773,-10.85768 -48.55148,-3.37852 l 1.3808,-19.84281 a 84.234382,84.234382 0 0 1 48.55151,3.37854 z"
     fill="none"
     stroke="#3f3d56"
     stroke-miterlimit="10"
     stroke-width="1.17275"
     id="path118" />
  <ellipse
     cx="-317.00903"
     cy="550.09778"
     rx="5.2773519"
     ry="9.9683304"
     transform="rotate(-86.0194)"
     fill="none"
     stroke="#3f3d56"
     stroke-miterlimit="10"
     stroke-width="1.17275"
     id="ellipse120" />
  <path
     d="m 479.55204,308.8 c 0,0 -43.0961,-5.89579 -73.87229,12.14017"
     fill="none"
     stroke="#3f3d56"
     stroke-miterlimit="10"
     stroke-width="1.17275"
     id="path122" />
  <polygon
     points="292.617,225.063 289.633,234.462 299.227,236.751 298.76,238.698 287.077,235.907 290.708,224.459 "
     fill="#3f3d56"
     id="polygon124"
     transform="matrix(0.58637236,0,0,0.58637236,236.25335,183.26265)" />
</svg>
