<?xml version="1.0" encoding="UTF-8" standalone="no"?>
<svg
   xmlns:dc="http://purl.org/dc/elements/1.1/"
   xmlns:cc="http://creativecommons.org/ns#"
   xmlns:rdf="http://www.w3.org/1999/02/22-rdf-syntax-ns#"
   xmlns:svg="http://www.w3.org/2000/svg"
   xmlns="http://www.w3.org/2000/svg"
   xmlns:sodipodi="http://sodipodi.sourceforge.net/DTD/sodipodi-0.dtd"
   xmlns:inkscape="http://www.inkscape.org/namespaces/inkscape"
   id="ade8c9af-8376-4472-9bc3-28567412a130"
   data-name="Layer 1"
   width="831"
   height="729.98934"
   viewBox="0 0 831 729.98934"
   version="1.1"
   sodipodi:docname="taas5.svg"
   inkscape:version="1.0.1 (3bc2e813f5, 2020-09-07)">
  <metadata
     id="metadata95">
    <rdf:RDF>
      <cc:Work
         rdf:about="">
        <dc:format>image/svg+xml</dc:format>
        <dc:type
           rdf:resource="http://purl.org/dc/dcmitype/StillImage" />
      </cc:Work>
    </rdf:RDF>
  </metadata>
  <defs
     id="defs93" />
  <sodipodi:namedview
     pagecolor="#ffffff"
     bordercolor="#666666"
     borderopacity="1"
     objecttolerance="10"
     gridtolerance="10"
     guidetolerance="10"
     inkscape:pageopacity="0"
     inkscape:pageshadow="2"
     inkscape:window-width="1920"
     inkscape:window-height="1009"
     id="namedview91"
     showgrid="false"
     inkscape:zoom="0.40780317"
     inkscape:cx="104.34242"
     inkscape:cy="607.17335"
     inkscape:window-x="-8"
     inkscape:window-y="-8"
     inkscape:window-maximized="1"
     inkscape:current-layer="ade8c9af-8376-4472-9bc3-28567412a130"
     inkscape:document-rotation="0" />
  <path
     d="m 569.1815,543.34381 v -35.31097 c 0,0 13.76106,25.03397 0,35.31097 z"
     fill="#f1f1f1"
     id="path2"
     style="stroke-width:0.488125" />
  <path
     d="m 570.03155,543.33761 -26.01203,-23.87969 c 0,0 27.7476,6.79252 26.01203,23.87969 z"
     fill="#f1f1f1"
     id="path4"
     style="stroke-width:0.488125" />
  <path
     d="m 267.75578,543.34381 v -35.31097 c 0,0 -13.76105,25.03397 0,35.31097 z"
     fill="#f1f1f1"
     id="path6"
     style="stroke-width:0.488125" />
  <path
     d="m 266.90573,543.33761 26.01202,-23.87969 c 0,0 -27.74759,6.79252 -26.01202,23.87969 z"
     fill="#f1f1f1"
     id="path8"
     style="stroke-width:0.488125" />
  <path
     d="m 504.15325,281.45319 h -1.88532 v -51.648 a 29.892444,29.892444 0 0 0 -29.89241,-29.89247 h -109.4233 a 29.892439,29.892439 0 0 0 -29.8925,29.89238 v 283.34496 a 29.892454,29.892454 0 0 0 29.8924,29.89247 h 109.42324 a 29.892454,29.892454 0 0 0 29.89255,-29.89236 V 318.21709 h 1.88534 z"
     fill="#3f3d56"
     id="path10"
     style="stroke-width:0.488125" />
  <path
     d="m 473.58157,207.68969 h -14.28335 a 10.605782,10.605782 0 0 1 -9.8195,14.61131 h -62.68719 a 10.605763,10.605763 0 0 1 -9.81951,-14.61132 h -13.34068 a 22.323354,22.323354 0 0 0 -22.32337,22.32333 V 512.9422 a 22.323348,22.323348 0 0 0 22.32335,22.32337 h 109.95025 a 22.323354,22.323354 0 0 0 22.32337,-22.32333 v 0 -282.92921 a 22.323334,22.323334 0 0 0 -22.32337,-22.32334 z"
     fill="#ffffff"
     id="path12"
     style="stroke-width:0.488125" />
  <path
     d="M 470.82734,530.40765 H 366.38557 c -12.00067,0 -21.76388,-8.71427 -21.76388,-19.42539 v -14.06315 c 0,-8.5372 7.77532,-15.48273 17.33236,-15.48273 h 113.30479 c 9.55706,0 17.33237,6.94553 17.33237,15.48273 v 14.06315 c 0,10.71112 -9.76321,19.42539 -21.76387,19.42539 z"
     fill="#e5e5e5"
     id="path14"
     style="stroke-width:0.488125" />
  <path
     d="m 377.36447,294.04521 h -23.29701 a 1.575976,1.575976 0 0 1 -1.57413,-1.57412 v -23.297 a 1.575976,1.575976 0 0 1 1.57413,-1.57413 h 23.29701 a 1.575976,1.575976 0 0 1 1.57411,1.57413 v 23.297 a 1.575976,1.575976 0 0 1 -1.57411,1.57412 z"
     fill="#dc5c01"
     id="path16"
     style="stroke-width:0.488125" />
  <path
     d="m 412.62479,294.04521 h -23.297 a 1.575976,1.575976 0 0 1 -1.57412,-1.57412 v -23.297 a 1.5759712,1.5759712 0 0 1 1.57412,-1.57413 h 23.297 a 1.5759712,1.5759712 0 0 1 1.57412,1.57413 v 23.297 a 1.575976,1.575976 0 0 1 -1.57412,1.57412 z"
     fill="#e5e5e5"
     id="path18"
     style="stroke-width:0.488125" />
  <path
     d="m 447.88513,294.04521 h -23.297 a 1.575976,1.575976 0 0 1 -1.57413,-1.57412 v -23.297 a 1.5759712,1.5759712 0 0 1 1.57413,-1.57413 h 23.297 a 1.5759712,1.5759712 0 0 1 1.57412,1.57413 v 23.297 a 1.575976,1.575976 0 0 1 -1.57412,1.57412 z"
     fill="#e5e5e5"
     id="path20"
     style="stroke-width:0.488125" />
  <path
     d="m 483.14546,294.04521 h -23.29702 a 1.575976,1.575976 0 0 1 -1.57411,-1.57412 v -23.297 a 1.575976,1.575976 0 0 1 1.57411,-1.57413 h 23.29702 a 1.575976,1.575976 0 0 1 1.57411,1.57413 v 23.297 a 1.575976,1.575976 0 0 1 -1.57411,1.57412 z"
     fill="#e5e5e5"
     id="path22"
     style="stroke-width:0.488125" />
  <path
     d="m 377.28114,337.17616 h -23.297 a 1.575976,1.575976 0 0 1 -1.57412,-1.57414 v -23.297 a 1.5759712,1.5759712 0 0 1 1.57412,-1.57412 h 23.297 a 1.5759712,1.5759712 0 0 1 1.57412,1.57412 v 23.297 a 1.575976,1.575976 0 0 1 -1.57412,1.57414 z"
     fill="#e5e5e5"
     id="path24"
     style="stroke-width:0.488125" />
  <path
     d="m 412.54147,337.17616 h -23.29701 a 1.575976,1.575976 0 0 1 -1.57413,-1.57414 v -23.297 a 1.5759712,1.5759712 0 0 1 1.57413,-1.57412 h 23.29701 a 1.575976,1.575976 0 0 1 1.57412,1.57412 v 23.297 a 1.5759809,1.5759809 0 0 1 -1.57412,1.57414 z"
     fill="#e5e5e5"
     id="path26"
     style="stroke-width:0.488125" />
  <path
     d="m 447.80179,337.17616 h -23.297 a 1.5759809,1.5759809 0 0 1 -1.57412,-1.57414 v -23.297 a 1.575976,1.575976 0 0 1 1.57412,-1.57412 h 23.297 a 1.575976,1.575976 0 0 1 1.57413,1.57412 v 23.297 a 1.5759809,1.5759809 0 0 1 -1.57413,1.57414 z"
     fill="#dc5c01"
     id="path28"
     style="stroke-width:0.488125" />
  <path
     d="m 483.06213,337.17616 h -23.297 a 1.5759809,1.5759809 0 0 1 -1.57413,-1.57414 v -23.297 a 1.575976,1.575976 0 0 1 1.57413,-1.57412 h 23.297 a 1.5759712,1.5759712 0 0 1 1.57411,1.57412 v 23.297 a 1.575976,1.575976 0 0 1 -1.57411,1.57414 z"
     fill="#dc5c01"
     id="path30"
     style="stroke-width:0.488125" />
  <path
     d="M 377.19781,380.30708 H 353.9008 a 1.575976,1.575976 0 0 1 -1.57411,-1.57412 v -23.29699 a 1.5759712,1.5759712 0 0 1 1.57411,-1.57414 h 23.29701 a 1.575976,1.575976 0 0 1 1.57413,1.57414 v 23.29699 a 1.5759809,1.5759809 0 0 1 -1.57413,1.57412 z"
     fill="#e5e5e5"
     id="path32"
     style="stroke-width:0.488125" />
  <path
     d="m 412.45814,380.30708 h -23.29701 a 1.5759809,1.5759809 0 0 1 -1.57412,-1.57412 v -23.29699 a 1.575976,1.575976 0 0 1 1.57412,-1.57414 h 23.29701 a 1.575976,1.575976 0 0 1 1.57412,1.57414 v 23.29699 a 1.5759809,1.5759809 0 0 1 -1.57412,1.57412 z"
     fill="#e5e5e5"
     id="path34"
     style="stroke-width:0.488125" />
  <path
     d="m 447.71846,380.30708 h -23.29697 a 1.5759809,1.5759809 0 0 1 -1.57412,-1.57412 v -23.29699 a 1.575976,1.575976 0 0 1 1.57412,-1.57414 h 23.297 a 1.5759712,1.5759712 0 0 1 1.57413,1.57414 v 23.29699 a 1.575976,1.575976 0 0 1 -1.57416,1.57412 z"
     fill="#e5e5e5"
     id="path36"
     style="stroke-width:0.488125" />
  <path
     d="M 482.97881,380.30708 H 459.6818 a 1.575976,1.575976 0 0 1 -1.57413,-1.57412 v -23.29699 a 1.5759712,1.5759712 0 0 1 1.57413,-1.57414 h 23.29701 a 1.5759712,1.5759712 0 0 1 1.57411,1.57414 v 23.29699 a 1.575976,1.575976 0 0 1 -1.57411,1.57412 z"
     fill="#e5e5e5"
     id="path38"
     style="stroke-width:0.488125" />
  <path
     d="m 377.11448,423.43803 h -23.29701 a 1.5759809,1.5759809 0 0 1 -1.5741,-1.57413 v -23.297 a 1.575976,1.575976 0 0 1 1.5741,-1.57412 h 23.29701 a 1.575976,1.575976 0 0 1 1.57413,1.57412 v 23.297 a 1.5759809,1.5759809 0 0 1 -1.57413,1.57413 z"
     fill="#e5e5e5"
     id="path40"
     style="stroke-width:0.488125" />
  <path
     d="m 412.3748,423.43803 h -23.297 a 1.5759809,1.5759809 0 0 1 -1.57412,-1.57413 v -23.297 a 1.575976,1.575976 0 0 1 1.57412,-1.57412 h 23.297 a 1.5759712,1.5759712 0 0 1 1.57412,1.57412 v 23.297 a 1.575976,1.575976 0 0 1 -1.57412,1.57413 z"
     fill="#e5e5e5"
     id="path42"
     style="stroke-width:0.488125" />
  <path
     d="m 447.63514,423.43803 h -23.297 a 1.575976,1.575976 0 0 1 -1.57413,-1.57413 v -23.297 a 1.5759712,1.5759712 0 0 1 1.57413,-1.57412 h 23.297 a 1.5759712,1.5759712 0 0 1 1.57412,1.57412 v 23.297 a 1.575976,1.575976 0 0 1 -1.57412,1.57413 z"
     fill="#e5e5e5"
     id="path44"
     style="stroke-width:0.488125" />
  <path
     d="m 482.89548,423.43803 h -23.29702 a 1.5759809,1.5759809 0 0 1 -1.57411,-1.57413 v -23.297 a 1.575976,1.575976 0 0 1 1.57411,-1.57412 h 23.29702 a 1.575976,1.575976 0 0 1 1.57413,1.57412 v 23.297 a 1.5759809,1.5759809 0 0 1 -1.57413,1.57413 z"
     fill="#e5e5e5"
     id="path46"
     style="stroke-width:0.488125" />
  <path
     d="m 377.36447,519.77428 h -23.29701 a 1.5759809,1.5759809 0 0 1 -1.57413,-1.57412 v -23.297 a 1.575976,1.575976 0 0 1 1.57413,-1.57411 h 23.29701 a 1.575976,1.575976 0 0 1 1.57411,1.57411 v 23.297 a 1.5759809,1.5759809 0 0 1 -1.57411,1.57412 z"
     fill="#ffffff"
     id="path48"
     style="stroke-width:0.488125" />
  <path
     d="m 412.62479,519.77428 h -23.297 a 1.575976,1.575976 0 0 1 -1.57412,-1.57412 v -23.297 a 1.5759712,1.5759712 0 0 1 1.57412,-1.57411 h 23.297 a 1.5759712,1.5759712 0 0 1 1.57412,1.57411 v 23.297 a 1.575976,1.575976 0 0 1 -1.57412,1.57412 z"
     fill="#ffffff"
     id="path50"
     style="stroke-width:0.488125" />
  <path
     d="m 447.88513,519.77428 h -23.297 a 1.575976,1.575976 0 0 1 -1.57413,-1.57412 v -23.297 a 1.5759712,1.5759712 0 0 1 1.57413,-1.57411 h 23.297 a 1.5759712,1.5759712 0 0 1 1.57412,1.57411 v 23.297 a 1.575976,1.575976 0 0 1 -1.57412,1.57412 z"
     fill="#ffffff"
     id="path52"
     style="stroke-width:0.488125" />
  <path
     d="m 483.14546,519.77428 h -23.29702 a 1.5759809,1.5759809 0 0 1 -1.57411,-1.57412 v -23.297 a 1.575976,1.575976 0 0 1 1.57411,-1.57411 h 23.29702 a 1.575976,1.575976 0 0 1 1.57411,1.57411 v 23.297 a 1.5759809,1.5759809 0 0 1 -1.57411,1.57412 z"
     fill="#ffffff"
     id="path54"
     style="stroke-width:0.488125" />
  <circle
     cx="407.18942"
     cy="467.51337"
     r="3.1482422"
     fill="#e5e5e5"
     id="circle56"
     style="stroke-width:0.488125" />
  <circle
     cx="418.5231"
     cy="467.51337"
     r="3.1482422"
     fill="#e5e5e5"
     id="circle58"
     style="stroke-width:0.488125" />
  <circle
     cx="429.85681"
     cy="467.51337"
     r="3.1482422"
     fill="#e5e5e5"
     id="circle60"
     style="stroke-width:0.488125" />
  <path
     d="M 620.9344,543.55296 H 216.2785 a 0.488135,0.488135 0 0 1 0,-0.97627 h 404.6559 a 0.488135,0.488135 0 0 1 0,0.97627 z"
     fill="#cbcbcb"
     id="path62"
     style="stroke-width:0.488125" />
  <path
     d="m 375.09692,447.44198 a 6.3696694,6.3696694 0 0 0 -0.85897,-9.72926 l 6.14825,-21.78461 -11.20942,3.56495 -4.11996,20.14049 a 6.4041701,6.4041701 0 0 0 10.0401,7.80843 z"
     fill="#ffb7b7"
     id="path64"
     style="stroke-width:0.488125" />
  <path
     d="m 378.28422,434.08918 a 2.9137812,2.9137812 0 0 1 -0.60776,0.0514 l -10.75323,-0.21546 a 2.8503981,2.8503981 0 0 1 -2.76253,-3.26702 l 10.90845,-73.70244 a 9.0360977,9.0360977 0 0 1 8.91182,-7.67165 v 0 a 8.9876811,8.9876811 0 0 1 8.70328,11.14158 l -7.73215,31.31647 -4.38494,39.86066 a 2.8341337,2.8341337 0 0 1 -2.28294,2.48646 z"
     fill="#3f3d56"
     id="path66"
     style="stroke-width:0.488125" />
  <polygon
     points="342.105,718.105 354.365,718.105 360.198,670.817 342.103,670.818 "
     fill="#ffb7b7"
     id="polygon68"
     transform="matrix(0.48812533,0,0,0.48812533,215.79038,199.91272)" />
  <path
     d="m 381.2542,548.48432 11.7853,-4.8e-4 h 4.9e-4 a 7.5109308,7.5109308 0 0 1 7.51053,7.51039 v 0.24407 l -19.29597,7.1e-4 z"
     fill="#2f2e41"
     id="path70"
     style="stroke-width:0.488125" />
  <polygon
     points="394.382,714.123 406.565,715.489 417.632,669.146 399.65,667.13 "
     fill="#ffb7b7"
     id="polygon72"
     transform="matrix(0.48812533,0,0,0.48812533,215.79038,199.91272)" />
  <path
     d="m 406.99887,546.38259 11.71194,1.3131 4.8e-4,5e-5 a 7.5109357,7.5109357 0 0 1 6.62664,8.30073 l -0.0272,0.24254 -19.17582,-2.14999 z"
     fill="#2f2e41"
     id="path74"
     style="stroke-width:0.488125" />
  <path
     d="m 377.16391,421.98776 c 0,0 -8.20441,18.16259 -0.95926,29.95965 l 4.31641,91.8496 h 9.91048 l 9.61453,-74.19504 17.08438,21.96564 -10.4086,51.26662 12.12089,0.68046 16.83648,-51.94708 c 0,0 -12.93429,-57.28087 -17.2059,-58.66014 l -2.80722,-13.09428 z"
     fill="#2f2e41"
     id="path76"
     style="stroke-width:0.488125" />
  <path
     d="m 373.51242,437.9334 c 0,0 -7.39106,8.48261 12.13396,11.41136 19.52501,2.92875 40.02626,-1.46438 40.51441,-7.32188 0.48812,-5.85751 -52.64837,-4.08948 -52.64837,-4.08948 z"
     fill="#cbcbcb"
     id="path78"
     style="stroke-width:0.488125" />
  <path
     d="m 471.38978,332.7087 a 5.6677794,5.6677794 0 0 1 -6.86242,5.33269 l -7.38041,10.64328 -7.56177,-2.90754 10.63366,-14.88398 a 5.6984824,5.6984824 0 0 1 11.17094,1.81555 z"
     fill="#ffb7b7"
     id="path80"
     style="stroke-width:0.488125" />
  <path
     d="m 408.97262,346.40239 -10.43484,-4.72067 -13.36955,0.95576 c 0,0 -16.11812,18.8447 -9.77248,36.90535 l -3.90501,62.96816 c 24.89439,6.83376 36.21065,-5.98335 54.1819,-0.48811 l -5.55093,-69.9822 z"
     fill="#3f3d56"
     id="path82"
     style="stroke-width:0.488125" />
  <path
     d="m 401.99857,350.98751 6.97405,-4.58515 c 0,0 9.68756,-1.46437 13.55989,2.29257 0,0 13.14355,1.10012 16.31794,4.38103 l 3.49511,0.78789 11.61098,-15.03515 7.1052,3.86067 -10.25064,27.82315 -30.68941,1.52815 z"
     fill="#3f3d56"
     id="path84"
     style="stroke-width:0.488125" />
  <circle
     cx="193.49608"
     cy="472.66873"
     r="16.47171"
     transform="rotate(-28.66318)"
     fill="#ffb7b7"
     id="circle86"
     style="stroke-width:0.488125" />
  <path
     d="m 382.25719,309.05521 c 2.94014,-5.28817 6.61428,-8.71225 12.66357,-8.58868 6.04929,0.12359 11.28199,-0.11555 14.00371,5.28828 a 8.887469,8.887469 0 0 0 1.04603,-4.38293 5.0195392,5.0195392 0 0 1 2.21576,5.04953 3.6657333,3.6657333 0 0 0 1.80984,-3.00943 c 2.0189,0.67187 2.54388,3.51703 1.5223,5.38348 -1.02156,1.86647 -3.02502,2.94574 -4.94722,3.85814 -1.9222,0.91241 -1.03478,5.738 -2.29,7.45605 -0.87603,1.19904 -1.27669,2.66849 -1.86698,4.0311 a 0.26403187,0.26403187 0 0 1 -0.11943,0.12477 c -1.35346,0.75468 -2.20774,2.10313 -1.9688,3.63424 a 0.59196911,0.59196911 0 0 1 -0.0192,0.34636 c -1.71341,3.22798 -3.56296,6.60529 -6.66867,8.53146 a 11.057815,11.057815 0 0 1 -8.30722,1.28412 c -3.17455,-0.75902 -5.91896,-2.86373 -7.89789,-5.45941 -1.97895,-2.59568 -3.25191,-5.66347 -4.2084,-8.78419 -0.8485,-2.76835 -1.46551,-5.72829 -0.79275,-8.54451 0.67274,-2.81624 2.95174,-5.42406 5.839,-5.64166"
     fill="#2f2e41"
     id="path88"
     style="stroke-width:0.488125" />
</svg>
